  0
SECTION
  2
HEADER
  9
$ACADVER
  1
AC1015
  9
$ACADMAINTVER
 70
     6
  9
$DWGCODEPAGE
  3
ANSI_1252
  9
$INSBASE
 10
0.0
 20
0.0
 30
0.0
  9
$EXTMIN
 10
-24.9966779006
 20
-29.3347856872
 30
0.0
  9
$EXTMAX
 10
25.2590775659
 20
24.700528257
 30
0.0
  9
$LIMMIN
 10
0.0
 20
0.0
  9
$LIMMAX
 10
420.0
 20
297.0
  9
$ORTHOMODE
 70
     0
  9
$REGENMODE
 70
     1
  9
$FILLMODE
 70
     1
  9
$QTEXTMODE
 70
     0
  9
$MIRRTEXT
 70
     1
  9
$LTSCALE
 40
1.0
  9
$ATTMODE
 70
     1
  9
$TEXTSIZE
 40
6.35
  9
$TRACEWID
 40
1.0
  9
$TEXTSTYLE
  7
Standard
  9
$CLAYER
  8
0
  9
$CELTYPE
  6
ByLayer
  9
$CECOLOR
 62
   256
  9
$CELTSCALE
 40
1.0
  9
$DISPSILH
 70
     0
  9
$DIMSCALE
 40
1.0
  9
$DIMASZ
 40
5.9944
  9
$DIMEXO
 40
0.9906
  9
$DIMDLI
 40
3.75
  9
$DIMRND
 40
0.0
  9
$DIMDLE
 40
0.0
  9
$DIMEXE
 40
0.9906
  9
$DIMTP
 40
0.0
  9
$DIMTM
 40
0.0
  9
$DIMTXT
 40
6.35
  9
$DIMCEN
 40
2.5
  9
$DIMTSZ
 40
0.0
  9
$DIMTOL
 70
     0
  9
$DIMLIM
 70
     0
  9
$DIMTIH
 70
     1
  9
$DIMTOH
 70
     1
  9
$DIMSE1
 70
     0
  9
$DIMSE2
 70
     0
  9
$DIMTAD
 70
     1
  9
$DIMZIN
 70
     0
  9
$DIMBLK
  1

  9
$DIMASO
 70
     1
  9
$DIMSHO
 70
     1
  9
$DIMPOST
  1

  9
$DIMAPOST
  1

  9
$DIMALT
 70
     0
  9
$DIMALTD
 70
     3
  9
$DIMALTF
 40
0.0393700787
  9
$DIMLFAC
 40
1.0
  9
$DIMTOFL
 70
     1
  9
$DIMTVP
 40
0.0
  9
$DIMTIX
 70
     0
  9
$DIMSOXD
 70
     0
  9
$DIMSAH
 70
     0
  9
$DIMBLK1
  1

  9
$DIMBLK2
  1

  9
$DIMSTYLE
  2
ISO-25
  9
$DIMCLRD
 70
     0
  9
$DIMCLRE
 70
     0
  9
$DIMCLRT
 70
     0
  9
$DIMTFAC
 40
1.0
  9
$DIMGAP
 40
1.524
  9
$DIMJUST
 70
     0
  9
$DIMSD1
 70
     0
  9
$DIMSD2
 70
     0
  9
$DIMTOLJ
 70
     0
  9
$DIMTZIN
 70
     0
  9
$DIMALTZ
 70
     0
  9
$DIMALTTZ
 70
     0
  9
$DIMUPT
 70
     0
  9
$DIMDEC
 70
     2
  9
$DIMTDEC
 70
     2
  9
$DIMALTU
 70
     2
  9
$DIMALTTD
 70
     3
  9
$DIMTXSTY
  7
Standard
  9
$DIMAUNIT
 70
     0
  9
$DIMADEC
 70
     2
  9
$DIMALTRND
 40
0.0
  9
$DIMAZIN
 70
     0
  9
$DIMDSEP
 70
    44
  9
$DIMATFIT
 70
     3
  9
$DIMFRAC
 70
     0
  9
$DIMLDRBLK
  1

  9
$DIMLUNIT
 70
     2
  9
$DIMLWD
 70
    -2
  9
$DIMLWE
 70
    -2
  9
$DIMTMOVE
 70
     0
  9
$LUNITS
 70
     2
  9
$LUPREC
 70
     2
  9
$SKETCHINC
 40
1.0
  9
$FILLETRAD
 40
10.0
  9
$AUNITS
 70
     0
  9
$AUPREC
 70
     2
  9
$MENU
  1
.
  9
$ELEVATION
 40
0.0
  9
$PELEVATION
 40
0.0
  9
$THICKNESS
 40
0.0
  9
$LIMCHECK
 70
     0
  9
$CHAMFERA
 40
10.0
  9
$CHAMFERB
 40
10.0
  9
$CHAMFERC
 40
20.0
  9
$CHAMFERD
 40
0.0
  9
$SKPOLY
 70
     0
  9
$TDCREATE
 40
2456483.977239201
  9
$TDUCREATE
 40
2456483.477239201
  9
$TDUPDATE
 40
2456483.97726375
  9
$TDUUPDATE
 40
2456483.47726375
  9
$TDINDWG
 40
0.0000000116
  9
$TDUSRTIMER
 40
0.0000000116
  9
$USRTIMER
 70
     1
  9
$ANGBASE
 50
0.0
  9
$ANGDIR
 70
     0
  9
$PDMODE
 70
     0
  9
$PDSIZE
 40
-1.0
  9
$PLINEWID
 40
0.0
  9
$SPLFRAME
 70
     0
  9
$SPLINETYPE
 70
     6
  9
$SPLINESEGS
 70
     8
  9
$HANDSEED
  5
BE
  9
$SURFTAB1
 70
     6
  9
$SURFTAB2
 70
     6
  9
$SURFTYPE
 70
     6
  9
$SURFU
 70
     6
  9
$SURFV
 70
     6
  9
$UCSBASE
  2

  9
$UCSNAME
  2

  9
$UCSORG
 10
0.0
 20
0.0
 30
0.0
  9
$UCSXDIR
 10
1.0
 20
0.0
 30
0.0
  9
$UCSYDIR
 10
0.0
 20
1.0
 30
0.0
  9
$UCSORTHOREF
  2

  9
$UCSORTHOVIEW
 70
     0
  9
$UCSORGTOP
 10
0.0
 20
0.0
 30
0.0
  9
$UCSORGBOTTOM
 10
0.0
 20
0.0
 30
0.0
  9
$UCSORGLEFT
 10
0.0
 20
0.0
 30
0.0
  9
$UCSORGRIGHT
 10
0.0
 20
0.0
 30
0.0
  9
$UCSORGFRONT
 10
0.0
 20
0.0
 30
0.0
  9
$UCSORGBACK
 10
0.0
 20
0.0
 30
0.0
  9
$PUCSBASE
  2

  9
$PUCSNAME
  2

  9
$PUCSORG
 10
0.0
 20
0.0
 30
0.0
  9
$PUCSXDIR
 10
1.0
 20
0.0
 30
0.0
  9
$PUCSYDIR
 10
0.0
 20
1.0
 30
0.0
  9
$PUCSORTHOREF
  2

  9
$PUCSORTHOVIEW
 70
     0
  9
$PUCSORGTOP
 10
0.0
 20
0.0
 30
0.0
  9
$PUCSORGBOTTOM
 10
0.0
 20
0.0
 30
0.0
  9
$PUCSORGLEFT
 10
0.0
 20
0.0
 30
0.0
  9
$PUCSORGRIGHT
 10
0.0
 20
0.0
 30
0.0
  9
$PUCSORGFRONT
 10
0.0
 20
0.0
 30
0.0
  9
$PUCSORGBACK
 10
0.0
 20
0.0
 30
0.0
  9
$USERI1
 70
     0
  9
$USERI2
 70
     0
  9
$USERI3
 70
     0
  9
$USERI4
 70
     0
  9
$USERI5
 70
     0
  9
$USERR1
 40
0.0
  9
$USERR2
 40
0.0
  9
$USERR3
 40
0.0
  9
$USERR4
 40
0.0
  9
$USERR5
 40
0.0
  9
$WORLDVIEW
 70
     1
  9
$SHADEDGE
 70
     3
  9
$SHADEDIF
 70
    70
  9
$TILEMODE
 70
     1
  9
$MAXACTVP
 70
    64
  9
$PINSBASE
 10
0.0
 20
0.0
 30
0.0
  9
$PLIMCHECK
 70
     0
  9
$PEXTMIN
 10
1.0000000000E+20
 20
1.0000000000E+20
 30
1.0000000000E+20
  9
$PEXTMAX
 10
-1.0000000000E+20
 20
-1.0000000000E+20
 30
-1.0000000000E+20
  9
$PLIMMIN
 10
0.0
 20
0.0
  9
$PLIMMAX
 10
420.0
 20
297.0
  9
$UNITMODE
 70
     0
  9
$VISRETAIN
 70
     1
  9
$PLINEGEN
 70
     0
  9
$PSLTSCALE
 70
     1
  9
$TREEDEPTH
 70
  3020
  9
$CMLSTYLE
  2
Standard
  9
$CMLJUST
 70
     0
  9
$CMLSCALE
 40
20.0
  9
$PROXYGRAPHICS
 70
     1
  9
$MEASUREMENT
 70
     1
  9
$CELWEIGHT
370
    -1
  9
$ENDCAPS
280
     0
  9
$JOINSTYLE
280
     0
  9
$LWDISPLAY
290
     1
  9
$INSUNITS
 70
     4
  9
$HYPERLINKBASE
  1

  9
$STYLESHEET
  1

  9
$XEDIT
290
     1
  9
$CEPSNTYPE
380
     0
  9
$PSTYLEMODE
290
     1
  9
$FINGERPRINTGUID
  2
{EC3DD6EA-170E-45F0-A052-988055CFC0D8}
  9
$VERSIONGUID
  2
{FAEB1C32-E019-11D5-929B-00C0DF256EC4}
  9
$EXTNAMES
290
     1
  9
$PSVPSCALE
 40
0.0
  9
$OLESTARTUP
290
     0
  0
ENDSEC
  0
SECTION
  2
CLASSES
  0
CLASS
  1
ACDBDICTIONARYWDFLT
  2
AcDbDictionaryWithDefault
  3
ObjectDBX Classes
 90
        0
280
     0
281
     0
  0
CLASS
  1
VISUALSTYLE
  2
AcDbVisualStyle
  3
ObjectDBX Classes
 90
     4095
280
     0
281
     0
  0
CLASS
  1
MATERIAL
  2
AcDbMaterial
  3
ObjectDBX Classes
 90
     1153
280
     0
281
     0
  0
CLASS
  1
ACDBPLACEHOLDER
  2
AcDbPlaceHolder
  3
ObjectDBX Classes
 90
        0
280
     0
281
     0
  0
CLASS
  1
LAYOUT
  2
AcDbLayout
  3
ObjectDBX Classes
 90
        0
280
     0
281
     0
  0
ENDSEC
  0
SECTION
  2
TABLES
  0
TABLE
  2
VPORT
  5
8
330
0
100
AcDbSymbolTable
 70
     1
  0
VPORT
  5
29
330
8
100
AcDbSymbolTableRecord
100
AcDbViewportTableRecord
  2
*Active
 70
     0
 10
0.0
 20
0.0
 11
1.0
 21
1.0
 12
0.1311998327
 22
-2.3171287151
 13
0.0
 23
0.0
 14
10.0
 24
10.0
 15
10.0
 25
10.0
 16
0.0
 26
0.0
 36
1.0
 17
0.0
 27
0.0
 37
0.0
 40
55.1160202232
 41
0.9300539184
 42
50.0
 43
0.0
 44
0.0
 50
0.0
 51
0.0
 71
     0
 72
   100
 73
     1
 74
     3
 75
     0
 76
     0
 77
     0
 78
     0
281
     0
 65
     1
110
0.0
120
0.0
130
0.0
111
1.0
121
0.0
131
0.0
112
0.0
122
1.0
132
0.0
 79
     0
146
0.0
  0
ENDTAB
  0
TABLE
  2
LTYPE
  5
5
330
0
100
AcDbSymbolTable
 70
     6
  0
LTYPE
  5
14
330
5
100
AcDbSymbolTableRecord
100
AcDbLinetypeTableRecord
  2
ByBlock
 70
     0
  3

 72
    65
 73
     0
 40
0.0
  0
LTYPE
  5
15
330
5
100
AcDbSymbolTableRecord
100
AcDbLinetypeTableRecord
  2
ByLayer
 70
     0
  3

 72
    65
 73
     0
 40
0.0
  0
LTYPE
  5
16
330
5
100
AcDbSymbolTableRecord
100
AcDbLinetypeTableRecord
  2
Continuous
 70
     0
  3
Solid line
 72
    65
 73
     0
 40
0.0
  0
LTYPE
  5
3F
330
5
100
AcDbSymbolTableRecord
100
AcDbLinetypeTableRecord
  2
HIDDEN
 70
     0
  3
Hidden __ __ __ __ __ __ __ __ __ __ __ __ __ __
 72
    65
 73
     2
 40
1.905
 49
1.27
 74
     0
 49
-0.635
 74
     0
  0
LTYPE
  5
40
330
5
100
AcDbSymbolTableRecord
100
AcDbLinetypeTableRecord
  2
PHANTOM
 70
     0
  3
Phantom ______  __  __  ______  __  __  ______
 72
    65
 73
     6
 40
12.7
 49
6.35
 74
     0
 49
-1.27
 74
     0
 49
1.27
 74
     0
 49
-1.27
 74
     0
 49
1.27
 74
     0
 49
-1.27
 74
     0
  0
LTYPE
  5
41
330
5
100
AcDbSymbolTableRecord
100
AcDbLinetypeTableRecord
  2
CENTER
 70
     0
  3
Center ____ _ ____ _ ____ _ ____ _ ____ _ ____
 72
    65
 73
     4
 40
10.16
 49
6.35
 74
     0
 49
-1.27
 74
     0
 49
1.27
 74
     0
 49
-1.27
 74
     0
  0
LTYPE
  5
42
330
5
100
AcDbSymbolTableRecord
100
AcDbLinetypeTableRecord
  2
CENTERX2
 70
     0
  3
Center (2x) ________  __  ________  __  _____
 72
    65
 73
     4
 40
20.32
 49
12.7
 74
     0
 49
-2.54
 74
     0
 49
2.54
 74
     0
 49
-2.54
 74
     0
  0
LTYPE
  5
43
330
5
100
AcDbSymbolTableRecord
100
AcDbLinetypeTableRecord
  2
DOT2
 70
     0
  3
Dot (.5x) ........................................
 72
    65
 73
     2
 40
0.635
 49
0.0
 74
     0
 49
-0.635
 74
     0
  0
ENDTAB
  0
TABLE
  2
LAYER
  5
2
330
0
100
AcDbSymbolTable
 70
     1
  0
LAYER
  5
10
330
2
100
AcDbSymbolTableRecord
100
AcDbLayerTableRecord
  2
0
 70
     0
 62
     7
  6
Continuous
370
    -3
390
F
  0
ENDTAB
  0
TABLE
  2
STYLE
  5
3
330
0
100
AcDbSymbolTable
 70
     2
  0
STYLE
  5
11
330
3
100
AcDbSymbolTableRecord
100
AcDbTextStyleTableRecord
  2
Standard
 70
     0
 40
0.0
 41
1.0
 50
0.0
 71
     0
 42
6.35
  3
txt
  4

  0
STYLE
  5
BB
330
3
100
AcDbSymbolTableRecord
100
AcDbTextStyleTableRecord
  2
SLDTEXTSTYLE0
 70
     0
 40
0.0
 41
0.7
 50
0.0
 71
     0
 42
0.2
  3
TXT
  4

  0
ENDTAB
  0
TABLE
  2
VIEW
  5
6
330
0
100
AcDbSymbolTable
 70
     0
  0
ENDTAB
  0
TABLE
  2
UCS
  5
7
330
0
100
AcDbSymbolTable
 70
     0
  0
ENDTAB
  0
TABLE
  2
APPID
  5
9
330
0
100
AcDbSymbolTable
 70
     1
  0
APPID
  5
12
330
9
100
AcDbSymbolTableRecord
100
AcDbRegAppTableRecord
  2
ACAD
 70
     0
  0
ENDTAB
  0
TABLE
  2
DIMSTYLE
  5
A
330
0
100
AcDbSymbolTable
 70
     1
100
AcDbDimStyleTable
  0
DIMSTYLE
105
27
330
A
100
AcDbSymbolTableRecord
100
AcDbDimStyleTableRecord
  2
ISO-25
 70
     0
 41
2.5
 42
0.625
 43
3.75
 44
1.25
 73
     0
 74
     0
 77
     1
 78
     8
140
2.5
141
2.5
143
0.0393700787
147
0.625
171
     3
172
     1
178
     0
271
     2
272
     2
274
     3
278
    44
283
     0
284
     8
340
11
  0
ENDTAB
  0
TABLE
  2
BLOCK_RECORD
  5
1
330
0
100
AcDbSymbolTable
 70
     1
  0
BLOCK_RECORD
  5
1F
330
1
100
AcDbSymbolTableRecord
100
AcDbBlockTableRecord
  2
*Model_Space
340
22
  0
BLOCK_RECORD
  5
1B
330
1
100
AcDbSymbolTableRecord
100
AcDbBlockTableRecord
  2
*Paper_Space
340
1E
  0
BLOCK_RECORD
  5
23
330
1
100
AcDbSymbolTableRecord
100
AcDbBlockTableRecord
  2
*Paper_Space0
340
26
  0
ENDTAB
  0
ENDSEC
  0
SECTION
  2
BLOCKS
  0
BLOCK
  5
20
330
1F
100
AcDbEntity
  8
0
100
AcDbBlockBegin
  2
*Model_Space
 70
     0
 10
0.0
 20
0.0
 30
0.0
  3
*Model_Space
  1

  0
ENDBLK
  5
21
330
1F
100
AcDbEntity
  8
0
100
AcDbBlockEnd
  0
BLOCK
  5
1C
330
1B
100
AcDbEntity
 67
     1
  8
0
100
AcDbBlockBegin
  2
*Paper_Space
 70
     0
 10
0.0
 20
0.0
 30
0.0
  3
*Paper_Space
  1

  0
ENDBLK
  5
1D
330
1B
100
AcDbEntity
 67
     1
  8
0
100
AcDbBlockEnd
  0
BLOCK
  5
24
330
23
100
AcDbEntity
  8
0
100
AcDbBlockBegin
  2
*Paper_Space0
 70
     0
 10
0.0
 20
0.0
 30
0.0
  3
*Paper_Space0
  1

  0
ENDBLK
  5
25
330
23
100
AcDbEntity
  8
0
100
AcDbBlockEnd
  0
ENDSEC
  0
SECTION
  2
ENTITIES
  0
LWPOLYLINE
  5
46
330
1F
100
AcDbEntity
  8
0
  6
Continuous
 62
     7
370
    15
100
AcDbPolyline
 90
      136
 70
   128
 43
0.0
 10
20.6949468095
 20
-13.8325243812
 10
20.0200665091
 20
-14.7699914458
 10
19.3018272028
 20
-15.6754699979
 10
18.5417844367
 20
-16.5469989726
 10
17.7415842945
 20
-17.3826908321
 10
16.9029598312
 20
-18.180735654
 10
16.0277273209
 20
-18.939405051
 10
15.1177823222
 20
-19.6570559139
 10
14.1750955734
 20
-20.3321339709
 10
13.2017087241
 20
-20.9631771532
 10
12.1997299134
 20
-21.5488187619
 10
11.1713292042
 20
-22.0877904275
 10
10.1187338837
 20
-22.5789248575
 10
9.0442236387
 20
-23.0211583641
 10
7.9501256193
 20
-23.4135331679
 10
6.8388093981
 20
-23.7551994725
 10
5.7126818386
 20
-24.0454173049
 10
4.5741818823
 20
-24.2835581177
 10
3.4257752666
 20
-24.469106151
 10
2.2699491845
 20
-24.6016595491
 10
1.109206898
 20
-24.6809312309
 10
-0.0539376837
 20
-24.7067495114
 10
-1.2169654484
 20
-24.6790584742
 10
-2.3773575369
 20
-24.5979180918
 10
-3.5326007984
 20
-24.4635040961
 10
-4.6801932331
 20
-24.2761075981
 10
-5.8176494115
 20
-24.0361344567
 10
-6.9425058567
 20
-23.7441044004
 10
-8.0523263802
 20
-23.4006499012
 10
-9.1447073578
 20
-23.0065148052
 10
-10.2172829356
 20
-22.5625527211
 10
-11.2677301537
 20
-22.0697251719
 10
-12.2937739773
 20
-21.5290995125
 10
-13.2931922241
 20
-20.9418466175
 10
-14.2638203766
 20
-20.3092383461
 10
-15.2035562703
 20
-19.6326447868
 10
-16.1103646467
 20
-18.9135312906
 10
-16.9822815607
 20
-18.1534552972
 10
-17.8174186343
 20
-17.3540629621
 10
-18.6139671468
 20
-16.5170855909
 10
-19.3702019513
 20
-15.6443358903
 10
-20.0844852116
 20
-14.7377040418
 10
-20.7552699494
 20
-13.799153608
 10
-21.3811033941
 20
-12.8307172804
 10
-21.96063013
 20
-11.8344924762
 10
-22.4925950312
 20
-10.8126367965
 10
-22.9758459801
 20
-9.7673633533
 10
-23.4093363628
 20
-8.7009359761
 10
-23.7921273357
 20
-7.615664309
 10
-24.1233898587
 20
-6.5138988089
 10
-24.402406491
 20
-5.3980256544
 10
-24.6285729447
 20
-4.2704615784
 10
-24.8013993937
 20
-3.1336486335
 10
-24.9205115342
 20
-1.9900489035
 10
-24.985651396
 20
-0.8421391707
 10
-24.9966779006
 20
0.307594448
 10
-24.953567167
 20
1.4566618857
 10
-24.8564125636
 20
2.602574518
 10
-24.7054245055
 20
3.7428505535
 10
-24.5009299992
 20
4.8750204082
 10
-24.2433719344
 20
5.9966320541
 10
-23.9333081244
 20
7.1052563304
 10
-23.5714100984
 20
8.1984922036
 10
-23.1584616469
 20
9.2739719684
 10
-22.6953571244
 20
10.3293663749
 10
-22.183099512
 20
11.362389674
 10
-21.6227982458
 20
12.3708045673
 10
-21.0156668135
 20
13.3524270525
 10
-20.3630201266
 20
14.305131154
 10
-19.6662716725
 20
15.2268535268
 10
-18.9269304531
 20
16.1155979256
 10
-18.146597717
 20
16.9694395278
 10
-17.326963491
 20
17.7865291027
 10
-16.4698029205
 20
18.5650970163
 10
-15.5769724243
 20
19.3034570637
 10
-14.6504056744
 20
20.0000101216
 10
-13.6921094082
 20
20.653247611
 10
-12.7041590819
 20
21.2617547652
 10
-11.6886943759
 20
21.824213693
 10
-10.6479145607
 20
22.3394062338
 10
-9.5840737337
 20
22.8062165951
 10
-8.4994759371
 20
23.2236337697
 10
-7.3964701682
 20
23.5907537249
 10
-6.277445292
 20
23.9067813606
 10
-5.1448248671
 20
24.1710322315
 10
-4.0010618972
 20
24.3829340288
 10
-2.8486335182
 20
24.5420278206
 10
-1.6900356333
 20
24.647969045
 10
-0.5277775075
 20
24.700528257
 10
0.6356236668
 20
24.6995916251
 10
1.7976482218
 20
24.6451611777
 10
2.955779471
 20
24.5373547992
 10
4.1075091601
 20
24.376405974
 10
5.250342899
 20
24.1626632816
 10
6.3818055643
 20
23.896589641
 10
7.4994466598
 20
23.5787613084
 10
8.6008456238
 20
23.2098666293
 10
9.6836170714
 20
22.7907045474
 10
10.7454159608
 20
22.3221828744
 10
11.7839426719
 20
21.8053163239
 10
12.7969479872
 20
21.2412243138
 10
13.7822379628
 20
20.6311285418
 10
14.7376786799
 20
19.9763503395
 10
15.6612008668
 20
19.2783078105
 10
16.55080438
 20
18.5385127597
 10
17.4045625363
 20
17.7585674184
 10
18.2206262858
 20
16.9401609745
 10
18.9972282161
 20
16.085065914
 10
19.7326863803
 20
15.1951341826
 10
20.4254079399
 20
14.2722931742
 10
21.0738926141
 20
13.3185415568
 10
21.6767359295
 20
12.3359449442
 10
22.2326322619
 20
11.3266314217
 10
22.7403776635
 20
10.2927869378
 10
23.1988724708
 20
9.2366505693
 10
23.6071236862
 20
8.1605096725
 10
23.9642471285
 20
7.0666949289
 10
24.2694693478
 20
5.9575752977
 10
24.5221293007
 20
4.835552885
 10
24.7216797821
 20
3.7030577415
 10
24.86768861
 20
2.5625425995
 10
24.9598395618
 20
1.4164775609
 10
24.9979330592
 20
0.2673447473
 10
24.9818866
 20
-0.8823670755
 10
24.9117349373
 20
-2.0301678877
 10
24.787630004
 20
-3.1735718083
 10
24.6098405838
 20
-4.3101024791
 10
24.3787517289
 20
-5.4372984277
 10
24.0948639263
 20
-6.5527183986
 10
23.7587920139
 20
-7.6539466406
 10
23.3712638485
 20
-8.7385981385
 10
22.9331187298
 20
-9.8043237788
 10
22.4453055827
 20
-10.848815437
 10
21.9088809017
 20
-11.8698109767
 10
21.3250064633
 20
-12.8650991489
 10
20.6949468095
 20
-13.8325243812
  0
CIRCLE
  5
55
330
1F
100
AcDbEntity
  8
0
  6
Continuous
 62
     7
370
    15
100
AcDbCircle
 10
-10.3748688922
 20
6.884516235
 30
0.0
 40
3.579577742778671
  0
CIRCLE
  5
56
330
1F
100
AcDbEntity
  8
0
  6
Continuous
 62
     7
370
    15
100
AcDbCircle
 10
6.984593753
 20
10.2040386471
 30
0.0
 40
3.579577742778673
  0
CIRCLE
  5
57
330
1F
100
AcDbEntity
  8
0
  6
Continuous
 62
     7
370
    15
100
AcDbCircle
 10
10.3200779173
 20
-6.9480081462
 30
0.0
 40
3.579577742778675
  0
CIRCLE
  5
58
330
1F
100
AcDbEntity
  8
0
  6
Continuous
 62
     7
370
    15
100
AcDbCircle
 10
-7.0393847278
 20
-10.2675305582
 30
0.0
 40
3.579577742778671
  0
CIRCLE
  5
61
330
1F
100
AcDbEntity
  8
0
  6
Continuous
 62
     7
370
    15
100
AcDbCircle
 10
-7.0239049786
 20
-10.4291240644
 30
0.0
 40
2.834132766530175
  0
CIRCLE
  5
67
330
1F
100
AcDbEntity
  8
0
  6
Continuous
 62
     7
370
    15
100
AcDbCircle
 10
10.3355576665
 20
-7.1096016523
 30
0.0
 40
2.834132766530173
  0
CIRCLE
  5
7C
330
1F
100
AcDbEntity
  8
0
  6
Continuous
 62
     7
370
    15
100
AcDbCircle
 10
-10.3593891429
 20
6.7229227289
 30
0.0
 40
2.834132766530175
  0
CIRCLE
  5
82
330
1F
100
AcDbEntity
  8
0
  6
Continuous
 62
     7
370
    15
100
AcDbCircle
 10
7.0000735022
 20
10.042445141
 30
0.0
 40
2.834132766530176
  0
LINE
  5
84
330
1F
100
AcDbEntity
  8
0
  6
Continuous
 62
     7
370
    15
100
AcDbLine
 10
-24.9596173651
 20
-1.4203876188
 30
0.0
 11
-24.6988992422
 21
-6.0018303895
 31
0.0
  0
LINE
  5
85
330
1F
100
AcDbEntity
  8
0
  6
Continuous
 62
     7
370
    15
100
AcDbLine
 10
25.220335488
 20
-3.161055152
 30
0.0
 11
24.9596173651
 21
1.4203876188
 31
0.0
  0
LINE
  5
86
330
1F
100
AcDbEntity
  8
0
  6
Continuous
 62
     7
370
    15
100
AcDbLine
 10
-3.0170710834
 20
4.4042304127
 30
0.0
 11
-5.2609076404
 21
1.1287793398
 31
0.0
  0
LINE
  5
87
330
1F
100
AcDbEntity
  8
0
  6
Continuous
 62
     7
370
    15
100
AcDbLine
 10
-5.2609076404
 20
1.1287793398
 30
0.0
 11
-2.7775140232
 21
-0.5311235859
 31
0.0
  0
LINE
  5
88
330
1F
100
AcDbEntity
  8
0
  6
Continuous
 62
     7
370
    15
100
AcDbLine
 10
-2.7775140232
 20
-0.5311235859
 30
0.0
 11
-4.4603914409
 21
-2.9877118906
 31
0.0
  0
LINE
  5
89
330
1F
100
AcDbEntity
  8
0
  6
Continuous
 62
     7
370
    15
100
AcDbLine
 10
-4.4603914409
 20
-2.9877118906
 30
0.0
 11
-1.1491999514
 21
-5.2009157916
 31
0.0
  0
LINE
  5
8A
330
1F
100
AcDbEntity
  8
0
  6
Continuous
 62
     7
370
    15
100
AcDbLine
 10
-1.1491999514
 20
-5.2009157916
 30
0.0
 11
0.5336774663
 21
-2.7443274869
 31
0.0
  0
LINE
  5
8B
330
1F
100
AcDbEntity
  8
0
  6
Continuous
 62
     7
370
    15
100
AcDbLine
 10
0.5336774663
 20
-2.7443274869
 30
0.0
 11
3.0170710834
 21
-4.4042304127
 31
0.0
  0
LINE
  5
8C
330
1F
100
AcDbEntity
  8
0
  6
Continuous
 62
     7
370
    15
100
AcDbLine
 10
3.0170710834
 20
-4.4042304127
 30
0.0
 11
5.2609076404
 21
-1.1287793398
 31
0.0
  0
LINE
  5
8D
330
1F
100
AcDbEntity
  8
0
  6
Continuous
 62
     7
370
    15
100
AcDbLine
 10
5.2609076404
 20
-1.1287793398
 30
0.0
 11
2.7775140232
 21
0.5311235859
 31
0.0
  0
LINE
  5
8E
330
1F
100
AcDbEntity
  8
0
  6
Continuous
 62
     7
370
    15
100
AcDbLine
 10
2.7775140232
 20
0.5311235859
 30
0.0
 11
4.4603914409
 21
2.9877118906
 31
0.0
  0
LINE
  5
8F
330
1F
100
AcDbEntity
  8
0
  6
Continuous
 62
     7
370
    15
100
AcDbLine
 10
4.4603914409
 20
2.9877118906
 30
0.0
 11
1.1491999514
 21
5.2009157916
 31
0.0
  0
LINE
  5
90
330
1F
100
AcDbEntity
  8
0
  6
Continuous
 62
     7
370
    15
100
AcDbLine
 10
1.1491999514
 20
5.2009157916
 30
0.0
 11
-0.5336774663
 21
2.7443274869
 31
0.0
  0
LINE
  5
91
330
1F
100
AcDbEntity
  8
0
  6
Continuous
 62
     7
370
    15
100
AcDbLine
 10
-0.5336774663
 20
2.7443274869
 30
0.0
 11
-3.0170710834
 21
4.4042304127
 31
0.0
  0
LINE
  5
92
330
1F
100
AcDbEntity
  8
0
  6
Continuous
 62
     7
370
    15
100
AcDbLine
 10
-2.7775140232
 20
-0.5311235859
 30
0.0
 11
-2.7340610027
 21
-1.2946973811
 31
0.0
  0
LINE
  5
93
330
1F
100
AcDbEntity
  8
0
  6
Continuous
 62
     7
370
    15
100
AcDbLine
 10
-2.7340610027
 20
-1.2946973811
 30
0.0
 11
-4.0717899371
 21
-3.2474535476
 31
0.0
  0
LINE
  5
94
330
1F
100
AcDbEntity
  8
0
  6
Continuous
 62
     7
370
    15
100
AcDbLine
 10
4.915759157
 20
-1.6326114779
 30
0.0
 11
2.8209670437
 21
-0.2324502092
 31
0.0
  0
LINE
  5
95
330
1F
100
AcDbEntity
  8
0
  6
Continuous
 62
     7
370
    15
100
AcDbLine
 10
2.7775140232
 20
0.5311235859
 30
0.0
 11
2.8209670437
 21
-0.2324502092
 31
0.0
  0
LINE
  5
96
330
1F
100
AcDbEntity
  8
0
  6
Continuous
 62
     7
370
    15
100
AcDbLine
 10
-2.9736180629
 20
3.6406566175
 30
0.0
 11
-3.0170710834
 21
4.4042304127
 31
0.0
  0
LINE
  5
97
330
1F
100
AcDbEntity
  8
0
  6
Continuous
 62
     7
370
    15
100
AcDbLine
 10
-2.9736180629
 20
3.6406566175
 30
0.0
 11
-4.8723061365
 21
0.8690376828
 31
0.0
  0
LINE
  5
98
330
1F
100
AcDbEntity
  8
0
  6
Continuous
 62
     7
370
    15
100
AcDbLine
 10
4.1152429576
 20
2.4838797525
 30
0.0
 11
1.1926529719
 21
4.4373419964
 31
0.0
  0
LINE
  5
99
330
1F
100
AcDbEntity
  8
0
  6
Continuous
 62
     7
370
    15
100
AcDbLine
 10
1.1926529719
 20
4.4373419964
 30
0.0
 11
1.1491999514
 21
5.2009157916
 31
0.0
  0
LINE
  5
9A
330
1F
100
AcDbEntity
  8
0
  6
Continuous
 62
     7
370
    15
100
AcDbLine
 10
-0.4902244458
 20
1.9807536918
 30
0.0
 11
-0.5336774663
 21
2.7443274869
 31
0.0
  0
LINE
  5
9B
330
1F
100
AcDbEntity
  8
0
  6
Continuous
 62
     7
370
    15
100
AcDbLine
 10
1.1926529719
 20
4.4373419964
 30
0.0
 11
-0.4902244458
 21
1.9807536918
 31
0.0
  0
LINE
  5
9C
330
1F
100
AcDbEntity
  8
0
  6
Continuous
 62
     7
370
    15
100
AcDbLine
 10
-0.4902244458
 20
1.9807536918
 30
0.0
 11
-2.9736180629
 21
3.6406566175
 31
0.0
  0
ARC
  5
9D
330
1F
100
AcDbEntity
  8
0
  6
Continuous
 62
     7
370
    15
100
AcDbCircle
 10
0.2784452982
 20
-4.2994970084
 30
0.0
 40
25.03528867879603
100
AcDbArc
 50
183.898969907
 51
325.6821767668
  0
ARC
  5
9E
330
1F
100
AcDbEntity
  8
0
  6
Continuous
 62
     7
370
    15
100
AcDbCircle
 10
0.7392954007
 20
-4.5388772283
 30
0.0
 40
24.51978216520117
100
AcDbArc
 50
325.5370435372
 51
3.2212763307
  0
ARC
  5
9F
330
1F
100
AcDbEntity
  8
0
  6
Continuous
 62
     7
370
    15
100
AcDbCircle
 10
-7.0725875343
 20
-10.3945935093
 30
0.0
 40
3.530520496131207
100
AcDbArc
 50
145.5340832631
 51
181.9808975584
  0
ARC
  5
A0
330
1F
100
AcDbEntity
  8
0
  6
Continuous
 62
     7
370
    15
100
AcDbCircle
 10
-7.0054271107
 20
-10.4292328415
 30
0.0
 40
3.605507107289871
100
AcDbArc
 50
5.1170775794
 51
145.6842281812
  0
ARC
  5
A1
330
1F
100
AcDbEntity
  8
0
  6
Continuous
 62
     7
370
    15
100
AcDbCircle
 10
10.2868751108
 20
-7.0750710973
 30
0.0
 40
3.530520496131071
100
AcDbArc
 50
145.5340832631
 51
181.9808975588
  0
ARC
  5
A2
330
1F
100
AcDbEntity
  8
0
  6
Continuous
 62
     7
370
    15
100
AcDbCircle
 10
10.3540355344
 20
-7.1097104294
 30
0.0
 40
3.605507107289349
100
AcDbArc
 50
5.1170775784
 51
145.6842281812
  0
ARC
  5
A3
330
1F
100
AcDbEntity
  8
0
  6
Continuous
 62
     7
370
    15
100
AcDbCircle
 10
-7.0063774224
 20
-10.4097670931
 30
0.0
 40
3.543998346254573
100
AcDbArc
 50
346.1294290055
 51
145.9276701732
  0
ARC
  5
A4
330
1F
100
AcDbEntity
  8
0
  6
Continuous
 62
     7
370
    15
100
AcDbCircle
 10
-7.0775091829
 20
-10.3924194076
 30
0.0
 40
3.475452266202692
100
AcDbArc
 50
145.5075878175
 51
201.1028012871
  0
ARC
  5
A5
330
1F
100
AcDbEntity
  8
0
  6
Continuous
 62
     7
370
    15
100
AcDbCircle
 10
-7.0712638037
 20
-10.4095701464
 30
0.0
 40
3.480947977035485
100
AcDbArc
 50
145.5322068219
 51
183.226113046
  0
ARC
  5
A6
330
1F
100
AcDbEntity
  8
0
  6
Continuous
 62
     7
370
    15
100
AcDbCircle
 10
-7.0050272092
 20
-10.4441027708
 30
0.0
 40
3.555111295009187
100
AcDbArc
 50
3.9036353851
 51
145.6775112887
  0
ARC
  5
A7
330
1F
100
AcDbEntity
  8
0
  6
Continuous
 62
     7
370
    15
100
AcDbCircle
 10
-6.7479664036
 20
-14.875299123
 30
0.0
 40
2.875059325542823
100
AcDbArc
 50
55.3505780925
 51
131.163506964
  0
ARC
  5
A8
330
1F
100
AcDbEntity
  8
0
  6
Continuous
 62
     7
370
    15
100
AcDbCircle
 10
10.3530852227
 20
-7.0902446811
 30
0.0
 40
3.543998346253906
100
AcDbArc
 50
346.1294290041
 51
145.9276701732
  0
ARC
  5
A9
330
1F
100
AcDbEntity
  8
0
  6
Continuous
 62
     7
370
    15
100
AcDbCircle
 10
10.2819534622
 20
-7.0728969956
 30
0.0
 40
3.475452266202661
100
AcDbArc
 50
145.5075878175
 51
201.1028012877
  0
ARC
  5
AA
330
1F
100
AcDbEntity
  8
0
  6
Continuous
 62
     7
370
    15
100
AcDbCircle
 10
10.2881988414
 20
-7.0900477343
 30
0.0
 40
3.480947977035564
100
AcDbArc
 50
145.5322068219
 51
183.226113046
  0
ARC
  5
AB
330
1F
100
AcDbEntity
  8
0
  6
Continuous
 62
     7
370
    15
100
AcDbCircle
 10
10.3544354359
 20
-7.1245803587
 30
0.0
 40
3.555111295009189
100
AcDbArc
 50
3.9036353851
 51
145.6775112887
  0
ARC
  5
AC
330
1F
100
AcDbEntity
  8
0
  6
Continuous
 62
     7
370
    15
100
AcDbCircle
 10
10.6115020876
 20
-11.5558794408
 30
0.0
 40
2.875140512691151
100
AcDbArc
 50
55.3518378732
 51
131.1622471832
  0
ARC
  5
AD
330
1F
100
AcDbEntity
  8
0
  6
Continuous
 62
     7
370
    15
100
AcDbCircle
 10
-10.4080716986
 20
6.7574532839
 30
0.0
 40
3.530520496130862
100
AcDbArc
 50
145.5340832631
 51
181.9808975594
  0
ARC
  5
AE
330
1F
100
AcDbEntity
  8
0
  6
Continuous
 62
     7
370
    15
100
AcDbCircle
 10
-10.3409112751
 20
6.7228139518
 30
0.0
 40
3.605507107289669
100
AcDbArc
 50
5.117077579
 51
145.6842281812
  0
ARC
  5
AF
330
1F
100
AcDbEntity
  8
0
  6
Continuous
 62
     7
370
    15
100
AcDbCircle
 10
6.9513909465
 20
10.076975696
 30
0.0
 40
3.5305204961311
100
AcDbArc
 50
145.5340832631
 51
181.9808975584
  0
ARC
  5
B0
330
1F
100
AcDbEntity
  8
0
  6
Continuous
 62
     7
370
    15
100
AcDbCircle
 10
7.0185513701
 20
10.0423363638
 30
0.0
 40
3.605507107289856
100
AcDbArc
 50
5.1170775793
 51
145.6842281812
  0
ARC
  5
B1
330
1F
100
AcDbEntity
  8
0
  6
Continuous
 62
     7
370
    15
100
AcDbCircle
 10
-10.3418615868
 20
6.7422797001
 30
0.0
 40
3.54399834625369
100
AcDbArc
 50
346.1294290037
 51
145.9276701732
  0
ARC
  5
B2
330
1F
100
AcDbEntity
  8
0
  6
Continuous
 62
     7
370
    15
100
AcDbCircle
 10
-10.4129933473
 20
6.7596273856
 30
0.0
 40
3.475452266202582
100
AcDbArc
 50
145.5075878175
 51
201.102801289
  0
ARC
  5
B3
330
1F
100
AcDbEntity
  8
0
  6
Continuous
 62
     7
370
    15
100
AcDbCircle
 10
-10.406747968
 20
6.7424766468
 30
0.0
 40
3.480947977035556
100
AcDbArc
 50
145.5322068219
 51
183.226113046
  0
ARC
  5
B4
330
1F
100
AcDbEntity
  8
0
  6
Continuous
 62
     7
370
    15
100
AcDbCircle
 10
-10.3405113736
 20
6.7079440225
 30
0.0
 40
3.55511129500919
100
AcDbArc
 50
3.9036353851
 51
145.6775112887
  0
ARC
  5
B5
330
1F
100
AcDbEntity
  8
0
  6
Continuous
 62
     7
370
    15
100
AcDbCircle
 10
-10.0834447218
 20
2.2766449404
 30
0.0
 40
2.875140512691154
100
AcDbArc
 50
55.3518378732
 51
131.1622471832
  0
ARC
  5
B6
330
1F
100
AcDbEntity
  8
0
  6
Continuous
 62
     7
370
    15
100
AcDbCircle
 10
7.0176010584
 20
10.0618021122
 30
0.0
 40
3.543998346255695
100
AcDbArc
 50
346.1294290078
 51
145.9276701732
  0
ARC
  5
B7
330
1F
100
AcDbEntity
  8
0
  6
Continuous
 62
     7
370
    15
100
AcDbCircle
 10
6.9464692978
 20
10.0791497977
 30
0.0
 40
3.475452266202732
100
AcDbArc
 50
145.5075878175
 51
201.1028012867
  0
ARC
  5
B8
330
1F
100
AcDbEntity
  8
0
  6
Continuous
 62
     7
370
    15
100
AcDbCircle
 10
6.9527146771
 20
10.0619990589
 30
0.0
 40
3.480947977035581
100
AcDbArc
 50
145.5322068219
 51
183.226113046
  0
ARC
  5
B9
330
1F
100
AcDbEntity
  8
0
  6
Continuous
 62
     7
370
    15
100
AcDbCircle
 10
7.0189512715
 20
10.0274664346
 30
0.0
 40
3.555111295009189
100
AcDbArc
 50
3.9036353851
 51
145.6775112887
  0
ARC
  5
BA
330
1F
100
AcDbEntity
  8
0
  6
Continuous
 62
     7
370
    15
100
AcDbCircle
 10
7.2760179233
 20
5.5961673525
 30
0.0
 40
2.875140512691158
100
AcDbArc
 50
55.3518378732
 51
131.1622471832
  0
MTEXT
  5
BC
330
1F
100
AcDbEntity
  8
0
  6
Continuous
 62
     7
100
AcDbMText
 10
-24.9966779006
 20
-30.3543520789
 30
0.0
 40
4.83362
 41
0.0
 71
     1
 72
     1
  1
SolidWorks Educational Edition.
  7
SLDTEXTSTYLE0
 73
     1
 44
1.0
  0
MTEXT
  5
BD
330
1F
100
AcDbEntity
  8
0
  6
Continuous
 62
     7
100
AcDbMText
 10
-24.9966779006
 20
-37.6047820789
 30
0.0
 40
4.83362
 41
0.0
 71
     1
 72
     1
  1
For Instructional Use Only.
  7
SLDTEXTSTYLE0
 73
     1
 44
1.0
  0
ENDSEC
  0
SECTION
  2
OBJECTS
  0
DICTIONARY
  5
C
330
0
100
AcDbDictionary
281
     1
  3
ACAD_GROUP
350
D
  3
ACAD_LAYOUT
350
1A
  3
ACAD_MLINESTYLE
350
17
  3
ACAD_PLOTSETTINGS
350
19
  3
ACAD_PLOTSTYLENAME
350
E
  0
DICTIONARY
  5
D
102
{ACAD_REACTORS
330
C
102
}
330
C
100
AcDbDictionary
281
     1
  0
DICTIONARY
  5
1A
102
{ACAD_REACTORS
330
C
102
}
330
C
100
AcDbDictionary
281
     1
  3
Layout1
350
1E
  3
Layout2
350
26
  3
Model
350
22
  0
DICTIONARY
  5
17
102
{ACAD_REACTORS
330
C
102
}
330
C
100
AcDbDictionary
281
     1
  3
Standard
350
18
  0
DICTIONARY
  5
19
102
{ACAD_REACTORS
330
C
102
}
330
C
100
AcDbDictionary
281
     1
  0
ACDBDICTIONARYWDFLT
  5
E
102
{ACAD_REACTORS
330
C
102
}
330
C
100
AcDbDictionary
281
     1
  3
Normal
350
F
100
AcDbDictionaryWithDefault
340
F
  0
LAYOUT
  5
1E
102
{ACAD_REACTORS
330
1A
102
}
330
1A
100
AcDbPlotSettings
  1

  2
none_device
  4

  6

 40
0.0
 41
0.0
 42
0.0
 43
0.0
 44
0.0
 45
0.0
 46
0.0
 47
0.0
 48
0.0
 49
0.0
140
0.0
141
0.0
142
1.0
143
1.0
 70
   688
 72
     0
 73
     0
 74
     5
  7

 75
    16
147
1.0
148
0.0
149
0.0
100
AcDbLayout
  1
Layout1
 70
     1
 71
     1
 10
0.0
 20
0.0
 11
420.0
 21
297.0
 12
0.0
 22
0.0
 32
0.0
 14
1.0000000000E+20
 24
1.0000000000E+20
 34
1.0000000000E+20
 15
-1.0000000000E+20
 25
-1.0000000000E+20
 35
-1.0000000000E+20
146
0.0
 13
0.0
 23
0.0
 33
0.0
 16
1.0
 26
0.0
 36
0.0
 17
0.0
 27
1.0
 37
0.0
 76
     0
330
1B
  0
LAYOUT
  5
26
102
{ACAD_REACTORS
330
1A
102
}
330
1A
100
AcDbPlotSettings
  1

  2
none_device
  4

  6

 40
0.0
 41
0.0
 42
0.0
 43
0.0
 44
0.0
 45
0.0
 46
0.0
 47
0.0
 48
0.0
 49
0.0
140
0.0
141
0.0
142
1.0
143
1.0
 70
   688
 72
     0
 73
     0
 74
     5
  7

 75
    16
147
1.0
148
0.0
149
0.0
100
AcDbLayout
  1
Layout2
 70
     1
 71
     2
 10
0.0
 20
0.0
 11
0.0
 21
0.0
 12
0.0
 22
0.0
 32
0.0
 14
0.0
 24
0.0
 34
0.0
 15
0.0
 25
0.0
 35
0.0
146
0.0
 13
0.0
 23
0.0
 33
0.0
 16
1.0
 26
0.0
 36
0.0
 17
0.0
 27
1.0
 37
0.0
 76
     0
330
23
  0
LAYOUT
  5
22
102
{ACAD_REACTORS
330
1A
102
}
330
1A
100
AcDbPlotSettings
  1

  2
none_device
  4
ANSI_A_(11.00_x_8.50_Inches)
  6

 40
6.35
 41
19.05
 42
6.35000508
 43
19.05000254
 44
279.4
 45
215.9
 46
132.8310260432
 47
98.065586427
 48
0.0
 49
0.0
140
0.0
141
0.0
142
0.1557314909
143
1.0
 70
  1696
 72
     0
 73
     0
 74
     0
  7

 75
     0
147
0.0179189148
148
0.0
149
0.0
100
AcDbLayout
  1
Model
 70
     1
 71
     0
 10
0.0
 20
0.0
 11
420.0
 21
297.0
 12
0.0
 22
0.0
 32
0.0
 14
-24.9966779006
 24
-29.3347856872
 34
0.0
 15
25.2590775659
 25
24.700528257
 35
0.0
146
0.0
 13
0.0
 23
0.0
 33
0.0
 16
1.0
 26
0.0
 36
0.0
 17
0.0
 27
1.0
 37
0.0
 76
     0
330
1F
331
29
  0
MLINESTYLE
  5
18
102
{ACAD_REACTORS
330
17
102
}
330
17
100
AcDbMlineStyle
  2
Standard
 70
     0
  3

 62
   256
 51
90.0
 52
90.0
 71
     2
 49
0.5
 62
   256
  6
BYLAYER
 49
-0.5
 62
   256
  6
BYLAYER
  0
ACDBPLACEHOLDER
  5
F
102
{ACAD_REACTORS
330
E
102
}
330
E
  0
ENDSEC
  0
EOF
