  0
SECTION
  2
HEADER
  9
$ACADVER
  1
AC1015
  9
$ACADMAINTVER
 70
     6
  9
$DWGCODEPAGE
  3
ANSI_1252
  9
$INSBASE
 10
0.0
 20
0.0
 30
0.0
  9
$EXTMIN
 10
-32.1935770127
 20
-14.2505314151
 30
0.0
  9
$EXTMAX
 10
34.8142416627
 20
34.8760716674
 30
0.0
  9
$LIMMIN
 10
0.0
 20
0.0
  9
$LIMMAX
 10
420.0
 20
297.0
  9
$ORTHOMODE
 70
     0
  9
$REGENMODE
 70
     1
  9
$FILLMODE
 70
     1
  9
$QTEXTMODE
 70
     0
  9
$MIRRTEXT
 70
     1
  9
$LTSCALE
 40
1.0
  9
$ATTMODE
 70
     1
  9
$TEXTSIZE
 40
2.5
  9
$TRACEWID
 40
1.0
  9
$TEXTSTYLE
  7
Standard
  9
$CLAYER
  8
0
  9
$CELTYPE
  6
ByLayer
  9
$CECOLOR
 62
   256
  9
$CELTSCALE
 40
1.0
  9
$DISPSILH
 70
     0
  9
$DIMSCALE
 40
1.0
  9
$DIMASZ
 40
6.0
  9
$DIMEXO
 40
1.0
  9
$DIMDLI
 40
3.75
  9
$DIMRND
 40
0.0
  9
$DIMDLE
 40
0.0
  9
$DIMEXE
 40
1.0
  9
$DIMTP
 40
0.0
  9
$DIMTM
 40
0.0
  9
$DIMTXT
 40
2.5
  9
$DIMCEN
 40
2.5
  9
$DIMTSZ
 40
0.0
  9
$DIMTOL
 70
     0
  9
$DIMLIM
 70
     0
  9
$DIMTIH
 70
     1
  9
$DIMTOH
 70
     1
  9
$DIMSE1
 70
     0
  9
$DIMSE2
 70
     0
  9
$DIMTAD
 70
     1
  9
$DIMZIN
 70
     0
  9
$DIMBLK
  1

  9
$DIMASO
 70
     1
  9
$DIMSHO
 70
     1
  9
$DIMPOST
  1

  9
$DIMAPOST
  1

  9
$DIMALT
 70
     0
  9
$DIMALTD
 70
     3
  9
$DIMALTF
 40
0.0393700787
  9
$DIMLFAC
 40
1.0
  9
$DIMTOFL
 70
     1
  9
$DIMTVP
 40
0.0
  9
$DIMTIX
 70
     0
  9
$DIMSOXD
 70
     0
  9
$DIMSAH
 70
     0
  9
$DIMBLK1
  1

  9
$DIMBLK2
  1

  9
$DIMSTYLE
  2
ISO-25
  9
$DIMCLRD
 70
     0
  9
$DIMCLRE
 70
     0
  9
$DIMCLRT
 70
     0
  9
$DIMTFAC
 40
1.0
  9
$DIMGAP
 40
1.524
  9
$DIMJUST
 70
     0
  9
$DIMSD1
 70
     0
  9
$DIMSD2
 70
     0
  9
$DIMTOLJ
 70
     0
  9
$DIMTZIN
 70
     0
  9
$DIMALTZ
 70
     0
  9
$DIMALTTZ
 70
     0
  9
$DIMUPT
 70
     0
  9
$DIMDEC
 70
     2
  9
$DIMTDEC
 70
     2
  9
$DIMALTU
 70
     2
  9
$DIMALTTD
 70
     3
  9
$DIMTXSTY
  7
Standard
  9
$DIMAUNIT
 70
     0
  9
$DIMADEC
 70
     2
  9
$DIMALTRND
 40
0.0
  9
$DIMAZIN
 70
     0
  9
$DIMDSEP
 70
    44
  9
$DIMATFIT
 70
     3
  9
$DIMFRAC
 70
     0
  9
$DIMLDRBLK
  1

  9
$DIMLUNIT
 70
     2
  9
$DIMLWD
 70
    -2
  9
$DIMLWE
 70
    -2
  9
$DIMTMOVE
 70
     0
  9
$LUNITS
 70
     2
  9
$LUPREC
 70
     2
  9
$SKETCHINC
 40
1.0
  9
$FILLETRAD
 40
10.0
  9
$AUNITS
 70
     0
  9
$AUPREC
 70
     2
  9
$MENU
  1
.
  9
$ELEVATION
 40
0.0
  9
$PELEVATION
 40
0.0
  9
$THICKNESS
 40
0.0
  9
$LIMCHECK
 70
     0
  9
$CHAMFERA
 40
10.0
  9
$CHAMFERB
 40
10.0
  9
$CHAMFERC
 40
20.0
  9
$CHAMFERD
 40
0.0
  9
$SKPOLY
 70
     0
  9
$TDCREATE
 40
2456493.766417442
  9
$TDUCREATE
 40
2456493.266417442
  9
$TDUPDATE
 40
2456493.766470162
  9
$TDUUPDATE
 40
2456493.266470162
  9
$TDINDWG
 40
0.0000000116
  9
$TDUSRTIMER
 40
0.0000000116
  9
$USRTIMER
 70
     1
  9
$ANGBASE
 50
0.0
  9
$ANGDIR
 70
     0
  9
$PDMODE
 70
     0
  9
$PDSIZE
 40
-1.0
  9
$PLINEWID
 40
0.0
  9
$SPLFRAME
 70
     0
  9
$SPLINETYPE
 70
     6
  9
$SPLINESEGS
 70
     8
  9
$HANDSEED
  5
192
  9
$SURFTAB1
 70
     6
  9
$SURFTAB2
 70
     6
  9
$SURFTYPE
 70
     6
  9
$SURFU
 70
     6
  9
$SURFV
 70
     6
  9
$UCSBASE
  2

  9
$UCSNAME
  2

  9
$UCSORG
 10
0.0
 20
0.0
 30
0.0
  9
$UCSXDIR
 10
1.0
 20
0.0
 30
0.0
  9
$UCSYDIR
 10
0.0
 20
1.0
 30
0.0
  9
$UCSORTHOREF
  2

  9
$UCSORTHOVIEW
 70
     0
  9
$UCSORGTOP
 10
0.0
 20
0.0
 30
0.0
  9
$UCSORGBOTTOM
 10
0.0
 20
0.0
 30
0.0
  9
$UCSORGLEFT
 10
0.0
 20
0.0
 30
0.0
  9
$UCSORGRIGHT
 10
0.0
 20
0.0
 30
0.0
  9
$UCSORGFRONT
 10
0.0
 20
0.0
 30
0.0
  9
$UCSORGBACK
 10
0.0
 20
0.0
 30
0.0
  9
$PUCSBASE
  2

  9
$PUCSNAME
  2

  9
$PUCSORG
 10
0.0
 20
0.0
 30
0.0
  9
$PUCSXDIR
 10
1.0
 20
0.0
 30
0.0
  9
$PUCSYDIR
 10
0.0
 20
1.0
 30
0.0
  9
$PUCSORTHOREF
  2

  9
$PUCSORTHOVIEW
 70
     0
  9
$PUCSORGTOP
 10
0.0
 20
0.0
 30
0.0
  9
$PUCSORGBOTTOM
 10
0.0
 20
0.0
 30
0.0
  9
$PUCSORGLEFT
 10
0.0
 20
0.0
 30
0.0
  9
$PUCSORGRIGHT
 10
0.0
 20
0.0
 30
0.0
  9
$PUCSORGFRONT
 10
0.0
 20
0.0
 30
0.0
  9
$PUCSORGBACK
 10
0.0
 20
0.0
 30
0.0
  9
$USERI1
 70
     0
  9
$USERI2
 70
     0
  9
$USERI3
 70
     0
  9
$USERI4
 70
     0
  9
$USERI5
 70
     0
  9
$USERR1
 40
0.0
  9
$USERR2
 40
0.0
  9
$USERR3
 40
0.0
  9
$USERR4
 40
0.0
  9
$USERR5
 40
0.0
  9
$WORLDVIEW
 70
     1
  9
$SHADEDGE
 70
     3
  9
$SHADEDIF
 70
    70
  9
$TILEMODE
 70
     1
  9
$MAXACTVP
 70
    64
  9
$PINSBASE
 10
0.0
 20
0.0
 30
0.0
  9
$PLIMCHECK
 70
     0
  9
$PEXTMIN
 10
1.0000000000E+20
 20
1.0000000000E+20
 30
1.0000000000E+20
  9
$PEXTMAX
 10
-1.0000000000E+20
 20
-1.0000000000E+20
 30
-1.0000000000E+20
  9
$PLIMMIN
 10
0.0
 20
0.0
  9
$PLIMMAX
 10
420.0
 20
297.0
  9
$UNITMODE
 70
     0
  9
$VISRETAIN
 70
     1
  9
$PLINEGEN
 70
     0
  9
$PSLTSCALE
 70
     1
  9
$TREEDEPTH
 70
  3020
  9
$CMLSTYLE
  2
Standard
  9
$CMLJUST
 70
     0
  9
$CMLSCALE
 40
20.0
  9
$PROXYGRAPHICS
 70
     1
  9
$MEASUREMENT
 70
     1
  9
$CELWEIGHT
370
    -1
  9
$ENDCAPS
280
     0
  9
$JOINSTYLE
280
     0
  9
$LWDISPLAY
290
     1
  9
$INSUNITS
 70
     4
  9
$HYPERLINKBASE
  1

  9
$STYLESHEET
  1

  9
$XEDIT
290
     1
  9
$CEPSNTYPE
380
     0
  9
$PSTYLEMODE
290
     1
  9
$FINGERPRINTGUID
  2
{D3856FB1-A508-4B00-B8B3-A5685E8C4320}
  9
$VERSIONGUID
  2
{FAEB1C32-E019-11D5-929B-00C0DF256EC4}
  9
$EXTNAMES
290
     1
  9
$PSVPSCALE
 40
0.0
  9
$OLESTARTUP
290
     0
  0
ENDSEC
  0
SECTION
  2
CLASSES
  0
CLASS
  1
ACDBDICTIONARYWDFLT
  2
AcDbDictionaryWithDefault
  3
ObjectDBX Classes
 90
        0
280
     0
281
     0
  0
CLASS
  1
VISUALSTYLE
  2
AcDbVisualStyle
  3
ObjectDBX Classes
 90
     4095
280
     0
281
     0
  0
CLASS
  1
MATERIAL
  2
AcDbMaterial
  3
ObjectDBX Classes
 90
     1153
280
     0
281
     0
  0
CLASS
  1
ACDBPLACEHOLDER
  2
AcDbPlaceHolder
  3
ObjectDBX Classes
 90
        0
280
     0
281
     0
  0
CLASS
  1
LAYOUT
  2
AcDbLayout
  3
ObjectDBX Classes
 90
        0
280
     0
281
     0
  0
ENDSEC
  0
SECTION
  2
TABLES
  0
TABLE
  2
VPORT
  5
8
330
0
100
AcDbSymbolTable
 70
     1
  0
VPORT
  5
29
330
8
100
AcDbSymbolTableRecord
100
AcDbViewportTableRecord
  2
*Active
 70
     0
 10
0.0
 20
0.0
 11
1.0
 21
1.0
 12
1.310332325
 22
10.3127701262
 13
0.0
 23
0.0
 14
10.0
 24
10.0
 15
10.0
 25
10.0
 16
0.0
 26
0.0
 36
1.0
 17
0.0
 27
0.0
 37
0.0
 40
50.1091351441
 41
1.3639823328
 42
50.0
 43
0.0
 44
0.0
 50
0.0
 51
0.0
 71
     0
 72
   100
 73
     1
 74
     3
 75
     0
 76
     0
 77
     0
 78
     0
281
     0
 65
     1
110
0.0
120
0.0
130
0.0
111
1.0
121
0.0
131
0.0
112
0.0
122
1.0
132
0.0
 79
     0
146
0.0
  0
ENDTAB
  0
TABLE
  2
LTYPE
  5
5
330
0
100
AcDbSymbolTable
 70
     6
  0
LTYPE
  5
14
330
5
100
AcDbSymbolTableRecord
100
AcDbLinetypeTableRecord
  2
ByBlock
 70
     0
  3

 72
    65
 73
     0
 40
0.0
  0
LTYPE
  5
15
330
5
100
AcDbSymbolTableRecord
100
AcDbLinetypeTableRecord
  2
ByLayer
 70
     0
  3

 72
    65
 73
     0
 40
0.0
  0
LTYPE
  5
16
330
5
100
AcDbSymbolTableRecord
100
AcDbLinetypeTableRecord
  2
Continuous
 70
     0
  3
Solid line
 72
    65
 73
     0
 40
0.0
  0
LTYPE
  5
3F
330
5
100
AcDbSymbolTableRecord
100
AcDbLinetypeTableRecord
  2
HIDDEN
 70
     0
  3
Hidden __ __ __ __ __ __ __ __ __ __ __ __ __ __
 72
    65
 73
     2
 40
1.905
 49
1.27
 74
     0
 49
-0.635
 74
     0
  0
LTYPE
  5
40
330
5
100
AcDbSymbolTableRecord
100
AcDbLinetypeTableRecord
  2
PHANTOM
 70
     0
  3
Phantom ______  __  __  ______  __  __  ______
 72
    65
 73
     6
 40
12.7
 49
6.35
 74
     0
 49
-1.27
 74
     0
 49
1.27
 74
     0
 49
-1.27
 74
     0
 49
1.27
 74
     0
 49
-1.27
 74
     0
  0
LTYPE
  5
41
330
5
100
AcDbSymbolTableRecord
100
AcDbLinetypeTableRecord
  2
CENTER
 70
     0
  3
Center ____ _ ____ _ ____ _ ____ _ ____ _ ____
 72
    65
 73
     4
 40
10.16
 49
6.35
 74
     0
 49
-1.27
 74
     0
 49
1.27
 74
     0
 49
-1.27
 74
     0
  0
LTYPE
  5
42
330
5
100
AcDbSymbolTableRecord
100
AcDbLinetypeTableRecord
  2
CENTERX2
 70
     0
  3
Center (2x) ________  __  ________  __  _____
 72
    65
 73
     4
 40
20.32
 49
12.7
 74
     0
 49
-2.54
 74
     0
 49
2.54
 74
     0
 49
-2.54
 74
     0
  0
LTYPE
  5
43
330
5
100
AcDbSymbolTableRecord
100
AcDbLinetypeTableRecord
  2
DOT2
 70
     0
  3
Dot (.5x) ........................................
 72
    65
 73
     2
 40
0.635
 49
0.0
 74
     0
 49
-0.635
 74
     0
  0
ENDTAB
  0
TABLE
  2
LAYER
  5
2
330
0
100
AcDbSymbolTable
 70
     1
  0
LAYER
  5
10
330
2
100
AcDbSymbolTableRecord
100
AcDbLayerTableRecord
  2
0
 70
     0
 62
     7
  6
Continuous
370
    -3
390
F
  0
ENDTAB
  0
TABLE
  2
STYLE
  5
3
330
0
100
AcDbSymbolTable
 70
     2
  0
STYLE
  5
11
330
3
100
AcDbSymbolTableRecord
100
AcDbTextStyleTableRecord
  2
Standard
 70
     0
 40
0.0
 41
1.0
 50
0.0
 71
     0
 42
2.5
  3
txt
  4

  0
STYLE
  5
18F
330
3
100
AcDbSymbolTableRecord
100
AcDbTextStyleTableRecord
  2
SLDTEXTSTYLE0
 70
     0
 40
0.0
 41
0.7
 50
0.0
 71
     0
 42
0.2
  3
TXT
  4

  0
ENDTAB
  0
TABLE
  2
VIEW
  5
6
330
0
100
AcDbSymbolTable
 70
     0
  0
ENDTAB
  0
TABLE
  2
UCS
  5
7
330
0
100
AcDbSymbolTable
 70
     0
  0
ENDTAB
  0
TABLE
  2
APPID
  5
9
330
0
100
AcDbSymbolTable
 70
     1
  0
APPID
  5
12
330
9
100
AcDbSymbolTableRecord
100
AcDbRegAppTableRecord
  2
ACAD
 70
     0
  0
ENDTAB
  0
TABLE
  2
DIMSTYLE
  5
A
330
0
100
AcDbSymbolTable
 70
     1
100
AcDbDimStyleTable
  0
DIMSTYLE
105
27
330
A
100
AcDbSymbolTableRecord
100
AcDbDimStyleTableRecord
  2
ISO-25
 70
     0
 41
2.5
 42
0.625
 43
3.75
 44
1.25
 73
     0
 74
     0
 77
     1
 78
     8
140
2.5
141
2.5
143
0.0393700787
147
0.625
171
     3
172
     1
178
     0
271
     2
272
     2
274
     3
278
    44
283
     0
284
     8
340
11
  0
ENDTAB
  0
TABLE
  2
BLOCK_RECORD
  5
1
330
0
100
AcDbSymbolTable
 70
     1
  0
BLOCK_RECORD
  5
1F
330
1
100
AcDbSymbolTableRecord
100
AcDbBlockTableRecord
  2
*Model_Space
340
22
  0
BLOCK_RECORD
  5
1B
330
1
100
AcDbSymbolTableRecord
100
AcDbBlockTableRecord
  2
*Paper_Space
340
1E
  0
BLOCK_RECORD
  5
23
330
1
100
AcDbSymbolTableRecord
100
AcDbBlockTableRecord
  2
*Paper_Space0
340
26
  0
ENDTAB
  0
ENDSEC
  0
SECTION
  2
BLOCKS
  0
BLOCK
  5
20
330
1F
100
AcDbEntity
  8
0
100
AcDbBlockBegin
  2
*Model_Space
 70
     0
 10
0.0
 20
0.0
 30
0.0
  3
*Model_Space
  1

  0
ENDBLK
  5
21
330
1F
100
AcDbEntity
  8
0
100
AcDbBlockEnd
  0
BLOCK
  5
1C
330
1B
100
AcDbEntity
 67
     1
  8
0
100
AcDbBlockBegin
  2
*Paper_Space
 70
     0
 10
0.0
 20
0.0
 30
0.0
  3
*Paper_Space
  1

  0
ENDBLK
  5
1D
330
1B
100
AcDbEntity
 67
     1
  8
0
100
AcDbBlockEnd
  0
BLOCK
  5
24
330
23
100
AcDbEntity
  8
0
100
AcDbBlockBegin
  2
*Paper_Space0
 70
     0
 10
0.0
 20
0.0
 30
0.0
  3
*Paper_Space0
  1

  0
ENDBLK
  5
25
330
23
100
AcDbEntity
  8
0
100
AcDbBlockEnd
  0
ENDSEC
  0
SECTION
  2
ENTITIES
  0
SPLINE
  5
4B
330
1F
100
AcDbEntity
  8
0
  6
Continuous
 62
     7
370
    15
100
AcDbSpline
210
0.0
220
0.0
230
1.0
 70
     8
 71
     3
 72
    32
 73
    28
 74
     0
 42
0.00000001
 43
0.00000001
 12
1.0
 22
0.0
 32
0.0
 13
1.0
 23
0.0
 33
0.0
 40
0.0
 40
0.0
 40
0.0
 40
0.0
 40
0.043157855809163
 40
0.0868287760656201
 40
0.1323902401166803
 40
0.1785877187546917
 40
0.2237250361469436
 40
0.2679519212237432
 40
0.3110547577306734
 40
0.3532796446787599
 40
0.3950138385103724
 40
0.4362268628381661
 40
0.476896082815159
 40
0.5170079703298126
 40
0.5565575325095249
 40
0.5955476796209906
 40
0.6340344168867161
 40
0.6721072064619829
 40
0.7103473933053602
 40
0.7488227540606622
 40
0.787486045671329
 40
0.8262869940041024
 40
0.8651727120868444
 40
0.9040886306492186
 40
0.9429634016973908
 40
0.9818517680213608
 40
1.0
 40
1.0
 40
1.0
 40
1.0
 10
0.6762428792756163
 20
30.6837325432653
 30
0.0
 10
0.1927008504272257
 20
30.71881885329811
 30
0.0
 10
-0.7801315981273131
 20
30.78940858255341
 30
0.0
 10
-2.264512753360582
 20
30.85498858384569
 30
0.0
 10
-3.781849612989677
 20
30.87972441435533
 30
0.0
 10
-5.313523193279773
 20
30.85990332457838
 30
0.0
 10
-6.826527960604019
 20
30.79352178405956
 30
0.0
 10
-8.299909106493654
 20
30.68253737685359
 30
0.0
 10
-9.734199722180021
 20
30.52699152816122
 30
0.0
 10
-11.13274893962155
 20
30.3285475619345
 30
0.0
 10
-12.50096352369728
 20
30.08774036716093
 30
0.0
 10
-13.84113967005294
 20
29.80484290398724
 30
0.0
 10
-15.15119199767108
 20
29.48086303028058
 30
0.0
 10
-16.42933689835228
 20
29.11686312334012
 30
0.0
 10
-17.67407548285203
 20
28.71388312903716
 30
0.0
 10
-18.88470357576024
 20
28.27293577267896
 30
0.0
 10
-20.06129328585844
 20
27.79409227373375
 30
0.0
 10
-21.21003955359564
 20
27.27620493577814
 30
0.0
 10
-22.33752312704225
 20
26.7177651632021
 30
0.0
 10
-23.44825738196121
 20
26.11650999411278
 30
0.0
 10
-24.5404554039279
 20
25.47306228916117
 30
0.0
 10
-25.61124209109953
 20
24.78878181657752
 30
0.0
 10
-26.65765372913975
 20
24.06516291138006
 30
0.0
 10
-27.67704382767177
 20
23.30422142926305
 30
0.0
 10
-28.66626696392952
 20
22.50653651053921
 30
0.0
 10
-29.45719514923589
 20
21.82341277405138
 30
0.0
 10
-29.9087898976824
 20
21.39849578868708
 30
0.0
 10
-30.05248090484346
 20
21.26329326519257
 30
0.0
  0
SPLINE
  5
4C
330
1F
100
AcDbEntity
  8
0
  6
Continuous
 62
     7
370
    15
100
AcDbSpline
210
0.0
220
0.0
230
1.0
 70
     8
 71
     3
 72
    14
 73
    10
 74
     0
 42
0.00000001
 43
0.00000001
 12
1.0
 22
0.0
 32
0.0
 13
1.0
 23
0.0
 33
0.0
 40
0.0
 40
0.0
 40
0.0
 40
0.0
 40
0.0649087554904714
 40
0.2399240330335928
 40
0.4105357171777755
 40
0.5766076873748037
 40
0.7396695533309521
 40
0.900988631144179
 40
1.0
 40
1.0
 40
1.0
 40
1.0
 10
-15.61446107931872
 20
4.317278459434994
 30
0.0
 10
-15.6368205751367
 20
4.309245875472174
 30
0.0
 10
-15.71946859962449
 20
4.27955481260279
 30
0.0
 10
-15.87478092491384
 20
4.252256873726556
 30
0.0
 10
-16.0802574613
 20
4.258960632697246
 30
0.0
 10
-16.2838724834601
 20
4.308324794136903
 30
0.0
 10
-16.47507095160002
 20
4.397401290569585
 30
0.0
 10
-16.62609121281768
 20
4.504620010416294
 30
0.0
 10
-16.70448836655954
 20
4.585498673633508
 30
0.0
 10
-16.7343051229386
 20
4.616259221463494
 30
0.0
  0
SPLINE
  5
52
330
1F
100
AcDbEntity
  8
0
  6
Continuous
 62
     7
370
    15
100
AcDbSpline
210
0.0
220
0.0
230
1.0
 70
     8
 71
     3
 72
    10
 73
     6
 74
     0
 42
0.00000001
 43
0.00000001
 12
1.0
 22
0.0
 32
0.0
 13
1.0
 23
0.0
 33
0.0
 40
0.0
 40
0.0
 40
0.0
 40
0.0
 40
0.2394779468329528
 40
0.8660515369221714
 40
1.0
 40
1.0
 40
1.0
 40
1.0
 10
-7.124549145884618
 20
7.664071862829007
 30
0.0
 10
-7.141862390305216
 20
7.649686885031262
 30
0.0
 10
-7.204474259739803
 20
7.597664841686204
 30
0.0
 10
-7.28833127023296
 20
7.549158645050141
 30
0.0
 10
-7.357781051634101
 20
7.521000647366754
 30
0.0
 10
-7.370013032864668
 20
7.516041263878356
 30
0.0
  0
SPLINE
  5
5A
330
1F
100
AcDbEntity
  8
0
  6
Continuous
 62
     7
370
    15
100
AcDbSpline
210
0.0
220
0.0
230
1.0
 70
     8
 71
     3
 72
     9
 73
     5
 74
     0
 42
0.00000001
 43
0.00000001
 12
1.0
 22
0.0
 32
0.0
 13
1.0
 23
0.0
 33
0.0
 40
0.0
 40
0.0
 40
0.0
 40
0.0
 40
0.5307111294083309
 40
0.9999999999999999
 40
0.9999999999999999
 40
0.9999999999999999
 40
0.9999999999999999
 10
8.008815930937107
 20
6.899540016229739
 30
0.0
 10
8.02042336495842
 20
6.918831518088784
 30
0.0
 10
8.042294837739203
 20
6.95518180507175
 30
0.0
 10
8.071828994249227
 20
6.98536607090504
 30
0.0
 10
8.085689045201697
 20
6.999531210927584
 30
0.0
  0
SPLINE
  5
5D
330
1F
100
AcDbEntity
  8
0
  6
Continuous
 62
     7
370
    15
100
AcDbSpline
210
0.0
220
0.0
230
1.0
 70
     8
 71
     3
 72
    43
 73
    39
 74
     0
 42
0.00000001
 43
0.00000001
 12
1.0
 22
0.0
 32
0.0
 13
1.0
 23
0.0
 33
0.0
 40
0.0
 40
0.0
 40
0.0
 40
0.0
 40
0.0216397267264129
 40
0.0419477250087674
 40
0.0636513060949995
 40
0.0847795577451488
 40
0.106407563308525
 40
0.1286509992400228
 40
0.151640933780158
 40
0.1755075301547095
 40
0.2003792970510601
 40
0.2263814650750126
 40
0.253633669562391
 40
0.2822467172315503
 40
0.3121806139702759
 40
0.3458101035622033
 40
0.3850566845323099
 40
0.430061582400757
 40
0.4867850607331006
 40
0.5386050820411964
 40
0.5807044704541438
 40
0.6168285609688037
 40
0.6489257530303078
 40
0.6781195411061697
 40
0.7051621257006873
 40
0.730577156384499
 40
0.7574259823910767
 40
0.778714569197061
 40
0.8011303298095429
 40
0.8235930107943121
 40
0.8461336590104446
 40
0.8687155739999446
 40
0.891290371198031
 40
0.9138120385455056
 40
0.9362438059420357
 40
0.9585557012165645
 40
0.9807252971905166
 40
1.0
 40
1.0
 40
1.0
 40
1.0
 10
-29.0793433146661
 20
14.70484423213073
 30
0.0
 10
-28.88416277260056
 20
14.60401020603816
 30
0.0
 10
-28.50581327636435
 20
14.40854757143404
 30
0.0
 10
-27.91413271694437
 20
14.14967996672127
 30
0.0
 10
-27.31215800793064
 20
13.9338679188328
 30
0.0
 10
-26.68553010978975
 20
13.75622611180495
 30
0.0
 10
-26.04500364541337
 20
13.6185715318136
 30
0.0
 10
-25.38034610723291
 20
13.51876860012171
 30
0.0
 10
-24.69041035150319
 20
13.45745024284268
 30
0.0
 10
-23.97382353896529
 20
13.43549570228549
 30
0.0
 10
-23.22919768098171
 20
13.45400951287342
 30
0.0
 10
-22.45517651374025
 20
13.51433557140094
 30
0.0
 10
-21.65056751326653
 20
13.61783447531636
 30
0.0
 10
-20.81556323195136
 20
13.76625175984038
 30
0.0
 10
-19.92922302993732
 20
13.9637837047624
 30
0.0
 10
-18.95025396100115
 20
14.21508616965434
 30
0.0
 10
-17.83946976309649
 20
14.53698400159434
 30
0.0
 10
-16.52306143030276
 20
14.95235618527141
 30
0.0
 10
-15.09752211500944
 20
15.42263785567991
 30
0.0
 10
-13.69548275738795
 20
15.8705166773689
 30
0.0
 10
-12.4761010370246
 20
16.23020388527923
 30
0.0
 10
-11.43188611741962
 20
16.50325673056499
 30
0.0
 10
-10.49987556458637
 20
16.70905565107251
 30
0.0
 10
-9.645798496791679
 20
16.85889865354173
 30
0.0
 10
-8.848705699390326
 20
16.95975550202649
 30
0.0
 10
-8.06843455583189
 20
17.01768322085794
 30
0.0
 10
-7.340183130837675
 20
17.03091164634322
 30
0.0
 10
-6.640568083095892
 20
16.99996367338711
 30
0.0
 10
-5.984746241215576
 20
16.92666602957397
 30
0.0
 10
-5.320255507516715
 20
16.80834794654308
 30
0.0
 10
-4.660801270527077
 20
16.64606220879742
 30
0.0
 10
-4.009986004063541
 20
16.4405667234325
 30
0.0
 10
-3.372066260363988
 20
16.19297107183653
 30
0.0
 10
-2.751293240597258
 20
15.90474123896495
 30
0.0
 10
-2.15137641626589
 20
15.57791403776441
 30
0.0
 10
-1.576649471194919
 20
15.2136671564245
 30
0.0
 10
-1.050171673965373
 20
14.83369640652494
 30
0.0
 10
-0.7285797575054456
 20
14.56071836275086
 30
0.0
 10
-0.5790154314665912
 20
14.43376312833482
 30
0.0
  0
SPLINE
  5
5F
330
1F
100
AcDbEntity
  8
0
  6
Continuous
 62
     7
370
    15
100
AcDbSpline
210
0.0
220
0.0
230
1.0
 70
     8
 71
     3
 72
    14
 73
    10
 74
     0
 42
0.00000001
 43
0.00000001
 12
1.0
 22
0.0
 32
0.0
 13
1.0
 23
0.0
 33
0.0
 40
0.0
 40
0.0
 40
0.0
 40
0.0
 40
0.062122362523278
 40
0.2159389591477239
 40
0.3706688111868315
 40
0.5273383262330686
 40
0.6872162990848172
 40
0.8516808340163138
 40
1.0
 40
1.0
 40
1.0
 40
1.0
 10
-6.485514786030855
 20
-4.100706589839114
 30
0.0
 10
-6.467254853313599
 20
-4.121865118353458
 30
0.0
 10
-6.403782848951342
 20
-4.19541271762212
 30
0.0
 10
-6.315961929040486
 20
-4.336251918895671
 30
0.0
 10
-6.242553185325677
 20
-4.524034160686301
 30
0.0
 10
-6.208667170594151
 20
-4.717425253413079
 30
0.0
 10
-6.215173855620821
 20
-4.907822701571033
 30
0.0
 10
-6.257096879823274
 20
-5.082520480896646
 30
0.0
 10
-6.311154362909554
 20
-5.182302594429846
 30
0.0
 10
-6.336787926241257
 20
-5.229618358697712
 30
0.0
  0
SPLINE
  5
62
330
1F
100
AcDbEntity
  8
0
  6
Continuous
 62
     7
370
    15
100
AcDbSpline
210
0.0
220
0.0
230
1.0
 70
     8
 71
     3
 72
    13
 73
     9
 74
     0
 42
0.00000001
 43
0.00000001
 12
1.0
 22
0.0
 32
0.0
 13
1.0
 23
0.0
 33
0.0
 40
0.0
 40
0.0
 40
0.0
 40
0.0
 40
0.0790955489420528
 40
0.2853653066248824
 40
0.4878358849844925
 40
0.6866920443712413
 40
0.8834519487201581
 40
1.0
 40
1.0
 40
1.0
 40
1.0
 10
-9.114538961136203
 20
-1.866230092556299
 30
0.0
 10
-9.08972666201484
 20
-1.863276607113093
 30
0.0
 10
-9.000207473621277
 20
-1.85262085858633
 30
0.0
 10
-8.83880337082643
 20
-1.859946683651338
 30
0.0
 10
-8.636159052082883
 20
-1.909660738183366
 30
0.0
 10
-8.445250893788824
 20
-1.999639352097703
 30
0.0
 10
-8.295953397655095
 20
-2.106578420771342
 30
0.0
 10
-8.218711858755585
 20
-2.186447749652695
 30
0.0
 10
-8.189978624648818
 20
-2.21615850059571
 30
0.0
  0
SPLINE
  5
66
330
1F
100
AcDbEntity
  8
0
  6
Continuous
 62
     7
370
    15
100
AcDbSpline
210
0.0
220
0.0
230
1.0
 70
     8
 71
     3
 72
    28
 73
    24
 74
     0
 42
0.00000001
 43
0.00000001
 12
1.0
 22
0.0
 32
0.0
 13
1.0
 23
0.0
 33
0.0
 40
0.0
 40
0.0
 40
0.0
 40
0.0
 40
0.0072470342405622
 40
0.047641198773863
 40
0.0885872688400118
 40
0.1310920654750697
 40
0.1755063730348869
 40
0.2225712766310212
 40
0.2745599946757392
 40
0.3339317329950219
 40
0.4052246930581786
 40
0.5018057704606119
 40
0.5763829677110556
 40
0.633486078294969
 40
0.6848657941445233
 40
0.7318486849461501
 40
0.7741089665786007
 40
0.8197665825732271
 40
0.8638398266444924
 40
0.907148553981733
 40
0.9495469104453697
 40
0.9896271440193335
 40
0.9999999999999999
 40
0.9999999999999999
 40
0.9999999999999999
 40
0.9999999999999999
 10
12.44809031038703
 20
25.25967738234321
 30
0.0
 10
12.41693744022566
 20
25.26361056801166
 30
0.0
 10
12.21214192933545
 20
25.28946689406518
 30
0.0
 10
11.83546712658666
 20
25.37910401303151
 30
0.0
 10
11.3156114356886
 20
25.53167787041485
 30
0.0
 10
10.79055964922271
 20
25.73294175504183
 30
0.0
 10
10.25489385716627
 20
25.98162274481368
 30
0.0
 10
9.698214865645209
 20
26.28441048018306
 30
0.0
 10
9.101566235316577
 20
26.65142699088983
 30
0.0
 10
8.432428121829275
 20
27.1044814788199
 30
0.0
 10
7.617907184105557
 20
27.69411796331113
 30
0.0
 10
6.757076461091883
 20
28.33436560022808
 30
0.0
 10
5.934691464221793
 20
28.92087317317173
 30
0.0
 10
5.256948202986788
 20
29.36427199195644
 30
0.0
 10
4.66360307125839
 20
29.71153516358805
 30
0.0
 10
4.110053926464532
 20
29.99367538196979
 30
0.0
 10
3.563448208715818
 20
30.22970435199911
 30
0.0
 10
3.013092079678787
 20
30.41787390198186
 30
0.0
 10
2.446400806970086
 20
30.56223077291433
 30
0.0
 10
1.88529119756357
 20
30.65651437780259
 30
0.0
 10
1.33734580971195
 20
30.70251224354498
 30
0.0
 10
0.932287017266456
 20
30.69790346068496
 30
0.0
 10
0.7146872476730022
 20
30.68879643936308
 30
0.0
 10
0.669950025605064
 20
30.68692408979205
 30
0.0
  0
SPLINE
  5
67
330
1F
100
AcDbEntity
  8
0
  6
Continuous
 62
     7
370
    15
100
AcDbSpline
210
0.0
220
0.0
230
1.0
 70
     8
 71
     3
 72
    12
 73
     8
 74
     0
 42
0.00000001
 43
0.00000001
 12
1.0
 22
0.0
 32
0.0
 13
1.0
 23
0.0
 33
0.0
 40
0.0
 40
0.0
 40
0.0
 40
0.0
 40
0.0936032143582587
 40
0.3584864567955269
 40
0.6171564275797602
 40
0.8666326959039753
 40
1.0
 40
1.0
 40
1.0
 40
1.0
 10
13.17728629893289
 20
25.45294615061652
 30
0.0
 10
13.15997420377837
 20
25.43855571799917
 30
0.0
 10
13.09367144169694
 20
25.38344249100033
 30
0.0
 10
12.96010805582771
 20
25.30830803693102
 30
0.0
 10
12.76801116553691
 20
25.25181729724288
 30
0.0
 10
12.59297001147264
 20
25.23876848471517
 30
0.0
 10
12.48558376099921
 20
25.25181835065799
 30
0.0
 10
12.44817471000723
 20
25.25636439913572
 30
0.0
  0
SPLINE
  5
6A
330
1F
100
AcDbEntity
  8
0
  6
Continuous
 62
     7
370
    15
100
AcDbSpline
210
0.0
220
0.0
230
1.0
 70
     8
 71
     3
 72
    12
 73
     8
 74
     0
 42
0.00000001
 43
0.00000001
 12
1.0
 22
0.0
 32
0.0
 13
1.0
 23
0.0
 33
0.0
 40
0.0
 40
0.0
 40
0.0
 40
0.0
 40
0.0982555265071162
 40
0.3410278197007909
 40
0.5846121817882983
 40
0.8300695225701175
 40
1.0
 40
1.0
 40
1.0
 40
1.0
 10
-0.576112111128322
 20
14.43743336779886
 30
0.0
 10
-0.5551750478024883
 20
14.41870148153991
 30
0.0
 10
-0.4825061475302057
 20
14.35368636679915
 30
0.0
 10
-0.3757370637169259
 20
14.22406904483559
 30
0.0
 10
-0.2776184145345172
 20
14.04482031954178
 30
0.0
 10
-0.219303646336504
 20
13.87409372667207
 30
0.0
 10
-0.2112025913837915
 20
13.76799288775278
 30
0.0
 10
-0.2078885410543288
 20
13.72458822968918
 30
0.0
  0
SPLINE
  5
71
330
1F
100
AcDbEntity
  8
0
  6
Continuous
 62
     7
370
    15
100
AcDbSpline
210
0.0
220
0.0
230
1.0
 70
     8
 71
     3
 72
    18
 73
    14
 74
     0
 42
0.00000001
 43
0.00000001
 12
1.0
 22
0.0
 32
0.0
 13
1.0
 23
0.0
 33
0.0
 40
0.0
 40
0.0
 40
0.0
 40
0.0
 40
0.0948103694134095
 40
0.1946331822993524
 40
0.2845738389680475
 40
0.3806543917637437
 40
0.4731184640470842
 40
0.5729634192415822
 40
0.6729830452665893
 40
0.7731359918308108
 40
0.873370950871117
 40
0.9736143389692371
 40
1.0
 40
1.0
 40
1.0
 40
1.0
 10
14.36366854527618
 20
12.02223707358539
 30
0.0
 10
14.91550155727185
 20
12.23263347915614
 30
0.0
 10
16.04834194052387
 20
12.66454954713413
 30
0.0
 10
17.71925951914698
 20
13.26029697858729
 30
0.0
 10
19.41067785060865
 20
13.82494738843784
 30
0.0
 10
21.07546148649327
 20
14.32950316785966
 30
0.0
 10
22.81339937383284
 20
14.81269189614379
 30
0.0
 10
24.58817792161732
 20
15.26162445128357
 30
0.0
 10
26.42268065189802
 20
15.67841656893665
 30
0.0
 10
28.27132700422196
 20
16.05263812761863
 30
0.0
 10
30.13292737910484
 20
16.3796278445092
 30
0.0
 10
31.5432781325501
 20
16.6021002407423
 30
0.0
 10
32.33530843520423
 20
16.7021265240842
 30
0.0
 10
32.50034357710642
 20
16.72296897393739
 30
0.0
  0
LWPOLYLINE
  5
74
330
1F
100
AcDbEntity
  8
0
  6
Continuous
 62
     7
370
    15
100
AcDbPolyline
 90
       37
 70
   128
 43
0.0
 10
-2.2372812146
 20
2.3708854393
 10
-2.0171524361
 20
2.5827500506
 10
-1.8362233903
 20
2.8287904117
 10
-1.6991988609
 20
3.1026086186
 10
-1.6096419612
 20
3.3970844473
 10
-1.5698814818
 20
3.7045605034
 10
-1.5809513332
 20
4.0170413419
 10
-1.6425636607
 20
4.3264013759
 10
-1.75311633
 20
4.6245961701
 10
-1.9097345877
 20
4.9038716243
 10
-2.1083458152
 20
5.1569656071
 10
-2.343785431
 20
5.3772967959
 10
-2.6099311874
 20
5.5591358148
 10
-2.8998623706
 20
5.6977542177
 10
-3.206039763
 20
5.7895474448
 10
-3.5205016891
 20
5.8321285535
 10
-3.8350710469
 20
5.8243902871
 10
-4.1415679407
 20
5.7665338674
 10
-4.432022387
 20
5.6600637621
 10
-4.6988815614
 20
5.5077485638
 10
-4.9352061989
 20
5.3135489966
 10
-5.1348510381
 20
5.0825149235
 10
-5.2926246199
 20
4.8206540328
 10
-5.4044242833
 20
4.5347756169
 10
-5.4673428489
 20
4.2323135074
 10
-5.4797442155
 20
3.9211327695
 10
-5.4413059044
 20
3.6093251829
 10
-5.3530274452
 20
3.3049988278
 10
-5.2172043845
 20
3.016067246
 10
-5.0373685934
 20
2.7500436622
 10
-4.818196427
 20
2.5138456131
 10
-4.5653871228
 20
2.3136150685
 10
-4.2855146005
 20
2.1545587176
 10
-3.9858565177
 20
2.0408125781
 10
-3.674205025
 20
1.9753344445
 10
-3.3586641434
 20
1.9598269756
 10
-3.0474390318
 20
1.9946934195
  0
SPLINE
  5
86
330
1F
100
AcDbEntity
  8
0
  6
Continuous
 62
     7
370
    15
100
AcDbSpline
210
0.0
220
0.0
230
1.0
 70
     8
 71
     3
 72
    36
 73
    32
 74
     0
 42
0.00000001
 43
0.00000001
 12
1.0
 22
0.0
 32
0.0
 13
1.0
 23
0.0
 33
0.0
 40
0.0
 40
0.0
 40
0.0
 40
0.0
 40
0.0625000000000003
 40
0.0625000000000003
 40
0.0937500000000004
 40
0.0937500000000004
 40
0.1250000000000005
 40
0.1250000000000005
 40
0.1875000000000006
 40
0.1875000000000006
 40
0.2500000000000006
 40
0.2500000000000006
 40
0.3750000000000007
 40
0.3750000000000007
 40
0.5000000000000008
 40
0.5000000000000008
 40
0.6250000000000009
 40
0.6250000000000009
 40
0.7500000000000008
 40
0.7500000000000008
 40
0.7812500000000008
 40
0.7812500000000008
 40
0.8125000000000007
 40
0.8125000000000007
 40
0.8750000000000004
 40
0.8750000000000004
 40
0.9062500000000003
 40
0.9062500000000003
 40
0.9375000000000003
 40
0.9375000000000003
 40
1.0
 40
1.0
 40
1.0
 40
1.0
 10
-26.9366040888338
 20
17.55996684239817
 30
0.0
 10
-26.37262758225548
 20
17.24634231149868
 30
0.0
 10
-25.79019985711896
 20
16.99689607923269
 30
0.0
 10
-24.88874013333978
 20
16.7194856868225
 30
0.0
 10
-24.58363517875044
 20
16.64307952326715
 30
0.0
 10
-23.96440880167441
 20
16.52162889552108
 30
0.0
 10
-23.64848732598907
 20
16.47648770372076
 30
0.0
 10
-22.70551985628579
 20
16.38727961257872
 30
0.0
 10
-22.0813700844514
 20
16.3878567827109
 30
0.0
 10
-20.83952976824342
 20
16.47529670619376
 30
0.0
 10
-20.21947159734914
 20
16.56280891358545
 30
0.0
 10
-18.39181356377918
 20
16.90850049258526
 30
0.0
 10
-17.2092418368005
 20
17.2466943522358
 30
0.0
 10
-14.8622814094499
 20
17.97769802959027
 30
0.0
 10
-13.69836109800026
 20
18.37297763832174
 30
0.0
 10
-11.35114386768491
 20
19.10089352827978
 30
0.0
 10
-10.17073965208558
 20
19.43381955156479
 30
0.0
 10
-7.766734484636237
 20
19.90241489532013
 30
0.0
 10
-6.543546252944605
 20
20.03996889099259
 30
0.0
 10
-4.962510173465509
 20
19.97422289152662
 30
0.0
 10
-4.642537293042351
 20
19.94869258033254
 30
0.0
 10
-4.010794411238143
 20
19.87166508084308
 30
0.0
 10
-3.697517315638286
 20
19.82018901626547
 30
0.0
 10
-2.765813228763223
 20
19.62515430649112
 30
0.0
 10
-2.15552475112136
 20
19.44093261775264
 30
0.0
 10
-1.257471374170212
 20
19.07776643526751
 30
0.0
 10
-0.961212031084133
 20
18.94212125878439
 30
0.0
 10
-0.3866073028044262
 20
18.64822162094648
 30
0.0
 10
-0.1066316718673858
 20
18.48936103301856
 30
0.0
 10
0.7128058117268268
 20
17.97947047886932
 30
0.0
 10
1.231808753658192
 20
17.59518130242625
 30
0.0
 10
1.727120253546327
 20
17.17237792246886
 30
0.0
  0
SPLINE
  5
88
330
1F
100
AcDbEntity
  8
0
  6
Continuous
 62
     7
370
    15
100
AcDbSpline
210
0.0
220
0.0
230
1.0
 70
     8
 71
     3
 72
    25
 73
    21
 74
     0
 42
0.00000001
 43
0.00000001
 12
1.0
 22
0.0
 32
0.0
 13
1.0
 23
0.0
 33
0.0
 40
0.0
 40
0.0
 40
0.0
 40
0.0
 40
0.1250000000000001
 40
0.1250000000000001
 40
0.2500000000000002
 40
0.2500000000000002
 40
0.3125000000000002
 40
0.3125000000000002
 40
0.3750000000000002
 40
0.3750000000000002
 40
0.5000000000000002
 40
0.6250000000000004
 40
0.6250000000000004
 40
0.6875000000000003
 40
0.6875000000000003
 40
0.7500000000000002
 40
0.7500000000000002
 40
0.8750000000000001
 40
0.8750000000000001
 40
1.0
 40
1.0
 40
1.0
 40
1.0
 10
0.8726134514078221
 20
29.92808278950679
 30
0.0
 10
-0.5240699392333615
 20
30.04118943983256
 30
0.0
 10
-1.916836055851285
 20
30.10815990391708
 30
0.0
 10
-4.692630231346882
 20
30.12740963538519
 30
0.0
 10
-6.075804027604497
 20
30.08140534304411
 30
0.0
 10
-8.142531344868893
 20
29.91778479766946
 30
0.0
 10
-8.830099566476424
 20
29.84745218461609
 30
0.0
 10
-10.20236873162641
 20
29.6730172313902
 30
0.0
 10
-10.88872155405422
 20
29.56858306746873
 30
0.0
 10
-12.92693428361332
 20
29.20409097578674
 30
0.0
 10
-15.59196415928237
 20
28.58203568462943
 30
0.0
 10
-18.14602673541923
 20
27.6728594232633
 30
0.0
 10
-20.01761755225764
 20
26.87724351906981
 30
0.0
 10
-20.63415334589851
 20
26.59307796098593
 30
0.0
 10
-21.85215676738478
 20
25.9857589051215
 30
0.0
 10
-22.45467984013948
 20
25.66193372420364
 30
0.0
 10
-24.22593286256028
 20
24.63824221099349
 30
0.0
 10
-25.36258405514207
 20
23.88361818675283
 30
0.0
 10
-27.52695787289529
 20
22.25241667927438
 30
0.0
 10
-28.55752345661065
 20
21.37447746173895
 30
0.0
 10
-29.53958614454473
 20
20.4379656290444
 30
0.0
  0
SPLINE
  5
89
330
1F
100
AcDbEntity
  8
0
  6
Continuous
 62
     7
370
    15
100
AcDbSpline
210
0.0
220
0.0
230
1.0
 70
     8
 71
     3
 72
    26
 73
    22
 74
     0
 42
0.00000001
 43
0.00000001
 12
1.0
 22
0.0
 32
0.0
 13
1.0
 23
0.0
 33
0.0
 40
0.0
 40
0.0
 40
0.0
 40
0.0
 40
0.2499999999999993
 40
0.2499999999999993
 40
0.3749999999999988
 40
0.3749999999999988
 40
0.4999999999999982
 40
0.4999999999999982
 40
0.6249999999999984
 40
0.6249999999999984
 40
0.7499999999999987
 40
0.7499999999999987
 40
0.8124999999999991
 40
0.8124999999999991
 40
0.8749999999999997
 40
0.8749999999999997
 40
0.9375000000000001
 40
0.9375000000000001
 40
0.9687500000000001
 40
0.9687500000000001
 40
1.0
 40
1.0
 40
1.0
 40
1.0
 10
12.50071142573306
 20
24.51512191743101
 30
0.0
 10
11.42160909026444
 20
24.68354734629238
 30
0.0
 10
10.42423834462871
 20
25.08983968308378
 30
0.0
 10
8.997878121213489
 20
25.9021171038248
 30
0.0
 10
8.537603548671896
 20
26.20404305852788
 30
0.0
 10
7.638891883144134
 20
26.8326421521613
 30
0.0
 10
7.198687084268285
 20
27.1604815133313
 30
0.0
 10
6.315914205787629
 20
27.81266353980837
 30
0.0
 10
5.87348628534486
 20
28.13721358376327
 30
0.0
 10
4.962676059402985
 20
28.74791172063582
 30
0.0
 10
4.492402762069045
 20
29.03499169194274
 30
0.0
 10
3.76042426089877
 20
29.39367534375585
 30
0.0
 10
3.511645586820966
 20
29.50142762102678
 30
0.0
 10
3.001694508617611
 20
29.68635096021995
 30
0.0
 10
2.738365073087853
 20
29.76390632102161
 30
0.0
 10
2.207535365439948
 20
29.87901867602493
 30
0.0
 10
1.941462567470664
 20
29.91656091232252
 30
0.0
 10
1.541365883109623
 20
29.94283598001596
 30
0.0
 10
1.407836385662308
 20
29.94660758230975
 30
0.0
 10
1.140455926806682
 20
29.94437220484084
 30
0.0
 10
1.006563793623972
 20
29.93711282473625
 30
0.0
 10
0.8726134514078203
 20
29.9280827895068
 30
0.0
  0
SPLINE
  5
9A
330
1F
100
AcDbEntity
  8
0
  6
Continuous
 62
     7
370
    15
100
AcDbSpline
210
0.0
220
0.0
230
1.0
 70
     8
 71
     3
 72
    34
 73
    30
 74
     0
 42
0.00000001
 43
0.00000001
 12
1.0
 22
0.0
 32
0.0
 13
1.0
 23
0.0
 33
0.0
 40
0.0
 40
0.0
 40
0.0
 40
0.0
 40
0.0625000000000001
 40
0.0625000000000001
 40
0.0937500000000001
 40
0.0937500000000001
 40
0.1250000000000002
 40
0.1250000000000002
 40
0.1875000000000001
 40
0.1875000000000001
 40
0.2187500000000001
 40
0.2187500000000001
 40
0.25
 40
0.25
 40
0.3750000000000001
 40
0.3750000000000001
 40
0.5
 40
0.5
 40
0.625
 40
0.625
 40
0.7500000000000001
 40
0.7500000000000001
 40
0.8750000000000001
 40
0.8750000000000001
 40
0.9375000000000002
 40
0.9375000000000002
 40
0.9687500000000002
 40
0.9687500000000002
 40
1.0
 40
1.0
 40
1.0
 40
1.0
 10
0.9049242711399946
 20
16.20615110029067
 30
0.0
 10
0.4128686404675335
 20
16.626175234239
 30
0.0
 10
-0.1044499318784767
 20
17.00519063786332
 30
0.0
 10
-0.9253439428951946
 20
17.50080242486458
 30
0.0
 10
-1.206473465025764
 20
17.6538347288941
 30
0.0
 10
-1.785019423377644
 20
17.93346117799346
 30
0.0
 10
-2.083013159759263
 20
18.06003104943241
 30
0.0
 10
-2.981456180772642
 20
18.39017030240014
 30
0.0
 10
-3.592942393567247
 20
18.54754754434627
 30
0.0
 10
-4.52741413750969
 20
18.69727104574624
 30
0.0
 10
-4.842610149552292
 20
18.73287846987689
 30
0.0
 10
-5.474797926125195
 20
18.7768703188858
 30
0.0
 10
-5.787843446185503
 20
18.78510214066264
 30
0.0
 10
-7.340314099878755
 20
18.76866062174226
 30
0.0
 10
-8.54242322054765
 20
18.57549666648779
 30
0.0
 10
-10.9107878977319
 20
18.0272814433092
 30
0.0
 10
-12.07710447730835
 20
17.66967981808282
 30
0.0
 10
-14.39998196936174
 20
16.9241967665272
 30
0.0
 10
-15.55598326506942
 20
16.53507724313535
 30
0.0
 10
-17.89692576305481
 20
15.84400730925301
 30
0.0
 10
-19.0811657654823
 20
15.53994483358482
 30
0.0
 10
-21.52965816932711
 20
15.17282307360868
 30
0.0
 10
-22.7668842980233
 20
15.11582480679843
 30
0.0
 10
-24.64106909201343
 20
15.36998005059596
 30
0.0
 10
-25.25165865138274
 20
15.50964888715652
 30
0.0
 10
-26.14513105715989
 20
15.80625666570864
 30
0.0
 10
-26.43923020496396
 20
15.91960317955728
 30
0.0
 10
-27.01988922386482
 20
16.1755977895227
 30
0.0
 10
-27.30692650183901
 20
16.31860827599146
 30
0.0
 10
-27.58673263010268
 20
16.47420707256529
 30
0.0
  0
SPLINE
  5
AA
330
1F
100
AcDbEntity
  8
0
  6
Continuous
 62
     7
370
    15
100
AcDbSpline
210
0.0
220
0.0
230
1.0
 70
     8
 71
     3
 72
    13
 73
     9
 74
     0
 42
0.00000001
 43
0.00000001
 12
1.0
 22
0.0
 32
0.0
 13
1.0
 23
0.0
 33
0.0
 40
0.0
 40
0.0
 40
0.0
 40
0.0
 40
0.0548625616934517
 40
0.3120768157087083
 40
0.5696145840874458
 40
0.8278354753487533
 40
0.9874164757051929
 40
1.0
 40
1.0
 40
1.0
 40
1.0
 10
0.6757757501433502
 20
30.67426467775092
 30
0.0
 10
0.6808204809831929
 20
30.67681197354748
 30
0.0
 10
0.7095166170732782
 20
30.69130185401106
 30
0.0
 10
0.7607282393513672
 20
30.60623430240499
 30
0.0
 10
0.8194363041951637
 20
30.42274378934463
 30
0.0
 10
0.8556206098969104
 20
30.18095684163718
 30
0.0
 10
0.8688583682607016
 20
30.0057147341337
 30
0.0
 10
0.8723576858922135
 20
29.9333704418899
 30
0.0
 10
0.8726134514079019
 20
29.9280827895069
 30
0.0
  0
LWPOLYLINE
  5
AB
330
1F
100
AcDbEntity
  8
0
  6
Continuous
 62
     7
370
    15
100
AcDbPolyline
 90
        9
 70
   128
 43
0.0
 10
-30.4443362801
 20
20.9064578043
 10
-30.3905896799
 20
20.9408611267
 10
-30.3120847338
 20
20.9464542531
 10
-30.2118383428
 20
20.9230222427
 10
-30.0937029195
 20
20.8714655744
 10
-29.962218342
 20
20.7937655423
 10
-29.8224374888
 20
20.6929081149
 10
-29.6797320598
 20
20.5727691866
 10
-29.5395861445
 20
20.437965629
  0
SPLINE
  5
AF
330
1F
100
AcDbEntity
  8
0
  6
Continuous
 62
     7
370
    15
100
AcDbSpline
210
0.0
220
0.0
230
1.0
 70
     8
 71
     3
 72
    38
 73
    34
 74
     0
 42
0.00000001
 43
0.00000001
 12
1.0
 22
0.0
 32
0.0
 13
1.0
 23
0.0
 33
0.0
 40
0.0
 40
0.0
 40
0.0
 40
0.0
 40
0.0624999999999999
 40
0.0624999999999999
 40
0.0937499999999999
 40
0.0937499999999999
 40
0.1249999999999999
 40
0.1249999999999999
 40
0.1875000000000001
 40
0.1875000000000001
 40
0.2500000000000003
 40
0.2500000000000003
 40
0.3750000000000007
 40
0.3750000000000007
 40
0.500000000000001
 40
0.500000000000001
 40
0.5625000000000011
 40
0.5625000000000011
 40
0.6250000000000012
 40
0.6250000000000012
 40
0.7500000000000014
 40
0.7500000000000014
 40
0.7812500000000013
 40
0.7812500000000013
 40
0.8125000000000011
 40
0.8125000000000011
 40
0.8750000000000008
 40
0.8750000000000008
 40
0.9062500000000007
 40
0.9062500000000007
 40
0.9375000000000004
 40
0.9375000000000004
 40
1.0
 40
1.0
 40
1.0
 40
1.0
 10
-29.03397463972905
 20
14.74664012510182
 30
0.0
 10
-28.47480925262441
 20
14.43569103379281
 30
0.0
 10
-27.89470015146912
 20
14.17891161461841
 30
0.0
 10
-26.99146616400279
 20
13.87927694453638
 30
0.0
 10
-26.68517829023147
 20
13.79391358712038
 30
0.0
 10
-26.07328164719348
 20
13.65382286166738
 30
0.0
 10
-25.766241104102
 20
13.59857854878175
 30
0.0
 10
-24.84210179745455
 20
13.47373913789183
 30
0.0
 10
-24.22198314582909
 20
13.44506752552162
 30
0.0
 10
-22.97513179621862
 20
13.47735339462461
 30
0.0
 10
-22.36043789383232
 20
13.53768536806071
 30
0.0
 10
-20.53693219029316
 20
13.81110336591393
 30
0.0
 10
-19.3448811657953
 20
14.11612597852346
 30
0.0
 10
-16.99501059826597
 20
14.81003946565125
 30
0.0
 10
-15.83552254141851
 20
15.20054691780043
 30
0.0
 10
-14.08742741216188
 20
15.76132032003968
 30
0.0
 10
-13.5032940674341
 20
15.94419914955384
 30
0.0
 10
-12.32655775132242
 20
16.28607820277774
 30
0.0
 10
-11.73296338894267
 20
16.44537638683441
 30
0.0
 10
-9.936967310086569
 20
16.85807786346432
 30
0.0
 10
-8.725301141439216
 20
17.04785588781922
 30
0.0
 10
-7.172325209972022
 20
17.05647707391308
 30
0.0
 10
-6.858499850690031
 20
17.04643936243439
 30
0.0
 10
-6.232364555207378
 20
16.9994208158462
 30
0.0
 10
-5.921672434243641
 20
16.96264987100514
 30
0.0
 10
-4.99720702435858
 20
16.80984795158577
 30
0.0
 10
-4.391066882073756
 20
16.65120399342931
 30
0.0
 10
-3.498642733859692
 20
16.31952777453327
 30
0.0
 10
-3.203394216483367
 20
16.19288536262647
 30
0.0
 10
-2.63209910679117
 20
15.91478942627541
 30
0.0
 10
-2.354274052819983
 20
15.76277776190424
 30
0.0
 10
-1.542479246872443
 20
15.27081339624618
 30
0.0
 10
-1.030147687000373
 20
14.89500119770246
 30
0.0
 10
-0.5423177384863975
 20
14.47858415282721
 30
0.0
  0
SPLINE
  5
C6
330
1F
100
AcDbEntity
  8
0
  6
Continuous
 62
     7
370
    15
100
AcDbSpline
210
0.0
220
0.0
230
1.0
 70
     8
 71
     3
 72
    16
 73
    12
 74
     0
 42
0.00000001
 43
0.00000001
 12
1.0
 22
0.0
 32
0.0
 13
1.0
 23
0.0
 33
0.0
 40
0.0
 40
0.0
 40
0.0
 40
0.0
 40
0.2500000000000014
 40
0.2500000000000014
 40
0.5000000000000029
 40
0.5000000000000029
 40
0.7500000000000043
 40
0.7500000000000043
 40
0.8750000000000021
 40
0.8750000000000021
 40
1.0
 40
1.0
 40
1.0
 40
1.0
 10
29.61462539126232
 20
25.88328931736015
 30
0.0
 10
29.49968718017103
 20
25.79374701248449
 30
0.0
 10
29.34007824254429
 20
25.72061896721824
 30
0.0
 10
28.97945913391098
 20
25.58863456329024
 30
0.0
 10
28.77424045615296
 20
25.52854073538348
 30
0.0
 10
28.33789949560368
 20
25.41052164248674
 30
0.0
 10
28.10871940517582
 20
25.3532127008229
 30
0.0
 10
27.752465660326
 20
25.26362264231508
 30
0.0
 10
27.63159682749239
 20
25.23318541716433
 30
0.0
 10
27.3859742582152
 20
25.17030349802305
 30
0.0
 10
27.25954079604433
 20
25.13741233632247
 30
0.0
 10
27.13481299813104
 20
25.10401663246934
 30
0.0
  0
SPLINE
  5
C8
330
1F
100
AcDbEntity
  8
0
  6
Continuous
 62
     7
370
    15
100
AcDbSpline
210
0.0
220
0.0
230
1.0
 70
     8
 71
     3
 72
    10
 73
     6
 74
     0
 42
0.00000001
 43
0.00000001
 12
1.0
 22
0.0
 32
0.0
 13
1.0
 23
0.0
 33
0.0
 40
0.0
 40
0.0
 40
0.0
 40
0.0
 40
0.5000000000000003
 40
0.5000000000000003
 40
1.0
 40
1.0
 40
1.0
 40
1.0
 10
33.99613118249485
 20
18.48541418565699
 30
0.0
 10
30.85745473978272
 20
18.06537677336601
 30
0.0
 10
27.75930208600806
 20
17.46069397601042
 30
0.0
 10
21.66984996674384
 20
15.88018874881205
 30
0.0
 10
18.68484405427986
 20
14.90575786708534
 30
0.0
 10
15.77522106384544
 20
13.7569264341891
 30
0.0
  0
SPLINE
  5
C9
330
1F
100
AcDbEntity
  8
0
  6
Continuous
 62
     7
370
    15
100
AcDbSpline
210
0.0
220
0.0
230
1.0
 70
     8
 71
     3
 72
    24
 73
    20
 74
     0
 42
0.00000001
 43
0.00000001
 12
1.0
 22
0.0
 32
0.0
 13
1.0
 23
0.0
 33
0.0
 40
0.0
 40
0.0
 40
0.0
 40
0.0
 40
0.0312500000000011
 40
0.0312500000000011
 40
0.0625000000000021
 40
0.0625000000000021
 40
0.1250000000000028
 40
0.1250000000000028
 40
0.2500000000000024
 40
0.2500000000000024
 40
0.5000000000000016
 40
0.5000000000000016
 40
0.7500000000000008
 40
0.7500000000000008
 40
0.8750000000000003
 40
0.8750000000000003
 40
0.9375000000000002
 40
0.9375000000000002
 40
1.0
 40
1.0
 40
1.0
 40
1.0
 10
15.77522106384544
 20
13.7569264341891
 30
0.0
 10
15.78805363202256
 20
13.77224461904444
 30
0.0
 10
15.8290511151277
 20
13.80389863796687
 30
0.0
 10
15.91672401826219
 20
13.86769074992191
 30
0.0
 10
15.96548795444568
 20
13.90155917748763
 30
0.0
 10
16.11205927418905
 20
14.00171064381296
 30
0.0
 10
16.2125465384793
 20
14.06817576348503
 30
0.0
 10
16.51677675894323
 20
14.26705665651134
 30
0.0
 10
16.71994832388823
 20
14.39650633769874
 30
0.0
 10
17.32714928506811
 20
14.77888105109856
 30
0.0
 10
17.73121985751612
 20
15.02690973942922
 30
0.0
 10
18.5400560224022
 20
15.51503956583518
 30
0.0
 10
18.9437318894439
 20
15.7542524695135
 30
0.0
 10
19.54712060503184
 20
16.10587675057938
 30
0.0
 10
19.74798201532729
 20
16.22192552945845
 30
0.0
 10
20.04888956703303
 20
16.39427940408388
 30
0.0
 10
20.1491274604453
 20
16.45144343341294
 30
0.0
 10
20.34947089331161
 20
16.56519207470787
 30
0.0
 10
20.44832264989538
 20
16.62106719661709
 30
0.0
 10
20.5497268121235
 20
16.67813092070437
 30
0.0
  0
SPLINE
  5
CA
330
1F
100
AcDbEntity
  8
0
  6
Continuous
 62
     7
370
    15
100
AcDbSpline
210
0.0
220
0.0
230
1.0
 70
     8
 71
     3
 72
    10
 73
     6
 74
     0
 42
0.00000001
 43
0.00000001
 12
1.0
 22
0.0
 32
0.0
 13
1.0
 23
0.0
 33
0.0
 40
0.0
 40
0.0
 40
0.0
 40
0.0
 40
0.5
 40
0.5
 40
1.0
 40
1.0
 40
1.0
 40
1.0
 10
20.5497268121235
 20
16.67813092070438
 30
0.0
 10
22.73652775730364
 20
17.3748723690296
 30
0.0
 10
24.95845579860718
 20
17.97594284942643
 30
0.0
 10
29.45369581690708
 20
18.98127896263918
 30
0.0
 10
31.72545154939088
 20
19.38549581617665
 30
0.0
 10
34.020990521253
 20
19.69269927188519
 30
0.0
  0
LWPOLYLINE
  5
CD
330
1F
100
AcDbEntity
  8
0
  6
Continuous
 62
     7
370
    15
100
AcDbPolyline
 90
        9
 70
   128
 43
0.0
 10
29.5861878061
 20
24.5960587881
 10
29.5905840326
 20
24.8577199757
 10
29.5868660719
 20
25.0998414664
 10
29.5751768032
 20
25.3131186672
 10
29.5559654384
 20
25.4893554549
 10
29.5299702596
 20
25.6217791484
 10
29.4981902469
 20
25.7053007797
 10
29.4618466883
 20
25.7367106591
 10
29.4324906386
 20
25.7253203831
  0
SPLINE
  5
CE
330
1F
100
AcDbEntity
  8
0
  6
Continuous
 62
     7
370
    15
100
AcDbSpline
210
0.0
220
0.0
230
1.0
 70
     8
 71
     3
 72
    12
 73
     8
 74
     0
 42
0.00000001
 43
0.00000001
 12
1.0
 22
0.0
 32
0.0
 13
1.0
 23
0.0
 33
0.0
 40
0.0
 40
0.0
 40
0.0
 40
0.0
 40
0.25
 40
0.25
 40
0.5
 40
0.5
 40
1.0
 40
1.0
 40
1.0
 40
1.0
 10
14.32797905421906
 20
12.02935948672564
 30
0.0
 10
15.78270381865855
 20
12.60374095851595
 30
0.0
 10
17.2569054886991
 20
13.13487473451063
 30
0.0
 10
20.23628920302455
 20
14.10632100339415
 30
0.0
 10
21.74205376375313
 20
14.54691881950341
 30
0.0
 10
26.307967172323
 20
15.73220874673177
 30
0.0
 10
29.41036176744716
 20
16.33782977101053
 30
0.0
 10
32.54888917286848
 20
16.75784723819353
 30
0.0
  0
SPLINE
  5
D1
330
1F
100
AcDbEntity
  8
0
  6
Continuous
 62
     7
370
    15
100
AcDbSpline
210
0.0
220
0.0
230
1.0
 70
     8
 71
     3
 72
    13
 73
     9
 74
     0
 42
0.00000001
 43
0.00000001
 12
1.0
 22
0.0
 32
0.0
 13
1.0
 23
0.0
 33
0.0
 40
0.0
 40
0.0
 40
0.0
 40
0.0
 40
0.0042510477783401
 40
0.3201542521306532
 40
0.5346766836090983
 40
0.754289818191871
 40
0.8887674655949923
 40
1.0
 40
1.0
 40
1.0
 40
1.0
 10
21.42564244792667
 20
31.41638666214172
 30
0.0
 10
21.42724795334272
 20
31.42032547372274
 30
0.0
 10
21.54816152867021
 20
31.71696464170132
 30
0.0
 10
21.74003060008589
 20
32.2007805074347
 30
0.0
 10
22.00033746290976
 20
32.8160115470783
 30
0.0
 10
22.20327887631918
 20
33.22033337744247
 30
0.0
 10
22.37889459736433
 20
33.49780560076172
 30
0.0
 10
22.4844266682542
 20
33.59781386583954
 30
0.0
 10
22.53220083707254
 20
33.64308741821817
 30
0.0
  0
LWPOLYLINE
  5
D2
330
1F
100
AcDbEntity
  8
0
  6
Continuous
 62
     7
370
    15
100
AcDbPolyline
 90
        9
 70
   128
 43
0.0
 10
29.6146253913
 20
25.8832893174
 10
29.7614144003
 20
25.9959901662
 10
29.888940882
 20
26.0903861665
 10
29.9963539368
 20
26.1658474762
 10
30.0829368684
 20
26.2218705921
 10
30.1481119663
 20
26.258081709
 10
30.1914443603
 20
26.2742392142
 10
30.2126449221
 20
26.2702352992
 10
30.2115721942
 20
26.2460966796
  0
SPLINE
  5
D6
330
1F
100
AcDbEntity
  8
0
  6
Continuous
 62
     7
370
    15
100
AcDbSpline
210
0.0
220
0.0
230
1.0
 70
     8
 71
     3
 72
    10
 73
     6
 74
     0
 42
0.00000001
 43
0.00000001
 12
1.0
 22
0.0
 32
0.0
 13
1.0
 23
0.0
 33
0.0
 40
0.0
 40
0.0
 40
0.0
 40
0.0
 40
0.339906096097582
 40
0.7824610799266347
 40
1.0
 40
1.0
 40
1.0
 40
1.0
 10
14.32797905421906
 20
12.02935948672564
 30
0.0
 10
14.32581820138477
 20
12.02559549169425
 30
0.0
 10
14.32084393566348
 20
12.01693080562092
 30
0.0
 10
14.33492445369741
 20
12.01894281554138
 30
0.0
 10
14.35427279200508
 20
12.02762494338565
 30
0.0
 10
14.36064918269098
 20
12.03048620403965
 30
0.0
  0
LWPOLYLINE
  5
D8
330
1F
100
AcDbEntity
  8
0
  6
Continuous
 62
     7
370
    15
100
AcDbPolyline
 90
        3
 70
   128
 43
0.0
 10
29.7738514394
 20
25.7235911807
 10
29.6287797237
 20
25.5732777676
 10
29.6245997012
 20
25.5689961306
  0
LWPOLYLINE
  5
D9
330
1F
100
AcDbEntity
  8
0
  6
Continuous
 62
     7
370
    15
100
AcDbPolyline
 90
        9
 70
   128
 43
0.0
 10
-4.0019553117
 20
-11.2761691894
 10
-3.8404514576
 20
-11.3838243974
 10
-3.6930993487
 20
-11.4968266803
 10
-3.5655616439
 20
-11.6108334237
 10
-3.4627395458
 20
-11.7214634124
 10
-3.3885844498
 20
-11.824465198
 10
-3.3459460947
 20
-11.9158804796
 10
-3.3364630487
 20
-11.9921962192
 10
-3.3511678357
 20
-12.0373878682
  0
LWPOLYLINE
  5
DC
330
1F
100
AcDbEntity
  8
0
  6
Continuous
 62
     7
370
    15
100
AcDbPolyline
 90
        9
 70
   128
 43
0.0
 10
-20.407652932
 20
2.7987133216
 10
-20.5423454044
 20
2.9385022092
 10
-20.6798069632
 20
3.0634348841
 10
-20.814755038
 20
3.1687102537
 10
-20.9420036498
 20
3.2502826445
 10
-21.0566627059
 20
3.3050172754
 10
-21.154325923
 20
3.3308107251
 10
-21.2312401586
 20
3.3266717659
 10
-21.2734259383
 20
3.3040398239
  0
LWPOLYLINE
  5
DD
330
1F
100
AcDbEntity
  8
0
  6
Continuous
 62
     7
370
    15
100
AcDbPolyline
 90
        9
 70
   128
 43
0.0
 10
7.358028455
 20
7.660758695
 10
7.5195323091
 20
7.553103487
 10
7.666884418
 20
7.4401012041
 10
7.7944221228
 20
7.3260944607
 10
7.8972442209
 20
7.215464472
 10
7.9713993169
 20
7.1124626864
 10
8.0140376719
 20
7.0210474048
 10
8.023520718
 20
6.9447316652
 10
8.0088159309
 20
6.8995400162
  0
LWPOLYLINE
  5
DE
330
1F
100
AcDbEntity
  8
0
  6
Continuous
 62
     7
370
    15
100
AcDbPolyline
 90
        9
 70
   128
 43
0.0
 10
-17.9536167218
 20
4.9489889338
 10
-18.0883091942
 20
5.0887778214
 10
-18.225770753
 20
5.2137104963
 10
-18.3607188278
 20
5.3189858659
 10
-18.4879674396
 20
5.4005582568
 10
-18.6026264957
 20
5.4552928876
 10
-18.7002897129
 20
5.4810863374
 10
-18.7772039484
 20
5.4769473781
 10
-18.8193897281
 20
5.4543154361
  0
LWPOLYLINE
  5
E2
330
1F
100
AcDbEntity
  8
0
  6
Continuous
 62
     7
370
    15
100
AcDbPolyline
 90
        9
 70
   128
 43
0.0
 10
-15.0459940625
 20
3.6317862423
 10
-15.1277419599
 20
3.8035890922
 10
-15.2142935741
 20
3.9593054507
 10
-15.3023227752
 20
4.0929512257
 10
-15.3884466502
 20
4.1993904848
 10
-15.4693555071
 20
4.274532827
 10
-15.5419400637
 20
4.3154905743
 10
-15.6034109364
 20
4.3206897435
 10
-15.6129533153
 20
4.317846376
  0
LWPOLYLINE
  5
E4
330
1F
100
AcDbEntity
  8
0
  6
Continuous
 62
     7
370
    15
100
AcDbPolyline
 90
        9
 70
   128
 43
0.0
 10
-6.8015460161
 20
6.8305490467
 10
-6.8832939135
 20
7.0023518966
 10
-6.9698455277
 20
7.1580682552
 10
-7.0578747287
 20
7.2917140301
 10
-7.1439986038
 20
7.3981532892
 10
-7.2249074606
 20
7.4732956315
 10
-7.2974920173
 20
7.5142533788
 10
-7.3589628899
 20
7.5194525479
 10
-7.3700130329
 20
7.5160412639
  0
LWPOLYLINE
  5
E7
330
1F
100
AcDbEntity
  8
0
  6
Continuous
 62
     7
370
    15
100
AcDbPolyline
 90
        9
 70
   128
 43
0.0
 10
-6.2587761396
 20
7.1587453606
 10
-6.393468612
 20
7.2985342482
 10
-6.5309301708
 20
7.4234669231
 10
-6.6658782456
 20
7.5287422927
 10
-6.7931268574
 20
7.6103146835
 10
-6.9077859135
 20
7.6650493144
 10
-7.0054491306
 20
7.6908427641
 10
-7.0823633662
 20
7.6867038049
 10
-7.1228965735
 20
7.6654888344
  0
LWPOLYLINE
  5
E8
330
1F
100
AcDbEntity
  8
0
  6
Continuous
 62
     7
370
    15
100
AcDbPolyline
 90
        9
 70
   128
 43
0.0
 10
1.8363217078
 20
14.2518320101
 10
1.7016292354
 20
14.3916208977
 10
1.5641676765
 20
14.5165535726
 10
1.4292196018
 20
14.6218289422
 10
1.3019709899
 20
14.703401333
 10
1.1873119339
 20
14.7581359639
 10
1.0896487167
 20
14.7839294136
 10
1.0127344812
 20
14.7797904544
 10
0.9705487015
 20
14.7571585123
  0
LWPOLYLINE
  5
E9
330
1F
100
AcDbEntity
  8
0
  6
Continuous
 62
     7
370
    15
100
AcDbPolyline
 90
        3
 70
   128
 43
0.0
 10
-19.0822586564
 20
-3.3019735741
 10
-19.0773939342
 20
-3.3010680488
 10
-19.0333806525
 20
-3.2713507103
  0
LWPOLYLINE
  5
EA
330
1F
100
AcDbEntity
  8
0
  6
Continuous
 62
     7
370
    15
100
AcDbPolyline
 90
        3
 70
   128
 43
0.0
 10
-9.1145389611
 20
-1.8662300926
 10
-9.109674239
 20
-1.8653245672
 10
-9.0656609572
 20
-1.8356072288
  0
LWPOLYLINE
  5
EB
330
1F
100
AcDbEntity
  8
0
  6
Continuous
 62
     7
370
    15
100
AcDbPolyline
 90
        3
 70
   128
 43
0.0
 10
-19.9664805323
 20
-2.9829712777
 10
-19.9644074189
 20
-2.9730293545
 10
-19.9377717587
 20
-2.9368853581
  0
LWPOLYLINE
  5
EC
330
1F
100
AcDbEntity
  8
0
  6
Continuous
 62
     7
370
    15
100
AcDbPolyline
 90
        3
 70
   128
 43
0.0
 10
-22.8032977237
 20
0.1535683758
 10
-22.8012246104
 20
0.163510299
 10
-22.7745889501
 20
0.1996542954
  0
LWPOLYLINE
  5
ED
330
1F
100
AcDbEntity
  8
0
  6
Continuous
 62
     7
370
    15
100
AcDbPolyline
 90
        3
 70
   128
 43
0.0
 10
-6.3976001034
 20
-13.9213141352
 10
-6.39552699
 20
-13.911372212
 10
-6.3688913298
 20
-13.8752282156
  0
LWPOLYLINE
  5
EE
330
1F
100
AcDbEntity
  8
0
  6
Continuous
 62
     7
370
    15
100
AcDbPolyline
 90
        3
 70
   128
 43
0.0
 10
-9.0522109713
 20
-10.9862317207
 10
-9.050137858
 20
-10.9762897975
 10
-9.0235021977
 20
-10.9401458011
  0
LWPOLYLINE
  5
F3
330
1F
100
AcDbEntity
  8
0
  6
Continuous
 62
     7
370
    15
100
AcDbPolyline
 90
        3
 70
   128
 43
0.0
 10
-29.0764463245
 20
14.7115672674
 10
-29.0657899248
 20
14.7146132223
 10
-29.0339746397
 20
14.7466401251
  0
LWPOLYLINE
  5
F4
330
1F
100
AcDbEntity
  8
0
  6
Continuous
 62
     7
370
    15
100
AcDbPolyline
 90
        3
 70
   128
 43
0.0
 10
-0.5761135644
 20
14.4374349012
 10
-0.570826796
 20
14.4442604579
 10
-0.5423177385
 20
14.4785841528
  0
LWPOLYLINE
  5
F9
330
1F
100
AcDbEntity
  8
0
  6
Continuous
 62
     7
370
    15
100
AcDbPolyline
 90
        3
 70
   128
 43
0.0
 10
-6.4855467922
 20
-4.1006704078
 10
-6.4834416727
 20
-4.0907646667
 10
-6.4568060124
 20
-4.0546206702
  0
LWPOLYLINE
  5
FA
330
1F
100
AcDbEntity
  8
0
  6
Continuous
 62
     7
370
    15
100
AcDbPolyline
 90
        3
 70
   128
 43
0.0
 10
-29.303540107
 20
14.9609078162
 10
-29.3301757672
 20
14.9247638198
 10
-29.3322488806
 20
14.9148218966
  0
LWPOLYLINE
  5
FB
330
1F
100
AcDbEntity
  8
0
  6
Continuous
 62
     7
370
    15
100
AcDbPolyline
 90
        3
 70
   128
 43
0.0
 10
-31.9065221627
 20
17.8389066029
 10
-31.9331578229
 20
17.8027626064
 10
-31.9352309363
 20
17.7928206832
  0
LWPOLYLINE
  5
FC
330
1F
100
AcDbEntity
  8
0
  6
Continuous
 62
     7
370
    15
100
AcDbPolyline
 90
        3
 70
   128
 43
0.0
 10
-8.1899579317
 20
-2.2161810609
 10
-8.1879055113
 20
-2.2062165774
 10
-8.161269851
 20
-2.170072581
  0
LWPOLYLINE
  5
FE
330
1F
100
AcDbEntity
  8
0
  6
Continuous
 62
     7
370
    15
100
AcDbPolyline
 90
        9
 70
   128
 43
0.0
 10
13.1789031253
 20
25.4543331175
 10
13.2194720787
 20
25.4755780927
 10
13.2963863142
 20
25.4797170519
 10
13.3940495313
 20
25.4539236022
 10
13.5087085874
 20
25.3991889713
 10
13.6359571992
 20
25.3176165805
 10
13.770905274
 20
25.2123412109
 10
13.9083668329
 20
25.087408536
 10
14.0430593052
 20
24.9476196483
  0
LWPOLYLINE
  5
102
330
1F
100
AcDbEntity
  8
0
  6
Continuous
 62
     7
370
    15
100
AcDbPolyline
 90
        3
 70
   128
 43
0.0
 10
32.5488891729
 20
16.7578472382
 10
32.5050595154
 20
16.7281554102
 10
32.4998488056
 20
16.7272011217
  0
LINE
  5
103
330
1F
100
AcDbEntity
  8
0
  6
Continuous
 62
     7
370
    15
100
AcDbLine
 10
-3.3511678357
 20
-12.0373878682
 30
0.0
 11
8.0088159309
 21
6.8995400162
 31
0.0
  0
LINE
  5
104
330
1F
100
AcDbEntity
  8
0
  6
Continuous
 62
     7
370
    15
100
AcDbLine
 10
-18.8193897281
 20
5.4543154361
 30
0.0
 11
-21.2734259383
 21
3.3040398239
 31
0.0
  0
LINE
  5
105
330
1F
100
AcDbEntity
  8
0
  6
Continuous
 62
     7
370
    15
100
AcDbLine
 10
-4.8893866122
 20
-13.8927046233
 30
0.0
 11
-3.4421446026
 21
-12.1651376758
 31
0.0
  0
LINE
  5
106
330
1F
100
AcDbEntity
  8
0
  6
Continuous
 62
     7
370
    15
100
AcDbLine
 10
-21.3809613581
 20
3.1940912516
 30
0.0
 11
-22.8282033677
 21
1.4665243041
 31
0.0
  0
LINE
  5
107
330
1F
100
AcDbEntity
  8
0
  6
Continuous
 62
     7
370
    15
100
AcDbLine
 10
-30.0524809048
 20
21.2632932652
 30
0.0
 11
-30.4315284916
 21
20.9098572105
 31
0.0
  0
LINE
  5
108
330
1F
100
AcDbEntity
  8
0
  6
Continuous
 62
     7
370
    15
100
AcDbLine
 10
-16.7343051229
 20
4.6162592215
 30
0.0
 11
-17.4187116567
 21
5.3729763757
 31
0.0
  0
LINE
  5
109
330
1F
100
AcDbEntity
  8
0
  6
Continuous
 62
     7
370
    15
100
AcDbLine
 10
-7.3700130329
 20
7.5160412639
 30
0.0
 11
-15.6144610793
 21
4.3172784594
 31
0.0
  0
LINE
  5
10A
330
1F
100
AcDbEntity
  8
0
  6
Continuous
 62
     7
370
    15
100
AcDbLine
 10
-30.5128945706
 20
20.8333435591
 30
0.0
 11
-31.9601365803
 21
19.1057766116
 31
0.0
  0
LINE
  5
10B
330
1F
100
AcDbEntity
  8
0
  6
Continuous
 62
     7
370
    15
100
AcDbLine
 10
0.9705487015
 20
14.7571585123
 30
0.0
 11
-7.1245491459
 21
7.6640718628
 31
0.0
  0
LINE
  5
10C
330
1F
100
AcDbEntity
  8
0
  6
Continuous
 62
     7
370
    15
100
AcDbLine
 10
-19.0822586564
 20
-3.3019735741
 30
0.0
 11
-9.1145389611
 21
-1.8662300926
 31
0.0
  0
LINE
  5
10D
330
1F
100
AcDbEntity
  8
0
  6
Continuous
 62
     7
370
    15
100
AcDbLine
 10
-22.8032977237
 20
0.1535683758
 30
0.0
 11
-19.9664805323
 21
-2.9829712777
 31
0.0
  0
LINE
  5
10E
330
1F
100
AcDbEntity
  8
0
  6
Continuous
 62
     7
370
    15
100
AcDbLine
 10
-9.0522109713
 20
-10.9862317207
 30
0.0
 11
-6.3976001034
 21
-13.9213141352
 31
0.0
  0
LINE
  5
10F
330
1F
100
AcDbEntity
  8
0
  6
Continuous
 62
     7
370
    15
100
AcDbLine
 10
-6.3367879262
 20
-5.2296183587
 30
0.0
 11
-9.1606968735
 21
-9.7888919983
 31
0.0
  0
LINE
  5
110
330
1F
100
AcDbEntity
  8
0
  6
Continuous
 62
     7
370
    15
100
AcDbLine
 10
1.0465970835
 20
14.8380083236
 30
0.0
 11
0.9705487015
 21
14.7571585123
 31
0.0
  0
LINE
  5
111
330
1F
100
AcDbEntity
  8
0
  6
Continuous
 62
     7
370
    15
100
AcDbLine
 10
-31.9352309363
 20
17.7928206832
 30
0.0
 11
-29.3322488806
 21
14.9148218966
 31
0.0
  0
LINE
  5
112
330
1F
100
AcDbEntity
  8
0
  6
Continuous
 62
     7
370
    15
100
AcDbLine
 10
-8.1899786246
 20
-2.2161585006
 30
0.0
 11
-6.485514786
 21
-4.1007065898
 31
0.0
  0
LINE
  5
113
330
1F
100
AcDbEntity
  8
0
  6
Continuous
 62
     7
370
    15
100
AcDbLine
 10
29.4324906386
 20
25.7253203831
 30
0.0
 11
15.7926049436
 21
13.7737797164
 31
0.0
  0
LINE
  5
114
330
1F
100
AcDbEntity
  8
0
  6
Continuous
 62
     7
370
    15
100
AcDbLine
 10
22.5289176329
 20
33.6470325739
 30
0.0
 11
13.1772862989
 21
25.4529461506
 31
0.0
  0
LINE
  5
115
330
1F
100
AcDbEntity
  8
0
  6
Continuous
 62
     7
370
    15
100
AcDbLine
 10
7.4918752612
 20
6.0378074307
 30
0.0
 11
14.3270908306
 21
12.0269600284
 31
0.0
  0
LINE
  5
116
330
1F
100
AcDbEntity
  8
0
  6
Continuous
 62
     7
370
    15
100
AcDbLine
 10
30.2119336419
 20
26.2711187089
 30
0.0
 11
23.1626673897
 21
34.065171563
 31
0.0
  0
LINE
  5
117
330
1F
100
AcDbEntity
  8
0
  6
Continuous
 62
     7
370
    15
100
AcDbLine
 10
34.5558955863
 20
20.1166867138
 30
0.0
 11
29.486025279
 21
25.7222115621
 31
0.0
  0
LINE
  5
118
330
1F
100
AcDbEntity
  8
0
  6
Continuous
 62
     7
370
    15
100
AcDbLine
 10
22.3412425509
 20
33.4825879132
 30
0.0
 11
21.0809177642
 21
34.8760716674
 31
0.0
  0
LINE
  5
119
330
1F
100
AcDbEntity
  8
0
  6
Continuous
 62
     7
370
    15
100
AcDbLine
 10
15.8893402991
 20
30.1805926264
 30
0.0
 11
17.075737586
 21
28.868847144
 31
0.0
  0
LINE
  5
11A
330
1F
100
AcDbEntity
  8
0
  6
Continuous
 62
     7
370
    15
100
AcDbLine
 10
33.1335592207
 20
17.076163838
 30
0.0
 11
34.5808012303
 21
18.8037307855
 31
0.0
  0
LINE
  5
11B
330
1F
100
AcDbEntity
  8
0
  6
Continuous
 62
     7
370
    15
100
AcDbLine
 10
-2.2372812146
 20
2.3708854393
 30
0.0
 11
-3.0474390318
 21
1.9946934195
 31
0.0
  0
LINE
  5
11C
330
1F
100
AcDbEntity
  8
0
  6
Continuous
 62
     7
370
    15
100
AcDbLine
 10
7.7143416138
 20
8.0874111633
 30
0.0
 11
27.1348129981
 21
25.1040166325
 31
0.0
  0
LINE
  5
11D
330
1F
100
AcDbEntity
  8
0
  6
Continuous
 62
     7
370
    15
100
AcDbLine
 10
-4.0019553117
 20
-11.2761691894
 30
0.0
 11
7.358028455
 21
7.660758695
 31
0.0
  0
LINE
  5
11E
330
1F
100
AcDbEntity
  8
0
  6
Continuous
 62
     7
370
    15
100
AcDbLine
 10
-6.6565661796
 20
-8.3410867749
 30
0.0
 11
-4.0019553117
 21
-11.2761691894
 31
0.0
  0
LINE
  5
11F
330
1F
100
AcDbEntity
  8
0
  6
Continuous
 62
     7
370
    15
100
AcDbLine
 10
-3.8326572323
 20
-3.7818131353
 30
0.0
 11
-6.6565661796
 21
-8.3410867749
 31
0.0
  0
LINE
  5
120
330
1F
100
AcDbEntity
  8
0
  6
Continuous
 62
     7
370
    15
100
AcDbLine
 10
-5.7943338329
 20
0.4289864452
 30
0.0
 11
-4.0898699943
 21
-1.455561644
 31
0.0
  0
LINE
  5
121
330
1F
100
AcDbEntity
  8
0
  6
Continuous
 62
     7
370
    15
100
AcDbLine
 10
-17.5708357405
 20
-0.3378263319
 30
0.0
 11
-7.6031160452
 21
1.0979171497
 31
0.0
  0
LINE
  5
122
330
1F
100
AcDbEntity
  8
0
  6
Continuous
 62
     7
370
    15
100
AcDbLine
 10
-20.407652932
 20
2.7987133216
 30
0.0
 11
-17.5708357405
 21
-0.3378263319
 31
0.0
  0
LINE
  5
123
330
1F
100
AcDbEntity
  8
0
  6
Continuous
 62
     7
370
    15
100
AcDbLine
 10
-17.9536167218
 20
4.9489889338
 30
0.0
 11
-20.407652932
 21
2.7987133216
 31
0.0
  0
LINE
  5
124
330
1F
100
AcDbEntity
  8
0
  6
Continuous
 62
     7
370
    15
100
AcDbLine
 10
-17.269210188
 20
4.1922717795
 30
0.0
 11
-17.9536167218
 21
4.9489889338
 31
0.0
  0
LINE
  5
125
330
1F
100
AcDbEntity
  8
0
  6
Continuous
 62
     7
370
    15
100
AcDbLine
 10
-6.8015460161
 20
6.8305490467
 30
0.0
 11
-15.0459940625
 21
3.6317862423
 31
0.0
  0
LINE
  5
126
330
1F
100
AcDbEntity
  8
0
  6
Continuous
 62
     7
370
    15
100
AcDbLine
 10
1.8363217078
 20
14.2518320101
 30
0.0
 11
-6.2587761396
 21
7.1587453606
 31
0.0
  0
LINE
  5
127
330
1F
100
AcDbEntity
  8
0
  6
Continuous
 62
     7
370
    15
100
AcDbLine
 10
-29.5395861445
 20
20.437965629
 30
0.0
 11
-26.9366040888
 21
17.5599668424
 31
0.0
  0
LINE
  5
128
330
1F
100
AcDbEntity
  8
0
  6
Continuous
 62
     7
370
    15
100
AcDbLine
 10
21.4256424479
 20
31.4163866621
 30
0.0
 11
14.0430593052
 21
24.9476196483
 31
0.0
  0
LINE
  5
129
330
1F
100
AcDbEntity
  8
0
  6
Continuous
 62
     7
370
    15
100
AcDbLine
 10
21.4256424479
 20
31.4163866621
 30
0.0
 11
27.1348129981
 21
25.1040166325
 31
0.0
  0
LINE
  5
12A
330
1F
100
AcDbEntity
  8
0
  6
Continuous
 62
     7
370
    15
100
AcDbLine
 10
-7.6184189476
 20
-0.1080402813
 30
0.0
 11
-17.5861386429
 21
-1.5437837628
 31
0.0
  0
LINE
  5
12B
330
1F
100
AcDbEntity
  8
0
  6
Continuous
 62
     7
370
    15
100
AcDbLine
 10
-18.490529749
 20
-1.2093184106
 30
0.0
 11
-21.3273469405
 21
1.9272212429
 31
0.0
  0
LINE
  5
12C
330
1F
100
AcDbEntity
  8
0
  6
Continuous
 62
     7
370
    15
100
AcDbLine
 10
-4.9216493202
 20
-12.1476612681
 30
0.0
 11
-7.5762601881
 21
-9.2125788536
 31
0.0
  0
LINE
  5
12D
330
1F
100
AcDbEntity
  8
0
  6
Continuous
 62
     7
370
    15
100
AcDbLine
 10
1.7271202535
 20
17.1723779225
 30
0.0
 11
0.9049242711
 21
16.2061511003
 31
0.0
  0
LINE
  5
12E
330
1F
100
AcDbEntity
  8
0
  6
Continuous
 62
     7
370
    15
100
AcDbLine
 10
-7.7048665691
 20
-8.049453108
 30
0.0
 11
-4.8809576218
 21
-3.4901794684
 31
0.0
  0
LINE
  5
12F
330
1F
100
AcDbEntity
  8
0
  6
Continuous
 62
     7
370
    15
100
AcDbLine
 10
-9.0656609572
 20
-1.8356072288
 30
0.0
 11
-7.6184189476
 21
-0.1080402813
 31
0.0
  0
LINE
  5
130
330
1F
100
AcDbEntity
  8
0
  6
Continuous
 62
     7
370
    15
100
AcDbLine
 10
-19.0333806525
 20
-3.2713507103
 30
0.0
 11
-9.0656609572
 21
-1.8356072288
 31
0.0
  0
LINE
  5
131
330
1F
100
AcDbEntity
  8
0
  6
Continuous
 62
     7
370
    15
100
AcDbLine
 10
-17.5861386429
 20
-1.5437837628
 30
0.0
 11
-19.0333806525
 21
-3.2713507103
 31
0.0
  0
LINE
  5
132
330
1F
100
AcDbEntity
  8
0
  6
Continuous
 62
     7
370
    15
100
AcDbLine
 10
-19.9377717587
 20
-2.9368853581
 30
0.0
 11
-18.490529749
 21
-1.2093184106
 31
0.0
  0
LINE
  5
133
330
1F
100
AcDbEntity
  8
0
  6
Continuous
 62
     7
370
    15
100
AcDbLine
 10
-22.7745889501
 20
0.1996542954
 30
0.0
 11
-19.9377717587
 21
-2.9368853581
 31
0.0
  0
LINE
  5
134
330
1F
100
AcDbEntity
  8
0
  6
Continuous
 62
     7
370
    15
100
AcDbLine
 10
-21.3273469405
 20
1.9272212429
 30
0.0
 11
-22.7745889501
 21
0.1996542954
 31
0.0
  0
LINE
  5
135
330
1F
100
AcDbEntity
  8
0
  6
Continuous
 62
     7
370
    15
100
AcDbLine
 10
-6.3688913298
 20
-13.8752282156
 30
0.0
 11
-4.9216493202
 21
-12.1476612681
 31
0.0
  0
LINE
  5
136
330
1F
100
AcDbEntity
  8
0
  6
Continuous
 62
     7
370
    15
100
AcDbLine
 10
-9.0235021977
 20
-10.9401458011
 30
0.0
 11
-6.3688913298
 21
-13.8752282156
 31
0.0
  0
LINE
  5
137
330
1F
100
AcDbEntity
  8
0
  6
Continuous
 62
     7
370
    15
100
AcDbLine
 10
-7.5762601881
 20
-9.2125788536
 30
0.0
 11
-9.0235021977
 21
-10.9401458011
 31
0.0
  0
LINE
  5
138
330
1F
100
AcDbEntity
  8
0
  6
Continuous
 62
     7
370
    15
100
AcDbLine
 10
-9.1521085787
 20
-9.7770200554
 30
0.0
 11
-7.7048665691
 21
-8.049453108
 31
0.0
  0
LINE
  5
139
330
1F
100
AcDbEntity
  8
0
  6
Continuous
 62
     7
370
    15
100
AcDbLine
 10
-6.3281996314
 20
-5.2177464159
 30
0.0
 11
-9.1521085787
 21
-9.7770200554
 31
0.0
  0
LINE
  5
13A
330
1F
100
AcDbEntity
  8
0
  6
Continuous
 62
     7
370
    15
100
AcDbLine
 10
-4.8809576218
 20
-3.4901794684
 30
0.0
 11
-6.3281996314
 21
-5.2177464159
 31
0.0
  0
LINE
  5
13B
330
1F
100
AcDbEntity
  8
0
  6
Continuous
 62
     7
370
    15
100
AcDbLine
 10
-0.5423177385
 20
14.4785841528
 30
0.0
 11
0.9049242711
 21
16.2061511003
 31
0.0
  0
LINE
  5
13C
330
1F
100
AcDbEntity
  8
0
  6
Continuous
 62
     7
370
    15
100
AcDbLine
 10
-27.5867326301
 20
16.4742070726
 30
0.0
 11
-29.0339746397
 21
14.7466401251
 31
0.0
  0
LINE
  5
13D
330
1F
100
AcDbEntity
  8
0
  6
Continuous
 62
     7
370
    15
100
AcDbLine
 10
-27.8562980973
 20
16.6884747637
 30
0.0
 11
-30.459280153
 21
19.5664735503
 31
0.0
  0
LINE
  5
13E
330
1F
100
AcDbEntity
  8
0
  6
Continuous
 62
     7
370
    15
100
AcDbLine
 10
-5.0095640028
 20
-2.3270537228
 30
0.0
 11
-6.7140278414
 21
-0.4425056335
 31
0.0
  0
LINE
  5
13F
330
1F
100
AcDbEntity
  8
0
  6
Continuous
 62
     7
370
    15
100
AcDbLine
 10
-6.4568060124
 20
-4.0546206702
 30
0.0
 11
-5.0095640028
 21
-2.3270537228
 31
0.0
  0
LINE
  5
140
330
1F
100
AcDbEntity
  8
0
  6
Continuous
 62
     7
370
    15
100
AcDbLine
 10
-29.303540107
 20
14.9609078162
 30
0.0
 11
-27.8562980973
 21
16.6884747637
 31
0.0
  0
LINE
  5
141
330
1F
100
AcDbEntity
  8
0
  6
Continuous
 62
     7
370
    15
100
AcDbLine
 10
-31.9065221627
 20
17.8389066029
 30
0.0
 11
-29.303540107
 21
14.9609078162
 31
0.0
  0
LINE
  5
142
330
1F
100
AcDbEntity
  8
0
  6
Continuous
 62
     7
370
    15
100
AcDbLine
 10
-30.459280153
 20
19.5664735503
 30
0.0
 11
-31.9065221627
 21
17.8389066029
 31
0.0
  0
LINE
  5
143
330
1F
100
AcDbEntity
  8
0
  6
Continuous
 62
     7
370
    15
100
AcDbLine
 10
-6.7140278414
 20
-0.4425056335
 30
0.0
 11
-8.161269851
 21
-2.170072581
 31
0.0
  0
LINE
  5
144
330
1F
100
AcDbEntity
  8
0
  6
Continuous
 62
     7
370
    15
100
AcDbLine
 10
-8.161269851
 20
-2.170072581
 30
0.0
 11
-6.4568060124
 21
-4.0546206702
 31
0.0
  0
LINE
  5
145
330
1F
100
AcDbEntity
  8
0
  6
Continuous
 62
     7
370
    15
100
AcDbLine
 10
15.7752210638
 20
13.7569264342
 30
0.0
 11
8.1776406063
 21
7.0997744728
 31
0.0
  0
LINE
  5
146
330
1F
100
AcDbEntity
  8
0
  6
Continuous
 62
     7
370
    15
100
AcDbLine
 10
14.3279790542
 20
12.0293594867
 30
0.0
 11
15.7752210638
 21
13.7569264342
 31
0.0
  0
LINE
  5
147
330
1F
100
AcDbEntity
  8
0
  6
Continuous
 62
     7
370
    15
100
AcDbLine
 10
29.5861878061
 20
24.5960587881
 30
0.0
 11
20.5497268121
 21
16.6781309207
 31
0.0
  0
LINE
  5
148
330
1F
100
AcDbEntity
  8
0
  6
Continuous
 62
     7
370
    15
100
AcDbLine
 10
32.5488891729
 20
16.7578472382
 30
0.0
 11
33.9961311825
 21
18.4854141857
 31
0.0
  0
LINE
  5
149
330
1F
100
AcDbEntity
  8
0
  6
Continuous
 62
     7
370
    15
100
AcDbLine
 10
34.0209905213
 20
19.6926992719
 30
0.0
 11
29.5861878061
 21
24.5960587881
 31
0.0
  0
LINE
  5
14A
330
1F
100
AcDbEntity
  8
0
  6
Continuous
 62
     7
370
    15
100
AcDbLine
 10
29.7738514394
 20
25.7235911807
 30
0.0
 11
30.2115721942
 21
26.2460966796
 31
0.0
  0
LINE
  5
14B
330
1F
100
AcDbEntity
  8
0
  6
Continuous
 62
     7
370
    15
100
AcDbLine
 10
-9.1606968735
 20
-9.7888919983
 30
0.0
 11
-9.1521085787
 21
-9.7770200554
 31
0.0
  0
LINE
  5
14C
330
1F
100
AcDbEntity
  8
0
  6
Continuous
 62
     7
370
    15
100
AcDbLine
 10
29.6146253913
 20
25.8832893174
 30
0.0
 11
29.4425156563
 21
25.7324833251
 31
0.0
  0
LINE
  5
14D
330
1F
100
AcDbEntity
  8
0
  6
Continuous
 62
     7
370
    15
100
AcDbLine
 10
-6.3367879262
 20
-5.2296183587
 30
0.0
 11
-6.3281996314
 21
-5.2177464159
 31
0.0
  0
LINE
  5
14E
330
1F
100
AcDbEntity
  8
0
  6
Continuous
 62
     7
370
    15
100
AcDbLine
 10
8.1776406063
 20
7.0997744728
 30
0.0
 11
8.0060884731
 21
6.8949933836
 31
0.0
  0
LINE
  5
14F
330
1F
100
AcDbEntity
  8
0
  6
Continuous
 62
     7
370
    15
100
AcDbLine
 10
7.4939254
 20
6.0412249823
 30
0.0
 11
14.3279790542
 21
12.0293594867
 31
0.0
  0
ARC
  5
150
330
1F
100
AcDbEntity
  8
0
  6
Continuous
 62
     7
370
    15
100
AcDbCircle
 10
-4.2087041702
 20
-11.5229644676
 30
0.0
 40
0.9999999999996616
100
AcDbArc
 50
320.0459382967
 51
329.0410779362
  0
ARC
  5
151
330
1F
100
AcDbEntity
  8
0
  6
Continuous
 62
     7
370
    15
100
AcDbCircle
 10
-20.6144017905
 20
2.5519180434
 30
0.0
 40
0.9999999999994654
100
AcDbArc
 50
131.2254911551
 51
140.0459382967
  0
ARC
  5
152
330
1F
100
AcDbEntity
  8
0
  6
Continuous
 62
     7
370
    15
100
AcDbCircle
 10
-18.1603655803
 20
4.7021936556
 30
0.0
 40
1.0
100
AcDbArc
 50
42.1275042931
 51
131.2254911551
  0
ARC
  5
153
330
1F
100
AcDbEntity
  8
0
  6
Continuous
 62
     7
370
    15
100
AcDbCircle
 10
-29.7463350031
 20
20.1911703508
 30
0.0
 40
1.000000000000916
100
AcDbArc
 50
133.6399373518
 51
140.0459382966
  0
ARC
  5
154
330
1F
100
AcDbEntity
  8
0
  6
Continuous
 62
     7
370
    15
100
AcDbCircle
 10
-19.2248266087
 20
-2.3121885575
 30
0.0
 40
1.000000000000042
100
AcDbArc
 50
222.1275042931
 51
278.1964699454
  0
ARC
  5
155
330
1F
100
AcDbEntity
  8
0
  6
Continuous
 62
     7
370
    15
100
AcDbCircle
 10
-5.6559461798
 20
-13.2505314151
 30
0.0
 40
0.9999999999999978
100
AcDbArc
 50
222.1275042931
 51
320.0459382967
  0
ARC
  5
156
330
1F
100
AcDbEntity
  8
0
  6
Continuous
 62
     7
370
    15
100
AcDbCircle
 10
-22.0616438001
 20
0.8243510959
 30
0.0
 40
1.0
100
AcDbArc
 50
140.0459382967
 51
222.1275042931
  0
ARC
  5
157
330
1F
100
AcDbEntity
  8
0
  6
Continuous
 62
     7
370
    15
100
AcDbCircle
 10
-8.3105570477
 20
-10.3154490006
 30
0.0
 40
0.999999999999995
100
AcDbArc
 50
148.2268808579
 51
222.1275042931
  0
ARC
  5
158
330
1F
100
AcDbEntity
  8
0
  6
Continuous
 62
     7
370
    15
100
AcDbCircle
 10
-28.590594957
 20
15.5856046167
 30
0.0
 40
0.9999999999999464
100
AcDbArc
 50
222.1275042931
 51
240.9217818159
  0
ARC
  5
159
330
1F
100
AcDbEntity
  8
0
  6
Continuous
 62
     7
370
    15
100
AcDbCircle
 10
-31.1935770127
 20
18.4636034034
 30
0.0
 40
0.999999999999996
100
AcDbArc
 50
140.0459382967
 51
222.1275042931
  0
ARC
  5
15A
330
1F
100
AcDbEntity
  8
0
  6
Continuous
 62
     7
370
    15
100
AcDbCircle
 10
33.8142416627
 20
19.4459039937
 30
0.0
 40
0.9999999999999937
100
AcDbArc
 50
320.0459382967
 51
42.1275042931
  0
ARC
  5
15B
330
1F
100
AcDbEntity
  8
0
  6
Continuous
 62
     7
370
    15
100
AcDbCircle
 10
32.3669996531
 20
17.7183370462
 30
0.0
 40
0.9999999999998603
100
AcDbArc
 50
277.6223923529
 51
320.0459382967
  0
ARC
  5
15C
330
1F
100
AcDbEntity
  8
0
  6
Continuous
 62
     7
370
    15
100
AcDbCircle
 10
8.8965287377
 20
6.7380119
 30
0.0
 40
1.79400244358277
100
AcDbArc
 50
131.2210833138
 51
149.0459210179
  0
ARC
  5
15D
330
1F
100
AcDbEntity
  8
0
  6
Continuous
 62
     7
370
    15
100
AcDbCircle
 10
-5.5090581451
 20
-2.7898264552
 30
0.0
 40
1.947911084649758
100
AcDbArc
 50
329.385671524
 51
43.233415633
  0
ARC
  5
15E
330
1F
100
AcDbEntity
  8
0
  6
Continuous
 62
     7
370
    15
100
AcDbCircle
 10
-7.329987853
 20
-0.9434770703
 30
0.0
 40
2.059584756912643
100
AcDbArc
 50
41.7881864507
 51
97.6206272461
  0
ARC
  5
15F
330
1F
100
AcDbEntity
  8
0
  6
Continuous
 62
     7
370
    15
100
AcDbCircle
 10
-15.7478038417
 20
5.537530637
 30
0.0
 40
2.030861557091213
100
AcDbArc
 50
221.4837769579
 51
290.2167434089
  0
ARC
  5
160
330
1F
100
AcDbEntity
  8
0
  6
Continuous
 62
     7
370
    15
100
AcDbCircle
 10
-7.4593919041
 20
8.5314057825
 30
0.0
 40
1.823643289688671
100
AcDbArc
 50
291.1451371329
 51
311.1749988474
  0
ARC
  5
161
330
1F
100
AcDbEntity
  8
0
  6
Continuous
 62
     7
370
    15
100
AcDbCircle
 10
0.5209168295
 20
15.6649625309
 30
0.0
 40
1.930602979043788
100
AcDbArc
 50
312.948762374
 51
51.333908927
  0
ARC
  5
162
330
1F
100
AcDbEntity
  8
0
  6
Continuous
 62
     7
370
    15
100
AcDbCircle
 10
12.8098264261
 20
26.379138099
 30
0.0
 40
1.889473050510913
100
AcDbArc
 50
260.5841705032
 51
310.7444330965
  0
ARC
  5
163
330
1F
100
AcDbEntity
  8
0
  6
Continuous
 62
     7
370
    15
100
AcDbCircle
 10
-9.5624499164
 20
0.5197041553
 30
0.0
 40
2.042870403470848
100
AcDbArc
 50
342.1042824653
 51
16.4416949645
  0
ARC
  5
164
330
1F
100
AcDbEntity
  8
0
  6
Continuous
 62
     7
370
    15
100
AcDbCircle
 10
-19.5301696117
 20
-0.9160393262
 30
0.0
 40
2.042870403470911
100
AcDbArc
 50
342.1042824653
 51
16.4416949645
  0
ARC
  5
165
330
1F
100
AcDbEntity
  8
0
  6
Continuous
 62
     7
370
    15
100
AcDbCircle
 10
-17.722702739
 20
-0.5230866528
 30
0.0
 40
1.029792378456319
100
AcDbArc
 50
221.7881864507
 51
277.6206272461
  0
ARC
  5
166
330
1F
100
AcDbEntity
  8
0
  6
Continuous
 62
     7
370
    15
100
AcDbCircle
 10
-9.5949474459
 20
-9.6758853136
 30
0.0
 40
12.28064084795146
100
AcDbArc
 50
130.5015343052
 51
136.4154797608
  0
ARC
  5
167
330
1F
100
AcDbEntity
  8
0
  6
Continuous
 62
     7
370
    15
100
AcDbCircle
 10
-12.4317646373
 20
-6.5393456602
 30
0.0
 40
12.28064084795249
100
AcDbArc
 50
130.5015343052
 51
136.4154797608
  0
ARC
  5
168
330
1F
100
AcDbEntity
  8
0
  6
Continuous
 62
     7
370
    15
100
AcDbCircle
 10
3.973932983
 20
-20.6142281712
 30
0.0
 40
12.28064084795449
100
AcDbArc
 50
130.5015343052
 51
136.4154797608
  0
ARC
  5
169
330
1F
100
AcDbEntity
  8
0
  6
Continuous
 62
     7
370
    15
100
AcDbCircle
 10
1.3193221151
 20
-17.6791457567
 30
0.0
 40
12.28064084795386
100
AcDbArc
 50
130.5015343052
 51
136.4154797608
  0
ARC
  5
16A
330
1F
100
AcDbEntity
  8
0
  6
Continuous
 62
     7
370
    15
100
AcDbCircle
 10
-6.8666661127
 20
-8.545446448
 30
0.0
 40
0.973955542324876
100
AcDbArc
 50
149.385671524
 51
223.233415633
  0
ARC
  5
16B
330
1F
100
AcDbEntity
  8
0
  6
Continuous
 62
     7
370
    15
100
AcDbCircle
 10
-7.4577451827
 20
-9.1910720061
 30
0.0
 40
1.168059368462498
100
AcDbArc
 50
46.6930943881
 51
102.2141264994
  0
ARC
  5
16C
330
1F
100
AcDbEntity
  8
0
  6
Continuous
 62
     7
370
    15
100
AcDbCircle
 10
-34.9182275266
 20
21.60166246
 30
0.0
 40
8.946598022003487
100
AcDbArc
 50
325.0320667989
 51
333.1434801024
  0
ARC
  5
16D
330
1F
100
AcDbEntity
  8
0
  6
Continuous
 62
     7
370
    15
100
AcDbCircle
 10
-4.6338362354
 20
-4.6317983666
 30
0.0
 40
1.168059368462497
100
AcDbArc
 50
46.6930943881
 51
102.2141264994
  0
ARC
  5
16E
330
1F
100
AcDbEntity
  8
0
  6
Continuous
 62
     7
370
    15
100
AcDbCircle
 10
-19.1699447486
 20
-2.2506536003
 30
0.0
 40
1.029792378456326
100
AcDbArc
 50
221.7881864507
 51
277.6206272461
  0
ARC
  5
16F
330
1F
100
AcDbEntity
  8
0
  6
Continuous
 62
     7
370
    15
100
AcDbCircle
 10
-8.3139081223
 20
-10.2730133955
 30
0.0
 40
0.9739555423248731
100
AcDbArc
 50
149.385671524
 51
223.233415633
  0
ARC
  5
170
330
1F
100
AcDbEntity
  8
0
  6
Continuous
 62
     7
370
    15
100
AcDbCircle
 10
-5.7191580782
 20
-2.9941861284
 30
0.0
 40
0.9739555423248855
100
AcDbArc
 50
329.385671524
 51
43.233415633
  0
ARC
  5
171
330
1F
100
AcDbEntity
  8
0
  6
Continuous
 62
     7
370
    15
100
AcDbCircle
 10
3.8860183004
 20
-10.7936206258
 30
0.0
 40
12.28064084795354
100
AcDbArc
 50
130.5015343052
 51
136.4154797608
  0
ARC
  5
172
330
1F
100
AcDbEntity
  8
0
  6
Continuous
 62
     7
370
    15
100
AcDbCircle
 10
-27.0737483669
 20
17.3962823227
 30
0.0
 40
1.055166158062516
100
AcDbArc
 50
222.1289930152
 51
240.9112085225
  0
ARC
  5
173
330
1F
100
AcDbEntity
  8
0
  6
Continuous
 62
     7
370
    15
100
AcDbCircle
 10
-18.9607157942
 20
8.2219078606
 30
0.0
 40
12.28064084795337
100
AcDbArc
 50
130.5015343052
 51
136.4154797608
  0
ARC
  5
174
330
1F
100
AcDbEntity
  8
0
  6
Continuous
 62
     7
370
    15
100
AcDbCircle
 10
-21.5636978499
 20
11.0999066473
 30
0.0
 40
12.28064084795261
100
AcDbArc
 50
130.5015343052
 51
136.4154797608
  0
ARC
  5
175
330
1F
100
AcDbEntity
  8
0
  6
Continuous
 62
     7
370
    15
100
AcDbCircle
 10
2.1815544618
 20
-8.9090725366
 30
0.0
 40
12.2806408479527
100
AcDbArc
 50
130.5015343052
 51
136.4154797608
  0
ARC
  5
176
330
1F
100
AcDbEntity
  8
0
  6
Continuous
 62
     7
370
    15
100
AcDbCircle
 10
-7.4818548515
 20
-1.1287373913
 30
0.0
 40
1.029792378456321
100
AcDbArc
 50
41.7881864507
 51
97.6206272461
  0
ARC
  5
177
330
1F
100
AcDbEntity
  8
0
  6
Continuous
 62
     7
370
    15
100
AcDbCircle
 10
-7.1664000878
 20
-4.7217530758
 30
0.0
 40
0.9739555423248779
100
AcDbArc
 50
329.385671524
 51
43.233415633
  0
ARC
  5
178
330
1F
100
AcDbEntity
  8
0
  6
Continuous
 62
     7
370
    15
100
AcDbCircle
 10
-28.5209903766
 20
15.6687153752
 30
0.0
 40
1.055166158061972
100
AcDbArc
 50
222.1289930152
 51
240.9112085225
  0
ARC
  5
179
330
1F
100
AcDbEntity
  8
0
  6
Continuous
 62
     7
370
    15
100
AcDbCircle
 10
-8.9290968611
 20
-2.8563043388
 30
0.0
 40
1.029792378456322
100
AcDbArc
 50
41.7881864507
 51
97.6206272461
  0
ARC
  5
17A
330
1F
100
AcDbEntity
  8
0
  6
Continuous
 62
     7
370
    15
100
AcDbCircle
 10
-5.5040664177
 20
1.5341848914
 30
0.0
 40
2.080143978320773
100
AcDbArc
 50
11.797814091
 51
88.2940625023
  0
ARC
  5
17B
330
1F
100
AcDbEntity
  8
0
  6
Continuous
 62
     7
370
    15
100
AcDbCircle
 10
6.9999913452
 20
7.1498256492
 30
0.0
 40
1.178712391760601
100
AcDbArc
 50
357.566341314
 51
52.6960748903
  0
ARC
  5
17C
330
1F
100
AcDbEntity
  8
0
  6
Continuous
 62
     7
370
    15
100
AcDbCircle
 10
32.0316025284
 20
19.129764493
 30
0.0
 40
2.067500943463731
100
AcDbArc
 50
341.8409069182
 51
15.7998591997
  0
ARC
  5
17D
330
1F
100
AcDbEntity
  8
0
  6
Continuous
 62
     7
370
    15
100
AcDbCircle
 10
23.9661556041
 20
32.173812766
 30
0.0
 40
2.054952897188982
100
AcDbArc
 50
113.0167860666
 51
132.9741561138
  0
ARC
  5
17E
330
1F
100
AcDbEntity
  8
0
  6
Continuous
 62
     7
370
    15
100
AcDbCircle
 10
25.6796540495
 20
27.1513317993
 30
0.0
 40
8.989993406631632
100
AcDbArc
 50
120.766426261
 51
136.037114497
  0
ARC
  5
17F
330
1F
100
AcDbEntity
  8
0
  6
Continuous
 62
     7
370
    15
100
AcDbCircle
 10
35.3929470098
 20
13.3430106898
 30
0.0
 40
25.76615687681342
100
AcDbArc
 50
128.9114367903
 51
139.1957576605
  0
ARC
  5
180
330
1F
100
AcDbEntity
  8
0
  6
Continuous
 62
     7
370
    15
100
AcDbCircle
 10
-4.1742954708
 20
-11.5128781353
 30
0.0
 40
0.9805546399462441
100
AcDbArc
 50
220.3437165061
 51
318.3027523797
  0
ARC
  5
181
330
1F
100
AcDbEntity
  8
0
  6
Continuous
 62
     7
370
    15
100
AcDbCircle
 10
-20.6306926133
 20
2.5912734129
 30
0.0
 40
0.9624409260355696
100
AcDbArc
 50
141.2191946621
 51
223.6274713248
  0
ARC
  5
182
330
1F
100
AcDbEntity
  8
0
  6
Continuous
 62
     7
370
    15
100
AcDbCircle
 10
-5.6215374804
 20
-13.2404450828
 30
0.0
 40
0.9805546399462394
100
AcDbArc
 50
220.3437165061
 51
318.3027523797
  0
ARC
  5
183
330
1F
100
AcDbEntity
  8
0
  6
Continuous
 62
     7
370
    15
100
AcDbCircle
 10
-22.0779346229
 20
0.8637064654
 30
0.0
 40
0.962440926035578
100
AcDbArc
 50
141.2191946621
 51
223.6274713248
  0
ARC
  5
184
330
1F
100
AcDbEntity
  8
0
  6
Continuous
 62
     7
370
    15
100
AcDbCircle
 10
-15.5603749658
 20
2.5859681438
 30
0.0
 40
2.345278061718737
100
AcDbArc
 50
120.036992355
 51
136.7714959621
  0
ARC
  5
185
330
1F
100
AcDbEntity
  8
0
  6
Continuous
 62
     7
370
    15
100
AcDbCircle
 10
-16.2472210198
 20
3.3456034392
 30
0.0
 40
2.341501940247617
100
AcDbArc
 50
120.0209015928
 51
136.7826391652
  0
ARC
  5
186
330
1F
100
AcDbEntity
  8
0
  6
Continuous
 62
     7
370
    15
100
AcDbCircle
 10
-29.7616678047
 20
20.2305662641
 30
0.0
 40
0.9631625621243826
100
AcDbArc
 50
141.2567700314
 51
223.5898959554
  0
ARC
  5
187
330
1F
100
AcDbEntity
  8
0
  6
Continuous
 62
     7
370
    15
100
AcDbCircle
 10
-31.2089098144
 20
18.5029993167
 30
0.0
 40
0.9631625621243878
100
AcDbArc
 50
141.2567700314
 51
223.5898959554
  0
ARC
  5
188
330
1F
100
AcDbEntity
  8
0
  6
Continuous
 62
     7
370
    15
100
AcDbCircle
 10
8.7689699235
 20
6.4248332803
 30
0.0
 40
0.8973382721741926
100
AcDbArc
 50
131.222242091
 51
139.9198351624
  0
ARC
  5
189
330
1F
100
AcDbEntity
  8
0
  6
Continuous
 62
     7
370
    15
100
AcDbCircle
 10
0.2966438302
 20
15.4496832474
 30
0.0
 40
0.9706949609725568
100
AcDbArc
 50
320.6981784708
 51
51.1970250484
  0
ARC
  5
18A
330
1F
100
AcDbEntity
  8
0
  6
Continuous
 62
     7
370
    15
100
AcDbCircle
 10
-1.2024952544
 20
13.6963868636
 30
0.0
 40
1.023556032534186
100
AcDbArc
 50
2.9340206459
 51
49.8355057
  0
ARC
  5
18B
330
1F
100
AcDbEntity
  8
0
  6
Continuous
 62
     7
370
    15
100
AcDbCircle
 10
11.3713729756
 20
24.807610295
 30
0.0
 40
1.166599668241409
100
AcDbArc
 50
345.4799535018
 51
22.6228591726
  0
ARC
  5
18C
330
1F
100
AcDbEntity
  8
0
  6
Continuous
 62
     7
370
    15
100
AcDbCircle
 10
36.3943285351
 20
17.2478954111
 30
0.0
 40
3.40731554827784
100
AcDbArc
 50
122.6533271007
 51
134.1502136573
  0
ARC
  5
18D
330
1F
100
AcDbEntity
  8
0
  6
Continuous
 62
     7
370
    15
100
AcDbCircle
 10
33.8809114664
 20
19.3931512574
 30
0.0
 40
0.9150203136473336
100
AcDbArc
 50
277.2339103232
 51
319.8971948886
  0
ARC
  5
18E
330
1F
100
AcDbEntity
  8
0
  6
Continuous
 62
     7
370
    15
100
AcDbCircle
 10
32.4336694568
 20
17.6655843099
 30
0.0
 40
0.9150203136188563
100
AcDbArc
 50
277.2339103225
 51
319.8971948892
  0
MTEXT
  5
190
330
1F
100
AcDbEntity
  8
0
  6
Continuous
 62
     7
100
AcDbMText
 10
-32.1935770127
 20
-15.2700978067
 30
0.0
 40
4.83362
 41
0.0
 71
     1
 72
     1
  1
SolidWorks Educational Edition.
  7
SLDTEXTSTYLE0
 73
     1
 44
1.0
  0
MTEXT
  5
191
330
1F
100
AcDbEntity
  8
0
  6
Continuous
 62
     7
100
AcDbMText
 10
-32.1935770127
 20
-22.5205278067
 30
0.0
 40
4.83362
 41
0.0
 71
     1
 72
     1
  1
For Instructional Use Only.
  7
SLDTEXTSTYLE0
 73
     1
 44
1.0
  0
ENDSEC
  0
SECTION
  2
OBJECTS
  0
DICTIONARY
  5
C
330
0
100
AcDbDictionary
281
     1
  3
ACAD_GROUP
350
D
  3
ACAD_LAYOUT
350
1A
  3
ACAD_MLINESTYLE
350
17
  3
ACAD_PLOTSETTINGS
350
19
  3
ACAD_PLOTSTYLENAME
350
E
  0
DICTIONARY
  5
D
102
{ACAD_REACTORS
330
C
102
}
330
C
100
AcDbDictionary
281
     1
  0
DICTIONARY
  5
1A
102
{ACAD_REACTORS
330
C
102
}
330
C
100
AcDbDictionary
281
     1
  3
Layout1
350
1E
  3
Layout2
350
26
  3
Model
350
22
  0
DICTIONARY
  5
17
102
{ACAD_REACTORS
330
C
102
}
330
C
100
AcDbDictionary
281
     1
  3
Standard
350
18
  0
DICTIONARY
  5
19
102
{ACAD_REACTORS
330
C
102
}
330
C
100
AcDbDictionary
281
     1
  0
ACDBDICTIONARYWDFLT
  5
E
102
{ACAD_REACTORS
330
C
102
}
330
C
100
AcDbDictionary
281
     1
  3
Normal
350
F
100
AcDbDictionaryWithDefault
340
F
  0
LAYOUT
  5
1E
102
{ACAD_REACTORS
330
1A
102
}
330
1A
100
AcDbPlotSettings
  1

  2
none_device
  4

  6

 40
0.0
 41
0.0
 42
0.0
 43
0.0
 44
0.0
 45
0.0
 46
0.0
 47
0.0
 48
0.0
 49
0.0
140
0.0
141
0.0
142
1.0
143
1.0
 70
   688
 72
     0
 73
     0
 74
     5
  7

 75
    16
147
1.0
148
0.0
149
0.0
100
AcDbLayout
  1
Layout1
 70
     1
 71
     1
 10
0.0
 20
0.0
 11
420.0
 21
297.0
 12
0.0
 22
0.0
 32
0.0
 14
1.0000000000E+20
 24
1.0000000000E+20
 34
1.0000000000E+20
 15
-1.0000000000E+20
 25
-1.0000000000E+20
 35
-1.0000000000E+20
146
0.0
 13
0.0
 23
0.0
 33
0.0
 16
1.0
 26
0.0
 36
0.0
 17
0.0
 27
1.0
 37
0.0
 76
     0
330
1B
  0
LAYOUT
  5
26
102
{ACAD_REACTORS
330
1A
102
}
330
1A
100
AcDbPlotSettings
  1

  2
none_device
  4

  6

 40
0.0
 41
0.0
 42
0.0
 43
0.0
 44
0.0
 45
0.0
 46
0.0
 47
0.0
 48
0.0
 49
0.0
140
0.0
141
0.0
142
1.0
143
1.0
 70
   688
 72
     0
 73
     0
 74
     5
  7

 75
    16
147
1.0
148
0.0
149
0.0
100
AcDbLayout
  1
Layout2
 70
     1
 71
     2
 10
0.0
 20
0.0
 11
0.0
 21
0.0
 12
0.0
 22
0.0
 32
0.0
 14
0.0
 24
0.0
 34
0.0
 15
0.0
 25
0.0
 35
0.0
146
0.0
 13
0.0
 23
0.0
 33
0.0
 16
1.0
 26
0.0
 36
0.0
 17
0.0
 27
1.0
 37
0.0
 76
     0
330
23
  0
LAYOUT
  5
22
102
{ACAD_REACTORS
330
1A
102
}
330
1A
100
AcDbPlotSettings
  1

  2
none_device
  4
ANSI_A_(11.00_x_8.50_Inches)
  6

 40
6.35
 41
19.05
 42
6.35000508
 43
19.05000254
 44
279.4
 45
215.9
 46
127.9409901194
 47
46.3292338565
 48
0.0
 49
0.0
140
0.0
141
0.0
142
0.1625183481
143
1.0
 70
  1696
 72
     0
 73
     0
 74
     0
  7

 75
     0
147
0.0179189148
148
0.0
149
0.0
100
AcDbLayout
  1
Model
 70
     1
 71
     0
 10
0.0
 20
0.0
 11
420.0
 21
297.0
 12
0.0
 22
0.0
 32
0.0
 14
-32.1935770127
 24
-14.2505314151
 34
0.0
 15
34.8142416627
 25
34.8760716674
 35
0.0
146
0.0
 13
0.0
 23
0.0
 33
0.0
 16
1.0
 26
0.0
 36
0.0
 17
0.0
 27
1.0
 37
0.0
 76
     0
330
1F
331
29
  0
MLINESTYLE
  5
18
102
{ACAD_REACTORS
330
17
102
}
330
17
100
AcDbMlineStyle
  2
Standard
 70
     0
  3

 62
   256
 51
90.0
 52
90.0
 71
     2
 49
0.5
 62
   256
  6
BYLAYER
 49
-0.5
 62
   256
  6
BYLAYER
  0
ACDBPLACEHOLDER
  5
F
102
{ACAD_REACTORS
330
E
102
}
330
E
  0
ENDSEC
  0
EOF
