  0
SECTION
  2
HEADER
  9
$ACADVER
  1
AC1015
  9
$ACADMAINTVER
 70
     6
  9
$DWGCODEPAGE
  3
ANSI_1252
  9
$INSBASE
 10
0.0
 20
0.0
 30
0.0
  9
$EXTMIN
 10
-9.49714288
 20
-10.8453024137
 30
0.0
  9
$EXTMAX
 10
10.5234442739
 20
9.8718435145
 30
0.0
  9
$LIMMIN
 10
0.0
 20
0.0
  9
$LIMMAX
 10
420.0
 20
297.0
  9
$ORTHOMODE
 70
     0
  9
$REGENMODE
 70
     1
  9
$FILLMODE
 70
     1
  9
$QTEXTMODE
 70
     0
  9
$MIRRTEXT
 70
     1
  9
$LTSCALE
 40
1.0
  9
$ATTMODE
 70
     1
  9
$TEXTSIZE
 40
2.5
  9
$TRACEWID
 40
1.0
  9
$TEXTSTYLE
  7
Standard
  9
$CLAYER
  8
0
  9
$CELTYPE
  6
ByLayer
  9
$CECOLOR
 62
   256
  9
$CELTSCALE
 40
1.0
  9
$DISPSILH
 70
     0
  9
$DIMSCALE
 40
1.0
  9
$DIMASZ
 40
6.0
  9
$DIMEXO
 40
1.0
  9
$DIMDLI
 40
3.75
  9
$DIMRND
 40
0.0
  9
$DIMDLE
 40
0.0
  9
$DIMEXE
 40
1.0
  9
$DIMTP
 40
0.0
  9
$DIMTM
 40
0.0
  9
$DIMTXT
 40
2.5
  9
$DIMCEN
 40
2.5
  9
$DIMTSZ
 40
0.0
  9
$DIMTOL
 70
     0
  9
$DIMLIM
 70
     0
  9
$DIMTIH
 70
     1
  9
$DIMTOH
 70
     1
  9
$DIMSE1
 70
     0
  9
$DIMSE2
 70
     0
  9
$DIMTAD
 70
     1
  9
$DIMZIN
 70
     0
  9
$DIMBLK
  1

  9
$DIMASO
 70
     1
  9
$DIMSHO
 70
     1
  9
$DIMPOST
  1

  9
$DIMAPOST
  1

  9
$DIMALT
 70
     0
  9
$DIMALTD
 70
     3
  9
$DIMALTF
 40
0.0393700787
  9
$DIMLFAC
 40
1.0
  9
$DIMTOFL
 70
     1
  9
$DIMTVP
 40
0.0
  9
$DIMTIX
 70
     0
  9
$DIMSOXD
 70
     0
  9
$DIMSAH
 70
     0
  9
$DIMBLK1
  1

  9
$DIMBLK2
  1

  9
$DIMSTYLE
  2
ISO-25
  9
$DIMCLRD
 70
     0
  9
$DIMCLRE
 70
     0
  9
$DIMCLRT
 70
     0
  9
$DIMTFAC
 40
1.0
  9
$DIMGAP
 40
1.524
  9
$DIMJUST
 70
     0
  9
$DIMSD1
 70
     0
  9
$DIMSD2
 70
     0
  9
$DIMTOLJ
 70
     0
  9
$DIMTZIN
 70
     0
  9
$DIMALTZ
 70
     0
  9
$DIMALTTZ
 70
     0
  9
$DIMUPT
 70
     0
  9
$DIMDEC
 70
     2
  9
$DIMTDEC
 70
     2
  9
$DIMALTU
 70
     2
  9
$DIMALTTD
 70
     3
  9
$DIMTXSTY
  7
Standard
  9
$DIMAUNIT
 70
     0
  9
$DIMADEC
 70
     2
  9
$DIMALTRND
 40
0.0
  9
$DIMAZIN
 70
     0
  9
$DIMDSEP
 70
    44
  9
$DIMATFIT
 70
     3
  9
$DIMFRAC
 70
     0
  9
$DIMLDRBLK
  1

  9
$DIMLUNIT
 70
     2
  9
$DIMLWD
 70
    -2
  9
$DIMLWE
 70
    -2
  9
$DIMTMOVE
 70
     0
  9
$LUNITS
 70
     2
  9
$LUPREC
 70
     2
  9
$SKETCHINC
 40
1.0
  9
$FILLETRAD
 40
10.0
  9
$AUNITS
 70
     0
  9
$AUPREC
 70
     2
  9
$MENU
  1
.
  9
$ELEVATION
 40
0.0
  9
$PELEVATION
 40
0.0
  9
$THICKNESS
 40
0.0
  9
$LIMCHECK
 70
     0
  9
$CHAMFERA
 40
10.0
  9
$CHAMFERB
 40
10.0
  9
$CHAMFERC
 40
20.0
  9
$CHAMFERD
 40
0.0
  9
$SKPOLY
 70
     0
  9
$TDCREATE
 40
2456483.97394184
  9
$TDUCREATE
 40
2456483.47394184
  9
$TDUPDATE
 40
2456483.973966389
  9
$TDUUPDATE
 40
2456483.473966389
  9
$TDINDWG
 40
0.0000000116
  9
$TDUSRTIMER
 40
0.0000000116
  9
$USRTIMER
 70
     1
  9
$ANGBASE
 50
0.0
  9
$ANGDIR
 70
     0
  9
$PDMODE
 70
     0
  9
$PDSIZE
 40
-1.0
  9
$PLINEWID
 40
0.0
  9
$SPLFRAME
 70
     0
  9
$SPLINETYPE
 70
     6
  9
$SPLINESEGS
 70
     8
  9
$HANDSEED
  5
C5
  9
$SURFTAB1
 70
     6
  9
$SURFTAB2
 70
     6
  9
$SURFTYPE
 70
     6
  9
$SURFU
 70
     6
  9
$SURFV
 70
     6
  9
$UCSBASE
  2

  9
$UCSNAME
  2

  9
$UCSORG
 10
0.0
 20
0.0
 30
0.0
  9
$UCSXDIR
 10
1.0
 20
0.0
 30
0.0
  9
$UCSYDIR
 10
0.0
 20
1.0
 30
0.0
  9
$UCSORTHOREF
  2

  9
$UCSORTHOVIEW
 70
     0
  9
$UCSORGTOP
 10
0.0
 20
0.0
 30
0.0
  9
$UCSORGBOTTOM
 10
0.0
 20
0.0
 30
0.0
  9
$UCSORGLEFT
 10
0.0
 20
0.0
 30
0.0
  9
$UCSORGRIGHT
 10
0.0
 20
0.0
 30
0.0
  9
$UCSORGFRONT
 10
0.0
 20
0.0
 30
0.0
  9
$UCSORGBACK
 10
0.0
 20
0.0
 30
0.0
  9
$PUCSBASE
  2

  9
$PUCSNAME
  2

  9
$PUCSORG
 10
0.0
 20
0.0
 30
0.0
  9
$PUCSXDIR
 10
1.0
 20
0.0
 30
0.0
  9
$PUCSYDIR
 10
0.0
 20
1.0
 30
0.0
  9
$PUCSORTHOREF
  2

  9
$PUCSORTHOVIEW
 70
     0
  9
$PUCSORGTOP
 10
0.0
 20
0.0
 30
0.0
  9
$PUCSORGBOTTOM
 10
0.0
 20
0.0
 30
0.0
  9
$PUCSORGLEFT
 10
0.0
 20
0.0
 30
0.0
  9
$PUCSORGRIGHT
 10
0.0
 20
0.0
 30
0.0
  9
$PUCSORGFRONT
 10
0.0
 20
0.0
 30
0.0
  9
$PUCSORGBACK
 10
0.0
 20
0.0
 30
0.0
  9
$USERI1
 70
     0
  9
$USERI2
 70
     0
  9
$USERI3
 70
     0
  9
$USERI4
 70
     0
  9
$USERI5
 70
     0
  9
$USERR1
 40
0.0
  9
$USERR2
 40
0.0
  9
$USERR3
 40
0.0
  9
$USERR4
 40
0.0
  9
$USERR5
 40
0.0
  9
$WORLDVIEW
 70
     1
  9
$SHADEDGE
 70
     3
  9
$SHADEDIF
 70
    70
  9
$TILEMODE
 70
     1
  9
$MAXACTVP
 70
    64
  9
$PINSBASE
 10
0.0
 20
0.0
 30
0.0
  9
$PLIMCHECK
 70
     0
  9
$PEXTMIN
 10
1.0000000000E+20
 20
1.0000000000E+20
 30
1.0000000000E+20
  9
$PEXTMAX
 10
-1.0000000000E+20
 20
-1.0000000000E+20
 30
-1.0000000000E+20
  9
$PLIMMIN
 10
0.0
 20
0.0
  9
$PLIMMAX
 10
420.0
 20
297.0
  9
$UNITMODE
 70
     0
  9
$VISRETAIN
 70
     1
  9
$PLINEGEN
 70
     0
  9
$PSLTSCALE
 70
     1
  9
$TREEDEPTH
 70
  3020
  9
$CMLSTYLE
  2
Standard
  9
$CMLJUST
 70
     0
  9
$CMLSCALE
 40
20.0
  9
$PROXYGRAPHICS
 70
     1
  9
$MEASUREMENT
 70
     1
  9
$CELWEIGHT
370
    -1
  9
$ENDCAPS
280
     0
  9
$JOINSTYLE
280
     0
  9
$LWDISPLAY
290
     1
  9
$INSUNITS
 70
     4
  9
$HYPERLINKBASE
  1

  9
$STYLESHEET
  1

  9
$XEDIT
290
     1
  9
$CEPSNTYPE
380
     0
  9
$PSTYLEMODE
290
     1
  9
$FINGERPRINTGUID
  2
{14D2F29E-A850-4E9E-B5CC-CA28191FE0ED}
  9
$VERSIONGUID
  2
{FAEB1C32-E019-11D5-929B-00C0DF256EC4}
  9
$EXTNAMES
290
     1
  9
$PSVPSCALE
 40
0.0
  9
$OLESTARTUP
290
     0
  0
ENDSEC
  0
SECTION
  2
CLASSES
  0
CLASS
  1
ACDBDICTIONARYWDFLT
  2
AcDbDictionaryWithDefault
  3
ObjectDBX Classes
 90
        0
280
     0
281
     0
  0
CLASS
  1
VISUALSTYLE
  2
AcDbVisualStyle
  3
ObjectDBX Classes
 90
     4095
280
     0
281
     0
  0
CLASS
  1
MATERIAL
  2
AcDbMaterial
  3
ObjectDBX Classes
 90
     1153
280
     0
281
     0
  0
CLASS
  1
ACDBPLACEHOLDER
  2
AcDbPlaceHolder
  3
ObjectDBX Classes
 90
        0
280
     0
281
     0
  0
CLASS
  1
LAYOUT
  2
AcDbLayout
  3
ObjectDBX Classes
 90
        0
280
     0
281
     0
  0
ENDSEC
  0
SECTION
  2
TABLES
  0
TABLE
  2
VPORT
  5
8
330
0
100
AcDbSymbolTable
 70
     1
  0
VPORT
  5
29
330
8
100
AcDbSymbolTableRecord
100
AcDbViewportTableRecord
  2
*Active
 70
     0
 10
0.0
 20
0.0
 11
1.0
 21
1.0
 12
0.5131506969
 22
-0.4867294496
 13
0.0
 23
0.0
 14
10.0
 24
10.0
 15
10.0
 25
10.0
 16
0.0
 26
0.0
 36
1.0
 17
0.0
 27
0.0
 37
0.0
 40
21.1314888468
 41
0.9663776672
 42
50.0
 43
0.0
 44
0.0
 50
0.0
 51
0.0
 71
     0
 72
   100
 73
     1
 74
     3
 75
     0
 76
     0
 77
     0
 78
     0
281
     0
 65
     1
110
0.0
120
0.0
130
0.0
111
1.0
121
0.0
131
0.0
112
0.0
122
1.0
132
0.0
 79
     0
146
0.0
  0
ENDTAB
  0
TABLE
  2
LTYPE
  5
5
330
0
100
AcDbSymbolTable
 70
     6
  0
LTYPE
  5
14
330
5
100
AcDbSymbolTableRecord
100
AcDbLinetypeTableRecord
  2
ByBlock
 70
     0
  3

 72
    65
 73
     0
 40
0.0
  0
LTYPE
  5
15
330
5
100
AcDbSymbolTableRecord
100
AcDbLinetypeTableRecord
  2
ByLayer
 70
     0
  3

 72
    65
 73
     0
 40
0.0
  0
LTYPE
  5
16
330
5
100
AcDbSymbolTableRecord
100
AcDbLinetypeTableRecord
  2
Continuous
 70
     0
  3
Solid line
 72
    65
 73
     0
 40
0.0
  0
LTYPE
  5
3F
330
5
100
AcDbSymbolTableRecord
100
AcDbLinetypeTableRecord
  2
HIDDEN
 70
     0
  3
Hidden __ __ __ __ __ __ __ __ __ __ __ __ __ __
 72
    65
 73
     2
 40
1.905
 49
1.27
 74
     0
 49
-0.635
 74
     0
  0
LTYPE
  5
40
330
5
100
AcDbSymbolTableRecord
100
AcDbLinetypeTableRecord
  2
PHANTOM
 70
     0
  3
Phantom ______  __  __  ______  __  __  ______
 72
    65
 73
     6
 40
12.7
 49
6.35
 74
     0
 49
-1.27
 74
     0
 49
1.27
 74
     0
 49
-1.27
 74
     0
 49
1.27
 74
     0
 49
-1.27
 74
     0
  0
LTYPE
  5
41
330
5
100
AcDbSymbolTableRecord
100
AcDbLinetypeTableRecord
  2
CENTER
 70
     0
  3
Center ____ _ ____ _ ____ _ ____ _ ____ _ ____
 72
    65
 73
     4
 40
10.16
 49
6.35
 74
     0
 49
-1.27
 74
     0
 49
1.27
 74
     0
 49
-1.27
 74
     0
  0
LTYPE
  5
42
330
5
100
AcDbSymbolTableRecord
100
AcDbLinetypeTableRecord
  2
CENTERX2
 70
     0
  3
Center (2x) ________  __  ________  __  _____
 72
    65
 73
     4
 40
20.32
 49
12.7
 74
     0
 49
-2.54
 74
     0
 49
2.54
 74
     0
 49
-2.54
 74
     0
  0
LTYPE
  5
43
330
5
100
AcDbSymbolTableRecord
100
AcDbLinetypeTableRecord
  2
DOT2
 70
     0
  3
Dot (.5x) ........................................
 72
    65
 73
     2
 40
0.635
 49
0.0
 74
     0
 49
-0.635
 74
     0
  0
ENDTAB
  0
TABLE
  2
LAYER
  5
2
330
0
100
AcDbSymbolTable
 70
     1
  0
LAYER
  5
10
330
2
100
AcDbSymbolTableRecord
100
AcDbLayerTableRecord
  2
0
 70
     0
 62
     7
  6
Continuous
370
    -3
390
F
  0
ENDTAB
  0
TABLE
  2
STYLE
  5
3
330
0
100
AcDbSymbolTable
 70
     2
  0
STYLE
  5
11
330
3
100
AcDbSymbolTableRecord
100
AcDbTextStyleTableRecord
  2
Standard
 70
     0
 40
0.0
 41
1.0
 50
0.0
 71
     0
 42
2.5
  3
txt
  4

  0
STYLE
  5
C2
330
3
100
AcDbSymbolTableRecord
100
AcDbTextStyleTableRecord
  2
SLDTEXTSTYLE0
 70
     0
 40
0.0
 41
0.7
 50
0.0
 71
     0
 42
0.2
  3
TXT
  4

  0
ENDTAB
  0
TABLE
  2
VIEW
  5
6
330
0
100
AcDbSymbolTable
 70
     0
  0
ENDTAB
  0
TABLE
  2
UCS
  5
7
330
0
100
AcDbSymbolTable
 70
     0
  0
ENDTAB
  0
TABLE
  2
APPID
  5
9
330
0
100
AcDbSymbolTable
 70
     1
  0
APPID
  5
12
330
9
100
AcDbSymbolTableRecord
100
AcDbRegAppTableRecord
  2
ACAD
 70
     0
  0
ENDTAB
  0
TABLE
  2
DIMSTYLE
  5
A
330
0
100
AcDbSymbolTable
 70
     1
100
AcDbDimStyleTable
  0
DIMSTYLE
105
27
330
A
100
AcDbSymbolTableRecord
100
AcDbDimStyleTableRecord
  2
ISO-25
 70
     0
 41
2.5
 42
0.625
 43
3.75
 44
1.25
 73
     0
 74
     0
 77
     1
 78
     8
140
2.5
141
2.5
143
0.0393700787
147
0.625
171
     3
172
     1
178
     0
271
     2
272
     2
274
     3
278
    44
283
     0
284
     8
340
11
  0
ENDTAB
  0
TABLE
  2
BLOCK_RECORD
  5
1
330
0
100
AcDbSymbolTable
 70
     1
  0
BLOCK_RECORD
  5
1F
330
1
100
AcDbSymbolTableRecord
100
AcDbBlockTableRecord
  2
*Model_Space
340
22
  0
BLOCK_RECORD
  5
1B
330
1
100
AcDbSymbolTableRecord
100
AcDbBlockTableRecord
  2
*Paper_Space
340
1E
  0
BLOCK_RECORD
  5
23
330
1
100
AcDbSymbolTableRecord
100
AcDbBlockTableRecord
  2
*Paper_Space0
340
26
  0
ENDTAB
  0
ENDSEC
  0
SECTION
  2
BLOCKS
  0
BLOCK
  5
20
330
1F
100
AcDbEntity
  8
0
100
AcDbBlockBegin
  2
*Model_Space
 70
     0
 10
0.0
 20
0.0
 30
0.0
  3
*Model_Space
  1

  0
ENDBLK
  5
21
330
1F
100
AcDbEntity
  8
0
100
AcDbBlockEnd
  0
BLOCK
  5
1C
330
1B
100
AcDbEntity
 67
     1
  8
0
100
AcDbBlockBegin
  2
*Paper_Space
 70
     0
 10
0.0
 20
0.0
 30
0.0
  3
*Paper_Space
  1

  0
ENDBLK
  5
1D
330
1B
100
AcDbEntity
 67
     1
  8
0
100
AcDbBlockEnd
  0
BLOCK
  5
24
330
23
100
AcDbEntity
  8
0
100
AcDbBlockBegin
  2
*Paper_Space0
 70
     0
 10
0.0
 20
0.0
 30
0.0
  3
*Paper_Space0
  1

  0
ENDBLK
  5
25
330
23
100
AcDbEntity
  8
0
100
AcDbBlockEnd
  0
ENDSEC
  0
SECTION
  2
ENTITIES
  0
LWPOLYLINE
  5
4D
330
1F
100
AcDbEntity
  8
0
  6
Continuous
 62
     7
370
    15
100
AcDbPolyline
 90
       11
 70
   128
 43
0.0
 10
2.7488297205
 20
0.8337071874
 10
2.6816451797
 20
0.8811610119
 10
2.5917267805
 20
0.9122699406
 10
2.484427754
 20
0.9224446361
 10
2.3609376769
 20
0.911572296
 10
2.2226256287
 20
0.8797734572
 10
2.0710250138
 20
0.8274006592
 10
1.9078165609
 20
0.7550345361
 10
1.7348096896
 20
0.6634773789
 10
1.5539224504
 20
0.5537442411
 10
1.3804884034
 20
0.4365192739
  0
LWPOLYLINE
  5
50
330
1F
100
AcDbEntity
  8
0
  6
Continuous
 62
     7
370
    15
100
AcDbPolyline
 90
       18
 70
   128
 43
0.0
 10
0.6364900124
 20
-0.1864075833
 10
0.4509258514
 20
-0.3723143872
 10
0.2717151726
 20
-0.564913808
 10
0.1008448053
 20
-0.7620705817
 10
-0.0597908866
 20
-0.9615989184
 10
-0.2084110066
 20
-1.1612867363
 10
-0.3433678694
 20
-1.3589201849
 10
-0.463165268
 20
-1.5523081901
 10
-0.566475062
 20
-1.7393067448
 10
-0.6521519014
 20
-1.9178426792
 10
-0.7192459253
 20
-2.0859366445
 10
-0.767013292
 20
-2.2417250576
 10
-0.7949244258
 20
-2.3834807615
 10
-0.8026698885
 20
-2.5096321736
 10
-0.7901638094
 20
-2.6187807093
 10
-0.7575448381
 20
-2.7097162871
 10
-0.7051746064
 20
-2.7814307448
 10
-0.7008182609
 20
-2.7856751914
  0
LWPOLYLINE
  5
51
330
1F
100
AcDbEntity
  8
0
  6
Continuous
 62
     7
370
    15
100
AcDbPolyline
 90
      127
 70
   128
 43
0.0
 10
5.8389331221
 20
-2.0709834129
 10
6.0920473081
 20
-1.7643876443
 10
6.4550760042
 20
-1.3124139175
 10
6.8066830752
 20
-0.8597326734
 10
7.1461290861
 20
-0.4072959076
 10
7.4727001765
 20
0.0439448983
 10
7.7857095625
 20
0.4930407779
 10
8.0844989803
 20
0.9390472755
 10
8.3684400713
 20
1.3810264327
 10
8.636935703
 20
1.8180487604
 10
8.8894212247
 20
2.2491951938
 10
9.1253656557
 20
2.6735590253
 10
9.344272801
 20
3.0902478112
 10
9.5456822955
 20
3.4983852486
 10
9.729170572
 20
3.8971130179
 10
9.8943517518
 20
4.2855925886
 10
10.0408784562
 20
4.6630069821
 10
10.1684425374
 20
5.02856249
 10
10.2767757261
 20
5.3814903435
 10
10.3656501959
 20
5.7210483299
 10
10.4348790424
 20
6.0465223533
 10
10.4843166764
 20
6.3572279368
 10
10.5138591296
 20
6.6525116619
 10
10.5234442739
 20
6.9317525422
 10
10.5130519515
 20
7.1943633299
 10
10.4827040177
 20
7.4397917503
 10
10.4324642946
 20
7.6675216638
 10
10.3624384372
 20
7.8770741507
 10
10.2727737109
 20
8.068008519
 10
10.163658682
 20
8.2399232307
 10
10.0353228211
 20
8.3924567464
 10
9.8880360206
 20
8.5252882859
 10
9.7221080268
 20
8.6381385023
 10
9.5378877889
 20
8.73077007
 10
9.335762725
 20
8.8029881832
 10
9.1161579071
 20
8.8546409661
 10
8.8795351676
 20
8.8856197922
 10
8.6263921278
 20
8.8958595125
 10
8.3572611515
 20
8.8853385928
 10
8.0727082252
 20
8.8540791586
 10
7.7733317682
 20
8.802146949
 10
7.4597613738
 20
8.7296511783
 10
7.1326564855
 20
8.6367443062
 10
6.7927050098
 20
8.5236217174
 10
6.44062187
 20
8.3905213103
 10
6.0771475024
 20
8.2377229972
 10
5.7030462993
 20
8.0655481153
 10
5.3191050012
 20
7.8743587511
 10
4.9261310427
 20
7.6645569788
 10
4.5249508542
 20
7.4365840147
 10
4.1164081237
 20
7.1909192895
 10
3.701362023
 20
6.9280794399
 10
3.2806854005
 20
6.6486172223
 10
2.8552629457
 20
6.3531203501
 10
2.4259893284
 20
6.0422102576
 10
1.993767318
 20
5.7165407937
 10
1.5595058838
 20
5.3767968464
 10
1.1241182845
 20
5.0236929023
 10
0.688520147
 20
4.6579715446
 10
0.2536275408
 20
4.280401891
 10
-0.179644948
 20
3.8917779763
 10
-0.6103861408
 20
3.4929170826
 10
-1.0376901822
 20
3.0846580205
 10
-1.460658445
 20
2.6678593653
 10
-1.8784014206
 20
2.243397651
 10
-2.2900405888
 20
1.8121655271
 10
-2.6947102663
 20
1.3750698814
 10
-3.0915594263
 20
0.933029933
 10
-3.4797534889
 20
0.4869752987
 10
-3.858476076
 20
0.0378440382
 10
-4.2269307281
 20
-0.4134193184
 10
-4.5843425793
 20
-0.8658657572
 10
-4.929959987
 20
-1.3185437764
 10
-5.2630561125
 20
-1.7705013871
 10
-5.5829304493
 20
-2.2207881154
 10
-5.8889102968
 20
-2.6684570013
 10
-6.1803521747
 20
-3.1125665903
 10
-6.4566431761
 20
-3.5521829129
 10
-6.7172022568
 20
-3.9863814492
 10
-6.9614814569
 20
-4.414249073
 10
-7.1889670536
 20
-4.834885972
 10
-7.3991806411
 20
-5.2474075403
 10
-7.591680137
 20
-5.6509462386
 10
-7.7660607118
 20
-6.0446534187
 10
-7.9219556404
 20
-6.4277011085
 10
-8.0590370735
 20
-6.7992837525
 10
-8.1770167267
 20
-7.1586199069
 10
-8.2756464868
 20
-7.504953882
 10
-8.3547189341
 20
-7.8375573321
 10
-8.4140677778
 20
-8.155730787
 10
-8.4535682065
 20
-8.4588051231
 10
-8.4731371502
 20
-8.7461429702
 10
-8.472733455
 20
-9.0171400525
 10
-8.45235797
 20
-9.2712264588
 10
-8.412053545
 20
-9.5078678415
 10
-8.351904941
 20
-9.7265665401
 10
-8.2720386513
 20
-9.9268626278
 10
-8.1726226361
 20
-10.1083348789
 10
-8.0538659687
 20
-10.2706016544
 10
-7.9160183963
 20
-10.4133217048
 10
-7.7593698145
 20
-10.5361948875
 10
-7.5842496575
 20
-10.6389627984
 10
-7.3910262059
 20
-10.7214093149
 10
-7.1801058116
 20
-10.7833610509
 10
-6.9519320434
 20
-10.8246877206
 10
-6.7069847543
 20
-10.8453024137
 10
-6.4457790723
 20
-10.845161777
 10
-6.1688643169
 20
-10.8242661063
 10
-5.8768228442
 20
-10.7826593455
 10
-5.570268822
 20
-10.7204289943
 10
-5.249846938
 20
-10.6377059241
 10
-4.9162310445
 20
-10.5346641027
 10
-4.5701227409
 20
-10.4115202288
 10
-4.2122498983
 20
-10.2685332758
 10
-3.8433651289
 20
-10.1060039475
 10
-3.4642442031
 20
-9.9242740456
 10
-3.075684418
 20
-9.7237257508
 10
-2.6785029209
 20
-9.5047808195
 10
-2.2735349907
 20
-9.2678996961
 10
-1.8616322811
 20
-9.0135805453
 10
-1.4436610301
 20
-8.7423582042
 10
-1.0205002375
 20
-8.4548030577
 10
-0.5930398172
 20
-8.1515198387
 10
-0.1621787251
 20
-7.8331463565
 10
0.2711769314
 20
-7.5003521555
 10
0.7061157986
 20
-7.153837107
 10
0.913341869
 20
-6.9843652582
  0
LWPOLYLINE
  5
52
330
1F
100
AcDbEntity
  8
0
  6
Continuous
 62
     7
370
    15
100
AcDbPolyline
 90
       70
 70
   128
 43
0.0
 10
8.9690847516
 20
9.410394185
 10
8.8640302907
 20
9.5012722879
 10
8.698102297
 20
9.6141225043
 10
8.5138820591
 20
9.706754072
 10
8.3117569951
 20
9.7789721852
 10
8.0921521772
 20
9.8306249681
 10
7.8555294378
 20
9.8616037942
 10
7.602386398
 20
9.8718435145
 10
7.3332554216
 20
9.8613225948
 10
7.0487024954
 20
9.8300631606
 10
6.7493260384
 20
9.778130951
 10
6.435755644
 20
9.7056351803
 10
6.1086507556
 20
9.6127283082
 10
5.7686992799
 20
9.4996057194
 10
5.4166161401
 20
9.3665053123
 10
5.0531417726
 20
9.2137069992
 10
4.6790405694
 20
9.0415321173
 10
4.2950992714
 20
8.8503427531
 10
3.9021253129
 20
8.6405409808
 10
3.5009451244
 20
8.4125680166
 10
3.0924023939
 20
8.1669032915
 10
2.6773562932
 20
7.9040634419
 10
2.2566796707
 20
7.6246012243
 10
1.8312572158
 20
7.3291043521
 10
1.4019835986
 20
7.0181942596
 10
0.9697615881
 20
6.6925247957
 10
0.535500154
 20
6.3527808484
 10
0.1001125547
 20
5.9996769043
 10
-0.3354855828
 20
5.6339555466
 10
-0.770378189
 20
5.256385893
 10
-1.2036506779
 20
4.8677619782
 10
-1.6343918707
 20
4.4689010846
 10
-2.061695912
 20
4.0606420225
 10
-2.4846641749
 20
3.6438433673
 10
-2.9024071504
 20
3.219381653
 10
-3.3140463187
 20
2.7881495291
 10
-3.7187159961
 20
2.3510538834
 10
-4.1155651561
 20
1.909013935
 10
-4.5037592187
 20
1.4629593007
 10
-4.8824818058
 20
1.0138280402
 10
-5.2509364579
 20
0.5625646836
 10
-5.6083483092
 20
0.1101182448
 10
-5.9539657169
 20
-0.3425597744
 10
-6.2870618423
 20
-0.7945173851
 10
-6.6069361792
 20
-1.2448041134
 10
-6.9129160267
 20
-1.6924729993
 10
-7.2043579045
 20
-2.1365825883
 10
-7.4806489059
 20
-2.5761989109
 10
-7.7412079866
 20
-3.0103974472
 10
-7.9854871868
 20
-3.438265071
 10
-8.2129727835
 20
-3.85890197
 10
-8.423186371
 20
-4.2714235383
 10
-8.6156858668
 20
-4.6749622366
 10
-8.7900664416
 20
-5.0686694167
 10
-8.9459613703
 20
-5.4517171065
 10
-9.0830428034
 20
-5.8232997505
 10
-9.2010224565
 20
-6.1826359049
 10
-9.2996522167
 20
-6.52896988
 10
-9.3787246639
 20
-6.8615733301
 10
-9.4380735077
 20
-7.179746785
 10
-9.4775739364
 20
-7.4828211211
 10
-9.49714288
 20
-7.7701589682
 10
-9.4967391848
 20
-8.0411560505
 10
-9.4763636998
 20
-8.2952424568
 10
-9.4360592748
 20
-8.5318838395
 10
-9.3759106708
 20
-8.7505825381
 10
-9.2960443812
 20
-8.9508786258
 10
-9.196628366
 20
-9.1323508769
 10
-9.0778716986
 20
-9.2946176524
 10
-8.9690847516
 20
-9.410394185
  0
LWPOLYLINE
  5
73
330
1F
100
AcDbEntity
  8
0
  6
Continuous
 62
     7
370
    15
100
AcDbPolyline
 90
       10
 70
   128
 43
0.0
 10
-4.9525334434
 20
3.721037881
 10
-4.9389812456
 20
3.738457393
 10
-4.8939049254
 20
3.7732285339
 10
-4.8369965935
 20
3.7898906627
 10
-4.7694147394
 20
3.7881045865
 10
-4.6925351347
 20
3.7679066648
 10
-4.6079228265
 20
3.7297080689
 10
-4.5173002774
 20
3.6742864121
 10
-4.4225123011
 20
3.6027699195
 10
-4.3254885076
 20
3.5166144606
  0
LWPOLYLINE
  5
7B
330
1F
100
AcDbEntity
  8
0
  6
Continuous
 62
     7
370
    15
100
AcDbPolyline
 90
       12
 70
   128
 43
0.0
 10
4.8572588709
 20
-1.2015072838
 10
4.8061303477
 20
-1.127544998
 10
4.7354661026
 20
-1.0738652702
 10
4.6460622064
 20
-1.0410728314
 10
4.5389258425
 20
-1.0295371063
 10
4.4152639597
 20
-1.0393880511
 10
4.2764696762
 20
-1.0705146895
 10
4.1241065844
 20
-1.1225663631
 10
3.959891137
 20
-1.1949566817
 10
3.7856733098
 20
-1.2868701292
 10
3.6034157606
 20
-1.3972712509
 10
3.4284998631
 20
-1.5154487301
  0
LWPOLYLINE
  5
83
330
1F
100
AcDbEntity
  8
0
  6
Continuous
 62
     7
370
    15
100
AcDbPolyline
 90
       10
 70
   128
 43
0.0
 10
-1.2255171874
 20
6.1193017137
 10
-1.322540981
 20
6.2054571725
 10
-1.4173289572
 20
6.2769736651
 10
-1.5079515063
 20
6.3323953219
 10
-1.5925638145
 20
6.3705939178
 10
-1.6694434192
 20
6.3907918396
 10
-1.7370252733
 20
6.3925779157
 10
-1.7939336052
 20
6.3759157869
 10
-1.8390099254
 20
6.3411446461
 10
-1.8525621233
 20
6.323725134
  0
LINE
  5
88
330
1F
100
AcDbEntity
  8
0
  6
Continuous
 62
     7
370
    15
100
AcDbLine
 10
-8.9690847516
 20
-9.410394185
 30
0.0
 11
-7.9450790218
 21
-10.386378187
 31
0.0
  0
LINE
  5
89
330
1F
100
AcDbEntity
  8
0
  6
Continuous
 62
     7
370
    15
100
AcDbLine
 10
9.9930904815
 20
8.434410183
 30
0.0
 11
8.9690847516
 21
9.410394185
 31
0.0
  0
LINE
  5
8A
330
1F
100
AcDbEntity
  8
0
  6
Continuous
 62
     7
370
    15
100
AcDbLine
 10
-4.9525334434
 20
3.721037881
 30
0.0
 11
-6.347116541
 21
1.6705171837
 31
0.0
  0
LINE
  5
8B
330
1F
100
AcDbEntity
  8
0
  6
Continuous
 62
     7
370
    15
100
AcDbLine
 10
-0.7008182609
 20
-2.7856751914
 30
0.0
 11
1.2490336651
 21
-4.6440869469
 31
0.0
  0
LINE
  5
8C
330
1F
100
AcDbEntity
  8
0
  6
Continuous
 62
     7
370
    15
100
AcDbLine
 10
-3.2868338775
 20
4.138562172
 30
0.0
 11
-4.8560284953
 21
3.7866474377
 31
0.0
  0
LINE
  5
8D
330
1F
100
AcDbEntity
  8
0
  6
Continuous
 62
     7
370
    15
100
AcDbLine
 10
4.7968411802
 20
-1.1182608166
 30
0.0
 11
2.7488297205
 21
0.8337071874
 31
0.0
  0
LINE
  5
8E
330
1F
100
AcDbEntity
  8
0
  6
Continuous
 62
     7
370
    15
100
AcDbLine
 10
-1.8525621233
 20
6.323725134
 30
0.0
 11
-3.3480547021
 21
4.124832511
 31
0.0
  0
LINE
  5
8F
330
1F
100
AcDbEntity
  8
0
  6
Continuous
 62
     7
370
    15
100
AcDbLine
 10
-0.0608937131
 20
6.769499772
 30
0.0
 11
-1.7560571751
 21
6.3893346907
 31
0.0
  0
LINE
  5
90
330
1F
100
AcDbEntity
  8
0
  6
Continuous
 62
     7
370
    15
100
AcDbLine
 10
-6.0244711348
 20
0.189572361
 30
0.0
 11
-6.3086986256
 21
-0.2283406007
 31
0.0
  0
LINE
  5
91
330
1F
100
AcDbEntity
  8
0
  6
Continuous
 62
     7
370
    15
100
AcDbLine
 10
1.3667028798
 20
0.4496583122
 30
0.0
 11
0.6360326325
 21
-0.1638009564
 31
0.0
  0
LINE
  5
92
330
1F
100
AcDbEntity
  8
0
  6
Continuous
 62
     7
370
    15
100
AcDbLine
 10
0.6360326325
 20
-0.1638009564
 30
0.0
 11
0.6364900124
 21
-0.1864075833
 31
0.0
  0
LINE
  5
93
330
1F
100
AcDbEntity
  8
0
  6
Continuous
 62
     7
370
    15
100
AcDbLine
 10
9.7688581405
 20
-3.1968827677
 30
0.0
 11
9.77791333
 21
-3.6444478397
 31
0.0
  0
LINE
  5
94
330
1F
100
AcDbEntity
  8
0
  6
Continuous
 62
     7
370
    15
100
AcDbLine
 10
6.8552323407
 20
-6.0982849143
 30
0.0
 11
9.77791333
 21
-3.6444478397
 31
0.0
  0
LINE
  5
95
330
1F
100
AcDbEntity
  8
0
  6
Continuous
 62
     7
370
    15
100
AcDbLine
 10
6.8914530987
 20
-7.8885452022
 30
0.0
 11
6.8552323407
 21
-6.0982849143
 31
0.0
  0
LINE
  5
96
330
1F
100
AcDbEntity
  8
0
  6
Continuous
 62
     7
370
    15
100
AcDbLine
 10
6.8914530987
 20
-7.8885452022
 30
0.0
 11
6.1607828514
 21
-8.5020044708
 31
0.0
  0
LINE
  5
97
330
1F
100
AcDbEntity
  8
0
  6
Continuous
 62
     7
370
    15
100
AcDbLine
 10
6.1245620934
 20
-6.711744183
 30
0.0
 11
6.1607828514
 21
-8.5020044708
 31
0.0
  0
LINE
  5
98
330
1F
100
AcDbEntity
  8
0
  6
Continuous
 62
     7
370
    15
100
AcDbLine
 10
3.2018811041
 20
-9.1655812575
 30
0.0
 11
6.1245620934
 21
-6.711744183
 31
0.0
  0
LINE
  5
99
330
1F
100
AcDbEntity
  8
0
  6
Continuous
 62
     7
370
    15
100
AcDbLine
 10
3.2018811041
 20
-9.1655812575
 30
0.0
 11
3.1928259146
 21
-8.7180161856
 31
0.0
  0
LINE
  5
9A
330
1F
100
AcDbEntity
  8
0
  6
Continuous
 62
     7
370
    15
100
AcDbLine
 10
6.1155069039
 20
-6.264179111
 30
0.0
 11
3.1928259146
 21
-8.7180161856
 31
0.0
  0
LINE
  5
9B
330
1F
100
AcDbEntity
  8
0
  6
Continuous
 62
     7
370
    15
100
AcDbLine
 10
6.079286146
 20
-4.4739188231
 30
0.0
 11
6.1155069039
 21
-6.264179111
 31
0.0
  0
LINE
  5
9C
330
1F
100
AcDbEntity
  8
0
  6
Continuous
 62
     7
370
    15
100
AcDbLine
 10
6.079286146
 20
-4.4739188231
 30
0.0
 11
6.8099563933
 21
-3.8604595545
 31
0.0
  0
LINE
  5
9D
330
1F
100
AcDbEntity
  8
0
  6
Continuous
 62
     7
370
    15
100
AcDbLine
 10
6.8461771512
 20
-5.6507198423
 30
0.0
 11
6.8099563933
 21
-3.8604595545
 31
0.0
  0
LINE
  5
9E
330
1F
100
AcDbEntity
  8
0
  6
Continuous
 62
     7
370
    15
100
AcDbLine
 10
9.7688581405
 20
-3.1968827677
 30
0.0
 11
6.8461771512
 21
-5.6507198423
 31
0.0
  0
LINE
  5
9F
330
1F
100
AcDbEntity
  8
0
  6
Continuous
 62
     7
370
    15
100
AcDbLine
 10
3.708049822
 20
-3.0917529624
 30
0.0
 11
0.6360326325
 21
-0.1638009564
 31
0.0
  0
LINE
  5
A0
330
1F
100
AcDbEntity
  8
0
  6
Continuous
 62
     7
370
    15
100
AcDbLine
 10
3.689939443
 20
-2.1966228185
 30
0.0
 11
3.708049822
 21
-3.0917529624
 31
0.0
  0
LINE
  5
A1
330
1F
100
AcDbEntity
  8
0
  6
Continuous
 62
     7
370
    15
100
AcDbLine
 10
3.689939443
 20
-2.1966228185
 30
0.0
 11
6.079286146
 21
-4.4739188231
 31
0.0
  0
LINE
  5
A2
330
1F
100
AcDbEntity
  8
0
  6
Continuous
 62
     7
370
    15
100
AcDbLine
 10
2.7021544711
 20
-3.0108991043
 30
0.0
 11
6.1155069039
 21
-6.264179111
 31
0.0
  0
LINE
  5
A3
330
1F
100
AcDbEntity
  8
0
  6
Continuous
 62
     7
370
    15
100
AcDbLine
 10
2.7021544711
 20
-3.0108991043
 30
0.0
 11
2.6845014721
 21
-2.1383755873
 31
0.0
  0
LINE
  5
A4
330
1F
100
AcDbEntity
  8
0
  6
Continuous
 62
     7
370
    15
100
AcDbLine
 10
0.6364900124
 20
-0.1864075833
 30
0.0
 11
2.6845014721
 21
-2.1383755873
 31
0.0
  0
LINE
  5
A5
330
1F
100
AcDbEntity
  8
0
  6
Continuous
 62
     7
370
    15
100
AcDbLine
 10
4.4206096903
 20
-1.5831635498
 30
0.0
 11
3.689939443
 21
-2.1966228185
 31
0.0
  0
LINE
  5
A6
330
1F
100
AcDbEntity
  8
0
  6
Continuous
 62
     7
370
    15
100
AcDbLine
 10
6.8099563933
 20
-3.8604595545
 30
0.0
 11
4.4206096903
 21
-1.5831635498
 31
0.0
  0
LINE
  5
A7
330
1F
100
AcDbEntity
  8
0
  6
Continuous
 62
     7
370
    15
100
AcDbLine
 10
-6.3665241108
 20
0.5155844356
 30
0.0
 11
-5.7493383721
 21
-0.0726577877
 31
0.0
  0
LINE
  5
A8
330
1F
100
AcDbEntity
  8
0
  6
Continuous
 62
     7
370
    15
100
AcDbLine
 10
-4.3254885076
 20
3.5166144606
 30
0.0
 11
-6.3665241108
 21
0.5155844356
 31
0.0
  0
LINE
  5
A9
330
1F
100
AcDbEntity
  8
0
  6
Continuous
 62
     7
370
    15
100
AcDbLine
 10
-4.3254885076
 20
3.5166144606
 30
0.0
 11
-3.4305665227
 21
2.6636606979
 31
0.0
  0
LINE
  5
AA
330
1F
100
AcDbEntity
  8
0
  6
Continuous
 62
     7
370
    15
100
AcDbLine
 10
-2.7562938898
 20
3.868529195
 30
0.0
 11
-4.3254885076
 21
3.5166144606
 31
0.0
  0
LINE
  5
AB
330
1F
100
AcDbEntity
  8
0
  6
Continuous
 62
     7
370
    15
100
AcDbLine
 10
-2.7562938898
 20
3.868529195
 30
0.0
 11
-2.5021660311
 21
3.6263189052
 31
0.0
  0
LINE
  5
AC
330
1F
100
AcDbEntity
  8
0
  6
Continuous
 62
     7
370
    15
100
AcDbLine
 10
0.8125344011
 20
-6.8882852529
 30
0.0
 11
3.2018811041
 21
-9.1655812575
 31
0.0
  0
LINE
  5
AD
330
1F
100
AcDbEntity
  8
0
  6
Continuous
 62
     7
370
    15
100
AcDbLine
 10
0.8034792117
 20
-6.4407201809
 30
0.0
 11
0.8125344011
 21
-6.8882852529
 31
0.0
  0
LINE
  5
AE
330
1F
100
AcDbEntity
  8
0
  6
Continuous
 62
     7
370
    15
100
AcDbLine
 10
3.1928259146
 20
-8.7180161856
 30
0.0
 11
0.8034792117
 21
-6.4407201809
 31
0.0
  0
LINE
  5
AF
330
1F
100
AcDbEntity
  8
0
  6
Continuous
 62
     7
370
    15
100
AcDbLine
 10
0.8034792117
 20
-6.4407201809
 30
0.0
 11
2.2648197063
 21
-5.2138016436
 31
0.0
  0
LINE
  5
B0
330
1F
100
AcDbEntity
  8
0
  6
Continuous
 62
     7
370
    15
100
AcDbLine
 10
2.2648197063
 20
-5.2138016436
 30
0.0
 11
1.2408139765
 21
-4.2378176416
 31
0.0
  0
LINE
  5
B1
330
1F
100
AcDbEntity
  8
0
  6
Continuous
 62
     7
370
    15
100
AcDbLine
 10
2.7021544711
 20
-3.0108991043
 30
0.0
 11
1.2408139765
 21
-4.2378176416
 31
0.0
  0
LINE
  5
B2
330
1F
100
AcDbEntity
  8
0
  6
Continuous
 62
     7
370
    15
100
AcDbLine
 10
-1.2255171874
 20
6.1193017137
 30
0.0
 11
-2.7562938898
 21
3.868529195
 31
0.0
  0
LINE
  5
B3
330
1F
100
AcDbEntity
  8
0
  6
Continuous
 62
     7
370
    15
100
AcDbLine
 10
-1.2255171874
 20
6.1193017137
 30
0.0
 11
-0.5356150545
 21
5.461753201
 31
0.0
  0
LINE
  5
B4
330
1F
100
AcDbEntity
  8
0
  6
Continuous
 62
     7
370
    15
100
AcDbLine
 10
3.9309154994
 20
-1.9943031047
 30
0.0
 11
1.3667028798
 21
0.4496583122
 31
0.0
  0
LINE
  5
B5
330
1F
100
AcDbEntity
  8
0
  6
Continuous
 62
     7
370
    15
100
AcDbLine
 10
4.8941652131
 20
-1.1705212984
 30
0.0
 11
3.9225189094
 21
-1.9863002808
 31
0.0
  0
LINE
  5
B6
330
1F
100
AcDbEntity
  8
0
  6
Continuous
 62
     7
370
    15
100
AcDbLine
 10
5.9181709429
 20
-2.1465053004
 30
0.0
 11
4.8941652131
 21
-1.1705212984
 31
0.0
  0
LINE
  5
B7
330
1F
100
AcDbEntity
  8
0
  6
Continuous
 62
     7
370
    15
100
AcDbLine
 10
7.3795114376
 20
-0.9195867631
 30
0.0
 11
5.9181709429
 21
-2.1465053004
 31
0.0
  0
LINE
  5
B8
330
1F
100
AcDbEntity
  8
0
  6
Continuous
 62
     7
370
    15
100
AcDbLine
 10
7.3795114376
 20
-0.9195867631
 30
0.0
 11
9.7688581405
 21
-3.1968827677
 31
0.0
  0
LINE
  5
B9
330
1F
100
AcDbEntity
  8
0
  6
Continuous
 62
     7
370
    15
100
AcDbLine
 10
1.2408139765
 20
-4.2378176416
 30
0.0
 11
1.249869166
 21
-4.6853827136
 31
0.0
  0
LINE
  5
BA
330
1F
100
AcDbEntity
  8
0
  6
Continuous
 62
     7
370
    15
100
AcDbLine
 10
2.0199726108
 20
-5.4193714211
 30
0.0
 11
1.249869166
 21
-4.6853827136
 31
0.0
  0
LINE
  5
BB
330
1F
100
AcDbEntity
  8
0
  6
Continuous
 62
     7
370
    15
100
AcDbLine
 10
6.1607828514
 20
-8.5020044708
 30
0.0
 11
5.1451737115
 21
-7.5340232927
 31
0.0
  0
LINE
  5
BC
330
1F
100
AcDbEntity
  8
0
  6
Continuous
 62
     7
370
    15
100
AcDbLine
 10
0.822291824
 20
6.5785526925
 30
0.0
 11
-1.2255171874
 21
6.1193017137
 31
0.0
  0
ARC
  5
BD
330
1F
100
AcDbEntity
  8
0
  6
Continuous
 62
     7
370
    15
100
AcDbCircle
 10
-5.6765261164
 20
1.0816190987
 30
0.0
 40
0.8924642693364406
100
AcDbArc
 50
138.7110929828
 51
219.3634837502
  0
ARC
  5
BE
330
1F
100
AcDbEntity
  8
0
  6
Continuous
 62
     7
370
    15
100
AcDbCircle
 10
5.9494912088
 20
-5.8715454648
 30
0.0
 40
4.959507567809882
100
AcDbArc
 50
131.1725889189
 51
160.3872553727
  0
ARC
  5
BF
330
1F
100
AcDbEntity
  8
0
  6
Continuous
 62
     7
370
    15
100
AcDbCircle
 10
-3.2815906142
 20
3.4926651979
 30
0.0
 40
0.6459182556808458
100
AcDbArc
 50
35.5847439682
 51
90.465105537
  0
ARC
  5
C0
330
1F
100
AcDbEntity
  8
0
  6
Continuous
 62
     7
370
    15
100
AcDbCircle
 10
0.2229504264
 20
5.7445200312
 30
0.0
 40
1.063555811719815
100
AcDbArc
 50
53.7184311338
 51
105.4788248586
  0
ARC
  5
C1
330
1F
100
AcDbEntity
  8
0
  6
Continuous
 62
     7
370
    15
100
AcDbCircle
 10
-5.5009187467
 20
-0.8648771903
 30
0.0
 40
1.028439187642557
100
AcDbArc
 50
141.7616255432
 51
193.0169649321
  0
MTEXT
  5
C3
330
1F
100
AcDbEntity
  8
0
  6
Continuous
 62
     7
100
AcDbMText
 10
-9.49714288
 20
-11.8648688054
 30
0.0
 40
4.83362
 41
0.0
 71
     1
 72
     1
  1
SolidWorks Educational Edition.
  7
SLDTEXTSTYLE0
 73
     1
 44
1.0
  0
MTEXT
  5
C4
330
1F
100
AcDbEntity
  8
0
  6
Continuous
 62
     7
100
AcDbMText
 10
-9.49714288
 20
-19.1152988054
 30
0.0
 40
4.83362
 41
0.0
 71
     1
 72
     1
  1
For Instructional Use Only.
  7
SLDTEXTSTYLE0
 73
     1
 44
1.0
  0
ENDSEC
  0
SECTION
  2
OBJECTS
  0
DICTIONARY
  5
C
330
0
100
AcDbDictionary
281
     1
  3
ACAD_GROUP
350
D
  3
ACAD_LAYOUT
350
1A
  3
ACAD_MLINESTYLE
350
17
  3
ACAD_PLOTSETTINGS
350
19
  3
ACAD_PLOTSTYLENAME
350
E
  0
DICTIONARY
  5
D
102
{ACAD_REACTORS
330
C
102
}
330
C
100
AcDbDictionary
281
     1
  0
DICTIONARY
  5
1A
102
{ACAD_REACTORS
330
C
102
}
330
C
100
AcDbDictionary
281
     1
  3
Layout1
350
1E
  3
Layout2
350
26
  3
Model
350
22
  0
DICTIONARY
  5
17
102
{ACAD_REACTORS
330
C
102
}
330
C
100
AcDbDictionary
281
     1
  3
Standard
350
18
  0
DICTIONARY
  5
19
102
{ACAD_REACTORS
330
C
102
}
330
C
100
AcDbDictionary
281
     1
  0
ACDBDICTIONARYWDFLT
  5
E
102
{ACAD_REACTORS
330
C
102
}
330
C
100
AcDbDictionary
281
     1
  3
Normal
350
F
100
AcDbDictionaryWithDefault
340
F
  0
LAYOUT
  5
1E
102
{ACAD_REACTORS
330
1A
102
}
330
1A
100
AcDbPlotSettings
  1

  2
none_device
  4

  6

 40
0.0
 41
0.0
 42
0.0
 43
0.0
 44
0.0
 45
0.0
 46
0.0
 47
0.0
 48
0.0
 49
0.0
140
0.0
141
0.0
142
1.0
143
1.0
 70
   688
 72
     0
 73
     0
 74
     5
  7

 75
    16
147
1.0
148
0.0
149
0.0
100
AcDbLayout
  1
Layout1
 70
     1
 71
     1
 10
0.0
 20
0.0
 11
420.0
 21
297.0
 12
0.0
 22
0.0
 32
0.0
 14
1.0000000000E+20
 24
1.0000000000E+20
 34
1.0000000000E+20
 15
-1.0000000000E+20
 25
-1.0000000000E+20
 35
-1.0000000000E+20
146
0.0
 13
0.0
 23
0.0
 33
0.0
 16
1.0
 26
0.0
 36
0.0
 17
0.0
 27
1.0
 37
0.0
 76
     0
330
1B
  0
LAYOUT
  5
26
102
{ACAD_REACTORS
330
1A
102
}
330
1A
100
AcDbPlotSettings
  1

  2
none_device
  4

  6

 40
0.0
 41
0.0
 42
0.0
 43
0.0
 44
0.0
 45
0.0
 46
0.0
 47
0.0
 48
0.0
 49
0.0
140
0.0
141
0.0
142
1.0
143
1.0
 70
   688
 72
     0
 73
     0
 74
     5
  7

 75
    16
147
1.0
148
0.0
149
0.0
100
AcDbLayout
  1
Layout2
 70
     1
 71
     2
 10
0.0
 20
0.0
 11
0.0
 21
0.0
 12
0.0
 22
0.0
 32
0.0
 14
0.0
 24
0.0
 34
0.0
 15
0.0
 25
0.0
 35
0.0
146
0.0
 13
0.0
 23
0.0
 33
0.0
 16
1.0
 26
0.0
 36
0.0
 17
0.0
 27
1.0
 37
0.0
 76
     0
330
23
  0
LAYOUT
  5
22
102
{ACAD_REACTORS
330
1A
102
}
330
1A
100
AcDbPlotSettings
  1

  2
none_device
  4
ANSI_A_(11.00_x_8.50_Inches)
  6

 40
6.35
 41
19.05
 42
6.35000508
 43
19.05000254
 44
279.4
 45
215.9
 46
128.0557670918
 47
93.9216382764
 48
0.0
 49
0.0
140
0.0
141
0.0
142
0.4061852935
143
1.0
 70
  1696
 72
     0
 73
     0
 74
     0
  7

 75
     0
147
0.0179189148
148
0.0
149
0.0
100
AcDbLayout
  1
Model
 70
     1
 71
     0
 10
0.0
 20
0.0
 11
420.0
 21
297.0
 12
0.0
 22
0.0
 32
0.0
 14
-9.49714288
 24
-10.8453024137
 34
0.0
 15
10.5234442739
 25
9.8718435145
 35
0.0
146
0.0
 13
0.0
 23
0.0
 33
0.0
 16
1.0
 26
0.0
 36
0.0
 17
0.0
 27
1.0
 37
0.0
 76
     0
330
1F
331
29
  0
MLINESTYLE
  5
18
102
{ACAD_REACTORS
330
17
102
}
330
17
100
AcDbMlineStyle
  2
Standard
 70
     0
  3

 62
   256
 51
90.0
 52
90.0
 71
     2
 49
0.5
 62
   256
  6
BYLAYER
 49
-0.5
 62
   256
  6
BYLAYER
  0
ACDBPLACEHOLDER
  5
F
102
{ACAD_REACTORS
330
E
102
}
330
E
  0
ENDSEC
  0
EOF
