  0
SECTION
  2
HEADER
  9
$ACADVER
  1
AC1015
  9
$ACADMAINTVER
 70
     6
  9
$DWGCODEPAGE
  3
ANSI_1252
  9
$INSBASE
 10
0.0
 20
0.0
 30
0.0
  9
$EXTMIN
 10
-32.0673917124
 20
-27.5676028994
 30
0.0
  9
$EXTMAX
 10
0.9408641237
 20
0.8706966393
 30
0.0
  9
$LIMMIN
 10
0.0
 20
0.0
  9
$LIMMAX
 10
420.0
 20
297.0
  9
$ORTHOMODE
 70
     0
  9
$REGENMODE
 70
     1
  9
$FILLMODE
 70
     1
  9
$QTEXTMODE
 70
     0
  9
$MIRRTEXT
 70
     1
  9
$LTSCALE
 40
1.0
  9
$ATTMODE
 70
     1
  9
$TEXTSIZE
 40
2.5
  9
$TRACEWID
 40
1.0
  9
$TEXTSTYLE
  7
Standard
  9
$CLAYER
  8
0
  9
$CELTYPE
  6
ByLayer
  9
$CECOLOR
 62
   256
  9
$CELTSCALE
 40
1.0
  9
$DISPSILH
 70
     0
  9
$DIMSCALE
 40
1.0
  9
$DIMASZ
 40
6.0
  9
$DIMEXO
 40
1.0
  9
$DIMDLI
 40
3.75
  9
$DIMRND
 40
0.0
  9
$DIMDLE
 40
0.0
  9
$DIMEXE
 40
1.0
  9
$DIMTP
 40
0.0
  9
$DIMTM
 40
0.0
  9
$DIMTXT
 40
2.5
  9
$DIMCEN
 40
2.5
  9
$DIMTSZ
 40
0.0
  9
$DIMTOL
 70
     0
  9
$DIMLIM
 70
     0
  9
$DIMTIH
 70
     1
  9
$DIMTOH
 70
     1
  9
$DIMSE1
 70
     0
  9
$DIMSE2
 70
     0
  9
$DIMTAD
 70
     1
  9
$DIMZIN
 70
     0
  9
$DIMBLK
  1

  9
$DIMASO
 70
     1
  9
$DIMSHO
 70
     1
  9
$DIMPOST
  1

  9
$DIMAPOST
  1

  9
$DIMALT
 70
     0
  9
$DIMALTD
 70
     3
  9
$DIMALTF
 40
0.0393700787
  9
$DIMLFAC
 40
1.0
  9
$DIMTOFL
 70
     1
  9
$DIMTVP
 40
0.0
  9
$DIMTIX
 70
     0
  9
$DIMSOXD
 70
     0
  9
$DIMSAH
 70
     0
  9
$DIMBLK1
  1

  9
$DIMBLK2
  1

  9
$DIMSTYLE
  2
ISO-25
  9
$DIMCLRD
 70
     0
  9
$DIMCLRE
 70
     0
  9
$DIMCLRT
 70
     0
  9
$DIMTFAC
 40
1.0
  9
$DIMGAP
 40
1.524
  9
$DIMJUST
 70
     0
  9
$DIMSD1
 70
     0
  9
$DIMSD2
 70
     0
  9
$DIMTOLJ
 70
     0
  9
$DIMTZIN
 70
     0
  9
$DIMALTZ
 70
     0
  9
$DIMALTTZ
 70
     0
  9
$DIMUPT
 70
     0
  9
$DIMDEC
 70
     2
  9
$DIMTDEC
 70
     2
  9
$DIMALTU
 70
     2
  9
$DIMALTTD
 70
     3
  9
$DIMTXSTY
  7
Standard
  9
$DIMAUNIT
 70
     0
  9
$DIMADEC
 70
     2
  9
$DIMALTRND
 40
0.0
  9
$DIMAZIN
 70
     0
  9
$DIMDSEP
 70
    44
  9
$DIMATFIT
 70
     3
  9
$DIMFRAC
 70
     0
  9
$DIMLDRBLK
  1

  9
$DIMLUNIT
 70
     2
  9
$DIMLWD
 70
    -2
  9
$DIMLWE
 70
    -2
  9
$DIMTMOVE
 70
     0
  9
$LUNITS
 70
     2
  9
$LUPREC
 70
     2
  9
$SKETCHINC
 40
1.0
  9
$FILLETRAD
 40
10.0
  9
$AUNITS
 70
     0
  9
$AUPREC
 70
     2
  9
$MENU
  1
.
  9
$ELEVATION
 40
0.0
  9
$PELEVATION
 40
0.0
  9
$THICKNESS
 40
0.0
  9
$LIMCHECK
 70
     0
  9
$CHAMFERA
 40
10.0
  9
$CHAMFERB
 40
10.0
  9
$CHAMFERC
 40
20.0
  9
$CHAMFERD
 40
0.0
  9
$SKPOLY
 70
     0
  9
$TDCREATE
 40
2456483.972483044
  9
$TDUCREATE
 40
2456483.472483044
  9
$TDUPDATE
 40
2456483.972507778
  9
$TDUUPDATE
 40
2456483.472507778
  9
$TDINDWG
 40
0.0000000116
  9
$TDUSRTIMER
 40
0.0000000116
  9
$USRTIMER
 70
     1
  9
$ANGBASE
 50
0.0
  9
$ANGDIR
 70
     0
  9
$PDMODE
 70
     0
  9
$PDSIZE
 40
-1.0
  9
$PLINEWID
 40
0.0
  9
$SPLFRAME
 70
     0
  9
$SPLINETYPE
 70
     6
  9
$SPLINESEGS
 70
     8
  9
$HANDSEED
  5
E8
  9
$SURFTAB1
 70
     6
  9
$SURFTAB2
 70
     6
  9
$SURFTYPE
 70
     6
  9
$SURFU
 70
     6
  9
$SURFV
 70
     6
  9
$UCSBASE
  2

  9
$UCSNAME
  2

  9
$UCSORG
 10
0.0
 20
0.0
 30
0.0
  9
$UCSXDIR
 10
1.0
 20
0.0
 30
0.0
  9
$UCSYDIR
 10
0.0
 20
1.0
 30
0.0
  9
$UCSORTHOREF
  2

  9
$UCSORTHOVIEW
 70
     0
  9
$UCSORGTOP
 10
0.0
 20
0.0
 30
0.0
  9
$UCSORGBOTTOM
 10
0.0
 20
0.0
 30
0.0
  9
$UCSORGLEFT
 10
0.0
 20
0.0
 30
0.0
  9
$UCSORGRIGHT
 10
0.0
 20
0.0
 30
0.0
  9
$UCSORGFRONT
 10
0.0
 20
0.0
 30
0.0
  9
$UCSORGBACK
 10
0.0
 20
0.0
 30
0.0
  9
$PUCSBASE
  2

  9
$PUCSNAME
  2

  9
$PUCSORG
 10
0.0
 20
0.0
 30
0.0
  9
$PUCSXDIR
 10
1.0
 20
0.0
 30
0.0
  9
$PUCSYDIR
 10
0.0
 20
1.0
 30
0.0
  9
$PUCSORTHOREF
  2

  9
$PUCSORTHOVIEW
 70
     0
  9
$PUCSORGTOP
 10
0.0
 20
0.0
 30
0.0
  9
$PUCSORGBOTTOM
 10
0.0
 20
0.0
 30
0.0
  9
$PUCSORGLEFT
 10
0.0
 20
0.0
 30
0.0
  9
$PUCSORGRIGHT
 10
0.0
 20
0.0
 30
0.0
  9
$PUCSORGFRONT
 10
0.0
 20
0.0
 30
0.0
  9
$PUCSORGBACK
 10
0.0
 20
0.0
 30
0.0
  9
$USERI1
 70
     0
  9
$USERI2
 70
     0
  9
$USERI3
 70
     0
  9
$USERI4
 70
     0
  9
$USERI5
 70
     0
  9
$USERR1
 40
0.0
  9
$USERR2
 40
0.0
  9
$USERR3
 40
0.0
  9
$USERR4
 40
0.0
  9
$USERR5
 40
0.0
  9
$WORLDVIEW
 70
     1
  9
$SHADEDGE
 70
     3
  9
$SHADEDIF
 70
    70
  9
$TILEMODE
 70
     1
  9
$MAXACTVP
 70
    64
  9
$PINSBASE
 10
0.0
 20
0.0
 30
0.0
  9
$PLIMCHECK
 70
     0
  9
$PEXTMIN
 10
1.0000000000E+20
 20
1.0000000000E+20
 30
1.0000000000E+20
  9
$PEXTMAX
 10
-1.0000000000E+20
 20
-1.0000000000E+20
 30
-1.0000000000E+20
  9
$PLIMMIN
 10
0.0
 20
0.0
  9
$PLIMMAX
 10
420.0
 20
297.0
  9
$UNITMODE
 70
     0
  9
$VISRETAIN
 70
     1
  9
$PLINEGEN
 70
     0
  9
$PSLTSCALE
 70
     1
  9
$TREEDEPTH
 70
  3020
  9
$CMLSTYLE
  2
Standard
  9
$CMLJUST
 70
     0
  9
$CMLSCALE
 40
20.0
  9
$PROXYGRAPHICS
 70
     1
  9
$MEASUREMENT
 70
     1
  9
$CELWEIGHT
370
    -1
  9
$ENDCAPS
280
     0
  9
$JOINSTYLE
280
     0
  9
$LWDISPLAY
290
     1
  9
$INSUNITS
 70
     4
  9
$HYPERLINKBASE
  1

  9
$STYLESHEET
  1

  9
$XEDIT
290
     1
  9
$CEPSNTYPE
380
     0
  9
$PSTYLEMODE
290
     1
  9
$FINGERPRINTGUID
  2
{772AE446-2768-443D-B1F1-A4653095A252}
  9
$VERSIONGUID
  2
{FAEB1C32-E019-11D5-929B-00C0DF256EC4}
  9
$EXTNAMES
290
     1
  9
$PSVPSCALE
 40
0.0
  9
$OLESTARTUP
290
     0
  0
ENDSEC
  0
SECTION
  2
CLASSES
  0
CLASS
  1
ACDBDICTIONARYWDFLT
  2
AcDbDictionaryWithDefault
  3
ObjectDBX Classes
 90
        0
280
     0
281
     0
  0
CLASS
  1
VISUALSTYLE
  2
AcDbVisualStyle
  3
ObjectDBX Classes
 90
     4095
280
     0
281
     0
  0
CLASS
  1
MATERIAL
  2
AcDbMaterial
  3
ObjectDBX Classes
 90
     1153
280
     0
281
     0
  0
CLASS
  1
ACDBPLACEHOLDER
  2
AcDbPlaceHolder
  3
ObjectDBX Classes
 90
        0
280
     0
281
     0
  0
CLASS
  1
LAYOUT
  2
AcDbLayout
  3
ObjectDBX Classes
 90
        0
280
     0
281
     0
  0
ENDSEC
  0
SECTION
  2
TABLES
  0
TABLE
  2
VPORT
  5
8
330
0
100
AcDbSymbolTable
 70
     1
  0
VPORT
  5
29
330
8
100
AcDbSymbolTableRecord
100
AcDbViewportTableRecord
  2
*Active
 70
     0
 10
0.0
 20
0.0
 11
1.0
 21
1.0
 12
-15.5632637944
 22
-13.34845313
 13
0.0
 23
0.0
 14
10.0
 24
10.0
 15
10.0
 25
10.0
 16
0.0
 26
0.0
 36
1.0
 17
0.0
 27
0.0
 37
0.0
 40
29.0070655294
 41
1.1606972418
 42
50.0
 43
0.0
 44
0.0
 50
0.0
 51
0.0
 71
     0
 72
   100
 73
     1
 74
     3
 75
     0
 76
     0
 77
     0
 78
     0
281
     0
 65
     1
110
0.0
120
0.0
130
0.0
111
1.0
121
0.0
131
0.0
112
0.0
122
1.0
132
0.0
 79
     0
146
0.0
  0
ENDTAB
  0
TABLE
  2
LTYPE
  5
5
330
0
100
AcDbSymbolTable
 70
     6
  0
LTYPE
  5
14
330
5
100
AcDbSymbolTableRecord
100
AcDbLinetypeTableRecord
  2
ByBlock
 70
     0
  3

 72
    65
 73
     0
 40
0.0
  0
LTYPE
  5
15
330
5
100
AcDbSymbolTableRecord
100
AcDbLinetypeTableRecord
  2
ByLayer
 70
     0
  3

 72
    65
 73
     0
 40
0.0
  0
LTYPE
  5
16
330
5
100
AcDbSymbolTableRecord
100
AcDbLinetypeTableRecord
  2
Continuous
 70
     0
  3
Solid line
 72
    65
 73
     0
 40
0.0
  0
LTYPE
  5
3F
330
5
100
AcDbSymbolTableRecord
100
AcDbLinetypeTableRecord
  2
HIDDEN
 70
     0
  3
Hidden __ __ __ __ __ __ __ __ __ __ __ __ __ __
 72
    65
 73
     2
 40
1.905
 49
1.27
 74
     0
 49
-0.635
 74
     0
  0
LTYPE
  5
40
330
5
100
AcDbSymbolTableRecord
100
AcDbLinetypeTableRecord
  2
PHANTOM
 70
     0
  3
Phantom ______  __  __  ______  __  __  ______
 72
    65
 73
     6
 40
12.7
 49
6.35
 74
     0
 49
-1.27
 74
     0
 49
1.27
 74
     0
 49
-1.27
 74
     0
 49
1.27
 74
     0
 49
-1.27
 74
     0
  0
LTYPE
  5
41
330
5
100
AcDbSymbolTableRecord
100
AcDbLinetypeTableRecord
  2
CENTER
 70
     0
  3
Center ____ _ ____ _ ____ _ ____ _ ____ _ ____
 72
    65
 73
     4
 40
10.16
 49
6.35
 74
     0
 49
-1.27
 74
     0
 49
1.27
 74
     0
 49
-1.27
 74
     0
  0
LTYPE
  5
42
330
5
100
AcDbSymbolTableRecord
100
AcDbLinetypeTableRecord
  2
CENTERX2
 70
     0
  3
Center (2x) ________  __  ________  __  _____
 72
    65
 73
     4
 40
20.32
 49
12.7
 74
     0
 49
-2.54
 74
     0
 49
2.54
 74
     0
 49
-2.54
 74
     0
  0
LTYPE
  5
43
330
5
100
AcDbSymbolTableRecord
100
AcDbLinetypeTableRecord
  2
DOT2
 70
     0
  3
Dot (.5x) ........................................
 72
    65
 73
     2
 40
0.635
 49
0.0
 74
     0
 49
-0.635
 74
     0
  0
ENDTAB
  0
TABLE
  2
LAYER
  5
2
330
0
100
AcDbSymbolTable
 70
     1
  0
LAYER
  5
10
330
2
100
AcDbSymbolTableRecord
100
AcDbLayerTableRecord
  2
0
 70
     0
 62
     7
  6
Continuous
370
    -3
390
F
  0
ENDTAB
  0
TABLE
  2
STYLE
  5
3
330
0
100
AcDbSymbolTable
 70
     2
  0
STYLE
  5
11
330
3
100
AcDbSymbolTableRecord
100
AcDbTextStyleTableRecord
  2
Standard
 70
     0
 40
0.0
 41
1.0
 50
0.0
 71
     0
 42
2.5
  3
txt
  4

  0
STYLE
  5
E5
330
3
100
AcDbSymbolTableRecord
100
AcDbTextStyleTableRecord
  2
SLDTEXTSTYLE0
 70
     0
 40
0.0
 41
0.7
 50
0.0
 71
     0
 42
0.2
  3
TXT
  4

  0
ENDTAB
  0
TABLE
  2
VIEW
  5
6
330
0
100
AcDbSymbolTable
 70
     0
  0
ENDTAB
  0
TABLE
  2
UCS
  5
7
330
0
100
AcDbSymbolTable
 70
     0
  0
ENDTAB
  0
TABLE
  2
APPID
  5
9
330
0
100
AcDbSymbolTable
 70
     1
  0
APPID
  5
12
330
9
100
AcDbSymbolTableRecord
100
AcDbRegAppTableRecord
  2
ACAD
 70
     0
  0
ENDTAB
  0
TABLE
  2
DIMSTYLE
  5
A
330
0
100
AcDbSymbolTable
 70
     1
100
AcDbDimStyleTable
  0
DIMSTYLE
105
27
330
A
100
AcDbSymbolTableRecord
100
AcDbDimStyleTableRecord
  2
ISO-25
 70
     0
 41
2.5
 42
0.625
 43
3.75
 44
1.25
 73
     0
 74
     0
 77
     1
 78
     8
140
2.5
141
2.5
143
0.0393700787
147
0.625
171
     3
172
     1
178
     0
271
     2
272
     2
274
     3
278
    44
283
     0
284
     8
340
11
  0
ENDTAB
  0
TABLE
  2
BLOCK_RECORD
  5
1
330
0
100
AcDbSymbolTable
 70
     1
  0
BLOCK_RECORD
  5
1F
330
1
100
AcDbSymbolTableRecord
100
AcDbBlockTableRecord
  2
*Model_Space
340
22
  0
BLOCK_RECORD
  5
1B
330
1
100
AcDbSymbolTableRecord
100
AcDbBlockTableRecord
  2
*Paper_Space
340
1E
  0
BLOCK_RECORD
  5
23
330
1
100
AcDbSymbolTableRecord
100
AcDbBlockTableRecord
  2
*Paper_Space0
340
26
  0
ENDTAB
  0
ENDSEC
  0
SECTION
  2
BLOCKS
  0
BLOCK
  5
20
330
1F
100
AcDbEntity
  8
0
100
AcDbBlockBegin
  2
*Model_Space
 70
     0
 10
0.0
 20
0.0
 30
0.0
  3
*Model_Space
  1

  0
ENDBLK
  5
21
330
1F
100
AcDbEntity
  8
0
100
AcDbBlockEnd
  0
BLOCK
  5
1C
330
1B
100
AcDbEntity
 67
     1
  8
0
100
AcDbBlockBegin
  2
*Paper_Space
 70
     0
 10
0.0
 20
0.0
 30
0.0
  3
*Paper_Space
  1

  0
ENDBLK
  5
1D
330
1B
100
AcDbEntity
 67
     1
  8
0
100
AcDbBlockEnd
  0
BLOCK
  5
24
330
23
100
AcDbEntity
  8
0
100
AcDbBlockBegin
  2
*Paper_Space0
 70
     0
 10
0.0
 20
0.0
 30
0.0
  3
*Paper_Space0
  1

  0
ENDBLK
  5
25
330
23
100
AcDbEntity
  8
0
100
AcDbBlockEnd
  0
ENDSEC
  0
SECTION
  2
ENTITIES
  0
SPLINE
  5
4A
330
1F
100
AcDbEntity
  8
0
  6
Continuous
 62
     7
370
    15
100
AcDbSpline
210
0.0
220
0.0
230
1.0
 70
     8
 71
     3
 72
    17
 73
    13
 74
     0
 42
0.00000001
 43
0.00000001
 12
1.0
 22
0.0
 32
0.0
 13
1.0
 23
0.0
 33
0.0
 40
0.0
 40
0.0
 40
0.0
 40
0.0
 40
0.0722669534043583
 40
0.1719090662695134
 40
0.2729703183072012
 40
0.3770131121306687
 40
0.4851738227702288
 40
0.5982971402906078
 40
0.7166563436358618
 40
0.8397029293423302
 40
0.9661069380427458
 40
0.9999999999999999
 40
0.9999999999999999
 40
0.9999999999999999
 40
0.9999999999999999
 10
-24.09542238710818
 20
-27.39900833528989
 30
0.0
 10
-24.03499881769329
 20
-27.42230046562752
 30
0.0
 10
-23.89126286495894
 20
-27.4777079262875
 30
0.0
 10
-23.65348407955553
 20
-27.53459692946496
 30
0.0
 10
-23.38382159349873
 20
-27.56790605056898
 30
0.0
 10
-23.10461012291005
 20
-27.56991890328439
 30
0.0
 10
-22.81509733432584
 20
-27.54098533397594
 30
0.0
 10
-22.5143372191193
 20
-27.47989673773706
 30
0.0
 10
-22.20209795695733
 20
-27.38551273061926
 30
0.0
 10
-21.87937849117036
 20
-27.25666643300186
 30
0.0
 10
-21.63107142735143
 20
-27.13513480853191
 30
0.0
 10
-21.49055027487596
 20
-27.05751186692126
 30
0.0
 10
-21.46083861447184
 20
-27.04109934510462
 30
0.0
  0
SPLINE
  5
4D
330
1F
100
AcDbEntity
  8
0
  6
Continuous
 62
     7
370
    15
100
AcDbSpline
210
0.0
220
0.0
230
1.0
 70
     8
 71
     3
 72
    17
 73
    13
 74
     0
 42
0.00000001
 43
0.00000001
 12
1.0
 22
0.0
 32
0.0
 13
1.0
 23
0.0
 33
0.0
 40
0.0
 40
0.0
 40
0.0
 40
0.0
 40
0.0611627301167901
 40
0.1753623941709465
 40
0.2906517596518658
 40
0.4055034354671941
 40
0.5189203812782844
 40
0.6307978551655247
 40
0.741336116664131
 40
0.8508061513165742
 40
0.959467562235206
 40
1.0
 40
1.0
 40
1.0
 40
1.0
 10
-21.55975169643674
 20
-8.519096787715451
 30
0.0
 10
-21.61076980018922
 20
-8.543512706271617
 30
0.0
 10
-21.75704608319707
 20
-8.613516676429844
 30
0.0
 10
-21.99556221448681
 20
-8.7535515372297
 30
0.0
 10
-22.27500644130085
 20
-8.9468737880894
 30
0.0
 10
-22.55107258397778
 20
-9.167912555785428
 30
0.0
 10
-22.82174979896253
 20
-9.412507776407876
 30
0.0
 10
-23.08572230542333
 20
-9.677804102333846
 30
0.0
 10
-23.34238235587148
 20
-9.96147756270838
 30
0.0
 10
-23.59097560550396
 20
-10.26179289783563
 30
0.0
 10
-23.78150580061541
 20
-10.51115353241963
 30
0.0
 10
-23.88830073548633
 20
-10.66015604012959
 30
0.0
 10
-23.91731439180962
 20
-10.70063649508029
 30
0.0
  0
SPLINE
  5
50
330
1F
100
AcDbEntity
  8
0
  6
Continuous
 62
     7
370
    15
100
AcDbSpline
210
0.0
220
0.0
230
1.0
 70
     8
 71
     3
 72
    19
 73
    15
 74
     0
 42
0.00000001
 43
0.00000001
 12
1.0
 22
0.0
 32
0.0
 13
1.0
 23
0.0
 33
0.0
 40
0.0
 40
0.0
 40
0.0
 40
0.0
 40
0.0466328769578343
 40
0.1368855489402786
 40
0.2266501032936775
 40
0.3157924196217165
 40
0.4042687331081848
 40
0.4921233916148213
 40
0.5794340579571334
 40
0.6662855022811986
 40
0.752758592714512
 40
0.8389265825513885
 40
0.9248546640810162
 40
1.0
 40
1.0
 40
1.0
 40
1.0
 10
-15.98460075302176
 20
-23.97564903607466
 30
0.0
 10
-15.92637307730014
 20
-23.9422442014873
 30
0.0
 10
-15.75545230477569
 20
-23.84418807846737
 30
0.0
 10
-15.47197967716758
 20
-23.6593167435052
 30
0.0
 10
-15.134759757201
 20
-23.41287687613763
 30
0.0
 10
-14.79947072894289
 20
-23.1406209864086
 30
0.0
 10
-14.46692064241474
 20
-22.84483738279969
 30
0.0
 10
-14.13784327175906
 20
-22.52700728798956
 30
0.0
 10
-13.81295485261699
 20
-22.18866795400561
 30
0.0
 10
-13.4930440581982
 20
-21.83124682905203
 30
0.0
 10
-13.17889994323663
 20
-21.45629165453746
 30
0.0
 10
-12.87165061787318
 20
-21.06503521194276
 30
0.0
 10
-12.58381368268785
 20
-20.67672077536599
 30
0.0
 10
-12.40239190345542
 20
-20.41387925981383
 30
0.0
 10
-12.31775347733033
 20
-20.29125620821115
 30
0.0
  0
SPLINE
  5
51
330
1F
100
AcDbEntity
  8
0
  6
Continuous
 62
     7
370
    15
100
AcDbSpline
210
0.0
220
0.0
230
1.0
 70
     8
 71
     3
 72
    34
 73
    30
 74
     0
 42
0.00000001
 43
0.00000001
 12
1.0
 22
0.0
 32
0.0
 13
1.0
 23
0.0
 33
0.0
 40
0.0
 40
0.0
 40
0.0
 40
0.0
 40
0.0409792283861117
 40
0.0919958074587432
 40
0.1424345485633022
 40
0.19191828552541
 40
0.2403003760579428
 40
0.2876149026356188
 40
0.3347433545051625
 40
0.3797882840414313
 40
0.4226293788859539
 40
0.4634895916019556
 40
0.5026048722157068
 40
0.5402005532523158
 40
0.5764837332738441
 40
0.6116420295462074
 40
0.645845329717367
 40
0.6792486344419922
 40
0.7119943526709933
 40
0.7441432545055481
 40
0.775187896231551
 40
0.8055745857895213
 40
0.8354660907988378
 40
0.8650166443854688
 40
0.8943748008174296
 40
0.9236847429493158
 40
0.952877811803779
 40
0.9817372041761405
 40
0.9999999999999999
 40
0.9999999999999999
 40
0.9999999999999999
 40
0.9999999999999999
 10
-1.058839133958728
 20
-14.85172353018238
 30
0.0
 10
-1.140969222278533
 20
-14.80243606000581
 30
0.0
 10
-1.325346139297271
 20
-14.69178876880327
 30
0.0
 10
-1.59067088211254
 20
-14.48484370808284
 30
0.0
 10
-1.858284154478892
 20
-14.23764757654273
 30
0.0
 10
-2.106064971997437
 20
-13.96213775401978
 30
0.0
 10
-2.334340190825838
 20
-13.6608083226177
 30
0.0
 10
-2.544885623074112
 20
-13.33220673447464
 30
0.0
 10
-2.732370393640998
 20
-12.98367701300151
 30
0.0
 10
-2.896282012908589
 20
-12.6152301722255
 30
0.0
 10
-3.034648129359703
 20
-12.23377821419234
 30
0.0
 10
-3.148652562402978
 20
-11.84033144385001
 30
0.0
 10
-3.239552171657256
 20
-11.43500128806185
 30
0.0
 10
-3.308396457101797
 20
-11.01769000041039
 30
0.0
 10
-3.356006960946258
 20
-10.58824849828206
 30
0.0
 10
-3.383015817257652
 20
-10.14650946220796
 30
0.0
 10
-3.389903804432479
 20
-9.692282091654084
 30
0.0
 10
-3.377010400387658
 20
-9.225441184379461
 30
0.0
 10
-3.344650656162221
 20
-8.74595839817122
 30
0.0
 10
-3.293260868750954
 20
-8.258026043605527
 30
0.0
 10
-3.22303641931196
 20
-7.762691904484663
 30
0.0
 10
-3.134701070337868
 20
-7.261595405815136
 30
0.0
 10
-3.028124645775265
 20
-6.75238214034251
 30
0.0
 10
-2.903305824526196
 20
-6.234201554525303
 30
0.0
 10
-2.760031944025823
 20
-5.706154114534446
 30
0.0
 10
-2.598702450060991
 20
-5.168657154212667
 30
0.0
 10
-2.41928124536918
 20
-4.624186109225159
 30
0.0
 10
-2.249126078577198
 20
-4.142024586782629
 30
0.0
 10
-2.132317312205799
 20
-3.840017992735121
 30
0.0
 10
-2.087046607844731
 20
-3.722971544433913
 30
0.0
  0
SPLINE
  5
52
330
1F
100
AcDbEntity
  8
0
  6
Continuous
 62
     7
370
    15
100
AcDbSpline
210
0.0
220
0.0
230
1.0
 70
     8
 71
     3
 72
    25
 73
    21
 74
     0
 42
0.00000001
 43
0.00000001
 12
1.0
 22
0.0
 32
0.0
 13
1.0
 23
0.0
 33
0.0
 40
0.0
 40
0.0
 40
0.0
 40
0.0
 40
0.0456407656031478
 40
0.1176515945760413
 40
0.1821382459942198
 40
0.2413295591270775
 40
0.3039413406332582
 40
0.3645834966720701
 40
0.4255314453853786
 40
0.4860507152349096
 40
0.545812819051155
 40
0.6044887840399338
 40
0.6617791947571372
 40
0.7174517465864858
 40
0.7713895057966326
 40
0.8236554731660317
 40
0.8640120858396029
 40
0.9047802205607947
 40
0.9663222204873378
 40
1.0
 40
1.0
 40
1.0
 40
1.0
 10
-12.31963061106971
 20
-20.28929041599288
 30
0.0
 10
-12.26258598162777
 20
-20.20753118552516
 30
0.0
 10
-12.1155377994347
 20
-19.99677433890527
 30
0.0
 10
-11.88304479148745
 20
-19.68046718906378
 30
0.0
 10
-11.63005321508158
 20
-19.35121968398117
 30
0.0
 10
-11.38628687252983
 20
-19.05215462862207
 30
0.0
 10
-11.14624238587296
 20
-18.77719185119817
 30
0.0
 10
-10.90400528344493
 20
-18.52018145281345
 30
0.0
 10
-10.66676869086563
 20
-18.28768548030571
 30
0.0
 10
-10.43514342757336
 20
-18.07953654149231
 30
0.0
 10
-10.21333333688748
 20
-17.89841612164288
 30
0.0
 10
-10.00508516964202
 20
-17.74587119756806
 30
0.0
 10
-9.814393190133167
 20
-17.62270638325566
 30
0.0
 10
-9.644571829903192
 20
-17.52858023971995
 30
0.0
 10
-9.50104648446245
 20
-17.4625599715374
 30
0.0
 10
-9.388850054446445
 20
-17.42309331647047
 30
0.0
 10
-9.322618666131051
 20
-17.40615064568203
 30
0.0
 10
-9.26081285397512
 20
-17.39673867297063
 30
0.0
 10
-9.199705631900617
 20
-17.39226047780656
 30
0.0
 10
-9.138048396339252
 20
-17.39519643876566
 30
0.0
 10
-9.116241175225896
 20
-17.39623484324865
 30
0.0
  0
SPLINE
  5
55
330
1F
100
AcDbEntity
  8
0
  6
Continuous
 62
     7
370
    15
100
AcDbSpline
210
0.0
220
0.0
230
1.0
 70
     8
 71
     3
 72
    15
 73
    11
 74
     0
 42
0.00000001
 43
0.00000001
 12
1.0
 22
0.0
 32
0.0
 13
1.0
 23
0.0
 33
0.0
 40
0.0
 40
0.0
 40
0.0
 40
0.0
 40
0.0840968019891167
 40
0.2436524108583328
 40
0.3999099174293225
 40
0.5511629147239212
 40
0.696228698471808
 40
0.819897590246157
 40
0.9378293729570939
 40
1.0
 40
1.0
 40
1.0
 40
1.0
 10
-12.6371722690301
 20
-4.095843952784117
 30
0.0
 10
-12.65780418915712
 20
-4.124378307701977
 30
0.0
 10
-12.71758074380226
 20
-4.207050468873147
 30
0.0
 10
-12.81763753553529
 20
-4.331545264993204
 30
0.0
 10
-12.9321661002247
 20
-4.458400769176605
 30
0.0
 10
-13.03613579371167
 20
-4.558975154270138
 30
0.0
 10
-13.12040299293293
 20
-4.628917541237506
 30
0.0
 10
-13.18026560709668
 20
-4.670879122892846
 30
0.0
 10
-13.21086362921227
 20
-4.688168439692633
 30
0.0
 10
-13.21654857288198
 20
-4.690844403851285
 30
0.0
 10
-13.21851099255828
 20
-4.691768135909706
 30
0.0
  0
SPLINE
  5
58
330
1F
100
AcDbEntity
  8
0
  6
Continuous
 62
     7
370
    15
100
AcDbSpline
210
0.0
220
0.0
230
1.0
 70
     8
 71
     3
 72
    29
 73
    25
 74
     0
 42
0.00000001
 43
0.00000001
 12
1.0
 22
0.0
 32
0.0
 13
1.0
 23
0.0
 33
0.0
 40
0.0
 40
0.0
 40
0.0
 40
0.0
 40
0.022372882949272
 40
0.0859271551673911
 40
0.1462406428944599
 40
0.2102496406865322
 40
0.2712277790599618
 40
0.329767160810037
 40
0.3797154458118993
 40
0.4327787950943147
 40
0.4836124874962132
 40
0.5325690919914291
 40
0.5799865063673368
 40
0.6261160975519342
 40
0.6655539866594388
 40
0.7041276949247146
 40
0.7446768495760061
 40
0.7861276944687867
 40
0.8266855537200165
 40
0.866339619596746
 40
0.9051228271995534
 40
0.9430936409168992
 40
0.980330582557829
 40
1.0
 40
1.0
 40
1.0
 40
1.0
 10
-8.647793789543492
 20
-17.78428056375499
 30
0.0
 10
-8.596446103159277
 20
-17.81207259375263
 30
0.0
 10
-8.39923590787836
 20
-17.91881297582313
 30
0.0
 10
-8.046807932732053
 20
-18.08056365788082
 30
0.0
 10
-7.579605321823687
 20
-18.26856478757755
 30
0.0
 10
-7.099164126393283
 20
-18.42543770011061
 30
0.0
 10
-6.604559707158017
 20
-18.55013461738058
 30
0.0
 10
-6.131853867665352
 20
-18.6349287528208
 30
0.0
 10
-5.664685632549024
 20
-18.68710040565824
 30
0.0
 10
-5.205090939264558
 20
-18.70751929957512
 30
0.0
 10
-4.734166225386695
 20
-18.69539052097983
 30
0.0
 10
-4.26799948794252
 20
-18.65108848343819
 30
0.0
 10
-3.805672278646866
 20
-18.57562675256974
 30
0.0
 10
-3.36447810002762
 20
-18.47386440260548
 30
0.0
 10
-2.94593978360449
 20
-18.35144861304299
 30
0.0
 10
-2.536905554745105
 20
-18.20801235785136
 30
0.0
 10
-2.115371918134969
 20
-18.03403911184945
 30
0.0
 10
-1.680669295523202
 20
-17.82711196799318
 30
0.0
 10
-1.243428487930236
 20
-17.59109040995545
 30
0.0
 10
-0.8106677579087871
 20
-17.33019136128
 30
0.0
 10
-0.3829773406301921
 20
-17.04614425896247
 30
0.0
 10
0.0394467257341744
 20
-16.73828696303752
 30
0.0
 10
0.3931127980549235
 20
-16.46292385785782
 30
0.0
 10
0.6062686645638433
 20
-16.28009467064815
 30
0.0
 10
0.6799449950507241
 20
-16.21690061533021
 30
0.0
  0
SPLINE
  5
64
330
1F
100
AcDbEntity
  8
0
  6
Continuous
 62
     7
370
    15
100
AcDbSpline
210
0.0
220
0.0
230
1.0
 70
     8
 71
     3
 72
    22
 73
    18
 74
     0
 42
0.00000001
 43
0.00000001
 12
1.0
 22
0.0
 32
0.0
 13
1.0
 23
0.0
 33
0.0
 40
0.0
 40
0.0
 40
0.0
 40
0.0
 40
0.2500000000000013
 40
0.2500000000000013
 40
0.3750000000000012
 40
0.3750000000000012
 40
0.5000000000000012
 40
0.5000000000000012
 40
0.6250000000000012
 40
0.6250000000000012
 40
0.7500000000000011
 40
0.7500000000000011
 40
0.8750000000000011
 40
0.8750000000000011
 40
0.9375000000000006
 40
0.9375000000000006
 40
1.0
 40
1.0
 40
1.0
 40
1.0
 10
-12.3488571698916
 20
-20.19121878056309
 30
0.0
 10
-12.00486703264043
 20
-19.68509012672297
 30
0.0
 10
-11.6498627343209
 20
-19.21459298242871
 30
0.0
 10
-11.09753767757936
 20
-18.57296172379493
 30
0.0
 10
-10.90857372884208
 20
-18.36852185037712
 30
0.0
 10
-10.5355561059558
 20
-17.99677792782377
 30
0.0
 10
-10.35051965195632
 20
-17.82808677785425
 30
0.0
 10
-9.983508373349022
 20
-17.52643036574119
 30
0.0
 10
-9.799882377653494
 20
-17.39256975721746
 30
0.0
 10
-9.447477601707257
 20
-17.17047022824064
 30
0.0
 10
-9.277990452377123
 20
-17.08129523670709
 30
0.0
 10
-8.952006124784873
 20
-16.9452598582148
 30
0.0
 10
-8.794468566138162
 20
-16.8983222548191
 30
0.0
 10
-8.572754351357895
 20
-16.8606778356987
 30
0.0
 10
-8.501253265156498
 20
-16.85350361237976
 30
0.0
 10
-8.362875139591148
 20
-16.8494932847671
 30
0.0
 10
-8.296660192429268
 20
-16.85413743969896
 30
0.0
 10
-8.23105065310434
 20
-16.86013512293562
 30
0.0
  0
SPLINE
  5
6D
330
1F
100
AcDbEntity
  8
0
  6
Continuous
 62
     7
370
    15
100
AcDbSpline
210
0.0
220
0.0
230
1.0
 70
     8
 71
     3
 72
    30
 73
    26
 74
     0
 42
0.00000001
 43
0.00000001
 12
1.0
 22
0.0
 32
0.0
 13
1.0
 23
0.0
 33
0.0
 40
0.0
 40
0.0
 40
0.0
 40
0.0
 40
0.1250000000000002
 40
0.1250000000000002
 40
0.2500000000000004
 40
0.2500000000000004
 40
0.3750000000000006
 40
0.3750000000000006
 40
0.4375000000000006
 40
0.4375000000000006
 40
0.5000000000000006
 40
0.5000000000000006
 40
0.5625000000000006
 40
0.5625000000000006
 40
0.6250000000000006
 40
0.6250000000000006
 40
0.6875000000000006
 40
0.6875000000000006
 40
0.7500000000000004
 40
0.7500000000000004
 40
0.8750000000000003
 40
0.8750000000000003
 40
0.9375000000000002
 40
0.9375000000000002
 40
1.0
 40
1.0
 40
1.0
 40
1.0
 10
0.0301574511389815
 20
-16.55125763707625
 30
0.0
 10
-0.3597101117440681
 20
-16.40777386911882
 30
0.0
 10
-0.7228698460933266
 20
-16.21814047845526
 30
0.0
 10
-1.393751932089968
 20
-15.75519951246674
 30
0.0
 10
-1.702319667431233
 20
-15.48149008757635
 30
0.0
 10
-2.263041852203012
 20
-14.84540193306531
 30
0.0
 10
-2.515245860837479
 20
-14.48310109963679
 30
0.0
 10
-2.844316733087358
 20
-13.86226301368311
 30
0.0
 10
-2.94585286844045
 20
-13.64190805423503
 30
0.0
 10
-3.128826278541557
 20
-13.1765979859562
 30
0.0
 10
-3.210503140556856
 20
-12.9312916921675
 30
0.0
 10
-3.35226334379928
 20
-12.41283103023741
 30
0.0
 10
-3.412360381655962
 20
-12.1392084409201
 30
0.0
 10
-3.507498378898145
 20
-11.56683038629539
 30
0.0
 10
-3.542735417939081
 20
-11.26753277054322
 30
0.0
 10
-3.586178774010728
 20
-10.64020450535027
 30
0.0
 10
-3.594392848262939
 20
-10.31218210165693
 30
0.0
 10
-3.58062485397073
 20
-9.624039491336498
 30
0.0
 10
-3.558415006091114
 20
-9.261869563254455
 30
0.0
 10
-3.441835187224769
 20
-8.13578533043429
 30
0.0
 10
-3.299230311437393
 20
-7.340542403699312
 30
0.0
 10
-2.978643478354893
 20
-6.074481070657018
 30
0.0
 10
-2.853943567859398
 20
-5.640221536766753
 30
0.0
 10
-2.566486221331937
 20
-4.745589729251803
 30
0.0
 10
-2.4044388560861
 20
-4.287872014080228
 30
0.0
 10
-2.226264485262282
 20
-3.825898631149491
 30
0.0
  0
SPLINE
  5
6E
330
1F
100
AcDbEntity
  8
0
  6
Continuous
 62
     7
370
    15
100
AcDbSpline
210
0.0
220
0.0
230
1.0
 70
     8
 71
     3
 72
    18
 73
    14
 74
     0
 42
0.00000001
 43
0.00000001
 12
1.0
 22
0.0
 32
0.0
 13
1.0
 23
0.0
 33
0.0
 40
0.0
 40
0.0
 40
0.0
 40
0.0
 40
0.2500000000000002
 40
0.2500000000000002
 40
0.5000000000000004
 40
0.5000000000000004
 40
0.6250000000000003
 40
0.6250000000000003
 40
0.7500000000000002
 40
0.7500000000000002
 40
0.8750000000000001
 40
0.8750000000000001
 40
1.0
 40
1.0
 40
1.0
 40
1.0
 10
-8.231050653104337
 20
-16.86013512293562
 30
0.0
 10
-7.717735734979493
 20
-17.19887996275294
 30
0.0
 10
-7.181237295267173
 20
-17.49703437231106
 30
0.0
 10
-6.025909615132085
 20
-17.94919586627596
 30
0.0
 10
-5.411546714759337
 20
-18.10472085137895
 30
0.0
 10
-4.407664268547225
 20
-18.1725876941245
 30
0.0
 10
-4.057680647994425
 20
-18.16719484258652
 30
0.0
 10
-3.328564397014023
 20
-18.08519648511581
 30
0.0
 10
-2.950321650076826
 20
-18.00895887245354
 30
0.0
 10
-2.159538524700418
 20
-17.76816590840199
 30
0.0
 10
-1.745695341554321
 20
-17.60306239104676
 30
0.0
 10
-0.8793927781825528
 20
-17.1613013160092
 30
0.0
 10
-0.4326812257039823
 20
-16.88765590370689
 30
0.0
 10
0.030157451138985
 20
-16.55125763707624
 30
0.0
  0
LWPOLYLINE
  5
6F
330
1F
100
AcDbEntity
  8
0
  6
Continuous
 62
     7
370
    15
100
AcDbPolyline
 90
       46
 70
   128
 43
0.0
 10
-12.4530668643
 20
-17.5363461207
 10
-12.5017743856
 20
-17.4126308195
 10
-12.5274988903
 20
-17.2602939477
 10
-12.5297396801
 20
-17.0823005693
 10
-12.5084531407
 20
-16.8821151229
 10
-12.4640535903
 20
-16.6636339906
 10
-12.3974052156
 20
-16.4311096589
 10
-12.3098052515
 20
-16.1890679497
 10
-12.2029587316
 20
-15.9422199293
 10
-12.0789453019
 20
-15.6953702138
 10
-11.9401787427
 20
-15.4533234521
 10
-11.7893599872
 20
-15.220790809
 10
-11.6294245511
 20
-15.002298268
 10
-11.4634853956
 20
-14.8020985379
 10
-11.2947723376
 20
-14.6240882785
 10
-11.1265691849
 20
-14.4717322573
 10
-10.9621498206
 20
-14.3479959108
 10
-10.8047144805
 20
-14.2552876263
 10
-10.6573274644
 20
-14.195411865
 10
-10.522857493
 20
-14.1695340406
 10
-10.4039218713
 20
-14.1781578355
 10
-10.302835546
 20
-14.2211153972
 10
-10.2215660472
 20
-14.2975706059
 10
-10.1616951935
 20
-14.4060353476
 10
-10.1243883028
 20
-14.5443984798
 10
-10.1103715113
 20
-14.7099669212
 10
-10.11991764
 20
-14.8995180707
 10
-10.1528408843
 20
-15.1093625307
 10
-10.2085004307
 20
-15.3354159173
 10
-10.2858129294
 20
-15.5732783587
 10
-10.3832735807
 20
-15.818320133
 10
-10.4989854237
 20
-16.0657717807
 10
-10.6306962592
 20
-16.310816937
 10
-10.7758424854
 20
-16.5486860767
 10
-10.9315989962
 20
-16.7747493475
 10
-11.0949341683
 20
-16.984606685
 10
-11.2626688684
 20
-17.1741734548
 10
-11.4315383312
 20
-17.3397599555
 10
-11.5982557049
 20
-17.4781432341
 10
-11.7595760253
 20
-17.5866298175
 10
-11.9123593759
 20
-17.6631081377
 10
-12.0536320027
 20
-17.7060896313
 10
-12.1806441945
 20
-17.7147377124
 10
-12.2909238036
 20
-17.6888840558
 10
-12.3823243629
 20
-17.6290318737
 10
-12.4530668643
 20
-17.5363461207
  0
LWPOLYLINE
  5
71
330
1F
100
AcDbEntity
  8
0
  6
Continuous
 62
     7
370
    15
100
AcDbPolyline
 90
       21
 70
   128
 43
0.0
 10
-16.9901587738
 20
-13.2400927941
 10
-17.039792078
 20
-13.218570201
 10
-17.1410044522
 20
-13.2076634865
 10
-17.2578145891
 20
-13.2311947749
 10
-17.3871971673
 20
-13.2885546184
 10
-17.5258012461
 20
-13.378257427
 10
-17.6700370526
 20
-13.4979799452
 10
-17.8161689553
 20
-13.6446214226
 10
-17.9604122146
 20
-13.814383922
 10
-18.0990310059
 20
-14.0028706837
 10
-18.2284351752
 20
-14.2051999998
 10
-18.3452732226
 20
-14.4161316471
 10
-18.446519104
 20
-14.6302026069
 10
-18.5295506042
 20
-14.8418685537
 10
-18.5922172511
 20
-15.0456474506
 10
-18.6328960114
 20
-15.2362615313
 10
-18.6505333265
 20
-15.4087739912
 10
-18.6446723993
 20
-15.5587168482
 10
-18.6154650247
 20
-15.6822066611
 10
-18.5636676583
 20
-15.7760451086
 10
-18.4963349902
 20
-15.8345933637
  0
LWPOLYLINE
  5
7C
330
1F
100
AcDbEntity
  8
0
  6
Continuous
 62
     7
370
    15
100
AcDbPolyline
 90
       40
 70
   128
 43
0.0
 10
-13.9491312412
 20
-15.0513584287
 10
-14.0117559137
 20
-14.9733077529
 10
-14.094749178
 20
-14.9282455136
 10
-14.1959615522
 20
-14.917338799
 10
-14.312771689
 20
-14.9408700875
 10
-14.4421542672
 20
-14.998229931
 10
-14.580758346
 20
-15.0879327396
 10
-14.7249941526
 20
-15.2076552578
 10
-14.8711260553
 20
-15.3542967352
 10
-15.0153693146
 20
-15.5240592346
 10
-15.1539881058
 20
-15.7125459963
 10
-15.2833922751
 20
-15.9148753124
 10
-15.4002303225
 20
-16.1258069597
 10
-15.5014762039
 20
-16.3398779195
 10
-15.5845077042
 20
-16.5515438662
 10
-15.6471743511
 20
-16.7553227632
 10
-15.6878531113
 20
-16.9459368439
 10
-15.7054904264
 20
-17.1184493038
 10
-15.6996294992
 20
-17.2683921608
 10
-15.6704221246
 20
-17.3918819737
 10
-15.6186247583
 20
-17.4857204212
 10
-15.5455789247
 20
-17.5474771367
 10
-15.4531764728
 20
-17.5755526539
 10
-15.3438105774
 20
-17.5692198315
 10
-15.2203137577
 20
-17.5286426864
 10
-15.0858845166
 20
-17.4548721452
 10
-14.9440045008
 20
-17.3498188262
 10
-14.798348328
 20
-17.2162035553
 10
-14.6526884169
 20
-17.0574868977
 10
-14.5107972824
 20
-16.8777795315
 10
-14.3763498304
 20
-16.6817357832
 10
-14.2528281794
 20
-16.4744330827
 10
-14.1434314752
 20
-16.2612404611
 10
-14.050993035
 20
-16.0476794955
 10
-13.9779069658
 20
-15.8392813025
 10
-13.9260661585
 20
-15.641443286
 10
-13.8968132627
 20
-15.4592893466
 10
-13.890905913
 20
-15.2975371757
 10
-13.9084971068
 20
-15.1603760695
 10
-13.9491312412
 20
-15.0513584287
  0
SPLINE
  5
86
330
1F
100
AcDbEntity
  8
0
  6
Continuous
 62
     7
370
    15
100
AcDbSpline
210
0.0
220
0.0
230
1.0
 70
     8
 71
     3
 72
    18
 73
    14
 74
     0
 42
0.00000001
 43
0.00000001
 12
1.0
 22
0.0
 32
0.0
 13
1.0
 23
0.0
 33
0.0
 40
0.0
 40
0.0
 40
0.0
 40
0.0
 40
0.0625000000000002
 40
0.0625000000000002
 40
0.1250000000000005
 40
0.1250000000000005
 40
0.2500000000000006
 40
0.2500000000000006
 40
0.5000000000000004
 40
0.5000000000000004
 40
0.7500000000000002
 40
0.7500000000000002
 40
1.0
 40
1.0
 40
1.0
 40
1.0
 10
0.7369694910616034
 20
-15.4654982057031
 30
0.0
 10
0.7914238033059507
 20
-15.49711037451288
 30
0.0
 10
0.8338224807673544
 20
-15.53332325310149
 30
0.0
 10
0.8944951694263032
 20
-15.60619124363335
 30
0.0
 10
0.9135757180866021
 20
-15.64313988177425
 30
0.0
 10
0.9481209085242387
 20
-15.74856775570598
 30
0.0
 10
0.9433488978763116
 20
-15.81395845141631
 30
0.0
 10
0.8955405699290955
 20
-15.99265158462761
 30
0.0
 10
0.8178373733601884
 20
-16.09317481461546
 30
0.0
 10
0.6352382471536254
 20
-16.26506735929256
 30
0.0
 10
0.5274246080022513
 20
-16.33714235121652
 30
0.0
 10
0.2925659060256641
 20
-16.45994087032669
 30
0.0
 10
0.1662979803852167
 20
-16.51011754349844
 30
0.0
 10
0.0301574511389832
 20
-16.55125763707625
 30
0.0
  0
SPLINE
  5
89
330
1F
100
AcDbEntity
  8
0
  6
Continuous
 62
     7
370
    15
100
AcDbSpline
210
0.0
220
0.0
230
1.0
 70
     8
 71
     3
 72
    12
 73
     8
 74
     0
 42
0.00000001
 43
0.00000001
 12
1.0
 22
0.0
 32
0.0
 13
1.0
 23
0.0
 33
0.0
 40
0.0
 40
0.0
 40
0.0
 40
0.0
 40
0.2028929756833913
 40
0.5000962443606035
 40
0.7987413244272776
 40
0.9874855481443965
 40
1.0
 40
1.0
 40
1.0
 40
1.0
 10
-9.116493399562675
 20
-17.38093676190944
 30
0.0
 10
-9.045580220447473
 20
-17.38373194524532
 30
0.0
 10
-8.870791446061693
 20
-17.39062159080285
 30
0.0
 10
-8.599702523911
 20
-17.27319519468637
 30
0.0
 10
-8.376703814107817
 20
-17.08550380429169
 30
0.0
 10
-8.269435851148883
 20
-16.93049585270787
 30
0.0
 10
-8.233297753657498
 20
-16.86425409698933
 30
0.0
 10
-8.231050653104333
 20
-16.86013512293561
 30
0.0
  0
LWPOLYLINE
  5
8C
330
1F
100
AcDbEntity
  8
0
  6
Continuous
 62
     7
370
    15
100
AcDbPolyline
 90
       10
 70
   128
 43
0.0
 10
-25.9977476673
 20
-26.5958339417
 10
-26.0438200601
 20
-26.555310337
 10
-26.0847597306
 20
-26.4710484942
 10
-26.1008270856
 20
-26.3555396279
 10
-26.0913437138
 20
-26.2136608648
 10
-26.0567100312
 20
-26.0514027469
 10
-25.9983883746
 20
-25.8756162928
 10
-25.9188412571
 20
-25.6937237278
 10
-25.8214273939
 20
-25.5134050953
 10
-25.7102598871
 20
-25.3422739823
  0
LWPOLYLINE
  5
8E
330
1F
100
AcDbEntity
  8
0
  6
Continuous
 62
     7
370
    15
100
AcDbPolyline
 90
       10
 70
   128
 43
0.0
 10
-31.5694504512
 20
-23.36131308
 10
-31.6155228439
 20
-23.3207894754
 10
-31.6564625145
 20
-23.2365276326
 10
-31.6725298695
 20
-23.1210187663
 10
-31.6630464977
 20
-22.9791400032
 10
-31.6284128151
 20
-22.8168818852
 10
-31.5700911584
 20
-22.6410954312
 10
-31.4905440409
 20
-22.4592028662
 10
-31.3931301778
 20
-22.2788842336
 10
-31.281962671
 20
-22.1077531206
  0
LWPOLYLINE
  5
98
330
1F
100
AcDbEntity
  8
0
  6
Continuous
 62
     7
370
    15
100
AcDbPolyline
 90
        4
 70
   128
 43
0.0
 10
-12.3177420588
 20
-20.291239394
 10
-12.3164604017
 20
-20.2891540199
 10
-12.3167477106
 20
-20.2501983055
 10
-12.3488571699
 20
-20.1912187806
  0
SPLINE
  5
9A
330
1F
100
AcDbEntity
  8
0
  6
Continuous
 62
     7
370
    15
100
AcDbSpline
210
0.0
220
0.0
230
1.0
 70
     8
 71
     3
 72
    10
 73
     6
 74
     0
 42
0.00000001
 43
0.00000001
 12
1.0
 22
0.0
 32
0.0
 13
1.0
 23
0.0
 33
0.0
 40
0.0
 40
0.0
 40
0.0
 40
0.0
 40
0.3038773402498226
 40
0.6519530849960118
 40
1.0
 40
1.0
 40
1.0
 40
1.0
 10
-0.9913872497260574
 20
-14.87633688480111
 30
0.0
 10
-0.8317256687669482
 20
-14.96406857498616
 30
0.0
 10
-0.4891800213157188
 20
-15.15229236956404
 30
0.0
 10
0.0868248652855612
 20
-15.35156446645869
 30
0.0
 10
0.5202605993463381
 20
-15.42752134119982
 30
0.0
 10
0.7369694910616034
 20
-15.4654982057031
 30
0.0
  0
LWPOLYLINE
  5
9B
330
1F
100
AcDbEntity
  8
0
  6
Continuous
 62
     7
370
    15
100
AcDbPolyline
 90
        8
 70
   128
 43
0.0
 10
-3.2367929844
 20
-2.9750977861
 10
-3.1138562194
 20
-2.8172110108
 10
-2.9868788739
 20
-2.6834269707
 10
-2.8614599734
 20
-2.5796448303
 10
-2.7431298243
 20
-2.5104408302
 10
-2.6371061568
 20
-2.4788664984
 10
-2.5480640507
 20
-2.4863140953
 10
-2.520163287
 20
-2.4989906992
  0
LWPOLYLINE
  5
9C
330
1F
100
AcDbEntity
  8
0
  6
Continuous
 62
     7
370
    15
100
AcDbPolyline
 90
        8
 70
   128
 43
0.0
 10
-8.8084957683
 20
0.2594230756
 10
-8.6855590033
 20
0.4173098509
 10
-8.5585816577
 20
0.551093891
 10
-8.4331627572
 20
0.6548760313
 10
-8.3148326081
 20
0.7240800315
 10
-8.2088089406
 20
0.7556543632
 10
-8.1197668346
 20
0.7482067664
 10
-8.0918660709
 20
0.7355301625
  0
LINE
  5
9F
330
1F
100
AcDbEntity
  8
0
  6
Continuous
 62
     7
370
    15
100
AcDbLine
 10
-31.5694504512
 20
-23.36131308
 30
0.0
 11
-25.9977476673
 21
-26.5958339417
 31
0.0
  0
LINE
  5
A0
330
1F
100
AcDbEntity
  8
0
  6
Continuous
 62
     7
370
    15
100
AcDbLine
 10
-25.8808461287
 20
-26.6538513984
 30
0.0
 11
-24.0954223871
 21
-27.3990083353
 31
0.0
  0
LINE
  5
A1
330
1F
100
AcDbEntity
  8
0
  6
Continuous
 62
     7
370
    15
100
AcDbLine
 10
-17.5307703419
 20
-21.1314274721
 30
0.0
 11
-19.5418944148
 21
-17.4879843015
 31
0.0
  0
LINE
  5
A2
330
1F
100
AcDbEntity
  8
0
  6
Continuous
 62
     7
370
    15
100
AcDbLine
 10
-23.9173143918
 20
-10.7006364951
 30
0.0
 11
-31.8827250689
 21
-21.9174877454
 31
0.0
  0
LINE
  5
A3
330
1F
100
AcDbEntity
  8
0
  6
Continuous
 62
     7
370
    15
100
AcDbLine
 10
-18.4963349902
 20
-15.8345933637
 30
0.0
 11
-15.5512920901
 21
-17.5442686762
 31
0.0
  0
LINE
  5
A4
330
1F
100
AcDbEntity
  8
0
  6
Continuous
 62
     7
370
    15
100
AcDbLine
 10
-14.0451158738
 20
-14.9497681067
 30
0.0
 11
-16.9901587738
 21
-13.2400927941
 31
0.0
  0
LINE
  5
A5
330
1F
100
AcDbEntity
  8
0
  6
Continuous
 62
     7
370
    15
100
AcDbLine
 10
-13.2185109926
 20
-4.6917681359
 30
0.0
 11
-21.5597516964
 21
-8.5190967877
 31
0.0
  0
LINE
  5
A6
330
1F
100
AcDbEntity
  8
0
  6
Continuous
 62
     7
370
    15
100
AcDbLine
 10
-21.4608386145
 20
-27.0410993451
 30
0.0
 11
-15.984600753
 21
-23.9756490361
 31
0.0
  0
LINE
  5
A7
330
1F
100
AcDbEntity
  8
0
  6
Continuous
 62
     7
370
    15
100
AcDbLine
 10
-2.520163287
 20
-2.4989906992
 30
0.0
 11
-8.0918660709
 21
0.7355301625
 31
0.0
  0
LINE
  5
A8
330
1F
100
AcDbEntity
  8
0
  6
Continuous
 62
     7
370
    15
100
AcDbLine
 10
-9.4092581662
 20
0.4496884507
 30
0.0
 11
-12.637172269
 21
-4.0958439528
 31
0.0
  0
LINE
  5
A9
330
1F
100
AcDbEntity
  8
0
  6
Continuous
 62
     7
370
    15
100
AcDbLine
 10
-9.319507954
 20
-17.4066900073
 30
0.0
 11
-9.0083499127
 21
-17.5873254818
 31
0.0
  0
LINE
  5
AA
330
1F
100
AcDbEntity
  8
0
  6
Continuous
 62
     7
370
    15
100
AcDbLine
 10
-19.4324308418
 20
-18.7756886921
 30
0.0
 11
-24.699731388
 21
-26.1930748273
 31
0.0
  0
LINE
  5
AB
330
1F
100
AcDbEntity
  8
0
  6
Continuous
 62
     7
370
    15
100
AcDbLine
 10
-25.7102598871
 20
-25.3422739823
 30
0.0
 11
-19.8769108471
 21
-17.1277812052
 31
0.0
  0
LINE
  5
AC
330
1F
100
AcDbEntity
  8
0
  6
Continuous
 62
     7
370
    15
100
AcDbLine
 10
-31.281962671
 20
-22.1077531206
 30
0.0
 11
-25.7102598871
 21
-25.3422739823
 31
0.0
  0
LINE
  5
AD
330
1F
100
AcDbEntity
  8
0
  6
Continuous
 62
     7
370
    15
100
AcDbLine
 10
-23.3165519938
 20
-10.8909018702
 30
0.0
 11
-31.281962671
 21
-22.1077531206
 31
0.0
  0
LINE
  5
AE
330
1F
100
AcDbEntity
  8
0
  6
Continuous
 62
     7
370
    15
100
AcDbLine
 10
-23.3165519938
 20
-10.8909018702
 30
0.0
 11
-19.3367642911
 21
-13.2012739143
 31
0.0
  0
LINE
  5
AF
330
1F
100
AcDbEntity
  8
0
  6
Continuous
 62
     7
370
    15
100
AcDbLine
 10
-19.3367642911
 20
-13.2012739143
 30
0.0
 11
-21.4688259282
 21
-16.2036323876
 31
0.0
  0
LINE
  5
B0
330
1F
100
AcDbEntity
  8
0
  6
Continuous
 62
     7
370
    15
100
AcDbLine
 10
-21.4688259282
 20
-16.2036323876
 30
0.0
 11
-19.8769108471
 21
-17.1277812052
 31
0.0
  0
LINE
  5
B1
330
1F
100
AcDbEntity
  8
0
  6
Continuous
 62
     7
370
    15
100
AcDbLine
 10
-24.699731388
 20
-26.1930748273
 30
0.0
 11
-22.9143076464
 21
-26.9382317642
 31
0.0
  0
LINE
  5
B2
330
1F
100
AcDbEntity
  8
0
  6
Continuous
 62
     7
370
    15
100
AcDbLine
 10
-21.1533336711
 20
-26.6305833229
 30
0.0
 11
-15.6770958097
 21
-23.5651330139
 31
0.0
  0
LINE
  5
B3
330
1F
100
AcDbEntity
  8
0
  6
Continuous
 62
     7
370
    15
100
AcDbLine
 10
-17.4213067689
 20
-22.4191318627
 30
0.0
 11
-19.4324308418
 21
-18.7756886921
 31
0.0
  0
LINE
  5
B4
330
1F
100
AcDbEntity
  8
0
  6
Continuous
 62
     7
370
    15
100
AcDbLine
 10
-8.9098775952
 20
-10.4333801119
 30
0.0
 11
-17.4213067689
 21
-22.4191318627
 31
0.0
  0
LINE
  5
B5
330
1F
100
AcDbEntity
  8
0
  6
Continuous
 62
     7
370
    15
100
AcDbLine
 10
-6.4338123944
 20
-9.2972523315
 30
0.0
 11
-8.9098775952
 21
-10.4333801119
 31
0.0
  0
LINE
  5
B6
330
1F
100
AcDbEntity
  8
0
  6
Continuous
 62
     7
370
    15
100
AcDbLine
 10
-2.2262644853
 20
-3.8258986311
 30
0.0
 11
-5.4541785881
 21
-8.3714310347
 31
0.0
  0
LINE
  5
B7
330
1F
100
AcDbEntity
  8
0
  6
Continuous
 62
     7
370
    15
100
AcDbLine
 10
-11.2614539016
 20
-8.3051604161
 30
0.0
 11
-16.8876797753
 21
-10.8867206722
 31
0.0
  0
LINE
  5
B8
330
1F
100
AcDbEntity
  8
0
  6
Continuous
 62
     7
370
    15
100
AcDbLine
 10
-18.7723994387
 20
-18.8820361421
 30
0.0
 11
-17.1594508102
 21
-16.6106899965
 31
0.0
  0
LINE
  5
B9
330
1F
100
AcDbEntity
  8
0
  6
Continuous
 62
     7
370
    15
100
AcDbLine
 10
-15.4151764914
 20
-14.1544116742
 30
0.0
 11
-11.2614539016
 21
-8.3051604161
 31
0.0
  0
LINE
  5
BA
330
1F
100
AcDbEntity
  8
0
  6
Continuous
 62
     7
370
    15
100
AcDbLine
 10
-20.8674674781
 20
-8.5763486282
 30
0.0
 11
-16.8876797753
 21
-10.8867206722
 31
0.0
  0
LINE
  5
BB
330
1F
100
AcDbEntity
  8
0
  6
Continuous
 62
     7
370
    15
100
AcDbLine
 10
-12.5262267742
 20
-4.7490199764
 30
0.0
 11
-20.8674674781
 21
-8.5763486282
 31
0.0
  0
LINE
  5
BC
330
1F
100
AcDbEntity
  8
0
  6
Continuous
 62
     7
370
    15
100
AcDbLine
 10
-6.9545239904
 20
-7.983540838
 30
0.0
 11
-12.5262267742
 21
-4.7490199764
 31
0.0
  0
LINE
  5
BD
330
1F
100
AcDbEntity
  8
0
  6
Continuous
 62
     7
370
    15
100
AcDbLine
 10
-9.6695388205
 20
-9.2293092337
 30
0.0
 11
-6.9545239904
 21
-7.983540838
 31
0.0
  0
LINE
  5
BE
330
1F
100
AcDbEntity
  8
0
  6
Continuous
 62
     7
370
    15
100
AcDbLine
 10
-11.2614539016
 20
-8.3051604161
 30
0.0
 11
-9.6695388205
 21
-9.2293092337
 31
0.0
  0
LINE
  5
BF
330
1F
100
AcDbEntity
  8
0
  6
Continuous
 62
     7
370
    15
100
AcDbLine
 10
-12.0364098711
 20
-4.2861093279
 30
0.0
 11
-6.4647070872
 21
-7.5206301896
 31
0.0
  0
LINE
  5
C0
330
1F
100
AcDbEntity
  8
0
  6
Continuous
 62
     7
370
    15
100
AcDbLine
 10
-6.4647070872
 20
-7.5206301896
 30
0.0
 11
-3.2367929844
 21
-2.9750977861
 31
0.0
  0
LINE
  5
C1
330
1F
100
AcDbEntity
  8
0
  6
Continuous
 62
     7
370
    15
100
AcDbLine
 10
-1.0571515981
 20
-14.8424465731
 30
0.0
 11
-1.0252857699
 21
-14.8588679758
 31
0.0
  0
LINE
  5
C2
330
1F
100
AcDbEntity
  8
0
  6
Continuous
 62
     7
370
    15
100
AcDbLine
 10
-3.2367929844
 20
-2.9750977861
 30
0.0
 11
-8.8084957683
 21
0.2594230756
 31
0.0
  0
LINE
  5
C3
330
1F
100
AcDbEntity
  8
0
  6
Continuous
 62
     7
370
    15
100
AcDbLine
 10
-8.8084957683
 20
0.2594230756
 30
0.0
 11
-12.0364098711
 21
-4.2861093279
 31
0.0
  0
LINE
  5
C4
330
1F
100
AcDbEntity
  8
0
  6
Continuous
 62
     7
370
    15
100
AcDbLine
 10
-2.2933281405
 20
-13.7063302661
 30
0.0
 11
0.7369694911
 21
-15.4654982057
 31
0.0
  0
LINE
  5
C5
330
1F
100
AcDbEntity
  8
0
  6
Continuous
 62
     7
370
    15
100
AcDbLine
 10
-8.6791531549
 20
-17.7684708339
 30
0.0
 11
-9.2961417127
 21
-17.4029276183
 31
0.0
  0
LINE
  5
C6
330
1F
100
AcDbEntity
  8
0
  6
Continuous
 62
     7
370
    15
100
AcDbLine
 10
-17.7891594297
 20
-20.6633181347
 30
0.0
 11
-15.5675357291
 21
-17.5348388141
 31
0.0
  0
LINE
  5
C7
330
1F
100
AcDbEntity
  8
0
  6
Continuous
 62
     7
370
    15
100
AcDbLine
 10
-13.9023213624
 20
-15.1898923187
 30
0.0
 11
-9.6695388205
 21
-9.2293092337
 31
0.0
  0
ARC
  5
C8
330
1F
100
AcDbEntity
  8
0
  6
Continuous
 62
     7
370
    15
100
AcDbCircle
 10
-25.4956889285
 20
-25.7310004185
 30
0.0
 40
0.9999999999991893
100
AcDbArc
 50
239.8637012108
 51
247.3465002148
  0
ARC
  5
C9
330
1F
100
AcDbEntity
  8
0
  6
Continuous
 62
     7
370
    15
100
AcDbCircle
 10
-31.0673917124
 20
-22.4964795569
 30
0.0
 40
0.9999999999999998
100
AcDbArc
 50
144.6203367741
 51
239.8637012108
  0
ARC
  5
CA
330
1F
100
AcDbEntity
  8
0
  6
Continuous
 62
     7
370
    15
100
AcDbCircle
 10
-3.0222220258
 20
-3.3638242223
 30
0.0
 40
0.9999999999996244
100
AcDbArc
 50
338.9093190873
 51
59.8637012108
  0
ARC
  5
CB
330
1F
100
AcDbEntity
  8
0
  6
Continuous
 62
     7
370
    15
100
AcDbCircle
 10
-8.5939248097
 20
-0.1293033607
 30
0.0
 40
1.000000000000165
100
AcDbArc
 50
59.8637012108
 51
144.6203367741
  0
ARC
  5
CC
330
1F
100
AcDbEntity
  8
0
  6
Continuous
 62
     7
370
    15
100
AcDbCircle
 10
-27.2130374113
 20
-28.152701937
 30
0.0
 40
3.186980636291338
100
AcDbArc
 50
37.9435765404
 51
61.8659230986
  0
ARC
  5
CD
330
1F
100
AcDbEntity
  8
0
  6
Continuous
 62
     7
370
    15
100
AcDbCircle
 10
-20.7938140298
 20
-18.2589890713
 30
0.0
 40
1.456139650875354
100
AcDbArc
 50
339.2162339289
 51
50.9734234115
  0
ARC
  5
CE
330
1F
100
AcDbEntity
  8
0
  6
Continuous
 62
     7
370
    15
100
AcDbCircle
 10
-21.6291419429
 20
-14.3651170596
 30
0.0
 40
10.95751553639463
100
AcDbArc
 50
302.9012683359
 51
327.8796682588
  0
ARC
  5
CF
330
1F
100
AcDbEntity
  8
0
  6
Continuous
 62
     7
370
    15
100
AcDbCircle
 10
-22.3585715355
 20
-24.9255395446
 30
0.0
 40
2.088006847629813
100
AcDbArc
 50
254.5643302274
 51
305.2552001903
  0
ARC
  5
D0
330
1F
100
AcDbEntity
  8
0
  6
Continuous
 62
     7
370
    15
100
AcDbCircle
 10
-7.8153212819
 20
-6.8542468057
 30
0.0
 40
2.806571361164416
100
AcDbArc
 50
299.4879685175
 51
327.2766780312
  0
ARC
  5
D1
330
1F
100
AcDbEntity
  8
0
  6
Continuous
 62
     7
370
    15
100
AcDbCircle
 10
-19.0308404984
 20
-21.9074483369
 30
0.0
 40
1.688910553258801
100
AcDbArc
 50
342.3641272164
 51
27.3535672535
  0
ARC
  5
D2
330
1F
100
AcDbEntity
  8
0
  6
Continuous
 62
     7
370
    15
100
AcDbCircle
 10
-13.3910724013
 20
-17.0395593956
 30
0.0
 40
7.076982936604906
100
AcDbArc
 50
119.6092112143
 51
147.1554353344
  0
ARC
  5
D3
330
1F
100
AcDbEntity
  8
0
  6
Continuous
 62
     7
370
    15
100
AcDbCircle
 10
-17.370860104
 20
-14.7291873516
 30
0.0
 40
7.07698293660481
100
AcDbArc
 50
119.6092112143
 51
147.1554353344
  0
ARC
  5
D4
330
1F
100
AcDbEntity
  8
0
  6
Continuous
 62
     7
370
    15
100
AcDbCircle
 10
-10.4008170488
 20
-10.5323551522
 30
0.0
 40
1.494221038845733
100
AcDbArc
 50
3.7979703137
 51
60.6985633633
  0
ARC
  5
D5
330
1F
100
AcDbEntity
  8
0
  6
Continuous
 62
     7
370
    15
100
AcDbCircle
 10
-7.5575923973
 20
-8.9826292576
 30
0.0
 40
1.166991505416611
100
AcDbArc
 50
344.359423754
 51
58.8840356467
  0
ARC
  5
D6
330
1F
100
AcDbEntity
  8
0
  6
Continuous
 62
     7
370
    15
100
AcDbCircle
 10
-7.9674846114
 20
-10.3310581443
 30
0.0
 40
3.186980636291095
100
AcDbArc
 50
37.9435765404
 51
61.8659230986
  0
ARC
  5
D7
330
1F
100
AcDbEntity
  8
0
  6
Continuous
 62
     7
370
    15
100
AcDbCircle
 10
-7.6452784341
 20
-6.7620380751
 30
0.0
 40
1.403285680582165
100
AcDbArc
 50
299.4879685175
 51
327.2766780312
  0
ARC
  5
D8
330
1F
100
AcDbEntity
  8
0
  6
Continuous
 62
     7
370
    15
100
AcDbCircle
 10
-13.216981218
 20
-3.5275172135
 30
0.0
 40
1.403285680582186
100
AcDbArc
 50
299.4879685175
 51
327.2766780312
  0
ARC
  5
D9
330
1F
100
AcDbEntity
  8
0
  6
Continuous
 62
     7
370
    15
100
AcDbCircle
 10
-4.7395705086
 20
-5.7855257408
 30
0.0
 40
3.186980636289376
100
AcDbArc
 50
37.9435765404
 51
61.8659230986
  0
ARC
  5
DA
330
1F
100
AcDbEntity
  8
0
  6
Continuous
 62
     7
370
    15
100
AcDbCircle
 10
-25.5461003806
 20
-25.7677377639
 30
0.0
 40
0.9472339147444199
100
AcDbArc
 50
249.3050184447
 51
333.3184913422
  0
ARC
  5
DB
330
1F
100
AcDbEntity
  8
0
  6
Continuous
 62
     7
370
    15
100
AcDbCircle
 10
-23.760676639
 20
-26.5128947007
 30
0.0
 40
0.9472339147444286
100
AcDbArc
 50
249.3050184447
 51
333.3184913422
  0
ARC
  5
DC
330
1F
100
AcDbEntity
  8
0
  6
Continuous
 62
     7
370
    15
100
AcDbCircle
 10
-31.790061894
 20
-22.6684895217
 30
0.0
 40
0.7566968560030548
100
AcDbArc
 50
47.8193797909
 51
97.0339508915
  0
ARC
  5
DD
330
1F
100
AcDbEntity
  8
0
  6
Continuous
 62
     7
370
    15
100
AcDbCircle
 10
-23.8246512168
 20
-11.4516382713
 30
0.0
 40
0.75669685600302
100
AcDbArc
 50
47.8193797909
 51
97.0339508915
  0
ARC
  5
DE
330
1F
100
AcDbEntity
  8
0
  6
Continuous
 62
     7
370
    15
100
AcDbCircle
 10
-21.7913869906
 20
-26.4730585411
 30
0.0
 40
0.657210845465496
100
AcDbArc
 50
300.1698004116
 51
346.1319426564
  0
ARC
  5
DF
330
1F
100
AcDbEntity
  8
0
  6
Continuous
 62
     7
370
    15
100
AcDbCircle
 10
-21.2674334613
 20
-9.1993788926
 30
0.0
 40
0.7403644360854692
100
AcDbArc
 50
57.3008034818
 51
113.4534339468
  0
ARC
  5
E0
330
1F
100
AcDbEntity
  8
0
  6
Continuous
 62
     7
370
    15
100
AcDbCircle
 10
-12.926287377
 20
-5.3723717376
 30
0.0
 40
0.7406861036040473
100
AcDbArc
 50
57.3080793115
 51
113.2367258042
  0
ARC
  5
E1
330
1F
100
AcDbEntity
  8
0
  6
Continuous
 62
     7
370
    15
100
AcDbCircle
 10
-16.3151822914
 20
-23.4075912942
 30
0.0
 40
0.6572471008875588
100
AcDbArc
 50
300.1972904703
 51
346.13120205
  0
ARC
  5
E2
330
1F
100
AcDbEntity
  8
0
  6
Continuous
 62
     7
370
    15
100
AcDbCircle
 10
-2.2515488403
 20
-3.6491432707
 30
0.0
 40
0.1785546304631797
100
AcDbArc
 50
278.1407723577
 51
335.7105571999
  0
ARC
  5
E3
330
1F
100
AcDbEntity
  8
0
  6
Continuous
 62
     7
370
    15
100
AcDbCircle
 10
-12.5454074649
 20
-4.8487162317
 30
0.0
 40
0.7586864166170965
100
AcDbArc
 50
47.8639564428
 51
96.9325001402
  0
ARC
  5
E4
330
1F
100
AcDbEntity
  8
0
  6
Continuous
 62
     7
370
    15
100
AcDbCircle
 10
-9.3165949913
 20
-0.3013133255
 30
0.0
 40
0.7566968560035499
100
AcDbArc
 50
47.8193797909
 51
97.0339508915
  0
MTEXT
  5
E6
330
1F
100
AcDbEntity
  8
0
  6
Continuous
 62
     7
100
AcDbMText
 10
-32.0673917124
 20
-28.587169291
 30
0.0
 40
4.83362
 41
0.0
 71
     1
 72
     1
  1
SolidWorks Educational Edition.
  7
SLDTEXTSTYLE0
 73
     1
 44
1.0
  0
MTEXT
  5
E7
330
1F
100
AcDbEntity
  8
0
  6
Continuous
 62
     7
100
AcDbMText
 10
-32.0673917124
 20
-35.837599291
 30
0.0
 40
4.83362
 41
0.0
 71
     1
 72
     1
  1
For Instructional Use Only.
  7
SLDTEXTSTYLE0
 73
     1
 44
1.0
  0
ENDSEC
  0
SECTION
  2
OBJECTS
  0
DICTIONARY
  5
C
330
0
100
AcDbDictionary
281
     1
  3
ACAD_GROUP
350
D
  3
ACAD_LAYOUT
350
1A
  3
ACAD_MLINESTYLE
350
17
  3
ACAD_PLOTSETTINGS
350
19
  3
ACAD_PLOTSTYLENAME
350
E
  0
DICTIONARY
  5
D
102
{ACAD_REACTORS
330
C
102
}
330
C
100
AcDbDictionary
281
     1
  0
DICTIONARY
  5
1A
102
{ACAD_REACTORS
330
C
102
}
330
C
100
AcDbDictionary
281
     1
  3
Layout1
350
1E
  3
Layout2
350
26
  3
Model
350
22
  0
DICTIONARY
  5
17
102
{ACAD_REACTORS
330
C
102
}
330
C
100
AcDbDictionary
281
     1
  3
Standard
350
18
  0
DICTIONARY
  5
19
102
{ACAD_REACTORS
330
C
102
}
330
C
100
AcDbDictionary
281
     1
  0
ACDBDICTIONARYWDFLT
  5
E
102
{ACAD_REACTORS
330
C
102
}
330
C
100
AcDbDictionary
281
     1
  3
Normal
350
F
100
AcDbDictionaryWithDefault
340
F
  0
LAYOUT
  5
1E
102
{ACAD_REACTORS
330
1A
102
}
330
1A
100
AcDbPlotSettings
  1

  2
none_device
  4

  6

 40
0.0
 41
0.0
 42
0.0
 43
0.0
 44
0.0
 45
0.0
 46
0.0
 47
0.0
 48
0.0
 49
0.0
140
0.0
141
0.0
142
1.0
143
1.0
 70
   688
 72
     0
 73
     0
 74
     5
  7

 75
    16
147
1.0
148
0.0
149
0.0
100
AcDbLayout
  1
Layout1
 70
     1
 71
     1
 10
0.0
 20
0.0
 11
420.0
 21
297.0
 12
0.0
 22
0.0
 32
0.0
 14
1.0000000000E+20
 24
1.0000000000E+20
 34
1.0000000000E+20
 15
-1.0000000000E+20
 25
-1.0000000000E+20
 35
-1.0000000000E+20
146
0.0
 13
0.0
 23
0.0
 33
0.0
 16
1.0
 26
0.0
 36
0.0
 17
0.0
 27
1.0
 37
0.0
 76
     0
330
1B
  0
LAYOUT
  5
26
102
{ACAD_REACTORS
330
1A
102
}
330
1A
100
AcDbPlotSettings
  1

  2
none_device
  4

  6

 40
0.0
 41
0.0
 42
0.0
 43
0.0
 44
0.0
 45
0.0
 46
0.0
 47
0.0
 48
0.0
 49
0.0
140
0.0
141
0.0
142
1.0
143
1.0
 70
   688
 72
     0
 73
     0
 74
     5
  7

 75
    16
147
1.0
148
0.0
149
0.0
100
AcDbLayout
  1
Layout2
 70
     1
 71
     2
 10
0.0
 20
0.0
 11
0.0
 21
0.0
 12
0.0
 22
0.0
 32
0.0
 14
0.0
 24
0.0
 34
0.0
 15
0.0
 25
0.0
 35
0.0
146
0.0
 13
0.0
 23
0.0
 33
0.0
 16
1.0
 26
0.0
 36
0.0
 17
0.0
 27
1.0
 37
0.0
 76
     0
330
23
  0
LAYOUT
  5
22
102
{ACAD_REACTORS
330
1A
102
}
330
1A
100
AcDbPlotSettings
  1

  2
none_device
  4
ANSI_A_(11.00_x_8.50_Inches)
  6

 40
6.35
 41
19.05
 42
6.35000508
 43
19.05000254
 44
279.4
 45
215.9
 46
250.3227989507
 47
189.226381346
 48
0.0
 49
0.0
140
0.0
141
0.0
142
0.2959037684
143
1.0
 70
  1696
 72
     0
 73
     0
 74
     0
  7

 75
     0
147
0.0179189148
148
0.0
149
0.0
100
AcDbLayout
  1
Model
 70
     1
 71
     0
 10
0.0
 20
0.0
 11
420.0
 21
297.0
 12
0.0
 22
0.0
 32
0.0
 14
-32.0673917124
 24
-27.5676028994
 34
0.0
 15
0.9408641237
 25
0.8706966393
 35
0.0
146
0.0
 13
0.0
 23
0.0
 33
0.0
 16
1.0
 26
0.0
 36
0.0
 17
0.0
 27
1.0
 37
0.0
 76
     0
330
1F
331
29
  0
MLINESTYLE
  5
18
102
{ACAD_REACTORS
330
17
102
}
330
17
100
AcDbMlineStyle
  2
Standard
 70
     0
  3

 62
   256
 51
90.0
 52
90.0
 71
     2
 49
0.5
 62
   256
  6
BYLAYER
 49
-0.5
 62
   256
  6
BYLAYER
  0
ACDBPLACEHOLDER
  5
F
102
{ACAD_REACTORS
330
E
102
}
330
E
  0
ENDSEC
  0
EOF
