  0
SECTION
  2
HEADER
  9
$ACADVER
  1
AC1015
  9
$ACADMAINTVER
 70
     6
  9
$DWGCODEPAGE
  3
ANSI_1252
  9
$INSBASE
 10
0.0
 20
0.0
 30
0.0
  9
$EXTMIN
 10
-153.544567736
 20
-108.2435512607
 30
0.0
  9
$EXTMAX
 10
-1.5091332573
 20
65.1894898974
 30
0.0
  9
$LIMMIN
 10
0.0
 20
0.0
  9
$LIMMAX
 10
420.0
 20
297.0
  9
$ORTHOMODE
 70
     0
  9
$REGENMODE
 70
     1
  9
$FILLMODE
 70
     1
  9
$QTEXTMODE
 70
     0
  9
$MIRRTEXT
 70
     1
  9
$LTSCALE
 40
1.0
  9
$ATTMODE
 70
     1
  9
$TEXTSIZE
 40
2.5
  9
$TRACEWID
 40
1.0
  9
$TEXTSTYLE
  7
Standard
  9
$CLAYER
  8
0
  9
$CELTYPE
  6
ByLayer
  9
$CECOLOR
 62
   256
  9
$CELTSCALE
 40
1.0
  9
$DISPSILH
 70
     0
  9
$DIMSCALE
 40
1.0
  9
$DIMASZ
 40
6.0
  9
$DIMEXO
 40
1.0
  9
$DIMDLI
 40
3.75
  9
$DIMRND
 40
0.0
  9
$DIMDLE
 40
0.0
  9
$DIMEXE
 40
1.0
  9
$DIMTP
 40
0.0
  9
$DIMTM
 40
0.0
  9
$DIMTXT
 40
2.5
  9
$DIMCEN
 40
2.5
  9
$DIMTSZ
 40
0.0
  9
$DIMTOL
 70
     0
  9
$DIMLIM
 70
     0
  9
$DIMTIH
 70
     1
  9
$DIMTOH
 70
     1
  9
$DIMSE1
 70
     0
  9
$DIMSE2
 70
     0
  9
$DIMTAD
 70
     1
  9
$DIMZIN
 70
     0
  9
$DIMBLK
  1

  9
$DIMASO
 70
     1
  9
$DIMSHO
 70
     1
  9
$DIMPOST
  1

  9
$DIMAPOST
  1

  9
$DIMALT
 70
     0
  9
$DIMALTD
 70
     3
  9
$DIMALTF
 40
0.0393700787
  9
$DIMLFAC
 40
1.0
  9
$DIMTOFL
 70
     1
  9
$DIMTVP
 40
0.0
  9
$DIMTIX
 70
     0
  9
$DIMSOXD
 70
     0
  9
$DIMSAH
 70
     0
  9
$DIMBLK1
  1

  9
$DIMBLK2
  1

  9
$DIMSTYLE
  2
ISO-25
  9
$DIMCLRD
 70
     0
  9
$DIMCLRE
 70
     0
  9
$DIMCLRT
 70
     0
  9
$DIMTFAC
 40
1.0
  9
$DIMGAP
 40
1.524
  9
$DIMJUST
 70
     0
  9
$DIMSD1
 70
     0
  9
$DIMSD2
 70
     0
  9
$DIMTOLJ
 70
     0
  9
$DIMTZIN
 70
     0
  9
$DIMALTZ
 70
     0
  9
$DIMALTTZ
 70
     0
  9
$DIMUPT
 70
     0
  9
$DIMDEC
 70
     2
  9
$DIMTDEC
 70
     2
  9
$DIMALTU
 70
     2
  9
$DIMALTTD
 70
     3
  9
$DIMTXSTY
  7
Standard
  9
$DIMAUNIT
 70
     0
  9
$DIMADEC
 70
     2
  9
$DIMALTRND
 40
0.0
  9
$DIMAZIN
 70
     0
  9
$DIMDSEP
 70
    44
  9
$DIMATFIT
 70
     3
  9
$DIMFRAC
 70
     0
  9
$DIMLDRBLK
  1

  9
$DIMLUNIT
 70
     2
  9
$DIMLWD
 70
    -2
  9
$DIMLWE
 70
    -2
  9
$DIMTMOVE
 70
     0
  9
$LUNITS
 70
     2
  9
$LUPREC
 70
     2
  9
$SKETCHINC
 40
1.0
  9
$FILLETRAD
 40
10.0
  9
$AUNITS
 70
     0
  9
$AUPREC
 70
     2
  9
$MENU
  1
.
  9
$ELEVATION
 40
0.0
  9
$PELEVATION
 40
0.0
  9
$THICKNESS
 40
0.0
  9
$LIMCHECK
 70
     0
  9
$CHAMFERA
 40
10.0
  9
$CHAMFERB
 40
10.0
  9
$CHAMFERC
 40
20.0
  9
$CHAMFERD
 40
0.0
  9
$SKPOLY
 70
     0
  9
$TDCREATE
 40
2456523.658013738
  9
$TDUCREATE
 40
2456523.158013738
  9
$TDUPDATE
 40
2456523.658038831
  9
$TDUUPDATE
 40
2456523.158038831
  9
$TDINDWG
 40
0.0000000116
  9
$TDUSRTIMER
 40
0.0000000116
  9
$USRTIMER
 70
     1
  9
$ANGBASE
 50
0.0
  9
$ANGDIR
 70
     0
  9
$PDMODE
 70
     0
  9
$PDSIZE
 40
-1.0
  9
$PLINEWID
 40
0.0
  9
$SPLFRAME
 70
     0
  9
$SPLINETYPE
 70
     6
  9
$SPLINESEGS
 70
     8
  9
$HANDSEED
  5
26E
  9
$SURFTAB1
 70
     6
  9
$SURFTAB2
 70
     6
  9
$SURFTYPE
 70
     6
  9
$SURFU
 70
     6
  9
$SURFV
 70
     6
  9
$UCSBASE
  2

  9
$UCSNAME
  2

  9
$UCSORG
 10
0.0
 20
0.0
 30
0.0
  9
$UCSXDIR
 10
1.0
 20
0.0
 30
0.0
  9
$UCSYDIR
 10
0.0
 20
1.0
 30
0.0
  9
$UCSORTHOREF
  2

  9
$UCSORTHOVIEW
 70
     0
  9
$UCSORGTOP
 10
0.0
 20
0.0
 30
0.0
  9
$UCSORGBOTTOM
 10
0.0
 20
0.0
 30
0.0
  9
$UCSORGLEFT
 10
0.0
 20
0.0
 30
0.0
  9
$UCSORGRIGHT
 10
0.0
 20
0.0
 30
0.0
  9
$UCSORGFRONT
 10
0.0
 20
0.0
 30
0.0
  9
$UCSORGBACK
 10
0.0
 20
0.0
 30
0.0
  9
$PUCSBASE
  2

  9
$PUCSNAME
  2

  9
$PUCSORG
 10
0.0
 20
0.0
 30
0.0
  9
$PUCSXDIR
 10
1.0
 20
0.0
 30
0.0
  9
$PUCSYDIR
 10
0.0
 20
1.0
 30
0.0
  9
$PUCSORTHOREF
  2

  9
$PUCSORTHOVIEW
 70
     0
  9
$PUCSORGTOP
 10
0.0
 20
0.0
 30
0.0
  9
$PUCSORGBOTTOM
 10
0.0
 20
0.0
 30
0.0
  9
$PUCSORGLEFT
 10
0.0
 20
0.0
 30
0.0
  9
$PUCSORGRIGHT
 10
0.0
 20
0.0
 30
0.0
  9
$PUCSORGFRONT
 10
0.0
 20
0.0
 30
0.0
  9
$PUCSORGBACK
 10
0.0
 20
0.0
 30
0.0
  9
$USERI1
 70
     0
  9
$USERI2
 70
     0
  9
$USERI3
 70
     0
  9
$USERI4
 70
     0
  9
$USERI5
 70
     0
  9
$USERR1
 40
0.0
  9
$USERR2
 40
0.0
  9
$USERR3
 40
0.0
  9
$USERR4
 40
0.0
  9
$USERR5
 40
0.0
  9
$WORLDVIEW
 70
     1
  9
$SHADEDGE
 70
     3
  9
$SHADEDIF
 70
    70
  9
$TILEMODE
 70
     1
  9
$MAXACTVP
 70
    64
  9
$PINSBASE
 10
0.0
 20
0.0
 30
0.0
  9
$PLIMCHECK
 70
     0
  9
$PEXTMIN
 10
1.0000000000E+20
 20
1.0000000000E+20
 30
1.0000000000E+20
  9
$PEXTMAX
 10
-1.0000000000E+20
 20
-1.0000000000E+20
 30
-1.0000000000E+20
  9
$PLIMMIN
 10
0.0
 20
0.0
  9
$PLIMMAX
 10
420.0
 20
297.0
  9
$UNITMODE
 70
     0
  9
$VISRETAIN
 70
     1
  9
$PLINEGEN
 70
     0
  9
$PSLTSCALE
 70
     1
  9
$TREEDEPTH
 70
  3020
  9
$CMLSTYLE
  2
Standard
  9
$CMLJUST
 70
     0
  9
$CMLSCALE
 40
20.0
  9
$PROXYGRAPHICS
 70
     1
  9
$MEASUREMENT
 70
     1
  9
$CELWEIGHT
370
    -1
  9
$ENDCAPS
280
     0
  9
$JOINSTYLE
280
     0
  9
$LWDISPLAY
290
     1
  9
$INSUNITS
 70
     4
  9
$HYPERLINKBASE
  1

  9
$STYLESHEET
  1

  9
$XEDIT
290
     1
  9
$CEPSNTYPE
380
     0
  9
$PSTYLEMODE
290
     1
  9
$FINGERPRINTGUID
  2
{261AA86F-6BDC-48B4-B8BC-076F8B552F93}
  9
$VERSIONGUID
  2
{FAEB1C32-E019-11D5-929B-00C0DF256EC4}
  9
$EXTNAMES
290
     1
  9
$PSVPSCALE
 40
0.0
  9
$OLESTARTUP
290
     0
  0
ENDSEC
  0
SECTION
  2
CLASSES
  0
CLASS
  1
ACDBDICTIONARYWDFLT
  2
AcDbDictionaryWithDefault
  3
ObjectDBX Classes
 90
        0
280
     0
281
     0
  0
CLASS
  1
VISUALSTYLE
  2
AcDbVisualStyle
  3
ObjectDBX Classes
 90
     4095
280
     0
281
     0
  0
CLASS
  1
MATERIAL
  2
AcDbMaterial
  3
ObjectDBX Classes
 90
     1153
280
     0
281
     0
  0
CLASS
  1
ACDBPLACEHOLDER
  2
AcDbPlaceHolder
  3
ObjectDBX Classes
 90
        0
280
     0
281
     0
  0
CLASS
  1
LAYOUT
  2
AcDbLayout
  3
ObjectDBX Classes
 90
        0
280
     0
281
     0
  0
ENDSEC
  0
SECTION
  2
TABLES
  0
TABLE
  2
VPORT
  5
8
330
0
100
AcDbSymbolTable
 70
     1
  0
VPORT
  5
29
330
8
100
AcDbSymbolTableRecord
100
AcDbViewportTableRecord
  2
*Active
 70
     0
 10
0.0
 20
0.0
 11
1.0
 21
1.0
 12
-77.5268504966
 22
-21.5270306816
 13
0.0
 23
0.0
 14
10.0
 24
10.0
 15
10.0
 25
10.0
 16
0.0
 26
0.0
 36
1.0
 17
0.0
 27
0.0
 37
0.0
 40
176.9017019813
 41
0.8766232401
 42
50.0
 43
0.0
 44
0.0
 50
0.0
 51
0.0
 71
     0
 72
   100
 73
     1
 74
     3
 75
     0
 76
     0
 77
     0
 78
     0
281
     0
 65
     1
110
0.0
120
0.0
130
0.0
111
1.0
121
0.0
131
0.0
112
0.0
122
1.0
132
0.0
 79
     0
146
0.0
  0
ENDTAB
  0
TABLE
  2
LTYPE
  5
5
330
0
100
AcDbSymbolTable
 70
     6
  0
LTYPE
  5
14
330
5
100
AcDbSymbolTableRecord
100
AcDbLinetypeTableRecord
  2
ByBlock
 70
     0
  3

 72
    65
 73
     0
 40
0.0
  0
LTYPE
  5
15
330
5
100
AcDbSymbolTableRecord
100
AcDbLinetypeTableRecord
  2
ByLayer
 70
     0
  3

 72
    65
 73
     0
 40
0.0
  0
LTYPE
  5
16
330
5
100
AcDbSymbolTableRecord
100
AcDbLinetypeTableRecord
  2
Continuous
 70
     0
  3
Solid line
 72
    65
 73
     0
 40
0.0
  0
LTYPE
  5
3F
330
5
100
AcDbSymbolTableRecord
100
AcDbLinetypeTableRecord
  2
HIDDEN
 70
     0
  3
Hidden __ __ __ __ __ __ __ __ __ __ __ __ __ __
 72
    65
 73
     2
 40
1.905
 49
1.27
 74
     0
 49
-0.635
 74
     0
  0
LTYPE
  5
40
330
5
100
AcDbSymbolTableRecord
100
AcDbLinetypeTableRecord
  2
PHANTOM
 70
     0
  3
Phantom ______  __  __  ______  __  __  ______
 72
    65
 73
     6
 40
12.7
 49
6.35
 74
     0
 49
-1.27
 74
     0
 49
1.27
 74
     0
 49
-1.27
 74
     0
 49
1.27
 74
     0
 49
-1.27
 74
     0
  0
LTYPE
  5
41
330
5
100
AcDbSymbolTableRecord
100
AcDbLinetypeTableRecord
  2
CENTER
 70
     0
  3
Center ____ _ ____ _ ____ _ ____ _ ____ _ ____
 72
    65
 73
     4
 40
10.16
 49
6.35
 74
     0
 49
-1.27
 74
     0
 49
1.27
 74
     0
 49
-1.27
 74
     0
  0
LTYPE
  5
42
330
5
100
AcDbSymbolTableRecord
100
AcDbLinetypeTableRecord
  2
CENTERX2
 70
     0
  3
Center (2x) ________  __  ________  __  _____
 72
    65
 73
     4
 40
20.32
 49
12.7
 74
     0
 49
-2.54
 74
     0
 49
2.54
 74
     0
 49
-2.54
 74
     0
  0
LTYPE
  5
43
330
5
100
AcDbSymbolTableRecord
100
AcDbLinetypeTableRecord
  2
DOT2
 70
     0
  3
Dot (.5x) ........................................
 72
    65
 73
     2
 40
0.635
 49
0.0
 74
     0
 49
-0.635
 74
     0
  0
ENDTAB
  0
TABLE
  2
LAYER
  5
2
330
0
100
AcDbSymbolTable
 70
     1
  0
LAYER
  5
10
330
2
100
AcDbSymbolTableRecord
100
AcDbLayerTableRecord
  2
0
 70
     0
 62
     7
  6
Continuous
370
    -3
390
F
  0
ENDTAB
  0
TABLE
  2
STYLE
  5
3
330
0
100
AcDbSymbolTable
 70
     2
  0
STYLE
  5
11
330
3
100
AcDbSymbolTableRecord
100
AcDbTextStyleTableRecord
  2
Standard
 70
     0
 40
0.0
 41
1.0
 50
0.0
 71
     0
 42
2.5
  3
txt
  4

  0
STYLE
  5
26B
330
3
100
AcDbSymbolTableRecord
100
AcDbTextStyleTableRecord
  2
SLDTEXTSTYLE0
 70
     0
 40
0.0
 41
0.7
 50
0.0
 71
     0
 42
0.2
  3
TXT
  4

  0
ENDTAB
  0
TABLE
  2
VIEW
  5
6
330
0
100
AcDbSymbolTable
 70
     0
  0
ENDTAB
  0
TABLE
  2
UCS
  5
7
330
0
100
AcDbSymbolTable
 70
     0
  0
ENDTAB
  0
TABLE
  2
APPID
  5
9
330
0
100
AcDbSymbolTable
 70
     1
  0
APPID
  5
12
330
9
100
AcDbSymbolTableRecord
100
AcDbRegAppTableRecord
  2
ACAD
 70
     0
  0
ENDTAB
  0
TABLE
  2
DIMSTYLE
  5
A
330
0
100
AcDbSymbolTable
 70
     1
100
AcDbDimStyleTable
  0
DIMSTYLE
105
27
330
A
100
AcDbSymbolTableRecord
100
AcDbDimStyleTableRecord
  2
ISO-25
 70
     0
 41
2.5
 42
0.625
 43
3.75
 44
1.25
 73
     0
 74
     0
 77
     1
 78
     8
140
2.5
141
2.5
143
0.0393700787
147
0.625
171
     3
172
     1
178
     0
271
     2
272
     2
274
     3
278
    44
283
     0
284
     8
340
11
  0
ENDTAB
  0
TABLE
  2
BLOCK_RECORD
  5
1
330
0
100
AcDbSymbolTable
 70
     1
  0
BLOCK_RECORD
  5
1F
330
1
100
AcDbSymbolTableRecord
100
AcDbBlockTableRecord
  2
*Model_Space
340
22
  0
BLOCK_RECORD
  5
1B
330
1
100
AcDbSymbolTableRecord
100
AcDbBlockTableRecord
  2
*Paper_Space
340
1E
  0
BLOCK_RECORD
  5
23
330
1
100
AcDbSymbolTableRecord
100
AcDbBlockTableRecord
  2
*Paper_Space0
340
26
  0
ENDTAB
  0
ENDSEC
  0
SECTION
  2
BLOCKS
  0
BLOCK
  5
20
330
1F
100
AcDbEntity
  8
0
100
AcDbBlockBegin
  2
*Model_Space
 70
     0
 10
0.0
 20
0.0
 30
0.0
  3
*Model_Space
  1

  0
ENDBLK
  5
21
330
1F
100
AcDbEntity
  8
0
100
AcDbBlockEnd
  0
BLOCK
  5
1C
330
1B
100
AcDbEntity
 67
     1
  8
0
100
AcDbBlockBegin
  2
*Paper_Space
 70
     0
 10
0.0
 20
0.0
 30
0.0
  3
*Paper_Space
  1

  0
ENDBLK
  5
1D
330
1B
100
AcDbEntity
 67
     1
  8
0
100
AcDbBlockEnd
  0
BLOCK
  5
24
330
23
100
AcDbEntity
  8
0
100
AcDbBlockBegin
  2
*Paper_Space0
 70
     0
 10
0.0
 20
0.0
 30
0.0
  3
*Paper_Space0
  1

  0
ENDBLK
  5
25
330
23
100
AcDbEntity
  8
0
100
AcDbBlockEnd
  0
ENDSEC
  0
SECTION
  2
ENTITIES
  0
SPLINE
  5
51
330
1F
100
AcDbEntity
  8
0
  6
Continuous
 62
     7
370
    15
100
AcDbSpline
210
0.0
220
0.0
230
1.0
 70
     8
 71
     3
 72
    11
 73
     7
 74
     0
 42
0.00000001
 43
0.00000001
 12
1.0
 22
0.0
 32
0.0
 13
1.0
 23
0.0
 33
0.0
 40
0.0
 40
0.0
 40
0.0
 40
0.0
 40
0.1106079938494711
 40
0.4328696534033672
 40
0.7529798973415577
 40
1.0
 40
1.0
 40
1.0
 40
1.0
 10
-110.8519474020902
 20
20.39552589631308
 30
0.0
 10
-110.8853737230279
 20
20.36929258585176
 30
0.0
 10
-111.0161892224805
 20
20.26662727558067
 30
0.0
 10
-111.3161039153272
 20
20.21574736225452
 30
0.0
 10
-111.6679442443371
 20
20.25451391101699
 30
0.0
 10
-111.8621698103293
 20
20.37011450984179
 30
0.0
 10
-111.9467669748757
 20
20.42046567154639
 30
0.0
  0
SPLINE
  5
56
330
1F
100
AcDbEntity
  8
0
  6
Continuous
 62
     7
370
    15
100
AcDbSpline
210
0.0
220
0.0
230
1.0
 70
     8
 71
     3
 72
    18
 73
    14
 74
     0
 42
0.00000001
 43
0.00000001
 12
1.0
 22
0.0
 32
0.0
 13
1.0
 23
0.0
 33
0.0
 40
0.0
 40
0.0
 40
0.0
 40
0.0
 40
0.1249999999999998
 40
0.1249999999999998
 40
0.2499999999999997
 40
0.2499999999999997
 40
0.4999999999999997
 40
0.4999999999999997
 40
0.7499999999999998
 40
0.7499999999999998
 40
0.875
 40
0.875
 40
1.0
 40
1.0
 40
1.0
 40
1.0
 10
-122.9298699808403
 20
-14.03730157024852
 30
0.0
 10
-124.8542743064312
 20
-17.5929455114296
 30
0.0
 10
-126.6980189155424
 20
-21.18949509146552
 30
0.0
 10
-130.2224739542262
 20
-28.46527514306859
 30
0.0
 10
-131.9037482814396
 20
-32.14609282104519
 30
0.0
 10
-136.6885563437381
 20
-43.28467099615942
 30
0.0
 10
-139.5378288670029
 20
-50.84807370927897
 30
0.0
 10
-144.5546411913486
 20
-66.24170858156604
 30
0.0
 10
-146.7105159986878
 20
-74.03557847903834
 30
0.0
 10
-149.4326297838823
 20
-85.86725474278865
 30
0.0
 10
-150.254937203278
 20
-89.83634974144658
 30
0.0
 10
-151.7285381918497
 20
-97.80171274173186
 30
0.0
 10
-152.3803716228425
 20
-101.7999842292221
 30
0.0
 10
-152.9495006681557
 20
-105.8134305418312
 30
0.0
  0
SPLINE
  5
58
330
1F
100
AcDbEntity
  8
0
  6
Continuous
 62
     7
370
    15
100
AcDbSpline
210
0.0
220
0.0
230
1.0
 70
     8
 71
     3
 72
    18
 73
    14
 74
     0
 42
0.00000001
 43
0.00000001
 12
1.0
 22
0.0
 32
0.0
 13
1.0
 23
0.0
 33
0.0
 40
0.0
 40
0.0
 40
0.0
 40
0.0
 40
0.125
 40
0.125
 40
0.2500000000000001
 40
0.2500000000000001
 40
0.5000000000000001
 40
0.5000000000000001
 40
0.7499999999999999
 40
0.7499999999999999
 40
0.875
 40
0.875
 40
1.0
 40
1.0
 40
1.0
 40
1.0
 10
-151.7054439289107
 20
-104.7632814803364
 30
0.0
 10
-151.1297751556196
 20
-100.8130001035761
 30
0.0
 10
-150.4734217647238
 20
-96.87768493556914
 30
0.0
 10
-148.9950007012177
 20
-89.03779298076306
 30
0.0
 10
-148.1725280780945
 20
-85.13190850931407
 30
0.0
 10
-145.4567757486969
 20
-73.489255557391
 30
0.0
 10
-143.3136922111722
 20
-65.81853597187614
 30
0.0
 10
-138.341244975889
 20
-50.6680828110824
 30
0.0
 10
-135.523989663573
 20
-43.22526690648807
 30
0.0
 10
-130.8001163707019
 20
-32.26023616752852
 30
0.0
 10
-129.1414808514582
 20
-28.63652120765975
 30
0.0
 10
-125.6667604251435
 20
-21.47294804860472
 30
0.0
 10
-123.8500543431773
 20
-17.93140083604065
 30
0.0
 10
-121.9548307277053
 20
-14.42967290948662
 30
0.0
  0
SPLINE
  5
59
330
1F
100
AcDbEntity
  8
0
  6
Continuous
 62
     7
370
    15
100
AcDbSpline
210
0.0
220
0.0
230
1.0
 70
     8
 71
     3
 72
    12
 73
     8
 74
     0
 42
0.00000001
 43
0.00000001
 12
1.0
 22
0.0
 32
0.0
 13
1.0
 23
0.0
 33
0.0
 40
0.0
 40
0.0
 40
0.0
 40
0.0
 40
0.2499999999999928
 40
0.2499999999999928
 40
0.4999999999999856
 40
0.4999999999999856
 40
1.0
 40
1.0
 40
1.0
 40
1.0
 10
-152.9495006681557
 20
-105.8134305418312
 30
0.0
 10
-152.9328061570986
 20
-105.798601669052
 30
0.0
 10
-152.8670267592825
 20
-105.7424797279191
 30
0.0
 10
-152.6846182929993
 20
-105.5877451539482
 30
0.0
 10
-152.5724411479243
 20
-105.4928928550745
 30
0.0
 10
-152.2178155622994
 20
-105.1936222460715
 30
0.0
 10
-151.9564797025627
 20
-104.973816599986
 30
0.0
 10
-151.7054439289107
 20
-104.7632814803363
 30
0.0
  0
SPLINE
  5
5B
330
1F
100
AcDbEntity
  8
0
  6
Continuous
 62
     7
370
    15
100
AcDbSpline
210
0.0
220
0.0
230
1.0
 70
     8
 71
     3
 72
     8
 73
     4
 74
     0
 42
0.00000001
 43
0.00000001
 12
1.0
 22
0.0
 32
0.0
 13
1.0
 23
0.0
 33
0.0
 40
0.0
 40
0.0
 40
0.0
 40
0.0
 40
1.0
 40
1.0
 40
1.0
 40
1.0
 10
-153.5445677359615
 20
-106.341997914271
 30
0.0
 10
-153.1506222535466
 20
-103.563930168849
 30
0.0
 10
-152.7170487390079
 20
-100.7931334822995
 30
0.0
 10
-152.2431019795685
 20
-98.02974458828506
 30
0.0
  0
SPLINE
  5
5C
330
1F
100
AcDbEntity
  8
0
  6
Continuous
 62
     7
370
    15
100
AcDbSpline
210
0.0
220
0.0
230
1.0
 70
     8
 71
     3
 72
     8
 73
     4
 74
     0
 42
0.00000001
 43
0.00000001
 12
1.0
 22
0.0
 32
0.0
 13
1.0
 23
0.0
 33
0.0
 40
0.0
 40
0.0
 40
0.0
 40
0.0
 40
1.0
 40
1.0
 40
1.0
 40
1.0
 10
-152.2431019795685
 20
-98.02974458828506
 30
0.0
 10
-152.232200568935
 20
-97.96618294037384
 30
0.0
 10
-152.221667833285
 20
-97.90340168568343
 30
0.0
 10
-152.2114916632335
 20
-97.84137457901629
 30
0.0
  0
SPLINE
  5
5D
330
1F
100
AcDbEntity
  8
0
  6
Continuous
 62
     7
370
    15
100
AcDbSpline
210
0.0
220
0.0
230
1.0
 70
     8
 71
     3
 72
     8
 73
     4
 74
     0
 42
0.00000001
 43
0.00000001
 12
1.0
 22
0.0
 32
0.0
 13
1.0
 23
0.0
 33
0.0
 40
0.0
 40
0.0
 40
0.0
 40
0.0
 40
1.0
 40
1.0
 40
1.0
 40
1.0
 10
-152.2114916632337
 20
-97.84137457901652
 30
0.0
 10
-152.1079166437172
 20
-97.24292773639768
 30
0.0
 10
-152.0027810837557
 20
-96.6450837719046
 30
0.0
 10
-151.896019277614
 20
-96.04779913362057
 30
0.0
  0
SPLINE
  5
5E
330
1F
100
AcDbEntity
  8
0
  6
Continuous
 62
     7
370
    15
100
AcDbSpline
210
0.0
220
0.0
230
1.0
 70
     8
 71
     3
 72
    19
 73
    15
 74
     0
 42
0.00000001
 43
0.00000001
 12
1.0
 22
0.0
 32
0.0
 13
1.0
 23
0.0
 33
0.0
 40
0.0
 40
0.0
 40
0.0
 40
0.0
 40
0.125
 40
0.125
 40
0.25
 40
0.375
 40
0.375
 40
0.5
 40
0.5
 40
0.7499999999999998
 40
0.7499999999999998
 40
0.8749999999999999
 40
0.8749999999999999
 40
1.0
 40
1.0
 40
1.0
 40
1.0
 10
-151.896019277614
 20
-96.04779913362057
 30
0.0
 10
-151.2597575413704
 20
-92.48819879788108
 30
0.0
 10
-150.555604319443
 20
-88.93909039100589
 30
0.0
 10
-149.0112698742458
 20
-81.87617848075875
 30
0.0
 10
-147.3315181932104
 20
-74.85054715807996
 30
0.0
 10
-145.3769647673271
 20
-67.90056920736156
 30
0.0
 10
-143.2829778099942
 20
-60.98897753699356
 30
0.0
 10
-142.1654075277569
 20
-57.55009680160092
 30
0.0
 10
-138.6103075536918
 20
-47.31916080217595
 30
0.0
 10
-135.9690552176713
 20
-40.60700947694979
 30
0.0
 10
-131.5993386371022
 20
-30.70191531307284
 30
0.0
 10
-130.0745270589755
 20
-27.42710358108724
 30
0.0
 10
-126.8967768331288
 20
-20.94727112862448
 30
0.0
 10
-125.2430020265148
 20
-17.74026802864455
 30
0.0
 10
-123.5249370486461
 20
-14.56586894268831
 30
0.0
  0
SPLINE
  5
60
330
1F
100
AcDbEntity
  8
0
  6
Continuous
 62
     7
370
    15
100
AcDbSpline
210
0.0
220
0.0
230
1.0
 70
     8
 71
     3
 72
    29
 73
    25
 74
     0
 42
0.00000001
 43
0.00000001
 12
1.0
 22
0.0
 32
0.0
 13
1.0
 23
0.0
 33
0.0
 40
0.0
 40
0.0
 40
0.0
 40
0.0
 40
0.0625
 40
0.0625
 40
0.1249999999999999
 40
0.1249999999999999
 40
0.2500000000000004
 40
0.2500000000000004
 40
0.3750000000000009
 40
0.3750000000000009
 40
0.5000000000000014
 40
0.5000000000000014
 40
0.5312500000000012
 40
0.5312500000000012
 40
0.562500000000001
 40
0.625000000000001
 40
0.625000000000001
 40
0.7500000000000007
 40
0.7500000000000007
 40
0.8125000000000006
 40
0.8125000000000006
 40
0.8750000000000002
 40
0.8750000000000002
 40
1.0
 40
1.0
 40
1.0
 40
1.0
 10
-89.483838907822
 20
-107.7114942836167
 30
0.0
 10
-89.69394013389888
 20
-106.1077070835983
 30
0.0
 10
-89.87515920727594
 20
-104.4990154141196
 30
0.0
 10
-90.17444321745003
 20
-101.2838310919425
 30
0.0
 10
-90.29245365064648
 20
-99.67869573839405
 30
0.0
 10
-90.54650118452075
 20
-94.87105536420759
 30
0.0
 10
-90.58273653581121
 20
-91.67630189291594
 30
0.0
 10
-90.35788305887192
 20
-85.30988796286567
 30
0.0
 10
-90.0968524377955
 20
-82.13822298318814
 30
0.0
 10
-89.2399820651654
 20
-75.8208974727775
 30
0.0
 10
-88.64422559339376
 20
-72.67523047374759
 30
0.0
 10
-87.66147896964357
 20
-68.76163602348065
 30
0.0
 10
-87.45263553806562
 20
-67.97858757252543
 30
0.0
 10
-87.01234212339767
 20
-66.421586950022
 30
0.0
 10
-86.31831231068173
 20
-64.10032955455127
 30
0.0
 10
-85.52299143454655
 20
-61.82202412169173
 30
0.0
 10
-83.79588005373476
 20
-57.32328251101643
 30
0.0
 10
-82.46252150216482
 20
-54.40127682246171
 30
0.0
 10
-80.1837466222626
 20
-50.13646532553018
 30
0.0
 10
-79.37584540477499
 20
-48.73186263501758
 30
0.0
 10
-77.68157261922057
 20
-45.9862967016202
 30
0.0
 10
-76.79419497017909
 20
-44.64300802692733
 30
0.0
 10
-74.0151533498784
 20
-40.69882865542309
 30
0.0
 10
-72.00664065253348
 20
-38.1835806737657
 30
0.0
 10
-69.85171298541646
 20
-35.77564559119188
 30
0.0
  0
SPLINE
  5
61
330
1F
100
AcDbEntity
  8
0
  6
Continuous
 62
     7
370
    15
100
AcDbSpline
210
0.0
220
0.0
230
1.0
 70
     8
 71
     3
 72
    12
 73
     8
 74
     0
 42
0.00000001
 43
0.00000001
 12
1.0
 22
0.0
 32
0.0
 13
1.0
 23
0.0
 33
0.0
 40
0.0
 40
0.0
 40
0.0
 40
0.0
 40
0.2499999999999937
 40
0.2499999999999937
 40
0.4999999999999873
 40
0.4999999999999873
 40
1.0
 40
1.0
 40
1.0
 40
1.0
 10
-89.483838907822
 20
-107.7114942836167
 30
0.0
 10
-89.46698385697886
 20
-107.6965228116289
 30
0.0
 10
-89.50171165843246
 20
-107.6365011318575
 30
0.0
 10
-89.63215824071717
 20
-107.4711933971676
 30
0.0
 10
-89.72338043554008
 20
-107.3703256083324
 30
0.0
 10
-90.0272592872501
 20
-107.0522150410378
 30
0.0
 10
-90.27073518794059
 20
-106.8182621559121
 30
0.0
 10
-90.51701826975466
 20
-106.593240058554
 30
0.0
  0
SPLINE
  5
62
330
1F
100
AcDbEntity
  8
0
  6
Continuous
 62
     7
370
    15
100
AcDbSpline
210
0.0
220
0.0
230
1.0
 70
     8
 71
     3
 72
    33
 73
    29
 74
     0
 42
0.00000001
 43
0.00000001
 12
1.0
 22
0.0
 32
0.0
 13
1.0
 23
0.0
 33
0.0
 40
0.0
 40
0.0
 40
0.0
 40
0.0
 40
0.0312499999999999
 40
0.0312499999999999
 40
0.0624999999999998
 40
0.0624999999999998
 40
0.1249999999999997
 40
0.1874999999999995
 40
0.1874999999999995
 40
0.2187499999999994
 40
0.2187499999999994
 40
0.2499999999999993
 40
0.2499999999999993
 40
0.3749999999999997
 40
0.3749999999999997
 40
0.5
 40
0.5
 40
0.5624999999999999
 40
0.5624999999999999
 40
0.6249999999999999
 40
0.6249999999999999
 40
0.7500000000000002
 40
0.7500000000000002
 40
0.8125000000000001
 40
0.8125000000000001
 40
0.8750000000000001
 40
0.8750000000000001
 40
1.0
 40
1.0
 40
1.0
 40
1.0
 10
-69.72022187633944
 20
-34.15208209868751
 30
0.0
 10
-70.26127700638914
 20
-34.75666184822325
 30
0.0
 10
-70.80440946515176
 20
-35.35969859233741
 30
0.0
 10
-71.86748179985487
 20
-36.58299914762178
 30
0.0
 10
-72.38986157611714
 20
-37.20145064117402
 30
0.0
 10
-73.92910015566012
 20
-39.07752933706036
 30
0.0
 10
-75.90702430791035
 20
-41.63422619710642
 30
0.0
 10
-77.73136387940332
 20
-44.30500314438397
 30
0.0
 10
-79.04011952100417
 20
-46.35228075578743
 30
0.0
 10
-79.4664537578845
 20
-47.04207328798342
 30
0.0
 10
-80.29895522342665
 20
-48.43663807264037
 30
0.0
 10
-80.70540173096973
 20
-49.14196854342165
 30
0.0
 10
-82.67720624213739
 20
-52.68967271452184
 30
0.0
 10
-84.06856315536292
 20
-55.60674768718505
 30
0.0
 10
-86.48681171354905
 20
-61.59545220931977
 30
0.0
 10
-87.51409127816966
 20
-64.66853832260205
 30
0.0
 10
-88.78590654433152
 20
-69.3873184227641
 30
0.0
 10
-89.16362646428114
 20
-70.97354295975782
 30
0.0
 10
-89.82796433907872
 20
-74.16189163123944
 30
0.0
 10
-90.11428700530077
 20
-75.76208307693656
 30
0.0
 10
-90.84307725081085
 20
-80.57974263894384
 30
0.0
 10
-91.15554883062647
 20
-83.81427212584383
 30
0.0
 10
-91.38991403982807
 20
-88.69682267532453
 30
0.0
 10
-91.42879957517468
 20
-90.32913190042133
 30
0.0
 10
-91.43263969274666
 20
-93.58756455311986
 30
0.0
 10
-91.39771862085345
 20
-95.21574733786903
 30
0.0
 10
-91.18974404932743
 20
-100.0974001992827
 30
0.0
 10
-90.91328606530998
 20
-103.3508999653247
 30
0.0
 10
-90.51701826975469
 20
-106.593240058554
 30
0.0
  0
SPLINE
  5
63
330
1F
100
AcDbEntity
  8
0
  6
Continuous
 62
     7
370
    15
100
AcDbSpline
210
0.0
220
0.0
230
1.0
 70
     8
 71
     3
 72
    14
 73
    10
 74
     0
 42
0.00000001
 43
0.00000001
 12
1.0
 22
0.0
 32
0.0
 13
1.0
 23
0.0
 33
0.0
 40
0.0
 40
0.0
 40
0.0
 40
0.0
 40
0.25
 40
0.25
 40
0.5
 40
0.5
 40
0.75
 40
0.75
 40
1.0
 40
1.0
 40
1.0
 40
1.0
 10
-69.85171298541646
 20
-35.77564559119188
 30
0.0
 10
-69.8347727288153
 20
-35.76059843532567
 30
0.0
 10
-69.8173317155718
 20
-35.67735136397467
 30
0.0
 10
-69.78660304144137
 20
-35.4410099576062
 30
0.0
 10
-69.77366778910132
 20
-35.29472381752258
 30
0.0
 10
-69.75193517607438
 20
-34.98535668714703
 30
0.0
 10
-69.74313478498541
 20
-34.82179439436958
 30
0.0
 10
-69.72899120012849
 20
-34.48788160140533
 30
0.0
 10
-69.72376149550304
 20
-34.32027851415381
 30
0.0
 10
-69.72022187633944
 20
-34.1520820986875
 30
0.0
  0
CIRCLE
  5
66
330
1F
100
AcDbEntity
  8
0
  6
Continuous
 62
     7
370
    15
100
AcDbCircle
 10
-22.0010063021
 20
5.3886583879
 30
0.0
 40
1.993439678723197
  0
SPLINE
  5
82
330
1F
100
AcDbEntity
  8
0
  6
Continuous
 62
     7
370
    15
100
AcDbSpline
210
0.0
220
0.0
230
1.0
 70
     8
 71
     3
 72
    17
 73
    13
 74
     0
 42
0.00000001
 43
0.00000001
 12
1.0
 22
0.0
 32
0.0
 13
1.0
 23
0.0
 33
0.0
 40
0.2946604386049639
 40
0.2946604386049639
 40
0.2946604386049639
 40
0.2946604386049639
 40
0.3125000000000009
 40
0.3125000000000009
 40
0.3750000000000012
 40
0.5000000000000012
 40
0.5000000000000012
 40
0.5625000000000012
 40
0.5625000000000012
 40
0.625000000000001
 40
0.625000000000001
 40
0.7403471495400105
 40
0.7403471495400105
 40
0.7403471495400105
 40
0.7403471495400105
 10
-133.6413614352705
 20
-65.26225217605162
 30
0.0
 10
-133.4515501947383
 20
-64.64936703266727
 30
0.0
 10
-133.2594897889673
 20
-64.03723898619596
 30
0.0
 10
-132.3845470502941
 20
-61.28444346368869
 30
0.0
 10
-130.2607299981603
 20
-54.89125506371343
 30
0.0
 10
-127.8908716572051
 20
-48.59249031039271
 30
0.0
 10
-125.3563228364489
 20
-42.35692907769477
 30
0.0
 10
-124.484025302152
 20
-40.28894240041621
 30
0.0
 10
-122.6844298425603
 20
-36.17407663113607
 30
0.0
 10
-121.7572343832649
 20
-34.12754669516864
 30
0.0
 10
-119.0475591923906
 20
-28.3485326958741
 30
0.0
 10
-117.202919685458
 20
-24.64928869119191
 30
0.0
 10
-115.2725909684334
 20
-20.99806860768692
 30
0.0
  0
SPLINE
  5
86
330
1F
100
AcDbEntity
  8
0
  6
Continuous
 62
     7
370
    15
100
AcDbSpline
210
0.0
220
0.0
230
1.0
 70
     8
 71
     3
 72
     8
 73
     4
 74
     0
 42
0.00000001
 43
0.00000001
 12
1.0
 22
0.0
 32
0.0
 13
1.0
 23
0.0
 33
0.0
 40
0.0
 40
0.0
 40
0.0
 40
0.0
 40
0.0400226850954134
 40
0.0400226850954134
 40
0.0400226850954134
 40
0.0400226850954134
 10
-141.1965556680028
 20
-96.11092125656407
 30
0.0
 10
-140.9369271729694
 20
-94.69339576158201
 30
0.0
 10
-140.6663031301621
 20
-93.27864971952899
 30
0.0
 10
-140.3846014858338
 20
-91.86670387193901
 30
0.0
  0
SPLINE
  5
88
330
1F
100
AcDbEntity
  8
0
  6
Continuous
 62
     7
370
    15
100
AcDbSpline
210
0.0
220
0.0
230
1.0
 70
     8
 71
     3
 72
    20
 73
    16
 74
     0
 42
0.00000001
 43
0.00000001
 12
1.0
 22
0.0
 32
0.0
 13
1.0
 23
0.0
 33
0.0
 40
0.3079560853093459
 40
0.3079560853093459
 40
0.3079560853093459
 40
0.3079560853093459
 40
0.3749999999999995
 40
0.3749999999999995
 40
0.4374999999999996
 40
0.4374999999999996
 40
0.4999999999999997
 40
0.4999999999999997
 40
0.7499999999999999
 40
0.7499999999999999
 40
0.8125
 40
0.8125
 40
0.875
 40
0.875
 40
1.0
 40
1.0
 40
1.0
 40
1.0
 10
-91.2601081522176
 20
-49.92454840667509
 30
0.0
 10
-91.93959633668923
 20
-51.33319546092331
 30
0.0
 10
-92.58264493808852
 20
-52.7630762868402
 30
0.0
 10
-93.75394407779434
 20
-55.56742547879887
 30
0.0
 10
-94.28771829307625
 20
-56.94106300288617
 30
0.0
 10
-95.2873409600044
 20
-59.71751801136853
 30
0.0
 10
-95.75068959686607
 20
-61.11304751705035
 30
0.0
 10
-97.8916596071647
 20
-68.12589529364294
 30
0.0
 10
-99.04354142915983
 20
-73.84849790498218
 30
0.0
 10
-99.8691449143885
 20
-81.12476032601963
 30
0.0
 10
-100.0034613547477
 20
-82.58618165531156
 30
0.0
 10
-100.2123279757309
 20
-85.5209930752695
 30
0.0
 10
-100.2869182534342
 20
-86.99604983297829
 30
0.0
 10
-100.4233307941146
 20
-91.42619274580677
 30
0.0
 10
-100.3980611765674
 20
-94.38028529684836
 30
0.0
 10
-100.2676929279648
 20
-97.33497830102927
 30
0.0
  0
SPLINE
  5
8F
330
1F
100
AcDbEntity
  8
0
  6
Continuous
 62
     7
370
    15
100
AcDbSpline
210
0.0
220
0.0
230
1.0
 70
     8
 71
     3
 72
    12
 73
     8
 74
     0
 42
0.00000001
 43
0.00000001
 12
1.0
 22
0.0
 32
0.0
 13
1.0
 23
0.0
 33
0.0
 40
0.0
 40
0.0
 40
0.0
 40
0.0
 40
0.0879664983030423
 40
0.3286584280803157
 40
0.5678449225465164
 40
0.8490728500928517
 40
1.0
 40
1.0
 40
1.0
 40
1.0
 10
-94.51372859638259
 20
-56.34008779554523
 30
0.0
 10
-94.78501785493482
 20
-56.99107492182836
 30
0.0
 10
-95.79860260584405
 20
-59.42327820094118
 30
0.0
 10
-97.18882879982041
 20
-63.76873883820204
 30
0.0
 10
-98.75255730348327
 20
-69.67180551882417
 30
0.0
 10
-99.8246040801849
 20
-74.96359190791526
 30
0.0
 10
-100.2157087243712
 20
-78.41428722813387
 30
0.0
 10
-100.3522992964647
 20
-79.61941852717453
 30
0.0
  0
SPLINE
  5
90
330
1F
100
AcDbEntity
  8
0
  6
Continuous
 62
     7
370
    15
100
AcDbSpline
210
0.0
220
0.0
230
1.0
 70
     8
 71
     3
 72
     8
 73
     4
 74
     0
 42
0.00000001
 43
0.00000001
 12
1.0
 22
0.0
 32
0.0
 13
1.0
 23
0.0
 33
0.0
 40
0.307956085401099
 40
0.307956085401099
 40
0.307956085401099
 40
0.307956085401099
 40
0.3443996454360946
 40
0.3443996454360946
 40
0.3443996454360946
 40
0.3443996454360946
 10
-91.72624402478857
 20
-50.338592854203
 30
0.0
 10
-92.0955984778286
 20
-51.10430162476931
 30
0.0
 10
-92.45418589252495
 20
-51.8762844746324
 30
0.0
 10
-92.80193928339246
 20
-52.65458043701868
 30
0.0
  0
SPLINE
  5
92
330
1F
100
AcDbEntity
  8
0
  6
Continuous
 62
     7
370
    15
100
AcDbSpline
210
0.0
220
0.0
230
1.0
 70
     8
 71
     3
 72
    10
 73
     6
 74
     0
 42
0.00000001
 43
0.00000001
 12
1.0
 22
0.0
 32
0.0
 13
1.0
 23
0.0
 33
0.0
 40
0.0
 40
0.0
 40
0.0
 40
0.0
 40
0.259573401339148
 40
0.5478851079952657
 40
1.0
 40
1.0
 40
1.0
 40
1.0
 10
-100.7452294308249
 20
-97.3206966454644
 30
0.0
 10
-100.7880446396623
 20
-96.03376990472023
 30
0.0
 10
-100.8784152831747
 20
-93.31743613285833
 30
0.0
 10
-100.8345920656771
 20
-88.35643580235761
 30
0.0
 10
-100.5722609425507
 20
-84.69544352947383
 30
0.0
 10
-100.4120778702295
 20
-82.45999017180327
 30
0.0
  0
CIRCLE
  5
B1
330
1F
100
AcDbEntity
  8
0
  6
Continuous
 62
     7
370
    15
100
AcDbCircle
 10
-130.8884142858
 20
-85.4689111683
 30
0.0
 40
1.989658402148941
  0
CIRCLE
  5
B2
330
1F
100
AcDbEntity
  8
0
  6
Continuous
 62
     7
370
    15
100
AcDbCircle
 10
-101.8692901398
 20
16.2815309864
 30
0.0
 40
1.98965840214888
  0
LWPOLYLINE
  5
CD
330
1F
100
AcDbEntity
  8
0
  6
Continuous
 62
     7
370
    15
100
AcDbPolyline
 90
        3
 70
   128
 43
0.0
 10
-75.7369689968
 20
-27.917614621
 10
-75.7219768561
 20
-27.8383468254
 10
-75.7069172041
 20
-27.7586292604
  0
SPLINE
  5
D1
330
1F
100
AcDbEntity
  8
0
  6
Continuous
 62
     7
370
    15
100
AcDbSpline
210
0.0
220
0.0
230
1.0
 70
     8
 71
     3
 72
     9
 73
     5
 74
     0
 42
0.00000001
 43
0.00000001
 12
1.0
 22
0.0
 32
0.0
 13
1.0
 23
0.0
 33
0.0
 40
0.0
 40
0.0
 40
0.0
 40
0.0
 40
0.5102067765324466
 40
1.0
 40
1.0
 40
1.0
 40
1.0
 10
-75.70691720410034
 20
-27.75862926039404
 30
0.0
 10
-75.67595530314489
 20
-27.64875990828415
 30
0.0
 10
-75.61527029781068
 20
-27.43341711559017
 30
0.0
 10
-75.45980178294231
 20
-27.27295062867891
 30
0.0
 10
-75.38365435789719
 20
-27.19435523079613
 30
0.0
  0
SPLINE
  5
D6
330
1F
100
AcDbEntity
  8
0
  6
Continuous
 62
     7
370
    15
100
AcDbSpline
210
0.0
220
0.0
230
1.0
 70
     8
 71
     3
 72
    11
 73
     7
 74
     0
 42
0.00000001
 43
0.00000001
 12
1.0
 22
0.0
 32
0.0
 13
1.0
 23
0.0
 33
0.0
 40
0.0
 40
0.0
 40
0.0
 40
0.0
 40
0.0937958615869376
 40
0.3989654451640989
 40
0.7143127967604832
 40
1.0
 40
1.0
 40
1.0
 40
1.0
 10
-75.90984347939786
 20
-21.62011393291932
 30
0.0
 10
-75.927143480577
 20
-21.63769579806424
 30
0.0
 10
-76.00072991131067
 20
-21.71248115144419
 30
0.0
 10
-76.13133810153441
 20
-21.78422768327484
 30
0.0
 10
-76.2523794347882
 20
-21.84938054844405
 30
0.0
 10
-76.28128734793624
 20
-21.86802731047607
 30
0.0
 10
-76.29502802356345
 20
-21.87689059670734
 30
0.0
  0
SPLINE
  5
D7
330
1F
100
AcDbEntity
  8
0
  6
Continuous
 62
     7
370
    15
100
AcDbSpline
210
0.0
220
0.0
230
1.0
 70
     8
 71
     3
 72
     8
 73
     4
 74
     0
 42
0.00000001
 43
0.00000001
 12
1.0
 22
0.0
 32
0.0
 13
1.0
 23
0.0
 33
0.0
 40
0.0
 40
0.0
 40
0.0
 40
0.0
 40
1.0
 40
1.0
 40
1.0
 40
1.0
 10
-75.18441519962985
 20
-21.03041690101078
 30
0.0
 10
-75.30291718404726
 20
-20.97642220072113
 30
0.0
 10
-75.4317535384105
 20
-20.94938341467241
 30
0.0
 10
-75.55708660574139
 20
-20.94771567448119
 30
0.0
  0
LWPOLYLINE
  5
FE
330
1F
100
AcDbEntity
  8
0
  6
Continuous
 62
     7
370
    15
100
AcDbPolyline
 90
        3
 70
   128
 43
0.0
 10
-110.8478459818
 20
20.3789996958
 10
-110.6955851818
 20
20.49662423
 10
-110.5680431669
 20
20.6432433345
  0
SPLINE
  5
106
330
1F
100
AcDbEntity
  8
0
  6
Continuous
 62
     7
370
    15
100
AcDbSpline
210
0.0
220
0.0
230
1.0
 70
     8
 71
     3
 72
    12
 73
     8
 74
     0
 42
0.00000001
 43
0.00000001
 12
1.0
 22
0.0
 32
0.0
 13
1.0
 23
0.0
 33
0.0
 40
0.0
 40
0.0
 40
0.0
 40
0.0
 40
0.4999999999999999
 40
0.4999999999999999
 40
0.7499999999999999
 40
0.7499999999999999
 40
1.0
 40
1.0
 40
1.0
 40
1.0
 10
-46.2152960907647
 20
2.192877809208186
 30
0.0
 10
-46.15355160624731
 20
1.983143668070012
 30
0.0
 10
-46.03310027658318
 20
1.799376224533803
 30
0.0
 10
-45.80033797495821
 20
1.602219609123902
 30
0.0
 10
-45.71415131396335
 20
1.549053445094567
 30
0.0
 10
-45.52307849343494
 20
1.472206601279929
 30
0.0
 10
-45.41888579198968
 20
1.449400562650749
 30
0.0
 10
-45.30997495421313
 20
1.446143372754078
 30
0.0
  0
CIRCLE
  5
10E
330
1F
100
AcDbEntity
  8
0
  6
Continuous
 62
     7
370
    15
100
AcDbCircle
 10
-69.6695123191
 20
58.1234352203
 30
0.0
 40
1.993439678723196
  0
LWPOLYLINE
  5
116
330
1F
100
AcDbEntity
  8
0
  6
Continuous
 62
     7
370
    15
100
AcDbPolyline
 90
        3
 70
   128
 43
0.0
 10
-110.5900714027
 20
20.6236767893
 10
-110.7369620553
 20
20.4598712883
 10
-110.7612166297
 20
20.4377536465
  0
CIRCLE
  5
123
330
1F
100
AcDbEntity
  8
0
  6
Continuous
 62
     7
370
    15
100
AcDbCircle
 10
-64.4630520151
 20
5.6487281931
 30
0.0
 40
1.989658402148897
  0
SPLINE
  5
139
330
1F
100
AcDbEntity
  8
0
  6
Continuous
 62
     7
370
    15
100
AcDbSpline
210
0.0
220
0.0
230
1.0
 70
     8
 71
     3
 72
    11
 73
     7
 74
     0
 42
0.00000001
 43
0.00000001
 12
1.0
 22
0.0
 32
0.0
 13
1.0
 23
0.0
 33
0.0
 40
0.0
 40
0.0
 40
0.0
 40
0.0
 40
0.2818094077893155
 40
0.5690352445777342
 40
0.86026948184242
 40
1.0
 40
1.0
 40
1.0
 40
1.0
 10
-69.23705790067484
 20
58.95768433310785
 30
0.0
 10
-69.4111575920979
 20
59.07446984328569
 30
0.0
 10
-69.76270320325044
 20
59.31028550277167
 30
0.0
 10
-70.39054556097379
 20
59.42790943889322
 30
0.0
 10
-70.93941798592515
 20
59.38662208962445
 30
0.0
 10
-71.22044400352287
 20
59.23327351018006
 30
0.0
 10
-71.31156029681745
 20
59.18355372174052
 30
0.0
  0
LINE
  5
16B
330
1F
100
AcDbEntity
  8
0
  6
Continuous
 62
     7
370
    15
100
AcDbLine
 10
-153.5405626064
 20
-106.3462704841
 30
0.0
 11
-90.101080898
 21
-108.2435512607
 31
0.0
  0
LINE
  5
16C
330
1F
100
AcDbEntity
  8
0
  6
Continuous
 62
     7
370
    15
100
AcDbLine
 10
-76.4579404377
 20
-18.9902746201
 30
0.0
 11
-87.6280178932
 21
-18.6562117832
 31
0.0
  0
LINE
  5
16D
330
1F
100
AcDbEntity
  8
0
  6
Continuous
 62
     7
370
    15
100
AcDbLine
 10
-88.1637260687
 20
-18.8506643684
 30
0.0
 11
-88.598414653
 21
-19.2367758091
 31
0.0
  0
LINE
  5
16E
330
1F
100
AcDbEntity
  8
0
  6
Continuous
 62
     7
370
    15
100
AcDbLine
 10
-121.6165119759
 20
24.7905949204
 30
0.0
 11
-122.3564764724
 21
24.1333226384
 31
0.0
  0
LINE
  5
16F
330
1F
100
AcDbEntity
  8
0
  6
Continuous
 62
     7
370
    15
100
AcDbLine
 10
-75.2492352617
 20
-27.0721256915
 30
0.0
 11
-75.3853051741
 21
-27.1929895738
 31
0.0
  0
LINE
  5
170
330
1F
100
AcDbEntity
  8
0
  6
Continuous
 62
     7
370
    15
100
AcDbLine
 10
-75.5055121933
 20
-20.8403845989
 30
0.0
 11
-75.4880553752
 21
-20.0108676065
 31
0.0
  0
LINE
  5
171
330
1F
100
AcDbEntity
  8
0
  6
Continuous
 62
     7
370
    15
100
AcDbLine
 10
-75.9057146502
 20
-21.6243016386
 30
0.0
 11
-75.8411945337
 21
-21.5669917482
 31
0.0
  0
LINE
  5
172
330
1F
100
AcDbEntity
  8
0
  6
Continuous
 62
     7
370
    15
100
AcDbLine
 10
-122.6176712839
 20
23.5679487877
 30
0.0
 11
-123.4108789151
 21
-14.1238689264
 31
0.0
  0
LINE
  5
173
330
1F
100
AcDbEntity
  8
0
  6
Continuous
 62
     7
370
    15
100
AcDbLine
 10
-111.9467669749
 20
20.4204656715
 30
0.0
 11
-113.7172231502
 21
21.6865600131
 31
0.0
  0
LINE
  5
174
330
1F
100
AcDbEntity
  8
0
  6
Continuous
 62
     7
370
    15
100
AcDbLine
 10
-114.7611781811
 20
21.6314504059
 30
0.0
 11
-114.9790481484
 21
21.4379277555
 31
0.0
  0
LINE
  5
175
330
1F
100
AcDbEntity
  8
0
  6
Continuous
 62
     7
370
    15
100
AcDbLine
 10
-93.4203347958
 20
64.940501596
 30
0.0
 11
-93.6189542607
 21
64.7640781735
 31
0.0
  0
LINE
  5
176
330
1F
100
AcDbEntity
  8
0
  6
Continuous
 62
     7
370
    15
100
AcDbLine
 10
-69.6096439342
 20
2.1687193276
 30
0.0
 11
-33.0466288723
 21
1.0752314279
 31
0.0
  0
LINE
  5
177
330
1F
100
AcDbEntity
  8
0
  6
Continuous
 62
     7
370
    15
100
AcDbLine
 10
-29.2404122599
 20
0.9613991359
 30
0.0
 11
-2.3799454441
 21
0.158084765
 31
0.0
  0
LINE
  5
178
330
1F
100
AcDbEntity
  8
0
  6
Continuous
 62
     7
370
    15
100
AcDbLine
 10
-96.7547375692
 20
53.2142070549
 30
0.0
 11
-118.8077238244
 21
24.9996425189
 31
0.0
  0
LINE
  5
179
330
1F
100
AcDbEntity
  8
0
  6
Continuous
 62
     7
370
    15
100
AcDbLine
 10
-152.9495006682
 20
-105.8134305418
 30
0.0
 11
-153.544567736
 21
-106.3419979143
 31
0.0
  0
LINE
  5
17A
330
1F
100
AcDbEntity
  8
0
  6
Continuous
 62
     7
370
    15
100
AcDbLine
 10
-123.5249370486
 20
-14.5658689427
 30
0.0
 11
-122.9298699808
 21
-14.0373015702
 31
0.0
  0
LINE
  5
17B
330
1F
100
AcDbEntity
  8
0
  6
Continuous
 62
     7
370
    15
100
AcDbLine
 10
-152.9495006682
 20
-105.8134305418
 30
0.0
 11
-89.4838389078
 21
-107.7114942836
 31
0.0
  0
LINE
  5
17C
330
1F
100
AcDbEntity
  8
0
  6
Continuous
 62
     7
370
    15
100
AcDbLine
 10
-90.5170182698
 20
-106.5932400586
 30
0.0
 11
-151.7054439289
 21
-104.7632814803
 31
0.0
  0
LINE
  5
17D
330
1F
100
AcDbEntity
  8
0
  6
Continuous
 62
     7
370
    15
100
AcDbLine
 10
-74.5641855794
 20
-26.8241050676
 30
0.0
 11
-33.2704517147
 21
-28.059074291
 31
0.0
  0
LINE
  5
17E
330
1F
100
AcDbEntity
  8
0
  6
Continuous
 62
     7
370
    15
100
AcDbLine
 10
-33.2704517147
 20
-28.059074291
 30
0.0
 11
-32.6440847767
 21
1.70477003
 31
0.0
  0
LINE
  5
17F
330
1F
100
AcDbEntity
  8
0
  6
Continuous
 62
     7
370
    15
100
AcDbLine
 10
-44.6157300418
 20
2.0628053073
 30
0.0
 11
-32.6440847767
 21
1.70477003
 31
0.0
  0
LINE
  5
180
330
1F
100
AcDbEntity
  8
0
  6
Continuous
 62
     7
370
    15
100
AcDbLine
 10
-45.4007965396
 20
12.0610543283
 30
0.0
 11
-45.5896257455
 21
3.0882258716
 31
0.0
  0
LINE
  5
181
330
1F
100
AcDbEntity
  8
0
  6
Continuous
 62
     7
370
    15
100
AcDbLine
 10
-45.1876807222
 20
12.054915577
 30
0.0
 11
-45.4007965396
 21
12.0610543283
 31
0.0
  0
LINE
  5
182
330
1F
100
AcDbEntity
  8
0
  6
Continuous
 62
     7
370
    15
100
AcDbLine
 10
-44.7299348581
 20
35.0062361073
 30
0.0
 11
-45.1876807222
 21
12.054915577
 31
0.0
  0
LINE
  5
183
330
1F
100
AcDbEntity
  8
0
  6
Continuous
 62
     7
370
    15
100
AcDbLine
 10
-42.2702255197
 20
34.9326737276
 30
0.0
 11
-44.7299348581
 21
35.0062361073
 31
0.0
  0
LINE
  5
184
330
1F
100
AcDbEntity
  8
0
  6
Continuous
 62
     7
370
    15
100
AcDbLine
 10
-42.795370469
 20
9.9787185138
 30
0.0
 11
-42.2702255197
 21
34.9326737276
 31
0.0
  0
LINE
  5
185
330
1F
100
AcDbEntity
  8
0
  6
Continuous
 62
     7
370
    15
100
AcDbLine
 10
-11.4576241517
 20
9.0415024132
 30
0.0
 11
-42.795370469
 21
9.9787185138
 31
0.0
  0
LINE
  5
186
330
1F
100
AcDbEntity
  8
0
  6
Continuous
 62
     7
370
    15
100
AcDbLine
 10
-11.5204843089
 20
6.0544993965
 30
0.0
 11
-11.4576241517
 21
9.0415024132
 31
0.0
  0
LINE
  5
187
330
1F
100
AcDbEntity
  8
0
  6
Continuous
 62
     7
370
    15
100
AcDbLine
 10
-11.5204843089
 20
6.0544993965
 30
0.0
 11
-5.5515534236
 21
5.8759869383
 31
0.0
  0
LINE
  5
188
330
1F
100
AcDbEntity
  8
0
  6
Continuous
 62
     7
370
    15
100
AcDbLine
 10
-5.5515534236
 20
5.8759869383
 30
0.0
 11
-5.4886932664
 21
8.8629899551
 31
0.0
  0
LINE
  5
189
330
1F
100
AcDbEntity
  8
0
  6
Continuous
 62
     7
370
    15
100
AcDbLine
 10
-1.5091332573
 20
8.7439734924
 30
0.0
 11
-5.4886932664
 21
8.8629899551
 31
0.0
  0
LINE
  5
18A
330
1F
100
AcDbEntity
  8
0
  6
Continuous
 62
     7
370
    15
100
AcDbLine
 10
-1.6767603432
 20
0.7786321145
 30
0.0
 11
-1.5091332573
 21
8.7439734924
 31
0.0
  0
LINE
  5
18B
330
1F
100
AcDbEntity
  8
0
  6
Continuous
 62
     7
370
    15
100
AcDbLine
 10
-29.2269190383
 20
1.6025730591
 30
0.0
 11
-1.6767603432
 21
0.7786321145
 31
0.0
  0
LINE
  5
18C
330
1F
100
AcDbEntity
  8
0
  6
Continuous
 62
     7
370
    15
100
AcDbLine
 10
-29.2269190383
 20
1.6025730591
 30
0.0
 11
-29.922200607
 21
-31.435972106
 31
0.0
  0
LINE
  5
18D
330
1F
100
AcDbEntity
  8
0
  6
Continuous
 62
     7
370
    15
100
AcDbLine
 10
-29.922200607
 20
-31.435972106
 30
0.0
 11
-69.638066238
 21
-30.2481920933
 31
0.0
  0
LINE
  5
18E
330
1F
100
AcDbEntity
  8
0
  6
Continuous
 62
     7
370
    15
100
AcDbLine
 10
-69.638066238
 20
-30.2481920933
 30
0.0
 11
-69.7202218763
 21
-34.1520820987
 31
0.0
  0
LINE
  5
18F
330
1F
100
AcDbEntity
  8
0
  6
Continuous
 62
     7
370
    15
100
AcDbLine
 10
-121.7168553658
 20
-13.528246891
 30
0.0
 11
-120.9047331634
 21
25.0623576515
 31
0.0
  0
LINE
  5
190
330
1F
100
AcDbEntity
  8
0
  6
Continuous
 62
     7
370
    15
100
AcDbLine
 10
-118.3041105615
 20
24.9845809873
 30
0.0
 11
-120.9047331634
 21
25.0623576515
 31
0.0
  0
LINE
  5
191
330
1F
100
AcDbEntity
  8
0
  6
Continuous
 62
     7
370
    15
100
AcDbLine
 10
-114.8089878881
 20
20.1086443416
 30
0.0
 11
-118.3041105615
 21
24.9845809873
 31
0.0
  0
LINE
  5
192
330
1F
100
AcDbEntity
  8
0
  6
Continuous
 62
     7
370
    15
100
AcDbLine
 10
-114.8089878881
 20
20.1086443416
 30
0.0
 11
-115.525820914
 21
-13.9539877865
 31
0.0
  0
LINE
  5
193
330
1F
100
AcDbEntity
  8
0
  6
Continuous
 62
     7
370
    15
100
AcDbLine
 10
-115.1246039196
 20
-13.9659869591
 30
0.0
 11
-115.525820914
 21
-13.9539877865
 31
0.0
  0
LINE
  5
194
330
1F
100
AcDbEntity
  8
0
  6
Continuous
 62
     7
370
    15
100
AcDbLine
 10
-115.2725909674
 20
-20.9980686083
 30
0.0
 11
-115.1246039196
 21
-13.9659869591
 31
0.0
  0
LINE
  5
195
330
1F
100
AcDbEntity
  8
0
  6
Continuous
 62
     7
370
    15
100
AcDbLine
 10
-139.5185439398
 20
-76.3769646303
 30
0.0
 11
-133.6413614353
 21
-65.2622521761
 31
0.0
  0
LINE
  5
196
330
1F
100
AcDbEntity
  8
0
  6
Continuous
 62
     7
370
    15
100
AcDbLine
 10
-143.6727992429
 20
-91.7683639389
 30
0.0
 11
-139.5185439398
 21
-76.3769646303
 31
0.0
  0
LINE
  5
197
330
1F
100
AcDbEntity
  8
0
  6
Continuous
 62
     7
370
    15
100
AcDbLine
 10
-140.384601485
 20
-91.8667038721
 30
0.0
 11
-143.6727992429
 21
-91.7683639389
 31
0.0
  0
LINE
  5
198
330
1F
100
AcDbEntity
  8
0
  6
Continuous
 62
     7
370
    15
100
AcDbLine
 10
-100.267692928
 20
-97.334978301
 30
0.0
 11
-141.196555668
 21
-96.1109212566
 31
0.0
  0
LINE
  5
199
330
1F
100
AcDbEntity
  8
0
  6
Continuous
 62
     7
370
    15
100
AcDbLine
 10
-86.4113039636
 20
-47.9848806699
 30
0.0
 11
-91.2601081586
 21
-49.9245484035
 31
0.0
  0
LINE
  5
19A
330
1F
100
AcDbEntity
  8
0
  6
Continuous
 62
     7
370
    15
100
AcDbLine
 10
-79.8055512437
 20
-40.3568743545
 30
0.0
 11
-86.4113039636
 21
-47.9848806699
 31
0.0
  0
LINE
  5
19B
330
1F
100
AcDbEntity
  8
0
  6
Continuous
 62
     7
370
    15
100
AcDbLine
 10
-76.3336165936
 20
-31.8295891663
 30
0.0
 11
-79.8055512437
 21
-40.3568743545
 31
0.0
  0
LINE
  5
19C
330
1F
100
AcDbEntity
  8
0
  6
Continuous
 62
     7
370
    15
100
AcDbLine
 10
-75.5639123712
 20
-27.631605446
 30
0.0
 11
-76.3336165936
 21
-31.8295891663
 31
0.0
  0
LINE
  5
19D
330
1F
100
AcDbEntity
  8
0
  6
Continuous
 62
     7
370
    15
100
AcDbLine
 10
-90.0789059756
 20
-108.2400616561
 30
0.0
 11
-153.544567736
 21
-106.3419979143
 31
0.0
  0
LINE
  5
19E
330
1F
100
AcDbEntity
  8
0
  6
Continuous
 62
     7
370
    15
100
AcDbLine
 10
-89.4838389078
 20
-107.7114942836
 30
0.0
 11
-90.0789059756
 21
-108.2400616561
 31
0.0
  0
LINE
  5
19F
330
1F
100
AcDbEntity
  8
0
  6
Continuous
 62
     7
370
    15
100
AcDbLine
 10
-91.2601081488
 20
-49.9245483996
 30
0.0
 11
-91.7262440186
 21
-50.3385928413
 31
0.0
  0
LINE
  5
1A0
330
1F
100
AcDbEntity
  8
0
  6
Continuous
 62
     7
370
    15
100
AcDbLine
 10
-76.6354932771
 20
-27.2738650481
 30
0.0
 11
-76.5262383033
 21
-22.0822627584
 31
0.0
  0
LINE
  5
1A1
330
1F
100
AcDbEntity
  8
0
  6
Continuous
 62
     7
370
    15
100
AcDbLine
 10
-76.0590229377
 20
-28.2036785195
 30
0.0
 11
-76.7997524634
 21
-32.2436336081
 31
0.0
  0
LINE
  5
1A2
330
1F
100
AcDbEntity
  8
0
  6
Continuous
 62
     7
370
    15
100
AcDbLine
 10
-76.7997524634
 20
-32.2436336081
 30
0.0
 11
-80.2716871135
 21
-40.7709187963
 31
0.0
  0
LINE
  5
1A3
330
1F
100
AcDbEntity
  8
0
  6
Continuous
 62
     7
370
    15
100
AcDbLine
 10
-80.2716871135
 20
-40.7709187963
 30
0.0
 11
-86.5759035289
 21
-48.0507254541
 31
0.0
  0
LINE
  5
1A4
330
1F
100
AcDbEntity
  8
0
  6
Continuous
 62
     7
370
    15
100
AcDbLine
 10
-92.8019392837
 20
-52.6545804369
 30
0.0
 11
-100.1162416866
 21
-68.4023801979
 31
0.0
  0
LINE
  5
1A5
330
1F
100
AcDbEntity
  8
0
  6
Continuous
 62
     7
370
    15
100
AcDbLine
 10
-100.1162416866
 20
-68.4023801979
 30
0.0
 11
-100.4120778702
 21
-82.4599901718
 31
0.0
  0
LINE
  5
1A6
330
1F
100
AcDbEntity
  8
0
  6
Continuous
 62
     7
370
    15
100
AcDbLine
 10
-132.5192553185
 20
-61.8490271146
 30
0.0
 11
-116.9548379671
 21
-24.3426394223
 31
0.0
  0
LINE
  5
1A7
330
1F
100
AcDbEntity
  8
0
  6
Continuous
 62
     7
370
    15
100
AcDbLine
 10
-115.0952324305
 20
20.5079751761
 30
0.0
 11
-115.089537126
 21
20.9089739033
 31
0.0
  0
LINE
  5
1A8
330
1F
100
AcDbEntity
  8
0
  6
Continuous
 62
     7
370
    15
100
AcDbLine
 10
-114.907620763
 20
21.4674693482
 30
0.0
 11
-112.4292783299
 21
19.6951490984
 31
0.0
  0
LINE
  5
1A9
330
1F
100
AcDbEntity
  8
0
  6
Continuous
 62
     7
370
    15
100
AcDbLine
 10
-109.6558124862
 20
20.1499049249
 30
0.0
 11
-100.3072770967
 21
33.330068171
 31
0.0
  0
LINE
  5
1AA
330
1F
100
AcDbEntity
  8
0
  6
Continuous
 62
     7
370
    15
100
AcDbLine
 10
-100.7860225975
 20
36.1105558842
 30
0.0
 11
-104.8512867782
 21
39.0177207425
 31
0.0
  0
LINE
  5
1AB
330
1F
100
AcDbEntity
  8
0
  6
Continuous
 62
     7
370
    15
100
AcDbLine
 10
-104.8512867782
 20
39.0177207425
 30
0.0
 11
-96.2812237384
 21
51.1003438688
 31
0.0
  0
LINE
  5
1AC
330
1F
100
AcDbEntity
  8
0
  6
Continuous
 62
     7
370
    15
100
AcDbLine
 10
-96.2812237384
 20
51.1003438688
 30
0.0
 11
-55.8408242237
 21
49.8908952647
 31
0.0
  0
LINE
  5
1AD
330
1F
100
AcDbEntity
  8
0
  6
Continuous
 62
     7
370
    15
100
AcDbLine
 10
-55.8408242237
 20
49.8908952647
 30
0.0
 11
-56.5974036221
 21
11.9560986005
 31
0.0
  0
LINE
  5
1AE
330
1F
100
AcDbEntity
  8
0
  6
Continuous
 62
     7
370
    15
100
AcDbLine
 10
-56.5974036221
 20
11.9560986005
 30
0.0
 11
-79.1478775761
 21
12.6305142732
 31
0.0
  0
LINE
  5
1AF
330
1F
100
AcDbEntity
  8
0
  6
Continuous
 62
     7
370
    15
100
AcDbLine
 10
-79.1478775761
 20
12.6305142732
 30
0.0
 11
-79.7764791482
 21
-17.239515894
 31
0.0
  0
LINE
  5
1B0
330
1F
100
AcDbEntity
  8
0
  6
Continuous
 62
     7
370
    15
100
AcDbLine
 10
-79.7764791482
 20
-17.239515894
 30
0.0
 11
-87.8631075024
 21
-16.9976695846
 31
0.0
  0
LINE
  5
1B1
330
1F
100
AcDbEntity
  8
0
  6
Continuous
 62
     7
370
    15
100
AcDbLine
 10
-87.8631075024
 20
-16.9976695846
 30
0.0
 11
-87.8665914262
 21
-17.1632194568
 31
0.0
  0
LINE
  5
1B2
330
1F
100
AcDbEntity
  8
0
  6
Continuous
 62
     7
370
    15
100
AcDbLine
 10
-87.8665914262
 20
-17.1632194568
 30
0.0
 11
-90.8511386945
 21
-17.0739607806
 31
0.0
  0
LINE
  5
1B3
330
1F
100
AcDbEntity
  8
0
  6
Continuous
 62
     7
370
    15
100
AcDbLine
 10
-90.8511386945
 20
-17.0739607806
 30
0.0
 11
-90.8895615422
 21
-18.8997462528
 31
0.0
  0
LINE
  5
1B4
330
1F
100
AcDbEntity
  8
0
  6
Continuous
 62
     7
370
    15
100
AcDbLine
 10
-90.8895615422
 20
-18.8997462528
 30
0.0
 11
-88.3059713691
 21
-18.9770135293
 31
0.0
  0
LINE
  5
1B5
330
1F
100
AcDbEntity
  8
0
  6
Continuous
 62
     7
370
    15
100
AcDbLine
 10
-88.929167446
 20
-19.9546699655
 30
0.0
 11
-88.9675776499
 21
-21.7798546301
 31
0.0
  0
LINE
  5
1B6
330
1F
100
AcDbEntity
  8
0
  6
Continuous
 62
     7
370
    15
100
AcDbLine
 10
-88.9675776499
 20
-21.7798546301
 30
0.0
 11
-87.8807432147
 21
-24.4431661849
 31
0.0
  0
LINE
  5
1B7
330
1F
100
AcDbEntity
  8
0
  6
Continuous
 62
     7
370
    15
100
AcDbLine
 10
-86.5017541319
 20
-21.8535998663
 30
0.0
 11
-76.8932022411
 21
-22.1409622517
 31
0.0
  0
LINE
  5
1B8
330
1F
100
AcDbEntity
  8
0
  6
Continuous
 62
     7
370
    15
100
AcDbLine
 10
-153.544567736
 20
-106.3419979143
 30
0.0
 11
-153.5403139131
 21
-106.3388305506
 31
0.0
  0
LINE
  5
1B9
330
1F
100
AcDbEntity
  8
0
  6
Continuous
 62
     7
370
    15
100
AcDbLine
 10
-90.0789059756
 20
-108.2400616561
 30
0.0
 11
-90.1008369231
 21
-108.2362255875
 31
0.0
  0
LINE
  5
1BA
330
1F
100
AcDbEntity
  8
0
  6
Continuous
 62
     7
370
    15
100
AcDbLine
 10
-131.7313935888
 20
-59.4525074267
 30
0.0
 11
-118.1359901203
 21
-26.690955111
 31
0.0
  0
LINE
  5
1BB
330
1F
100
AcDbEntity
  8
0
  6
Continuous
 62
     7
370
    15
100
AcDbLine
 10
-122.0197134832
 20
24.0083483093
 30
0.0
 11
-122.8108822999
 21
-13.586588561
 31
0.0
  0
LINE
  5
1BC
330
1F
100
AcDbEntity
  8
0
  6
Continuous
 62
     7
370
    15
100
AcDbLine
 10
-80.2716871135
 20
-40.7709187963
 30
0.0
 11
-79.8055512437
 21
-40.3568743545
 31
0.0
  0
LINE
  5
1BD
330
1F
100
AcDbEntity
  8
0
  6
Continuous
 62
     7
370
    15
100
AcDbLine
 10
-122.8108822999
 20
-13.586588561
 30
0.0
 11
-123.4059493677
 21
-14.1151559335
 31
0.0
  0
LINE
  5
1BE
330
1F
100
AcDbEntity
  8
0
  6
Continuous
 62
     7
370
    15
100
AcDbLine
 10
-123.4059493677
 20
-14.1151559335
 30
0.0
 11
-122.614780551
 21
23.4797809369
 31
0.0
  0
LINE
  5
1BF
330
1F
100
AcDbEntity
  8
0
  6
Continuous
 62
     7
370
    15
100
AcDbLine
 10
-122.614780551
 20
23.4797809369
 30
0.0
 11
-122.0197134832
 21
24.0083483093
 31
0.0
  0
LINE
  5
1C0
330
1F
100
AcDbEntity
  8
0
  6
Continuous
 62
     7
370
    15
100
AcDbLine
 10
-76.7997524634
 20
-32.2436336081
 30
0.0
 11
-76.3336165936
 21
-31.8295891663
 31
0.0
  0
LINE
  5
1C1
330
1F
100
AcDbEntity
  8
0
  6
Continuous
 62
     7
370
    15
100
AcDbLine
 10
-88.4630315762
 20
-19.5406255237
 30
0.0
 11
-76.3886561674
 21
-19.9017331453
 31
0.0
  0
LINE
  5
1C2
330
1F
100
AcDbEntity
  8
0
  6
Continuous
 62
     7
370
    15
100
AcDbLine
 10
-76.3886561674
 20
-19.9017331453
 30
0.0
 11
-76.4061129855
 21
-20.7312501377
 31
0.0
  0
LINE
  5
1C3
330
1F
100
AcDbEntity
  8
0
  6
Continuous
 62
     7
370
    15
100
AcDbLine
 10
-76.4061129855
 20
-20.7312501377
 30
0.0
 11
-85.911530421
 21
-20.4469721883
 31
0.0
  0
LINE
  5
1C4
330
1F
100
AcDbEntity
  8
0
  6
Continuous
 62
     7
370
    15
100
AcDbLine
 10
-85.911530421
 20
-20.4469721883
 30
0.0
 11
-87.4146073449
 21
-24.0291217431
 31
0.0
  0
LINE
  5
1C5
330
1F
100
AcDbEntity
  8
0
  6
Continuous
 62
     7
370
    15
100
AcDbLine
 10
-87.4146073449
 20
-24.0291217431
 30
0.0
 11
-88.5014417801
 21
-21.3658101884
 31
0.0
  0
LINE
  5
1C6
330
1F
100
AcDbEntity
  8
0
  6
Continuous
 62
     7
370
    15
100
AcDbLine
 10
-88.5014417801
 20
-21.3658101884
 30
0.0
 11
-88.4630315762
 21
-19.5406255237
 31
0.0
  0
LINE
  5
1C7
330
1F
100
AcDbEntity
  8
0
  6
Continuous
 62
     7
370
    15
100
AcDbLine
 10
-88.5014417801
 20
-21.3658101884
 30
0.0
 11
-88.9675776499
 21
-21.7798546301
 31
0.0
  0
LINE
  5
1C8
330
1F
100
AcDbEntity
  8
0
  6
Continuous
 62
     7
370
    15
100
AcDbLine
 10
-87.4146073449
 20
-24.0291217431
 30
0.0
 11
-87.8807432147
 21
-24.4431661849
 31
0.0
  0
LINE
  5
1C9
330
1F
100
AcDbEntity
  8
0
  6
Continuous
 62
     7
370
    15
100
AcDbLine
 10
-88.929167446
 20
-19.9546699655
 30
0.0
 11
-88.4630315762
 21
-19.5406255237
 31
0.0
  0
LINE
  5
1CA
330
1F
100
AcDbEntity
  8
0
  6
Continuous
 62
     7
370
    15
100
AcDbLine
 10
-75.7069172041
 20
-27.7586292604
 30
0.0
 11
-75.5639123712
 21
-27.631605446
 31
0.0
  0
LINE
  5
1CB
330
1F
100
AcDbEntity
  8
0
  6
Continuous
 62
     7
370
    15
100
AcDbLine
 10
-75.7369689968
 20
-27.917614621
 30
0.0
 11
-76.0590229377
 21
-28.2036785195
 31
0.0
  0
LINE
  5
1CC
330
1F
100
AcDbEntity
  8
0
  6
Continuous
 62
     7
370
    15
100
AcDbLine
 10
-30.3189119855
 20
-31.7883503543
 30
0.0
 11
-29.922200607
 21
-31.435972106
 31
0.0
  0
LINE
  5
1CD
330
1F
100
AcDbEntity
  8
0
  6
Continuous
 62
     7
370
    15
100
AcDbLine
 10
-30.3189119855
 20
-31.7883503543
 30
0.0
 11
-69.6457267426
 21
-30.6122056628
 31
0.0
  0
LINE
  5
1CE
330
1F
100
AcDbEntity
  8
0
  6
Continuous
 62
     7
370
    15
100
AcDbLine
 10
-76.5262442159
 20
-21.815012372
 30
0.0
 11
-76.8932022411
 21
-22.1409622517
 31
0.0
  0
LINE
  5
1CF
330
1F
100
AcDbEntity
  8
0
  6
Continuous
 62
     7
370
    15
100
AcDbLine
 10
-76.2950280236
 20
-21.8768905967
 30
0.0
 11
-76.4042829973
 21
-27.0684928865
 31
0.0
  0
LINE
  5
1D0
330
1F
100
AcDbEntity
  8
0
  6
Continuous
 62
     7
370
    15
100
AcDbLine
 10
-76.4042829973
 20
-27.0684928865
 30
0.0
 11
-76.6354932771
 21
-27.2738650481
 31
0.0
  0
LINE
  5
1D1
330
1F
100
AcDbEntity
  8
0
  6
Continuous
 62
     7
370
    15
100
AcDbLine
 10
-76.5262383033
 20
-22.0822627584
 30
0.0
 11
-76.2950280236
 21
-21.8768905967
 31
0.0
  0
LINE
  5
1D2
330
1F
100
AcDbEntity
  8
0
  6
Continuous
 62
     7
370
    15
100
AcDbLine
 10
-74.6975004831
 20
-26.8290784671
 30
0.0
 11
-74.5951625814
 21
-21.9661631554
 31
0.0
  0
LINE
  5
1D3
330
1F
100
AcDbEntity
  8
0
  6
Continuous
 62
     7
370
    15
100
AcDbLine
 10
-115.3855308389
 20
22.8215721622
 30
0.0
 11
-115.3643818729
 21
24.3106424103
 31
0.0
  0
LINE
  5
1D4
330
1F
100
AcDbEntity
  8
0
  6
Continuous
 62
     7
370
    15
100
AcDbLine
 10
-115.2566707479
 20
24.4625004448
 30
0.0
 11
-115.3086082731
 21
20.80564916
 31
0.0
  0
LINE
  5
1D5
330
1F
100
AcDbEntity
  8
0
  6
Continuous
 62
     7
370
    15
100
AcDbLine
 10
-123.4059493677
 20
-14.1151559335
 30
0.0
 11
-123.4108789151
 21
-14.1238689264
 31
0.0
  0
LINE
  5
1D6
330
1F
100
AcDbEntity
  8
0
  6
Continuous
 62
     7
370
    15
100
AcDbLine
 10
-87.863171937
 20
-17.0007314035
 30
0.0
 11
-75.8004196397
 21
-17.3614914134
 31
0.0
  0
LINE
  5
1D7
330
1F
100
AcDbEntity
  8
0
  6
Continuous
 62
     7
370
    15
100
AcDbLine
 10
-90.8512031291
 20
-17.0770225995
 30
0.0
 11
-87.8699282754
 21
-17.1661834078
 31
0.0
  0
LINE
  5
1D8
330
1F
100
AcDbEntity
  8
0
  6
Continuous
 62
     7
370
    15
100
AcDbLine
 10
-75.8397057277
 20
-19.2282965345
 30
0.0
 11
-75.8004196397
 21
-17.3614914134
 31
0.0
  0
LINE
  5
1D9
330
1F
100
AcDbEntity
  8
0
  6
Continuous
 62
     7
370
    15
100
AcDbLine
 10
-87.8665914262
 20
-17.1632194568
 30
0.0
 11
-87.8699282754
 21
-17.1661834078
 31
0.0
  0
LINE
  5
1DA
330
1F
100
AcDbEntity
  8
0
  6
Continuous
 62
     7
370
    15
100
AcDbLine
 10
-33.0407961553
 20
1.3523917817
 30
0.0
 11
-32.6440847767
 21
1.70477003
 31
0.0
  0
LINE
  5
1DB
330
1F
100
AcDbEntity
  8
0
  6
Continuous
 62
     7
370
    15
100
AcDbLine
 10
-33.6595025887
 20
-28.0474389698
 30
0.0
 11
-33.0407961553
 21
1.3523917817
 31
0.0
  0
LINE
  5
1DC
330
1F
100
AcDbEntity
  8
0
  6
Continuous
 62
     7
370
    15
100
AcDbLine
 10
-93.8253896898
 20
51.4548825264
 30
0.0
 11
-93.8065024069
 21
52.3523726583
 31
0.0
  0
LINE
  5
1DD
330
1F
100
AcDbEntity
  8
0
  6
Continuous
 62
     7
370
    15
100
AcDbLine
 10
-41.9362816537
 20
50.8010930757
 30
0.0
 11
-93.8065024069
 21
52.3523726583
 31
0.0
  0
LINE
  5
1DE
330
1F
100
AcDbEntity
  8
0
  6
Continuous
 62
     7
370
    15
100
AcDbLine
 10
-42.1654745008
 20
39.9102560827
 30
0.0
 11
-41.9362816537
 21
50.8010930757
 31
0.0
  0
LINE
  5
1DF
330
1F
100
AcDbEntity
  8
0
  6
Continuous
 62
     7
370
    15
100
AcDbLine
 10
-44.6306576653
 20
39.9839821679
 30
0.0
 11
-42.1654745008
 21
39.9102560827
 31
0.0
  0
LINE
  5
1E0
330
1F
100
AcDbEntity
  8
0
  6
Continuous
 62
     7
370
    15
100
AcDbLine
 10
-44.4311013238
 20
49.9897122413
 30
0.0
 11
-44.6306576653
 21
39.9839821679
 31
0.0
  0
LINE
  5
1E1
330
1F
100
AcDbEntity
  8
0
  6
Continuous
 62
     7
370
    15
100
AcDbLine
 10
-44.4311013238
 20
49.9897122413
 30
0.0
 11
-55.3746883539
 21
50.3049397064
 31
0.0
  0
LINE
  5
1E2
330
1F
100
AcDbEntity
  8
0
  6
Continuous
 62
     7
370
    15
100
AcDbLine
 10
-93.8253896898
 20
51.4548825264
 30
0.0
 11
-55.3746883539
 21
50.3049397064
 31
0.0
  0
LINE
  5
1E3
330
1F
100
AcDbEntity
  8
0
  6
Continuous
 62
     7
370
    15
100
AcDbLine
 10
-79.7798159975
 20
-17.242479845
 30
0.0
 11
-79.7764791482
 21
-17.239515894
 31
0.0
  0
LINE
  5
1E4
330
1F
100
AcDbEntity
  8
0
  6
Continuous
 62
     7
370
    15
100
AcDbLine
 10
-96.1023940419
 20
51.2591890611
 30
0.0
 11
-96.4101549365
 21
50.9858209381
 31
0.0
  0
LINE
  5
1E5
330
1F
100
AcDbEntity
  8
0
  6
Continuous
 62
     7
370
    15
100
AcDbLine
 10
-94.112695863
 20
51.1996832769
 30
0.0
 11
-96.1023940419
 21
51.2591890611
 31
0.0
  0
LINE
  5
1E6
330
1F
100
AcDbEntity
  8
0
  6
Continuous
 62
     7
370
    15
100
AcDbLine
 10
-94.112695863
 20
51.1996832769
 30
0.0
 11
-93.8253896898
 21
51.4548825264
 31
0.0
  0
LINE
  5
1E7
330
1F
100
AcDbEntity
  8
0
  6
Continuous
 62
     7
370
    15
100
AcDbLine
 10
-55.3746883539
 20
50.3049397064
 30
0.0
 11
-55.8408242237
 21
49.8908952647
 31
0.0
  0
LINE
  5
1E8
330
1F
100
AcDbEntity
  8
0
  6
Continuous
 62
     7
370
    15
100
AcDbLine
 10
-93.9497070537
 20
64.0461840172
 30
0.0
 11
-93.7513513644
 21
64.2223731413
 31
0.0
  0
LINE
  5
1E9
330
1F
100
AcDbEntity
  8
0
  6
Continuous
 62
     7
370
    15
100
AcDbLine
 10
-93.7513513644
 20
64.2223731413
 30
0.0
 11
-93.8142115216
 21
61.2353701246
 31
0.0
  0
LINE
  5
1EA
330
1F
100
AcDbEntity
  8
0
  6
Continuous
 62
     7
370
    15
100
AcDbLine
 10
-93.8142115216
 20
61.2353701246
 30
0.0
 11
-93.6158558324
 21
61.4115592488
 31
0.0
  0
LINE
  5
1EB
330
1F
100
AcDbEntity
  8
0
  6
Continuous
 62
     7
370
    15
100
AcDbLine
 10
-93.722688864
 20
56.3350433473
 30
0.0
 11
-93.6158558324
 21
61.4115592488
 31
0.0
  0
LINE
  5
1EC
330
1F
100
AcDbEntity
  8
0
  6
Continuous
 62
     7
370
    15
100
AcDbLine
 10
-94.1074875862
 20
55.5706958428
 30
0.0
 11
-94.0632411901
 21
58.651243518
 31
0.0
  0
LINE
  5
1ED
330
1F
100
AcDbEntity
  8
0
  6
Continuous
 62
     7
370
    15
100
AcDbLine
 10
-93.9497070537
 20
64.0461840172
 30
0.0
 11
-94.0632411901
 21
58.651243518
 31
0.0
  0
LINE
  5
1EE
330
1F
100
AcDbEntity
  8
0
  6
Continuous
 62
     7
370
    15
100
AcDbLine
 10
-93.722688864
 20
56.3350433473
 30
0.0
 11
-41.8524681107
 21
54.7837637646
 31
0.0
  0
LINE
  5
1EF
330
1F
100
AcDbEntity
  8
0
  6
Continuous
 62
     7
370
    15
100
AcDbLine
 10
-101.2195077775
 20
33.8234065806
 30
0.0
 11
-110.5680431669
 21
20.6432433345
 31
0.0
  0
LINE
  5
1F0
330
1F
100
AcDbEntity
  8
0
  6
Continuous
 62
     7
370
    15
100
AcDbLine
 10
-45.5896257455
 20
3.0882258716
 30
0.0
 11
-46.2558567221
 21
2.4964472708
 31
0.0
  0
LINE
  5
1F1
330
1F
100
AcDbEntity
  8
0
  6
Continuous
 62
     7
370
    15
100
AcDbLine
 10
-45.3099749542
 20
1.4461433728
 30
0.0
 11
-44.6157300418
 21
2.0628053073
 31
0.0
  0
LINE
  5
1F2
330
1F
100
AcDbEntity
  8
0
  6
Continuous
 62
     7
370
    15
100
AcDbLine
 10
-41.8524681107
 20
54.7837637646
 30
0.0
 11
-41.6910119066
 21
62.4558758014
 31
0.0
  0
LINE
  5
1F3
330
1F
100
AcDbEntity
  8
0
  6
Continuous
 62
     7
370
    15
100
AcDbLine
 10
-53.6947700514
 20
60.2176417294
 30
0.0
 11
-93.6158558324
 21
61.4115592488
 31
0.0
  0
LINE
  5
1F4
330
1F
100
AcDbEntity
  8
0
  6
Continuous
 62
     7
370
    15
100
AcDbLine
 10
-42.9842635391
 20
63.4384924818
 30
0.0
 11
-53.3754141226
 21
60.2604456134
 31
0.0
  0
LINE
  5
1F5
330
1F
100
AcDbEntity
  8
0
  6
Continuous
 62
     7
370
    15
100
AcDbLine
 10
-46.0670275163
 20
11.4692757276
 30
0.0
 11
-46.2558567221
 21
2.4964472708
 31
0.0
  0
LINE
  5
1F6
330
1F
100
AcDbEntity
  8
0
  6
Continuous
 62
     7
370
    15
100
AcDbLine
 10
-46.0670275163
 20
11.4692757276
 30
0.0
 11
-45.4007965396
 21
12.0610543283
 31
0.0
  0
LINE
  5
1F7
330
1F
100
AcDbEntity
  8
0
  6
Continuous
 62
     7
370
    15
100
AcDbLine
 10
-1.6767603432
 20
0.7786321145
 30
0.0
 11
-2.3710052556
 21
0.16197018
 31
0.0
  0
LINE
  5
1F8
330
1F
100
AcDbEntity
  8
0
  6
Continuous
 62
     7
370
    15
100
AcDbLine
 10
-115.3365758689
 20
22.7865633258
 30
0.0
 11
-117.7807937348
 21
24.5344803048
 31
0.0
  0
LINE
  5
1F9
330
1F
100
AcDbEntity
  8
0
  6
Continuous
 62
     7
370
    15
100
AcDbLine
 10
-115.3365758689
 20
22.7865633258
 30
0.0
 11
-115.3762766812
 21
20.9000512458
 31
0.0
  0
LINE
  5
1FA
330
1F
100
AcDbEntity
  8
0
  6
Continuous
 62
     7
370
    15
100
AcDbLine
 10
-110.5680431669
 20
20.6432433345
 30
0.0
 11
-110.5900714027
 21
20.6236767893
 31
0.0
  0
LINE
  5
1FB
330
1F
100
AcDbEntity
  8
0
  6
Continuous
 62
     7
370
    15
100
AcDbLine
 10
-110.5900714027
 20
20.6236767893
 30
0.0
 11
-101.2415360133
 21
33.8038400354
 31
0.0
  0
LINE
  5
1FC
330
1F
100
AcDbEntity
  8
0
  6
Continuous
 62
     7
370
    15
100
AcDbLine
 10
-101.2415360133
 20
33.8038400354
 30
0.0
 11
-101.2195077775
 21
33.8234065806
 31
0.0
  0
LINE
  5
1FD
330
1F
100
AcDbEntity
  8
0
  6
Continuous
 62
     7
370
    15
100
AcDbLine
 10
-45.8644175938
 20
11.6492436676
 30
0.0
 11
-45.1118063594
 21
49.3850770807
 31
0.0
  0
LINE
  5
1FE
330
1F
100
AcDbEntity
  8
0
  6
Continuous
 62
     7
370
    15
100
AcDbLine
 10
-45.1118063594
 20
49.3850770807
 30
0.0
 11
-44.4311013238
 21
49.9897122413
 31
0.0
  0
LINE
  5
1FF
330
1F
100
AcDbEntity
  8
0
  6
Continuous
 62
     7
370
    15
100
AcDbLine
 10
-75.9835263679
 20
-16.8875651937
 30
0.0
 11
-70.0419048175
 21
-17.0652609132
 31
0.0
  0
LINE
  5
200
330
1F
100
AcDbEntity
  8
0
  6
Continuous
 62
     7
370
    15
100
AcDbLine
 10
-70.0419048175
 20
-17.0652609132
 30
0.0
 11
-70.2499906368
 21
-26.9531294372
 31
0.0
  0
LINE
  5
201
330
1F
100
AcDbEntity
  8
0
  6
Continuous
 62
     7
370
    15
100
AcDbLine
 10
-115.395158665
 20
24.2672513198
 30
0.0
 11
-115.2566707479
 21
24.4625004448
 31
0.0
  0
LINE
  5
202
330
1F
100
AcDbEntity
  8
0
  6
Continuous
 62
     7
370
    15
100
AcDbLine
 10
-101.5800866083
 20
35.1059893299
 30
0.0
 11
-106.6897961205
 21
38.7600613089
 31
0.0
  0
LINE
  5
203
330
1F
100
AcDbEntity
  8
0
  6
Continuous
 62
     7
370
    15
100
AcDbLine
 10
-115.4249885268
 20
22.8497892715
 30
0.0
 11
-115.395158665
 21
24.2672513198
 31
0.0
  0
LINE
  5
204
330
1F
100
AcDbEntity
  8
0
  6
Continuous
 62
     7
370
    15
100
AcDbLine
 10
-56.7974987289
 20
11.7783644414
 30
0.0
 11
-79.1517414165
 21
12.4469114375
 31
0.0
  0
LINE
  5
205
330
1F
100
AcDbEntity
  8
0
  6
Continuous
 62
     7
370
    15
100
AcDbLine
 10
-46.2152960908
 20
2.1928778092
 30
0.0
 11
-69.594421215
 21
2.8920759028
 31
0.0
  0
LINE
  5
206
330
1F
100
AcDbEntity
  8
0
  6
Continuous
 62
     7
370
    15
100
AcDbLine
 10
-69.594421215
 20
2.8920759028
 30
0.0
 11
-70.0138908816
 21
-17.0403775795
 31
0.0
  0
LINE
  5
207
330
1F
100
AcDbEntity
  8
0
  6
Continuous
 62
     7
370
    15
100
AcDbLine
 10
-75.9829854183
 20
-16.861860227
 30
0.0
 11
-70.0138908816
 21
-17.0403775795
 31
0.0
  0
LINE
  5
208
330
1F
100
AcDbEntity
  8
0
  6
Continuous
 62
     7
370
    15
100
AcDbLine
 10
-56.7974987289
 20
11.7783644414
 30
0.0
 11
-46.0670275163
 21
11.4692757276
 31
0.0
  0
LINE
  5
209
330
1F
100
AcDbEntity
  8
0
  6
Continuous
 62
     7
370
    15
100
AcDbLine
 10
-75.9829854183
 20
-16.861860227
 30
0.0
 11
-75.9933784915
 21
-17.3557206046
 31
0.0
  0
LINE
  5
20A
330
1F
100
AcDbEntity
  8
0
  6
Continuous
 62
     7
370
    15
100
AcDbLine
 10
-107.5114395822
 20
39.3352514021
 30
0.0
 11
-107.6028923093
 21
39.2540186634
 31
0.0
  0
LINE
  5
20B
330
1F
100
AcDbEntity
  8
0
  6
Continuous
 62
     7
370
    15
100
AcDbLine
 10
-96.4549713768
 20
53.4808837492
 30
0.0
 11
-96.7525049107
 21
53.216600063
 31
0.0
  0
LINE
  5
20C
330
1F
100
AcDbEntity
  8
0
  6
Continuous
 62
     7
370
    15
100
AcDbLine
 10
-96.4549713768
 20
53.4808837492
 30
0.0
 11
-107.5114395822
 21
39.3352514021
 31
0.0
  0
LINE
  5
20D
330
1F
100
AcDbEntity
  8
0
  6
Continuous
 62
     7
370
    15
100
AcDbLine
 10
-118.7289597668
 20
24.997286927
 30
0.0
 11
-118.6938899235
 21
25.0284376593
 31
0.0
  0
LINE
  5
20E
330
1F
100
AcDbEntity
  8
0
  6
Continuous
 62
     7
370
    15
100
AcDbLine
 10
-105.5241447085
 20
38.1208152955
 30
0.0
 11
-101.4588805279
 21
35.2136504372
 31
0.0
  0
LINE
  5
20F
330
1F
100
AcDbEntity
  8
0
  6
Continuous
 62
     7
370
    15
100
AcDbLine
 10
-105.5241447085
 20
38.1208152955
 30
0.0
 11
-105.5538980619
 21
38.0943869269
 31
0.0
  0
LINE
  5
210
330
1F
100
AcDbEntity
  8
0
  6
Continuous
 62
     7
370
    15
100
AcDbLine
 10
-96.4101549365
 20
50.9858209381
 30
0.0
 11
-105.5538980619
 21
38.0943869269
 31
0.0
  0
LINE
  5
211
330
1F
100
AcDbEntity
  8
0
  6
Continuous
 62
     7
370
    15
100
AcDbLine
 10
-70.0138908816
 20
-17.0403775795
 30
0.0
 11
-70.0419048175
 21
-17.0652609132
 31
0.0
  0
LINE
  5
212
330
1F
100
AcDbEntity
  8
0
  6
Continuous
 62
     7
370
    15
100
AcDbLine
 10
-96.052939369
 20
58.7107493022
 30
0.0
 11
-96.0022653898
 21
61.1186867846
 31
0.0
  0
LINE
  5
213
330
1F
100
AcDbEntity
  8
0
  6
Continuous
 62
     7
370
    15
100
AcDbLine
 10
-96.0971857651
 20
55.630201627
 30
0.0
 11
-96.052939369
 21
58.7107493022
 31
0.0
  0
LINE
  5
214
330
1F
100
AcDbEntity
  8
0
  6
Continuous
 62
     7
370
    15
100
AcDbLine
 10
-96.3909020819
 20
51.9006823908
 30
0.0
 11
-96.4101549365
 21
50.9858209381
 31
0.0
  0
LINE
  5
215
330
1F
100
AcDbEntity
  8
0
  6
Continuous
 62
     7
370
    15
100
AcDbLine
 10
-96.2997989237
 20
60.8544030984
 30
0.0
 11
-96.0022653898
 21
61.1186867846
 31
0.0
  0
LINE
  5
216
330
1F
100
AcDbEntity
  8
0
  6
Continuous
 62
     7
370
    15
100
AcDbLine
 10
-96.4199301541
 20
59.7706408641
 30
0.0
 11
-96.5331958357
 21
54.3884568594
 31
0.0
  0
LINE
  5
217
330
1F
100
AcDbEntity
  8
0
  6
Continuous
 62
     7
370
    15
100
AcDbLine
 10
-94.1074875862
 20
55.5706958428
 30
0.0
 11
-96.0971857651
 21
55.630201627
 31
0.0
  0
LINE
  5
218
330
1F
100
AcDbEntity
  8
0
  6
Continuous
 62
     7
370
    15
100
AcDbLine
 10
-56.5974036221
 20
11.9560986005
 30
0.0
 11
-56.7974987289
 21
11.7783644414
 31
0.0
  0
LINE
  5
219
330
1F
100
AcDbEntity
  8
0
  6
Continuous
 62
     7
370
    15
100
AcDbLine
 10
-87.429122061
 20
64.0381445057
 30
0.0
 11
-87.4882539657
 21
61.2283014271
 31
0.0
  0
LINE
  5
21A
330
1F
100
AcDbEntity
  8
0
  6
Continuous
 62
     7
370
    15
100
AcDbLine
 10
-88.4038496555
 20
65.0628261443
 30
0.0
 11
-92.7347169984
 21
65.1890268472
 31
0.0
  0
LINE
  5
21B
330
1F
100
AcDbEntity
  8
0
  6
Continuous
 62
     7
370
    15
100
AcDbLine
 10
-101.4588805279
 20
35.2136504372
 30
0.0
 11
-101.5800866083
 21
35.1059893299
 31
0.0
  0
LINE
  5
21C
330
1F
100
AcDbEntity
  8
0
  6
Continuous
 62
     7
370
    15
100
AcDbLine
 10
-106.5983433935
 20
38.8412940476
 30
0.0
 11
-105.5538980619
 21
38.0943869269
 31
0.0
  0
LINE
  5
21D
330
1F
100
AcDbEntity
  8
0
  6
Continuous
 62
     7
370
    15
100
AcDbLine
 10
-106.5983433935
 20
38.8412940476
 30
0.0
 11
-96.3909020819
 21
51.9006823908
 31
0.0
  0
LINE
  5
21E
330
1F
100
AcDbEntity
  8
0
  6
Continuous
 62
     7
370
    15
100
AcDbLine
 10
-45.1118063594
 20
49.3850770807
 30
0.0
 11
-55.8447464185
 21
49.6942369091
 31
0.0
  0
LINE
  5
21F
330
1F
100
AcDbEntity
  8
0
  6
Continuous
 62
     7
370
    15
100
AcDbLine
 10
-94.0632411901
 20
58.651243518
 30
0.0
 11
-96.052939369
 21
58.7107493022
 31
0.0
  0
LINE
  5
220
330
1F
100
AcDbEntity
  8
0
  6
Continuous
 62
     7
370
    15
100
AcDbLine
 10
-94.0125672109
 20
61.0591810005
 30
0.0
 11
-96.0022653898
 21
61.1186867846
 31
0.0
  0
LINE
  5
221
330
1F
100
AcDbEntity
  8
0
  6
Continuous
 62
     7
370
    15
100
AcDbLine
 10
-6.1351297346
 20
5.8934399201
 30
0.0
 11
-6.0837603342
 21
8.3344225826
 31
0.0
  0
LINE
  5
222
330
1F
100
AcDbEntity
  8
0
  6
Continuous
 62
     7
370
    15
100
AcDbLine
 10
-6.0837603342
 20
8.3344225826
 30
0.0
 11
-5.4886932664
 21
8.8629899551
 31
0.0
  0
LINE
  5
223
330
1F
100
AcDbEntity
  8
0
  6
Continuous
 62
     7
370
    15
100
AcDbLine
 10
-33.0465415337
 20
1.0793816046
 30
0.0
 11
-69.6095565955
 21
2.1728695043
 31
0.0
  0
LINE
  5
224
330
1F
100
AcDbEntity
  8
0
  6
Continuous
 62
     7
370
    15
100
AcDbLine
 10
-2.3799454441
 20
0.158084765
 30
0.0
 11
-2.3710052556
 21
0.16197018
 31
0.0
  0
LINE
  5
225
330
1F
100
AcDbEntity
  8
0
  6
Continuous
 62
     7
370
    15
100
AcDbLine
 10
-11.4691149085
 20
8.495482059
 30
0.0
 11
-6.0837603342
 21
8.3344225826
 31
0.0
  0
LINE
  5
226
330
1F
100
AcDbEntity
  8
0
  6
Continuous
 62
     7
370
    15
100
AcDbLine
 10
-86.3621320866
 20
-21.5208510631
 30
0.0
 11
-76.5262442159
 21
-21.815012372
 31
0.0
  0
LINE
  5
227
330
1F
100
AcDbEntity
  8
0
  6
Continuous
 62
     7
370
    15
100
AcDbLine
 10
-75.3127475101
 20
-27.1285403446
 30
0.0
 11
-75.1844151996
 21
-21.030416901
 31
0.0
  0
LINE
  5
228
330
1F
100
AcDbEntity
  8
0
  6
Continuous
 62
     7
370
    15
100
AcDbLine
 10
-115.2686379823
 20
20.7498878538
 30
0.0
 11
-115.089537126
 21
20.9089739033
 31
0.0
  0
LINE
  5
229
330
1F
100
AcDbEntity
  8
0
  6
Continuous
 62
     7
370
    15
100
AcDbLine
 10
-2.3710052556
 20
0.16197018
 30
0.0
 11
-29.2403249212
 21
0.9655493125
 31
0.0
  0
LINE
  5
22A
330
1F
100
AcDbEntity
  8
0
  6
Continuous
 62
     7
370
    15
100
AcDbLine
 10
-117.8854733725
 20
24.4005533002
 30
0.0
 11
-117.7807937348
 21
24.5344803048
 31
0.0
  0
LINE
  5
22B
330
1F
100
AcDbEntity
  8
0
  6
Continuous
 62
     7
370
    15
100
AcDbLine
 10
-118.6938899235
 20
25.0284376593
 30
0.0
 11
-118.7184827765
 21
24.9969735923
 31
0.0
  0
LINE
  5
22C
330
1F
100
AcDbEntity
  8
0
  6
Continuous
 62
     7
370
    15
100
AcDbLine
 10
-101.5800866083
 20
35.1059893299
 30
0.0
 11
-111.9796681093
 21
20.4439940371
 31
0.0
  0
LINE
  5
22D
330
1F
100
AcDbEntity
  8
0
  6
Continuous
 62
     7
370
    15
100
AcDbLine
 10
-117.7987480928
 20
24.5472812925
 30
0.0
 11
-106.6897961205
 21
38.7600613089
 31
0.0
  0
LINE
  5
22E
330
1F
100
AcDbEntity
  8
0
  6
Continuous
 62
     7
370
    15
100
AcDbLine
 10
-107.6028923093
 20
39.2540186634
 30
0.0
 11
-118.7458039518
 21
24.997790685
 31
0.0
  0
LINE
  5
22F
330
1F
100
AcDbEntity
  8
0
  6
Continuous
 62
     7
370
    15
100
AcDbLine
 10
-118.8073698562
 20
24.9996319328
 30
0.0
 11
-96.7525049107
 21
53.216600063
 31
0.0
  0
ARC
  5
230
330
1F
100
AcDbEntity
  8
0
  6
Continuous
 62
     7
370
    15
100
AcDbCircle
 10
-76.5052908302
 20
-20.8193446998
 30
0.0
 40
1.000000000000035
100
AcDbArc
 50
311.6130330234
 51
358.7944136174
  0
ARC
  5
231
330
1F
100
AcDbEntity
  8
0
  6
Continuous
 62
     7
370
    15
100
AcDbCircle
 10
-76.487834012
 20
-19.9898277073
 30
0.0
 40
0.9999999999999897
100
AcDbArc
 50
358.7944136174
 51
88.2869691609
  0
ARC
  5
232
330
1F
100
AcDbEntity
  8
0
  6
Continuous
 62
     7
370
    15
100
AcDbCircle
 10
-123.3345148378
 20
-16.4505079667
 30
0.0
 40
2.446896518487907
100
AcDbArc
 50
55.677485928
 51
80.4812333048
  0
ARC
  5
233
330
1F
100
AcDbEntity
  8
0
  6
Continuous
 62
     7
370
    15
100
AcDbCircle
 10
-74.5950966214
 20
-27.8084422693
 30
0.0
 40
0.9848224302198426
100
AcDbArc
 50
88.2013374988
 51
169.6557432427
  0
ARC
  5
234
330
1F
100
AcDbEntity
  8
0
  6
Continuous
 62
     7
370
    15
100
AcDbCircle
 10
-44.5838513931
 20
3.0682723347
 30
0.0
 40
1.005972261770163
100
AcDbArc
 50
178.863459289
 51
268.1840275984
  0
ARC
  5
235
330
1F
100
AcDbEntity
  8
0
  6
Continuous
 62
     7
370
    15
100
AcDbCircle
 10
-123.6974533098
 20
-13.487497077
 30
0.0
 40
1.981017103129805
100
AcDbArc
 50
331.6014420954
 51
358.8213342314
  0
ARC
  5
236
330
1F
100
AcDbEntity
  8
0
  6
Continuous
 62
     7
370
    15
100
AcDbCircle
 10
-75.6291128335
 20
-27.2935325369
 30
0.0
 40
1.006572604073436
100
AcDbArc
 50
178.8804227214
 51
244.7161554688
  0
ARC
  5
237
330
1F
100
AcDbEntity
  8
0
  6
Continuous
 62
     7
370
    15
100
AcDbCircle
 10
-114.1003436726
 20
20.8956432434
 30
0.0
 40
0.9892832732012956
100
AcDbArc
 50
144.6885581753
 51
179.2279120786
  0
ARC
  5
238
330
1F
100
AcDbEntity
  8
0
  6
Continuous
 62
     7
370
    15
100
AcDbCircle
 10
-111.2687505912
 20
21.3021076847
 30
0.0
 40
1.982205975772127
100
AcDbArc
 50
234.1635998192
 51
324.4598733591
  0
ARC
  5
239
330
1F
100
AcDbEntity
  8
0
  6
Continuous
 62
     7
370
    15
100
AcDbCircle
 10
-101.9441736088
 20
34.4796858203
 30
0.0
 40
2.000262715372339
100
AcDbArc
 50
324.9190408005
 51
54.6198000143
  0
ARC
  5
23A
330
1F
100
AcDbEntity
  8
0
  6
Continuous
 62
     7
370
    15
100
AcDbCircle
 10
-87.9423775942
 20
-19.9741697546
 30
0.0
 40
0.986982499041563
100
AcDbArc
 50
131.6585211376
 51
178.8679350263
  0
ARC
  5
23B
330
1F
100
AcDbEntity
  8
0
  6
Continuous
 62
     7
370
    15
100
AcDbCircle
 10
-76.8633173929
 20
-21.1513894935
 30
0.0
 40
0.9900239127558209
100
AcDbArc
 50
268.2702076254
 51
289.9058592243
  0
ARC
  5
23C
330
1F
100
AcDbEntity
  8
0
  6
Continuous
 62
     7
370
    15
100
AcDbCircle
 10
-131.5265711335
 20
-86.0179133249
 30
0.0
 40
2.002881169148726
100
AcDbArc
 50
324.1582777183
 51
119.0677883285
  0
ARC
  5
23D
330
1F
100
AcDbEntity
  8
0
  6
Continuous
 62
     7
370
    15
100
AcDbCircle
 10
-123.8011812719
 20
-13.566213654
 30
0.0
 40
0.9905085515643675
100
AcDbArc
 50
331.6014420954
 51
358.8213342314
  0
ARC
  5
23E
330
1F
100
AcDbEntity
  8
0
  6
Continuous
 62
     7
370
    15
100
AcDbCircle
 10
-122.0600276516
 20
-17.3798613177
 30
0.0
 40
3.866872238593188
100
AcDbArc
 50
84.9084882218
 51
101.1966048911
  0
ARC
  5
23F
330
1F
100
AcDbEntity
  8
0
  6
Continuous
 62
     7
370
    15
100
AcDbCircle
 10
-120.874229724
 20
23.9133458833
 30
0.0
 40
1.149416592622105
100
AcDbArc
 50
91.5207049872
 51
175.2589385113
  0
ARC
  5
240
330
1F
100
AcDbEntity
  8
0
  6
Continuous
 62
     7
370
    15
100
AcDbCircle
 10
-124.3962483397
 20
-14.0947810264
 30
0.0
 40
0.9905085515649868
100
AcDbArc
 50
331.6014420954
 51
358.8213342314
  0
ARC
  5
241
330
1F
100
AcDbEntity
  8
0
  6
Continuous
 62
     7
370
    15
100
AcDbCircle
 10
-87.6215795957
 20
-19.4986837961
 30
0.0
 40
0.84249661368393
100
AcDbArc
 50
90.4378544174
 51
182.853516144
  0
ARC
  5
242
330
1F
100
AcDbEntity
  8
0
  6
Continuous
 62
     7
370
    15
100
AcDbCircle
 10
-79.9625133553
 20
-20.8855748494
 30
0.0
 40
3.559747140882507
100
AcDbArc
 50
344.8648654292
 51
2.4847064679
  0
ARC
  5
243
330
1F
100
AcDbEntity
  8
0
  6
Continuous
 62
     7
370
    15
100
AcDbCircle
 10
-121.8415397066
 20
23.5519838466
 30
0.0
 40
0.7766045734716819
100
AcDbArc
 50
131.5337972542
 51
185.3346391393
  0
ARC
  5
244
330
1F
100
AcDbEntity
  8
0
  6
Continuous
 62
     7
370
    15
100
AcDbCircle
 10
-75.3619407499
 20
-26.9361070072
 30
0.0
 40
1.05071565220995
100
AcDbArc
 50
187.2382722
 51
249.0884393795
  0
ARC
  5
245
330
1F
100
AcDbEntity
  8
0
  6
Continuous
 62
     7
370
    15
100
AcDbCircle
 10
-75.6015614439
 20
-21.946503247
 30
0.0
 40
1.006590871416117
100
AcDbArc
 50
358.8808746039
 51
65.5175253356
  0
ARC
  5
246
330
1F
100
AcDbEntity
  8
0
  6
Continuous
 62
     7
370
    15
100
AcDbCircle
 10
-114.2077456914
 20
21.0082712507
 30
0.0
 40
0.8370710893276166
100
AcDbArc
 50
54.1264274887
 51
146.730543785
  0
ARC
  5
247
330
1F
100
AcDbEntity
  8
0
  6
Continuous
 62
     7
370
    15
100
AcDbCircle
 10
-114.3238832813
 20
20.7010943169
 30
0.0
 40
0.9859840360433068
100
AcDbArc
 50
131.6423043979
 51
174.2189461251
  0
ARC
  5
248
330
1F
100
AcDbEntity
  8
0
  6
Continuous
 62
     7
370
    15
100
AcDbCircle
 10
-86.3385735728
 20
54.1874306533
 30
0.0
 40
7.690084454460739
100
AcDbArc
 50
163.78333734
 51
193.8054898947
  0
ARC
  5
249
330
1F
100
AcDbEntity
  8
0
  6
Continuous
 62
     7
370
    15
100
AcDbCircle
 10
-60.709782184
 20
53.3453914457
 30
0.0
 40
33.47175982514416
100
AcDbArc
 50
176.1879906118
 51
183.6754679652
  0
ARC
  5
24A
330
1F
100
AcDbEntity
  8
0
  6
Continuous
 62
     7
370
    15
100
AcDbCircle
 10
-111.1571453572
 20
18.4638653013
 30
0.0
 40
2.257593852342082
100
AcDbArc
 50
48.3165545791
 51
74.874005728
  0
ARC
  5
24B
330
1F
100
AcDbEntity
  8
0
  6
Continuous
 62
     7
370
    15
100
AcDbCircle
 10
-33.3115521548
 20
52.5357424553
 30
0.0
 40
8.831808714693508
100
AcDbArc
 50
165.2538533031
 51
191.3200850187
  0
ARC
  5
24C
330
1F
100
AcDbEntity
  8
0
  6
Continuous
 62
     7
370
    15
100
AcDbCircle
 10
-101.8086099678
 20
31.6440285474
 30
0.0
 40
2.257593852341742
100
AcDbArc
 50
48.3165545791
 51
74.874005728
  0
ARC
  5
24D
330
1F
100
AcDbEntity
  8
0
  6
Continuous
 62
     7
370
    15
100
AcDbCircle
 10
-45.2556220879
 20
2.4755965464
 30
0.0
 40
1.000451935953356
100
AcDbArc
 50
178.8057946933
 51
196.4149061744
  0
ARC
  5
24E
330
1F
100
AcDbEntity
  8
0
  6
Continuous
 62
     7
370
    15
100
AcDbCircle
 10
-102.5075567799
 20
15.7324313068
 30
0.0
 40
2.002913071760967
100
AcDbArc
 50
324.1623782621
 51
119.0636877847
  0
ARC
  5
24F
330
1F
100
AcDbEntity
  8
0
  6
Continuous
 62
     7
370
    15
100
AcDbCircle
 10
-42.6949165873
 20
62.4769585858
 30
0.0
 40
1.004126033753047
100
AcDbArc
 50
358.7969206121
 51
106.7477103907
  0
ARC
  5
250
330
1F
100
AcDbEntity
  8
0
  6
Continuous
 62
     7
370
    15
100
AcDbCircle
 10
-53.6649366627
 20
61.2078023736
 30
0.0
 40
0.9906099799334248
100
AcDbArc
 50
268.2742090361
 51
286.9937228118
  0
ARC
  5
251
330
1F
100
AcDbEntity
  8
0
  6
Continuous
 62
     7
370
    15
100
AcDbCircle
 10
-121.892490409
 20
18.8045648794
 30
0.0
 40
7.052515886060359
100
AcDbArc
 50
54.3373764405
 51
58.1062340619
  0
ARC
  5
252
330
1F
100
AcDbEntity
  8
0
  6
Continuous
 62
     7
370
    15
100
AcDbCircle
 10
-118.6611080578
 20
24.7856070808
 30
0.0
 40
0.2450333458819699
100
AcDbArc
 50
57.0707895452
 51
97.6883869785
  0
ARC
  5
253
330
1F
100
AcDbEntity
  8
0
  6
Continuous
 62
     7
370
    15
100
AcDbCircle
 10
-35.4447520035
 20
37.3109135406
 30
0.0
 40
9.566930475017882
100
AcDbArc
 50
163.7751761777
 51
193.9396891207
  0
ARC
  5
254
330
1F
100
AcDbEntity
  8
0
  6
Continuous
 62
     7
370
    15
100
AcDbCircle
 10
-102.1031471692
 20
34.2749117308
 30
0.0
 40
0.981978780932932
100
AcDbArc
 50
331.3330941239
 51
57.8146605709
  0
ARC
  5
255
330
1F
100
AcDbEntity
  8
0
  6
Continuous
 62
     7
370
    15
100
AcDbCircle
 10
-108.1938710625
 20
37.0706526369
 30
0.0
 40
2.261933485388908
100
AcDbArc
 50
48.3214333379
 51
74.8544782029
  0
ARC
  5
256
330
1F
100
AcDbEntity
  8
0
  6
Continuous
 62
     7
370
    15
100
AcDbCircle
 10
-115.3491778129
 20
46.1923907913
 30
0.0
 40
12.71540823120558
100
AcDbArc
 50
320.59581359
 51
325.6497686235
  0
ARC
  5
257
330
1F
100
AcDbEntity
  8
0
  6
Continuous
 62
     7
370
    15
100
AcDbCircle
 10
-111.2839136322
 20
43.2852259331
 30
0.0
 40
12.71540823119461
100
AcDbArc
 50
320.59581359
 51
325.6497686235
  0
ARC
  5
258
330
1F
100
AcDbEntity
  8
0
  6
Continuous
 62
     7
370
    15
100
AcDbCircle
 10
-102.0379560335
 20
34.3982154052
 30
0.0
 40
1.000131357686198
100
AcDbArc
 50
324.9190408005
 51
54.6198000143
  0
ARC
  5
259
330
1F
100
AcDbEntity
  8
0
  6
Continuous
 62
     7
370
    15
100
AcDbCircle
 10
-70.4745190129
 20
57.3884053277
 30
0.0
 40
1.998486077280607
100
AcDbArc
 50
327.4589217267
 51
51.7423158139
  0
ARC
  5
25A
330
1F
100
AcDbEntity
  8
0
  6
Continuous
 62
     7
370
    15
100
AcDbCircle
 10
-92.8635297843
 20
59.9249655758
 30
0.0
 40
3.559747140882619
100
AcDbArc
 50
164.8648654292
 51
182.4847064679
  0
ARC
  5
25B
330
1F
100
AcDbEntity
  8
0
  6
Continuous
 62
     7
370
    15
100
AcDbCircle
 10
-62.6994803629
 20
53.4048972298
 30
0.0
 40
33.47175982514327
100
AcDbArc
 50
176.1879906118
 51
183.6754679652
  0
ARC
  5
25C
330
1F
100
AcDbEntity
  8
0
  6
Continuous
 62
     7
370
    15
100
AcDbCircle
 10
-102.2577483948
 20
52.4542105171
 30
0.0
 40
5.892900732764121
100
AcDbArc
 50
354.610184316
 51
10.0333892762
  0
ARC
  5
25D
330
1F
100
AcDbEntity
  8
0
  6
Continuous
 62
     7
370
    15
100
AcDbCircle
 10
-100.0895962055
 20
54.2341321476
 30
0.0
 40
3.559747140881957
100
AcDbArc
 50
344.8648654292
 51
2.4847064679
  0
ARC
  5
25E
330
1F
100
AcDbEntity
  8
0
  6
Continuous
 62
     7
370
    15
100
AcDbCircle
 10
-22.8114315677
 20
4.6548039442
 30
0.0
 40
2.003687168239867
100
AcDbArc
 50
327.5139320313
 51
115.7121340155
  0
ARC
  5
25F
330
1F
100
AcDbEntity
  8
0
  6
Continuous
 62
     7
370
    15
100
AcDbCircle
 10
-88.434407887
 20
64.0578124067
 30
0.0
 40
1.005478203785953
100
AcDbArc
 50
358.8791804821
 51
88.258413428
  0
ARC
  5
260
330
1F
100
AcDbEntity
  8
0
  6
Continuous
 62
     7
370
    15
100
AcDbCircle
 10
-92.7649408156
 20
64.2028868949
 30
0.0
 40
0.9866030025563713
100
AcDbArc
 50
88.2445136218
 51
178.8682861499
  0
ARC
  5
261
330
1F
100
AcDbEntity
  8
0
  6
Continuous
 62
     7
370
    15
100
AcDbCircle
 10
-108.1024183355
 20
37.1518853756
 30
0.0
 40
2.261933485388759
100
AcDbArc
 50
48.3214333379
 51
74.854478203
  0
ARC
  5
262
330
1F
100
AcDbEntity
  8
0
  6
Continuous
 62
     7
370
    15
100
AcDbCircle
 10
-92.9629172019
 20
64.026684228
 30
0.0
 40
0.9869824990410616
100
AcDbArc
 50
131.6585211376
 51
178.8679350263
  0
ARC
  5
263
330
1F
100
AcDbEntity
  8
0
  6
Continuous
 62
     7
370
    15
100
AcDbCircle
 10
-30.8635282034
 20
37.0626524256
 30
0.0
 40
11.65516352085086
100
AcDbArc
 50
165.858277076
 51
190.5221210544
  0
ARC
  5
264
330
1F
100
AcDbEntity
  8
0
  6
Continuous
 62
     7
370
    15
100
AcDbCircle
 10
-64.6003814881
 20
5.5089058641
 30
0.0
 40
2.000622265107361
100
AcDbArc
 50
314.4571859223
 51
128.7688801244
  0
ARC
  5
265
330
1F
100
AcDbEntity
  8
0
  6
Continuous
 62
     7
370
    15
100
AcDbCircle
 10
-89.6478448989
 20
-19.2785868023
 30
0.0
 40
2.207416933873577
100
AcDbArc
 50
352.3974766567
 51
16.2964498753
  0
ARC
  5
266
330
1F
100
AcDbEntity
  8
0
  6
Continuous
 62
     7
370
    15
100
AcDbCircle
 10
-78.5766692765
 20
-19.609691788
 30
0.0
 40
2.20741693387352
100
AcDbArc
 50
352.3974766567
 51
16.2964498753
  0
ARC
  5
267
330
1F
100
AcDbEntity
  8
0
  6
Continuous
 62
     7
370
    15
100
AcDbCircle
 10
-76.2291121476
 20
-23.0411434656
 30
0.0
 40
2.316664948343514
100
AcDbArc
 50
71.7993596458
 51
94.3818566333
  0
ARC
  5
268
330
1F
100
AcDbEntity
  8
0
  6
Continuous
 62
     7
370
    15
100
AcDbCircle
 10
-76.4957727312
 20
-20.829089654
 30
0.0
 40
0.9863934901161729
100
AcDbArc
 50
268.2297477737
 51
311.5755912483
  0
ARC
  5
269
330
1F
100
AcDbEntity
  8
0
  6
Continuous
 62
     7
370
    15
100
AcDbCircle
 10
-76.2116553294
 20
-22.2116264732
 30
0.0
 40
2.316664948343407
100
AcDbArc
 50
71.7993596458
 51
94.3818566333
  0
ARC
  5
26A
330
1F
100
AcDbEntity
  8
0
  6
Continuous
 62
     7
370
    15
100
AcDbCircle
 10
-117.454740618
 20
23.561451609
 30
0.0
 40
6.340628227018687
100
AcDbArc
 50
322.4273806416
 51
330.3055475191
  0
MTEXT
  5
26C
330
1F
100
AcDbEntity
  8
0
  6
Continuous
 62
     7
100
AcDbMText
 10
-153.544567736
 20
-109.2631176524
 30
0.0
 40
4.83362
 41
0.0
 71
     1
 72
     1
  1
SolidWorks Educational Edition.
  7
SLDTEXTSTYLE0
 73
     1
 44
1.0
  0
MTEXT
  5
26D
330
1F
100
AcDbEntity
  8
0
  6
Continuous
 62
     7
100
AcDbMText
 10
-153.544567736
 20
-116.5135476524
 30
0.0
 40
4.83362
 41
0.0
 71
     1
 72
     1
  1
For Instructional Use Only.
  7
SLDTEXTSTYLE0
 73
     1
 44
1.0
  0
ENDSEC
  0
SECTION
  2
OBJECTS
  0
DICTIONARY
  5
C
330
0
100
AcDbDictionary
281
     1
  3
ACAD_GROUP
350
D
  3
ACAD_LAYOUT
350
1A
  3
ACAD_MLINESTYLE
350
17
  3
ACAD_PLOTSETTINGS
350
19
  3
ACAD_PLOTSTYLENAME
350
E
  0
DICTIONARY
  5
D
102
{ACAD_REACTORS
330
C
102
}
330
C
100
AcDbDictionary
281
     1
  0
DICTIONARY
  5
1A
102
{ACAD_REACTORS
330
C
102
}
330
C
100
AcDbDictionary
281
     1
  3
Layout1
350
1E
  3
Layout2
350
26
  3
Model
350
22
  0
DICTIONARY
  5
17
102
{ACAD_REACTORS
330
C
102
}
330
C
100
AcDbDictionary
281
     1
  3
Standard
350
18
  0
DICTIONARY
  5
19
102
{ACAD_REACTORS
330
C
102
}
330
C
100
AcDbDictionary
281
     1
  0
ACDBDICTIONARYWDFLT
  5
E
102
{ACAD_REACTORS
330
C
102
}
330
C
100
AcDbDictionary
281
     1
  3
Normal
350
F
100
AcDbDictionaryWithDefault
340
F
  0
LAYOUT
  5
1E
102
{ACAD_REACTORS
330
1A
102
}
330
1A
100
AcDbPlotSettings
  1

  2
none_device
  4

  6

 40
0.0
 41
0.0
 42
0.0
 43
0.0
 44
0.0
 45
0.0
 46
0.0
 47
0.0
 48
0.0
 49
0.0
140
0.0
141
0.0
142
1.0
143
1.0
 70
   688
 72
     0
 73
     0
 74
     5
  7

 75
    16
147
1.0
148
0.0
149
0.0
100
AcDbLayout
  1
Layout1
 70
     1
 71
     1
 10
0.0
 20
0.0
 11
420.0
 21
297.0
 12
0.0
 22
0.0
 32
0.0
 14
1.0000000000E+20
 24
1.0000000000E+20
 34
1.0000000000E+20
 15
-1.0000000000E+20
 25
-1.0000000000E+20
 35
-1.0000000000E+20
146
0.0
 13
0.0
 23
0.0
 33
0.0
 16
1.0
 26
0.0
 36
0.0
 17
0.0
 27
1.0
 37
0.0
 76
     0
330
1B
  0
LAYOUT
  5
26
102
{ACAD_REACTORS
330
1A
102
}
330
1A
100
AcDbPlotSettings
  1

  2
none_device
  4

  6

 40
0.0
 41
0.0
 42
0.0
 43
0.0
 44
0.0
 45
0.0
 46
0.0
 47
0.0
 48
0.0
 49
0.0
140
0.0
141
0.0
142
1.0
143
1.0
 70
   688
 72
     0
 73
     0
 74
     5
  7

 75
    16
147
1.0
148
0.0
149
0.0
100
AcDbLayout
  1
Layout2
 70
     1
 71
     2
 10
0.0
 20
0.0
 11
0.0
 21
0.0
 12
0.0
 22
0.0
 32
0.0
 14
0.0
 24
0.0
 34
0.0
 15
0.0
 25
0.0
 35
0.0
146
0.0
 13
0.0
 23
0.0
 33
0.0
 16
1.0
 26
0.0
 36
0.0
 17
0.0
 27
1.0
 37
0.0
 76
     0
330
23
  0
LAYOUT
  5
22
102
{ACAD_REACTORS
330
1A
102
}
330
1A
100
AcDbPlotSettings
  1

  2
none_device
  4
ANSI_A_(11.00_x_8.50_Inches)
  6

 40
6.35
 41
19.05
 42
6.35000508
 43
19.05000254
 44
279.4
 45
215.9
 46
228.8950357142
 47
115.4301744923
 48
0.0
 49
0.0
140
0.0
141
0.0
142
0.0485201663
143
1.0
 70
  1696
 72
     0
 73
     0
 74
     0
  7

 75
     0
147
0.0179189148
148
0.0
149
0.0
100
AcDbLayout
  1
Model
 70
     1
 71
     0
 10
0.0
 20
0.0
 11
420.0
 21
297.0
 12
0.0
 22
0.0
 32
0.0
 14
-153.544567736
 24
-108.2435512607
 34
0.0
 15
-1.5091332573
 25
65.1894898974
 35
0.0
146
0.0
 13
0.0
 23
0.0
 33
0.0
 16
1.0
 26
0.0
 36
0.0
 17
0.0
 27
1.0
 37
0.0
 76
     0
330
1F
331
29
  0
MLINESTYLE
  5
18
102
{ACAD_REACTORS
330
17
102
}
330
17
100
AcDbMlineStyle
  2
Standard
 70
     0
  3

 62
   256
 51
90.0
 52
90.0
 71
     2
 49
0.5
 62
   256
  6
BYLAYER
 49
-0.5
 62
   256
  6
BYLAYER
  0
ACDBPLACEHOLDER
  5
F
102
{ACAD_REACTORS
330
E
102
}
330
E
  0
ENDSEC
  0
EOF
