  0
SECTION
  2
HEADER
  9
$ACADVER
  1
AC1015
  9
$ACADMAINTVER
 70
     6
  9
$DWGCODEPAGE
  3
ANSI_1252
  9
$INSBASE
 10
0.0
 20
0.0
 30
0.0
  9
$EXTMIN
 10
-4.9483263244
 20
-95.4884277221
 30
0.0
  9
$EXTMAX
 10
75.0764548125
 20
71.5603961061
 30
0.0
  9
$LIMMIN
 10
0.0
 20
0.0
  9
$LIMMAX
 10
420.0
 20
297.0
  9
$ORTHOMODE
 70
     0
  9
$REGENMODE
 70
     1
  9
$FILLMODE
 70
     1
  9
$QTEXTMODE
 70
     0
  9
$MIRRTEXT
 70
     1
  9
$LTSCALE
 40
1.0
  9
$ATTMODE
 70
     1
  9
$TEXTSIZE
 40
2.5
  9
$TRACEWID
 40
1.0
  9
$TEXTSTYLE
  7
Standard
  9
$CLAYER
  8
0
  9
$CELTYPE
  6
ByLayer
  9
$CECOLOR
 62
   256
  9
$CELTSCALE
 40
1.0
  9
$DISPSILH
 70
     0
  9
$DIMSCALE
 40
1.0
  9
$DIMASZ
 40
6.0
  9
$DIMEXO
 40
1.0
  9
$DIMDLI
 40
3.75
  9
$DIMRND
 40
0.0
  9
$DIMDLE
 40
0.0
  9
$DIMEXE
 40
1.0
  9
$DIMTP
 40
0.0
  9
$DIMTM
 40
0.0
  9
$DIMTXT
 40
2.5
  9
$DIMCEN
 40
2.5
  9
$DIMTSZ
 40
0.0
  9
$DIMTOL
 70
     0
  9
$DIMLIM
 70
     0
  9
$DIMTIH
 70
     1
  9
$DIMTOH
 70
     1
  9
$DIMSE1
 70
     0
  9
$DIMSE2
 70
     0
  9
$DIMTAD
 70
     1
  9
$DIMZIN
 70
     0
  9
$DIMBLK
  1

  9
$DIMASO
 70
     1
  9
$DIMSHO
 70
     1
  9
$DIMPOST
  1

  9
$DIMAPOST
  1

  9
$DIMALT
 70
     0
  9
$DIMALTD
 70
     3
  9
$DIMALTF
 40
0.0393700787
  9
$DIMLFAC
 40
1.0
  9
$DIMTOFL
 70
     1
  9
$DIMTVP
 40
0.0
  9
$DIMTIX
 70
     0
  9
$DIMSOXD
 70
     0
  9
$DIMSAH
 70
     0
  9
$DIMBLK1
  1

  9
$DIMBLK2
  1

  9
$DIMSTYLE
  2
ISO-25
  9
$DIMCLRD
 70
     0
  9
$DIMCLRE
 70
     0
  9
$DIMCLRT
 70
     0
  9
$DIMTFAC
 40
1.0
  9
$DIMGAP
 40
1.524
  9
$DIMJUST
 70
     0
  9
$DIMSD1
 70
     0
  9
$DIMSD2
 70
     0
  9
$DIMTOLJ
 70
     0
  9
$DIMTZIN
 70
     0
  9
$DIMALTZ
 70
     0
  9
$DIMALTTZ
 70
     0
  9
$DIMUPT
 70
     0
  9
$DIMDEC
 70
     2
  9
$DIMTDEC
 70
     2
  9
$DIMALTU
 70
     2
  9
$DIMALTTD
 70
     3
  9
$DIMTXSTY
  7
Standard
  9
$DIMAUNIT
 70
     0
  9
$DIMADEC
 70
     2
  9
$DIMALTRND
 40
0.0
  9
$DIMAZIN
 70
     0
  9
$DIMDSEP
 70
    44
  9
$DIMATFIT
 70
     3
  9
$DIMFRAC
 70
     0
  9
$DIMLDRBLK
  1

  9
$DIMLUNIT
 70
     2
  9
$DIMLWD
 70
    -2
  9
$DIMLWE
 70
    -2
  9
$DIMTMOVE
 70
     0
  9
$LUNITS
 70
     2
  9
$LUPREC
 70
     2
  9
$SKETCHINC
 40
1.0
  9
$FILLETRAD
 40
10.0
  9
$AUNITS
 70
     0
  9
$AUPREC
 70
     2
  9
$MENU
  1
.
  9
$ELEVATION
 40
0.0
  9
$PELEVATION
 40
0.0
  9
$THICKNESS
 40
0.0
  9
$LIMCHECK
 70
     0
  9
$CHAMFERA
 40
10.0
  9
$CHAMFERB
 40
10.0
  9
$CHAMFERC
 40
20.0
  9
$CHAMFERD
 40
0.0
  9
$SKPOLY
 70
     0
  9
$TDCREATE
 40
2456523.657530752
  9
$TDUCREATE
 40
2456523.157530752
  9
$TDUPDATE
 40
2456523.657572998
  9
$TDUUPDATE
 40
2456523.157572998
  9
$TDINDWG
 40
0.0000000116
  9
$TDUSRTIMER
 40
0.0000000116
  9
$USRTIMER
 70
     1
  9
$ANGBASE
 50
0.0
  9
$ANGDIR
 70
     0
  9
$PDMODE
 70
     0
  9
$PDSIZE
 40
-1.0
  9
$PLINEWID
 40
0.0
  9
$SPLFRAME
 70
     0
  9
$SPLINETYPE
 70
     6
  9
$SPLINESEGS
 70
     8
  9
$HANDSEED
  5
24A
  9
$SURFTAB1
 70
     6
  9
$SURFTAB2
 70
     6
  9
$SURFTYPE
 70
     6
  9
$SURFU
 70
     6
  9
$SURFV
 70
     6
  9
$UCSBASE
  2

  9
$UCSNAME
  2

  9
$UCSORG
 10
0.0
 20
0.0
 30
0.0
  9
$UCSXDIR
 10
1.0
 20
0.0
 30
0.0
  9
$UCSYDIR
 10
0.0
 20
1.0
 30
0.0
  9
$UCSORTHOREF
  2

  9
$UCSORTHOVIEW
 70
     0
  9
$UCSORGTOP
 10
0.0
 20
0.0
 30
0.0
  9
$UCSORGBOTTOM
 10
0.0
 20
0.0
 30
0.0
  9
$UCSORGLEFT
 10
0.0
 20
0.0
 30
0.0
  9
$UCSORGRIGHT
 10
0.0
 20
0.0
 30
0.0
  9
$UCSORGFRONT
 10
0.0
 20
0.0
 30
0.0
  9
$UCSORGBACK
 10
0.0
 20
0.0
 30
0.0
  9
$PUCSBASE
  2

  9
$PUCSNAME
  2

  9
$PUCSORG
 10
0.0
 20
0.0
 30
0.0
  9
$PUCSXDIR
 10
1.0
 20
0.0
 30
0.0
  9
$PUCSYDIR
 10
0.0
 20
1.0
 30
0.0
  9
$PUCSORTHOREF
  2

  9
$PUCSORTHOVIEW
 70
     0
  9
$PUCSORGTOP
 10
0.0
 20
0.0
 30
0.0
  9
$PUCSORGBOTTOM
 10
0.0
 20
0.0
 30
0.0
  9
$PUCSORGLEFT
 10
0.0
 20
0.0
 30
0.0
  9
$PUCSORGRIGHT
 10
0.0
 20
0.0
 30
0.0
  9
$PUCSORGFRONT
 10
0.0
 20
0.0
 30
0.0
  9
$PUCSORGBACK
 10
0.0
 20
0.0
 30
0.0
  9
$USERI1
 70
     0
  9
$USERI2
 70
     0
  9
$USERI3
 70
     0
  9
$USERI4
 70
     0
  9
$USERI5
 70
     0
  9
$USERR1
 40
0.0
  9
$USERR2
 40
0.0
  9
$USERR3
 40
0.0
  9
$USERR4
 40
0.0
  9
$USERR5
 40
0.0
  9
$WORLDVIEW
 70
     1
  9
$SHADEDGE
 70
     3
  9
$SHADEDIF
 70
    70
  9
$TILEMODE
 70
     1
  9
$MAXACTVP
 70
    64
  9
$PINSBASE
 10
0.0
 20
0.0
 30
0.0
  9
$PLIMCHECK
 70
     0
  9
$PEXTMIN
 10
1.0000000000E+20
 20
1.0000000000E+20
 30
1.0000000000E+20
  9
$PEXTMAX
 10
-1.0000000000E+20
 20
-1.0000000000E+20
 30
-1.0000000000E+20
  9
$PLIMMIN
 10
0.0
 20
0.0
  9
$PLIMMAX
 10
420.0
 20
297.0
  9
$UNITMODE
 70
     0
  9
$VISRETAIN
 70
     1
  9
$PLINEGEN
 70
     0
  9
$PSLTSCALE
 70
     1
  9
$TREEDEPTH
 70
  3020
  9
$CMLSTYLE
  2
Standard
  9
$CMLJUST
 70
     0
  9
$CMLSCALE
 40
20.0
  9
$PROXYGRAPHICS
 70
     1
  9
$MEASUREMENT
 70
     1
  9
$CELWEIGHT
370
    -1
  9
$ENDCAPS
280
     0
  9
$JOINSTYLE
280
     0
  9
$LWDISPLAY
290
     1
  9
$INSUNITS
 70
     4
  9
$HYPERLINKBASE
  1

  9
$STYLESHEET
  1

  9
$XEDIT
290
     1
  9
$CEPSNTYPE
380
     0
  9
$PSTYLEMODE
290
     1
  9
$FINGERPRINTGUID
  2
{3761FB13-C2E1-48F3-B1FA-5742E24861D8}
  9
$VERSIONGUID
  2
{FAEB1C32-E019-11D5-929B-00C0DF256EC4}
  9
$EXTNAMES
290
     1
  9
$PSVPSCALE
 40
0.0
  9
$OLESTARTUP
290
     0
  0
ENDSEC
  0
SECTION
  2
CLASSES
  0
CLASS
  1
ACDBDICTIONARYWDFLT
  2
AcDbDictionaryWithDefault
  3
ObjectDBX Classes
 90
        0
280
     0
281
     0
  0
CLASS
  1
VISUALSTYLE
  2
AcDbVisualStyle
  3
ObjectDBX Classes
 90
     4095
280
     0
281
     0
  0
CLASS
  1
MATERIAL
  2
AcDbMaterial
  3
ObjectDBX Classes
 90
     1153
280
     0
281
     0
  0
CLASS
  1
ACDBPLACEHOLDER
  2
AcDbPlaceHolder
  3
ObjectDBX Classes
 90
        0
280
     0
281
     0
  0
CLASS
  1
LAYOUT
  2
AcDbLayout
  3
ObjectDBX Classes
 90
        0
280
     0
281
     0
  0
ENDSEC
  0
SECTION
  2
TABLES
  0
TABLE
  2
VPORT
  5
8
330
0
100
AcDbSymbolTable
 70
     1
  0
VPORT
  5
29
330
8
100
AcDbSymbolTableRecord
100
AcDbViewportTableRecord
  2
*Active
 70
     0
 10
0.0
 20
0.0
 11
1.0
 21
1.0
 12
35.0640642441
 22
-11.964015808
 13
0.0
 23
0.0
 14
10.0
 24
10.0
 15
10.0
 25
10.0
 16
0.0
 26
0.0
 36
1.0
 17
0.0
 27
0.0
 37
0.0
 40
170.3898003048
 41
0.4790502519
 42
50.0
 43
0.0
 44
0.0
 50
0.0
 51
0.0
 71
     0
 72
   100
 73
     1
 74
     3
 75
     0
 76
     0
 77
     0
 78
     0
281
     0
 65
     1
110
0.0
120
0.0
130
0.0
111
1.0
121
0.0
131
0.0
112
0.0
122
1.0
132
0.0
 79
     0
146
0.0
  0
ENDTAB
  0
TABLE
  2
LTYPE
  5
5
330
0
100
AcDbSymbolTable
 70
     6
  0
LTYPE
  5
14
330
5
100
AcDbSymbolTableRecord
100
AcDbLinetypeTableRecord
  2
ByBlock
 70
     0
  3

 72
    65
 73
     0
 40
0.0
  0
LTYPE
  5
15
330
5
100
AcDbSymbolTableRecord
100
AcDbLinetypeTableRecord
  2
ByLayer
 70
     0
  3

 72
    65
 73
     0
 40
0.0
  0
LTYPE
  5
16
330
5
100
AcDbSymbolTableRecord
100
AcDbLinetypeTableRecord
  2
Continuous
 70
     0
  3
Solid line
 72
    65
 73
     0
 40
0.0
  0
LTYPE
  5
3F
330
5
100
AcDbSymbolTableRecord
100
AcDbLinetypeTableRecord
  2
HIDDEN
 70
     0
  3
Hidden __ __ __ __ __ __ __ __ __ __ __ __ __ __
 72
    65
 73
     2
 40
1.905
 49
1.27
 74
     0
 49
-0.635
 74
     0
  0
LTYPE
  5
40
330
5
100
AcDbSymbolTableRecord
100
AcDbLinetypeTableRecord
  2
PHANTOM
 70
     0
  3
Phantom ______  __  __  ______  __  __  ______
 72
    65
 73
     6
 40
12.7
 49
6.35
 74
     0
 49
-1.27
 74
     0
 49
1.27
 74
     0
 49
-1.27
 74
     0
 49
1.27
 74
     0
 49
-1.27
 74
     0
  0
LTYPE
  5
41
330
5
100
AcDbSymbolTableRecord
100
AcDbLinetypeTableRecord
  2
CENTER
 70
     0
  3
Center ____ _ ____ _ ____ _ ____ _ ____ _ ____
 72
    65
 73
     4
 40
10.16
 49
6.35
 74
     0
 49
-1.27
 74
     0
 49
1.27
 74
     0
 49
-1.27
 74
     0
  0
LTYPE
  5
42
330
5
100
AcDbSymbolTableRecord
100
AcDbLinetypeTableRecord
  2
CENTERX2
 70
     0
  3
Center (2x) ________  __  ________  __  _____
 72
    65
 73
     4
 40
20.32
 49
12.7
 74
     0
 49
-2.54
 74
     0
 49
2.54
 74
     0
 49
-2.54
 74
     0
  0
LTYPE
  5
43
330
5
100
AcDbSymbolTableRecord
100
AcDbLinetypeTableRecord
  2
DOT2
 70
     0
  3
Dot (.5x) ........................................
 72
    65
 73
     2
 40
0.635
 49
0.0
 74
     0
 49
-0.635
 74
     0
  0
ENDTAB
  0
TABLE
  2
LAYER
  5
2
330
0
100
AcDbSymbolTable
 70
     1
  0
LAYER
  5
10
330
2
100
AcDbSymbolTableRecord
100
AcDbLayerTableRecord
  2
0
 70
     0
 62
     7
  6
Continuous
370
    -3
390
F
  0
ENDTAB
  0
TABLE
  2
STYLE
  5
3
330
0
100
AcDbSymbolTable
 70
     2
  0
STYLE
  5
11
330
3
100
AcDbSymbolTableRecord
100
AcDbTextStyleTableRecord
  2
Standard
 70
     0
 40
0.0
 41
1.0
 50
0.0
 71
     0
 42
2.5
  3
txt
  4

  0
STYLE
  5
247
330
3
100
AcDbSymbolTableRecord
100
AcDbTextStyleTableRecord
  2
SLDTEXTSTYLE0
 70
     0
 40
0.0
 41
0.7
 50
0.0
 71
     0
 42
0.2
  3
TXT
  4

  0
ENDTAB
  0
TABLE
  2
VIEW
  5
6
330
0
100
AcDbSymbolTable
 70
     0
  0
ENDTAB
  0
TABLE
  2
UCS
  5
7
330
0
100
AcDbSymbolTable
 70
     0
  0
ENDTAB
  0
TABLE
  2
APPID
  5
9
330
0
100
AcDbSymbolTable
 70
     1
  0
APPID
  5
12
330
9
100
AcDbSymbolTableRecord
100
AcDbRegAppTableRecord
  2
ACAD
 70
     0
  0
ENDTAB
  0
TABLE
  2
DIMSTYLE
  5
A
330
0
100
AcDbSymbolTable
 70
     1
100
AcDbDimStyleTable
  0
DIMSTYLE
105
27
330
A
100
AcDbSymbolTableRecord
100
AcDbDimStyleTableRecord
  2
ISO-25
 70
     0
 41
2.5
 42
0.625
 43
3.75
 44
1.25
 73
     0
 74
     0
 77
     1
 78
     8
140
2.5
141
2.5
143
0.0393700787
147
0.625
171
     3
172
     1
178
     0
271
     2
272
     2
274
     3
278
    44
283
     0
284
     8
340
11
  0
ENDTAB
  0
TABLE
  2
BLOCK_RECORD
  5
1
330
0
100
AcDbSymbolTable
 70
     1
  0
BLOCK_RECORD
  5
1F
330
1
100
AcDbSymbolTableRecord
100
AcDbBlockTableRecord
  2
*Model_Space
340
22
  0
BLOCK_RECORD
  5
1B
330
1
100
AcDbSymbolTableRecord
100
AcDbBlockTableRecord
  2
*Paper_Space
340
1E
  0
BLOCK_RECORD
  5
23
330
1
100
AcDbSymbolTableRecord
100
AcDbBlockTableRecord
  2
*Paper_Space0
340
26
  0
ENDTAB
  0
ENDSEC
  0
SECTION
  2
BLOCKS
  0
BLOCK
  5
20
330
1F
100
AcDbEntity
  8
0
100
AcDbBlockBegin
  2
*Model_Space
 70
     0
 10
0.0
 20
0.0
 30
0.0
  3
*Model_Space
  1

  0
ENDBLK
  5
21
330
1F
100
AcDbEntity
  8
0
100
AcDbBlockEnd
  0
BLOCK
  5
1C
330
1B
100
AcDbEntity
 67
     1
  8
0
100
AcDbBlockBegin
  2
*Paper_Space
 70
     0
 10
0.0
 20
0.0
 30
0.0
  3
*Paper_Space
  1

  0
ENDBLK
  5
1D
330
1B
100
AcDbEntity
 67
     1
  8
0
100
AcDbBlockEnd
  0
BLOCK
  5
24
330
23
100
AcDbEntity
  8
0
100
AcDbBlockBegin
  2
*Paper_Space0
 70
     0
 10
0.0
 20
0.0
 30
0.0
  3
*Paper_Space0
  1

  0
ENDBLK
  5
25
330
23
100
AcDbEntity
  8
0
100
AcDbBlockEnd
  0
ENDSEC
  0
SECTION
  2
ENTITIES
  0
SPLINE
  5
44
330
1F
100
AcDbEntity
  8
0
  6
Continuous
 62
     7
370
    15
100
AcDbSpline
210
0.0
220
0.0
230
1.0
 70
     8
 71
     3
 72
     9
 73
     5
 74
     0
 42
0.00000001
 43
0.00000001
 12
1.0
 22
0.0
 32
0.0
 13
1.0
 23
0.0
 33
0.0
 40
0.0
 40
0.0
 40
0.0
 40
0.0
 40
0.3807941023037789
 40
1.0
 40
1.0
 40
1.0
 40
1.0
 10
67.70229004699104
 20
-88.03637720139447
 30
0.0
 10
67.80671793614502
 20
-87.10358551148053
 30
0.0
 10
68.08095508562346
 20
-84.65398956377386
 30
0.0
 10
68.32058748479128
 20
-82.21792461211221
 30
0.0
 10
68.46896927963512
 20
-80.70949882687222
 30
0.0
  0
SPLINE
  5
46
330
1F
100
AcDbEntity
  8
0
  6
Continuous
 62
     7
370
    15
100
AcDbSpline
210
0.0
220
0.0
230
1.0
 70
     8
 71
     3
 72
    23
 73
    19
 74
     0
 42
0.00000001
 43
0.00000001
 12
1.0
 22
0.0
 32
0.0
 13
1.0
 23
0.0
 33
0.0
 40
0.0
 40
0.0
 40
0.0
 40
0.0
 40
0.0128112129631681
 40
0.0763301991202303
 40
0.1445045306818058
 40
0.2127725955634264
 40
0.2849600113337741
 40
0.3568504748087434
 40
0.4284983844258683
 40
0.4999214886860023
 40
0.5707900458242688
 40
0.6417023802760127
 40
0.7127331038041718
 40
0.7838844698920662
 40
0.8551580716491113
 40
0.9265547888128102
 40
0.9980748245157202
 40
0.9999999999999999
 40
0.9999999999999999
 40
0.9999999999999999
 40
0.9999999999999999
 10
68.64914160262792
 20
-78.8463867395533
 30
0.0
 10
68.68315378979287
 20
-78.50291403584603
 30
0.0
 10
68.88580103531748
 20
-76.45647706366309
 30
0.0
 10
69.20521191852694
 20
-72.60900635891541
 30
0.0
 10
69.5833347940916
 20
-67.31597872139692
 30
0.0
 10
69.89775128373631
 20
-61.83311068548498
 30
0.0
 10
70.13692258137915
 20
-56.29530735508592
 30
0.0
 10
70.29362709576728
 20
-50.7177037638526
 30
0.0
 10
70.36378758428177
 20
-45.21092337619496
 30
0.0
 10
70.3474281546871
 20
-39.78425750022253
 30
0.0
 10
70.24476718785169
 20
-34.43324717469902
 30
0.0
 10
70.05691378338464
 20
-29.15126887067469
 30
0.0
 10
69.78373227261568
 20
-23.92399744997369
 30
0.0
 10
69.42423689677668
 20
-18.75311474334399
 30
0.0
 10
68.9817803148466
 20
-13.63827479546126
 30
0.0
 10
68.44382601234665
 20
-8.59353373095278
 30
0.0
 10
68.04802926257824
 20
-5.208481051577703
 30
0.0
 10
67.80818530451133
 20
-3.527187184715628
 30
0.0
 10
67.80189841799196
 20
-3.483116432082031
 30
0.0
  0
SPLINE
  5
47
330
1F
100
AcDbEntity
  8
0
  6
Continuous
 62
     7
370
    15
100
AcDbSpline
210
0.0
220
0.0
230
1.0
 70
     8
 71
     3
 72
     9
 73
     5
 74
     0
 42
0.00000001
 43
0.00000001
 12
1.0
 22
0.0
 32
0.0
 13
1.0
 23
0.0
 33
0.0
 40
0.0
 40
0.0
 40
0.0
 40
0.0
 40
0.5668121239752223
 40
1.0
 40
1.0
 40
1.0
 40
1.0
 10
68.48879278934457
 20
-80.73411325339438
 30
0.0
 10
68.49105777218384
 20
-80.70203279206012
 30
0.0
 10
68.49505377499231
 20
-80.6454347413528
 30
0.0
 10
68.50839752002085
 20
-80.60490751920871
 30
0.0
 10
68.51417786858798
 20
-80.58735161792688
 30
0.0
  0
SPLINE
  5
4C
330
1F
100
AcDbEntity
  8
0
  6
Continuous
 62
     7
370
    15
100
AcDbSpline
210
0.0
220
0.0
230
1.0
 70
     8
 71
     3
 72
    30
 73
    26
 74
     0
 42
0.00000001
 43
0.00000001
 12
1.0
 22
0.0
 32
0.0
 13
1.0
 23
0.0
 33
0.0
 40
0.0
 40
0.0
 40
0.0
 40
0.0
 40
0.0390045297781878
 40
0.0811887757899393
 40
0.1259769606441759
 40
0.1700341530777121
 40
0.2137133245106582
 40
0.2569997024445728
 40
0.2994579289255629
 40
0.3421450281001844
 40
0.3851571119228928
 40
0.4284652070937771
 40
0.4720323713485273
 40
0.5158136195482929
 40
0.5597569788336109
 40
0.6037090459217157
 40
0.6490334127870501
 40
0.6950145106361951
 40
0.7418247584176856
 40
0.7896365539218342
 40
0.8386331259905918
 40
0.8890115519460767
 40
0.9409438669659715
 40
0.9916499521386373
 40
1.0
 40
1.0
 40
1.0
 40
1.0
 10
27.58072918739444
 20
-26.08739716161985
 30
0.0
 10
27.81415683509248
 20
-26.74869145728425
 30
0.0
 10
28.30004155309588
 20
-28.12518989495774
 30
0.0
 10
28.98327973420424
 20
-30.33325598162064
 30
0.0
 10
29.61897442853497
 20
-32.722596956351
 30
0.0
 10
30.17929343188544
 20
-35.23058425541316
 30
0.0
 10
30.65103415718655
 20
-37.79699248549972
 30
0.0
 10
31.03251580826067
 20
-40.41424024783592
 30
0.0
 10
31.32699881311389
 20
-43.08885200708889
 30
0.0
 10
31.53861644665987
 20
-45.82758807348286
 30
0.0
 10
31.66883488208061
 20
-48.64957793969904
 30
0.0
 10
31.71672598270756
 20
-51.55094392419923
 30
0.0
 10
31.68130701339103
 20
-54.52468235206732
 30
0.0
 10
31.56215049772951
 20
-57.56295492799105
 30
0.0
 10
31.35836892000567
 20
-60.6553270353948
 30
0.0
 10
31.07013940173704
 20
-63.8233118440584
 30
0.0
 10
30.69771503117628
 20
-67.07304123975277
 30
0.0
 10
30.23646156209472
 20
-70.42059135694898
 30
0.0
 10
29.68698367577228
 20
-73.85246653126536
 30
0.0
 10
29.04694699047946
 20
-77.37711411441042
 30
0.0
 10
28.31260259765344
 20
-81.00374705868948
 30
0.0
 10
27.48340761519466
 20
-84.74164372072848
 30
0.0
 10
26.56218591716489
 20
-88.52722943770057
 30
0.0
 10
25.84810417468682
 20
-91.2737704964062
 30
0.0
 10
25.45111461502885
 20
-92.73445345589352
 30
0.0
 10
25.39498358081949
 20
-92.94098192288554
 30
0.0
  0
SPLINE
  5
4D
330
1F
100
AcDbEntity
  8
0
  6
Continuous
 62
     7
370
    15
100
AcDbSpline
210
0.0
220
0.0
230
1.0
 70
     8
 71
     3
 72
    10
 73
     6
 74
     0
 42
0.00000001
 43
0.00000001
 12
1.0
 22
0.0
 32
0.0
 13
1.0
 23
0.0
 33
0.0
 40
0.0
 40
0.0
 40
0.0
 40
0.0
 40
0.290808489377553
 40
0.801872351599598
 40
0.9999999999999999
 40
0.9999999999999999
 40
0.9999999999999999
 40
0.9999999999999999
 10
67.80437310625926
 20
-3.480840491924372
 30
0.0
 10
67.80042941267894
 20
-3.441595688742312
 30
0.0
 10
67.78955511237223
 20
-3.333382470197628
 30
0.0
 10
67.7987192931317
 20
-3.142211574626398
 30
0.0
 10
67.82346314686117
 20
-2.996076527079726
 30
0.0
 10
67.83037586575072
 20
-2.955250610686723
 30
0.0
  0
SPLINE
  5
5D
330
1F
100
AcDbEntity
  8
0
  6
Continuous
 62
     7
370
    15
100
AcDbSpline
210
0.0
220
0.0
230
1.0
 70
     8
 71
     3
 72
    18
 73
    14
 74
     0
 42
0.00000001
 43
0.00000001
 12
1.0
 22
0.0
 32
0.0
 13
1.0
 23
0.0
 33
0.0
 40
0.0
 40
0.0
 40
0.0
 40
0.0
 40
0.125
 40
0.125
 40
0.2500000000000001
 40
0.2500000000000001
 40
0.5000000000000001
 40
0.5000000000000001
 40
0.7499999999999999
 40
0.7499999999999999
 40
0.875
 40
0.875
 40
1.0
 40
1.0
 40
1.0
 40
1.0
 10
61.2080738978465
 20
-85.31142574674202
 30
0.0
 10
61.62548664661143
 20
-81.58686950585572
 30
0.0
 10
61.99374043545678
 20
-77.88354879246846
 30
0.0
 10
62.62928277374068
 20
-70.52052200118227
 30
0.0
 10
62.8965864128424
 20
-66.85960139372318
 30
0.0
 10
63.54171502918238
 20
-55.96984506429843
 30
0.0
 10
63.76360892514322
 20
-48.8255889492847
 30
0.0
 10
63.77720628850785
 20
-34.77854649713126
 30
0.0
 10
63.56887193704414
 20
-27.90998981056727
 30
0.0
 10
62.93273321531881
 20
-17.84027699392156
 30
0.0
 10
62.66652641289993
 20
-14.520828181798
 30
0.0
 10
62.02783560385191
 20
-7.975583252532946
 30
0.0
 10
61.65531474069844
 20
-4.748226879300325
 30
0.0
 10
61.23017354686724
 20
-1.565664039764356
 30
0.0
  0
SPLINE
  5
5F
330
1F
100
AcDbEntity
  8
0
  6
Continuous
 62
     7
370
    15
100
AcDbSpline
210
0.0
220
0.0
230
1.0
 70
     8
 71
     3
 72
    18
 73
    14
 74
     0
 42
0.00000001
 43
0.00000001
 12
1.0
 22
0.0
 32
0.0
 13
1.0
 23
0.0
 33
0.0
 40
0.0
 40
0.0
 40
0.0
 40
0.0
 40
0.1249999999999998
 40
0.1249999999999998
 40
0.2499999999999997
 40
0.2499999999999997
 40
0.4999999999999997
 40
0.4999999999999997
 40
0.7499999999999998
 40
0.7499999999999998
 40
0.875
 40
0.875
 40
1.0
 40
1.0
 40
1.0
 40
1.0
 10
62.62159389872792
 20
-1.32384127824591
 30
0.0
 10
63.05328098111441
 20
-4.55540595570803
 30
0.0
 10
63.4309121055508
 20
-7.832986232813562
 30
0.0
 10
64.07691326179638
 20
-14.48115623289499
 30
0.0
 10
64.34530654006262
 20
-17.85321387134235
 30
0.0
 10
64.98357217358918
 20
-28.08349280878944
 30
0.0
 10
65.18745774740748
 20
-35.06450391833297
 30
0.0
 10
65.15328941881803
 20
-49.34006482912069
 30
0.0
 10
64.91542275038337
 20
-56.6008774893733
 30
0.0
 10
64.23815746636915
 20
-67.67067743343904
 30
0.0
 10
63.95879088055195
 20
-71.39200280622491
 30
0.0
 10
63.2967247654001
 20
-78.87531750798358
 30
0.0
 10
62.9139558651636
 20
-82.63917452722738
 30
0.0
 10
62.48082885062924
 20
-86.42464003643435
 30
0.0
  0
SPLINE
  5
60
330
1F
100
AcDbEntity
  8
0
  6
Continuous
 62
     7
370
    15
100
AcDbSpline
210
0.0
220
0.0
230
1.0
 70
     8
 71
     3
 72
    12
 73
     8
 74
     0
 42
0.00000001
 43
0.00000001
 12
1.0
 22
0.0
 32
0.0
 13
1.0
 23
0.0
 33
0.0
 40
0.0
 40
0.0
 40
0.0
 40
0.0
 40
0.2499999999999928
 40
0.2499999999999928
 40
0.4999999999999856
 40
0.4999999999999856
 40
1.0
 40
1.0
 40
1.0
 40
1.0
 10
62.48082885062924
 20
-86.42464003643433
 30
0.0
 10
62.34657431669307
 20
-86.37540175365164
 30
0.0
 10
62.19851004720722
 20
-86.29280969413911
 30
0.0
 10
61.92325579181412
 20
-86.10343722538809
 30
0.0
 10
61.79922831598302
 20
-86.000244187953
 30
0.0
 10
61.4726544635507
 20
-85.693373297045
 30
0.0
 10
61.31234470192751
 20
-85.49098519340701
 30
0.0
 10
61.20807389784652
 20
-85.31142574674199
 30
0.0
  0
SPLINE
  5
61
330
1F
100
AcDbEntity
  8
0
  6
Continuous
 62
     7
370
    15
100
AcDbSpline
210
0.0
220
0.0
230
1.0
 70
     8
 71
     3
 72
    19
 73
    15
 74
     0
 42
0.00000001
 43
0.00000001
 12
1.0
 22
0.0
 32
0.0
 13
1.0
 23
0.0
 33
0.0
 40
0.0
 40
0.0
 40
0.0
 40
0.0
 40
0.125
 40
0.125
 40
0.25
 40
0.375
 40
0.375
 40
0.5
 40
0.5
 40
0.7499999999999998
 40
0.7499999999999998
 40
0.8749999999999999
 40
0.8749999999999999
 40
1.0
 40
1.0
 40
1.0
 40
1.0
 10
68.26881553218617
 20
-78.48649832135214
 30
0.0
 10
68.57746826491443
 20
-75.1404035323332
 30
0.0
 10
68.8451543976579
 20
-71.81016968775295
 30
0.0
 10
69.29574127401091
 20
-65.19512710564655
 30
0.0
 10
69.6615193637918
 20
-58.62734466330541
 30
0.0
 10
69.85519526595822
 20
-52.15546706489971
 30
0.0
 10
69.96154706542445
 20
-45.73225127932365
 30
0.0
 10
69.97099843807561
 20
-42.54287182433229
 30
0.0
 10
69.86692290418743
 20
-33.07401686193001
 30
0.0
 10
69.6212992876047
 20
-26.88839599287708
 30
0.0
 10
68.98781538668965
 20
-17.80088434955664
 30
0.0
 10
68.73238367315186
 20
-14.80326765995453
 30
0.0
 10
68.13474170149341
 20
-8.885727696140385
 30
0.0
 10
67.79242669825089
 20
-5.963982371053248
 30
0.0
 10
67.40702616302765
 20
-3.078913976044285
 30
0.0
  0
SPLINE
  5
62
330
1F
100
AcDbEntity
  8
0
  6
Continuous
 62
     7
370
    15
100
AcDbSpline
210
0.0
220
0.0
230
1.0
 70
     8
 71
     3
 72
     8
 73
     4
 74
     0
 42
0.00000001
 43
0.00000001
 12
1.0
 22
0.0
 32
0.0
 13
1.0
 23
0.0
 33
0.0
 40
0.0
 40
0.0
 40
0.0
 40
0.0
 40
1.0
 40
1.0
 40
1.0
 40
1.0
 10
68.11721843725535
 20
-80.1749006440869
 30
0.0
 10
68.16633417772243
 20
-79.61070392500996
 30
0.0
 10
68.21702501683765
 20
-79.04795770645697
 30
0.0
 10
68.2688155321862
 20
-78.48649832135213
 30
0.0
  0
SPLINE
  5
63
330
1F
100
AcDbEntity
  8
0
  6
Continuous
 62
     7
370
    15
100
AcDbSpline
210
0.0
220
0.0
230
1.0
 70
     8
 71
     3
 72
     8
 73
     4
 74
     0
 42
0.00000001
 43
0.00000001
 12
1.0
 22
0.0
 32
0.0
 13
1.0
 23
0.0
 33
0.0
 40
0.0
 40
0.0
 40
0.0
 40
0.0
 40
1.0
 40
1.0
 40
1.0
 40
1.0
 10
68.09283835181803
 20
-80.3501836586271
 30
0.0
 10
68.09861385064822
 20
-80.29039490763205
 30
0.0
 10
68.10676709769432
 20
-80.23198266166928
 30
0.0
 10
68.11721843725462
 20
-80.1749006440865
 30
0.0
  0
SPLINE
  5
64
330
1F
100
AcDbEntity
  8
0
  6
Continuous
 62
     7
370
    15
100
AcDbSpline
210
0.0
220
0.0
230
1.0
 70
     8
 71
     3
 72
     8
 73
     4
 74
     0
 42
0.00000001
 43
0.00000001
 12
1.0
 22
0.0
 32
0.0
 13
1.0
 23
0.0
 33
0.0
 40
0.0
 40
0.0
 40
0.0
 40
0.0
 40
1.0
 40
1.0
 40
1.0
 40
1.0
 10
67.26626111492898
 20
-88.1797127342327
 30
0.0
 10
67.56606734005985
 20
-85.55945104056164
 30
0.0
 10
67.84174433728232
 20
-82.94954311383258
 30
0.0
 10
68.09283835181803
 20
-80.3501836586271
 30
0.0
  0
SPLINE
  5
69
330
1F
100
AcDbEntity
  8
0
  6
Continuous
 62
     7
370
    15
100
AcDbSpline
210
0.0
220
0.0
230
1.0
 70
     8
 71
     3
 72
    12
 73
     8
 74
     0
 42
0.00000001
 43
0.00000001
 12
1.0
 22
0.0
 32
0.0
 13
1.0
 23
0.0
 33
0.0
 40
0.0
 40
0.0
 40
0.0
 40
0.0
 40
0.2499999999999937
 40
0.2499999999999937
 40
0.4999999999999873
 40
0.4999999999999873
 40
1.0
 40
1.0
 40
1.0
 40
1.0
 10
25.68246527066796
 20
-93.69459360520595
 30
0.0
 10
25.54691970196666
 20
-93.64488183126443
 30
0.0
 10
25.45659720236235
 20
-93.54972138674425
 30
0.0
 10
25.36272699764475
 20
-93.32327920650359
 30
0.0
 10
25.35726682285949
 20
-93.19703645368264
 30
0.0
 10
25.41361751115918
 20
-92.81591527359035
 30
0.0
 10
25.54607756843497
 20
-92.55668123357668
 30
0.0
 10
25.73008671803995
 20
-92.32052328310971
 30
0.0
  0
LWPOLYLINE
  5
6C
330
1F
100
AcDbEntity
  8
0
  6
Continuous
 62
     7
370
    15
100
AcDbPolyline
 90
       23
 70
   128
 43
0.0
 10
8.7460877821
 20
8.9868697951
 10
8.7988004373
 20
9.5126178412
 10
8.7537801567
 20
9.9773082869
 10
8.6146742157
 20
10.3432946758
 10
8.3927521503
 20
10.5809269674
 10
8.1059927664
 20
10.6709536067
 10
7.7776276039
 20
10.6060811708
 10
7.4342588554
 20
10.3915652385
 10
7.1037042148
 20
10.044784615
 10
6.8127432532
 20
9.593833404
 10
6.5849478973
 20
9.0752449907
 10
6.438772772
 20
8.5310323241
 10
6.3860601168
 20
8.0052842781
 10
6.4310803974
 20
7.5405938324
 10
6.5701863384
 20
7.1746074434
 10
6.7921084038
 20
6.9369751518
 10
7.0788677877
 20
6.8469485125
 10
7.4072329502
 20
6.9118209485
 10
7.7506016987
 20
7.1263368808
 10
8.0811563393
 20
7.4731175043
 10
8.3721173009
 20
7.9240687153
 10
8.5999126568
 20
8.4426571286
 10
8.7460877821
 20
8.9868697951
  0
SPLINE
  5
70
330
1F
100
AcDbEntity
  8
0
  6
Continuous
 62
     7
370
    15
100
AcDbSpline
210
0.0
220
0.0
230
1.0
 70
     8
 71
     3
 72
    20
 73
    16
 74
     0
 42
0.00000001
 43
0.00000001
 12
1.0
 22
0.0
 32
0.0
 13
1.0
 23
0.0
 33
0.0
 40
0.3079560853093459
 40
0.3079560853093459
 40
0.3079560853093459
 40
0.3079560853093459
 40
0.3749999999999995
 40
0.3749999999999995
 40
0.4374999999999996
 40
0.4374999999999996
 40
0.4999999999999997
 40
0.4999999999999997
 40
0.7499999999999999
 40
0.7499999999999999
 40
0.8125
 40
0.8125
 40
0.875
 40
0.875
 40
1.0
 40
1.0
 40
1.0
 40
1.0
 10
36.88621658644762
 20
-38.11606260144087
 30
0.0
 10
37.00963758300948
 20
-39.40344656617561
 30
0.0
 10
37.10811634993242
 20
-40.71424996997973
 30
0.0
 10
37.24965388157892
 20
-43.29278634984126
 30
0.0
 10
37.29604139027424
 20
-44.5592506422983
 30
0.0
 10
37.34429179021928
 20
-47.12589743456341
 30
0.0
 10
37.34609929008084
 20
-48.41933201475453
 30
0.0
 10
37.24755141171148
 20
-54.9352471942736
 30
0.0
 10
36.82540695206711
 20
-60.30351650005562
 30
0.0
 10
35.92176349992278
 20
-67.18418564125976
 30
0.0
 10
35.72218046719536
 20
-68.56886155602095
 30
0.0
 10
35.28643330418569
 20
-71.35478669769478
 30
0.0
 10
35.04997663394001
 20
-72.75762479042474
 30
0.0
 10
34.28950810679247
 20
-76.97840064332557
 30
0.0
 10
33.71568032560713
 20
-79.80287699693686
 30
0.0
 10
33.08139617913757
 20
-82.6369630472781
 30
0.0
  0
SPLINE
  5
72
330
1F
100
AcDbEntity
  8
0
  6
Continuous
 62
     7
370
    15
100
AcDbSpline
210
0.0
220
0.0
230
1.0
 70
     8
 71
     3
 72
     8
 73
     4
 74
     0
 42
0.00000001
 43
0.00000001
 12
1.0
 22
0.0
 32
0.0
 13
1.0
 23
0.0
 33
0.0
 40
0.0
 40
0.0
 40
0.0
 40
0.0
 40
0.0400226850954134
 40
0.0400226850954134
 40
0.0400226850954134
 40
0.0400226850954134
 10
56.81257821123888
 20
-77.94858631741194
 30
0.0
 10
56.93190186455548
 20
-76.6166218580292
 30
0.0
 10
57.04438613950717
 20
-75.28825821452314
 30
0.0
 10
57.14997999756132
 20
-73.96352225780929
 30
0.0
  0
SPLINE
  5
76
330
1F
100
AcDbEntity
  8
0
  6
Continuous
 62
     7
370
    15
100
AcDbSpline
210
0.0
220
0.0
230
1.0
 70
     8
 71
     3
 72
    17
 73
    13
 74
     0
 42
0.00000001
 43
0.00000001
 12
1.0
 22
0.0
 32
0.0
 13
1.0
 23
0.0
 33
0.0
 40
0.2946604386049639
 40
0.2946604386049639
 40
0.2946604386049639
 40
0.2946604386049639
 40
0.3125000000000009
 40
0.3125000000000009
 40
0.3750000000000012
 40
0.5000000000000012
 40
0.5000000000000012
 40
0.5625000000000012
 40
0.5625000000000012
 40
0.625000000000001
 40
0.625000000000001
 40
0.7403471495400105
 40
0.7403471495400105
 40
0.7403471495400105
 40
0.7403471495400105
 10
58.31553789373881
 20
-49.12571710998209
 30
0.0
 10
58.32259909422041
 20
-48.55649350832009
 30
0.0
 10
58.32822558360426
 20
-47.98818660350965
 30
0.0
 10
58.34708090107768
 20
-45.43342422761859
 30
0.0
 10
58.33815272287704
 20
-39.5080492545917
 30
0.0
 10
58.17008134613182
 20
-33.69403928702997
 30
0.0
 10
57.89548569514417
 20
-27.9545727274911
 30
0.0
 10
57.78620008007621
 20
-26.05384088904038
 30
0.0
 10
57.53205377151935
 20
-22.27727189088743
 30
0.0
 10
57.38718580100251
 20
-20.40175950088741
 30
0.0
 10
56.92559954291414
 20
-15.11352934665938
 30
0.0
 10
56.56689846940385
 20
-11.73791301736936
 30
0.0
 10
56.14990598536295
 20
-8.41554542641568
 30
0.0
  0
SPLINE
  5
7E
330
1F
100
AcDbEntity
  8
0
  6
Continuous
 62
     7
370
    15
100
AcDbSpline
210
0.0
220
0.0
230
1.0
 70
     8
 71
     3
 72
    33
 73
    29
 74
     0
 42
0.00000001
 43
0.00000001
 12
1.0
 22
0.0
 32
0.0
 13
1.0
 23
0.0
 33
0.0
 40
0.0
 40
0.0
 40
0.0
 40
0.0
 40
0.0312499999999999
 40
0.0312499999999999
 40
0.0624999999999998
 40
0.0624999999999998
 40
0.1249999999999997
 40
0.1874999999999995
 40
0.1874999999999995
 40
0.2187499999999994
 40
0.2187499999999994
 40
0.2499999999999993
 40
0.2499999999999993
 40
0.3749999999999997
 40
0.3749999999999997
 40
0.5
 40
0.5
 40
0.5624999999999999
 40
0.5624999999999999
 40
0.6249999999999999
 40
0.6249999999999999
 40
0.7500000000000002
 40
0.7500000000000002
 40
0.8125000000000001
 40
0.8125000000000001
 40
0.8750000000000001
 40
0.8750000000000001
 40
1.0
 40
1.0
 40
1.0
 40
1.0
 10
27.50534194314025
 20
-24.89916979847692
 30
0.0
 10
27.70152093729587
 20
-25.43025974599306
 30
0.0
 10
27.89918478371607
 20
-25.95969692325084
 30
0.0
 10
28.27793466731974
 20
-27.03702382736274
 30
0.0
 10
28.46076471906174
 20
-27.58297231368991
 30
0.0
 10
28.98931171823343
 20
-29.24301624720727
 30
0.0
 10
29.64086505087515
 20
-31.51559769052825
 30
0.0
 10
30.18263777387042
 20
-33.91037454069063
 30
0.0
 10
30.54643804315797
 20
-35.75379597364807
 30
0.0
 10
30.66061577436635
 20
-36.37616048886441
 30
0.0
 10
30.87455607579457
 20
-37.63693485250616
 30
0.0
 10
30.97437330336857
 20
-38.27585400439109
 30
0.0
 10
31.43477862942875
 20
-41.49575781249671
 30
0.0
 10
31.68131978982501
 20
-44.16307118294741
 30
0.0
 10
31.93588043550623
 20
-49.67669298211631
 30
0.0
 10
31.9438468644749
 20
-52.5243596419733
 30
0.0
 10
31.78062332156489
 20
-56.92327776539287
 30
0.0
 10
31.69716121661972
 20
-58.40626210996552
 30
0.0
 10
31.47492017211562
 20
-61.39525372368629
 30
0.0
 10
31.3363376213415
 20
-62.89943991362645
 30
0.0
 10
30.84261317661377
 20
-67.43951374835673
 30
0.0
 10
30.40960336115565
 20
-70.50287824134841
 30
0.0
 10
29.61971711088479
 20
-75.14745715104131
 30
0.0
 10
29.33298674377248
 20
-76.70360209566418
 30
0.0
 10
28.71824954364608
 20
-79.81633848768533
 30
0.0
 10
28.38992419157277
 20
-81.37488672877367
 30
0.0
 10
27.34623726657045
 20
-86.05663890325265
 30
0.0
 10
26.57150009420058
 20
-89.18876157557933
 30
0.0
 10
25.73008671803998
 20
-92.32052328310967
 30
0.0
  0
LWPOLYLINE
  5
92
330
1F
100
AcDbEntity
  8
0
  6
Continuous
 62
     7
370
    15
100
AcDbPolyline
 90
        9
 70
   128
 43
0.0
 10
32.0950812144
 20
-18.1671653598
 10
32.1002398388
 20
-18.0100294352
 10
32.0867064343
 20
-17.8659510907
 10
32.0549006877
 20
-17.7393983665
 10
32.005808933
 20
-17.6342958126
 10
31.9409535636
 20
-17.5539027838
 10
31.8623458214
 20
-17.5007123632
 10
31.7724234257
 20
-17.4763740488
 10
31.6739749766
 20
-17.4816426006
  0
LWPOLYLINE
  5
94
330
1F
100
AcDbEntity
  8
0
  6
Continuous
 62
     7
370
    15
100
AcDbPolyline
 90
        3
 70
   128
 43
0.0
 10
68.491550012
 20
-80.700158227
 10
68.490843442
 20
-80.7060071794
 10
68.4898981244
 20
-80.7118064291
  0
SPLINE
  5
95
330
1F
100
AcDbEntity
  8
0
  6
Continuous
 62
     7
370
    15
100
AcDbSpline
210
0.0
220
0.0
230
1.0
 70
     8
 71
     3
 72
    11
 73
     7
 74
     0
 42
0.00000001
 43
0.00000001
 12
1.0
 22
0.0
 32
0.0
 13
1.0
 23
0.0
 33
0.0
 40
0.0
 40
0.0
 40
0.0
 40
0.0
 40
0.2225290556339374
 40
0.4438142390996141
 40
0.768729140869334
 40
1.0
 40
1.0
 40
1.0
 40
1.0
 10
67.26626111492898
 20
-88.1797127342327
 30
0.0
 10
67.33184076508154
 20
-88.19948536139447
 30
0.0
 10
67.46263349437245
 20
-88.23892009253012
 30
0.0
 10
67.6134709895623
 20
-88.22391381736755
 30
0.0
 10
67.7090045282199
 20
-88.16233464054069
 30
0.0
 10
67.70297327001568
 20
-88.07321330902896
 30
0.0
 10
67.70046537721335
 20
-88.03615524613964
 30
0.0
  0
SPLINE
  5
96
330
1F
100
AcDbEntity
  8
0
  6
Continuous
 62
     7
370
    15
100
AcDbSpline
210
0.0
220
0.0
230
1.0
 70
     8
 71
     3
 72
     9
 73
     5
 74
     0
 42
0.00000001
 43
0.00000001
 12
1.0
 22
0.0
 32
0.0
 13
1.0
 23
0.0
 33
0.0
 40
0.0
 40
0.0
 40
0.0
 40
0.0
 40
0.5340019037857215
 40
1.0
 40
1.0
 40
1.0
 40
1.0
 10
30.4678975349677
 20
-95.44966630300432
 30
0.0
 10
30.54141880312019
 20
-95.46849094500803
 30
0.0
 10
30.67909858971136
 20
-95.50374295791327
 30
0.0
 10
30.83568807668185
 20
-95.47688026667244
 30
0.0
 10
30.90865847949727
 20
-95.464362303695
 30
0.0
  0
LWPOLYLINE
  5
97
330
1F
100
AcDbEntity
  8
0
  6
Continuous
 62
     7
370
    15
100
AcDbPolyline
 90
        3
 70
   128
 43
0.0
 10
68.6672538666
 20
-78.8393613948
 10
68.6665497799
 20
-78.8451902476
 10
68.666099604
 20
-78.8481577984
  0
SPLINE
  5
98
330
1F
100
AcDbEntity
  8
0
  6
Continuous
 62
     7
370
    15
100
AcDbSpline
210
0.0
220
0.0
230
1.0
 70
     8
 71
     3
 72
    12
 73
     8
 74
     0
 42
0.00000001
 43
0.00000001
 12
1.0
 22
0.0
 32
0.0
 13
1.0
 23
0.0
 33
0.0
 40
0.0
 40
0.0
 40
0.0
 40
0.0
 40
0.0192289306284085
 40
0.1222155506072954
 40
0.4519528398209223
 40
0.7810772258449631
 40
1.0
 40
1.0
 40
1.0
 40
1.0
 10
68.11721843725533
 20
-80.17490064408689
 30
0.0
 10
68.12238164633352
 20
-80.17707617541406
 30
0.0
 10
68.15519805472286
 20
-80.19090345287174
 30
0.0
 10
68.27046831343007
 20
-80.24473903121135
 30
0.0
 10
68.42291731487805
 20
-80.34842609197406
 30
0.0
 10
68.5221216957535
 20
-80.47919892847207
 30
0.0
 10
68.50368619676635
 20
-80.5537044741601
 30
0.0
 10
68.49632195720001
 20
-80.58346643980302
 30
0.0
  0
LWPOLYLINE
  5
9B
330
1F
100
AcDbEntity
  8
0
  6
Continuous
 62
     7
370
    15
100
AcDbPolyline
 90
        6
 70
   128
 43
0.0
 10
69.4431929061
 20
-80.6545807489
 10
69.5878094512
 20
-80.6962432625
 10
69.7049043799
 20
-80.7054971705
 10
69.7899777998
 20
-80.6819868503
 10
69.8397603871
 20
-80.6266157903
 10
69.8527815654
 20
-80.5638434286
  0
LWPOLYLINE
  5
A0
330
1F
100
AcDbEntity
  8
0
  6
Continuous
 62
     7
370
    15
100
AcDbPolyline
 90
        8
 70
   128
 43
0.0
 10
44.5491554853
 20
-9.8780353213
 10
44.5886241212
 20
-9.8961002021
 10
44.672041111
 20
-9.9641364687
 10
44.7375034094
 20
-10.0649433972
 10
44.7824953368
 20
-10.1946470341
 10
44.8052878788
 20
-10.3482629412
 10
44.8050051307
 20
-10.5198877455
 10
44.7816579584
 20
-10.7029260019
  0
SPLINE
  5
AD
330
1F
100
AcDbEntity
  8
0
  6
Continuous
 62
     7
370
    15
100
AcDbSpline
210
0.0
220
0.0
230
1.0
 70
     8
 71
     3
 72
    10
 73
     6
 74
     0
 42
0.00000001
 43
0.00000001
 12
1.0
 22
0.0
 32
0.0
 13
1.0
 23
0.0
 33
0.0
 40
0.0
 40
0.0
 40
0.0
 40
0.0
 40
0.1525927285567678
 40
0.4825612049789802
 40
1.0
 40
1.0
 40
1.0
 40
1.0
 10
37.30188192320317
 20
-81.80315598598452
 30
0.0
 10
37.43885732916234
 20
-81.16983205978327
 30
0.0
 10
37.87203011254012
 20
-79.16700033994815
 30
0.0
 10
38.6637596845921
 20
-75.02985055126068
 30
0.0
 10
39.20781998124528
 20
-71.5545477875774
 30
0.0
 10
39.54003084821073
 20
-69.43247905513563
 30
0.0
  0
SPLINE
  5
B0
330
1F
100
AcDbEntity
  8
0
  6
Continuous
 62
     7
370
    15
100
AcDbSpline
210
0.0
220
0.0
230
1.0
 70
     8
 71
     3
 72
     8
 73
     4
 74
     0
 42
0.00000001
 43
0.00000001
 12
1.0
 22
0.0
 32
0.0
 13
1.0
 23
0.0
 33
0.0
 40
0.307956085401099
 40
0.307956085401099
 40
0.307956085401099
 40
0.307956085401099
 40
0.3443996454360946
 40
0.3443996454360946
 40
0.3443996454360946
 40
0.3443996454360946
 10
40.63480519398913
 20
-39.49086955333514
 30
0.0
 10
40.7018940642624
 20
-40.19066244320019
 30
0.0
 10
40.76161309327361
 20
-40.89737522558831
 30
0.0
 10
40.81391643068056
 20
-41.61105095155438
 30
0.0
  0
LWPOLYLINE
  5
B8
330
1F
100
AcDbEntity
  8
0
  6
Continuous
 62
     7
370
    15
100
AcDbPolyline
 90
       23
 70
   128
 43
0.0
 10
55.3183228373
 20
-69.8981560401
 10
55.4644979625
 20
-69.3539433736
 10
55.6922933184
 20
-68.8353549602
 10
55.98325428
 20
-68.3844037492
 10
56.3138089207
 20
-68.0376231257
 10
56.6571776692
 20
-67.8231071935
 10
56.9855428317
 20
-67.7582347575
 10
57.2723022155
 20
-67.8482613968
 10
57.494224281
 20
-68.0858936884
 10
57.633330222
 20
-68.4518800774
 10
57.6783505026
 20
-68.916570523
 10
57.6256378473
 20
-69.4423185691
 10
57.4794627221
 20
-69.9865312356
 10
57.2516673662
 20
-70.5051196489
 10
56.9607064046
 20
-70.9560708599
 10
56.6301517639
 20
-71.3028514835
 10
56.2867830154
 20
-71.5173674157
 10
55.9584178529
 20
-71.5822398517
 10
55.671658469
 20
-71.4922132124
 10
55.4497364036
 20
-71.2545809208
 10
55.3106304626
 20
-70.8885945318
 10
55.265610182
 20
-70.4239040862
 10
55.3183228373
 20
-69.8981560401
  0
LWPOLYLINE
  5
B9
330
1F
100
AcDbEntity
  8
0
  6
Continuous
 62
     7
370
    15
100
AcDbPolyline
 90
       23
 70
   128
 43
0.0
 10
57.9220385537
 20
24.8179993073
 10
58.0682136789
 20
25.3622119738
 10
58.2960090348
 20
25.8808003871
 10
58.5869699964
 20
26.3317515981
 10
58.9175246371
 20
26.6785322217
 10
59.2608933856
 20
26.8930481539
 10
59.5892585481
 20
26.9579205899
 10
59.8760179319
 20
26.8678939506
 10
60.0979399974
 20
26.630261659
 10
60.2370459384
 20
26.26427527
 10
60.282066219
 20
25.7995848244
 10
60.2293535637
 20
25.2738367783
 10
60.0831784385
 20
24.7296241118
 10
59.8553830826
 20
24.2110356984
 10
59.564422121
 20
23.7600844874
 10
59.2338674803
 20
23.4133038639
 10
58.8904987318
 20
23.1987879317
 10
58.5621335693
 20
23.1339154957
 10
58.2753741854
 20
23.223942135
 10
58.05345212
 20
23.4615744266
 10
57.914346179
 20
23.8275608156
 10
57.8693258984
 20
24.2922512612
 10
57.9220385537
 20
24.8179993073
  0
SPLINE
  5
BA
330
1F
100
AcDbEntity
  8
0
  6
Continuous
 62
     7
370
    15
100
AcDbSpline
210
0.0
220
0.0
230
1.0
 70
     8
 71
     3
 72
    10
 73
     6
 74
     0
 42
0.00000001
 43
0.00000001
 12
1.0
 22
0.0
 32
0.0
 13
1.0
 23
0.0
 33
0.0
 40
0.0
 40
0.0
 40
0.0
 40
0.0
 40
0.0707082690984522
 40
0.5339324954668127
 40
1.0
 40
1.0
 40
1.0
 40
1.0
 10
27.57739413089039
 20
-26.0887987393907
 30
0.0
 10
27.56575941575715
 20
-26.06295632025443
 30
0.0
 10
27.47790331965493
 20
-25.86781496671465
 30
0.0
 10
27.44224928826171
 20
-25.44525198151369
 30
0.0
 10
27.48426820422996
 20
-25.08156810412807
 30
0.0
 10
27.50534194314025
 20
-24.89916979847692
 30
0.0
  0
LWPOLYLINE
  5
C4
330
1F
100
AcDbEntity
  8
0
  6
Continuous
 62
     7
370
    15
100
AcDbPolyline
 90
        9
 70
   128
 43
0.0
 10
74.0879082057
 20
33.1911805998
 10
74.2482883425
 20
33.3035248754
 10
74.3862687602
 20
33.4089930294
 10
74.4976569937
 20
33.5043804652
 10
74.5790685679
 20
33.5867888839
 10
74.6280298333
 20
33.6537143473
 10
74.6430531265
 20
33.7031233591
 10
74.6236819725
 20
33.7335146515
 10
74.6148198571
 20
33.737553704
  0
LWPOLYLINE
  5
C6
330
1F
100
AcDbEntity
  8
0
  6
Continuous
 62
     7
370
    15
100
AcDbPolyline
 90
        7
 70
   128
 43
0.0
 10
74.692404881
 20
32.8749404668
 10
74.8212506604
 20
32.8176387067
 10
74.9268792207
 20
32.7490629034
 10
75.0060810917
 20
32.6712966979
 10
75.0564497645
 20
32.5867029771
 10
75.0764548125
 20
32.4978520783
 10
75.0722203095
 20
32.4355865395
  0
LWPOLYLINE
  5
DD
330
1F
100
AcDbEntity
  8
0
  6
Continuous
 62
     7
370
    15
100
AcDbPolyline
 90
        8
 70
   128
 43
0.0
 10
41.0330693513
 20
-9.3281190553
 10
41.0717416468
 20
-9.1507013372
 10
41.1174108286
 20
-8.9957221536
 10
41.1683218556
 20
-8.8691372678
 10
41.2225182456
 20
-8.7758112659
 10
41.2779172617
 20
-8.7193306137
 10
41.3323899508
 20
-8.7018658312
 10
41.3543944803
 20
-8.7063464317
  0
LWPOLYLINE
  5
EE
330
1F
100
AcDbEntity
  8
0
  6
Continuous
 62
     7
370
    15
100
AcDbPolyline
 90
        9
 70
   128
 43
0.0
 10
63.6552151383
 20
58.306393602
 10
63.7282309178
 20
58.6111326828
 10
63.8290909883
 20
58.892919735
 10
63.9539193537
 20
59.1409258403
 10
64.09791893
 20
59.3456202631
 10
64.2555558943
 20
59.4991367115
 10
64.4207723463
 20
59.5955756345
 10
64.5872191105
 20
59.6312309385
 10
64.7484997311
 20
59.6047324099
  0
LWPOLYLINE
  5
F5
330
1F
100
AcDbEntity
  8
0
  6
Continuous
 62
     7
370
    15
100
AcDbPolyline
 90
        3
 70
   128
 43
0.0
 10
33.2404798071
 20
-18.740603682
 10
33.2426998771
 20
-18.6649639903
 10
33.2451027471
 20
-18.5889394614
  0
SPLINE
  5
F7
330
1F
100
AcDbEntity
  8
0
  6
Continuous
 62
     7
370
    15
100
AcDbSpline
210
0.0
220
0.0
230
1.0
 70
     8
 71
     3
 72
    10
 73
     6
 74
     0
 42
0.00000001
 43
0.00000001
 12
1.0
 22
0.0
 32
0.0
 13
1.0
 23
0.0
 33
0.0
 40
0.0
 40
0.0
 40
0.0
 40
0.0
 40
0.5
 40
0.5
 40
1.0
 40
1.0
 40
1.0
 40
1.0
 10
33.24510274711694
 20
-18.58893946137393
 30
0.0
 10
33.24900018528166
 20
-18.46984655899081
 30
0.0
 10
33.23114367522749
 20
-18.3576936812359
 30
0.0
 10
33.16923067246232
 20
-18.15808861641327
 30
0.0
 10
33.12596367212927
 20
-18.07311845095098
 30
0.0
 10
33.08161821034832
 20
-18.01066106605472
 30
0.0
  0
LWPOLYLINE
  5
108
330
1F
100
AcDbEntity
  8
0
  6
Continuous
 62
     7
370
    15
100
AcDbPolyline
 90
       23
 70
   128
 43
0.0
 10
38.2600216627
 20
11.4284230092
 10
38.1138465374
 20
10.8842103427
 10
37.8860511815
 20
10.3656219293
 10
37.5950902199
 20
9.9146707183
 10
37.2645355793
 20
9.5678900948
 10
36.9211668308
 20
9.3533741626
 10
36.5928016683
 20
9.2885017266
 10
36.3060422844
 20
9.3785283659
 10
36.084120219
 20
9.6161606575
 10
35.945014278
 20
9.9821470465
 10
35.8999939974
 20
10.4468374921
 10
35.9527066526
 20
10.9725855382
 10
36.0988817779
 20
11.5167982047
 10
36.3266771338
 20
12.035386618
 10
36.6176380954
 20
12.486337829
 10
36.948192736
 20
12.8331184526
 10
37.2915614845
 20
13.0476343848
 10
37.619926647
 20
13.1125068208
 10
37.9066860309
 20
13.0224801815
 10
38.1286080963
 20
12.7848478899
 10
38.2677140373
 20
12.4188615009
 10
38.3127343179
 20
11.9541710553
 10
38.2600216627
 20
11.4284230092
  0
LWPOLYLINE
  5
11D
330
1F
100
AcDbEntity
  8
0
  6
Continuous
 62
     7
370
    15
100
AcDbPolyline
 90
       12
 70
   128
 43
0.0
 10
58.4189915502
 20
63.6147713193
 10
58.8540976998
 20
63.3730323835
 10
59.225358391
 20
62.9970405727
 10
59.5026962907
 20
62.5172565073
 10
59.6636431316
 20
61.9725494388
 10
59.6951599578
 20
61.4070482946
 10
59.5946934635
 20
60.8665666141
 10
59.3703828466
 20
60.3948910087
 10
59.0404004192
 20
60.0302338308
 10
58.6314793951
 20
59.8021374363
 10
58.1767481238
 20
59.7290808384
 10
57.7130462285
 20
59.8169826484
  0
LWPOLYLINE
  5
127
330
1F
100
AcDbEntity
  8
0
  6
Continuous
 62
     7
370
    15
100
AcDbPolyline
 90
        9
 70
   128
 43
0.0
 10
30.6323267475
 20
66.0389981511
 10
30.5074053058
 20
66.0587939934
 10
30.3697975212
 20
66.0251302635
 10
30.2271999916
 20
65.9398898214
 10
30.087588398
 20
65.8078402853
 10
29.9587714142
 20
65.6363673725
 10
29.8479539561
 20
65.4350618051
 10
29.7613342005
 20
65.2151828877
 10
29.7037569128
 20
64.9890287589
  0
LWPOLYLINE
  5
129
330
1F
100
AcDbEntity
  8
0
  6
Continuous
 62
     7
370
    15
100
AcDbPolyline
 90
       23
 70
   128
 43
0.0
 10
46.0997426721
 20
63.4674079533
 10
46.1524553273
 20
63.9931559994
 10
46.1074350468
 20
64.457846445
 10
45.9683291057
 20
64.823832834
 10
45.7464070403
 20
65.0614651256
 10
45.4596476564
 20
65.1514917649
 10
45.131282494
 20
65.0866193289
 10
44.7879137454
 20
64.8721033967
 10
44.4573591048
 20
64.5253227732
 10
44.1663981432
 20
64.0743715622
 10
43.9386027873
 20
63.5557831488
 10
43.7924276621
 20
63.0115704823
 10
43.7397150068
 20
62.4858224362
 10
43.7847352874
 20
62.0211319906
 10
43.9238412284
 20
61.6551456016
 10
44.1457632938
 20
61.41751331
 10
44.4325226777
 20
61.3274866707
 10
44.7608878402
 20
61.3923591067
 10
45.1042565887
 20
61.6068750389
 10
45.4348112293
 20
61.9536556624
 10
45.725772191
 20
62.4046068735
 10
45.9535675469
 20
62.9231952868
 10
46.0997426721
 20
63.4674079533
  0
LWPOLYLINE
  5
12D
330
1F
100
AcDbEntity
  8
0
  6
Continuous
 62
     7
370
    15
100
AcDbPolyline
 90
        9
 70
   128
 43
0.0
 10
61.4434286684
 20
70.7189444085
 10
61.4666472955
 20
70.9020298093
 10
61.4665493482
 20
71.0737942348
 10
61.4431385903
 20
71.2276368746
 10
61.3973146842
 20
71.3576456423
 10
61.330838617
 20
71.4588243739
 10
61.2462650265
 20
71.5272848274
 10
61.1468440285
 20
71.5603961061
 10
61.0363963161
 20
71.5568857619
  0
LWPOLYLINE
  5
131
330
1F
100
AcDbEntity
  8
0
  6
Continuous
 62
     7
370
    15
100
AcDbPolyline
 90
        8
 70
   128
 43
0.0
 10
62.8060702834
 20
70.9588108565
 10
62.8455389193
 20
70.9407459756
 10
62.9289559091
 20
70.8727097091
 10
62.9944182075
 20
70.7719027806
 10
63.0394101349
 20
70.6421991437
 10
63.0622026769
 20
70.4885832366
 10
63.0619199288
 20
70.3169584323
 10
63.0385727565
 20
70.1339201759
  0
SPLINE
  5
135
330
1F
100
AcDbEntity
  8
0
  6
Continuous
 62
     7
370
    15
100
AcDbSpline
210
0.0
220
0.0
230
1.0
 70
     8
 71
     3
 72
    12
 73
     8
 74
     0
 42
0.00000001
 43
0.00000001
 12
1.0
 22
0.0
 32
0.0
 13
1.0
 23
0.0
 33
0.0
 40
0.0
 40
0.0
 40
0.0
 40
0.0
 40
0.4999999999999999
 40
0.4999999999999999
 40
0.7499999999999999
 40
0.7499999999999999
 40
1.0
 40
1.0
 40
1.0
 40
1.0
 10
25.97861747949828
 20
6.346619570938016
 30
0.0
 10
25.90345626567599
 20
6.140933561732407
 30
0.0
 10
25.84941865829823
 20
5.940714288464045
 30
0.0
 10
25.75859861506476
 20
5.709388103871687
 30
0.0
 10
25.72656106373188
 20
5.643304683382157
 30
0.0
 10
25.64470552732856
 20
5.541316186659285
 30
0.0
 10
25.59449901764628
 20
5.506579062111846
 30
0.0
 10
25.53135084436426
 20
5.494103390830554
 30
0.0
  0
LWPOLYLINE
  5
13E
330
1F
100
AcDbEntity
  8
0
  6
Continuous
 62
     7
370
    15
100
AcDbPolyline
 90
       19
 70
   128
 43
0.0
 10
26.2513294431
 20
39.0252564951
 10
26.6073811716
 20
38.9262979263
 10
26.9672046602
 20
38.9037420115
 10
27.3196235409
 20
38.9582893531
 10
27.6536914378
 20
39.0882456728
 10
27.9590319696
 20
39.2895744367
 10
28.2261610467
 20
39.5560222333
 10
28.4467814541
 20
39.8793130086
 10
28.6140405684
 20
40.249405126
 10
28.722743205
 20
40.6548032668
 10
28.7695129844
 20
41.0829154825
 10
28.7528972047
 20
41.5204443096
 10
28.6734119635
 20
41.9537997982
 10
28.5335261277
 20
42.3695216252
 10
28.3375846489
 20
42.7546971813
 10
28.0916736057
 20
43.0973626454
 10
27.8034311664
 20
43.3868745899
 10
27.4818103416
 20
43.614240572
 10
27.1368008983
 20
43.7723984463
  0
LWPOLYLINE
  5
145
330
1F
100
AcDbEntity
  8
0
  6
Continuous
 62
     7
370
    15
100
AcDbPolyline
 90
        6
 70
   128
 43
0.0
 10
68.0928383518
 20
-80.3501836586
 10
68.2369732196
 20
-80.4121185227
 10
68.3526416269
 20
-80.481410427
 10
68.4353985018
 20
-80.5553965225
 10
68.482063544
 20
-80.6312335649
 10
68.491550012
 20
-80.700158227
  0
LWPOLYLINE
  5
147
330
1F
100
AcDbEntity
  8
0
  6
Continuous
 62
     7
370
    15
100
AcDbPolyline
 90
        6
 70
   128
 43
0.0
 10
68.2688155322
 20
-78.4864983214
 10
68.4129386902
 20
-78.5485571997
 10
68.5285724183
 20
-78.6182163808
 10
68.6112729771
 20
-78.6927989015
 10
68.6578622306
 20
-78.7694385972
 10
68.6672538666
 20
-78.8393613948
  0
LWPOLYLINE
  5
14F
330
1F
100
AcDbEntity
  8
0
  6
Continuous
 62
     7
370
    15
100
AcDbPolyline
 90
        7
 70
   128
 43
0.0
 10
67.4240457183
 20
-2.658538466
 10
67.5685607025
 20
-2.7177944462
 10
67.6853548514
 20
-2.779152647
 10
67.7699398314
 20
-2.840255107
 10
67.8190650891
 20
-2.898753693
 10
67.8308427685
 20
-2.9524003372
 10
67.8307126103
 20
-2.9532762166
  0
LWPOLYLINE
  5
15D
330
1F
100
AcDbEntity
  8
0
  6
Continuous
 62
     7
370
    15
100
AcDbPolyline
 90
        3
 70
   128
 43
0.0
 10
34.5062116942
 20
-12.7442002869
 10
34.3970691225
 20
-12.7481892955
 10
34.3383717452
 20
-12.7336031675
  0
LINE
  5
162
330
1F
100
AcDbEntity
  8
0
  6
Continuous
 62
     7
370
    15
100
AcDbLine
 10
30.9090193404
 20
-95.4672658057
 30
0.0
 11
67.5676174199
 21
-88.2249245707
 31
0.0
  0
LINE
  5
163
330
1F
100
AcDbEntity
  8
0
  6
Continuous
 62
     7
370
    15
100
AcDbLine
 10
68.51604803
 20
-80.5627786511
 30
0.0
 11
68.6687493848
 21
-78.8395396898
 31
0.0
  0
LINE
  5
164
330
1F
100
AcDbEntity
  8
0
  6
Continuous
 62
     7
370
    15
100
AcDbLine
 10
68.4439521784
 20
-80.9567409689
 30
0.0
 11
69.7366258417
 21
-80.7013579411
 31
0.0
  0
LINE
  5
165
330
1F
100
AcDbEntity
  8
0
  6
Continuous
 62
     7
370
    15
100
AcDbLine
 10
69.8527815654
 20
-80.5638434286
 30
0.0
 11
71.0444133231
 21
-36.5189038554
 31
0.0
  0
LINE
  5
166
330
1F
100
AcDbEntity
  8
0
  6
Continuous
 62
     7
370
    15
100
AcDbLine
 10
71.0165856321
 20
-36.3641060639
 30
0.0
 11
70.2293203863
 21
-34.4088735283
 31
0.0
  0
LINE
  5
167
330
1F
100
AcDbEntity
  8
0
  6
Continuous
 62
     7
370
    15
100
AcDbLine
 10
67.8303758658
 20
-2.9552506107
 30
0.0
 11
74.6420628543
 21
33.6897229864
 31
0.0
  0
LINE
  5
168
330
1F
100
AcDbEntity
  8
0
  6
Continuous
 62
     7
370
    15
100
AcDbLine
 10
68.0402750024
 20
-5.394315296
 30
0.0
 11
75.0722203095
 21
32.4355865395
 31
0.0
  0
LINE
  5
169
330
1F
100
AcDbEntity
  8
0
  6
Continuous
 62
     7
370
    15
100
AcDbLine
 10
74.6148198571
 20
33.737553704
 30
0.0
 11
68.3105593439
 21
36.0496615545
 31
0.0
  0
LINE
  5
16A
330
1F
100
AcDbEntity
  8
0
  6
Continuous
 62
     7
370
    15
100
AcDbLine
 10
75.0660054817
 20
32.559285503
 30
0.0
 11
67.5604479046
 21
58.2553172679
 31
0.0
  0
LINE
  5
16B
330
1F
100
AcDbEntity
  8
0
  6
Continuous
 62
     7
370
    15
100
AcDbLine
 10
44.5491554853
 20
-9.8780353213
 30
0.0
 11
41.3543944803
 21
-8.7063464317
 31
0.0
  0
LINE
  5
16C
330
1F
100
AcDbEntity
  8
0
  6
Continuous
 62
     7
370
    15
100
AcDbLine
 10
41.3146942239
 20
-8.7032341102
 30
0.0
 11
34.6359177453
 21
-10.0227056891
 31
0.0
  0
LINE
  5
16D
330
1F
100
AcDbEntity
  8
0
  6
Continuous
 62
     7
370
    15
100
AcDbLine
 10
32.9334761446
 20
-17.8926099885
 30
0.0
 11
31.8418149256
 21
-17.49223972
 31
0.0
  0
LINE
  5
16E
330
1F
100
AcDbEntity
  8
0
  6
Continuous
 62
     7
370
    15
100
AcDbLine
 10
33.8465745403
 20
-10.8209908709
 30
0.0
 11
33.6995391247
 21
-11.6120003422
 31
0.0
  0
LINE
  5
16F
330
1F
100
AcDbEntity
  8
0
  6
Continuous
 62
     7
370
    15
100
AcDbLine
 10
34.3383717452
 20
-12.7336031675
 30
0.0
 11
37.2893883081
 21
-13.8158979978
 31
0.0
  0
LINE
  5
170
330
1F
100
AcDbEntity
  8
0
  6
Continuous
 62
     7
370
    15
100
AcDbLine
 10
62.8060702834
 20
70.9588108565
 30
0.0
 11
61.2062807617
 21
71.5455388169
 31
0.0
  0
LINE
  5
171
330
1F
100
AcDbEntity
  8
0
  6
Continuous
 62
     7
370
    15
100
AcDbLine
 10
1.0049800093
 20
0.543879321
 30
0.0
 11
10.3974992879
 21
2.3994830057
 31
0.0
  0
LINE
  5
172
330
1F
100
AcDbEntity
  8
0
  6
Continuous
 62
     7
370
    15
100
AcDbLine
 10
15.9165213775
 20
3.4898313373
 30
0.0
 11
39.3665208539
 21
8.1226571153
 31
0.0
  0
LINE
  5
173
330
1F
100
AcDbEntity
  8
0
  6
Continuous
 62
     7
370
    15
100
AcDbLine
 10
62.4808288506
 20
-86.4246400364
 30
0.0
 11
67.2662611149
 21
-88.1797127342
 31
0.0
  0
LINE
  5
174
330
1F
100
AcDbEntity
  8
0
  6
Continuous
 62
     7
370
    15
100
AcDbLine
 10
67.407026163
 20
-3.078913976
 30
0.0
 11
62.6215938987
 21
-1.3238412782
 31
0.0
  0
LINE
  5
175
330
1F
100
AcDbEntity
  8
0
  6
Continuous
 62
     7
370
    15
100
AcDbLine
 10
25.730086718
 20
-92.3205232831
 30
0.0
 11
61.2080738978
 21
-85.3114257467
 31
0.0
  0
LINE
  5
176
330
1F
100
AcDbEntity
  8
0
  6
Continuous
 62
     7
370
    15
100
AcDbLine
 10
62.4808288506
 20
-86.4246400364
 30
0.0
 11
25.6824652707
 21
-93.6945936052
 31
0.0
  0
LINE
  5
177
330
1F
100
AcDbEntity
  8
0
  6
Continuous
 62
     7
370
    15
100
AcDbLine
 10
30.467897535
 20
-95.449666303
 30
0.0
 11
67.2662611149
 21
-88.1797127342
 31
0.0
  0
LINE
  5
178
330
1F
100
AcDbEntity
  8
0
  6
Continuous
 62
     7
370
    15
100
AcDbLine
 10
25.6824652707
 20
-93.6945936052
 30
0.0
 11
30.467897535
 21
-95.449666303
 31
0.0
  0
LINE
  5
179
330
1F
100
AcDbEntity
  8
0
  6
Continuous
 62
     7
370
    15
100
AcDbLine
 10
31.7421752392
 20
-22.1116908553
 30
0.0
 11
32.1210653791
 21
-29.9600490267
 31
0.0
  0
LINE
  5
17A
330
1F
100
AcDbEntity
  8
0
  6
Continuous
 62
     7
370
    15
100
AcDbLine
 10
32.1210653791
 20
-29.9600490267
 30
0.0
 11
34.4695128624
 21
-36.679811936
 31
0.0
  0
LINE
  5
17B
330
1F
100
AcDbEntity
  8
0
  6
Continuous
 62
     7
370
    15
100
AcDbLine
 10
34.4695128624
 20
-36.679811936
 30
0.0
 11
36.8862165907
 21
-38.1160625979
 31
0.0
  0
LINE
  5
17C
330
1F
100
AcDbEntity
  8
0
  6
Continuous
 62
     7
370
    15
100
AcDbLine
 10
33.0813961791
 20
-82.6369630473
 30
0.0
 11
56.8125782112
 21
-77.9485863174
 31
0.0
  0
LINE
  5
17D
330
1F
100
AcDbEntity
  8
0
  6
Continuous
 62
     7
370
    15
100
AcDbLine
 10
57.149979997
 20
-73.9635222581
 30
0.0
 11
59.0565274632
 21
-73.586861173
 31
0.0
  0
LINE
  5
17E
330
1F
100
AcDbEntity
  8
0
  6
Continuous
 62
     7
370
    15
100
AcDbLine
 10
59.0565274632
 20
-73.586861173
 30
0.0
 11
59.5855120782
 21
-59.2392763049
 31
0.0
  0
LINE
  5
17F
330
1F
100
AcDbEntity
  8
0
  6
Continuous
 62
     7
370
    15
100
AcDbLine
 10
59.5855120782
 20
-59.2392763049
 30
0.0
 11
58.3155378937
 21
-49.12571711
 31
0.0
  0
LINE
  5
180
330
1F
100
AcDbEntity
  8
0
  6
Continuous
 62
     7
370
    15
100
AcDbLine
 10
56.1499059846
 20
-8.4155454271
 30
0.0
 11
57.3963723711
 21
-1.7099043871
 31
0.0
  0
LINE
  5
181
330
1F
100
AcDbEntity
  8
0
  6
Continuous
 62
     7
370
    15
100
AcDbLine
 10
57.3963723711
 20
-1.7099043871
 30
0.0
 11
57.6290041349
 21
-1.6639452206
 31
0.0
  0
LINE
  5
182
330
1F
100
AcDbEntity
  8
0
  6
Continuous
 62
     7
370
    15
100
AcDbLine
 10
63.6667505804
 20
30.817444405
 30
0.0
 11
57.6290041349
 21
-1.6639452206
 31
0.0
  0
LINE
  5
183
330
1F
100
AcDbEntity
  8
0
  6
Continuous
 62
     7
370
    15
100
AcDbLine
 10
63.6667505804
 20
30.817444405
 30
0.0
 11
66.5966806247
 21
35.7763534514
 31
0.0
  0
LINE
  5
184
330
1F
100
AcDbEntity
  8
0
  6
Continuous
 62
     7
370
    15
100
AcDbLine
 10
66.5966806247
 20
35.7763534514
 30
0.0
 11
68.1045614753
 21
36.0742532139
 31
0.0
  0
LINE
  5
185
330
1F
100
AcDbEntity
  8
0
  6
Continuous
 62
     7
370
    15
100
AcDbLine
 10
61.2642126575
 20
-0.7249130196
 30
0.0
 11
68.1045614753
 21
36.0742532139
 31
0.0
  0
LINE
  5
186
330
1F
100
AcDbEntity
  8
0
  6
Continuous
 62
     7
370
    15
100
AcDbLine
 10
28.1973230536
 20
-21.1765046843
 30
0.0
 11
27.5053419431
 21
-24.8991697985
 31
0.0
  0
LINE
  5
187
330
1F
100
AcDbEntity
  8
0
  6
Continuous
 62
     7
370
    15
100
AcDbLine
 10
5.1694553398
 20
-25.7259333214
 30
0.0
 11
28.1973230536
 21
-21.1765046843
 31
0.0
  0
LINE
  5
188
330
1F
100
AcDbEntity
  8
0
  6
Continuous
 62
     7
370
    15
100
AcDbLine
 10
11.0256780147
 20
5.7789091151
 30
0.0
 11
5.1694553398
 21
-25.7259333214
 31
0.0
  0
LINE
  5
189
330
1F
100
AcDbEntity
  8
0
  6
Continuous
 62
     7
370
    15
100
AcDbLine
 10
11.0256780147
 20
5.7789091151
 30
0.0
 11
-4.9483263244
 21
2.6230549261
 31
0.0
  0
LINE
  5
18A
330
1F
100
AcDbEntity
  8
0
  6
Continuous
 62
     7
370
    15
100
AcDbLine
 10
-4.9483263244
 20
2.6230549261
 30
0.0
 11
-3.536435681
 21
10.2186322679
 31
0.0
  0
LINE
  5
18B
330
1F
100
AcDbEntity
  8
0
  6
Continuous
 62
     7
370
    15
100
AcDbLine
 10
-3.536435681
 20
10.2186322679
 30
0.0
 11
-1.2290257834
 21
10.6744884851
 31
0.0
  0
LINE
  5
18C
330
1F
100
AcDbEntity
  8
0
  6
Continuous
 62
     7
370
    15
100
AcDbLine
 10
-1.7584847747
 20
7.8261469819
 30
0.0
 11
-1.2290257834
 21
10.6744884851
 31
0.0
  0
LINE
  5
18D
330
1F
100
AcDbEntity
  8
0
  6
Continuous
 62
     7
370
    15
100
AcDbLine
 10
1.7023928528
 20
8.5098844423
 30
0.0
 11
-1.7584847747
 21
7.8261469819
 31
0.0
  0
LINE
  5
18E
330
1F
100
AcDbEntity
  8
0
  6
Continuous
 62
     7
370
    15
100
AcDbLine
 10
1.7023928528
 20
8.5098844423
 30
0.0
 11
2.2318518441
 21
11.3582259455
 31
0.0
  0
LINE
  5
18F
330
1F
100
AcDbEntity
  8
0
  6
Continuous
 62
     7
370
    15
100
AcDbLine
 10
2.2318518441
 20
11.3582259455
 30
0.0
 11
20.4019575482
 21
14.9479460296
 31
0.0
  0
LINE
  5
190
330
1F
100
AcDbEntity
  8
0
  6
Continuous
 62
     7
370
    15
100
AcDbLine
 10
20.4019575482
 20
14.9479460296
 30
0.0
 11
24.8251522628
 21
38.7434982626
 31
0.0
  0
LINE
  5
191
330
1F
100
AcDbEntity
  8
0
  6
Continuous
 62
     7
370
    15
100
AcDbLine
 10
24.8251522628
 20
38.7434982626
 30
0.0
 11
26.2513294431
 21
39.0252564951
 31
0.0
  0
LINE
  5
192
330
1F
100
AcDbEntity
  8
0
  6
Continuous
 62
     7
370
    15
100
AcDbLine
 10
26.2513294431
 20
39.0252564951
 30
0.0
 11
22.1686102885
 21
17.137202103
 31
0.0
  0
LINE
  5
193
330
1F
100
AcDbEntity
  8
0
  6
Continuous
 62
     7
370
    15
100
AcDbLine
 10
22.1686102885
 20
17.137202103
 30
0.0
 11
22.2921336329
 21
17.1613899806
 31
0.0
  0
LINE
  5
194
330
1F
100
AcDbEntity
  8
0
  6
Continuous
 62
     7
370
    15
100
AcDbLine
 10
22.2921336329
 20
17.1613899806
 30
0.0
 11
20.701661619
 21
8.6050947404
 31
0.0
  0
LINE
  5
195
330
1F
100
AcDbEntity
  8
0
  6
Continuous
 62
     7
370
    15
100
AcDbLine
 10
19.948346536
 20
7.5416882049
 30
0.0
 11
13.007003093
 21
6.1703434052
 31
0.0
  0
LINE
  5
196
330
1F
100
AcDbEntity
  8
0
  6
Continuous
 62
     7
370
    15
100
AcDbLine
 10
7.7312350732
 20
-22.2118150994
 30
0.0
 11
13.007003093
 21
6.1703434052
 31
0.0
  0
LINE
  5
197
330
1F
100
AcDbEntity
  8
0
  6
Continuous
 62
     7
370
    15
100
AcDbLine
 10
31.6739749766
 20
-17.4816426006
 30
0.0
 11
7.7312350732
 21
-22.2118150994
 31
0.0
  0
LINE
  5
198
330
1F
100
AcDbEntity
  8
0
  6
Continuous
 62
     7
370
    15
100
AcDbLine
 10
32.0950812144
 20
-18.1671653598
 30
0.0
 11
31.7421752392
 21
-22.1116908553
 31
0.0
  0
LINE
  5
199
330
1F
100
AcDbEntity
  8
0
  6
Continuous
 62
     7
370
    15
100
AcDbLine
 10
69.4431929061
 20
-80.6545807489
 30
0.0
 11
68.6456208621
 21
-80.3620686326
 31
0.0
  0
LINE
  5
19A
330
1F
100
AcDbEntity
  8
0
  6
Continuous
 62
     7
370
    15
100
AcDbLine
 10
70.6498895767
 20
-36.0528138075
 30
0.0
 11
70.2586642504
 21
-35.9093306588
 31
0.0
  0
LINE
  5
19B
330
1F
100
AcDbEntity
  8
0
  6
Continuous
 62
     7
370
    15
100
AcDbLine
 10
39.5646472968
 20
-13.4101494682
 30
0.0
 11
37.4572282572
 21
-13.8264951172
 31
0.0
  0
LINE
  5
19C
330
1F
100
AcDbEntity
  8
0
  6
Continuous
 62
     7
370
    15
100
AcDbLine
 10
44.4581362123
 20
-12.4433826409
 30
0.0
 11
43.3298635936
 21
-15.0813202172
 31
0.0
  0
LINE
  5
19D
330
1F
100
AcDbEntity
  8
0
  6
Continuous
 62
     7
370
    15
100
AcDbLine
 10
44.7816579584
 20
-10.7029260019
 30
0.0
 11
44.4581362123
 21
-12.4433826409
 31
0.0
  0
LINE
  5
19E
330
1F
100
AcDbEntity
  8
0
  6
Continuous
 62
     7
370
    15
100
AcDbLine
 10
46.1069599317
 20
-9.526516666
 30
0.0
 11
44.4716174319
 21
-9.8495979904
 31
0.0
  0
LINE
  5
19F
330
1F
100
AcDbEntity
  8
0
  6
Continuous
 62
     7
370
    15
100
AcDbLine
 10
46.4305881735
 20
-7.7854871097
 30
0.0
 11
46.1069599317
 21
-9.526516666
 31
0.0
  0
LINE
  5
1A0
330
1F
100
AcDbEntity
  8
0
  6
Continuous
 62
     7
370
    15
100
AcDbLine
 10
44.700101916
 20
-8.127365213
 30
0.0
 11
46.4305881735
 21
-7.7854871097
 31
0.0
  0
LINE
  5
1A1
330
1F
100
AcDbEntity
  8
0
  6
Continuous
 62
     7
370
    15
100
AcDbLine
 10
44.729446335
 20
-7.9695004338
 30
0.0
 11
44.700101916
 21
-8.127365213
 31
0.0
  0
LINE
  5
1A2
330
1F
100
AcDbEntity
  8
0
  6
Continuous
 62
     7
370
    15
100
AcDbLine
 10
40.0406952521
 20
-8.8958188717
 30
0.0
 11
44.729446335
 21
-7.9695004338
 31
0.0
  0
LINE
  5
1A3
330
1F
100
AcDbEntity
  8
0
  6
Continuous
 62
     7
370
    15
100
AcDbLine
 10
45.3352851649
 20
19.5875961604
 30
0.0
 11
40.0406952521
 21
-8.8958188717
 31
0.0
  0
LINE
  5
1A4
330
1F
100
AcDbEntity
  8
0
  6
Continuous
 62
     7
370
    15
100
AcDbLine
 10
32.2601746809
 20
17.004452866
 30
0.0
 11
45.3352851649
 21
19.5875961604
 31
0.0
  0
LINE
  5
1A5
330
1F
100
AcDbEntity
  8
0
  6
Continuous
 62
     7
370
    15
100
AcDbLine
 10
39.0082448306
 20
53.1818436897
 30
0.0
 11
32.2601746809
 21
17.004452866
 31
0.0
  0
LINE
  5
1A6
330
1F
100
AcDbEntity
  8
0
  6
Continuous
 62
     7
370
    15
100
AcDbLine
 10
62.4562083968
 20
57.8142672495
 30
0.0
 11
39.0082448306
 21
53.1818436897
 31
0.0
  0
LINE
  5
1A7
330
1F
100
AcDbEntity
  8
0
  6
Continuous
 62
     7
370
    15
100
AcDbLine
 10
65.0890462343
 20
47.0075030045
 30
0.0
 11
62.4562083968
 21
57.8142672495
 31
0.0
  0
LINE
  5
1A8
330
1F
100
AcDbEntity
  8
0
  6
Continuous
 62
     7
370
    15
100
AcDbLine
 10
62.2045292611
 20
43.8805154803
 30
0.0
 11
65.0890462343
 21
47.0075030045
 31
0.0
  0
LINE
  5
1A9
330
1F
100
AcDbEntity
  8
0
  6
Continuous
 62
     7
370
    15
100
AcDbLine
 10
42.0318020165
 20
-56.0274460838
 30
0.0
 11
39.5400308482
 21
-69.4324790551
 31
0.0
  0
LINE
  5
1AA
330
1F
100
AcDbEntity
  8
0
  6
Continuous
 62
     7
370
    15
100
AcDbLine
 10
40.8139164309
 20
-41.6110509514
 30
0.0
 11
42.0318020165
 21
-56.0274460838
 31
0.0
  0
LINE
  5
1AB
330
1F
100
AcDbEntity
  8
0
  6
Continuous
 62
     7
370
    15
100
AcDbLine
 10
38.2181014694
 20
-38.0546188826
 30
0.0
 11
40.634805194
 21
-39.4908695533
 31
0.0
  0
LINE
  5
1AC
330
1F
100
AcDbEntity
  8
0
  6
Continuous
 62
     7
370
    15
100
AcDbLine
 10
35.8696539861
 20
-31.3348559733
 30
0.0
 11
38.2181014694
 21
-38.0546188826
 31
0.0
  0
LINE
  5
1AD
330
1F
100
AcDbEntity
  8
0
  6
Continuous
 62
     7
370
    15
100
AcDbLine
 10
35.4907638462
 20
-23.4864978019
 30
0.0
 11
35.8696539861
 21
-31.3348559733
 31
0.0
  0
LINE
  5
1AE
330
1F
100
AcDbEntity
  8
0
  6
Continuous
 62
     7
370
    15
100
AcDbLine
 10
35.8303850513
 20
-19.6904597729
 30
0.0
 11
35.4907638462
 21
-23.4864978019
 31
0.0
  0
LINE
  5
1AF
330
1F
100
AcDbEntity
  8
0
  6
Continuous
 62
     7
370
    15
100
AcDbLine
 10
36.337415269
 20
-18.7525643929
 30
0.0
 11
37.2572498723
 21
-13.8041111229
 31
0.0
  0
LINE
  5
1B0
330
1F
100
AcDbEntity
  8
0
  6
Continuous
 62
     7
370
    15
100
AcDbLine
 10
36.8862165858
 20
-38.116062595
 30
0.0
 11
40.6348051929
 21
-39.4908695416
 31
0.0
  0
LINE
  5
1B1
330
1F
100
AcDbEntity
  8
0
  6
Continuous
 62
     7
370
    15
100
AcDbLine
 10
69.3024759414
 20
34.9462532976
 30
0.0
 11
62.638613454
 21
-0.9034657682
 31
0.0
  0
LINE
  5
1B2
330
1F
100
AcDbEntity
  8
0
  6
Continuous
 62
     7
370
    15
100
AcDbLine
 10
62.638613454
 20
-0.9034657682
 30
0.0
 11
67.4240457183
 21
-2.658538466
 31
0.0
  0
LINE
  5
1B3
330
1F
100
AcDbEntity
  8
0
  6
Continuous
 62
     7
370
    15
100
AcDbLine
 10
67.4240457183
 20
-2.658538466
 30
0.0
 11
74.0879082057
 21
33.1911805998
 31
0.0
  0
LINE
  5
1B4
330
1F
100
AcDbEntity
  8
0
  6
Continuous
 62
     7
370
    15
100
AcDbLine
 10
74.0879082057
 20
33.1911805998
 30
0.0
 11
69.3024759414
 21
34.9462532976
 31
0.0
  0
LINE
  5
1B5
330
1F
100
AcDbEntity
  8
0
  6
Continuous
 62
     7
370
    15
100
AcDbLine
 10
74.692404881
 20
32.8749404668
 30
0.0
 11
74.5034875422
 21
32.9442265093
 31
0.0
  0
LINE
  5
1B6
330
1F
100
AcDbEntity
  8
0
  6
Continuous
 62
     7
370
    15
100
AcDbLine
 10
64.7484997311
 20
59.6047324099
 30
0.0
 11
67.1412158633
 21
58.727196061
 31
0.0
  0
LINE
  5
1B7
330
1F
100
AcDbEntity
  8
0
  6
Continuous
 62
     7
370
    15
100
AcDbLine
 10
68.4183100775
 20
47.0407673395
 30
0.0
 11
69.1537579862
 21
46.77103945
 31
0.0
  0
LINE
  5
1B8
330
1F
100
AcDbEntity
  8
0
  6
Continuous
 62
     7
370
    15
100
AcDbLine
 10
64.7484997311
 20
59.6047324099
 30
0.0
 11
68.4183100775
 21
47.0407673395
 31
0.0
  0
LINE
  5
1B9
330
1F
100
AcDbEntity
  8
0
  6
Continuous
 62
     7
370
    15
100
AcDbLine
 10
64.153063012
 20
42.507116958
 30
0.0
 11
67.7786684244
 21
46.4374883156
 31
0.0
  0
LINE
  5
1BA
330
1F
100
AcDbEntity
  8
0
  6
Continuous
 62
     7
370
    15
100
AcDbLine
 10
38.2181014694
 20
-38.0546188826
 30
0.0
 11
34.4695128624
 21
-36.679811936
 31
0.0
  0
LINE
  5
1BB
330
1F
100
AcDbEntity
  8
0
  6
Continuous
 62
     7
370
    15
100
AcDbLine
 10
35.8696539861
 20
-31.3348559733
 30
0.0
 11
32.1210653791
 21
-29.9600490267
 31
0.0
  0
LINE
  5
1BC
330
1F
100
AcDbEntity
  8
0
  6
Continuous
 62
     7
370
    15
100
AcDbLine
 10
62.9548297584
 20
41.4508266878
 30
0.0
 11
62.7776822806
 21
41.5157960959
 31
0.0
  0
LINE
  5
1BD
330
1F
100
AcDbEntity
  8
0
  6
Continuous
 62
     7
370
    15
100
AcDbLine
 10
39.5812749866
 20
-13.7065132706
 30
0.0
 11
40.7095476053
 21
-11.0685756943
 31
0.0
  0
LINE
  5
1BE
330
1F
100
AcDbEntity
  8
0
  6
Continuous
 62
     7
370
    15
100
AcDbLine
 10
39.3965127221
 20
-10.4134011249
 30
0.0
 11
39.5812749866
 21
-13.7065132706
 31
0.0
  0
LINE
  5
1BF
330
1F
100
AcDbEntity
  8
0
  6
Continuous
 62
     7
370
    15
100
AcDbLine
 10
33.8851259806
 20
-11.5022410028
 30
0.0
 11
39.3965127221
 21
-10.4134011249
 31
0.0
  0
LINE
  5
1C0
330
1F
100
AcDbEntity
  8
0
  6
Continuous
 62
     7
370
    15
100
AcDbLine
 10
34.0321613962
 20
-10.7112315315
 30
0.0
 11
33.8851259806
 21
-11.5022410028
 31
0.0
  0
LINE
  5
1C1
330
1F
100
AcDbEntity
  8
0
  6
Continuous
 62
     7
370
    15
100
AcDbLine
 10
41.0330693513
 20
-9.3281190553
 30
0.0
 11
34.0321613962
 21
-10.7112315315
 31
0.0
  0
LINE
  5
1C2
330
1F
100
AcDbEntity
  8
0
  6
Continuous
 62
     7
370
    15
100
AcDbLine
 10
40.7095476053
 20
-11.0685756943
 30
0.0
 11
41.0330693513
 21
-9.3281190553
 31
0.0
  0
LINE
  5
1C3
330
1F
100
AcDbEntity
  8
0
  6
Continuous
 62
     7
370
    15
100
AcDbLine
 10
39.5812749866
 20
-13.7065132706
 30
0.0
 11
43.3298635936
 21
-15.0813202172
 31
0.0
  0
LINE
  5
1C4
330
1F
100
AcDbEntity
  8
0
  6
Continuous
 62
     7
370
    15
100
AcDbLine
 10
40.7095476053
 20
-11.0685756943
 30
0.0
 11
44.4581362123
 21
-12.4433826409
 31
0.0
  0
LINE
  5
1C5
330
1F
100
AcDbEntity
  8
0
  6
Continuous
 62
     7
370
    15
100
AcDbLine
 10
44.7816579584
 20
-10.7029260019
 30
0.0
 11
41.0330693513
 21
-9.3281190553
 31
0.0
  0
LINE
  5
1C6
330
1F
100
AcDbEntity
  8
0
  6
Continuous
 62
     7
370
    15
100
AcDbLine
 10
46.4276660216
 20
-7.8012074708
 30
0.0
 11
44.726936313
 21
-8.1372068146
 31
0.0
  0
LINE
  5
1C7
330
1F
100
AcDbEntity
  8
0
  6
Continuous
 62
     7
370
    15
100
AcDbLine
 10
37.751730568
 20
-9.4071398773
 30
0.0
 11
37.7602146391
 21
-9.3614979442
 31
0.0
  0
LINE
  5
1C8
330
1F
100
AcDbEntity
  8
0
  6
Continuous
 62
     7
370
    15
100
AcDbLine
 10
44.7265241832
 20
-7.9852207948
 30
0.0
 11
37.7602146391
 21
-9.3614979442
 31
0.0
  0
LINE
  5
1C9
330
1F
100
AcDbEntity
  8
0
  6
Continuous
 62
     7
370
    15
100
AcDbLine
 10
67.0432205158
 20
46.7072162052
 30
0.0
 11
66.3021320766
 21
45.9038323717
 31
0.0
  0
LINE
  5
1CA
330
1F
100
AcDbEntity
  8
0
  6
Continuous
 62
     7
370
    15
100
AcDbLine
 10
63.1783434902
 20
42.8645984824
 30
0.0
 11
64.153063012
 21
42.507116958
 31
0.0
  0
LINE
  5
1CB
330
1F
100
AcDbEntity
  8
0
  6
Continuous
 62
     7
370
    15
100
AcDbLine
 10
66.0628604634
 20
45.9915860066
 30
0.0
 11
63.1783434902
 21
42.8645984824
 31
0.0
  0
LINE
  5
1CC
330
1F
100
AcDbEntity
  8
0
  6
Continuous
 62
     7
370
    15
100
AcDbLine
 10
66.0628604634
 20
45.9915860066
 30
0.0
 11
66.3021320766
 21
45.9038323717
 31
0.0
  0
LINE
  5
1CD
330
1F
100
AcDbEntity
  8
0
  6
Continuous
 62
     7
370
    15
100
AcDbLine
 10
44.700101916
 20
-8.127365213
 30
0.0
 11
44.726936313
 21
-8.1372068146
 31
0.0
  0
LINE
  5
1CE
330
1F
100
AcDbEntity
  8
0
  6
Continuous
 62
     7
370
    15
100
AcDbLine
 10
34.5062116942
 20
-12.7442002869
 30
0.0
 11
37.4572282572
 21
-13.8264951172
 31
0.0
  0
LINE
  5
1CF
330
1F
100
AcDbEntity
  8
0
  6
Continuous
 62
     7
370
    15
100
AcDbLine
 10
35.4907638462
 20
-23.4864978019
 30
0.0
 11
31.7421752392
 21
-22.1116908553
 31
0.0
  0
LINE
  5
1D0
330
1F
100
AcDbEntity
  8
0
  6
Continuous
 62
     7
370
    15
100
AcDbLine
 10
67.0432205158
 20
46.7072162052
 30
0.0
 11
63.6552151383
 21
58.306393602
 31
0.0
  0
LINE
  5
1D1
330
1F
100
AcDbEntity
  8
0
  6
Continuous
 62
     7
370
    15
100
AcDbLine
 10
63.493052054
 20
57.4340014983
 30
0.0
 11
66.3021320766
 21
45.9038323717
 31
0.0
  0
LINE
  5
1D2
330
1F
100
AcDbEntity
  8
0
  6
Continuous
 62
     7
370
    15
100
AcDbLine
 10
63.6552151383
 20
58.306393602
 30
0.0
 11
63.493052054
 21
57.4340014983
 31
0.0
  0
LINE
  5
1D3
330
1F
100
AcDbEntity
  8
0
  6
Continuous
 62
     7
370
    15
100
AcDbLine
 10
61.018089156
 20
58.3417021135
 30
0.0
 11
63.493052054
 21
57.4340014983
 31
0.0
  0
LINE
  5
1D4
330
1F
100
AcDbEntity
  8
0
  6
Continuous
 62
     7
370
    15
100
AcDbLine
 10
40.0675296491
 20
-8.9056604732
 30
0.0
 11
40.0406952521
 21
-8.8958188717
 31
0.0
  0
LINE
  5
1D5
330
1F
100
AcDbEntity
  8
0
  6
Continuous
 62
     7
370
    15
100
AcDbLine
 10
33.2451027471
 20
-18.5889394614
 30
0.0
 11
32.0950812144
 21
-18.1671653598
 31
0.0
  0
LINE
  5
1D6
330
1F
100
AcDbEntity
  8
0
  6
Continuous
 62
     7
370
    15
100
AcDbLine
 10
33.2404798071
 20
-18.740603682
 30
0.0
 11
35.8303850513
 21
-19.6904597729
 31
0.0
  0
LINE
  5
1D7
330
1F
100
AcDbEntity
  8
0
  6
Continuous
 62
     7
370
    15
100
AcDbLine
 10
34.478059925
 20
-18.0706398311
 30
0.0
 11
36.337415269
 21
-18.7525643929
 31
0.0
  0
LINE
  5
1D8
330
1F
100
AcDbEntity
  8
0
  6
Continuous
 62
     7
370
    15
100
AcDbLine
 10
32.7745040201
 20
-17.8343064498
 30
0.0
 11
33.6480999784
 21
-13.1346041762
 31
0.0
  0
LINE
  5
1D9
330
1F
100
AcDbEntity
  8
0
  6
Continuous
 62
     7
370
    15
100
AcDbLine
 10
28.9166804382
 20
53.3145929267
 30
0.0
 11
35.2596562235
 21
54.5566506363
 31
0.0
  0
LINE
  5
1DA
330
1F
100
AcDbEntity
  8
0
  6
Continuous
 62
     7
370
    15
100
AcDbLine
 10
28.9166804382
 20
53.3145929267
 30
0.0
 11
27.1368008983
 21
43.7723984463
 31
0.0
  0
LINE
  5
1DB
330
1F
100
AcDbEntity
  8
0
  6
Continuous
 62
     7
370
    15
100
AcDbLine
 10
27.1368008983
 20
43.7723984463
 30
0.0
 11
25.7074499096
 21
43.4900131903
 31
0.0
  0
LINE
  5
1DC
330
1F
100
AcDbEntity
  8
0
  6
Continuous
 62
     7
370
    15
100
AcDbLine
 10
25.7074499096
 20
43.4900131903
 30
0.0
 11
27.6378970957
 21
53.8752799068
 31
0.0
  0
LINE
  5
1DD
330
1F
100
AcDbEntity
  8
0
  6
Continuous
 62
     7
370
    15
100
AcDbLine
 10
27.6378970957
 20
53.8752799068
 30
0.0
 11
57.7130462285
 21
59.8169826484
 31
0.0
  0
LINE
  5
1DE
330
1F
100
AcDbEntity
  8
0
  6
Continuous
 62
     7
370
    15
100
AcDbLine
 10
57.5539622847
 20
58.9611554606
 30
0.0
 11
57.7130462285
 21
59.8169826484
 31
0.0
  0
LINE
  5
1DF
330
1F
100
AcDbEntity
  8
0
  6
Continuous
 62
     7
370
    15
100
AcDbLine
 10
57.5539622847
 20
58.9611554606
 30
0.0
 11
35.2596562235
 21
54.5566506363
 31
0.0
  0
LINE
  5
1E0
330
1F
100
AcDbEntity
  8
0
  6
Continuous
 62
     7
370
    15
100
AcDbLine
 10
59.864431651
 20
58.113783378
 30
0.0
 11
57.5539622847
 21
58.9611554606
 31
0.0
  0
LINE
  5
1E1
330
1F
100
AcDbEntity
  8
0
  6
Continuous
 62
     7
370
    15
100
AcDbLine
 10
59.864431651
 20
58.113783378
 30
0.0
 11
61.018089156
 21
58.3417021135
 31
0.0
  0
LINE
  5
1E2
330
1F
100
AcDbEntity
  8
0
  6
Continuous
 62
     7
370
    15
100
AcDbLine
 10
35.2596562235
 20
54.5566506363
 30
0.0
 11
39.0082448306
 21
53.1818436897
 31
0.0
  0
LINE
  5
1E3
330
1F
100
AcDbEntity
  8
0
  6
Continuous
 62
     7
370
    15
100
AcDbLine
 10
39.5341926148
 20
9.0246843609
 30
0.0
 11
36.0453613679
 21
-9.7442533696
 31
0.0
  0
LINE
  5
1E4
330
1F
100
AcDbEntity
  8
0
  6
Continuous
 62
     7
370
    15
100
AcDbLine
 10
25.9786174795
 20
6.3466195709
 30
0.0
 11
39.5341926148
 21
9.0246843609
 31
0.0
  0
LINE
  5
1E5
330
1F
100
AcDbEntity
  8
0
  6
Continuous
 62
     7
370
    15
100
AcDbLine
 10
27.6498544403
 20
15.1964286162
 30
0.0
 11
26.0593824263
 21
6.640133376
 31
0.0
  0
LINE
  5
1E6
330
1F
100
AcDbEntity
  8
0
  6
Continuous
 62
     7
370
    15
100
AcDbLine
 10
33.8693068812
 20
16.4142984482
 30
0.0
 11
27.6498544403
 21
15.1964286162
 31
0.0
  0
LINE
  5
1E7
330
1F
100
AcDbEntity
  8
0
  6
Continuous
 62
     7
370
    15
100
AcDbLine
 10
33.8693068812
 20
16.4142984482
 30
0.0
 11
45.1600575013
 21
18.6449202688
 31
0.0
  0
LINE
  5
1E8
330
1F
100
AcDbEntity
  8
0
  6
Continuous
 62
     7
370
    15
100
AcDbLine
 10
62.5179385832
 20
62.3238923293
 30
0.0
 11
63.2359541082
 21
65.2173402802
 31
0.0
  0
LINE
  5
1E9
330
1F
100
AcDbEntity
  8
0
  6
Continuous
 62
     7
370
    15
100
AcDbLine
 10
63.2359541082
 20
65.2173402802
 30
0.0
 11
63.6627712702
 21
67.5134974082
 31
0.0
  0
LINE
  5
1EA
330
1F
100
AcDbEntity
  8
0
  6
Continuous
 62
     7
370
    15
100
AcDbLine
 10
66.0554874024
 20
66.6359610593
 30
0.0
 11
63.6627712702
 21
67.5134974082
 31
0.0
  0
LINE
  5
1EB
330
1F
100
AcDbEntity
  8
0
  6
Continuous
 62
     7
370
    15
100
AcDbLine
 10
66.676573116
 20
65.3940017753
 30
0.0
 11
65.7225581056
 21
60.2616674614
 31
0.0
  0
LINE
  5
1EC
330
1F
100
AcDbEntity
  8
0
  6
Continuous
 62
     7
370
    15
100
AcDbLine
 10
61.3642810781
 20
62.0959735938
 30
0.0
 11
62.5179385832
 21
62.3238923293
 31
0.0
  0
LINE
  5
1ED
330
1F
100
AcDbEntity
  8
0
  6
Continuous
 62
     7
370
    15
100
AcDbLine
 10
8.359743516
 20
-26.8959817866
 30
0.0
 11
5.1694553398
 21
-25.7259333214
 31
0.0
  0
LINE
  5
1EE
330
1F
100
AcDbEntity
  8
0
  6
Continuous
 62
     7
370
    15
100
AcDbLine
 10
8.359743516
 20
-26.8959817866
 30
0.0
 11
27.8499142185
 21
-23.0454671911
 31
0.0
  0
LINE
  5
1EF
330
1F
100
AcDbEntity
  8
0
  6
Continuous
 62
     7
370
    15
100
AcDbLine
 10
63.0385727565
 20
70.1339201759
 30
0.0
 11
62.0822966032
 21
64.9894215446
 31
0.0
  0
LINE
  5
1F0
330
1F
100
AcDbEntity
  8
0
  6
Continuous
 62
     7
370
    15
100
AcDbLine
 10
61.3642810781
 20
62.0959735938
 30
0.0
 11
62.0822966032
 21
64.9894215446
 31
0.0
  0
LINE
  5
1F1
330
1F
100
AcDbEntity
  8
0
  6
Continuous
 62
     7
370
    15
100
AcDbLine
 10
58.4189915502
 20
63.6147713193
 30
0.0
 11
59.318825589
 21
68.4556271379
 31
0.0
  0
LINE
  5
1F2
330
1F
100
AcDbEntity
  8
0
  6
Continuous
 62
     7
370
    15
100
AcDbLine
 10
60.9139696771
 20
67.8706029053
 30
0.0
 11
59.318825589
 21
68.4556271379
 31
0.0
  0
LINE
  5
1F3
330
1F
100
AcDbEntity
  8
0
  6
Continuous
 62
     7
370
    15
100
AcDbLine
 10
61.4434286684
 20
70.7189444085
 30
0.0
 11
60.9139696771
 21
67.8706029053
 31
0.0
  0
LINE
  5
1F4
330
1F
100
AcDbEntity
  8
0
  6
Continuous
 62
     7
370
    15
100
AcDbLine
 10
63.0385727565
 20
70.1339201759
 30
0.0
 11
61.4434286684
 21
70.7189444085
 31
0.0
  0
LINE
  5
1F5
330
1F
100
AcDbEntity
  8
0
  6
Continuous
 62
     7
370
    15
100
AcDbLine
 10
58.4189915502
 20
63.6147713193
 30
0.0
 11
28.3438424174
 21
57.6730685777
 31
0.0
  0
LINE
  5
1F6
330
1F
100
AcDbEntity
  8
0
  6
Continuous
 62
     7
370
    15
100
AcDbLine
 10
28.3438424174
 20
57.6730685777
 30
0.0
 11
29.7037569128
 21
64.9890287589
 31
0.0
  0
LINE
  5
1F7
330
1F
100
AcDbEntity
  8
0
  6
Continuous
 62
     7
370
    15
100
AcDbLine
 10
30.6323267475
 20
66.0389981511
 30
0.0
 11
35.9967133346
 21
63.8961277989
 31
0.0
  0
LINE
  5
1F8
330
1F
100
AcDbEntity
  8
0
  6
Continuous
 62
     7
370
    15
100
AcDbLine
 10
36.1719680864
 20
63.8826906555
 30
0.0
 11
59.318825589
 21
68.4556271379
 31
0.0
  0
LINE
  5
1F9
330
1F
100
AcDbEntity
  8
0
  6
Continuous
 62
     7
370
    15
100
AcDbLine
 10
62.0822966032
 20
64.9894215446
 30
0.0
 11
63.2359541082
 21
65.2173402802
 31
0.0
  0
LINE
  5
1FA
330
1F
100
AcDbEntity
  8
0
  6
Continuous
 62
     7
370
    15
100
AcDbLine
 10
62.5091137652
 20
67.2855786727
 30
0.0
 11
63.6627712702
 21
67.5134974082
 31
0.0
  0
LINE
  5
1FB
330
1F
100
AcDbEntity
  8
0
  6
Continuous
 62
     7
370
    15
100
AcDbLine
 10
57.7382871745
 20
70.0109211151
 30
0.0
 11
57.3779068464
 21
68.0721755991
 31
0.0
  0
LINE
  5
1FC
330
1F
100
AcDbEntity
  8
0
  6
Continuous
 62
     7
370
    15
100
AcDbLine
 10
58.4982921876
 20
71.0718740972
 30
0.0
 11
61.0363963161
 21
71.5568857619
 31
0.0
  0
LINE
  5
1FD
330
1F
100
AcDbEntity
  8
0
  6
Continuous
 62
     7
370
    15
100
AcDbLine
 10
32.2601746809
 20
17.004452866
 30
0.0
 11
33.8693068812
 21
16.4142984482
 31
0.0
  0
LINE
  5
1FE
330
1F
100
AcDbEntity
  8
0
  6
Continuous
 62
     7
370
    15
100
AcDbLine
 10
15.9367346429
 20
3.5985730599
 30
0.0
 11
39.3867341193
 21
8.2313988379
 31
0.0
  0
LINE
  5
1FF
330
1F
100
AcDbEntity
  8
0
  6
Continuous
 62
     7
370
    15
100
AcDbLine
 10
27.6554063269
 20
15.1975157658
 30
0.0
 11
34.3907992666
 21
51.3069422131
 31
0.0
  0
LINE
  5
200
330
1F
100
AcDbEntity
  8
0
  6
Continuous
 62
     7
370
    15
100
AcDbLine
 10
34.3907992666
 20
51.3069422131
 30
0.0
 11
38.8203128646
 21
52.1743129395
 31
0.0
  0
LINE
  5
201
330
1F
100
AcDbEntity
  8
0
  6
Continuous
 62
     7
370
    15
100
AcDbLine
 10
25.5313508444
 20
5.4941033908
 30
0.0
 11
19.948346536
 21
7.5416882049
 31
0.0
  0
LINE
  5
202
330
1F
100
AcDbEntity
  8
0
  6
Continuous
 62
     7
370
    15
100
AcDbLine
 10
20.701661619
 20
8.6050947404
 30
0.0
 11
26.0593824263
 21
6.640133376
 31
0.0
  0
LINE
  5
203
330
1F
100
AcDbEntity
  8
0
  6
Continuous
 62
     7
370
    15
100
AcDbLine
 10
27.6498544403
 20
15.1964286162
 30
0.0
 11
22.2921336329
 21
17.1613899806
 31
0.0
  0
LINE
  5
204
330
1F
100
AcDbEntity
  8
0
  6
Continuous
 62
     7
370
    15
100
AcDbLine
 10
-4.9483263244
 20
2.6230549261
 30
0.0
 11
0.6346779839
 21
0.575470112
 31
0.0
  0
LINE
  5
205
330
1F
100
AcDbEntity
  8
0
  6
Continuous
 62
     7
370
    15
100
AcDbLine
 10
16.1972912692
 20
5.00029494
 30
0.0
 11
13.007003093
 21
6.1703434052
 31
0.0
  0
LINE
  5
206
330
1F
100
AcDbEntity
  8
0
  6
Continuous
 62
     7
370
    15
100
AcDbLine
 10
34.3907992666
 20
51.3069422131
 30
0.0
 11
28.9166804382
 21
53.3145929267
 31
0.0
  0
LINE
  5
207
330
1F
100
AcDbEntity
  8
0
  6
Continuous
 62
     7
370
    15
100
AcDbLine
 10
11.2689320845
 20
-21.5129010578
 30
0.0
 11
16.1972912692
 21
5.00029494
 31
0.0
  0
LINE
  5
208
330
1F
100
AcDbEntity
  8
0
  6
Continuous
 62
     7
370
    15
100
AcDbLine
 10
31.9579198502
 20
65.5528326107
 30
0.0
 11
30.6323267475
 21
66.0389981511
 31
0.0
  0
LINE
  5
209
330
1F
100
AcDbEntity
  8
0
  6
Continuous
 62
     7
370
    15
100
AcDbLine
 10
31.9579198502
 20
65.5528326107
 30
0.0
 11
36.1485614147
 21
63.8788291772
 31
0.0
  0
LINE
  5
20A
330
1F
100
AcDbEntity
  8
0
  6
Continuous
 62
     7
370
    15
100
AcDbLine
 10
1.8919868243
 20
9.5298470578
 30
0.0
 11
-1.2290257834
 21
10.6744884851
 31
0.0
  0
LINE
  5
20B
330
1F
100
AcDbEntity
  8
0
  6
Continuous
 62
     7
370
    15
100
AcDbLine
 10
68.7008956315
 20
-78.3190097248
 30
0.0
 11
68.6456208621
 21
-80.3620686326
 31
0.0
  0
LINE
  5
20C
330
1F
100
AcDbEntity
  8
0
  6
Continuous
 62
     7
370
    15
100
AcDbLine
 10
68.6456208621
 20
-80.3620686326
 30
0.0
 11
68.5318416636
 21
-80.384547064
 31
0.0
  0
LINE
  5
20D
330
1F
100
AcDbEntity
  8
0
  6
Continuous
 62
     7
370
    15
100
AcDbLine
 10
68.4547672968
 20
-80.8498559619
 30
0.0
 11
69.4431929061
 21
-80.6545807489
 31
0.0
  0
LINE
  5
20E
330
1F
100
AcDbEntity
  8
0
  6
Continuous
 62
     7
370
    15
100
AcDbLine
 10
69.4431929061
 20
-80.6545807489
 30
0.0
 11
70.0676062909
 21
-57.5750936328
 31
0.0
  0
LINE
  5
20F
330
1F
100
AcDbEntity
  8
0
  6
Continuous
 62
     7
370
    15
100
AcDbLine
 10
70.3027464835
 20
-48.883872116
 30
0.0
 11
70.6498895767
 21
-36.0528138075
 31
0.0
  0
LINE
  5
210
330
1F
100
AcDbEntity
  8
0
  6
Continuous
 62
     7
370
    15
100
AcDbLine
 10
63.852103209
 20
31.1311538836
 30
0.0
 11
61.403206842
 21
41.1829107074
 31
0.0
  0
LINE
  5
211
330
1F
100
AcDbEntity
  8
0
  6
Continuous
 62
     7
370
    15
100
AcDbLine
 10
70.6498895767
 20
-36.0528138075
 30
0.0
 11
70.2419939993
 21
-35.0397744178
 31
0.0
  0
LINE
  5
212
330
1F
100
AcDbEntity
  8
0
  6
Continuous
 62
     7
370
    15
100
AcDbLine
 10
67.8561393909
 20
-3.902258604
 30
0.0
 11
74.692404881
 21
32.8749404668
 31
0.0
  0
LINE
  5
213
330
1F
100
AcDbEntity
  8
0
  6
Continuous
 62
     7
370
    15
100
AcDbLine
 10
74.692404881
 20
32.8749404668
 30
0.0
 11
74.5690868151
 21
33.2971322766
 31
0.0
  0
LINE
  5
214
330
1F
100
AcDbEntity
  8
0
  6
Continuous
 62
     7
370
    15
100
AcDbLine
 10
74.4195228675
 20
33.809179504
 30
0.0
 11
67.1412158633
 21
58.727196061
 31
0.0
  0
LINE
  5
215
330
1F
100
AcDbEntity
  8
0
  6
Continuous
 62
     7
370
    15
100
AcDbLine
 10
69.1537579862
 20
46.77103945
 30
0.0
 11
72.762254644
 21
34.4169879634
 31
0.0
  0
LINE
  5
216
330
1F
100
AcDbEntity
  8
0
  6
Continuous
 62
     7
370
    15
100
AcDbLine
 10
71.1130690793
 20
35.0218320816
 30
0.0
 11
67.7786684244
 21
46.4374883156
 31
0.0
  0
LINE
  5
217
330
1F
100
AcDbEntity
  8
0
  6
Continuous
 62
     7
370
    15
100
AcDbLine
 10
64.153063012
 20
42.507116958
 30
0.0
 11
66.0275474845
 21
34.8130951364
 31
0.0
  0
LINE
  5
218
330
1F
100
AcDbEntity
  8
0
  6
Continuous
 62
     7
370
    15
100
AcDbLine
 10
64.9969358387
 20
33.0687840652
 30
0.0
 11
62.9548297584
 21
41.4508266878
 31
0.0
  0
LINE
  5
219
330
1F
100
AcDbEntity
  8
0
  6
Continuous
 62
     7
370
    15
100
AcDbLine
 10
62.7776822806
 20
41.5157960959
 30
0.0
 11
64.8827148548
 21
32.8754649547
 31
0.0
  0
LINE
  5
21A
330
1F
100
AcDbEntity
  8
0
  6
Continuous
 62
     7
370
    15
100
AcDbLine
 10
39.4722386344
 20
-11.7631027118
 30
0.0
 11
34.5062116942
 21
-12.7442002869
 31
0.0
  0
LINE
  5
21B
330
1F
100
AcDbEntity
  8
0
  6
Continuous
 62
     7
370
    15
100
AcDbLine
 10
33.0816182103
 20
-18.0106610661
 30
0.0
 11
34.0876578011
 21
-12.5984490395
 31
0.0
  0
LINE
  5
21C
330
1F
100
AcDbEntity
  8
0
  6
Continuous
 62
     7
370
    15
100
AcDbLine
 10
35.3978945283
 20
-13.1221865611
 30
0.0
 11
34.478059925
 21
-18.0706398311
 31
0.0
  0
LINE
  5
21D
330
1F
100
AcDbEntity
  8
0
  6
Continuous
 62
     7
370
    15
100
AcDbLine
 10
0.6346779839
 20
0.575470112
 30
0.0
 11
10.4177125533
 21
2.5082247283
 31
0.0
  0
ARC
  5
21E
330
1F
100
AcDbEntity
  8
0
  6
Continuous
 62
     7
370
    15
100
AcDbCircle
 10
34.6826980246
 20
-11.7947531191
 30
0.0
 40
0.9999999999999821
100
AcDbArc
 50
169.4698574887
 51
249.8593252064
  0
ARC
  5
21F
330
1F
100
AcDbEntity
  8
0
  6
Continuous
 62
     7
370
    15
100
AcDbCircle
 10
34.8297334403
 20
-11.0037436478
 30
0.0
 40
1.000000000000026
100
AcDbArc
 50
101.1755480905
 51
169.4698574887
  0
ARC
  5
220
330
1F
100
AcDbEntity
  8
0
  6
Continuous
 62
     7
370
    15
100
AcDbCircle
 10
62.1487958848
 20
-2.7273635968
 30
0.0
 40
1.481017508508858
100
AcDbArc
 50
71.3831127386
 51
128.3354400832
  0
ARC
  5
221
330
1F
100
AcDbEntity
  8
0
  6
Continuous
 62
     7
370
    15
100
AcDbCircle
 10
63.9176923495
 20
-1.2534078386
 30
0.0
 40
2.705598131598663
100
AcDbArc
 50
168.7357749063
 51
186.6273403112
  0
ARC
  5
222
330
1F
100
AcDbEntity
  8
0
  6
Continuous
 62
     7
370
    15
100
AcDbCircle
 10
19.3966909648
 20
8.7310066426
 30
0.0
 40
1.311030974212703
100
AcDbArc
 50
294.8838399168
 51
354.4887974603
  0
ARC
  5
223
330
1F
100
AcDbEntity
  8
0
  6
Continuous
 62
     7
370
    15
100
AcDbCircle
 10
70.5364058524
 20
-36.5488906595
 30
0.0
 40
0.5088917358134376
100
AcDbArc
 50
3.3781510638
 51
77.114601042
  0
ARC
  5
224
330
1F
100
AcDbEntity
  8
0
  6
Continuous
 62
     7
370
    15
100
AcDbCircle
 10
64.6418262062
 20
41.6886987588
 30
0.0
 40
3.277876895137489
100
AcDbArc
 50
138.0355311487
 51
188.8764068585
  0
ARC
  5
225
330
1F
100
AcDbEntity
  8
0
  6
Continuous
 62
     7
370
    15
100
AcDbCircle
 10
34.7249258377
 20
-18.4868448043
 30
0.0
 40
1.634236539109818
100
AcDbArc
 50
312.5658959959
 51
350.6424165523
  0
ARC
  5
226
330
1F
100
AcDbEntity
  8
0
  6
Continuous
 62
     7
370
    15
100
AcDbCircle
 10
37.3918465388
 20
-13.5275828076
 30
0.0
 40
0.3059793096228625
100
AcDbArc
 50
250.436372804
 51
282.3381087356
  0
ARC
  5
227
330
1F
100
AcDbEntity
  8
0
  6
Continuous
 62
     7
370
    15
100
AcDbCircle
 10
61.5708966851
 20
-3.7431950084
 30
0.0
 40
3.03382287825637
100
AcDbArc
 50
69.3941181305
 51
95.8018436402
  0
ARC
  5
228
330
1F
100
AcDbEntity
  8
0
  6
Continuous
 62
     7
370
    15
100
AcDbCircle
 10
63.9653533
 20
-1.1677131777
 30
0.0
 40
1.352799065799137
100
AcDbArc
 50
168.7357749063
 51
186.6273403112
  0
ARC
  5
229
330
1F
100
AcDbEntity
  8
0
  6
Continuous
 62
     7
370
    15
100
AcDbCircle
 10
67.6804435663
 20
34.423766905
 30
0.0
 40
1.704107114144637
100
AcDbArc
 50
17.8547022738
 51
75.5887630975
  0
ARC
  5
22A
330
1F
100
AcDbEntity
  8
0
  6
Continuous
 62
     7
370
    15
100
AcDbCircle
 10
68.7507855643
 20
-2.9227858755
 30
0.0
 40
1.352799065799896
100
AcDbArc
 50
168.7357749063
 51
186.6273403112
  0
ARC
  5
22B
330
1F
100
AcDbEntity
  8
0
  6
Continuous
 62
     7
370
    15
100
AcDbCircle
 10
68.7397594293
 20
45.4765490635
 30
0.0
 40
1.359080632611305
100
AcDbArc
 50
72.2648992919
 51
135.004523752
  0
ARC
  5
22C
330
1F
100
AcDbEntity
  8
0
  6
Continuous
 62
     7
370
    15
100
AcDbCircle
 10
66.8900439505
 20
58.0818780936
 30
0.0
 40
0.6924757099846686
100
AcDbArc
 50
14.5048802479
 51
68.732920619
  0
ARC
  5
22D
330
1F
100
AcDbEntity
  8
0
  6
Continuous
 62
     7
370
    15
100
AcDbCircle
 10
57.929788009
 20
48.3588976637
 30
0.0
 40
8.542393645356714
100
AcDbArc
 50
306.0327442271
 51
316.7621735383
  0
ARC
  5
22E
330
1F
100
AcDbEntity
  8
0
  6
Continuous
 62
     7
370
    15
100
AcDbCircle
 10
62.3634444041
 20
40.2221438826
 30
0.0
 40
1.358355280301428
100
AcDbArc
 50
72.2445149452
 51
134.984214239
  0
ARC
  5
22F
330
1F
100
AcDbEntity
  8
0
  6
Continuous
 62
     7
370
    15
100
AcDbCircle
 10
34.9718257944
 20
-11.7350758774
 30
0.0
 40
1.111363380784963
100
AcDbArc
 50
167.9067235326
 51
245.2312080606
  0
ARC
  5
230
330
1F
100
AcDbEntity
  8
0
  6
Continuous
 62
     7
370
    15
100
AcDbCircle
 10
68.0043115206
 20
45.746276953
 30
0.0
 40
1.359080632611251
100
AcDbArc
 50
72.2648992919
 51
135.004523752
  0
ARC
  5
231
330
1F
100
AcDbEntity
  8
0
  6
Continuous
 62
     7
370
    15
100
AcDbCircle
 10
66.6498491445
 20
47.5289347102
 30
0.0
 40
1.645599206458498
100
AcDbArc
 50
198.4733990192
 51
249.1022021608
  0
ARC
  5
232
330
1F
100
AcDbEntity
  8
0
  6
Continuous
 62
     7
370
    15
100
AcDbCircle
 10
63.7653321713
 20
44.401947186
 30
0.0
 40
1.645599206458397
100
AcDbArc
 50
198.4733990192
 51
249.1022021608
  0
ARC
  5
233
330
1F
100
AcDbEntity
  8
0
  6
Continuous
 62
     7
370
    15
100
AcDbCircle
 10
64.3969919628
 20
41.7686901216
 30
0.0
 40
1.638938447568692
100
AcDbArc
 50
138.0355311487
 51
188.8764068585
  0
ARC
  5
234
330
1F
100
AcDbEntity
  8
0
  6
Continuous
 62
     7
370
    15
100
AcDbCircle
 10
32.8200059755
 20
-18.1869806139
 30
0.0
 40
0.3154830334351766
100
AcDbArc
 50
33.9789010765
 51
68.9199937903
  0
ARC
  5
235
330
1F
100
AcDbEntity
  8
0
  6
Continuous
 62
     7
370
    15
100
AcDbCircle
 10
30.4902754498
 20
-12.182300153
 30
0.0
 40
7.111608058997453
100
AcDbArc
 50
292.7505902802
 51
304.1071970922
  0
ARC
  5
236
330
1F
100
AcDbEntity
  8
0
  6
Continuous
 62
     7
370
    15
100
AcDbCircle
 10
35.4301990316
 20
-13.4633071576
 30
0.0
 40
1.812159674299844
100
AcDbArc
 50
146.0148808944
 51
169.5494160389
  0
ARC
  5
237
330
1F
100
AcDbEntity
  8
0
  6
Continuous
 62
     7
370
    15
100
AcDbCircle
 10
24.2541524294
 20
6.9790020691
 30
0.0
 40
1.836760009653374
100
AcDbArc
 50
339.8613932338
 51
349.368446672
  0
ARC
  5
238
330
1F
100
AcDbEntity
  8
0
  6
Continuous
 62
     7
370
    15
100
AcDbCircle
 10
66.8092579194
 20
60.0288325868
 30
0.0
 40
1.111363380784947
100
AcDbArc
 50
167.9067235326
 51
245.2312080606
  0
ARC
  5
239
330
1F
100
AcDbEntity
  8
0
  6
Continuous
 62
     7
370
    15
100
AcDbCircle
 10
58.5293066471
 20
61.5526217173
 30
0.0
 40
4.062516840353819
100
AcDbArc
 50
307.7792494969
 51
10.9440562137
  0
ARC
  5
23A
330
1F
100
AcDbEntity
  8
0
  6
Continuous
 62
     7
370
    15
100
AcDbCircle
 10
65.5898733022
 20
65.6268366498
 30
0.0
 40
1.111363380784916
100
AcDbArc
 50
347.9067235327
 51
65.2312080606
  0
ARC
  5
23B
330
1F
100
AcDbEntity
  8
0
  6
Continuous
 62
     7
370
    15
100
AcDbCircle
 10
57.3756491421
 20
61.3247029818
 30
0.0
 40
4.062516840353809
100
AcDbArc
 50
307.7792494969
 51
10.9440562137
  0
ARC
  5
23C
330
1F
100
AcDbEntity
  8
0
  6
Continuous
 62
     7
370
    15
100
AcDbCircle
 10
27.43095976
 20
55.6635573756
 30
0.0
 40
2.207145219029476
100
AcDbArc
 50
316.782489738
 51
65.568606443
  0
ARC
  5
23D
330
1F
100
AcDbEntity
  8
0
  6
Continuous
 62
     7
370
    15
100
AcDbCircle
 10
36.1068318374
 20
64.1827511055
 30
0.0
 40
0.3070488634353922
100
AcDbArc
 50
248.9836029199
 51
282.2475818058
  0
ARC
  5
23E
330
1F
100
AcDbEntity
  8
0
  6
Continuous
 62
     7
370
    15
100
AcDbCircle
 10
59.0347485016
 20
69.8848998068
 30
0.0
 40
1.302571818728768
100
AcDbArc
 50
114.3207211737
 51
174.4480596812
  0
ARC
  5
23F
330
1F
100
AcDbEntity
  8
0
  6
Continuous
 62
     7
370
    15
100
AcDbCircle
 10
0.8755322618
 20
1.2126191754
 30
0.0
 40
0.6811532222167587
100
AcDbArc
 50
249.292469036
 51
280.9552375803
  0
ARC
  5
240
330
1F
100
AcDbEntity
  8
0
  6
Continuous
 62
     7
370
    15
100
AcDbCircle
 10
39.9403425895
 20
10.161133555
 30
0.0
 40
3.008921667325029
100
AcDbArc
 50
125.1612624928
 51
194.55738792
  0
ARC
  5
241
330
1F
100
AcDbEntity
  8
0
  6
Continuous
 62
     7
370
    15
100
AcDbCircle
 10
24.6496273552
 20
40.9825553475
 30
0.0
 40
2.721457953015122
100
AcDbArc
 50
311.8770940708
 51
67.1265525121
  0
ARC
  5
242
330
1F
100
AcDbEntity
  8
0
  6
Continuous
 62
     7
370
    15
100
AcDbCircle
 10
67.2875069492
 20
-3.5942304868
 30
0.0
 40
0.5289952255823575
100
AcDbArc
 50
12.1645637387
 51
76.9420590582
  0
ARC
  5
243
330
1F
100
AcDbEntity
  8
0
  6
Continuous
 62
     7
370
    15
100
AcDbCircle
 10
41.2567201217
 20
-9.5402326738
 30
0.0
 40
0.8111657801031488
100
AcDbArc
 50
104.3880632014
 51
173.118015278
  0
ARC
  5
244
330
1F
100
AcDbEntity
  8
0
  6
Continuous
 62
     7
370
    15
100
AcDbCircle
 10
34.8374827812
 20
-10.808429215
 30
0.0
 40
0.8111657801031481
100
AcDbArc
 50
104.3880632014
 51
173.118015278
  0
ARC
  5
245
330
1F
100
AcDbEntity
  8
0
  6
Continuous
 62
     7
370
    15
100
AcDbCircle
 10
33.8824476404
 20
-11.7094919961
 30
0.0
 40
0.207268298844715
100
AcDbArc
 50
89.2595980244
 51
151.9420390827
  0
ARC
  5
246
330
1F
100
AcDbEntity
  8
0
  6
Continuous
 62
     7
370
    15
100
AcDbCircle
 10
34.029483056
 20
-10.9184825248
 30
0.0
 40
0.2072682988447201
100
AcDbArc
 50
89.2595980244
 51
151.9420390827
  0
MTEXT
  5
248
330
1F
100
AcDbEntity
  8
0
  6
Continuous
 62
     7
100
AcDbMText
 10
-4.9483263244
 20
-96.5079941138
 30
0.0
 40
4.83362
 41
0.0
 71
     1
 72
     1
  1
SolidWorks Educational Edition.
  7
SLDTEXTSTYLE0
 73
     1
 44
1.0
  0
MTEXT
  5
249
330
1F
100
AcDbEntity
  8
0
  6
Continuous
 62
     7
100
AcDbMText
 10
-4.9483263244
 20
-103.7584241138
 30
0.0
 40
4.83362
 41
0.0
 71
     1
 72
     1
  1
For Instructional Use Only.
  7
SLDTEXTSTYLE0
 73
     1
 44
1.0
  0
ENDSEC
  0
SECTION
  2
OBJECTS
  0
DICTIONARY
  5
C
330
0
100
AcDbDictionary
281
     1
  3
ACAD_GROUP
350
D
  3
ACAD_LAYOUT
350
1A
  3
ACAD_MLINESTYLE
350
17
  3
ACAD_PLOTSETTINGS
350
19
  3
ACAD_PLOTSTYLENAME
350
E
  0
DICTIONARY
  5
D
102
{ACAD_REACTORS
330
C
102
}
330
C
100
AcDbDictionary
281
     1
  0
DICTIONARY
  5
1A
102
{ACAD_REACTORS
330
C
102
}
330
C
100
AcDbDictionary
281
     1
  3
Layout1
350
1E
  3
Layout2
350
26
  3
Model
350
22
  0
DICTIONARY
  5
17
102
{ACAD_REACTORS
330
C
102
}
330
C
100
AcDbDictionary
281
     1
  3
Standard
350
18
  0
DICTIONARY
  5
19
102
{ACAD_REACTORS
330
C
102
}
330
C
100
AcDbDictionary
281
     1
  0
ACDBDICTIONARYWDFLT
  5
E
102
{ACAD_REACTORS
330
C
102
}
330
C
100
AcDbDictionary
281
     1
  3
Normal
350
F
100
AcDbDictionaryWithDefault
340
F
  0
LAYOUT
  5
1E
102
{ACAD_REACTORS
330
1A
102
}
330
1A
100
AcDbPlotSettings
  1

  2
none_device
  4

  6

 40
0.0
 41
0.0
 42
0.0
 43
0.0
 44
0.0
 45
0.0
 46
0.0
 47
0.0
 48
0.0
 49
0.0
140
0.0
141
0.0
142
1.0
143
1.0
 70
   688
 72
     0
 73
     0
 74
     5
  7

 75
    16
147
1.0
148
0.0
149
0.0
100
AcDbLayout
  1
Layout1
 70
     1
 71
     1
 10
0.0
 20
0.0
 11
420.0
 21
297.0
 12
0.0
 22
0.0
 32
0.0
 14
1.0000000000E+20
 24
1.0000000000E+20
 34
1.0000000000E+20
 15
-1.0000000000E+20
 25
-1.0000000000E+20
 35
-1.0000000000E+20
146
0.0
 13
0.0
 23
0.0
 33
0.0
 16
1.0
 26
0.0
 36
0.0
 17
0.0
 27
1.0
 37
0.0
 76
     0
330
1B
  0
LAYOUT
  5
26
102
{ACAD_REACTORS
330
1A
102
}
330
1A
100
AcDbPlotSettings
  1

  2
none_device
  4

  6

 40
0.0
 41
0.0
 42
0.0
 43
0.0
 44
0.0
 45
0.0
 46
0.0
 47
0.0
 48
0.0
 49
0.0
140
0.0
141
0.0
142
1.0
143
1.0
 70
   688
 72
     0
 73
     0
 74
     5
  7

 75
    16
147
1.0
148
0.0
149
0.0
100
AcDbLayout
  1
Layout2
 70
     1
 71
     2
 10
0.0
 20
0.0
 11
0.0
 21
0.0
 12
0.0
 22
0.0
 32
0.0
 14
0.0
 24
0.0
 34
0.0
 15
0.0
 25
0.0
 35
0.0
146
0.0
 13
0.0
 23
0.0
 33
0.0
 16
1.0
 26
0.0
 36
0.0
 17
0.0
 27
1.0
 37
0.0
 76
     0
330
23
  0
LAYOUT
  5
22
102
{ACAD_REACTORS
330
1A
102
}
330
1A
100
AcDbPlotSettings
  1

  2
none_device
  4
ANSI_A_(11.00_x_8.50_Inches)
  6

 40
6.35
 41
19.05
 42
6.35000508
 43
19.05000254
 44
279.4
 45
215.9
 46
88.485101175
 47
104.2081023384
 48
0.0
 49
0.0
140
0.0
141
0.0
142
0.0503744942
143
1.0
 70
  1696
 72
     0
 73
     0
 74
     0
  7

 75
     0
147
0.0179189148
148
0.0
149
0.0
100
AcDbLayout
  1
Model
 70
     1
 71
     0
 10
0.0
 20
0.0
 11
420.0
 21
297.0
 12
0.0
 22
0.0
 32
0.0
 14
-4.9483263244
 24
-95.4884277221
 34
0.0
 15
75.0764548125
 25
71.5603961061
 35
0.0
146
0.0
 13
0.0
 23
0.0
 33
0.0
 16
1.0
 26
0.0
 36
0.0
 17
0.0
 27
1.0
 37
0.0
 76
     0
330
1F
331
29
  0
MLINESTYLE
  5
18
102
{ACAD_REACTORS
330
17
102
}
330
17
100
AcDbMlineStyle
  2
Standard
 70
     0
  3

 62
   256
 51
90.0
 52
90.0
 71
     2
 49
0.5
 62
   256
  6
BYLAYER
 49
-0.5
 62
   256
  6
BYLAYER
  0
ACDBPLACEHOLDER
  5
F
102
{ACAD_REACTORS
330
E
102
}
330
E
  0
ENDSEC
  0
EOF
