  0
SECTION
  2
HEADER
  9
$ACADVER
  1
AC1015
  9
$ACADMAINTVER
 70
     6
  9
$DWGCODEPAGE
  3
ANSI_1252
  9
$INSBASE
 10
0.0
 20
0.0
 30
0.0
  9
$EXTMIN
 10
-102.6034754011
 20
-186.0790691014
 30
0.0
  9
$EXTMAX
 10
166.3674485113
 20
111.5734197424
 30
0.0
  9
$LIMMIN
 10
0.0
 20
0.0
  9
$LIMMAX
 10
420.0
 20
297.0
  9
$ORTHOMODE
 70
     0
  9
$REGENMODE
 70
     1
  9
$FILLMODE
 70
     1
  9
$QTEXTMODE
 70
     0
  9
$MIRRTEXT
 70
     1
  9
$LTSCALE
 40
1.0
  9
$ATTMODE
 70
     1
  9
$TEXTSIZE
 40
2.5
  9
$TRACEWID
 40
1.0
  9
$TEXTSTYLE
  7
Standard
  9
$CLAYER
  8
0
  9
$CELTYPE
  6
ByLayer
  9
$CECOLOR
 62
   256
  9
$CELTSCALE
 40
1.0
  9
$DISPSILH
 70
     0
  9
$DIMSCALE
 40
1.0
  9
$DIMASZ
 40
6.0
  9
$DIMEXO
 40
1.0
  9
$DIMDLI
 40
3.75
  9
$DIMRND
 40
0.0
  9
$DIMDLE
 40
0.0
  9
$DIMEXE
 40
1.0
  9
$DIMTP
 40
0.0
  9
$DIMTM
 40
0.0
  9
$DIMTXT
 40
2.5
  9
$DIMCEN
 40
2.5
  9
$DIMTSZ
 40
0.0
  9
$DIMTOL
 70
     0
  9
$DIMLIM
 70
     0
  9
$DIMTIH
 70
     1
  9
$DIMTOH
 70
     1
  9
$DIMSE1
 70
     0
  9
$DIMSE2
 70
     0
  9
$DIMTAD
 70
     1
  9
$DIMZIN
 70
     0
  9
$DIMBLK
  1

  9
$DIMASO
 70
     1
  9
$DIMSHO
 70
     1
  9
$DIMPOST
  1

  9
$DIMAPOST
  1

  9
$DIMALT
 70
     0
  9
$DIMALTD
 70
     3
  9
$DIMALTF
 40
0.0393700787
  9
$DIMLFAC
 40
1.0
  9
$DIMTOFL
 70
     1
  9
$DIMTVP
 40
0.0
  9
$DIMTIX
 70
     0
  9
$DIMSOXD
 70
     0
  9
$DIMSAH
 70
     0
  9
$DIMBLK1
  1

  9
$DIMBLK2
  1

  9
$DIMSTYLE
  2
ISO-25
  9
$DIMCLRD
 70
     0
  9
$DIMCLRE
 70
     0
  9
$DIMCLRT
 70
     0
  9
$DIMTFAC
 40
1.0
  9
$DIMGAP
 40
1.524
  9
$DIMJUST
 70
     0
  9
$DIMSD1
 70
     0
  9
$DIMSD2
 70
     0
  9
$DIMTOLJ
 70
     0
  9
$DIMTZIN
 70
     0
  9
$DIMALTZ
 70
     0
  9
$DIMALTTZ
 70
     0
  9
$DIMUPT
 70
     0
  9
$DIMDEC
 70
     2
  9
$DIMTDEC
 70
     2
  9
$DIMALTU
 70
     2
  9
$DIMALTTD
 70
     3
  9
$DIMTXSTY
  7
Standard
  9
$DIMAUNIT
 70
     0
  9
$DIMADEC
 70
     2
  9
$DIMALTRND
 40
0.0
  9
$DIMAZIN
 70
     0
  9
$DIMDSEP
 70
    44
  9
$DIMATFIT
 70
     3
  9
$DIMFRAC
 70
     0
  9
$DIMLDRBLK
  1

  9
$DIMLUNIT
 70
     2
  9
$DIMLWD
 70
    -2
  9
$DIMLWE
 70
    -2
  9
$DIMTMOVE
 70
     0
  9
$LUNITS
 70
     2
  9
$LUPREC
 70
     2
  9
$SKETCHINC
 40
1.0
  9
$FILLETRAD
 40
10.0
  9
$AUNITS
 70
     0
  9
$AUPREC
 70
     2
  9
$MENU
  1
.
  9
$ELEVATION
 40
0.0
  9
$PELEVATION
 40
0.0
  9
$THICKNESS
 40
0.0
  9
$LIMCHECK
 70
     0
  9
$CHAMFERA
 40
10.0
  9
$CHAMFERB
 40
10.0
  9
$CHAMFERC
 40
20.0
  9
$CHAMFERD
 40
0.0
  9
$SKPOLY
 70
     0
  9
$TDCREATE
 40
2456493.768482246
  9
$TDUCREATE
 40
2456493.268482246
  9
$TDUPDATE
 40
2456493.768519248
  9
$TDUUPDATE
 40
2456493.268519248
  9
$TDINDWG
 40
0.0000000116
  9
$TDUSRTIMER
 40
0.0000000116
  9
$USRTIMER
 70
     1
  9
$ANGBASE
 50
0.0
  9
$ANGDIR
 70
     0
  9
$PDMODE
 70
     0
  9
$PDSIZE
 40
-1.0
  9
$PLINEWID
 40
0.0
  9
$SPLFRAME
 70
     0
  9
$SPLINETYPE
 70
     6
  9
$SPLINESEGS
 70
     8
  9
$HANDSEED
  5
43E
  9
$SURFTAB1
 70
     6
  9
$SURFTAB2
 70
     6
  9
$SURFTYPE
 70
     6
  9
$SURFU
 70
     6
  9
$SURFV
 70
     6
  9
$UCSBASE
  2

  9
$UCSNAME
  2

  9
$UCSORG
 10
0.0
 20
0.0
 30
0.0
  9
$UCSXDIR
 10
1.0
 20
0.0
 30
0.0
  9
$UCSYDIR
 10
0.0
 20
1.0
 30
0.0
  9
$UCSORTHOREF
  2

  9
$UCSORTHOVIEW
 70
     0
  9
$UCSORGTOP
 10
0.0
 20
0.0
 30
0.0
  9
$UCSORGBOTTOM
 10
0.0
 20
0.0
 30
0.0
  9
$UCSORGLEFT
 10
0.0
 20
0.0
 30
0.0
  9
$UCSORGRIGHT
 10
0.0
 20
0.0
 30
0.0
  9
$UCSORGFRONT
 10
0.0
 20
0.0
 30
0.0
  9
$UCSORGBACK
 10
0.0
 20
0.0
 30
0.0
  9
$PUCSBASE
  2

  9
$PUCSNAME
  2

  9
$PUCSORG
 10
0.0
 20
0.0
 30
0.0
  9
$PUCSXDIR
 10
1.0
 20
0.0
 30
0.0
  9
$PUCSYDIR
 10
0.0
 20
1.0
 30
0.0
  9
$PUCSORTHOREF
  2

  9
$PUCSORTHOVIEW
 70
     0
  9
$PUCSORGTOP
 10
0.0
 20
0.0
 30
0.0
  9
$PUCSORGBOTTOM
 10
0.0
 20
0.0
 30
0.0
  9
$PUCSORGLEFT
 10
0.0
 20
0.0
 30
0.0
  9
$PUCSORGRIGHT
 10
0.0
 20
0.0
 30
0.0
  9
$PUCSORGFRONT
 10
0.0
 20
0.0
 30
0.0
  9
$PUCSORGBACK
 10
0.0
 20
0.0
 30
0.0
  9
$USERI1
 70
     0
  9
$USERI2
 70
     0
  9
$USERI3
 70
     0
  9
$USERI4
 70
     0
  9
$USERI5
 70
     0
  9
$USERR1
 40
0.0
  9
$USERR2
 40
0.0
  9
$USERR3
 40
0.0
  9
$USERR4
 40
0.0
  9
$USERR5
 40
0.0
  9
$WORLDVIEW
 70
     1
  9
$SHADEDGE
 70
     3
  9
$SHADEDIF
 70
    70
  9
$TILEMODE
 70
     1
  9
$MAXACTVP
 70
    64
  9
$PINSBASE
 10
0.0
 20
0.0
 30
0.0
  9
$PLIMCHECK
 70
     0
  9
$PEXTMIN
 10
1.0000000000E+20
 20
1.0000000000E+20
 30
1.0000000000E+20
  9
$PEXTMAX
 10
-1.0000000000E+20
 20
-1.0000000000E+20
 30
-1.0000000000E+20
  9
$PLIMMIN
 10
0.0
 20
0.0
  9
$PLIMMAX
 10
420.0
 20
297.0
  9
$UNITMODE
 70
     0
  9
$VISRETAIN
 70
     1
  9
$PLINEGEN
 70
     0
  9
$PSLTSCALE
 70
     1
  9
$TREEDEPTH
 70
  3020
  9
$CMLSTYLE
  2
Standard
  9
$CMLJUST
 70
     0
  9
$CMLSCALE
 40
20.0
  9
$PROXYGRAPHICS
 70
     1
  9
$MEASUREMENT
 70
     1
  9
$CELWEIGHT
370
    -1
  9
$ENDCAPS
280
     0
  9
$JOINSTYLE
280
     0
  9
$LWDISPLAY
290
     1
  9
$INSUNITS
 70
     4
  9
$HYPERLINKBASE
  1

  9
$STYLESHEET
  1

  9
$XEDIT
290
     1
  9
$CEPSNTYPE
380
     0
  9
$PSTYLEMODE
290
     1
  9
$FINGERPRINTGUID
  2
{2BCDF4A0-7D89-4D41-A1E0-E62B3C71147F}
  9
$VERSIONGUID
  2
{FAEB1C32-E019-11D5-929B-00C0DF256EC4}
  9
$EXTNAMES
290
     1
  9
$PSVPSCALE
 40
0.0
  9
$OLESTARTUP
290
     0
  0
ENDSEC
  0
SECTION
  2
CLASSES
  0
CLASS
  1
ACDBDICTIONARYWDFLT
  2
AcDbDictionaryWithDefault
  3
ObjectDBX Classes
 90
        0
280
     0
281
     0
  0
CLASS
  1
VISUALSTYLE
  2
AcDbVisualStyle
  3
ObjectDBX Classes
 90
     4095
280
     0
281
     0
  0
CLASS
  1
MATERIAL
  2
AcDbMaterial
  3
ObjectDBX Classes
 90
     1153
280
     0
281
     0
  0
CLASS
  1
ACDBPLACEHOLDER
  2
AcDbPlaceHolder
  3
ObjectDBX Classes
 90
        0
280
     0
281
     0
  0
CLASS
  1
LAYOUT
  2
AcDbLayout
  3
ObjectDBX Classes
 90
        0
280
     0
281
     0
  0
ENDSEC
  0
SECTION
  2
TABLES
  0
TABLE
  2
VPORT
  5
8
330
0
100
AcDbSymbolTable
 70
     1
  0
VPORT
  5
29
330
8
100
AcDbSymbolTableRecord
100
AcDbViewportTableRecord
  2
*Active
 70
     0
 10
0.0
 20
0.0
 11
1.0
 21
1.0
 12
31.8819865551
 22
-37.2528246795
 13
0.0
 23
0.0
 14
10.0
 24
10.0
 15
10.0
 25
10.0
 16
0.0
 26
0.0
 36
1.0
 17
0.0
 27
0.0
 37
0.0
 40
303.6055386207
 41
0.903640769
 42
50.0
 43
0.0
 44
0.0
 50
0.0
 51
0.0
 71
     0
 72
   100
 73
     1
 74
     3
 75
     0
 76
     0
 77
     0
 78
     0
281
     0
 65
     1
110
0.0
120
0.0
130
0.0
111
1.0
121
0.0
131
0.0
112
0.0
122
1.0
132
0.0
 79
     0
146
0.0
  0
ENDTAB
  0
TABLE
  2
LTYPE
  5
5
330
0
100
AcDbSymbolTable
 70
     6
  0
LTYPE
  5
14
330
5
100
AcDbSymbolTableRecord
100
AcDbLinetypeTableRecord
  2
ByBlock
 70
     0
  3

 72
    65
 73
     0
 40
0.0
  0
LTYPE
  5
15
330
5
100
AcDbSymbolTableRecord
100
AcDbLinetypeTableRecord
  2
ByLayer
 70
     0
  3

 72
    65
 73
     0
 40
0.0
  0
LTYPE
  5
16
330
5
100
AcDbSymbolTableRecord
100
AcDbLinetypeTableRecord
  2
Continuous
 70
     0
  3
Solid line
 72
    65
 73
     0
 40
0.0
  0
LTYPE
  5
3F
330
5
100
AcDbSymbolTableRecord
100
AcDbLinetypeTableRecord
  2
HIDDEN
 70
     0
  3
Hidden __ __ __ __ __ __ __ __ __ __ __ __ __ __
 72
    65
 73
     2
 40
1.905
 49
1.27
 74
     0
 49
-0.635
 74
     0
  0
LTYPE
  5
40
330
5
100
AcDbSymbolTableRecord
100
AcDbLinetypeTableRecord
  2
PHANTOM
 70
     0
  3
Phantom ______  __  __  ______  __  __  ______
 72
    65
 73
     6
 40
12.7
 49
6.35
 74
     0
 49
-1.27
 74
     0
 49
1.27
 74
     0
 49
-1.27
 74
     0
 49
1.27
 74
     0
 49
-1.27
 74
     0
  0
LTYPE
  5
41
330
5
100
AcDbSymbolTableRecord
100
AcDbLinetypeTableRecord
  2
CENTER
 70
     0
  3
Center ____ _ ____ _ ____ _ ____ _ ____ _ ____
 72
    65
 73
     4
 40
10.16
 49
6.35
 74
     0
 49
-1.27
 74
     0
 49
1.27
 74
     0
 49
-1.27
 74
     0
  0
LTYPE
  5
42
330
5
100
AcDbSymbolTableRecord
100
AcDbLinetypeTableRecord
  2
CENTERX2
 70
     0
  3
Center (2x) ________  __  ________  __  _____
 72
    65
 73
     4
 40
20.32
 49
12.7
 74
     0
 49
-2.54
 74
     0
 49
2.54
 74
     0
 49
-2.54
 74
     0
  0
LTYPE
  5
43
330
5
100
AcDbSymbolTableRecord
100
AcDbLinetypeTableRecord
  2
DOT2
 70
     0
  3
Dot (.5x) ........................................
 72
    65
 73
     2
 40
0.635
 49
0.0
 74
     0
 49
-0.635
 74
     0
  0
ENDTAB
  0
TABLE
  2
LAYER
  5
2
330
0
100
AcDbSymbolTable
 70
     1
  0
LAYER
  5
10
330
2
100
AcDbSymbolTableRecord
100
AcDbLayerTableRecord
  2
0
 70
     0
 62
     7
  6
Continuous
370
    -3
390
F
  0
ENDTAB
  0
TABLE
  2
STYLE
  5
3
330
0
100
AcDbSymbolTable
 70
     2
  0
STYLE
  5
11
330
3
100
AcDbSymbolTableRecord
100
AcDbTextStyleTableRecord
  2
Standard
 70
     0
 40
0.0
 41
1.0
 50
0.0
 71
     0
 42
2.5
  3
txt
  4

  0
STYLE
  5
43B
330
3
100
AcDbSymbolTableRecord
100
AcDbTextStyleTableRecord
  2
SLDTEXTSTYLE0
 70
     0
 40
0.0
 41
0.7
 50
0.0
 71
     0
 42
0.2
  3
TXT
  4

  0
ENDTAB
  0
TABLE
  2
VIEW
  5
6
330
0
100
AcDbSymbolTable
 70
     0
  0
ENDTAB
  0
TABLE
  2
UCS
  5
7
330
0
100
AcDbSymbolTable
 70
     0
  0
ENDTAB
  0
TABLE
  2
APPID
  5
9
330
0
100
AcDbSymbolTable
 70
     1
  0
APPID
  5
12
330
9
100
AcDbSymbolTableRecord
100
AcDbRegAppTableRecord
  2
ACAD
 70
     0
  0
ENDTAB
  0
TABLE
  2
DIMSTYLE
  5
A
330
0
100
AcDbSymbolTable
 70
     1
100
AcDbDimStyleTable
  0
DIMSTYLE
105
27
330
A
100
AcDbSymbolTableRecord
100
AcDbDimStyleTableRecord
  2
ISO-25
 70
     0
 41
2.5
 42
0.625
 43
3.75
 44
1.25
 73
     0
 74
     0
 77
     1
 78
     8
140
2.5
141
2.5
143
0.0393700787
147
0.625
171
     3
172
     1
178
     0
271
     2
272
     2
274
     3
278
    44
283
     0
284
     8
340
11
  0
ENDTAB
  0
TABLE
  2
BLOCK_RECORD
  5
1
330
0
100
AcDbSymbolTable
 70
     1
  0
BLOCK_RECORD
  5
1F
330
1
100
AcDbSymbolTableRecord
100
AcDbBlockTableRecord
  2
*Model_Space
340
22
  0
BLOCK_RECORD
  5
1B
330
1
100
AcDbSymbolTableRecord
100
AcDbBlockTableRecord
  2
*Paper_Space
340
1E
  0
BLOCK_RECORD
  5
23
330
1
100
AcDbSymbolTableRecord
100
AcDbBlockTableRecord
  2
*Paper_Space0
340
26
  0
ENDTAB
  0
ENDSEC
  0
SECTION
  2
BLOCKS
  0
BLOCK
  5
20
330
1F
100
AcDbEntity
  8
0
100
AcDbBlockBegin
  2
*Model_Space
 70
     0
 10
0.0
 20
0.0
 30
0.0
  3
*Model_Space
  1

  0
ENDBLK
  5
21
330
1F
100
AcDbEntity
  8
0
100
AcDbBlockEnd
  0
BLOCK
  5
1C
330
1B
100
AcDbEntity
 67
     1
  8
0
100
AcDbBlockBegin
  2
*Paper_Space
 70
     0
 10
0.0
 20
0.0
 30
0.0
  3
*Paper_Space
  1

  0
ENDBLK
  5
1D
330
1B
100
AcDbEntity
 67
     1
  8
0
100
AcDbBlockEnd
  0
BLOCK
  5
24
330
23
100
AcDbEntity
  8
0
100
AcDbBlockBegin
  2
*Paper_Space0
 70
     0
 10
0.0
 20
0.0
 30
0.0
  3
*Paper_Space0
  1

  0
ENDBLK
  5
25
330
23
100
AcDbEntity
  8
0
100
AcDbBlockEnd
  0
ENDSEC
  0
SECTION
  2
ENTITIES
  0
SPLINE
  5
44
330
1F
100
AcDbEntity
  8
0
  6
Continuous
 62
     7
370
    15
100
AcDbSpline
210
0.0
220
0.0
230
1.0
 70
     8
 71
     3
 72
    26
 73
    22
 74
     0
 42
0.00000001
 43
0.00000001
 12
1.0
 22
0.0
 32
0.0
 13
1.0
 23
0.0
 33
0.0
 40
0.0
 40
0.0
 40
0.0
 40
0.0
 40
0.0277200526732512
 40
0.0951041193335064
 40
0.1562164743629462
 40
0.220748844543558
 40
0.2828018448492278
 40
0.3428942508658989
 40
0.4014521447797907
 40
0.4588470371883591
 40
0.5147410708972605
 40
0.5694243170060833
 40
0.6238627941324143
 40
0.677965229060502
 40
0.7316564647409199
 40
0.7848818550453996
 40
0.8315075740655845
 40
0.8805573666370663
 40
0.9324910680823416
 40
0.9903709288705065
 40
1.0
 40
1.0
 40
1.0
 40
1.0
 10
11.2257134804787
 20
-141.1321641161835
 30
0.0
 10
10.72437408014527
 20
-140.7017815051651
 30
0.0
 10
9.0043397527248
 20
-139.2251912663287
 30
0.0
 10
6.257169659268285
 20
-136.6914141999868
 30
0.0
 10
2.956250483092185
 20
-133.4409071921545
 30
0.0
 10
-0.12034311233039
 20
-130.1170863817698
 30
0.0
 10
-3.037541337908284
 20
-126.6532992863936
 30
0.0
 10
-5.71097861236103
 20
-123.1477281019692
 30
0.0
 10
-8.159291389005475
 20
-119.5887671101151
 30
0.0
 10
-10.38976970425622
 20
-115.9816392321717
 30
0.0
 10
-12.39972095556519
 20
-112.3283226337319
 30
0.0
 10
-14.2034178242722
 20
-108.6248520800002
 30
0.0
 10
-15.81465574061713
 20
-104.8588238851711
 30
0.0
 10
-17.23888715523208
 20
-101.0228819855434
 30
0.0
 10
-18.4696949535553
 20
-97.13274400867482
 30
0.0
 10
-19.46899654734734
 20
-93.35522961714004
 30
0.0
 10
-20.2574302975127
 20
-89.63406894213017
 30
0.0
 10
-20.8599435865588
 20
-85.8984369376686
 30
0.0
 10
-21.33751132586677
 20
-81.84503949747709
 30
0.0
 10
-21.61556874232924
 20
-78.78415172048427
 30
0.0
 10
-21.71982596128604
 20
-77.04843096527121
 30
0.0
 10
-21.73469658875091
 20
-76.80085811619591
 30
0.0
  0
SPLINE
  5
46
330
1F
100
AcDbEntity
  8
0
  6
Continuous
 62
     7
370
    15
100
AcDbSpline
210
0.0
220
0.0
230
1.0
 70
     8
 71
     3
 72
    20
 73
    16
 74
     0
 42
0.00000001
 43
0.00000001
 12
1.0
 22
0.0
 32
0.0
 13
1.0
 23
0.0
 33
0.0
 40
0.0
 40
0.0
 40
0.0
 40
0.0
 40
0.0692698201174651
 40
0.1481812188178541
 40
0.2269540648907616
 40
0.3055888122185226
 40
0.3840872952776417
 40
0.4624528361583411
 40
0.5406587487781293
 40
0.6188452582538384
 40
0.6976080047217469
 40
0.7767772864310758
 40
0.8474941531976597
 40
0.9217494936150915
 40
1.0
 40
1.0
 40
1.0
 40
1.0
 10
-71.85911572884807
 20
-100.0406836390675
 30
0.0
 10
-71.27710255180935
 20
-102.1815815088038
 30
0.0
 10
-70.03206652031105
 20
-106.7613661128942
 30
0.0
 10
-67.90037265676949
 20
-113.6905280038539
 30
0.0
 10
-65.51621993830254
 20
-120.8351618068425
 30
0.0
 10
-62.9511669097141
 20
-127.8831251046956
 30
0.0
 10
-60.21341088432978
 20
-134.8312086691118
 30
0.0
 10
-57.30412781445256
 20
-141.6728231814913
 30
0.0
 10
-54.22459089478919
 20
-148.4059307100392
 30
0.0
 10
-50.97089618283496
 20
-155.0472431591665
 30
0.0
 10
-47.53708227120313
 20
-161.6072465979891
 30
0.0
 10
-44.05451098744025
 20
-167.8505595755662
 30
0.0
 10
-40.49563928378545
 20
-173.8648937884983
 30
0.0
 10
-36.79641189743825
 20
-179.7338712575901
 30
0.0
 10
-34.18321077782758
 20
-183.6712638689139
 30
0.0
 10
-32.84238145762342
 20
-185.6915337282826
 30
0.0
  0
SPLINE
  5
53
330
1F
100
AcDbEntity
  8
0
  6
Continuous
 62
     7
370
    15
100
AcDbSpline
210
0.0
220
0.0
230
1.0
 70
     8
 71
     3
 72
     9
 73
     5
 74
     0
 42
0.00000001
 43
0.00000001
 12
1.0
 22
0.0
 32
0.0
 13
1.0
 23
0.0
 33
0.0
 40
0.0
 40
0.0
 40
0.0
 40
0.0
 40
0.3608310651989823
 40
1.0
 40
1.0
 40
1.0
 40
1.0
 10
-72.07887073938625
 20
-99.64306383934368
 30
0.0
 10
-72.04729059233591
 20
-99.68244859663427
 30
0.0
 10
-71.95977000418229
 20
-99.79159872557037
 30
0.0
 10
-71.90570321301557
 20
-99.94616783044567
 30
0.0
 10
-71.87114539969738
 20
-100.0449636005619
 30
0.0
  0
SPLINE
  5
57
330
1F
100
AcDbEntity
  8
0
  6
Continuous
 62
     7
370
    15
100
AcDbSpline
210
0.0
220
0.0
230
1.0
 70
     8
 71
     3
 72
    13
 73
     9
 74
     0
 42
0.00000001
 43
0.00000001
 12
1.0
 22
0.0
 32
0.0
 13
1.0
 23
0.0
 33
0.0
 40
0.0
 40
0.0
 40
0.0
 40
0.0
 40
0.1087454173657631
 40
0.3054386678715567
 40
0.5043676220416982
 40
0.7068602953076425
 40
0.9235067094517061
 40
1.0
 40
1.0
 40
1.0
 40
1.0
 10
-83.83074554434637
 20
-66.48765979790215
 30
0.0
 10
-83.82421612319644
 20
-66.54931378871358
 30
0.0
 10
-83.80587661293181
 20
-66.72248442227755
 30
0.0
 10
-83.8504781813905
 20
-67.01935124557338
 30
0.0
 10
-83.98877763075782
 20
-67.32785591399181
 30
0.0
 10
-84.1966590111164
 20
-67.56136731215076
 30
0.0
 10
-84.38056973619041
 20
-67.66554075616915
 30
0.0
 10
-84.48438330257265
 20
-67.69215771712258
 30
0.0
 10
-84.51147291605392
 20
-67.69910327548648
 30
0.0
  0
SPLINE
  5
59
330
1F
100
AcDbEntity
  8
0
  6
Continuous
 62
     7
370
    15
100
AcDbSpline
210
0.0
220
0.0
230
1.0
 70
     8
 71
     3
 72
    11
 73
     7
 74
     0
 42
0.00000001
 43
0.00000001
 12
1.0
 22
0.0
 32
0.0
 13
1.0
 23
0.0
 33
0.0
 40
0.0
 40
0.0
 40
0.0
 40
0.0
 40
0.3194084283996084
 40
0.6000144940925775
 40
0.8447826941160808
 40
1.0
 40
1.0
 40
1.0
 40
1.0
 10
-86.94486050818193
 20
-49.74807719470048
 30
0.0
 10
-86.85518487128772
 20
-49.76089235458871
 30
0.0
 10
-86.68672756985363
 20
-49.78496586359278
 30
0.0
 10
-86.4627731277069
 20
-49.99600508627395
 30
0.0
 10
-86.32076698674075
 20
-50.24878648329045
 30
0.0
 10
-86.28291169062963
 20
-50.42997171390404
 30
0.0
 10
-86.26822166564364
 20
-50.50028197001691
 30
0.0
  0
SPLINE
  5
5E
330
1F
100
AcDbEntity
  8
0
  6
Continuous
 62
     7
370
    15
100
AcDbSpline
210
0.0
220
0.0
230
1.0
 70
     8
 71
     3
 72
     9
 73
     5
 74
     0
 42
0.00000001
 43
0.00000001
 12
1.0
 22
0.0
 32
0.0
 13
1.0
 23
0.0
 33
0.0
 40
0.0
 40
0.0
 40
0.0
 40
0.0
 40
0.6873625644233397
 40
1.0
 40
1.0
 40
1.0
 40
1.0
 10
166.3423515232127
 20
28.38493922445663
 30
0.0
 10
165.1240815099387
 20
29.47519306989569
 30
0.0
 10
163.3516980891221
 20
31.06133392461874
 30
0.0
 10
161.5375287627703
 20
32.58899686276307
 30
0.0
 10
160.9703515168779
 20
33.06660148617004
 30
0.0
  0
SPLINE
  5
60
330
1F
100
AcDbEntity
  8
0
  6
Continuous
 62
     7
370
    15
100
AcDbSpline
210
0.0
220
0.0
230
1.0
 70
     8
 71
     3
 72
    10
 73
     6
 74
     0
 42
0.00000001
 43
0.00000001
 12
1.0
 22
0.0
 32
0.0
 13
1.0
 23
0.0
 33
0.0
 40
0.0
 40
0.0
 40
0.0
 40
0.0
 40
0.2697257316043789
 40
0.6965888976759603
 40
1.0
 40
1.0
 40
1.0
 40
1.0
 10
158.6803471517677
 20
34.99710324495883
 30
0.0
 10
157.6513811552661
 20
35.85900960207091
 30
0.0
 10
154.9939917953946
 20
38.0849536958336
 30
0.0
 10
151.0847554650685
 20
41.14029039864435
 30
0.0
 10
148.1728708095087
 20
43.27576903067995
 30
0.0
 10
146.9630539346449
 20
44.16300818694766
 30
0.0
  0
SPLINE
  5
61
330
1F
100
AcDbEntity
  8
0
  6
Continuous
 62
     7
370
    15
100
AcDbSpline
210
0.0
220
0.0
230
1.0
 70
     8
 71
     3
 72
     9
 73
     5
 74
     0
 42
0.00000001
 43
0.00000001
 12
1.0
 22
0.0
 32
0.0
 13
1.0
 23
0.0
 33
0.0
 40
0.0
 40
0.0
 40
0.0
 40
0.0
 40
0.6786414899373246
 40
1.0
 40
1.0
 40
1.0
 40
1.0
 10
160.546352337736
 20
33.48502783078099
 30
0.0
 10
160.506574142233
 20
33.51784574163199
 30
0.0
 10
160.4479596954406
 20
33.56620398576771
 30
0.0
 10
160.4041992633201
 20
33.60870321457359
 30
0.0
 10
160.3901364760541
 20
33.62236070342144
 30
0.0
  0
SPLINE
  5
63
330
1F
100
AcDbEntity
  8
0
  6
Continuous
 62
     7
370
    15
100
AcDbSpline
210
0.0
220
0.0
230
1.0
 70
     8
 71
     3
 72
    16
 73
    12
 74
     0
 42
0.00000001
 43
0.00000001
 12
1.0
 22
0.0
 32
0.0
 13
1.0
 23
0.0
 33
0.0
 40
0.0
 40
0.0
 40
0.0
 40
0.0
 40
0.0904613780695279
 40
0.2018151514624781
 40
0.316656744102297
 40
0.4336819258824197
 40
0.5535503319507367
 40
0.6769426868363395
 40
0.8046079213709495
 40
0.9373236606774237
 40
0.9999999999999999
 40
0.9999999999999999
 40
0.9999999999999999
 40
0.9999999999999999
 10
98.61424483563702
 20
9.955250130622554
 30
0.0
 10
99.45603810536196
 20
9.335091565453112
 30
0.0
 10
101.3340399648854
 20
7.951546483216679
 30
0.0
 10
104.1500797091935
 20
5.570375589409066
 30
0.0
 10
107.0999469052992
 20
2.847368424452094
 30
0.0
 10
109.9969843151962
 20
-0.107787825096281
 30
0.0
 10
112.8367107581764
 20
-3.285088877818643
 30
0.0
 10
115.6286053401257
 20
-6.699376117216965
 30
0.0
 10
118.3722195579746
 20
-10.37501876674096
 30
0.0
 10
120.5915175713054
 20
-13.55359274183945
 30
0.0
 10
121.8735596682547
 20
-15.52769208667376
 30
0.0
 10
122.2848030823072
 20
-16.16092819973138
 30
0.0
  0
SPLINE
  5
64
330
1F
100
AcDbEntity
  8
0
  6
Continuous
 62
     7
370
    15
100
AcDbSpline
210
0.0
220
0.0
230
1.0
 70
     8
 71
     3
 72
     9
 73
     5
 74
     0
 42
0.00000001
 43
0.00000001
 12
1.0
 22
0.0
 32
0.0
 13
1.0
 23
0.0
 33
0.0
 40
0.0
 40
0.0
 40
0.0
 40
0.0
 40
0.3618896825263567
 40
1.0
 40
1.0
 40
1.0
 40
1.0
 10
90.87188468404204
 20
74.34962658282967
 30
0.0
 10
90.83529084287778
 20
74.36479815650972
 30
0.0
 10
90.73417206848008
 20
74.40672135690085
 30
0.0
 10
90.63953285036628
 20
74.49857277155232
 30
0.0
 10
90.57914258885022
 20
74.55718410691597
 30
0.0
  0
SPLINE
  5
70
330
1F
100
AcDbEntity
  8
0
  6
Continuous
 62
     7
370
    15
100
AcDbSpline
210
0.0
220
0.0
230
1.0
 70
     8
 71
     3
 72
    12
 73
     8
 74
     0
 42
0.00000001
 43
0.00000001
 12
1.0
 22
0.0
 32
0.0
 13
1.0
 23
0.0
 33
0.0
 40
0.0
 40
0.0
 40
0.0
 40
0.0
 40
0.1083998220497738
 40
0.3041940691340031
 40
0.5078861854336376
 40
0.7296277187525946
 40
1.0
 40
1.0
 40
1.0
 40
1.0
 10
61.42499348178198
 20
91.84194231222243
 30
0.0
 10
61.41026628000655
 20
91.78121317686038
 30
0.0
 10
61.36893846829699
 20
91.61079368306925
 30
0.0
 10
61.23232768460105
 20
91.36157625375762
 30
0.0
 10
61.01524446061965
 20
91.14977947136843
 30
0.0
 10
60.7574173311301
 20
91.02843986101865
 30
0.0
 10
60.59025974726087
 20
91.04336610698086
 30
0.0
 10
60.49842168878583
 20
91.05156673669661
 30
0.0
  0
LWPOLYLINE
  5
75
330
1F
100
AcDbEntity
  8
0
  6
Continuous
 62
     7
370
    15
100
AcDbPolyline
 90
       19
 70
   128
 43
0.0
 10
-22.2129396
 20
-14.4570802028
 10
-22.5562463735
 20
-13.8878978266
 10
-22.7024867031
 20
-13.2172579798
 10
-22.634021847
 20
-12.5260497255
 10
-22.3591096771
 20
-11.8976429803
 10
-21.9109086585
 20
-11.4078328719
 10
-21.3434784487
 20
-11.1156977284
 10
-20.7252595054
 20
-11.0564733594
 10
-20.1308181571
 20
-11.2373030979
 10
-19.6318528034
 20
-11.6363762086
 10
-19.28854603
 20
-12.2055585848
 10
-19.1423057003
 20
-12.8761984316
 10
-19.2107705564
 20
-13.5674066859
 10
-19.4856827263
 20
-14.1958134311
 10
-19.933883745
 20
-14.6856235395
 10
-20.5013139548
 20
-14.977758683
 10
-21.1195328981
 20
-15.036983052
 10
-21.7139742464
 20
-14.8561533136
 10
-22.2129396
 20
-14.4570802028
  0
SPLINE
  5
8A
330
1F
100
AcDbEntity
  8
0
  6
Continuous
 62
     7
370
    15
100
AcDbSpline
210
0.0
220
0.0
230
1.0
 70
     8
 71
     3
 72
    33
 73
    29
 74
     0
 42
0.00000001
 43
0.00000001
 12
1.0
 22
0.0
 32
0.0
 13
1.0
 23
0.0
 33
0.0
 40
0.0
 40
0.0
 40
0.0
 40
0.0
 40
0.0312499999999999
 40
0.0312499999999999
 40
0.0624999999999998
 40
0.0624999999999998
 40
0.1249999999999997
 40
0.1874999999999995
 40
0.1874999999999995
 40
0.2187499999999994
 40
0.2187499999999994
 40
0.2499999999999993
 40
0.2499999999999993
 40
0.3749999999999997
 40
0.3749999999999997
 40
0.5
 40
0.5
 40
0.5624999999999999
 40
0.5624999999999999
 40
0.6249999999999999
 40
0.6249999999999999
 40
0.7500000000000002
 40
0.7500000000000002
 40
0.8125000000000001
 40
0.8125000000000001
 40
0.8750000000000001
 40
0.8750000000000001
 40
1.0
 40
1.0
 40
1.0
 40
1.0
 10
-26.00736108759515
 20
-75.34926228250477
 30
0.0
 10
-25.96622929178089
 20
-76.16449892835212
 30
0.0
 10
-25.92738018717064
 20
-76.98017813088481
 30
0.0
 10
-25.82419660123686
 20
-78.60659555934201
 30
0.0
 10
-25.76254322616705
 20
-79.41785358465704
 30
0.0
 10
-25.54692411353416
 20
-81.8456836503804
 30
0.0
 10
-25.17768350297632
 20
-85.06694142449476
 30
0.0
 10
-24.63967510454585
 20
-88.25547934904692
 30
0.0
 10
-24.17078775764703
 20
-90.63420704382303
 30
0.0
 10
-24.00359388406753
 20
-91.4250034083112
 30
0.0
 10
-23.64704543986289
 20
-93.00229973284519
 30
0.0
 10
-23.45751417218919
 20
-93.78939168754636
 30
0.0
 10
-22.45850873872925
 20
-97.69540252375117
 30
0.0
 10
-21.49228132393725
 20
-100.739318253975
 30
0.0
 10
-19.23269882376925
 20
-106.668714601658
 30
0.0
 10
-17.93866806823458
 20
-109.5554912553562
 30
0.0
 10
-15.7592219910155
 20
-113.7652221998776
 30
0.0
 10
-14.99523628732914
 20
-115.1439918787355
 30
0.0
 10
-13.39985377369068
 20
-117.846118553162
 30
0.0
 10
-12.56949168203038
 20
-119.1679159668277
 30
0.0
 10
-9.98563851970659
 20
-123.0502093630627
 30
0.0
 10
-8.13951008247535
 20
-125.5277225231606
 30
0.0
 10
-5.203321205862922
 20
-129.0944001682964
 30
0.0
 10
-4.196856794478809
 20
-130.25799790677
 30
0.0
 10
-2.141278791734647
 20
-132.5269493466613
 30
0.0
 10
-1.09094283281224
 20
-133.6338259999476
 30
0.0
 10
2.123230913625131
 20
-136.8771364791745
 30
0.0
 10
4.352203706716573
 20
-138.9381442959174
 30
0.0
 10
6.64957522996202
 20
-140.9039744499472
 30
0.0
  0
SPLINE
  5
8C
330
1F
100
AcDbEntity
  8
0
  6
Continuous
 62
     7
370
    15
100
AcDbSpline
210
0.0
220
0.0
230
1.0
 70
     8
 71
     3
 72
    18
 73
    14
 74
     0
 42
0.00000001
 43
0.00000001
 12
1.0
 22
0.0
 32
0.0
 13
1.0
 23
0.0
 33
0.0
 40
0.0
 40
0.0
 40
0.0
 40
0.0
 40
0.125
 40
0.125
 40
0.2500000000000001
 40
0.2500000000000001
 40
0.5000000000000001
 40
0.5000000000000001
 40
0.7499999999999999
 40
0.7499999999999999
 40
0.875
 40
0.875
 40
1.0
 40
1.0
 40
1.0
 40
1.0
 10
-33.03801137310468
 20
-184.2759889809853
 30
0.0
 10
-35.17046063827036
 20
-181.1086545611001
 30
0.0
 10
-37.24264836751215
 20
-177.8928590852578
 30
0.0
 10
-41.26325553611456
 20
-171.3617362857753
 30
0.0
 10
-43.21224589018802
 20
-168.0452040410632
 30
0.0
 10
-48.85546525346755
 20
-157.9665766339206
 30
0.0
 10
-52.3506709938696
 20
-151.0681531391868
 30
0.0
 10
-58.78829058141704
 20
-136.9034033992425
 30
0.0
 10
-61.71501250315606
 20
-129.6715869701702
 30
0.0
 10
-65.6656905297129
 20
-118.5990486555691
 30
0.0
 10
-66.90991361599971
 20
-114.8686708343197
 30
0.0
 10
-69.24624701630879
 20
-107.3513559905621
 30
0.0
 10
-70.3390329271584
 20
-103.5627910803716
 30
0.0
 10
-71.35722499035336
 20
-99.7446309026411
 30
0.0
  0
SPLINE
  5
94
330
1F
100
AcDbEntity
  8
0
  6
Continuous
 62
     7
370
    15
100
AcDbSpline
210
0.0
220
0.0
230
1.0
 70
     8
 71
     3
 72
    17
 73
    13
 74
     0
 42
0.00000001
 43
0.00000001
 12
1.0
 22
0.0
 32
0.0
 13
1.0
 23
0.0
 33
0.0
 40
0.2946604386049639
 40
0.2946604386049639
 40
0.2946604386049639
 40
0.2946604386049639
 40
0.3125000000000009
 40
0.3125000000000009
 40
0.3750000000000012
 40
0.5000000000000012
 40
0.5000000000000012
 40
0.5625000000000012
 40
0.5625000000000012
 40
0.625000000000001
 40
0.625000000000001
 40
0.7403471495400105
 40
0.7403471495400105
 40
0.7403471495400105
 40
0.7403471495400105
 10
-46.61111886340972
 20
-143.6240838314109
 30
0.0
 10
-46.87868287002794
 20
-143.0593478821573
 30
0.0
 10
-47.14435234852503
 20
-142.4934974221437
 30
0.0
 10
-48.33202060982602
 20
-139.9406229890274
 30
0.0
 10
-51.0324819181746
 20
-133.9447443607297
 30
0.0
 10
-53.51836808658772
 20
-127.8350165042585
 30
0.0
 10
-55.86062599277459
 20
-121.6490823975977
 30
0.0
 10
-56.61744100824344
 20
-119.5744035451937
 30
0.0
 10
-58.08310463219547
 20
-115.3995958352488
 30
0.0
 10
-58.7917972421936
 20
-113.2997845679652
 30
0.0
 10
-60.73542287282586
 20
-107.3035895574391
 30
0.0
 10
-61.91021829345618
 20
-103.3849699310652
 30
0.0
 10
-63.00072171933307
 20
-99.43722848782743
 30
0.0
  0
SPLINE
  5
98
330
1F
100
AcDbEntity
  8
0
  6
Continuous
 62
     7
370
    15
100
AcDbSpline
210
0.0
220
0.0
230
1.0
 70
     8
 71
     3
 72
     8
 73
     4
 74
     0
 42
0.00000001
 43
0.00000001
 12
1.0
 22
0.0
 32
0.0
 13
1.0
 23
0.0
 33
0.0
 40
0.0
 40
0.0
 40
0.0
 40
0.0
 40
0.0400226850954134
 40
0.0400226850954134
 40
0.0400226850954134
 40
0.0400226850954134
 10
-31.88506688245788
 20
-170.5909483831614
 30
0.0
 10
-32.61686878501979
 20
-169.415666850893
 30
0.0
 10
-33.33999105359374
 20
-168.2342957074894
 30
0.0
 10
-34.05436891682786
 20
-167.04678950952
 30
0.0
  0
SPLINE
  5
9A
330
1F
100
AcDbEntity
  8
0
  6
Continuous
 62
     7
370
    15
100
AcDbSpline
210
0.0
220
0.0
230
1.0
 70
     8
 71
     3
 72
    20
 73
    16
 74
     0
 42
0.00000001
 43
0.00000001
 12
1.0
 22
0.0
 32
0.0
 13
1.0
 23
0.0
 33
0.0
 40
0.3079560853093459
 40
0.3079560853093459
 40
0.3079560853093459
 40
0.3079560853093459
 40
0.3749999999999995
 40
0.3749999999999995
 40
0.4374999999999996
 40
0.4374999999999996
 40
0.4999999999999997
 40
0.4999999999999997
 40
0.7499999999999999
 40
0.7499999999999999
 40
0.8125
 40
0.8125
 40
0.875
 40
0.875
 40
1.0
 40
1.0
 40
1.0
 40
1.0
 10
-29.60979263156666
 20
-102.0346483365456
 30
0.0
 10
-29.14799386606778
 20
-103.5100959366485
 30
0.0
 10
-28.64983717597244
 20
-104.9737237490295
 30
0.0
 10
-27.61623073732676
 20
-107.7786818290713
 30
0.0
 10
-27.08478413122193
 20
-109.1234644905657
 30
0.0
 10
-25.96068666047806
 20
-111.7837632264274
 30
0.0
 10
-25.37106462383127
 20
-113.0923867823778
 30
0.0
 10
-22.29003375357686
 20
-119.5317365842374
 30
0.0
 10
-19.40105764177017
 20
-124.3520916346638
 30
0.0
 10
-15.32533902589708
 20
-130.0149126785776
 30
0.0
 10
-14.48690094631691
 20
-131.1292915445465
 30
0.0
 10
-12.76482919716157
 20
-133.3227661682748
 30
0.0
 10
-11.88016812603006
 20
-134.4030503026571
 30
0.0
 10
-9.168032652208767
 20
-137.5836221092403
 30
0.0
 10
-7.286341979901559
 20
-139.6196742089085
 30
0.0
 10
-5.33808896855196
 20
-141.5794611553614
 30
0.0
  0
SPLINE
  5
9F
330
1F
100
AcDbEntity
  8
0
  6
Continuous
 62
     7
370
    15
100
AcDbSpline
210
0.0
220
0.0
230
1.0
 70
     8
 71
     3
 72
    29
 73
    25
 74
     0
 42
0.00000001
 43
0.00000001
 12
1.0
 22
0.0
 32
0.0
 13
1.0
 23
0.0
 33
0.0
 40
0.0
 40
0.0
 40
0.0
 40
0.0
 40
0.0625
 40
0.0625
 40
0.1249999999999999
 40
0.1249999999999999
 40
0.2500000000000004
 40
0.2500000000000004
 40
0.3750000000000009
 40
0.3750000000000009
 40
0.5000000000000014
 40
0.5000000000000014
 40
0.5312500000000012
 40
0.5312500000000012
 40
0.562500000000001
 40
0.625000000000001
 40
0.625000000000001
 40
0.7500000000000007
 40
0.7500000000000007
 40
0.8125000000000006
 40
0.8125000000000006
 40
0.8750000000000002
 40
0.8750000000000002
 40
1.0
 40
1.0
 40
1.0
 40
1.0
 10
8.465600322653867
 20
-140.8368903200522
 30
0.0
 10
7.320357297510377
 20
-139.874796211479
 30
0.0
 10
6.190204430313338
 20
-138.8882179948747
 30
0.0
 10
3.971057231047584
 20
-136.8705119820046
 30
0.0
 10
2.8829544788977
 20
-135.8402883823998
 30
0.0
 10
-0.3134868946834957
 20
-132.6820675930867
 30
0.0
 10
-2.354082182111576
 20
-130.4866433848553
 30
0.0
 10
-6.233455340698831
 20
-125.8949199027455
 30
0.0
 10
-8.072272721652682
 20
-123.4986599541779
 30
0.0
 10
-11.52264606888097
 20
-118.4799397992218
 30
0.0
 10
-13.13425856372452
 20
-115.8575358574524
 30
0.0
 10
-14.98719013382807
 20
-112.4187013698382
 30
0.0
 10
-15.35024270511106
 20
-111.7217351650765
 30
0.0
 10
-16.05636683976602
 20
-110.3176346255193
 30
0.0
 10
-17.08540472927375
 20
-108.1968818720411
 30
0.0
 10
-18.02352916986467
 20
-106.0320963686701
 30
0.0
 10
-19.77729020084265
 20
-101.643199960272
 30
0.0
 10
-20.78315475326025
 20
-98.63817219842139
 30
0.0
 10
-22.04177208991025
 20
-94.00945936337693
 30
0.0
 10
-22.42015174261983
 20
-92.44313094771569
 30
0.0
 10
-23.08730231670927
 20
-89.29747953689386
 30
0.0
 10
-23.37690840648851
 20
-87.7158052049784
 30
0.0
 10
-24.11798760925313
 20
-82.94507522888114
 30
0.0
 10
-24.44178715624096
 20
-79.73032578607949
 30
0.0
 10
-24.60560788332691
 20
-76.48338124047886
 30
0.0
  0
SPLINE
  5
A0
330
1F
100
AcDbEntity
  8
0
  6
Continuous
 62
     7
370
    15
100
AcDbSpline
210
0.0
220
0.0
230
1.0
 70
     8
 71
     3
 72
    12
 73
     8
 74
     0
 42
0.00000001
 43
0.00000001
 12
1.0
 22
0.0
 32
0.0
 13
1.0
 23
0.0
 33
0.0
 40
0.0
 40
0.0
 40
0.0
 40
0.0
 40
0.2499999999999937
 40
0.2499999999999937
 40
0.4999999999999873
 40
0.4999999999999873
 40
1.0
 40
1.0
 40
1.0
 40
1.0
 10
8.465600322653867
 20
-140.8368903200522
 30
0.0
 10
8.38873066063369
 20
-140.8296392848818
 30
0.0
 10
8.255215255239943
 20
-140.8278432514417
 30
0.0
 10
7.947370770658823
 20
-140.8320843804261
 30
0.0
 10
7.779576745867968
 20
-140.837732627287
 30
0.0
 10
7.279172798224348
 20
-140.8596363572457
 30
0.0
 10
6.946787417839766
 20
-140.8807764055397
 30
0.0
 10
6.649575229962047
 20
-140.9039744499472
 30
0.0
  0
SPLINE
  5
A1
330
1F
100
AcDbEntity
  8
0
  6
Continuous
 62
     7
370
    15
100
AcDbSpline
210
0.0
220
0.0
230
1.0
 70
     8
 71
     3
 72
    14
 73
    10
 74
     0
 42
0.00000001
 43
0.00000001
 12
1.0
 22
0.0
 32
0.0
 13
1.0
 23
0.0
 33
0.0
 40
0.0
 40
0.0
 40
0.0
 40
0.0
 40
0.25
 40
0.25
 40
0.5
 40
0.5
 40
0.75
 40
0.75
 40
1.0
 40
1.0
 40
1.0
 40
1.0
 10
-24.60560788332691
 20
-76.48338124047886
 30
0.0
 10
-24.68286613734136
 20
-76.47609354983034
 30
0.0
 10
-24.79847505684922
 20
-76.42013593061075
 30
0.0
 10
-25.04989537577787
 20
-76.25741847317384
 30
0.0
 10
-25.18064211028962
 20
-76.1554552061193
 30
0.0
 10
-25.43416079477049
 20
-75.93866960984062
 30
0.0
 10
-25.55720133577901
 20
-75.82350370249901
 30
0.0
 10
-25.79276351748032
 20
-75.58760855058873
 30
0.0
 10
-25.90335875434829
 20
-75.46882082728116
 30
0.0
 10
-26.00736108759515
 20
-75.34926228250477
 30
0.0
  0
SPLINE
  5
A3
330
1F
100
AcDbEntity
  8
0
  6
Continuous
 62
     7
370
    15
100
AcDbSpline
210
0.0
220
0.0
230
1.0
 70
     8
 71
     3
 72
    30
 73
    26
 74
     0
 42
0.00000001
 43
0.00000001
 12
1.0
 22
0.0
 32
0.0
 13
1.0
 23
0.0
 33
0.0
 40
0.0
 40
0.0
 40
0.0
 40
0.0
 40
0.1250000000000006
 40
0.1250000000000006
 40
0.1875000000000008
 40
0.1875000000000008
 40
0.2500000000000011
 40
0.2500000000000011
 40
0.3750000000000017
 40
0.3750000000000017
 40
0.4375000000000016
 40
0.4375000000000016
 40
0.5000000000000014
 40
0.5000000000000014
 40
0.5625000000000013
 40
0.5625000000000013
 40
0.6250000000000013
 40
0.6250000000000013
 40
0.7500000000000011
 40
0.7500000000000011
 40
0.8750000000000009
 40
0.8750000000000009
 40
0.9375000000000004
 40
0.9375000000000004
 40
1.0
 40
1.0
 40
1.0
 40
1.0
 10
-21.89172675610432
 20
-76.73937882111747
 30
0.0
 10
-21.72829735408473
 20
-79.97856726153954
 30
0.0
 10
-21.40565208695905
 20
-83.18571414078828
 30
0.0
 10
-20.66756083888455
 20
-87.94529314421892
 30
0.0
 10
-20.37916031449461
 20
-89.52329266248816
 30
0.0
 10
-19.71486078262968
 20
-92.66168297645072
 30
0.0
 10
-19.33810840423984
 20
-94.2245247994985
 30
0.0
 10
-18.08488258827257
 20
-98.843335994074
 30
0.0
 10
-17.08339137795359
 20
-101.8421399583926
 30
0.0
 10
-15.33732265267247
 20
-106.2222490817036
 30
0.0
 10
-14.71465919397681
 20
-107.6626017327003
 30
0.0
 10
-13.38889206413711
 20
-110.5043468610532
 30
0.0
 10
-12.68463760939327
 20
-111.9077899734683
 30
0.0
 10
-11.20327797276056
 20
-114.6638952760561
 30
0.0
 10
-10.42499158393812
 20
-116.018647726034
 30
0.0
 10
-8.809569723573311
 20
-118.661999811966
 30
0.0
 10
-7.971694660229264
 20
-119.9522838442599
 30
0.0
 10
-5.373472154271234
 20
-123.735094961143
 30
0.0
 10
-3.528696535549514
 20
-126.1397570906483
 30
0.0
 10
0.3593654291575085
 20
-130.742489937422
 30
0.0
 10
2.40269790309993
 20
-132.9405126490236
 30
0.0
 10
5.600261765715889
 20
-136.0995852959977
 30
0.0
 10
6.688244406532664
 20
-137.1295807365694
 30
0.0
 10
8.906097088854239
 20
-139.145979125849
 30
0.0
 10
10.03518103081624
 20
-140.1315856552763
 30
0.0
 10
11.17948144987645
 20
-141.0928879006909
 30
0.0
  0
SPLINE
  5
A5
330
1F
100
AcDbEntity
  8
0
  6
Continuous
 62
     7
370
    15
100
AcDbSpline
210
0.0
220
0.0
230
1.0
 70
     8
 71
     3
 72
     9
 73
     5
 74
     0
 42
0.00000001
 43
0.00000001
 12
1.0
 22
0.0
 32
0.0
 13
1.0
 23
0.0
 33
0.0
 40
0.0
 40
0.0
 40
0.0
 40
0.0
 40
0.6645462184304904
 40
0.9999999999999999
 40
0.9999999999999999
 40
0.9999999999999999
 40
0.9999999999999999
 10
11.17948144987645
 20
-141.0928879006909
 30
0.0
 10
11.21225626576385
 20
-141.0971194010114
 30
0.0
 10
11.26157535746642
 20
-141.1034869044342
 30
0.0
 10
11.24593736431492
 20
-141.1133452463596
 30
0.0
 10
11.24069154037611
 20
-141.1166522644385
 30
0.0
  0
SPLINE
  5
A6
330
1F
100
AcDbEntity
  8
0
  6
Continuous
 62
     7
370
    15
100
AcDbSpline
210
0.0
220
0.0
230
1.0
 70
     8
 71
     3
 72
     9
 73
     5
 74
     0
 42
0.00000001
 43
0.00000001
 12
1.0
 22
0.0
 32
0.0
 13
1.0
 23
0.0
 33
0.0
 40
0.0
 40
0.0
 40
0.0
 40
0.0
 40
0.7274939299657367
 40
1.0
 40
1.0
 40
1.0
 40
1.0
 10
-21.89172675610432
 20
-76.73937882111747
 30
0.0
 10
-21.84702417550054
 20
-76.74653434680054
 30
0.0
 10
-21.78557681661206
 20
-76.75637020300263
 30
0.0
 10
-21.79191543378318
 20
-76.7941216301323
 30
0.0
 10
-21.79364274543793
 20
-76.80440912317756
 30
0.0
  0
LWPOLYLINE
  5
C1
330
1F
100
AcDbEntity
  8
0
  6
Continuous
 62
     7
370
    15
100
AcDbPolyline
 90
       19
 70
   128
 43
0.0
 10
-28.6780357071
 20
-153.8189963417
 10
-29.1770010608
 20
-153.419923231
 10
-29.7714424091
 20
-153.2390934925
 10
-30.3896613524
 20
-153.2983178615
 10
-30.9570915622
 20
-153.5904530051
 10
-31.4052925809
 20
-154.0802631134
 10
-31.6802047507
 20
-154.7086698586
 10
-31.7486696069
 20
-155.3998781129
 10
-31.6024292772
 20
-156.0705179597
 10
-31.2591225038
 20
-156.6397003359
 10
-30.7601571501
 20
-157.0387734467
 10
-30.1657158018
 20
-157.2196031852
 10
-29.5474968585
 20
-157.1603788161
 10
-28.9800666487
 20
-156.8682436726
 10
-28.5318656301
 20
-156.3784335643
 10
-28.2569534602
 20
-155.7500268191
 10
-28.1884886041
 20
-155.0588185647
 10
-28.3347289337
 20
-154.3881787179
 10
-28.6780357071
 20
-153.8189963417
  0
LWPOLYLINE
  5
C2
330
1F
100
AcDbEntity
  8
0
  6
Continuous
 62
     7
370
    15
100
AcDbPolyline
 90
       19
 70
   128
 43
0.0
 10
-74.6686528273
 20
-61.8812608103
 10
-75.1676181809
 20
-61.4821876996
 10
-75.7620595292
 20
-61.3013579611
 10
-76.3802784725
 20
-61.3605823301
 10
-76.9477086823
 20
-61.6527174737
 10
-77.395909701
 20
-62.142527582
 10
-77.6708218709
 20
-62.7709343272
 10
-77.739286727
 20
-63.4621425815
 10
-77.5930463973
 20
-64.1327824283
 10
-77.2497396239
 20
-64.7019648045
 10
-76.7507742702
 20
-65.1010379153
 10
-76.1563329219
 20
-65.2818676538
 10
-75.5381139786
 20
-65.2226432847
 10
-74.9706837688
 20
-64.9305081412
 10
-74.5224827502
 20
-64.4406980329
 10
-74.2475705803
 20
-63.8122912877
 10
-74.1791057242
 20
-63.1210830333
 10
-74.3253460538
 20
-62.4504431865
 10
-74.6686528273
 20
-61.8812608103
  0
SPLINE
  5
C4
330
1F
100
AcDbEntity
  8
0
  6
Continuous
 62
     7
370
    15
100
AcDbSpline
210
0.0
220
0.0
230
1.0
 70
     8
 71
     3
 72
    12
 73
     8
 74
     0
 42
0.00000001
 43
0.00000001
 12
1.0
 22
0.0
 32
0.0
 13
1.0
 23
0.0
 33
0.0
 40
0.0
 40
0.0
 40
0.0
 40
0.0
 40
0.2499999999999928
 40
0.2499999999999928
 40
0.4999999999999856
 40
0.4999999999999856
 40
1.0
 40
1.0
 40
1.0
 40
1.0
 10
-32.69903041102273
 20
-185.8230715207978
 30
0.0
 10
-32.77516791036873
 20
-185.8158895497701
 30
0.0
 10
-32.84250225452559
 20
-185.743388503981
 30
0.0
 10
-32.94650838659798
 20
-185.5266862604548
 30
0.0
 10
-32.98280936817552
 20
-185.3881901535366
 30
0.0
 10
-33.05741145890312
 20
-184.9428874065104
 30
0.0
 10
-33.06312249514939
 20
-184.6055726865919
 30
0.0
 10
-33.03801137310472
 20
-184.2759889809853
 30
0.0
  0
SPLINE
  5
C7
330
1F
100
AcDbEntity
  8
0
  6
Continuous
 62
     7
370
    15
100
AcDbSpline
210
0.0
220
0.0
230
1.0
 70
     8
 71
     3
 72
     9
 73
     5
 74
     0
 42
0.00000001
 43
0.00000001
 12
1.0
 22
0.0
 32
0.0
 13
1.0
 23
0.0
 33
0.0
 40
0.0
 40
0.0
 40
0.0
 40
0.0
 40
0.6721257207447363
 40
1.0
 40
1.0
 40
1.0
 40
1.0
 10
-29.98514928380015
 20
-186.0790691014365
 30
0.0
 10
-29.94504926612726
 20
-186.0757623166503
 30
0.0
 10
-29.88538778251607
 20
-186.0708424263916
 30
0.0
 10
-29.83161817367459
 20
-186.0042479876859
 30
0.0
 10
-29.81398850192983
 20
-185.982413384093
 30
0.0
  0
LWPOLYLINE
  5
CD
330
1F
100
AcDbEntity
  8
0
  6
Continuous
 62
     7
370
    15
100
AcDbPolyline
 90
        9
 70
   128
 43
0.0
 10
-2.2178517318
 20
-1.0431853189
 10
-2.1064335528
 20
-1.1804401694
 10
-2.0166792669
 20
-1.3107807523
 10
-1.9520380809
 20
-1.4291981523
 10
-1.9149941194
 20
-1.531141655
 10
-1.9069709611
 20
-1.6126936287
 10
-1.9282769315
 20
-1.6707200769
 10
-1.9780932539
 20
-1.7029910757
 10
-2.0545055152
 20
-1.7082664688
  0
LWPOLYLINE
  5
D5
330
1F
100
AcDbEntity
  8
0
  6
Continuous
 62
     7
370
    15
100
AcDbPolyline
 90
        4
 70
   128
 43
0.0
 10
-45.6840994642
 20
-49.3882476594
 10
-45.6247124273
 20
-49.3956175128
 10
-45.6054425992
 20
-49.4026853057
 10
-45.6058994715
 20
-49.4035391266
  0
LWPOLYLINE
  5
DC
330
1F
100
AcDbEntity
  8
0
  6
Continuous
 62
     7
370
    15
100
AcDbPolyline
 90
       19
 70
   128
 43
0.0
 10
-46.0296536365
 20
-44.6441833685
 10
-45.5306882829
 20
-45.0432564793
 10
-44.9362469346
 20
-45.2240862178
 10
-44.3180279913
 20
-45.1648618488
 10
-43.7505977814
 20
-44.8727267052
 10
-43.3023967628
 20
-44.3829165969
 10
-43.0274845929
 20
-43.7545098517
 10
-42.9590197368
 20
-43.0633015974
 10
-43.1052600664
 20
-42.3926617506
 10
-43.4485668399
 20
-41.8234793744
 10
-43.9475321935
 20
-41.4244062636
 10
-44.5419735418
 20
-41.2435765251
 10
-45.1601924852
 20
-41.3028008941
 10
-45.727622695
 20
-41.5949360377
 10
-46.1758237136
 20
-42.084746146
 10
-46.4507358835
 20
-42.7131528912
 10
-46.5192007396
 20
-43.4043611455
 10
-46.37296041
 20
-44.0750009924
 10
-46.0296536365
 20
-44.6441833685
  0
SPLINE
  5
E3
330
1F
100
AcDbEntity
  8
0
  6
Continuous
 62
     7
370
    15
100
AcDbSpline
210
0.0
220
0.0
230
1.0
 70
     8
 71
     3
 72
    12
 73
     8
 74
     0
 42
0.00000001
 43
0.00000001
 12
1.0
 22
0.0
 32
0.0
 13
1.0
 23
0.0
 33
0.0
 40
0.0
 40
0.0
 40
0.0
 40
0.0
 40
0.2249881100841583
 40
0.4505026992369223
 40
0.6629291841005175
 40
0.8577268534026595
 40
1.0
 40
1.0
 40
1.0
 40
1.0
 10
-37.36186829963172
 20
-70.2937911093959
 30
0.0
 10
-37.30792262840282
 20
-70.37426446908867
 30
0.0
 10
-37.19990505142212
 20
-70.53539949860068
 30
0.0
 10
-37.10521207574983
 20
-70.82117145507745
 30
0.0
 10
-37.04461799481489
 20
-71.07091915711361
 30
0.0
 10
-36.9980482496851
 20
-71.24412157239594
 30
0.0
 10
-36.95209262960135
 20
-71.29897730492276
 30
0.0
 10
-36.93269536835908
 20
-71.32213118626565
 30
0.0
  0
SPLINE
  5
E4
330
1F
100
AcDbEntity
  8
0
  6
Continuous
 62
     7
370
    15
100
AcDbSpline
210
0.0
220
0.0
230
1.0
 70
     8
 71
     3
 72
     8
 73
     4
 74
     0
 42
0.00000001
 43
0.00000001
 12
1.0
 22
0.0
 32
0.0
 13
1.0
 23
0.0
 33
0.0
 40
0.0
 40
0.0
 40
0.0
 40
0.0
 40
1.0
 40
1.0
 40
1.0
 40
1.0
 10
-37.10739352037644
 20
-70.08582339083185
 30
0.0
 10
-37.21611958603188
 20
-70.13473376770091
 30
0.0
 10
-37.3040020301706
 20
-70.20788558797533
 30
0.0
 10
-37.36186829963201
 20
-70.29379110939564
 30
0.0
  0
SPLINE
  5
F8
330
1F
100
AcDbEntity
  8
0
  6
Continuous
 62
     7
370
    15
100
AcDbSpline
210
0.0
220
0.0
230
1.0
 70
     8
 71
     3
 72
    11
 73
     7
 74
     0
 42
0.00000001
 43
0.00000001
 12
1.0
 22
0.0
 32
0.0
 13
1.0
 23
0.0
 33
0.0
 40
0.0
 40
0.0
 40
0.0
 40
0.0
 40
0.1051763539208119
 40
0.4085108978126153
 40
0.7865402199678102
 40
1.0
 40
1.0
 40
1.0
 40
1.0
 10
-29.90526422000106
 20
-32.14457198983004
 30
0.0
 10
-29.9264908068592
 20
-32.16605557638259
 30
0.0
 10
-30.00893606885647
 20
-32.24949903970536
 30
0.0
 10
-30.21374740016938
 20
-32.36598164393472
 30
0.0
 10
-30.47739626853853
 20
-32.43690580128737
 30
0.0
 10
-30.65041876265149
 20
-32.42006010422294
 30
0.0
 10
-30.71286005429558
 20
-32.41398073813394
 30
0.0
  0
LWPOLYLINE
  5
102
330
1F
100
AcDbEntity
  8
0
  6
Continuous
 62
     7
370
    15
100
AcDbPolyline
 90
       11
 70
   128
 43
0.0
 10
-55.4325781164
 20
-3.7362837398
 10
-55.0098593021
 20
-3.8485576263
 10
-54.4734903416
 20
-4.1267874118
 10
-53.8771363996
 20
-4.5431354539
 10
-53.2804643005
 20
-5.0559450051
 10
-52.743172701
 20
-5.6139080835
 10
-52.3190190785
 20
-6.1611989743
 10
-52.0504411497
 20
-6.6430597442
 10
-51.9643108625
 20
-7.0112789202
 10
-52.0692457852
 20
-7.2290151782
 10
-52.3547468949
 20
-7.2744834168
  0
LWPOLYLINE
  5
104
330
1F
100
AcDbEntity
  8
0
  6
Continuous
 62
     7
370
    15
100
AcDbPolyline
 90
       10
 70
   128
 43
0.0
 10
-64.6294417844
 20
6.8362063412
 10
-64.2457834631
 20
6.7216561148
 10
-63.7598846965
 20
6.4501927698
 10
-63.2303520468
 20
6.0545587918
 10
-62.7210549668
 20
5.5824734777
 10
-62.2934222006
 20
5.0908772834
 10
-61.9990325712
 20
4.6390639652
 10
-61.8733938124
 20
4.2815288774
 10
-61.9316598128
 20
4.0613960282
 10
-62.166802833
 20
4.005216688
  0
LWPOLYLINE
  5
116
330
1F
100
AcDbEntity
  8
0
  6
Continuous
 62
     7
370
    15
100
AcDbPolyline
 90
        3
 70
   128
 43
0.0
 10
-64.6022527863
 20
10.146066805
 10
-64.5145797813
 20
10.1105941028
 10
-64.4620508576
 20
10.0615843257
  0
LWPOLYLINE
  5
120
330
1F
100
AcDbEntity
  8
0
  6
Continuous
 62
     7
370
    15
100
AcDbPolyline
 90
        3
 70
   128
 43
0.0
 10
-44.6343691607
 20
-45.225553025
 10
-44.9506135464
 20
-45.0979743251
 10
-45.4495789001
 20
-44.6989012144
  0
LWPOLYLINE
  5
135
330
1F
100
AcDbEntity
  8
0
  6
Continuous
 62
     7
370
    15
100
AcDbPolyline
 90
       19
 70
   128
 43
0.0
 10
-85.5377293577
 20
-12.5617123459
 10
-85.8810361312
 20
-11.9925299697
 10
-86.0272764608
 20
-11.3218901229
 10
-85.9588116047
 20
-10.6306818686
 10
-85.6838994348
 20
-10.0022751234
 10
-85.2356984162
 20
-9.5124650151
 10
-84.6682682063
 20
-9.2203298715
 10
-84.050049263
 20
-9.1611055025
 10
-83.4556079147
 20
-9.341935241
 10
-82.9566425611
 20
-9.7410083518
 10
-82.6133357876
 20
-10.310190728
 10
-82.467095458
 20
-10.9808305748
 10
-82.5355603141
 20
-11.6720388291
 10
-82.810472484
 20
-12.3004455743
 10
-83.2586735026
 20
-12.7902556826
 10
-83.8261037124
 20
-13.0823908262
 10
-84.4443226558
 20
-13.1416151952
 10
-85.0387640041
 20
-12.9607854567
 10
-85.5377293577
 20
-12.5617123459
  0
LWPOLYLINE
  5
149
330
1F
100
AcDbEntity
  8
0
  6
Continuous
 62
     7
370
    15
100
AcDbPolyline
 90
        9
 70
   128
 43
0.0
 10
-93.005413953
 20
-51.1775877449
 10
-93.0767438712
 20
-51.1656313222
 10
-93.111508476
 20
-51.1468690827
 10
-93.1083717833
 20
-51.1220220489
 10
-93.0674543342
 20
-51.0920450783
 10
-92.9903285635
 20
-51.058090169
 10
-92.8799583713
 20
-51.0214621893
 10
-92.7405852221
 20
-50.9835687318
 10
-92.5775651479
 20
-50.9458660208
  0
SPLINE
  5
15B
330
1F
100
AcDbEntity
  8
0
  6
Continuous
 62
     7
370
    15
100
AcDbSpline
210
0.0
220
0.0
230
1.0
 70
     8
 71
     3
 72
    18
 73
    14
 74
     0
 42
0.00000001
 43
0.00000001
 12
1.0
 22
0.0
 32
0.0
 13
1.0
 23
0.0
 33
0.0
 40
0.0
 40
0.0
 40
0.0
 40
0.0
 40
0.125
 40
0.125
 40
0.2500000000000001
 40
0.2500000000000001
 40
0.5000000000000001
 40
0.5000000000000001
 40
0.7499999999999999
 40
0.7499999999999999
 40
0.875
 40
0.875
 40
1.0
 40
1.0
 40
1.0
 40
1.0
 10
161.7855293183667
 20
28.63414643162929
 30
0.0
 10
159.014550672981
 20
31.10367310033069
 30
0.0
 10
156.1988249567072
 20
33.50690366260287
 30
0.0
 10
150.4754696528745
 20
38.17720238118252
 30
0.0
 10
147.5667798456938
 20
40.44494072865164
 30
0.0
 10
138.720472815516
 20
47.02311933747491
 30
0.0
 10
132.6562288670434
 20
51.11400596669873
 30
0.0
 10
120.1856222921734
 20
58.68569168648166
 30
0.0
 10
113.8096418141412
 20
62.14803496211975
 30
0.0
 10
104.0340421778452
 20
66.85489054507678
 30
0.0
 10
100.7384119846457
 20
68.34341728729851
 30
0.0
 10
94.09285770029132
 20
71.15146137923307
 30
0.0
 10
90.74149879563572
 20
72.47177691748541
 30
0.0
 10
87.3618565092901
 20
73.70925980644117
 30
0.0
  0
SPLINE
  5
15D
330
1F
100
AcDbEntity
  8
0
  6
Continuous
 62
     7
370
    15
100
AcDbSpline
210
0.0
220
0.0
230
1.0
 70
     8
 71
     3
 72
    18
 73
    14
 74
     0
 42
0.00000001
 43
0.00000001
 12
1.0
 22
0.0
 32
0.0
 13
1.0
 23
0.0
 33
0.0
 40
0.0
 40
0.0
 40
0.0
 40
0.0
 40
0.1249999999999998
 40
0.1249999999999998
 40
0.2499999999999997
 40
0.2499999999999997
 40
0.4999999999999997
 40
0.4999999999999997
 40
0.7499999999999998
 40
0.7499999999999998
 40
0.875
 40
0.875
 40
1.0
 40
1.0
 40
1.0
 40
1.0
 10
88.10774465598406
 20
74.61690530146508
 30
0.0
 10
91.53942320814227
 20
73.36036892102524
 30
0.0
 10
94.94204670817025
 20
72.01874000224659
 30
0.0
 10
101.6885659220123
 20
69.16348810398104
 30
0.0
 10
105.0337967405887
 20
67.64910141800624
 30
0.0
 10
114.9548969010693
 20
62.85824453487768
 30
0.0
 10
121.4250944253618
 20
59.33044134133954
 30
0.0
 10
134.0722353390612
 20
51.612863833899
 30
0.0
 10
140.2194278213538
 20
47.44144717415306
 30
0.0
 10
149.1842043328527
 20
40.73054352006771
 30
0.0
 10
152.1309826585925
 20
38.41684585489555
 30
0.0
 10
157.9269477041501
 20
33.65223251839741
 30
0.0
 10
160.7777050655941
 20
31.20023470245272
 30
0.0
 10
163.5824948743715
 20
28.68040161794518
 30
0.0
  0
SPLINE
  5
15E
330
1F
100
AcDbEntity
  8
0
  6
Continuous
 62
     7
370
    15
100
AcDbSpline
210
0.0
220
0.0
230
1.0
 70
     8
 71
     3
 72
    12
 73
     8
 74
     0
 42
0.00000001
 43
0.00000001
 12
1.0
 22
0.0
 32
0.0
 13
1.0
 23
0.0
 33
0.0
 40
0.0
 40
0.0
 40
0.0
 40
0.0
 40
0.2499999999999928
 40
0.2499999999999928
 40
0.4999999999999856
 40
0.4999999999999856
 40
1.0
 40
1.0
 40
1.0
 40
1.0
 10
163.5824948743715
 20
28.68040161794519
 30
0.0
 10
163.5063573750255
 20
28.68758358897293
 30
0.0
 10
163.3754235343845
 20
28.69058082962348
 30
0.0
 10
163.0724541245181
 20
28.68984888492529
 30
0.0
 10
162.9062386340769
 20
28.68636976864365
 30
0.0
 10
162.4099883480119
 20
28.67088028262077
 30
0.0
 10
162.0801194271924
 20
28.65394366897569
 30
0.0
 10
161.7855293183667
 20
28.63414643162933
 30
0.0
  0
SPLINE
  5
15F
330
1F
100
AcDbEntity
  8
0
  6
Continuous
 62
     7
370
    15
100
AcDbSpline
210
0.0
220
0.0
230
1.0
 70
     8
 71
     3
 72
    13
 73
     9
 74
     0
 42
0.00000001
 43
0.00000001
 12
1.0
 22
0.0
 32
0.0
 13
1.0
 23
0.0
 33
0.0
 40
0.0
 40
0.0
 40
0.0
 40
0.0
 40
0.0954141750835495
 40
0.3130567432140993
 40
0.5300381267153564
 40
0.7470190894252732
 40
0.8735093706577395
 40
1.0
 40
1.0
 40
1.0
 40
1.0
 10
146.8296054956604
 20
44.12592848301686
 30
0.0
 10
145.1838870841748
 20
45.35995452863271
 30
0.0
 10
139.7842360816269
 20
49.40883064733924
 30
0.0
 10
130.2024357224747
 20
55.5045938494227
 30
0.0
 10
118.1354155919537
 20
62.39142760202042
 30
0.0
 10
107.4383211877323
 20
67.59541020023242
 30
0.0
 10
98.30945768041995
 20
71.53068070385889
 30
0.0
 10
93.31757203860899
 20
73.41749784973042
 30
0.0
 10
90.82162578320666
 20
74.36090772082648
 30
0.0
  0
SPLINE
  5
160
330
1F
100
AcDbEntity
  8
0
  6
Continuous
 62
     7
370
    15
100
AcDbSpline
210
0.0
220
0.0
230
1.0
 70
     8
 71
     3
 72
     8
 73
     4
 74
     0
 42
0.00000001
 43
0.00000001
 12
1.0
 22
0.0
 32
0.0
 13
1.0
 23
0.0
 33
0.0
 40
0.0
 40
0.0
 40
0.0
 40
0.0
 40
1.0
 40
1.0
 40
1.0
 40
1.0
 10
160.2736522770645
 20
33.67336942108502
 30
0.0
 10
159.8408766195238
 20
34.03653798675683
 30
0.0
 10
159.4085615157973
 20
34.39803681395524
 30
0.0
 10
158.9764407794343
 20
34.75787997116257
 30
0.0
  0
SPLINE
  5
161
330
1F
100
AcDbEntity
  8
0
  6
Continuous
 62
     7
370
    15
100
AcDbSpline
210
0.0
220
0.0
230
1.0
 70
     8
 71
     3
 72
     8
 73
     4
 74
     0
 42
0.00000001
 43
0.00000001
 12
1.0
 22
0.0
 32
0.0
 13
1.0
 23
0.0
 33
0.0
 40
0.0
 40
0.0
 40
0.0
 40
0.0
 40
1.0
 40
1.0
 40
1.0
 40
1.0
 10
160.4055422824194
 20
33.55889287439437
 30
0.0
 10
160.3598636255169
 20
33.59750258666491
 30
0.0
 10
160.3159196512604
 20
33.6356562599257
 30
0.0
 10
160.273652277064
 20
33.67336942108509
 30
0.0
  0
SPLINE
  5
162
330
1F
100
AcDbEntity
  8
0
  6
Continuous
 62
     7
370
    15
100
AcDbSpline
210
0.0
220
0.0
230
1.0
 70
     8
 71
     3
 72
     8
 73
     4
 74
     0
 42
0.00000001
 43
0.00000001
 12
1.0
 22
0.0
 32
0.0
 13
1.0
 23
0.0
 33
0.0
 40
0.0
 40
0.0
 40
0.0
 40
0.0
 40
1.0
 40
1.0
 40
1.0
 40
1.0
 10
166.2963760015941
 20
28.42440403730657
 30
0.0
 10
164.3549283046427
 20
30.16860751498223
 30
0.0
 10
162.3914551293719
 20
31.88030753858297
 30
0.0
 10
160.4055422824194
 20
33.55889287439437
 30
0.0
  0
SPLINE
  5
167
330
1F
100
AcDbEntity
  8
0
  6
Continuous
 62
     7
370
    15
100
AcDbSpline
210
0.0
220
0.0
230
1.0
 70
     8
 71
     3
 72
    12
 73
     8
 74
     0
 42
0.00000001
 43
0.00000001
 12
1.0
 22
0.0
 32
0.0
 13
1.0
 23
0.0
 33
0.0
 40
0.0
 40
0.0
 40
0.0
 40
0.0
 40
0.2499999999999937
 40
0.2499999999999937
 40
0.4999999999999873
 40
0.4999999999999873
 40
1.0
 40
1.0
 40
1.0
 40
1.0
 10
122.4178641406949
 20
-16.3057795828004
 30
0.0
 10
122.3409944786747
 20
-16.29852854763005
 30
0.0
 10
122.2744015829208
 20
-16.22359720138841
 30
0.0
 10
122.1735112213434
 20
-16.00167146061711
 30
0.0
 10
122.1395479787046
 20
-15.86106464071741
 30
0.0
 10
122.0714886859191
 20
-15.41048666397849
 30
0.0
 10
122.0697320770399
 20
-15.07030376196232
 30
0.0
 10
122.0979427153
 20
-14.73786809940891
 30
0.0
  0
LWPOLYLINE
  5
168
330
1F
100
AcDbEntity
  8
0
  6
Continuous
 62
     7
370
    15
100
AcDbPolyline
 90
       19
 70
   128
 43
0.0
 10
10.0506453581
 20
20.8017197243
 10
9.5516800044
 20
21.2007928351
 10
8.9572386561
 20
21.3816225735
 10
8.3390197128
 20
21.3223982045
 10
7.771589503
 20
21.030263061
 10
7.3233884843
 20
20.5404529526
 10
7.0484763145
 20
19.9120462074
 10
6.9800114583
 20
19.2208379531
 10
7.126251788
 20
18.5501981063
 10
7.4695585614
 20
17.9810157301
 10
7.9685239151
 20
17.5819426194
 10
8.5629652634
 20
17.4011128809
 10
9.1811842067
 20
17.4603372499
 10
9.7486144165
 20
17.7524723934
 10
10.1968154351
 20
18.2422825018
 10
10.471727605
 20
18.870689247
 10
10.5401924612
 20
19.5618975013
 10
10.3939521315
 20
20.2325373481
 10
10.0506453581
 20
20.8017197243
  0
SPLINE
  5
16C
330
1F
100
AcDbEntity
  8
0
  6
Continuous
 62
     7
370
    15
100
AcDbSpline
210
0.0
220
0.0
230
1.0
 70
     8
 71
     3
 72
    20
 73
    16
 74
     0
 42
0.00000001
 43
0.00000001
 12
1.0
 22
0.0
 32
0.0
 13
1.0
 23
0.0
 33
0.0
 40
0.3079560853093459
 40
0.3079560853093459
 40
0.3079560853093459
 40
0.3079560853093459
 40
0.3749999999999995
 40
0.3749999999999995
 40
0.4374999999999996
 40
0.4374999999999996
 40
0.4999999999999997
 40
0.4999999999999997
 40
0.7499999999999999
 40
0.7499999999999999
 40
0.8125
 40
0.8125
 40
0.875
 40
0.875
 40
1.0
 40
1.0
 40
1.0
 40
1.0
 10
88.34797926148414
 20
26.87382492897071
 30
0.0
 10
89.6522416497238
 20
26.31905171637414
 30
0.0
 10
90.94504203863562
 20
25.72383896779558
 30
0.0
 10
93.42062237442234
 20
24.49472155162888
 30
0.0
 10
94.60658279270271
 20
23.86521500042965
 30
0.0
 10
96.95085219395821
 20
22.53836380396626
 30
0.0
 10
98.10309039893136
 20
21.84458732531736
 30
0.0
 10
103.7683677772826
 20
18.22939456333928
 30
0.0
 10
107.9945281491613
 20
14.87036231237078
 30
0.0
 10
112.9420532275199
 20
10.16028256102661
 30
0.0
 10
113.9147493723066
 20
9.192625712027045
 30
0.0
 10
115.8275291773982
 20
7.207563674732312
 30
0.0
 10
116.7686467508755
 20
6.18897722594125
 30
0.0
 10
119.5367639585916
 20
3.069584261000569
 30
0.0
 10
121.3051002414118
 20
0.9096544290539549
 30
0.0
 10
123.0037316327007
 20
-1.322927954441111
 30
0.0
  0
SPLINE
  5
16E
330
1F
100
AcDbEntity
  8
0
  6
Continuous
 62
     7
370
    15
100
AcDbSpline
210
0.0
220
0.0
230
1.0
 70
     8
 71
     3
 72
     8
 73
     4
 74
     0
 42
0.00000001
 43
0.00000001
 12
1.0
 22
0.0
 32
0.0
 13
1.0
 23
0.0
 33
0.0
 40
0.0
 40
0.0
 40
0.0
 40
0.0
 40
0.0400226850954134
 40
0.0400226850954134
 40
0.0400226850954134
 40
0.0400226850954134
 10
149.5507095466066
 20
27.68855927335891
 30
0.0
 10
148.5209962764918
 20
28.53827260487747
 30
0.0
 10
147.4856320792971
 20
29.3784145976959
 30
0.0
 10
146.4445747852506
 20
30.2089138261588
 30
0.0
  0
SPLINE
  5
172
330
1F
100
AcDbEntity
  8
0
  6
Continuous
 62
     7
370
    15
100
AcDbSpline
210
0.0
220
0.0
230
1.0
 70
     8
 71
     3
 72
    17
 73
    13
 74
     0
 42
0.00000001
 43
0.00000001
 12
1.0
 22
0.0
 32
0.0
 13
1.0
 23
0.0
 33
0.0
 40
0.2946604386049639
 40
0.2946604386049639
 40
0.2946604386049639
 40
0.2946604386049639
 40
0.3125000000000009
 40
0.3125000000000009
 40
0.3750000000000012
 40
0.5000000000000012
 40
0.5000000000000012
 40
0.5625000000000012
 40
0.5625000000000012
 40
0.625000000000001
 40
0.625000000000001
 40
0.7403471495400105
 40
0.7403471495400105
 40
0.7403471495400105
 40
0.7403471495400105
 10
125.8716576033142
 20
44.87126515739606
 30
0.0
 10
125.3747414822799
 20
45.1853569105522
 30
0.0
 10
124.8767833951123
 20
45.49735406848878
 30
0.0
 10
122.6299339423726
 20
46.89271740158446
 30
0.0
 10
117.3505576102975
 20
50.07026542686329
 30
0.0
 10
111.9642100888595
 20
53.01026534778934
 30
0.0
 10
106.5062602091936
 20
55.79125979662951
 30
0.0
 10
104.6750100675309
 20
56.69175750337688
 30
0.0
 10
100.9885973048463
 20
58.43965110342074
 30
0.0
 10
99.13371399438873
 20
59.28686416631206
 30
0.0
 10
93.83490523859996
 20
61.61639502025931
 30
0.0
 10
90.36962601152851
 20
63.03189199698353
 30
0.0
 10
86.87624027940579
 20
64.35367768873661
 30
0.0
  0
SPLINE
  5
17A
330
1F
100
AcDbEntity
  8
0
  6
Continuous
 62
     7
370
    15
100
AcDbSpline
210
0.0
220
0.0
230
1.0
 70
     8
 71
     3
 72
    33
 73
    29
 74
     0
 42
0.00000001
 43
0.00000001
 12
1.0
 22
0.0
 32
0.0
 13
1.0
 23
0.0
 33
0.0
 40
0.0
 40
0.0
 40
0.0
 40
0.0
 40
0.0312499999999999
 40
0.0312499999999999
 40
0.0624999999999998
 40
0.0624999999999998
 40
0.1249999999999997
 40
0.1874999999999995
 40
0.1874999999999995
 40
0.2187499999999994
 40
0.2187499999999994
 40
0.2499999999999993
 40
0.2499999999999993
 40
0.3749999999999997
 40
0.3749999999999997
 40
0.5
 40
0.5
 40
0.5624999999999999
 40
0.5624999999999999
 40
0.6249999999999999
 40
0.6249999999999999
 40
0.7500000000000002
 40
0.7500000000000002
 40
0.8125000000000001
 40
0.8125000000000001
 40
0.8750000000000001
 40
0.8750000000000001
 40
1.0
 40
1.0
 40
1.0
 40
1.0
 10
64.45621079834874
 20
23.51256556327296
 30
0.0
 10
65.18227716458323
 20
23.44584992068513
 30
0.0
 10
65.90879600482812
 20
23.38168080781346
 30
0.0
 10
67.3567819855578
 20
23.22491154899216
 30
0.0
 10
68.07878057370259
 20
23.1353023975035
 30
0.0
 10
70.23869912761927
 20
22.83227232184891
 30
0.0
 10
73.10238639027231
 20
22.33703509223431
 30
0.0
 10
75.93262057890985
 20
21.65352351951372
 30
0.0
 10
78.04233641882826
 20
21.0679519053517
 30
0.0
 10
78.74341481744645
 20
20.86060365045674
 30
0.0
 10
80.14117893141163
 20
20.4211850611063
 30
0.0
 10
80.83838817404832
 20
20.18890176049146
 30
0.0
 10
84.29686967994554
 20
18.97069436820399
 30
0.0
 10
86.98728052323266
 20
17.81102797424705
 30
0.0
 10
92.21851708217906
 20
15.12916149799741
 30
0.0
 10
94.76048163217405
 20
13.60617154184872
 30
0.0
 10
98.45998145741251
 20
11.05760971568233
 30
0.0
 10
99.67037084874525
 20
10.1666859575389
 30
0.0
 10
102.0400215190368
 20
8.31070722546893
 30
0.0
 10
103.1979179930802
 20
7.346851102973388
 30
0.0
 10
106.5951445198996
 20
4.353441219280767
 30
0.0
 10
108.7581184345686
 20
2.22218813261512
 30
0.0
 10
111.8649330524895
 20
-1.158023597991387
 30
0.0
 10
112.8772757854504
 20
-2.315197296338875
 30
0.0
 10
114.8489344150526
 20
-4.675858829558649
 30
0.0
 10
115.8095776982945
 20
-5.880754847737299
 30
0.0
 10
118.62094824602
 20
-9.564263073489023
 30
0.0
 10
120.4027551648872
 20
-12.11394975570729
 30
0.0
 10
122.0979427153
 20
-14.73786809940887
 30
0.0
  0
SPLINE
  5
192
330
1F
100
AcDbEntity
  8
0
  6
Continuous
 62
     7
370
    15
100
AcDbSpline
210
0.0
220
0.0
230
1.0
 70
     8
 71
     3
 72
     9
 73
     5
 74
     0
 42
0.00000001
 43
0.00000001
 12
1.0
 22
0.0
 32
0.0
 13
1.0
 23
0.0
 33
0.0
 40
0.0
 40
0.0
 40
0.0
 40
0.0
 40
0.6721257207447363
 40
1.0
 40
1.0
 40
1.0
 40
1.0
 10
166.2963760015941
 20
28.42440403730657
 30
0.0
 10
166.3296607695841
 20
28.42026287341203
 30
0.0
 10
166.3791824096027
 20
28.41410157982252
 30
0.0
 10
166.3640356464343
 20
28.40538174159484
 30
0.0
 10
166.3590694123774
 20
28.40252273092067
 30
0.0
  0
SPLINE
  5
193
330
1F
100
AcDbEntity
  8
0
  6
Continuous
 62
     7
370
    15
100
AcDbSpline
210
0.0
220
0.0
230
1.0
 70
     8
 71
     3
 72
     9
 73
     5
 74
     0
 42
0.00000001
 43
0.00000001
 12
1.0
 22
0.0
 32
0.0
 13
1.0
 23
0.0
 33
0.0
 40
0.0
 40
0.0
 40
0.0
 40
0.0
 40
0.6645462184304904
 40
0.9999999999999999
 40
0.9999999999999999
 40
0.9999999999999999
 40
0.9999999999999999
 10
125.1317452679175
 20
-16.56177716343903
 30
0.0
 10
125.1715731264959
 20
-16.55830084637217
 30
0.0
 10
125.2315055397334
 20
-16.55306973231199
 30
0.0
 10
125.2862853603521
 20
-16.48597296803175
 30
0.0
 10
125.3046614583323
 20
-16.46346510472288
 30
0.0
  0
SPLINE
  5
195
330
1F
100
AcDbEntity
  8
0
  6
Continuous
 62
     7
370
    15
100
AcDbSpline
210
0.0
220
0.0
230
1.0
 70
     8
 71
     3
 72
    10
 73
     6
 74
     0
 42
0.00000001
 43
0.00000001
 12
1.0
 22
0.0
 32
0.0
 13
1.0
 23
0.0
 33
0.0
 40
0.0
 40
0.0
 40
0.0
 40
0.0
 40
0.0686027052119005
 40
0.4360261916091972
 40
1.0
 40
1.0
 40
1.0
 40
1.0
 10
160.2736522770645
 20
33.67336942108501
 30
0.0
 10
160.2767715973789
 20
33.67288450529085
 30
0.0
 10
160.29659742426
 20
33.66980246958519
 30
0.0
 10
160.3408409254055
 20
33.66023120847832
 30
0.0
 10
160.3644476316642
 20
33.62923713358732
 30
0.0
 10
160.3787418153673
 20
33.61046979707946
 30
0.0
  0
SPLINE
  5
1A9
330
1F
100
AcDbEntity
  8
0
  6
Continuous
 62
     7
370
    15
100
AcDbSpline
210
0.0
220
0.0
230
1.0
 70
     8
 71
     3
 72
     9
 73
     5
 74
     0
 42
0.00000001
 43
0.00000001
 12
1.0
 22
0.0
 32
0.0
 13
1.0
 23
0.0
 33
0.0
 40
0.0
 40
0.0
 40
0.0
 40
0.0
 40
0.5011140754304952
 40
1.0
 40
1.0
 40
1.0
 40
1.0
 10
124.0390493463402
 20
-0.1914957167160891
 30
0.0
 10
122.7153796650562
 20
1.482118232823987
 30
0.0
 10
120.0739258600581
 20
4.821904584070031
 30
0.0
 10
117.1396669249538
 20
7.839140465144001
 30
0.0
 10
115.675806443188
 20
9.34439697731789
 30
0.0
  0
SPLINE
  5
1AC
330
1F
100
AcDbEntity
  8
0
  6
Continuous
 62
     7
370
    15
100
AcDbSpline
210
0.0
220
0.0
230
1.0
 70
     8
 71
     3
 72
     8
 73
     4
 74
     0
 42
0.00000001
 43
0.00000001
 12
1.0
 22
0.0
 32
0.0
 13
1.0
 23
0.0
 33
0.0
 40
0.307956085401099
 40
0.307956085401099
 40
0.307956085401099
 40
0.307956085401099
 40
0.3443996454360946
 40
0.3443996454360946
 40
0.3443996454360946
 40
0.3443996454360946
 10
90.4738528164967
 20
26.67329348852607
 30
0.0
 10
91.18282043668074
 20
26.37173128148027
 30
0.0
 10
91.88840130608853
 20
26.05822014423805
 30
0.0
 10
92.59057435456714
 20
25.73268573835451
 30
0.0
  0
LWPOLYLINE
  5
1B3
330
1F
100
AcDbEntity
  8
0
  6
Continuous
 62
     7
370
    15
100
AcDbPolyline
 90
       19
 70
   128
 43
0.0
 10
136.5115192783
 20
26.7060592849
 10
136.1682125049
 20
27.2752416611
 10
136.0219721752
 20
27.9458815079
 10
136.0904370314
 20
28.6370897622
 10
136.3653492013
 20
29.2654965074
 10
136.8135502199
 20
29.7553066158
 10
137.3809804297
 20
30.0474417593
 10
137.999199373
 20
30.1066661283
 10
138.5936407213
 20
29.9258363898
 10
139.092606075
 20
29.5267632791
 10
139.4359128484
 20
28.9575809029
 10
139.5821531781
 20
28.2869410561
 10
139.5136883219
 20
27.5957328018
 10
139.2387761521
 20
26.9673260566
 10
138.7905751334
 20
26.4775159482
 10
138.2231449236
 20
26.1853808047
 10
137.6049259803
 20
26.1261564357
 10
137.010484632
 20
26.3069861741
 10
136.5115192783
 20
26.7060592849
  0
LWPOLYLINE
  5
1B4
330
1F
100
AcDbEntity
  8
0
  6
Continuous
 62
     7
370
    15
100
AcDbPolyline
 90
       19
 70
   128
 43
0.0
 10
55.6762304035
 20
80.5642908951
 10
55.33292363
 20
81.1334732713
 10
55.1866833004
 20
81.8041131181
 10
55.2551481565
 20
82.4953213724
 10
55.5300603264
 20
83.1237281176
 10
55.978261345
 20
83.6135382259
 10
56.5456915549
 20
83.9056733695
 10
57.1639104982
 20
83.9648977385
 10
57.7583518465
 20
83.784068
 10
58.2573172001
 20
83.3849948892
 10
58.6006239736
 20
82.815812513
 10
58.7468643032
 20
82.1451726662
 10
58.6783994471
 20
81.4539644119
 10
58.4034872772
 20
80.8255576667
 10
57.9552862586
 20
80.3357475584
 10
57.3878560488
 20
80.0436124148
 10
56.7696371054
 20
79.9843880458
 10
56.1751957571
 20
80.1652177843
 10
55.6762304035
 20
80.5642908951
  0
SPLINE
  5
1B5
330
1F
100
AcDbEntity
  8
0
  6
Continuous
 62
     7
370
    15
100
AcDbSpline
210
0.0
220
0.0
230
1.0
 70
     8
 71
     3
 72
    14
 73
    10
 74
     0
 42
0.00000001
 43
0.00000001
 12
1.0
 22
0.0
 32
0.0
 13
1.0
 23
0.0
 33
0.0
 40
0.0
 40
0.0
 40
0.0
 40
0.0
 40
0.0578674674212271
 40
0.1855617914203097
 40
0.3132522615461621
 40
0.4430595244465058
 40
0.5728670374761252
 40
0.7852931423584955
 40
0.9999999999999999
 40
0.9999999999999999
 40
0.9999999999999999
 40
0.9999999999999999
 10
98.68730429892618
 20
9.893158681545874
 30
0.0
 10
98.12979479821094
 20
10.31645065739786
 30
0.0
 10
96.34204658152274
 20
11.67380774996215
 30
0.0
 10
93.14113051252811
 20
13.64767329458747
 30
0.0
 10
89.11152470987976
 20
15.8649119815423
 30
0.0
 10
84.92258541086667
 20
17.7736098281103
 30
0.0
 10
79.68899475800423
 20
19.71719978701807
 30
0.0
 10
73.34403484874818
 20
21.45430301143065
 30
0.0
 10
68.36218810488654
 20
22.06930410460789
 30
0.0
 10
65.857964002617
 20
22.37844660529887
 30
0.0
  0
SPLINE
  5
1B6
330
1F
100
AcDbEntity
  8
0
  6
Continuous
 62
     7
370
    15
100
AcDbSpline
210
0.0
220
0.0
230
1.0
 70
     8
 71
     3
 72
    14
 73
    10
 74
     0
 42
0.00000001
 43
0.00000001
 12
1.0
 22
0.0
 32
0.0
 13
1.0
 23
0.0
 33
0.0
 40
0.0
 40
0.0
 40
0.0
 40
0.0
 40
0.25
 40
0.25
 40
0.5
 40
0.5
 40
0.75
 40
0.75
 40
1.0
 40
1.0
 40
1.0
 40
1.0
 10
65.85796400261698
 20
22.37844660529887
 30
0.0
 10
65.78070574860254
 20
22.38573429594739
 30
0.0
 10
65.66509682909468
 20
22.44169191516697
 30
0.0
 10
65.41367651016603
 20
22.60440937260389
 30
0.0
 10
65.28292977565427
 20
22.70637263965842
 30
0.0
 10
65.02941109117342
 20
22.92315823593711
 30
0.0
 10
64.90637055016488
 20
23.0383241432787
 30
0.0
 10
64.67080836846358
 20
23.27421929518901
 30
0.0
 10
64.5602131315956
 20
23.39300701849656
 30
0.0
 10
64.45621079834874
 20
23.51256556327296
 30
0.0
  0
SPLINE
  5
1B9
330
1F
100
AcDbEntity
  8
0
  6
Continuous
 62
     7
370
    15
100
AcDbSpline
210
0.0
220
0.0
230
1.0
 70
     8
 71
     3
 72
    10
 73
     6
 74
     0
 42
0.00000001
 43
0.00000001
 12
1.0
 22
0.0
 32
0.0
 13
1.0
 23
0.0
 33
0.0
 40
0.0
 40
0.0
 40
0.0
 40
0.0
 40
0.080514675118809
 40
0.6870524169993194
 40
1.0
 40
1.0
 40
1.0
 40
1.0
 10
100.1468076328105
 20
22.37492164309831
 30
0.0
 10
100.4552371732136
 20
22.21332507688198
 30
0.0
 10
103.0871457152926
 20
20.83438004314878
 30
0.0
 10
106.6817515924912
 20
18.30499540824024
 30
0.0
 10
109.8107029523479
 20
15.73667606853519
 30
0.0
 10
110.8756441089894
 20
14.86254647887757
 30
0.0
  0
LWPOLYLINE
  5
1D0
330
1F
100
AcDbEntity
  8
0
  6
Continuous
 62
     7
370
    15
100
AcDbPolyline
 90
        3
 70
   128
 43
0.0
 10
65.1836556644
 20
32.1005046304
 10
65.1239204362
 20
32.1479539389
 10
65.0639283706
 20
32.1956746189
  0
LWPOLYLINE
  5
1D2
330
1F
100
AcDbEntity
  8
0
  6
Continuous
 62
     7
370
    15
100
AcDbPolyline
 90
        8
 70
   128
 43
0.0
 10
68.121946207
 20
46.9889300624
 10
67.9981293132
 20
47.1126351538
 10
67.8716553587
 20
47.2028471692
 10
67.7473846665
 20
47.2560993114
 10
67.6300928897
 20
47.2703451304
 10
67.5242874854
 20
47.2450371675
 10
67.4340344961
 20
47.1811479934
 10
67.4251488715
 20
47.1717879613
  0
SPLINE
  5
1D5
330
1F
100
AcDbEntity
  8
0
  6
Continuous
 62
     7
370
    15
100
AcDbSpline
210
0.0
220
0.0
230
1.0
 70
     8
 71
     3
 72
     9
 73
     5
 74
     0
 42
0.00000001
 43
0.00000001
 12
1.0
 22
0.0
 32
0.0
 13
1.0
 23
0.0
 33
0.0
 40
0.0
 40
0.0
 40
0.0
 40
0.0
 40
0.6187008909379869
 40
1.0
 40
1.0
 40
1.0
 40
1.0
 10
65.06392837063264
 20
32.19567461892331
 30
0.0
 10
64.97330254082704
 20
32.25660641063635
 30
0.0
 10
64.82682492760071
 20
32.35508985005836
 30
0.0
 10
64.65614139369784
 20
32.36696490693389
 30
0.0
 10
64.59105991428909
 20
32.37149285554057
 30
0.0
  0
SPLINE
  5
1D8
330
1F
100
AcDbEntity
  8
0
  6
Continuous
 62
     7
370
    15
100
AcDbSpline
210
0.0
220
0.0
230
1.0
 70
     8
 71
     3
 72
     9
 73
     5
 74
     0
 42
0.00000001
 43
0.00000001
 12
1.0
 22
0.0
 32
0.0
 13
1.0
 23
0.0
 33
0.0
 40
0.0
 40
0.0
 40
0.0
 40
0.0
 40
0.911198100035715
 40
1.0
 40
1.0
 40
1.0
 40
1.0
 10
60.62530473344248
 20
36.71996581517296
 30
0.0
 10
60.65910673467561
 20
36.79609022207455
 30
0.0
 10
60.69620295034137
 20
36.87963342403977
 30
0.0
 10
60.75995523764395
 20
36.94346577324279
 30
0.0
 10
60.7656165618835
 20
36.94913420713121
 30
0.0
  0
SPLINE
  5
1D9
330
1F
100
AcDbEntity
  8
0
  6
Continuous
 62
     7
370
    15
100
AcDbSpline
210
0.0
220
0.0
230
1.0
 70
     8
 71
     3
 72
    11
 73
     7
 74
     0
 42
0.00000001
 43
0.00000001
 12
1.0
 22
0.0
 32
0.0
 13
1.0
 23
0.0
 33
0.0
 40
0.0
 40
0.0
 40
0.0
 40
0.0
 40
0.2187395992976849
 40
0.4818336429478998
 40
0.7537021853935827
 40
1.0
 40
1.0
 40
1.0
 40
1.0
 10
61.42457863627596
 20
36.78287389618087
 30
0.0
 10
61.49656994501883
 20
36.77789425425745
 30
0.0
 10
61.65515044285063
 20
36.76692523439896
 30
0.0
 10
61.8841652123719
 20
36.79857133969838
 30
0.0
 10
62.08152058714448
 20
36.82493026855002
 30
0.0
 10
62.16875678325953
 20
36.82311358418994
 30
0.0
 10
62.21022239399495
 20
36.82225006732585
 30
0.0
  0
LWPOLYLINE
  5
1E8
330
1F
100
AcDbEntity
  8
0
  6
Continuous
 62
     7
370
    15
100
AcDbPolyline
 90
       19
 70
   128
 43
0.0
 10
40.4367540512
 20
49.849400436
 10
40.7800608246
 20
49.2802180598
 10
40.9263011543
 20
48.609578213
 10
40.8578362981
 20
47.9183699587
 10
40.5829241283
 20
47.2899632135
 10
40.1347231096
 20
46.8001531052
 10
39.5672928998
 20
46.5080179616
 10
38.9490739565
 20
46.4487935926
 10
38.3546326082
 20
46.6296233311
 10
37.8556672545
 20
47.0286964419
 10
37.5123604811
 20
47.5978788181
 10
37.3661201514
 20
48.2685186649
 10
37.4345850076
 20
48.9597269192
 10
37.7094971775
 20
49.5881336644
 10
38.1576981961
 20
50.0779437727
 10
38.7251284059
 20
50.3700789163
 10
39.3433473492
 20
50.4293032853
 10
39.9377886975
 20
50.2484735468
 10
40.4367540512
 20
49.849400436
  0
LWPOLYLINE
  5
1F1
330
1F
100
AcDbEntity
  8
0
  6
Continuous
 62
     7
370
    15
100
AcDbPolyline
 90
        9
 70
   128
 43
0.0
 10
59.8304422047
 20
90.1177658003
 10
59.8763342351
 20
90.3082093858
 10
59.9378448156
 20
90.4896946906
 10
60.0126101289
 20
90.6552473361
 10
60.0977569859
 20
90.7985052271
 10
60.1900132409
 20
90.9139630431
 10
60.2858335375
 20
90.9971838049
 10
60.3815355555
 20
91.0449693855
 10
60.4734415201
 20
91.0554834117
  0
LWPOLYLINE
  5
1F5
330
1F
100
AcDbEntity
  8
0
  6
Continuous
 62
     7
370
    15
100
AcDbPolyline
 90
        9
 70
   128
 43
0.0
 10
45.6330233007
 20
93.2534574232
 10
45.6789153312
 20
93.4439010088
 10
45.7404259116
 20
93.6253863136
 10
45.8151912249
 20
93.7909389591
 10
45.900338082
 20
93.9341968501
 10
45.9925943369
 20
94.049654666
 10
46.0884146335
 20
94.1328754279
 10
46.1841166515
 20
94.1806610084
 10
46.2760226161
 20
94.1911750346
  0
LWPOLYLINE
  5
1FF
330
1F
100
AcDbEntity
  8
0
  6
Continuous
 62
     7
370
    15
100
AcDbPolyline
 90
        9
 70
   128
 43
0.0
 10
47.3466324091
 20
101.4731579207
 10
47.3925640406
 20
101.6638051093
 10
47.4541127002
 20
101.8454861928
 10
47.5289131075
 20
102.0112192689
 10
47.6140907247
 20
102.1546353087
 10
47.7063722238
 20
102.270222914
 10
47.8022112785
 20
102.3535401181
 10
47.8979248477
 20
102.4013850874
 10
47.9898347127
 20
102.4119191668
  0
LWPOLYLINE
  5
208
330
1F
100
AcDbEntity
  8
0
  6
Continuous
 62
     7
370
    15
100
AcDbPolyline
 90
        9
 70
   128
 43
0.0
 10
47.5727525999
 20
102.4512620881
 10
47.480842735
 20
102.4407280088
 10
47.3851291657
 20
102.3928830395
 10
47.289290111
 20
102.3095658354
 10
47.1970086119
 20
102.1939782301
 10
47.1118309947
 20
102.0505621903
 10
47.0370305875
 20
101.8848291141
 10
46.9754819279
 20
101.7031480307
 10
46.9295502964
 20
101.5125008421
  0
LWPOLYLINE
  5
216
330
1F
100
AcDbEntity
  8
0
  6
Continuous
 62
     7
370
    15
100
AcDbPolyline
 90
        3
 70
   128
 43
0.0
 10
1.2719664768
 20
1.8262699175
 10
1.2262907341
 20
1.7988743887
 10
1.1498784728
 20
1.7935989956
  0
SPLINE
  5
217
330
1F
100
AcDbEntity
  8
0
  6
Continuous
 62
     7
370
    15
100
AcDbSpline
210
0.0
220
0.0
230
1.0
 70
     8
 71
     3
 72
    12
 73
     8
 74
     0
 42
0.00000001
 43
0.00000001
 12
1.0
 22
0.0
 32
0.0
 13
1.0
 23
0.0
 33
0.0
 40
0.0
 40
0.0
 40
0.0
 40
0.0
 40
0.4999999999999999
 40
0.4999999999999999
 40
0.7499999999999999
 40
0.7499999999999999
 40
1.0
 40
1.0
 40
1.0
 40
1.0
 10
29.05889633174485
 20
33.40683372995207
 30
0.0
 10
29.14447628888649
 20
33.21228933892827
 30
0.0
 10
29.19717036886221
 20
32.99314613656901
 30
0.0
 10
29.19637315663226
 20
32.68524565706085
 30
0.0
 10
29.18313886256421
 20
32.58575830512864
 30
0.0
 10
29.12083380184622
 20
32.39610227824088
 30
0.0
 10
29.0712781241403
 20
32.30710347039642
 30
0.0
 10
29.00063717759352
 20
32.22990451670958
 30
0.0
  0
LWPOLYLINE
  5
21A
330
1F
100
AcDbEntity
  8
0
  6
Continuous
 62
     7
370
    15
100
AcDbPolyline
 90
        9
 70
   128
 43
0.0
 10
32.2324964266
 20
103.9704107879
 10
32.0399378419
 20
104.200942669
 10
31.8721613307
 20
104.4209756986
 10
31.73561445
 20
104.6220541308
 10
31.63554462
 20
104.7964506341
 10
31.5757974681
 20
104.9374632489
 10
31.5586690439
 20
105.0396729393
 10
31.5848175831
 20
105.0991518444
 10
31.6532382119
 20
105.113614223
  0
LWPOLYLINE
  5
227
330
1F
100
AcDbEntity
  8
0
  6
Continuous
 62
     7
370
    15
100
AcDbPolyline
 90
       10
 70
   128
 43
0.0
 10
25.7761743076
 20
105.6346980218
 10
26.1598326288
 20
105.5201477954
 10
26.6457313954
 20
105.2486844504
 10
27.1752640451
 20
104.8530504724
 10
27.6845611251
 20
104.3809651583
 10
28.1121938913
 20
103.889368964
 10
28.4065835208
 20
103.4375556458
 10
28.5322222795
 20
103.080020558
 10
28.4739562791
 20
102.8598877088
 10
28.2388132589
 20
102.8037083686
  0
LWPOLYLINE
  5
22F
330
1F
100
AcDbEntity
  8
0
  6
Continuous
 62
     7
370
    15
100
AcDbPolyline
 90
       19
 70
   128
 43
0.0
 10
6.0025867032
 20
56.5004985725
 10
6.1822082431
 20
56.5038326532
 10
6.3091180438
 20
56.5620151682
 10
6.3793741984
 20
56.6732389281
 10
6.390794502
 20
56.8340492453
 10
6.343024232
 20
57.0394512396
 10
6.2375471662
 20
57.283064982
 10
6.0776394956
 20
57.55732366
 10
5.8682680639
 20
57.8537086083
 10
5.6159360935
 20
58.163013904
 10
5.328481191
 20
58.4756323092
 10
5.0148319057
 20
58.7818536788
 10
4.6847304029
 20
59.0721665638
 10
4.348429865
 20
59.3375536439
 10
4.0163760209
 20
59.5697718117
 10
3.6988826939
 20
59.7616082092
 10
3.405811448
 20
59.9071042644
 10
3.14626528
 20
60.0017407685
 10
2.9283058745
 20
60.0425782459
  0
LWPOLYLINE
  5
236
330
1F
100
AcDbEntity
  8
0
  6
Continuous
 62
     7
370
    15
100
AcDbPolyline
 90
       19
 70
   128
 43
0.0
 10
9.9624821183
 20
91.8043354382
 10
9.4635167646
 20
92.203408549
 10
8.8690754163
 20
92.3842382875
 10
8.250856473
 20
92.3250139185
 10
7.6834262632
 20
92.0328787749
 10
7.2352252445
 20
91.5430686666
 10
6.9603130747
 20
90.9146619214
 10
6.8918482185
 20
90.2234536671
 10
7.0380885482
 20
89.5528138202
 10
7.3813953216
 20
88.9836314441
 10
7.8803606753
 20
88.5845583333
 10
8.4748020236
 20
88.4037285948
 10
9.0930209669
 20
88.4629529638
 10
9.6604511767
 20
88.7550881074
 10
10.1086521953
 20
89.2448982157
 10
10.3835643652
 20
89.8733049609
 10
10.4520292214
 20
90.5645132152
 10
10.3057888917
 20
91.235153062
 10
9.9624821183
 20
91.8043354382
  0
LWPOLYLINE
  5
254
330
1F
100
AcDbEntity
  8
0
  6
Continuous
 62
     7
370
    15
100
AcDbPolyline
 90
        8
 70
   128
 43
0.0
 10
-39.2070220364
 20
-70.3040063113
 10
-39.3184402155
 20
-70.1667514608
 10
-39.4081945014
 20
-70.0364108778
 10
-39.4728356873
 20
-69.9179934778
 10
-39.5098796488
 20
-69.8160499752
 10
-39.5179028071
 20
-69.7344980014
 10
-39.4965968368
 20
-69.6764715532
 10
-39.4924562571
 20
-69.6715960832
  0
LWPOLYLINE
  5
256
330
1F
100
AcDbEntity
  8
0
  6
Continuous
 62
     7
370
    15
100
AcDbPolyline
 90
        8
 70
   128
 43
0.0
 10
-46.6733607596
 20
-77.5191454326
 10
-46.6775013393
 20
-77.5240209026
 10
-46.6988073096
 20
-77.5820473508
 10
-46.6907841513
 20
-77.6635993246
 10
-46.6537401898
 20
-77.7655428273
 10
-46.5890990038
 20
-77.8839602272
 10
-46.4993447179
 20
-78.0143008102
 10
-46.3879265389
 20
-78.1515556607
  0
LWPOLYLINE
  5
258
330
1F
100
AcDbEntity
  8
0
  6
Continuous
 62
     7
370
    15
100
AcDbPolyline
 90
        8
 70
   128
 43
0.0
 10
-71.7766986821
 20
-98.9440809512
 10
-71.8938938682
 20
-99.0824737841
 10
-71.9892031541
 20
-99.2171878987
 10
-72.0589638573
 20
-99.3430463069
 10
-72.1004951132
 20
-99.4552123409
 10
-72.1122008988
 20
-99.5493755228
 10
-72.0936313675
 20
-99.6219172144
 10
-72.0813871081
 20
-99.6400742091
  0
LWPOLYLINE
  5
25C
330
1F
100
AcDbEntity
  8
0
  6
Continuous
 62
     7
370
    15
100
AcDbPolyline
 90
        9
 70
   128
 43
0.0
 10
-84.7537802496
 20
-68.6341370689
 10
-84.7742703147
 20
-68.4435581105
 10
-84.7765908032
 20
-68.2619426351
 10
-84.76065254
 20
-68.0962700237
 10
-84.7270680235
 20
-67.9529069818
 10
-84.6771278879
 20
-67.8373628706
 10
-84.6127513046
 20
-67.7540779857
 10
-84.5364122297
 20
-67.7062529183
 10
-84.5114729161
 20
-67.6991032755
  0
LWPOLYLINE
  5
25E
330
1F
100
AcDbEntity
  8
0
  6
Continuous
 62
     7
370
    15
100
AcDbPolyline
 90
        3
 70
   128
 43
0.0
 10
-86.9449326016
 20
-49.7316193906
 10
-87.0132730087
 20
-49.7281996489
 10
-87.1876756571
 20
-49.7461921846
  0
SPLINE
  5
261
330
1F
100
AcDbEntity
  8
0
  6
Continuous
 62
     7
370
    15
100
AcDbSpline
210
0.0
220
0.0
230
1.0
 70
     8
 71
     3
 72
     9
 73
     5
 74
     0
 42
0.00000001
 43
0.00000001
 12
1.0
 22
0.0
 32
0.0
 13
1.0
 23
0.0
 33
0.0
 40
0.0
 40
0.0
 40
0.0
 40
0.0
 40
0.4841361992478013
 40
1.0
 40
1.0
 40
1.0
 40
1.0
 10
158.9764407794343
 20
34.75787997116257
 30
0.0
 10
157.060113959835
 20
36.33989595718512
 30
0.0
 10
153.1018748887292
 20
39.60760448317534
 30
0.0
 10
148.9641222819604
 20
42.58829707415841
 30
0.0
 10
146.8296054956604
 20
44.12592848301686
 30
0.0
  0
LWPOLYLINE
  5
262
330
1F
100
AcDbEntity
  8
0
  6
Continuous
 62
     7
370
    15
100
AcDbPolyline
 90
        3
 70
   128
 43
0.0
 10
160.4055422824
 20
33.5588928744
 10
160.4832751777
 20
33.5351539569
 10
160.5071821434
 20
33.5177311686
  0
LWPOLYLINE
  5
263
330
1F
100
AcDbEntity
  8
0
  6
Continuous
 62
     7
370
    15
100
AcDbPolyline
 90
        3
 70
   128
 43
0.0
 10
158.9764407794
 20
34.7578799712
 10
159.054268771
 20
34.7340612704
 10
159.0771537129
 20
34.7175452753
  0
LWPOLYLINE
  5
265
330
1F
100
AcDbEntity
  8
0
  6
Continuous
 62
     7
370
    15
100
AcDbPolyline
 90
        3
 70
   128
 43
0.0
 10
90.4699287095
 20
74.6060434807
 10
90.5457719853
 20
74.5841699466
 10
90.5759702557
 20
74.5606891738
  0
LWPOLYLINE
  5
266
330
1F
100
AcDbEntity
  8
0
  6
Continuous
 62
     7
370
    15
100
AcDbPolyline
 90
        8
 70
   128
 43
0.0
 10
67.1858239196
 20
46.9102450915
 10
67.1816833399
 20
46.9053696216
 10
67.1603773695
 20
46.8473431733
 10
67.1684005279
 20
46.7657911996
 10
67.2054444893
 20
46.6638476969
 10
67.2700856753
 20
46.545430297
 10
67.3598399612
 20
46.415089714
 10
67.4712581402
 20
46.2778348635
  0
LWPOLYLINE
  5
268
330
1F
100
AcDbEntity
  8
0
  6
Continuous
 62
     7
370
    15
100
AcDbPolyline
 90
        8
 70
   128
 43
0.0
 10
60.2903536378
 20
38.4302855141
 10
60.1789354588
 20
38.5675403646
 10
60.0891811728
 20
38.6978809476
 10
60.0245399869
 20
38.8162983475
 10
59.9874960254
 20
38.9182418502
 10
59.9794728671
 20
38.9997938239
 10
60.0007788374
 20
39.0578202721
 10
60.0049194171
 20
39.0626957421
  0
LWPOLYLINE
  5
26B
330
1F
100
AcDbEntity
  8
0
  6
Continuous
 62
     7
370
    15
100
AcDbPolyline
 90
        8
 70
   128
 43
0.0
 10
60.8032759997
 20
37.8406424815
 10
60.6860808136
 20
37.7022496486
 10
60.5907715277
 20
37.5675355341
 10
60.5210108245
 20
37.4416771258
 10
60.4794795686
 20
37.3295110918
 10
60.467773783
 20
37.2353479099
 10
60.4863433143
 20
37.1628062184
 10
60.5011039424
 20
37.1416595934
  0
LWPOLYLINE
  5
26C
330
1F
100
AcDbEntity
  8
0
  6
Continuous
 62
     7
370
    15
100
AcDbPolyline
 90
        8
 70
   128
 43
0.0
 10
60.2903536378
 20
38.4302855141
 10
60.1731584517
 20
38.2918926812
 10
60.0778491658
 20
38.1571785666
 10
60.0080884626
 20
38.0313201584
 10
59.9665572067
 20
37.9191541244
 10
59.9548514211
 20
37.8249909425
 10
59.9734209524
 20
37.7524492509
 10
59.9881815805
 20
37.731302626
  0
LINE
  5
274
330
1F
100
AcDbEntity
  8
0
  6
Continuous
 62
     7
370
    15
100
AcDbLine
 10
-29.8088275942
 20
-185.9871296677
 30
0.0
 11
11.245716404
 21
-141.1212551901
 31
0.0
  0
LINE
  5
275
330
1F
100
AcDbEntity
  8
0
  6
Continuous
 62
     7
370
    15
100
AcDbLine
 10
-45.6049697131
 20
-49.4025230534
 30
0.0
 11
-23.585339671
 21
-25.3386835534
 31
0.0
  0
LINE
  5
276
330
1F
100
AcDbEntity
  8
0
  6
Continuous
 62
     7
370
    15
100
AcDbLine
 10
-20.5175137322
 20
-21.9860536109
 30
0.0
 11
-1.9324175111
 21
-1.6755955469
 31
0.0
  0
LINE
  5
277
330
1F
100
AcDbEntity
  8
0
  6
Continuous
 62
     7
370
    15
100
AcDbLine
 10
-36.9381677432
 20
-71.3267137279
 30
0.0
 11
-33.9289105685
 21
-74.786082354
 31
0.0
  0
LINE
  5
278
330
1F
100
AcDbEntity
  8
0
  6
Continuous
 62
     7
370
    15
100
AcDbLine
 10
-21.7940172314
 20
-76.7750130696
 30
0.0
 11
-25.939276148
 21
-72.0097245581
 31
0.0
  0
LINE
  5
279
330
1F
100
AcDbEntity
  8
0
  6
Continuous
 62
     7
370
    15
100
AcDbLine
 10
-28.9219950822
 20
-68.5808636459
 30
0.0
 11
-45.6058736342
 21
-49.4014839278
 31
0.0
  0
LINE
  5
27A
330
1F
100
AcDbEntity
  8
0
  6
Continuous
 62
     7
370
    15
100
AcDbLine
 10
-33.7810306777
 20
-32.1337412279
 30
0.0
 11
-30.7133769496
 21
-32.4231098095
 31
0.0
  0
LINE
  5
27B
330
1F
100
AcDbEntity
  8
0
  6
Continuous
 62
     7
370
    15
100
AcDbLine
 10
-35.1898998321
 20
-70.15840294
 30
0.0
 11
-36.6966780491
 21
-70.0162701199
 31
0.0
  0
LINE
  5
27C
330
1F
100
AcDbEntity
  8
0
  6
Continuous
 62
     7
370
    15
100
AcDbLine
 10
-39.4924562571
 20
-69.6715960832
 30
0.0
 11
-46.9126857115
 21
-77.7806883024
 31
0.0
  0
LINE
  5
27D
330
1F
100
AcDbEntity
  8
0
  6
Continuous
 62
     7
370
    15
100
AcDbLine
 10
-36.9720182784
 20
-69.510392765
 30
0.0
 11
-38.6607964438
 21
-69.3510920793
 31
0.0
  0
LINE
  5
27E
330
1F
100
AcDbEntity
  8
0
  6
Continuous
 62
     7
370
    15
100
AcDbLine
 10
-35.4005878806
 20
-23.34676445
 30
0.0
 11
-64.4620508576
 21
10.0615843257
 31
0.0
  0
LINE
  5
27F
330
1F
100
AcDbEntity
  8
0
  6
Continuous
 62
     7
370
    15
100
AcDbLine
 10
-95.5181332037
 20
-72.6978595985
 30
0.0
 11
-72.0788707394
 21
-99.6430638393
 31
0.0
  0
LINE
  5
280
330
1F
100
AcDbEntity
  8
0
  6
Continuous
 62
     7
370
    15
100
AcDbLine
 10
-69.1730031408
 20
12.5092419795
 30
0.0
 11
-69.9247642995
 21
12.5801548267
 31
0.0
  0
LINE
  5
281
330
1F
100
AcDbEntity
  8
0
  6
Continuous
 62
     7
370
    15
100
AcDbLine
 10
-86.2682216656
 20
-50.50028197
 30
0.0
 11
-83.8307455443
 21
-66.4876597979
 31
0.0
  0
LINE
  5
282
330
1F
100
AcDbEntity
  8
0
  6
Continuous
 62
     7
370
    15
100
AcDbLine
 10
-84.5114729161
 20
-67.6991032755
 30
0.0
 11
-86.432492007
 21
-68.1117307402
 31
0.0
  0
LINE
  5
283
330
1F
100
AcDbEntity
  8
0
  6
Continuous
 62
     7
370
    15
100
AcDbLine
 10
-92.6976601809
 20
-51.1782038543
 30
0.0
 11
-90.7254649508
 21
-69.0874001729
 31
0.0
  0
LINE
  5
284
330
1F
100
AcDbEntity
  8
0
  6
Continuous
 62
     7
370
    15
100
AcDbLine
 10
-94.8957523805
 20
-34.9657869879
 30
0.0
 11
-93.1147422937
 21
-51.138860933
 31
0.0
  0
LINE
  5
285
330
1F
100
AcDbEntity
  8
0
  6
Continuous
 62
     7
370
    15
100
AcDbLine
 10
-91.1205437397
 20
-69.247865993
 30
0.0
 11
-91.0439104463
 21
-69.9437609402
 31
0.0
  0
LINE
  5
286
330
1F
100
AcDbEntity
  8
0
  6
Continuous
 62
     7
370
    15
100
AcDbLine
 10
-97.9039615083
 20
-19.6016826996
 30
0.0
 11
-98.8317783364
 21
-19.5141627043
 31
0.0
  0
LINE
  5
287
330
1F
100
AcDbEntity
  8
0
  6
Continuous
 62
     7
370
    15
100
AcDbLine
 10
125.3096863219
 20
-16.4680680304
 30
0.0
 11
166.3642303201
 21
28.3978064473
 31
0.0
  0
LINE
  5
288
330
1F
100
AcDbEntity
  8
0
  6
Continuous
 62
     7
370
    15
100
AcDbLine
 10
160.381021633
 20
33.6246595055
 30
0.0
 11
159.0747657172
 21
34.7181320818
 31
0.0
  0
LINE
  5
289
330
1F
100
AcDbEntity
  8
0
  6
Continuous
 62
     7
370
    15
100
AcDbLine
 10
90.5791425889
 20
74.5571841069
 30
0.0
 11
67.1398801245
 21
101.5023883478
 31
0.0
  0
LINE
  5
28A
330
1F
100
AcDbEntity
  8
0
  6
Continuous
 62
     7
370
    15
100
AcDbLine
 10
69.6964601289
 20
47.0788031211
 30
0.0
 11
67.677939452
 21
47.2692080746
 31
0.0
  0
LINE
  5
28B
330
1F
100
AcDbEntity
  8
0
  6
Continuous
 62
     7
370
    15
100
AcDbLine
 10
67.4251488715
 20
47.1717879613
 30
0.0
 11
60.0049194171
 21
39.0626957421
 31
0.0
  0
LINE
  5
28C
330
1F
100
AcDbEntity
  8
0
  6
Continuous
 62
     7
370
    15
100
AcDbLine
 10
64.5927717138
 20
32.3847050455
 30
0.0
 11
63.966825108
 21
32.443749937
 31
0.0
  0
LINE
  5
28D
330
1F
100
AcDbEntity
  8
0
  6
Continuous
 62
     7
370
    15
100
AcDbLine
 10
59.9881815805
 20
37.731302626
 30
0.0
 11
60.5011039424
 21
37.1416595934
 31
0.0
  0
LINE
  5
28E
330
1F
100
AcDbEntity
  8
0
  6
Continuous
 62
     7
370
    15
100
AcDbLine
 10
61.1616774495
 20
36.8023957227
 30
0.0
 11
61.4243799368
 21
36.7776152706
 31
0.0
  0
LINE
  5
28F
330
1F
100
AcDbEntity
  8
0
  6
Continuous
 62
     7
370
    15
100
AcDbLine
 10
66.964726207
 20
101.592345628
 30
0.0
 11
63.6657308259
 21
101.9035364269
 31
0.0
  0
LINE
  5
290
330
1F
100
AcDbEntity
  8
0
  6
Continuous
 62
     7
370
    15
100
AcDbLine
 10
61.79909065
 20
93.7653096659
 30
0.0
 11
61.4249934818
 21
91.8419423122
 31
0.0
  0
LINE
  5
291
330
1F
100
AcDbEntity
  8
0
  6
Continuous
 62
     7
370
    15
100
AcDbLine
 10
61.505988132
 20
100.2205618772
 30
0.0
 11
33.025044988
 21
104.9836656965
 31
0.0
  0
LINE
  5
292
330
1F
100
AcDbEntity
  8
0
  6
Continuous
 62
     7
370
    15
100
AcDbLine
 10
1.2719664768
 20
1.8262699175
 30
0.0
 11
17.574223821
 21
19.6419599843
 31
0.0
  0
LINE
  5
293
330
1F
100
AcDbEntity
  8
0
  6
Continuous
 62
     7
370
    15
100
AcDbLine
 10
20.6420497598
 20
22.9945899269
 30
0.0
 11
44.7642796802
 21
49.3562257979
 31
0.0
  0
LINE
  5
294
330
1F
100
AcDbEntity
  8
0
  6
Continuous
 62
     7
370
    15
100
AcDbLine
 10
22.0480839007
 20
111.4862040127
 30
0.0
 11
21.1425563965
 21
111.5716214792
 31
0.0
  0
LINE
  5
295
330
1F
100
AcDbEntity
  8
0
  6
Continuous
 62
     7
370
    15
100
AcDbLine
 10
-33.6860029791
 20
-73.7871419162
 30
0.0
 11
-6.90236504
 21
-44.5170241459
 31
0.0
  0
LINE
  5
296
330
1F
100
AcDbEntity
  8
0
  6
Continuous
 62
     7
370
    15
100
AcDbLine
 10
-6.90236504
 20
-44.5170241459
 30
0.0
 11
-25.3064983695
 21
-23.3600815077
 31
0.0
  0
LINE
  5
297
330
1F
100
AcDbEntity
  8
0
  6
Continuous
 62
     7
370
    15
100
AcDbLine
 10
-33.0714588684
 20
-31.8459081458
 30
0.0
 11
-25.3064983695
 21
-23.3600815077
 31
0.0
  0
LINE
  5
298
330
1F
100
AcDbEntity
  8
0
  6
Continuous
 62
     7
370
    15
100
AcDbLine
 10
-39.8806363411
 20
-25.4652084585
 30
0.0
 11
-34.3323903054
 21
-31.843336731
 31
0.0
  0
LINE
  5
299
330
1F
100
AcDbEntity
  8
0
  6
Continuous
 62
     7
370
    15
100
AcDbLine
 10
-39.7425550819
 20
-25.3139828309
 30
0.0
 11
-39.8806363411
 21
-25.4652084585
 31
0.0
  0
LINE
  5
29A
330
1F
100
AcDbEntity
  8
0
  6
Continuous
 62
     7
370
    15
100
AcDbLine
 10
-53.9501454745
 20
-9.0179920628
 30
0.0
 11
-39.7425550819
 21
-25.3139828309
 31
0.0
  0
LINE
  5
29B
330
1F
100
AcDbEntity
  8
0
  6
Continuous
 62
     7
370
    15
100
AcDbLine
 10
-52.3547468949
 20
-7.2744834168
 30
0.0
 11
-53.9501454745
 21
-9.0179920628
 31
0.0
  0
LINE
  5
29C
330
1F
100
AcDbEntity
  8
0
  6
Continuous
 62
     7
370
    15
100
AcDbLine
 10
-36.9247535816
 20
-25.0124272577
 30
0.0
 11
-52.3547468949
 21
-7.2744834168
 31
0.0
  0
LINE
  5
29D
330
1F
100
AcDbEntity
  8
0
  6
Continuous
 62
     7
370
    15
100
AcDbLine
 10
-16.598695058
 20
-2.7993833036
 30
0.0
 11
-36.9247535816
 21
-25.0124272577
 31
0.0
  0
LINE
  5
29E
330
1F
100
AcDbEntity
  8
0
  6
Continuous
 62
     7
370
    15
100
AcDbLine
 10
-14.7517158444
 20
-4.9226255436
 30
0.0
 11
-16.598695058
 21
-2.7993833036
 31
0.0
  0
LINE
  5
29F
330
1F
100
AcDbEntity
  8
0
  6
Continuous
 62
     7
370
    15
100
AcDbLine
 10
-14.7517158444
 20
-4.9226255436
 30
0.0
 11
-10.8801917958
 21
-0.6916855528
 31
0.0
  0
LINE
  5
2A0
330
1F
100
AcDbEntity
  8
0
  6
Continuous
 62
     7
370
    15
100
AcDbLine
 10
-10.8801917958
 20
-0.6916855528
 30
0.0
 11
-12.7271710094
 21
1.4315566871
 31
0.0
  0
LINE
  5
2A1
330
1F
100
AcDbEntity
  8
0
  6
Continuous
 62
     7
370
    15
100
AcDbLine
 10
-10.1459780663
 20
4.2523766818
 30
0.0
 11
-12.7271710094
 21
1.4315566871
 31
0.0
  0
LINE
  5
2A2
330
1F
100
AcDbEntity
  8
0
  6
Continuous
 62
     7
370
    15
100
AcDbLine
 10
-5.2207001636
 20
-1.4096026247
 30
0.0
 11
-10.1459780663
 21
4.2523766818
 31
0.0
  0
LINE
  5
2A3
330
1F
100
AcDbEntity
  8
0
  6
Continuous
 62
     7
370
    15
100
AcDbLine
 10
-23.0900814618
 20
-20.937901815
 30
0.0
 11
-5.2207001636
 21
-1.4096026247
 31
0.0
  0
LINE
  5
2A4
330
1F
100
AcDbEntity
  8
0
  6
Continuous
 62
     7
370
    15
100
AcDbLine
 10
-23.0900814618
 20
-20.937901815
 30
0.0
 11
-2.6610742519
 21
-44.4225900618
 31
0.0
  0
LINE
  5
2A5
330
1F
100
AcDbEntity
  8
0
  6
Continuous
 62
     7
370
    15
100
AcDbLine
 10
-2.6610742519
 20
-44.4225900618
 30
0.0
 11
-28.4212869027
 21
-72.5742720622
 31
0.0
  0
LINE
  5
2A6
330
1F
100
AcDbEntity
  8
0
  6
Continuous
 62
     7
370
    15
100
AcDbLine
 10
-28.4212869027
 20
-72.5742720622
 30
0.0
 11
-26.0073610876
 21
-75.3492622825
 31
0.0
  0
LINE
  5
2A7
330
1F
100
AcDbEntity
  8
0
  6
Continuous
 62
     7
370
    15
100
AcDbLine
 10
6.64957523
 20
-140.9039744499
 30
0.0
 11
-33.0380113731
 21
-184.275988981
 31
0.0
  0
LINE
  5
2A8
330
1F
100
AcDbEntity
  8
0
  6
Continuous
 62
     7
370
    15
100
AcDbLine
 10
-71.7766986821
 20
-98.9440809512
 30
0.0
 11
-95.6387584217
 21
-71.5128392784
 31
0.0
  0
LINE
  5
2A9
330
1F
100
AcDbEntity
  8
0
  6
Continuous
 62
     7
370
    15
100
AcDbLine
 10
-93.9519617175
 20
-69.6694474921
 30
0.0
 11
-95.6387584217
 21
-71.5128392784
 31
0.0
  0
LINE
  5
2AA
330
1F
100
AcDbEntity
  8
0
  6
Continuous
 62
     7
370
    15
100
AcDbLine
 10
-88.6714032302
 20
-70.5103919684
 30
0.0
 11
-93.9519617175
 21
-69.6694474921
 31
0.0
  0
LINE
  5
2AB
330
1F
100
AcDbEntity
  8
0
  6
Continuous
 62
     7
370
    15
100
AcDbLine
 10
-88.6714032302
 20
-70.5103919684
 30
0.0
 11
-67.6091635385
 21
-94.7230288263
 31
0.0
  0
LINE
  5
2AC
330
1F
100
AcDbEntity
  8
0
  6
Continuous
 62
     7
370
    15
100
AcDbLine
 10
-67.3489291226
 20
-94.4386353462
 30
0.0
 11
-67.6091635385
 21
-94.7230288263
 31
0.0
  0
LINE
  5
2AD
330
1F
100
AcDbEntity
  8
0
  6
Continuous
 62
     7
370
    15
100
AcDbLine
 10
-63.0007217183
 20
-99.4372284874
 30
0.0
 11
-67.3489291226
 21
-94.4386353462
 31
0.0
  0
LINE
  5
2AE
330
1F
100
AcDbEntity
  8
0
  6
Continuous
 62
     7
370
    15
100
AcDbLine
 10
-43.2921693754
 20
-155.6422066527
 30
0.0
 11
-46.6111188634
 21
-143.6240838314
 31
0.0
  0
LINE
  5
2AF
330
1F
100
AcDbEntity
  8
0
  6
Continuous
 62
     7
370
    15
100
AcDbLine
 10
-36.1871355609
 20
-169.3775532017
 30
0.0
 11
-43.2921693754
 21
-155.6422066527
 31
0.0
  0
LINE
  5
2B0
330
1F
100
AcDbEntity
  8
0
  6
Continuous
 62
     7
370
    15
100
AcDbLine
 10
-34.0543689162
 20
-167.046789509
 30
0.0
 11
-36.1871355609
 21
-169.3775532017
 31
0.0
  0
LINE
  5
2B1
330
1F
100
AcDbEntity
  8
0
  6
Continuous
 62
     7
370
    15
100
AcDbLine
 10
-5.3380889686
 20
-141.5794611554
 30
0.0
 11
-31.8850668825
 21
-170.5909483832
 31
0.0
  0
LINE
  5
2B2
330
1F
100
AcDbEntity
  8
0
  6
Continuous
 62
     7
370
    15
100
AcDbLine
 10
-27.7814621141
 20
-97.1478469137
 30
0.0
 11
-29.6097926376
 21
-102.034648339
 31
0.0
  0
LINE
  5
2B3
330
1F
100
AcDbEntity
  8
0
  6
Continuous
 62
     7
370
    15
100
AcDbLine
 10
-28.439442015
 20
-87.0230473889
 30
0.0
 11
-27.7814621141
 21
-97.1478469137
 31
0.0
  0
LINE
  5
2B4
330
1F
100
AcDbEntity
  8
0
  6
Continuous
 62
     7
370
    15
100
AcDbLine
 10
-31.6388377105
 20
-78.5593412065
 30
0.0
 11
-28.439442015
 21
-87.0230473889
 31
0.0
  0
LINE
  5
2B5
330
1F
100
AcDbEntity
  8
0
  6
Continuous
 62
     7
370
    15
100
AcDbLine
 10
-33.8055447868
 20
-75.0781632572
 30
0.0
 11
-31.6388377105
 21
-78.5593412065
 31
0.0
  0
LINE
  5
2B6
330
1F
100
AcDbEntity
  8
0
  6
Continuous
 62
     7
370
    15
100
AcDbLine
 10
-24.6056078833
 20
-76.4833812405
 30
0.0
 11
-21.8917267561
 21
-76.7393788211
 31
0.0
  0
LINE
  5
2B7
330
1F
100
AcDbEntity
  8
0
  6
Continuous
 62
     7
370
    15
100
AcDbLine
 10
8.4656003227
 20
-140.8368903201
 30
0.0
 11
11.1794814499
 21
-141.0928879007
 31
0.0
  0
LINE
  5
2B8
330
1F
100
AcDbEntity
  8
0
  6
Continuous
 62
     7
370
    15
100
AcDbLine
 10
-21.451610069
 20
-120.6352235265
 30
0.0
 11
-21.3583767932
 21
-120.9196082208
 31
0.0
  0
LINE
  5
2B9
330
1F
100
AcDbEntity
  8
0
  6
Continuous
 62
     7
370
    15
100
AcDbLine
 10
-21.3583767932
 20
-120.9196082208
 30
0.0
 11
-21.0764773284
 21
-121.2436729675
 31
0.0
  0
LINE
  5
2BA
330
1F
100
AcDbEntity
  8
0
  6
Continuous
 62
     7
370
    15
100
AcDbLine
 10
-30.6847962664
 20
-169.2792497122
 30
0.0
 11
-31.9284953665
 21
-167.2473209472
 31
0.0
  0
LINE
  5
2BB
330
1F
100
AcDbEntity
  8
0
  6
Continuous
 62
     7
370
    15
100
AcDbLine
 10
-34.8952820297
 20
-167.9657694445
 30
0.0
 11
-41.1662958258
 21
-155.8427380908
 31
0.0
  0
LINE
  5
2BC
330
1F
100
AcDbEntity
  8
0
  6
Continuous
 62
     7
370
    15
100
AcDbLine
 10
-41.1662958258
 20
-155.8427380908
 30
0.0
 11
-44.4852453322
 21
-143.8246152307
 31
0.0
  0
LINE
  5
2BD
330
1F
100
AcDbEntity
  8
0
  6
Continuous
 62
     7
370
    15
100
AcDbLine
 10
-44.4852453322
 20
-143.8246152307
 30
0.0
 11
-60.8748481686
 21
-99.6377599256
 31
0.0
  0
LINE
  5
2BE
330
1F
100
AcDbEntity
  8
0
  6
Continuous
 62
     7
370
    15
100
AcDbLine
 10
-60.8748481686
 20
-99.6377599256
 30
0.0
 11
-65.2230555729
 21
-94.6391667844
 31
0.0
  0
LINE
  5
2BF
330
1F
100
AcDbEntity
  8
0
  6
Continuous
 62
     7
370
    15
100
AcDbLine
 10
-65.2230555729
 20
-94.6391667844
 30
0.0
 11
-87.1956488777
 21
-69.7309510146
 31
0.0
  0
LINE
  5
2C0
330
1F
100
AcDbEntity
  8
0
  6
Continuous
 62
     7
370
    15
100
AcDbLine
 10
-87.4338324403
 20
-69.2098019053
 30
0.0
 11
-84.7537802496
 21
-68.6341370689
 31
0.0
  0
LINE
  5
2C1
330
1F
100
AcDbEntity
  8
0
  6
Continuous
 62
     7
370
    15
100
AcDbLine
 10
-83.2944827036
 20
-66.2942726781
 30
0.0
 11
-85.7319588249
 21
-50.3068948503
 31
0.0
  0
LINE
  5
2C2
330
1F
100
AcDbEntity
  8
0
  6
Continuous
 62
     7
370
    15
100
AcDbLine
 10
-87.7895667808
 20
-48.7224481479
 30
0.0
 11
-92.1856986583
 21
-49.6667202583
 31
0.0
  0
LINE
  5
2C3
330
1F
100
AcDbEntity
  8
0
  6
Continuous
 62
     7
370
    15
100
AcDbLine
 10
-92.1856986583
 20
-49.6667202583
 30
0.0
 11
-94.4202009784
 21
-35.0106452565
 31
0.0
  0
LINE
  5
2C4
330
1F
100
AcDbEntity
  8
0
  6
Continuous
 62
     7
370
    15
100
AcDbLine
 10
-94.4202009784
 20
-35.0106452565
 30
0.0
 11
-68.190046489
 21
-6.3453940019
 31
0.0
  0
LINE
  5
2C5
330
1F
100
AcDbEntity
  8
0
  6
Continuous
 62
     7
370
    15
100
AcDbLine
 10
-68.190046489
 20
-6.3453940019
 30
0.0
 11
-44.7072123783
 21
-33.2800139693
 31
0.0
  0
LINE
  5
2C6
330
1F
100
AcDbEntity
  8
0
  6
Continuous
 62
     7
370
    15
100
AcDbLine
 10
-44.7072123783
 20
-33.2800139693
 30
0.0
 11
-59.333734933
 21
-49.2644011059
 31
0.0
  0
LINE
  5
2C7
330
1F
100
AcDbEntity
  8
0
  6
Continuous
 62
     7
370
    15
100
AcDbLine
 10
-59.333734933
 20
-49.2644011059
 30
0.0
 11
-40.8639427978
 21
-70.4968235051
 31
0.0
  0
LINE
  5
2C8
330
1F
100
AcDbEntity
  8
0
  6
Continuous
 62
     7
370
    15
100
AcDbLine
 10
-40.8639427978
 20
-70.4968235051
 30
0.0
 11
-46.1090322027
 21
-76.2288448589
 31
0.0
  0
LINE
  5
2C9
330
1F
100
AcDbEntity
  8
0
  6
Continuous
 62
     7
370
    15
100
AcDbLine
 10
-46.1090322027
 20
-76.2288448589
 30
0.0
 11
-46.0066663293
 21
-76.3465221694
 31
0.0
  0
LINE
  5
2CA
330
1F
100
AcDbEntity
  8
0
  6
Continuous
 62
     7
370
    15
100
AcDbLine
 10
-46.0066663293
 20
-76.3465221694
 30
0.0
 11
-47.9424814268
 21
-78.462050165
 31
0.0
  0
LINE
  5
2CB
330
1F
100
AcDbEntity
  8
0
  6
Continuous
 62
     7
370
    15
100
AcDbLine
 10
-47.9424814268
 20
-78.462050165
 30
0.0
 11
-46.8135278245
 21
-79.7598676811
 31
0.0
  0
LINE
  5
2CC
330
1F
100
AcDbEntity
  8
0
  6
Continuous
 62
     7
370
    15
100
AcDbLine
 10
-46.8135278245
 20
-79.7598676811
 30
0.0
 11
-46.5288064054
 21
-79.4487139279
 31
0.0
  0
LINE
  5
2CD
330
1F
100
AcDbEntity
  8
0
  6
Continuous
 62
     7
370
    15
100
AcDbLine
 10
-41.4176303777
 20
-81.4198488436
 30
0.0
 11
-42.3720997934
 21
-78.8174239715
 31
0.0
  0
LINE
  5
2CE
330
1F
100
AcDbEntity
  8
0
  6
Continuous
 62
     7
370
    15
100
AcDbLine
 10
-42.3720997934
 20
-78.8174239715
 30
0.0
 11
-36.2459152394
 21
-72.1225103162
 31
0.0
  0
LINE
  5
2CF
330
1F
100
AcDbEntity
  8
0
  6
Continuous
 62
     7
370
    15
100
AcDbLine
 10
-32.699030411
 20
-185.8230715208
 30
0.0
 11
8.4656003227
 21
-140.8368903201
 31
0.0
  0
LINE
  5
2D0
330
1F
100
AcDbEntity
  8
0
  6
Continuous
 62
     7
370
    15
100
AcDbLine
 10
11.1794814499
 20
-141.0928879007
 30
0.0
 11
-29.9851492838
 21
-186.0790691014
 31
0.0
  0
LINE
  5
2D1
330
1F
100
AcDbEntity
  8
0
  6
Continuous
 62
     7
370
    15
100
AcDbLine
 10
-32.699030411
 20
-185.8230715208
 30
0.0
 11
-29.9851492838
 21
-186.0790691014
 31
0.0
  0
LINE
  5
2D2
330
1F
100
AcDbEntity
  8
0
  6
Continuous
 62
     7
370
    15
100
AcDbLine
 10
-26.6120328178
 20
-72.744937116
 30
0.0
 11
-28.4212869027
 21
-72.5742720622
 31
0.0
  0
LINE
  5
2D3
330
1F
100
AcDbEntity
  8
0
  6
Continuous
 62
     7
370
    15
100
AcDbLine
 10
-0.8518201671
 20
-44.5932551156
 30
0.0
 11
-2.6610742519
 21
-44.4225900618
 31
0.0
  0
LINE
  5
2D4
330
1F
100
AcDbEntity
  8
0
  6
Continuous
 62
     7
370
    15
100
AcDbLine
 10
-0.8518201671
 20
-44.5932551156
 30
0.0
 11
-26.6120328178
 21
-72.744937116
 31
0.0
  0
LINE
  5
2D5
330
1F
100
AcDbEntity
  8
0
  6
Continuous
 62
     7
370
    15
100
AcDbLine
 10
-23.0900814618
 20
-20.937901815
 30
0.0
 11
-21.280827377
 21
-21.1085668687
 31
0.0
  0
LINE
  5
2D6
330
1F
100
AcDbEntity
  8
0
  6
Continuous
 62
     7
370
    15
100
AcDbLine
 10
-21.280827377
 20
-21.1085668687
 30
0.0
 11
-0.8518201671
 21
-44.5932551156
 31
0.0
  0
LINE
  5
2D7
330
1F
100
AcDbEntity
  8
0
  6
Continuous
 62
     7
370
    15
100
AcDbLine
 10
-5.2207001636
 20
-1.4096026247
 30
0.0
 11
-2.0545055152
 21
-1.7082664688
 31
0.0
  0
LINE
  5
2D8
330
1F
100
AcDbEntity
  8
0
  6
Continuous
 62
     7
370
    15
100
AcDbLine
 10
-10.1459780663
 20
4.2523766818
 30
0.0
 11
-6.5274698967
 21
3.9110465743
 31
0.0
  0
LINE
  5
2D9
330
1F
100
AcDbEntity
  8
0
  6
Continuous
 62
     7
370
    15
100
AcDbLine
 10
-2.2178517318
 20
-1.0431853189
 30
0.0
 11
-6.5274698967
 21
3.9110465743
 31
0.0
  0
LINE
  5
2DA
330
1F
100
AcDbEntity
  8
0
  6
Continuous
 62
     7
370
    15
100
AcDbLine
 10
-29.90526422
 20
-32.1445719898
 30
0.0
 11
-33.0714588684
 21
-31.8459081458
 31
0.0
  0
LINE
  5
2DB
330
1F
100
AcDbEntity
  8
0
  6
Continuous
 62
     7
370
    15
100
AcDbLine
 10
-13.4746022978
 20
-3.5269501689
 30
0.0
 11
-13.8848139307
 21
-3.0553808843
 31
0.0
  0
LINE
  5
2DC
330
1F
100
AcDbEntity
  8
0
  6
Continuous
 62
     7
370
    15
100
AcDbLine
 10
-13.8848139307
 20
-3.0553808843
 30
0.0
 11
-16.598695058
 21
-2.7993833036
 31
0.0
  0
LINE
  5
2DD
330
1F
100
AcDbEntity
  8
0
  6
Continuous
 62
     7
370
    15
100
AcDbLine
 10
-31.9284953665
 20
-167.2473209472
 30
0.0
 11
-34.0543689162
 21
-167.046789509
 31
0.0
  0
LINE
  5
2DE
330
1F
100
AcDbEntity
  8
0
  6
Continuous
 62
     7
370
    15
100
AcDbLine
 10
-23.6302695254
 20
-25.287033289
 30
0.0
 11
-45.6840994642
 21
-49.3882476594
 31
0.0
  0
LINE
  5
2DF
330
1F
100
AcDbEntity
  8
0
  6
Continuous
 62
     7
370
    15
100
AcDbLine
 10
-41.1662958258
 20
-155.8427380908
 30
0.0
 11
-43.2921693754
 21
-155.6422066527
 31
0.0
  0
LINE
  5
2E0
330
1F
100
AcDbEntity
  8
0
  6
Continuous
 62
     7
370
    15
100
AcDbLine
 10
-13.8848139307
 20
-3.0553808843
 30
0.0
 11
-11.2904034288
 21
-0.2201162683
 31
0.0
  0
LINE
  5
2E1
330
1F
100
AcDbEntity
  8
0
  6
Continuous
 62
     7
370
    15
100
AcDbLine
 10
-63.0007217183
 20
-99.4372284874
 30
0.0
 11
-60.8748481686
 21
-99.6377599256
 31
0.0
  0
LINE
  5
2E2
330
1F
100
AcDbEntity
  8
0
  6
Continuous
 62
     7
370
    15
100
AcDbLine
 10
-44.4852453322
 20
-143.8246152307
 30
0.0
 11
-46.6111188634
 21
-143.6240838314
 31
0.0
  0
LINE
  5
2E3
330
1F
100
AcDbEntity
  8
0
  6
Continuous
 62
     7
370
    15
100
AcDbLine
 10
-37.7873045204
 20
-67.2828176491
 30
0.0
 11
-37.3702961176
 21
-67.7622003345
 31
0.0
  0
LINE
  5
2E4
330
1F
100
AcDbEntity
  8
0
  6
Continuous
 62
     7
370
    15
100
AcDbLine
 10
-58.4211750494
 20
-49.3504819294
 30
0.0
 11
-40.426448501
 21
-70.0367805211
 31
0.0
  0
LINE
  5
2E5
330
1F
100
AcDbEntity
  8
0
  6
Continuous
 62
     7
370
    15
100
AcDbLine
 10
-43.7946524948
 20
-33.3660947928
 30
0.0
 11
-58.4211750494
 21
-49.3504819294
 31
0.0
  0
LINE
  5
2E6
330
1F
100
AcDbEntity
  8
0
  6
Continuous
 62
     7
370
    15
100
AcDbLine
 10
-43.7946524948
 20
-33.3660947928
 30
0.0
 11
-38.2705446475
 21
-27.3161305852
 31
0.0
  0
LINE
  5
2E7
330
1F
100
AcDbEntity
  8
0
  6
Continuous
 62
     7
370
    15
100
AcDbLine
 10
-46.2406793723
 20
-48.8832365704
 30
0.0
 11
-33.9156743254
 21
-63.0517616579
 31
0.0
  0
LINE
  5
2E8
330
1F
100
AcDbEntity
  8
0
  6
Continuous
 62
     7
370
    15
100
AcDbLine
 10
-37.7873045204
 20
-67.2828176491
 30
0.0
 11
-33.9156743254
 21
-63.0517616579
 31
0.0
  0
LINE
  5
2E9
330
1F
100
AcDbEntity
  8
0
  6
Continuous
 62
     7
370
    15
100
AcDbLine
 10
-33.3946655922
 20
-73.4687579966
 30
0.0
 11
-36.1453184213
 21
-70.3066746168
 31
0.0
  0
LINE
  5
2EA
330
1F
100
AcDbEntity
  8
0
  6
Continuous
 62
     7
370
    15
100
AcDbLine
 10
-37.5965144542
 20
-70.2311396087
 30
0.0
 11
-38.1094368161
 21
-69.6414965762
 31
0.0
  0
LINE
  5
2EB
330
1F
100
AcDbEntity
  8
0
  6
Continuous
 62
     7
370
    15
100
AcDbLine
 10
-38.1094368161
 20
-69.6414965762
 30
0.0
 11
-36.4206586506
 21
-69.8007972619
 31
0.0
  0
LINE
  5
2EC
330
1F
100
AcDbEntity
  8
0
  6
Continuous
 62
     7
370
    15
100
AcDbLine
 10
-36.4206586506
 20
-69.8007972619
 30
0.0
 11
-38.2676378641
 21
-67.677555022
 31
0.0
  0
LINE
  5
2ED
330
1F
100
AcDbEntity
  8
0
  6
Continuous
 62
     7
370
    15
100
AcDbLine
 10
-38.2676378641
 20
-67.677555022
 30
0.0
 11
-37.3702961176
 21
-67.7622003345
 31
0.0
  0
LINE
  5
2EE
330
1F
100
AcDbEntity
  8
0
  6
Continuous
 62
     7
370
    15
100
AcDbLine
 10
-37.7873045204
 20
-67.2828176491
 30
0.0
 11
-37.6595433051
 21
-67.2948692315
 31
0.0
  0
LINE
  5
2EF
330
1F
100
AcDbEntity
  8
0
  6
Continuous
 62
     7
370
    15
100
AcDbLine
 10
-37.6595433051
 20
-67.2948692315
 30
0.0
 11
-35.1663538015
 21
-70.1609790543
 31
0.0
  0
LINE
  5
2F0
330
1F
100
AcDbEntity
  8
0
  6
Continuous
 62
     7
370
    15
100
AcDbLine
 10
-36.1453184213
 20
-70.3066746168
 30
0.0
 11
-34.6385402043
 21
-70.4488074369
 31
0.0
  0
LINE
  5
2F1
330
1F
100
AcDbEntity
  8
0
  6
Continuous
 62
     7
370
    15
100
AcDbLine
 10
-32.6855973676
 20
-72.6938628726
 30
0.0
 11
-34.6385402043
 21
-70.4488074369
 31
0.0
  0
LINE
  5
2F2
330
1F
100
AcDbEntity
  8
0
  6
Continuous
 62
     7
370
    15
100
AcDbLine
 10
-47.0386146057
 20
-78.8626508595
 30
0.0
 11
-39.2070220364
 21
-70.3040063113
 31
0.0
  0
LINE
  5
2F3
330
1F
100
AcDbEntity
  8
0
  6
Continuous
 62
     7
370
    15
100
AcDbLine
 10
-39.2070220364
 20
-70.3040063113
 30
0.0
 11
-38.6940996745
 21
-70.8936493438
 31
0.0
  0
LINE
  5
2F4
330
1F
100
AcDbEntity
  8
0
  6
Continuous
 62
     7
370
    15
100
AcDbLine
 10
-38.6940996745
 20
-70.8936493438
 30
0.0
 11
-44.8594336181
 21
-77.6313468526
 31
0.0
  0
LINE
  5
2F5
330
1F
100
AcDbEntity
  8
0
  6
Continuous
 62
     7
370
    15
100
AcDbLine
 10
-44.8594336181
 20
-77.6313468526
 30
0.0
 11
-43.5435039273
 21
-81.2193174055
 31
0.0
  0
LINE
  5
2F6
330
1F
100
AcDbEntity
  8
0
  6
Continuous
 62
     7
370
    15
100
AcDbLine
 10
-43.5435039273
 20
-81.2193174055
 30
0.0
 11
-45.910032506
 21
-80.1600413054
 31
0.0
  0
LINE
  5
2F7
330
1F
100
AcDbEntity
  8
0
  6
Continuous
 62
     7
370
    15
100
AcDbLine
 10
-45.910032506
 20
-80.1600413054
 30
0.0
 11
-47.0386146057
 21
-78.8626508595
 31
0.0
  0
LINE
  5
2F8
330
1F
100
AcDbEntity
  8
0
  6
Continuous
 62
     7
370
    15
100
AcDbLine
 10
-45.6840994642
 20
-49.3882476594
 30
0.0
 11
-28.9561949788
 21
-68.6182385164
 31
0.0
  0
LINE
  5
2F9
330
1F
100
AcDbEntity
  8
0
  6
Continuous
 62
     7
370
    15
100
AcDbLine
 10
-44.0456598218
 20
-78.6595587968
 30
0.0
 11
-37.6261264155
 21
-71.6440630206
 31
0.0
  0
LINE
  5
2FA
330
1F
100
AcDbEntity
  8
0
  6
Continuous
 62
     7
370
    15
100
AcDbLine
 10
-44.0456598218
 20
-78.6595587968
 30
0.0
 11
-42.3720997934
 21
-78.8174239715
 31
0.0
  0
LINE
  5
2FB
330
1F
100
AcDbEntity
  8
0
  6
Continuous
 62
     7
370
    15
100
AcDbLine
 10
-55.4325781164
 20
-3.7362837398
 30
0.0
 11
-62.166802833
 21
4.005216688
 31
0.0
  0
LINE
  5
2FC
330
1F
100
AcDbEntity
  8
0
  6
Continuous
 62
     7
370
    15
100
AcDbLine
 10
-64.6294417844
 20
6.8362063412
 30
0.0
 11
-69.3734046717
 21
12.2897503299
 31
0.0
  0
LINE
  5
2FD
330
1F
100
AcDbEntity
  8
0
  6
Continuous
 62
     7
370
    15
100
AcDbLine
 10
-69.3734046717
 20
12.2897503299
 30
0.0
 11
-68.621643513
 21
12.2188374826
 31
0.0
  0
LINE
  5
2FE
330
1F
100
AcDbEntity
  8
0
  6
Continuous
 62
     7
370
    15
100
AcDbLine
 10
-68.621643513
 20
12.2188374826
 30
0.0
 11
-67.016686276
 21
10.3738178018
 31
0.0
  0
LINE
  5
2FF
330
1F
100
AcDbEntity
  8
0
  6
Continuous
 62
     7
370
    15
100
AcDbLine
 10
-67.016686276
 20
10.3738178018
 30
0.0
 11
-64.6022527863
 21
10.146066805
 31
0.0
  0
LINE
  5
300
330
1F
100
AcDbEntity
  8
0
  6
Continuous
 62
     7
370
    15
100
AcDbLine
 10
-43.5435039273
 20
-81.2193174055
 30
0.0
 11
-41.4176303777
 21
-81.4198488436
 31
0.0
  0
LINE
  5
301
330
1F
100
AcDbEntity
  8
0
  6
Continuous
 62
     7
370
    15
100
AcDbLine
 10
-37.6595433051
 20
-67.2948692315
 30
0.0
 11
-33.7879131101
 21
-63.0638132403
 31
0.0
  0
LINE
  5
302
330
1F
100
AcDbEntity
  8
0
  6
Continuous
 62
     7
370
    15
100
AcDbLine
 10
-46.0938140657
 20
-76.2302803699
 30
0.0
 11
-38.2676378641
 21
-67.677555022
 31
0.0
  0
LINE
  5
303
330
1F
100
AcDbEntity
  8
0
  6
Continuous
 62
     7
370
    15
100
AcDbLine
 10
-47.9272632898
 20
-78.4634856761
 30
0.0
 11
-46.8063663875
 21
-79.7520414065
 31
0.0
  0
LINE
  5
304
330
1F
100
AcDbEntity
  8
0
  6
Continuous
 62
     7
370
    15
100
AcDbLine
 10
-47.9272632898
 20
-78.4634856761
 30
0.0
 11
-45.9914481923
 21
-76.3479576804
 31
0.0
  0
LINE
  5
305
330
1F
100
AcDbEntity
  8
0
  6
Continuous
 62
     7
370
    15
100
AcDbLine
 10
-45.9914481923
 20
-76.3479576804
 30
0.0
 11
-46.0938140657
 21
-76.2302803699
 31
0.0
  0
LINE
  5
306
330
1F
100
AcDbEntity
  8
0
  6
Continuous
 62
     7
370
    15
100
AcDbLine
 10
-33.9156743254
 20
-63.0517616579
 30
0.0
 11
-33.7879131101
 21
-63.0638132403
 31
0.0
  0
LINE
  5
307
330
1F
100
AcDbEntity
  8
0
  6
Continuous
 62
     7
370
    15
100
AcDbLine
 10
-40.8487246608
 20
-70.4982590161
 30
0.0
 11
-40.8639427978
 21
-70.4968235051
 31
0.0
  0
LINE
  5
308
330
1F
100
AcDbEntity
  8
0
  6
Continuous
 62
     7
370
    15
100
AcDbLine
 10
-59.333734933
 20
-49.2644011059
 30
0.0
 11
-58.4211750494
 21
-49.3504819294
 31
0.0
  0
LINE
  5
309
330
1F
100
AcDbEntity
  8
0
  6
Continuous
 62
     7
370
    15
100
AcDbLine
 10
-46.1090322027
 20
-76.2288448589
 30
0.0
 11
-46.0938140657
 21
-76.2302803699
 31
0.0
  0
LINE
  5
30A
330
1F
100
AcDbEntity
  8
0
  6
Continuous
 62
     7
370
    15
100
AcDbLine
 10
-47.9424814268
 20
-78.462050165
 30
0.0
 11
-47.9272632898
 21
-78.4634856761
 31
0.0
  0
LINE
  5
30B
330
1F
100
AcDbEntity
  8
0
  6
Continuous
 62
     7
370
    15
100
AcDbLine
 10
-46.0066663293
 20
-76.3465221694
 30
0.0
 11
-45.9914481923
 21
-76.3479576804
 31
0.0
  0
LINE
  5
30C
330
1F
100
AcDbEntity
  8
0
  6
Continuous
 62
     7
370
    15
100
AcDbLine
 10
-61.5784221392
 20
-0.268420695
 30
0.0
 11
-67.2114757678
 21
-6.437701559
 31
0.0
  0
LINE
  5
30D
330
1F
100
AcDbEntity
  8
0
  6
Continuous
 62
     7
370
    15
100
AcDbLine
 10
-43.7636616688
 20
-33.3321538574
 30
0.0
 11
-67.2114757678
 21
-6.437701559
 31
0.0
  0
LINE
  5
30E
330
1F
100
AcDbEntity
  8
0
  6
Continuous
 62
     7
370
    15
100
AcDbLine
 10
-57.0315270889
 20
-5.483672382
 30
0.0
 11
-55.4325781164
 21
-3.7362837398
 31
0.0
  0
LINE
  5
30F
330
1F
100
AcDbEntity
  8
0
  6
Continuous
 62
     7
370
    15
100
AcDbLine
 10
-44.7072123783
 20
-33.2800139693
 30
0.0
 11
-43.7946524948
 21
-33.3660947928
 31
0.0
  0
LINE
  5
310
330
1F
100
AcDbEntity
  8
0
  6
Continuous
 62
     7
370
    15
100
AcDbLine
 10
-70.3159200387
 20
-6.1448625637
 30
0.0
 11
-67.2114757678
 21
-6.437701559
 31
0.0
  0
LINE
  5
311
330
1F
100
AcDbEntity
  8
0
  6
Continuous
 62
     7
370
    15
100
AcDbLine
 10
-65.2230555729
 20
-94.6391667844
 30
0.0
 11
-67.3489291226
 21
-94.4386353462
 31
0.0
  0
LINE
  5
312
330
1F
100
AcDbEntity
  8
0
  6
Continuous
 62
     7
370
    15
100
AcDbLine
 10
-95.2555311298
 20
-33.3997618212
 30
0.0
 11
-95.8104839065
 21
-32.7618016493
 31
0.0
  0
LINE
  5
313
330
1F
100
AcDbEntity
  8
0
  6
Continuous
 62
     7
370
    15
100
AcDbLine
 10
-62.166802833
 20
4.005216688
 30
0.0
 11
-95.8104839065
 21
-32.7618016493
 31
0.0
  0
LINE
  5
314
330
1F
100
AcDbEntity
  8
0
  6
Continuous
 62
     7
370
    15
100
AcDbLine
 10
-63.2253891926
 20
1.6206371365
 30
0.0
 11
-70.3159200387
 21
-6.1448625637
 31
0.0
  0
LINE
  5
315
330
1F
100
AcDbEntity
  8
0
  6
Continuous
 62
     7
370
    15
100
AcDbLine
 10
-95.2555311298
 20
-33.3997618212
 30
0.0
 11
-70.3159200387
 21
-6.1448625637
 31
0.0
  0
LINE
  5
316
330
1F
100
AcDbEntity
  8
0
  6
Continuous
 62
     7
370
    15
100
AcDbLine
 10
-63.2253891926
 20
1.6206371365
 30
0.0
 11
-57.0315270889
 21
-5.483672382
 31
0.0
  0
LINE
  5
317
330
1F
100
AcDbEntity
  8
0
  6
Continuous
 62
     7
370
    15
100
AcDbLine
 10
-87.5231342212
 20
-68.5264755577
 30
0.0
 11
-88.4889300742
 21
-67.4162202092
 31
0.0
  0
LINE
  5
318
330
1F
100
AcDbEntity
  8
0
  6
Continuous
 62
     7
370
    15
100
AcDbLine
 10
-88.3004311878
 20
-67.4340011129
 30
0.0
 11
-88.4889300742
 21
-67.4162202092
 31
0.0
  0
LINE
  5
319
330
1F
100
AcDbEntity
  8
0
  6
Continuous
 62
     7
370
    15
100
AcDbLine
 10
-86.3117178247
 20
-70.7329786354
 30
0.0
 11
-88.6714032302
 21
-70.5103919684
 31
0.0
  0
LINE
  5
31A
330
1F
100
AcDbEntity
  8
0
  6
Continuous
 62
     7
370
    15
100
AcDbLine
 10
-87.940216334
 20
-68.4871326363
 30
0.0
 11
-87.4411940872
 21
-69.0607964357
 31
0.0
  0
LINE
  5
31B
330
1F
100
AcDbEntity
  8
0
  6
Continuous
 62
     7
370
    15
100
AcDbLine
 10
-87.940216334
 20
-68.4871326363
 30
0.0
 11
-87.5231342212
 21
-68.5264755577
 31
0.0
  0
LINE
  5
31C
330
1F
100
AcDbEntity
  8
0
  6
Continuous
 62
     7
370
    15
100
AcDbLine
 10
-98.2731228578
 20
-29.9308119961
 30
0.0
 11
-64.6294417844
 21
6.8362063412
 31
0.0
  0
LINE
  5
31D
330
1F
100
AcDbEntity
  8
0
  6
Continuous
 62
     7
370
    15
100
AcDbLine
 10
-98.2731228578
 20
-29.9308119961
 30
0.0
 11
-101.4121285082
 21
-26.3222876882
 31
0.0
  0
LINE
  5
31E
330
1F
100
AcDbEntity
  8
0
  6
Continuous
 62
     7
370
    15
100
AcDbLine
 10
-75.5188074731
 20
1.9748599167
 30
0.0
 11
-101.4121285082
 21
-26.3222876882
 31
0.0
  0
LINE
  5
31F
330
1F
100
AcDbEntity
  8
0
  6
Continuous
 62
     7
370
    15
100
AcDbLine
 10
-70.8084075633
 20
12.0295422648
 30
0.0
 11
-75.3447360185
 21
2.2376393965
 31
0.0
  0
LINE
  5
320
330
1F
100
AcDbEntity
  8
0
  6
Continuous
 62
     7
370
    15
100
AcDbLine
 10
-95.2357771794
 20
-34.9337128027
 30
0.0
 11
-94.4202009784
 21
-35.0106452565
 31
0.0
  0
LINE
  5
321
330
1F
100
AcDbEntity
  8
0
  6
Continuous
 62
     7
370
    15
100
AcDbLine
 10
-93.9452337811
 20
-33.5233608057
 30
0.0
 11
-95.2357771794
 21
-34.9337128027
 31
0.0
  0
LINE
  5
322
330
1F
100
AcDbEntity
  8
0
  6
Continuous
 62
     7
370
    15
100
AcDbLine
 10
-93.9452337811
 20
-33.5233608057
 30
0.0
 11
-95.2555311298
 21
-33.3997618212
 31
0.0
  0
LINE
  5
323
330
1F
100
AcDbEntity
  8
0
  6
Continuous
 62
     7
370
    15
100
AcDbLine
 10
-91.0359702482
 20
-69.9445099308
 30
0.0
 11
-93.9519617175
 21
-69.6694474921
 31
0.0
  0
LINE
  5
324
330
1F
100
AcDbEntity
  8
0
  6
Continuous
 62
     7
370
    15
100
AcDbLine
 10
-86.3353189706
 20
-70.7062242862
 30
0.0
 11
-90.4740991812
 21
-70.04711136
 31
0.0
  0
LINE
  5
325
330
1F
100
AcDbEntity
  8
0
  6
Continuous
 62
     7
370
    15
100
AcDbLine
 10
-88.4889300742
 20
-67.4162202092
 30
0.0
 11
-88.5250385101
 21
-67.1793853936
 31
0.0
  0
LINE
  5
326
330
1F
100
AcDbEntity
  8
0
  6
Continuous
 62
     7
370
    15
100
AcDbLine
 10
-86.634899488
 20
-49.798334985
 30
0.0
 11
-92.1604830351
 21
-50.9852089421
 31
0.0
  0
LINE
  5
327
330
1F
100
AcDbEntity
  8
0
  6
Continuous
 62
     7
370
    15
100
AcDbLine
 10
-88.5250385101
 20
-67.1793853936
 30
0.0
 11
-87.2673581308
 21
-68.6050966796
 31
0.0
  0
LINE
  5
328
330
1F
100
AcDbEntity
  8
0
  6
Continuous
 62
     7
370
    15
100
AcDbLine
 10
-90.4740991812
 20
-70.04711136
 30
0.0
 11
-90.5833665939
 21
-69.0548710808
 31
0.0
  0
LINE
  5
329
330
1F
100
AcDbEntity
  8
0
  6
Continuous
 62
     7
370
    15
100
AcDbLine
 10
-87.940216334
 20
-68.4871326363
 30
0.0
 11
-90.5833665939
 21
-69.0548710808
 31
0.0
  0
LINE
  5
32A
330
1F
100
AcDbEntity
  8
0
  6
Continuous
 62
     7
370
    15
100
AcDbLine
 10
-91.5838075346
 20
-50.6904642951
 30
0.0
 11
-87.1876756571
 21
-49.7461921846
 31
0.0
  0
LINE
  5
32B
330
1F
100
AcDbEntity
  8
0
  6
Continuous
 62
     7
370
    15
100
AcDbLine
 10
-92.5775651479
 20
-50.9458660208
 30
0.0
 11
-91.4481134783
 21
-50.7032641741
 31
0.0
  0
LINE
  5
32C
330
1F
100
AcDbEntity
  8
0
  6
Continuous
 62
     7
370
    15
100
AcDbLine
 10
-91.5838075346
 20
-50.6904642951
 30
0.0
 11
-91.4481134783
 21
-50.7032641741
 31
0.0
  0
LINE
  5
32D
330
1F
100
AcDbEntity
  8
0
  6
Continuous
 62
     7
370
    15
100
AcDbLine
 10
-93.005413953
 20
-51.1775877449
 30
0.0
 11
-92.694498334
 21
-51.2069160915
 31
0.0
  0
LINE
  5
32E
330
1F
100
AcDbEntity
  8
0
  6
Continuous
 62
     7
370
    15
100
AcDbLine
 10
-96.7100518579
 20
-30.8540110058
 30
0.0
 11
-97.5838123866
 21
-31.8088877719
 31
0.0
  0
LINE
  5
32F
330
1F
100
AcDbEntity
  8
0
  6
Continuous
 62
     7
370
    15
100
AcDbLine
 10
-98.2813191705
 20
-19.8044822616
 30
0.0
 11
-97.3526018805
 21
-19.8920871964
 31
0.0
  0
LINE
  5
330
330
1F
100
AcDbEntity
  8
0
  6
Continuous
 62
     7
370
    15
100
AcDbLine
 10
-97.3526018805
 20
-19.8920871964
 30
0.0
 11
-96.4634677207
 21
-20.9142141328
 31
0.0
  0
LINE
  5
331
330
1F
100
AcDbEntity
  8
0
  6
Continuous
 62
     7
370
    15
100
AcDbLine
 10
-98.2813191705
 20
-19.8044822616
 30
0.0
 11
-96.9005087613
 21
-21.3918282179
 31
0.0
  0
LINE
  5
332
330
1F
100
AcDbEntity
  8
0
  6
Continuous
 62
     7
370
    15
100
AcDbLine
 10
-99.5384566607
 20
-19.8022687259
 30
0.0
 11
-102.3286626647
 21
-22.8710966842
 31
0.0
  0
LINE
  5
333
330
1F
100
AcDbEntity
  8
0
  6
Continuous
 62
     7
370
    15
100
AcDbLine
 10
-102.3544806793
 20
-24.2843779751
 30
0.0
 11
-100.9864239926
 21
-25.8570625633
 31
0.0
  0
LINE
  5
334
330
1F
100
AcDbEntity
  8
0
  6
Continuous
 62
     7
370
    15
100
AcDbLine
 10
-98.965362803
 20
-29.1350298449
 30
0.0
 11
-99.4044971702
 21
-29.6149315921
 31
0.0
  0
LINE
  5
335
330
1F
100
AcDbEntity
  8
0
  6
Continuous
 62
     7
370
    15
100
AcDbLine
 10
-97.5838123866
 20
-31.8088877719
 30
0.0
 11
-99.4044971702
 21
-29.6149315921
 31
0.0
  0
LINE
  5
336
330
1F
100
AcDbEntity
  8
0
  6
Continuous
 62
     7
370
    15
100
AcDbLine
 10
-99.4044971702
 20
-29.6149315921
 30
0.0
 11
-100.8934178217
 21
-27.903304739
 31
0.0
  0
LINE
  5
337
330
1F
100
AcDbEntity
  8
0
  6
Continuous
 62
     7
370
    15
100
AcDbLine
 10
-100.4542834544
 20
-27.4234029917
 30
0.0
 11
-100.8934178217
 21
-27.903304739
 31
0.0
  0
LINE
  5
338
330
1F
100
AcDbEntity
  8
0
  6
Continuous
 62
     7
370
    15
100
AcDbLine
 10
163.5824948744
 20
28.6804016179
 30
0.0
 11
166.2963760016
 21
28.4244040373
 31
0.0
  0
LINE
  5
339
330
1F
100
AcDbEntity
  8
0
  6
Continuous
 62
     7
370
    15
100
AcDbLine
 10
90.8216257832
 20
74.3609077208
 30
0.0
 11
88.107744656
 21
74.6169053015
 31
0.0
  0
LINE
  5
33A
330
1F
100
AcDbEntity
  8
0
  6
Continuous
 62
     7
370
    15
100
AcDbLine
 10
122.0979427153
 20
-14.7378680994
 30
0.0
 11
161.7855293184
 21
28.6341464316
 31
0.0
  0
LINE
  5
33B
330
1F
100
AcDbEntity
  8
0
  6
Continuous
 62
     7
370
    15
100
AcDbLine
 10
163.5824948744
 20
28.6804016179
 30
0.0
 11
122.4178641407
 21
-16.3057795828
 31
0.0
  0
LINE
  5
33C
330
1F
100
AcDbEntity
  8
0
  6
Continuous
 62
     7
370
    15
100
AcDbLine
 10
67.4617640656
 20
29.7413419077
 30
0.0
 11
74.9295638542
 21
25.9423004277
 31
0.0
  0
LINE
  5
33D
330
1F
100
AcDbEntity
  8
0
  6
Continuous
 62
     7
370
    15
100
AcDbLine
 10
74.9295638542
 20
25.9423004277
 30
0.0
 11
83.9431933709
 21
24.9488537408
 31
0.0
  0
LINE
  5
33E
330
1F
100
AcDbEntity
  8
0
  6
Continuous
 62
     7
370
    15
100
AcDbLine
 10
83.9431933709
 20
24.9488537408
 30
0.0
 11
88.3479792639
 21
26.8738249357
 31
0.0
  0
LINE
  5
33F
330
1F
100
AcDbEntity
  8
0
  6
Continuous
 62
     7
370
    15
100
AcDbLine
 10
123.0037316327
 20
-1.3229279544
 30
0.0
 11
149.5507095466
 21
27.6885592734
 31
0.0
  0
LINE
  5
340
330
1F
100
AcDbEntity
  8
0
  6
Continuous
 62
     7
370
    15
100
AcDbLine
 10
146.4445747848
 20
30.2089138254
 30
0.0
 11
148.5773414295
 21
32.5396775181
 31
0.0
  0
LINE
  5
341
330
1F
100
AcDbEntity
  8
0
  6
Continuous
 62
     7
370
    15
100
AcDbLine
 10
148.5773414295
 20
32.5396775181
 30
0.0
 11
136.5066058849
 21
40.8483275601
 31
0.0
  0
LINE
  5
342
330
1F
100
AcDbEntity
  8
0
  6
Continuous
 62
     7
370
    15
100
AcDbLine
 10
136.5066058849
 20
40.8483275601
 30
0.0
 11
125.8716576033
 21
44.8712651574
 31
0.0
  0
LINE
  5
343
330
1F
100
AcDbEntity
  8
0
  6
Continuous
 62
     7
370
    15
100
AcDbLine
 10
86.876240279
 20
64.3536776876
 30
0.0
 11
82.5280328748
 21
69.3522708288
 31
0.0
  0
LINE
  5
344
330
1F
100
AcDbEntity
  8
0
  6
Continuous
 62
     7
370
    15
100
AcDbLine
 10
82.5280328748
 20
69.3522708288
 30
0.0
 11
82.7882672907
 21
69.6366643088
 31
0.0
  0
LINE
  5
345
330
1F
100
AcDbEntity
  8
0
  6
Continuous
 62
     7
370
    15
100
AcDbLine
 10
61.7260275989
 20
93.8493011667
 30
0.0
 11
82.7882672907
 21
69.6366643088
 31
0.0
  0
LINE
  5
346
330
1F
100
AcDbEntity
  8
0
  6
Continuous
 62
     7
370
    15
100
AcDbLine
 10
61.7260275989
 20
93.8493011667
 30
0.0
 11
61.1096059183
 21
99.7873812127
 31
0.0
  0
LINE
  5
347
330
1F
100
AcDbEntity
  8
0
  6
Continuous
 62
     7
370
    15
100
AcDbLine
 10
61.1096059183
 20
99.7873812127
 30
0.0
 11
62.7964026224
 21
101.6307729991
 31
0.0
  0
LINE
  5
348
330
1F
100
AcDbEntity
  8
0
  6
Continuous
 62
     7
370
    15
100
AcDbLine
 10
86.6584623619
 20
74.1995313263
 30
0.0
 11
62.7964026224
 21
101.6307729991
 31
0.0
  0
LINE
  5
349
330
1F
100
AcDbEntity
  8
0
  6
Continuous
 62
     7
370
    15
100
AcDbLine
 10
62.0422849833
 20
26.2875557836
 30
0.0
 11
64.4562107983
 21
23.5125655633
 31
0.0
  0
LINE
  5
34A
330
1F
100
AcDbEntity
  8
0
  6
Continuous
 62
     7
370
    15
100
AcDbLine
 10
36.2820723325
 20
-1.8641262168
 30
0.0
 11
62.0422849833
 21
26.2875557836
 31
0.0
  0
LINE
  5
34B
330
1F
100
AcDbEntity
  8
0
  6
Continuous
 62
     7
370
    15
100
AcDbLine
 10
15.8530651226
 20
21.62056203
 30
0.0
 11
36.2820723325
 21
-1.8641262168
 31
0.0
  0
LINE
  5
34C
330
1F
100
AcDbEntity
  8
0
  6
Continuous
 62
     7
370
    15
100
AcDbLine
 10
15.8530651226
 20
21.62056203
 30
0.0
 11
-2.0163161756
 21
2.0922628397
 31
0.0
  0
LINE
  5
34D
330
1F
100
AcDbEntity
  8
0
  6
Continuous
 62
     7
370
    15
100
AcDbLine
 10
-2.0163161756
 20
2.0922628397
 30
0.0
 11
-6.9415940784
 21
7.7542421462
 31
0.0
  0
LINE
  5
34E
330
1F
100
AcDbEntity
  8
0
  6
Continuous
 62
     7
370
    15
100
AcDbLine
 10
-6.9415940784
 20
7.7542421462
 30
0.0
 11
-4.3604011353
 21
10.5750621409
 31
0.0
  0
LINE
  5
34F
330
1F
100
AcDbEntity
  8
0
  6
Continuous
 62
     7
370
    15
100
AcDbLine
 10
-2.5134219218
 20
8.451819901
 30
0.0
 11
-4.3604011353
 21
10.5750621409
 31
0.0
  0
LINE
  5
350
330
1F
100
AcDbEntity
  8
0
  6
Continuous
 62
     7
370
    15
100
AcDbLine
 10
1.3581021268
 20
12.6827598917
 30
0.0
 11
-2.5134219218
 21
8.451819901
 31
0.0
  0
LINE
  5
351
330
1F
100
AcDbEntity
  8
0
  6
Continuous
 62
     7
370
    15
100
AcDbLine
 10
1.3581021268
 20
12.6827598917
 30
0.0
 11
-0.4888770867
 21
14.8060021316
 31
0.0
  0
LINE
  5
352
330
1F
100
AcDbEntity
  8
0
  6
Continuous
 62
     7
370
    15
100
AcDbLine
 10
-0.4888770867
 20
14.8060021316
 30
0.0
 11
19.8371814369
 21
37.0190460857
 31
0.0
  0
LINE
  5
353
330
1F
100
AcDbEntity
  8
0
  6
Continuous
 62
     7
370
    15
100
AcDbLine
 10
19.8371814369
 20
37.0190460857
 30
0.0
 11
4.4071881236
 21
54.7569899265
 31
0.0
  0
LINE
  5
354
330
1F
100
AcDbEntity
  8
0
  6
Continuous
 62
     7
370
    15
100
AcDbLine
 10
4.4071881236
 20
54.7569899265
 30
0.0
 11
6.0025867032
 21
56.5004985725
 31
0.0
  0
LINE
  5
355
330
1F
100
AcDbEntity
  8
0
  6
Continuous
 62
     7
370
    15
100
AcDbLine
 10
6.0025867032
 20
56.5004985725
 30
0.0
 11
20.1774368944
 21
40.1687281408
 31
0.0
  0
LINE
  5
356
330
1F
100
AcDbEntity
  8
0
  6
Continuous
 62
     7
370
    15
100
AcDbLine
 10
20.1774368944
 20
40.1687281408
 30
0.0
 11
20.3158084548
 21
40.3196200451
 31
0.0
  0
LINE
  5
357
330
1F
100
AcDbEntity
  8
0
  6
Continuous
 62
     7
370
    15
100
AcDbLine
 10
20.3158084548
 20
40.3196200451
 30
0.0
 11
25.8640544905
 21
33.9414917726
 31
0.0
  0
LINE
  5
358
330
1F
100
AcDbEntity
  8
0
  6
Continuous
 62
     7
370
    15
100
AcDbLine
 10
25.8344425292
 20
32.5285683608
 30
0.0
 11
18.0694820302
 21
24.0427417228
 31
0.0
  0
LINE
  5
359
330
1F
100
AcDbEntity
  8
0
  6
Continuous
 62
     7
370
    15
100
AcDbLine
 10
36.4736153596
 20
2.8857990846
 30
0.0
 11
18.0694820302
 21
24.0427417228
 31
0.0
  0
LINE
  5
35A
330
1F
100
AcDbEntity
  8
0
  6
Continuous
 62
     7
370
    15
100
AcDbLine
 10
63.2572532987
 20
32.1559168549
 30
0.0
 11
36.4736153596
 21
2.8857990846
 31
0.0
  0
LINE
  5
35B
330
1F
100
AcDbEntity
  8
0
  6
Continuous
 62
     7
370
    15
100
AcDbLine
 10
64.411736142
 20
32.2571952327
 30
0.0
 11
67.4617640656
 21
29.7413419077
 31
0.0
  0
LINE
  5
35C
330
1F
100
AcDbEntity
  8
0
  6
Continuous
 62
     7
370
    15
100
AcDbLine
 10
125.1317452679
 20
-16.5617771634
 30
0.0
 11
166.2963760016
 21
28.4244040373
 31
0.0
  0
LINE
  5
35D
330
1F
100
AcDbEntity
  8
0
  6
Continuous
 62
     7
370
    15
100
AcDbLine
 10
122.4178641407
 20
-16.3057795828
 30
0.0
 11
125.1317452679
 21
-16.5617771634
 31
0.0
  0
LINE
  5
35E
330
1F
100
AcDbEntity
  8
0
  6
Continuous
 62
     7
370
    15
100
AcDbLine
 10
90.8216257832
 20
74.3609077208
 30
0.0
 11
90.8777904388
 21
74.3473552257
 31
0.0
  0
LINE
  5
35F
330
1F
100
AcDbEntity
  8
0
  6
Continuous
 62
     7
370
    15
100
AcDbLine
 10
69.4286310155
 20
43.3624145185
 30
0.0
 11
63.5448092872
 21
36.9323636301
 31
0.0
  0
LINE
  5
360
330
1F
100
AcDbEntity
  8
0
  6
Continuous
 62
     7
370
    15
100
AcDbLine
 10
71.3764018564
 20
45.4910081783
 30
0.0
 11
72.2612866743
 21
42.8125387682
 31
0.0
  0
LINE
  5
361
330
1F
100
AcDbEntity
  8
0
  6
Continuous
 62
     7
370
    15
100
AcDbLine
 10
70.2478197567
 20
46.7883986242
 30
0.0
 11
71.3764018564
 21
45.4910081783
 31
0.0
  0
LINE
  5
362
330
1F
100
AcDbEntity
  8
0
  6
Continuous
 62
     7
370
    15
100
AcDbLine
 10
70.9172870495
 20
48.9005788343
 30
0.0
 11
69.2857232172
 21
47.1175475063
 31
0.0
  0
LINE
  5
363
330
1F
100
AcDbEntity
  8
0
  6
Continuous
 62
     7
370
    15
100
AcDbLine
 10
69.7883334473
 20
50.1983963504
 30
0.0
 11
70.9172870495
 21
48.9005788343
 31
0.0
  0
LINE
  5
364
330
1F
100
AcDbEntity
  8
0
  6
Continuous
 62
     7
370
    15
100
AcDbLine
 10
67.8525183498
 20
48.0828683548
 30
0.0
 11
69.7883334473
 21
50.1983963504
 31
0.0
  0
LINE
  5
365
330
1F
100
AcDbEntity
  8
0
  6
Continuous
 62
     7
370
    15
100
AcDbLine
 10
67.7501524764
 20
48.2005456653
 30
0.0
 11
67.8525183498
 21
48.0828683548
 31
0.0
  0
LINE
  5
366
330
1F
100
AcDbEntity
  8
0
  6
Continuous
 62
     7
370
    15
100
AcDbLine
 10
62.5050630714
 20
42.4685243115
 30
0.0
 11
67.7501524764
 21
48.2005456653
 31
0.0
  0
LINE
  5
367
330
1F
100
AcDbEntity
  8
0
  6
Continuous
 62
     7
370
    15
100
AcDbLine
 10
44.0352709362
 20
63.7009467107
 30
0.0
 11
62.5050630714
 21
42.4685243115
 31
0.0
  0
LINE
  5
368
330
1F
100
AcDbEntity
  8
0
  6
Continuous
 62
     7
370
    15
100
AcDbLine
 10
29.4087483816
 20
47.7165595742
 30
0.0
 11
44.0352709362
 21
63.7009467107
 31
0.0
  0
LINE
  5
369
330
1F
100
AcDbEntity
  8
0
  6
Continuous
 62
     7
370
    15
100
AcDbLine
 10
5.9800284942
 20
74.7103175009
 30
0.0
 11
29.4087483816
 21
47.7165595742
 31
0.0
  0
LINE
  5
36A
330
1F
100
AcDbEntity
  8
0
  6
Continuous
 62
     7
370
    15
100
AcDbLine
 10
32.2101829836
 20
103.3755687555
 30
0.0
 11
5.9800284942
 21
74.7103175009
 31
0.0
  0
LINE
  5
36B
330
1F
100
AcDbEntity
  8
0
  6
Continuous
 62
     7
370
    15
100
AcDbLine
 10
45.2253527337
 20
100.500992818
 30
0.0
 11
32.2101829836
 21
103.3755687555
 31
0.0
  0
LINE
  5
36C
330
1F
100
AcDbEntity
  8
0
  6
Continuous
 62
     7
370
    15
100
AcDbLine
 10
44.2719237628
 20
95.5990734436
 30
0.0
 11
45.2253527337
 21
100.500992818
 31
0.0
  0
LINE
  5
36D
330
1F
100
AcDbEntity
  8
0
  6
Continuous
 62
     7
370
    15
100
AcDbLine
 10
59.8304422047
 20
90.1177658003
 30
0.0
 11
45.6330233007
 21
93.2534574232
 31
0.0
  0
LINE
  5
36E
330
1F
100
AcDbEntity
  8
0
  6
Continuous
 62
     7
370
    15
100
AcDbLine
 10
116.7216805049
 20
50.3042360422
 30
0.0
 11
96.1055446773
 21
60.6042171794
 31
0.0
  0
LINE
  5
36F
330
1F
100
AcDbEntity
  8
0
  6
Continuous
 62
     7
370
    15
100
AcDbLine
 10
106.983443808
 20
19.3369249801
 30
0.0
 11
115.6758064432
 21
9.3443969773
 31
0.0
  0
LINE
  5
370
330
1F
100
AcDbEntity
  8
0
  6
Continuous
 62
     7
370
    15
100
AcDbLine
 10
92.5905743547
 20
25.7326857387
 30
0.0
 11
106.983443808
 21
19.3369249801
 31
0.0
  0
LINE
  5
371
330
1F
100
AcDbEntity
  8
0
  6
Continuous
 62
     7
370
    15
100
AcDbLine
 10
77.0554374038
 20
25.7417689895
 30
0.0
 11
84.0049109323
 21
24.9758254326
 31
0.0
  0
LINE
  5
372
330
1F
100
AcDbEntity
  8
0
  6
Continuous
 62
     7
370
    15
100
AcDbLine
 10
69.5876376152
 20
29.5408104695
 30
0.0
 11
77.0554374038
 21
25.7417689895
 31
0.0
  0
LINE
  5
373
330
1F
100
AcDbEntity
  8
0
  6
Continuous
 62
     7
370
    15
100
AcDbLine
 10
66.6524247485
 20
31.9619571722
 30
0.0
 11
69.5876376152
 21
29.5408104695
 31
0.0
  0
LINE
  5
374
330
1F
100
AcDbEntity
  8
0
  6
Continuous
 62
     7
370
    15
100
AcDbLine
 10
66.4748550944
 20
33.0324526965
 30
0.0
 11
63.2646870898
 21
36.7227835106
 31
0.0
  0
LINE
  5
375
330
1F
100
AcDbEntity
  8
0
  6
Continuous
 62
     7
370
    15
100
AcDbLine
 10
88.3479792549
 20
26.8738249318
 30
0.0
 11
90.4738528046
 21
26.6732934936
 31
0.0
  0
LINE
  5
376
330
1F
100
AcDbEntity
  8
0
  6
Continuous
 62
     7
370
    15
100
AcDbLine
 10
77.0554374038
 20
25.7417689895
 30
0.0
 11
74.9295638542
 21
25.9423004277
 31
0.0
  0
LINE
  5
377
330
1F
100
AcDbEntity
  8
0
  6
Continuous
 62
     7
370
    15
100
AcDbLine
 10
64.5096475806
 20
101.5855353209
 30
0.0
 11
87.7560475823
 21
74.8620410614
 31
0.0
  0
LINE
  5
378
330
1F
100
AcDbEntity
  8
0
  6
Continuous
 62
     7
370
    15
100
AcDbLine
 10
87.7560475823
 20
74.8620410614
 30
0.0
 11
90.4699287095
 21
74.6060434807
 31
0.0
  0
LINE
  5
379
330
1F
100
AcDbEntity
  8
0
  6
Continuous
 62
     7
370
    15
100
AcDbLine
 10
90.4699287095
 20
74.6060434807
 30
0.0
 11
67.2235287078
 21
101.3295377402
 31
0.0
  0
LINE
  5
37A
330
1F
100
AcDbEntity
  8
0
  6
Continuous
 62
     7
370
    15
100
AcDbLine
 10
67.2235287078
 20
101.3295377402
 30
0.0
 11
64.5096475806
 21
101.5855353209
 31
0.0
  0
LINE
  5
37B
330
1F
100
AcDbEntity
  8
0
  6
Continuous
 62
     7
370
    15
100
AcDbLine
 10
69.5876376152
 20
29.5408104695
 30
0.0
 11
67.4617640656
 21
29.7413419077
 31
0.0
  0
LINE
  5
37C
330
1F
100
AcDbEntity
  8
0
  6
Continuous
 62
     7
370
    15
100
AcDbLine
 10
70.1354131246
 20
43.0130702063
 30
0.0
 11
69.2505283068
 21
45.6915396165
 31
0.0
  0
LINE
  5
37D
330
1F
100
AcDbEntity
  8
0
  6
Continuous
 62
     7
370
    15
100
AcDbLine
 10
66.9686099432
 20
44.5783399904
 30
0.0
 11
70.1354131246
 21
43.0130702063
 31
0.0
  0
LINE
  5
37E
330
1F
100
AcDbEntity
  8
0
  6
Continuous
 62
     7
370
    15
100
AcDbLine
 10
60.8032759997
 20
37.8406424815
 30
0.0
 11
66.9686099432
 21
44.5783399904
 31
0.0
  0
LINE
  5
37F
330
1F
100
AcDbEntity
  8
0
  6
Continuous
 62
     7
370
    15
100
AcDbLine
 10
60.2903536378
 20
38.4302855141
 30
0.0
 11
60.8032759997
 21
37.8406424815
 31
0.0
  0
LINE
  5
380
330
1F
100
AcDbEntity
  8
0
  6
Continuous
 62
     7
370
    15
100
AcDbLine
 10
68.121946207
 20
46.9889300624
 30
0.0
 11
60.2903536378
 21
38.4302855141
 31
0.0
  0
LINE
  5
381
330
1F
100
AcDbEntity
  8
0
  6
Continuous
 62
     7
370
    15
100
AcDbLine
 10
69.2505283068
 20
45.6915396165
 30
0.0
 11
68.121946207
 21
46.9889300624
 31
0.0
  0
LINE
  5
382
330
1F
100
AcDbEntity
  8
0
  6
Continuous
 62
     7
370
    15
100
AcDbLine
 10
70.1354131246
 20
43.0130702063
 30
0.0
 11
72.2612866743
 21
42.8125387682
 31
0.0
  0
LINE
  5
383
330
1F
100
AcDbEntity
  8
0
  6
Continuous
 62
     7
370
    15
100
AcDbLine
 10
69.2505283068
 20
45.6915396165
 30
0.0
 11
71.3764018564
 21
45.4910081783
 31
0.0
  0
LINE
  5
384
330
1F
100
AcDbEntity
  8
0
  6
Continuous
 62
     7
370
    15
100
AcDbLine
 10
70.2478197567
 20
46.7883986242
 30
0.0
 11
68.121946207
 21
46.9889300624
 31
0.0
  0
LINE
  5
385
330
1F
100
AcDbEntity
  8
0
  6
Continuous
 62
     7
370
    15
100
AcDbLine
 10
65.0639283706
 20
32.1956746189
 30
0.0
 11
64.411736142
 21
32.2571952327
 31
0.0
  0
LINE
  5
386
330
1F
100
AcDbEntity
  8
0
  6
Continuous
 62
     7
370
    15
100
AcDbLine
 10
65.1836556644
 20
32.1005046304
 30
0.0
 11
66.6524247485
 21
31.9619571722
 31
0.0
  0
LINE
  5
387
330
1F
100
AcDbEntity
  8
0
  6
Continuous
 62
     7
370
    15
100
AcDbLine
 10
61.8712492587
 20
37.0902288048
 30
0.0
 11
63.5448092872
 21
36.9323636301
 31
0.0
  0
LINE
  5
388
330
1F
100
AcDbEntity
  8
0
  6
Continuous
 62
     7
370
    15
100
AcDbLine
 10
38.0913264173
 20
-2.0347912706
 30
0.0
 11
36.2820723325
 21
-1.8641262168
 31
0.0
  0
LINE
  5
389
330
1F
100
AcDbEntity
  8
0
  6
Continuous
 62
     7
370
    15
100
AcDbLine
 10
38.0913264173
 20
-2.0347912706
 30
0.0
 11
63.000130037
 21
25.18644048
 31
0.0
  0
LINE
  5
38A
330
1F
100
AcDbEntity
  8
0
  6
Continuous
 62
     7
370
    15
100
AcDbLine
 10
62.210222394
 20
36.8222500673
 30
0.0
 11
65.4203903986
 21
33.1319192532
 31
0.0
  0
LINE
  5
38B
330
1F
100
AcDbEntity
  8
0
  6
Continuous
 62
     7
370
    15
100
AcDbLine
 10
65.4203903986
 20
33.1319192532
 30
0.0
 11
66.4748550944
 21
33.0324526965
 31
0.0
  0
LINE
  5
38C
330
1F
100
AcDbEntity
  8
0
  6
Continuous
 62
     7
370
    15
100
AcDbLine
 10
63.6149136755
 20
32.3980574835
 30
0.0
 11
60.7979378566
 21
35.6363841543
 31
0.0
  0
LINE
  5
38D
330
1F
100
AcDbEntity
  8
0
  6
Continuous
 62
     7
370
    15
100
AcDbLine
 10
63.2646870898
 20
36.7227835106
 30
0.0
 11
62.210222394
 21
36.8222500673
 31
0.0
  0
LINE
  5
38E
330
1F
100
AcDbEntity
  8
0
  6
Continuous
 62
     7
370
    15
100
AcDbLine
 10
69.7963901472
 20
50.1891345647
 30
0.0
 11
67.8677364868
 21
48.0814328437
 31
0.0
  0
LINE
  5
38F
330
1F
100
AcDbEntity
  8
0
  6
Continuous
 62
     7
370
    15
100
AcDbLine
 10
67.7582091763
 20
48.1912838796
 30
0.0
 11
59.9391944118
 21
39.6463848063
 31
0.0
  0
LINE
  5
390
330
1F
100
AcDbEntity
  8
0
  6
Continuous
 62
     7
370
    15
100
AcDbLine
 10
60.2315206583
 20
39.3103336856
 30
0.0
 11
59.9391944118
 21
39.6463848063
 31
0.0
  0
LINE
  5
391
330
1F
100
AcDbEntity
  8
0
  6
Continuous
 62
     7
370
    15
100
AcDbLine
 10
67.8525183498
 20
48.0828683548
 30
0.0
 11
67.8677364868
 21
48.0814328437
 31
0.0
  0
LINE
  5
392
330
1F
100
AcDbEntity
  8
0
  6
Continuous
 62
     7
370
    15
100
AcDbLine
 10
62.5202812084
 20
42.4670888005
 30
0.0
 11
62.5050630714
 21
42.4685243115
 31
0.0
  0
LINE
  5
393
330
1F
100
AcDbEntity
  8
0
  6
Continuous
 62
     7
370
    15
100
AcDbLine
 10
60.064890215
 20
39.5018879778
 30
0.0
 11
56.6756587758
 21
35.7980146055
 31
0.0
  0
LINE
  5
394
330
1F
100
AcDbEntity
  8
0
  6
Continuous
 62
     7
370
    15
100
AcDbLine
 10
56.6756587758
 20
35.7980146055
 30
0.0
 11
61.5073769072
 21
30.2435893294
 31
0.0
  0
LINE
  5
395
330
1F
100
AcDbEntity
  8
0
  6
Continuous
 62
     7
370
    15
100
AcDbLine
 10
44.2228925137
 20
49.9785912754
 30
0.0
 11
56.5478975606
 21
35.8100661879
 31
0.0
  0
LINE
  5
396
330
1F
100
AcDbEntity
  8
0
  6
Continuous
 62
     7
370
    15
100
AcDbLine
 10
29.0588963317
 20
33.40683373
 30
0.0
 11
44.2228925137
 21
49.9785912754
 31
0.0
  0
LINE
  5
397
330
1F
100
AcDbEntity
  8
0
  6
Continuous
 62
     7
370
    15
100
AcDbLine
 10
23.354241888
 20
40.0330077834
 30
0.0
 11
28.9024879237
 21
33.654879511
 31
0.0
  0
LINE
  5
398
330
1F
100
AcDbEntity
  8
0
  6
Continuous
 62
     7
370
    15
100
AcDbLine
 10
30.3213082651
 20
47.6304787507
 30
0.0
 11
23.354241888
 21
40.0330077834
 31
0.0
  0
LINE
  5
399
330
1F
100
AcDbEntity
  8
0
  6
Continuous
 62
     7
370
    15
100
AcDbLine
 10
30.3213082651
 20
47.6304787507
 30
0.0
 11
44.5183932229
 21
63.1455611175
 31
0.0
  0
LINE
  5
39A
330
1F
100
AcDbEntity
  8
0
  6
Continuous
 62
     7
370
    15
100
AcDbLine
 10
59.9972515958
 20
39.5796436841
 30
0.0
 11
56.5478975606
 21
35.8100661879
 31
0.0
  0
LINE
  5
39B
330
1F
100
AcDbEntity
  8
0
  6
Continuous
 62
     7
370
    15
100
AcDbLine
 10
60.5702152428
 20
91.0402867911
 30
0.0
 11
60.4734415201
 21
91.0554834117
 31
0.0
  0
LINE
  5
39C
330
1F
100
AcDbEntity
  8
0
  6
Continuous
 62
     7
370
    15
100
AcDbLine
 10
56.5478975606
 20
35.8100661879
 30
0.0
 11
56.6756587758
 21
35.7980146055
 31
0.0
  0
LINE
  5
39D
330
1F
100
AcDbEntity
  8
0
  6
Continuous
 62
     7
370
    15
100
AcDbLine
 10
46.1482490163
 20
95.3118402444
 30
0.0
 11
47.3466324091
 21
101.4731579207
 31
0.0
  0
LINE
  5
39E
330
1F
100
AcDbEntity
  8
0
  6
Continuous
 62
     7
370
    15
100
AcDbLine
 10
46.2760226161
 20
94.1911750346
 30
0.0
 11
60.4734415201
 21
91.0554834117
 31
0.0
  0
LINE
  5
39F
330
1F
100
AcDbEntity
  8
0
  6
Continuous
 62
     7
370
    15
100
AcDbLine
 10
60.4734415201
 20
91.0554834117
 30
0.0
 11
60.573904168
 21
91.0460068747
 31
0.0
  0
LINE
  5
3A0
330
1F
100
AcDbEntity
  8
0
  6
Continuous
 62
     7
370
    15
100
AcDbLine
 10
60.573904168
 20
91.0460068747
 30
0.0
 11
46.376485264
 21
94.1816984977
 31
0.0
  0
LINE
  5
3A1
330
1F
100
AcDbEntity
  8
0
  6
Continuous
 62
     7
370
    15
100
AcDbLine
 10
31.6532382119
 20
105.113614223
 30
0.0
 11
33.0101787755
 21
104.9856154327
 31
0.0
  0
LINE
  5
3A2
330
1F
100
AcDbEntity
  8
0
  6
Continuous
 62
     7
370
    15
100
AcDbLine
 10
47.5727525999
 20
102.4512620881
 30
0.0
 11
47.9898347127
 21
102.4119191668
 31
0.0
  0
LINE
  5
3A3
330
1F
100
AcDbEntity
  8
0
  6
Continuous
 62
     7
370
    15
100
AcDbLine
 10
31.6532382119
 20
105.113614223
 30
0.0
 11
47.5727525999
 21
102.4512620881
 31
0.0
  0
LINE
  5
3A4
330
1F
100
AcDbEntity
  8
0
  6
Continuous
 62
     7
370
    15
100
AcDbLine
 10
46.376485264
 20
94.1816984977
 30
0.0
 11
46.2760226161
 21
94.1911750346
 31
0.0
  0
LINE
  5
3A5
330
1F
100
AcDbEntity
  8
0
  6
Continuous
 62
     7
370
    15
100
AcDbLine
 10
19.878736115
 20
23.872076669
 30
0.0
 11
18.0694820302
 21
24.0427417228
 31
0.0
  0
LINE
  5
3A6
330
1F
100
AcDbEntity
  8
0
  6
Continuous
 62
     7
370
    15
100
AcDbLine
 10
37.3250243907
 20
3.8162493344
 30
0.0
 11
19.878736115
 21
23.872076669
 31
0.0
  0
LINE
  5
3A7
330
1F
100
AcDbEntity
  8
0
  6
Continuous
 62
     7
370
    15
100
AcDbLine
 10
46.548901818
 20
100.2659024192
 30
0.0
 11
45.5954728472
 21
95.3639830448
 31
0.0
  0
LINE
  5
3A8
330
1F
100
AcDbEntity
  8
0
  6
Continuous
 62
     7
370
    15
100
AcDbLine
 10
29.4087483816
 20
47.7165595742
 30
0.0
 11
30.3213082651
 21
47.6304787507
 31
0.0
  0
LINE
  5
3A9
330
1F
100
AcDbEntity
  8
0
  6
Continuous
 62
     7
370
    15
100
AcDbLine
 10
46.9295502964
 20
101.5125008421
 30
0.0
 11
46.6845958744
 21
100.2531025401
 31
0.0
  0
LINE
  5
3AA
330
1F
100
AcDbEntity
  8
0
  6
Continuous
 62
     7
370
    15
100
AcDbLine
 10
45.5954728472
 20
95.3639830448
 30
0.0
 11
46.1482490163
 21
95.3118402444
 31
0.0
  0
LINE
  5
3AB
330
1F
100
AcDbEntity
  8
0
  6
Continuous
 62
     7
370
    15
100
AcDbLine
 10
46.548901818
 20
100.2659024192
 30
0.0
 11
46.6845958744
 21
100.2531025401
 31
0.0
  0
LINE
  5
3AC
330
1F
100
AcDbEntity
  8
0
  6
Continuous
 62
     7
370
    15
100
AcDbLine
 10
31.3946067826
 20
103.4525012093
 30
0.0
 11
32.7981905612
 21
103.320102613
 31
0.0
  0
LINE
  5
3AD
330
1F
100
AcDbEntity
  8
0
  6
Continuous
 62
     7
370
    15
100
AcDbLine
 10
32.7981905612
 20
103.320102613
 30
0.0
 11
46.6845958744
 21
100.2531025401
 31
0.0
  0
LINE
  5
3AE
330
1F
100
AcDbEntity
  8
0
  6
Continuous
 62
     7
370
    15
100
AcDbLine
 10
-3.251282993
 20
67.1624860675
 30
0.0
 11
3.8541549445
 21
74.9108489391
 31
0.0
  0
LINE
  5
3AF
330
1F
100
AcDbEntity
  8
0
  6
Continuous
 62
     7
370
    15
100
AcDbLine
 10
-3.251282993
 20
67.1624860675
 30
0.0
 11
2.9283058745
 21
60.0425782459
 31
0.0
  0
LINE
  5
3B0
330
1F
100
AcDbEntity
  8
0
  6
Continuous
 62
     7
370
    15
100
AcDbLine
 10
2.9283058745
 20
60.0425782459
 30
0.0
 11
1.3293569021
 21
58.2951896036
 31
0.0
  0
LINE
  5
3B1
330
1F
100
AcDbEntity
  8
0
  6
Continuous
 62
     7
370
    15
100
AcDbLine
 10
1.3293569021
 20
58.2951896036
 30
0.0
 11
-5.4048678146
 21
66.0366900313
 31
0.0
  0
LINE
  5
3B2
330
1F
100
AcDbEntity
  8
0
  6
Continuous
 62
     7
370
    15
100
AcDbLine
 10
-5.4048678146
 20
66.0366900313
 30
0.0
 11
28.2388132589
 21
102.8037083686
 31
0.0
  0
LINE
  5
3B3
330
1F
100
AcDbEntity
  8
0
  6
Continuous
 62
     7
370
    15
100
AcDbLine
 10
28.7937660356
 20
102.1657481966
 30
0.0
 11
28.2388132589
 21
102.8037083686
 31
0.0
  0
LINE
  5
3B4
330
1F
100
AcDbEntity
  8
0
  6
Continuous
 62
     7
370
    15
100
AcDbLine
 10
28.7937660356
 20
102.1657481966
 30
0.0
 11
3.8541549445
 21
74.9108489391
 31
0.0
  0
LINE
  5
3B5
330
1F
100
AcDbEntity
  8
0
  6
Continuous
 62
     7
370
    15
100
AcDbLine
 10
20.5971199053
 20
23.0462401914
 30
0.0
 11
44.7193498257
 21
49.4078760624
 31
0.0
  0
LINE
  5
3B6
330
1F
100
AcDbEntity
  8
0
  6
Continuous
 62
     7
370
    15
100
AcDbLine
 10
32.2324964266
 20
103.9704107879
 30
0.0
 11
32.7981905612
 21
103.320102613
 31
0.0
  0
LINE
  5
3B7
330
1F
100
AcDbEntity
  8
0
  6
Continuous
 62
     7
370
    15
100
AcDbLine
 10
46.9295502964
 20
101.5125008421
 30
0.0
 11
32.2324964266
 21
103.9704107879
 31
0.0
  0
LINE
  5
3B8
330
1F
100
AcDbEntity
  8
0
  6
Continuous
 62
     7
370
    15
100
AcDbLine
 10
29.0006371776
 20
32.2299045167
 30
0.0
 11
25.8344425292
 21
32.5285683608
 31
0.0
  0
LINE
  5
3B9
330
1F
100
AcDbEntity
  8
0
  6
Continuous
 62
     7
370
    15
100
AcDbLine
 10
25.8640544905
 20
33.9414917726
 30
0.0
 11
28.9024879237
 21
33.654879511
 31
0.0
  0
LINE
  5
3BA
330
1F
100
AcDbEntity
  8
0
  6
Continuous
 62
     7
370
    15
100
AcDbLine
 10
-2.0163161756
 20
2.0922628397
 30
0.0
 11
1.1498784728
 21
1.7935989956
 31
0.0
  0
LINE
  5
3BB
330
1F
100
AcDbEntity
  8
0
  6
Continuous
 62
     7
370
    15
100
AcDbLine
 10
23.354241888
 20
40.0330077834
 30
0.0
 11
20.3158084548
 21
40.3196200451
 31
0.0
  0
LINE
  5
3BC
330
1F
100
AcDbEntity
  8
0
  6
Continuous
 62
     7
370
    15
100
AcDbLine
 10
30.1040633843
 20
102.0421492122
 30
0.0
 11
28.7937660356
 21
102.1657481966
 31
0.0
  0
LINE
  5
3BD
330
1F
100
AcDbEntity
  8
0
  6
Continuous
 62
     7
370
    15
100
AcDbLine
 10
30.1040633843
 20
102.0421492122
 30
0.0
 11
31.3946067826
 21
103.4525012093
 31
0.0
  0
LINE
  5
3BE
330
1F
100
AcDbEntity
  8
0
  6
Continuous
 62
     7
370
    15
100
AcDbLine
 10
3.8541549445
 20
74.9108489391
 30
0.0
 11
5.9800284942
 21
74.7103175009
 31
0.0
  0
LINE
  5
3BF
330
1F
100
AcDbEntity
  8
0
  6
Continuous
 62
     7
370
    15
100
AcDbLine
 10
22.5994435285
 20
111.1957995159
 30
0.0
 11
25.9353433935
 21
107.3609304228
 31
0.0
  0
LINE
  5
3C0
330
1F
100
AcDbEntity
  8
0
  6
Continuous
 62
     7
370
    15
100
AcDbLine
 10
27.7560281771
 20
105.166974243
 30
0.0
 11
25.9353433935
 21
107.3609304228
 31
0.0
  0
LINE
  5
3C1
330
1F
100
AcDbEntity
  8
0
  6
Continuous
 62
     7
370
    15
100
AcDbLine
 10
25.7761743076
 20
105.6346980218
 30
0.0
 11
22.6371686572
 21
109.2432223297
 31
0.0
  0
LINE
  5
3C2
330
1F
100
AcDbEntity
  8
0
  6
Continuous
 62
     7
370
    15
100
AcDbLine
 10
23.5417956996
 20
109.1578898028
 30
0.0
 11
22.6371686572
 21
109.2432223297
 31
0.0
  0
LINE
  5
3C3
330
1F
100
AcDbEntity
  8
0
  6
Continuous
 62
     7
370
    15
100
AcDbLine
 10
21.6948164861
 20
111.2811320427
 30
0.0
 11
23.5417956996
 21
109.1578898028
 31
0.0
  0
LINE
  5
3C4
330
1F
100
AcDbEntity
  8
0
  6
Continuous
 62
     7
370
    15
100
AcDbLine
 10
22.5994435285
 20
111.1957995159
 30
0.0
 11
21.6948164861
 21
111.2811320427
 31
0.0
  0
LINE
  5
3C5
330
1F
100
AcDbEntity
  8
0
  6
Continuous
 62
     7
370
    15
100
AcDbLine
 10
25.7761743076
 20
105.6346980218
 30
0.0
 11
-7.8675067659
 21
68.8676796845
 31
0.0
  0
LINE
  5
3C6
330
1F
100
AcDbEntity
  8
0
  6
Continuous
 62
     7
370
    15
100
AcDbLine
 10
-0.1468387221
 20
66.8696470723
 30
0.0
 11
-3.251282993
 21
67.1624860675
 31
0.0
  0
LINE
  5
3C7
330
1F
100
AcDbEntity
  8
0
  6
Continuous
 62
     7
370
    15
100
AcDbLine
 10
23.1269003387
 20
40.054452675
 30
0.0
 11
-0.1468387221
 21
66.8696470723
 31
0.0
  0
LINE
  5
3C8
330
1F
100
AcDbEntity
  8
0
  6
Continuous
 62
     7
370
    15
100
AcDbLine
 10
-3.2561523778
 20
80.9460747248
 30
0.0
 11
22.6371686572
 21
109.2432223297
 31
0.0
  0
LINE
  5
3C9
330
1F
100
AcDbEntity
  8
0
  6
Continuous
 62
     7
370
    15
100
AcDbLine
 10
-12.343080923
 20
75.9225429143
 30
0.0
 11
-3.4949291467
 21
80.7576788956
 31
0.0
  0
LINE
  5
3CA
330
1F
100
AcDbEntity
  8
0
  6
Continuous
 62
     7
370
    15
100
AcDbLine
 10
-7.8675067659
 20
68.8676796845
 30
0.0
 11
-12.6114696533
 21
74.3212236732
 31
0.0
  0
LINE
  5
3CB
330
1F
100
AcDbEntity
  8
0
  6
Continuous
 62
     7
370
    15
100
AcDbLine
 10
29.0465715754
 20
106.5773262401
 30
0.0
 11
27.2258867918
 21
108.7712824199
 31
0.0
  0
LINE
  5
3CC
330
1F
100
AcDbEntity
  8
0
  6
Continuous
 62
     7
370
    15
100
AcDbLine
 10
27.2258867918
 20
108.7712824199
 30
0.0
 11
25.7369661404
 21
110.482909273
 31
0.0
  0
LINE
  5
3CD
330
1F
100
AcDbEntity
  8
0
  6
Continuous
 62
     7
370
    15
100
AcDbLine
 10
27.093906704
 20
110.3549104827
 30
0.0
 11
25.7369661404
 21
110.482909273
 31
0.0
  0
LINE
  5
3CE
330
1F
100
AcDbEntity
  8
0
  6
Continuous
 62
     7
370
    15
100
AcDbLine
 10
28.161879963
 20
109.6044968059
 30
0.0
 11
31.4898919953
 21
105.7786953729
 31
0.0
  0
LINE
  5
3CF
330
1F
100
AcDbEntity
  8
0
  6
Continuous
 62
     7
370
    15
100
AcDbLine
 10
27.7560281771
 20
105.166974243
 30
0.0
 11
29.0465715754
 21
106.5773262401
 31
0.0
  0
LINE
  5
3D0
330
1F
100
AcDbEntity
  8
0
  6
Continuous
 62
     7
370
    15
100
AcDbLine
 10
-0.1468387221
 20
66.8696470723
 30
0.0
 11
6.4970166147
 21
74.1146617313
 31
0.0
  0
LINE
  5
3D1
330
1F
100
AcDbEntity
  8
0
  6
Continuous
 62
     7
370
    15
100
AcDbLine
 10
25.9353433935
 20
107.3609304228
 30
0.0
 11
27.2258867918
 21
108.7712824199
 31
0.0
  0
LINE
  5
3D2
330
1F
100
AcDbEntity
  8
0
  6
Continuous
 62
     7
370
    15
100
AcDbLine
 10
17.5734744822
 20
106.8057811452
 30
0.0
 11
18.9542848913
 21
105.2184351888
 31
0.0
  0
LINE
  5
3D3
330
1F
100
AcDbEntity
  8
0
  6
Continuous
 62
     7
370
    15
100
AcDbLine
 10
17.6068803902
 20
108.218346678
 30
0.0
 11
20.4300911024
 21
111.2840613365
 31
0.0
  0
LINE
  5
3D4
330
1F
100
AcDbEntity
  8
0
  6
Continuous
 62
     7
370
    15
100
AcDbLine
 10
24.446422742
 20
109.0725572759
 30
0.0
 11
25.7369661404
 21
110.482909273
 31
0.0
  0
LINE
  5
3D5
330
1F
100
AcDbEntity
  8
0
  6
Continuous
 62
     7
370
    15
100
AcDbLine
 10
-1.2363083752
 20
9.8474952757
 30
0.0
 11
-1.6465200081
 21
10.3190645603
 31
0.0
  0
LINE
  5
3D6
330
1F
100
AcDbEntity
  8
0
  6
Continuous
 62
     7
370
    15
100
AcDbLine
 10
-1.6465200081
 20
10.3190645603
 30
0.0
 11
-4.3604011353
 21
10.5750621409
 31
0.0
  0
LINE
  5
3D7
330
1F
100
AcDbEntity
  8
0
  6
Continuous
 62
     7
370
    15
100
AcDbLine
 10
0.9478904938
 20
13.1543291763
 30
0.0
 11
-1.6465200081
 21
10.3190645603
 31
0.0
  0
LINE
  5
3D8
330
1F
100
AcDbEntity
  8
0
  6
Continuous
 62
     7
370
    15
100
AcDbLine
 10
-2.0545055152
 20
-1.7082664688
 30
0.0
 11
-20.5624435867
 21
-21.9344033464
 31
0.0
  0
LINE
  5
3D9
330
1F
100
AcDbEntity
  8
0
  6
Continuous
 62
     7
370
    15
100
AcDbLine
 10
-25.9734760445
 20
-72.0470994286
 30
0.0
 11
-21.8917267561
 21
-76.7393788211
 31
0.0
  0
LINE
  5
3DA
330
1F
100
AcDbEntity
  8
0
  6
Continuous
 62
     7
370
    15
100
AcDbLine
 10
-31.1418472598
 20
-32.3826926514
 30
0.0
 11
-46.2406793723
 21
-48.8832365704
 31
0.0
  0
LINE
  5
3DB
330
1F
100
AcDbEntity
  8
0
  6
Continuous
 62
     7
370
    15
100
AcDbLine
 10
-33.7814333586
 20
-73.9092660436
 30
0.0
 11
-37.1073935204
 21
-70.0858233908
 31
0.0
  0
LINE
  5
3DC
330
1F
100
AcDbEntity
  8
0
  6
Continuous
 62
     7
370
    15
100
AcDbLine
 10
-37.3302069312
 20
-70.25626012
 30
0.0
 11
-37.5965144542
 21
-70.2311396087
 31
0.0
  0
LINE
  5
3DD
330
1F
100
AcDbEntity
  8
0
  6
Continuous
 62
     7
370
    15
100
AcDbLine
 10
-37.6261264155
 20
-71.6440630206
 30
0.0
 11
-36.5759361072
 21
-71.7431263787
 31
0.0
  0
LINE
  5
3DE
330
1F
100
AcDbEntity
  8
0
  6
Continuous
 62
     7
370
    15
100
AcDbLine
 10
-64.6022527863
 20
10.146066805
 30
0.0
 11
-35.4347877771
 21
-23.3841393205
 31
0.0
  0
LINE
  5
3DF
330
1F
100
AcDbEntity
  8
0
  6
Continuous
 62
     7
370
    15
100
AcDbLine
 10
-86.634899488
 20
-49.798334985
 30
0.0
 11
-83.9732518872
 21
-67.2560509672
 31
0.0
  0
LINE
  5
3E0
330
1F
100
AcDbEntity
  8
0
  6
Continuous
 62
     7
370
    15
100
AcDbLine
 10
-90.1801544835
 20
-68.9682626803
 30
0.0
 11
-92.1604830351
 21
-50.9852089421
 31
0.0
  0
LINE
  5
3E1
330
1F
100
AcDbEntity
  8
0
  6
Continuous
 62
     7
370
    15
100
AcDbLine
 10
-87.1876756571
 20
-49.7461921846
 30
0.0
 11
-86.8305374652
 21
-49.7798806583
 31
0.0
  0
LINE
  5
3E2
330
1F
100
AcDbEntity
  8
0
  6
Continuous
 62
     7
370
    15
100
AcDbLine
 10
-92.5775651479
 20
-50.9458660208
 30
0.0
 11
-94.1039786337
 21
-37.0847439765
 31
0.0
  0
LINE
  5
3E3
330
1F
100
AcDbEntity
  8
0
  6
Continuous
 62
     7
370
    15
100
AcDbLine
 10
62.255228635
 20
93.2409445675
 30
0.0
 11
61.9542849193
 21
91.6936852793
 31
0.0
  0
LINE
  5
3E4
330
1F
100
AcDbEntity
  8
0
  6
Continuous
 62
     7
370
    15
100
AcDbLine
 10
68.1768014569
 20
43.9811618389
 30
0.0
 11
61.8712492587
 21
37.0902288048
 31
0.0
  0
LINE
  5
3E5
330
1F
100
AcDbEntity
  8
0
  6
Continuous
 62
     7
370
    15
100
AcDbLine
 10
64.3789425854
 20
32.4048753245
 30
0.0
 11
60.6253047334
 21
36.7199658152
 31
0.0
  0
LINE
  5
3E6
330
1F
100
AcDbEntity
  8
0
  6
Continuous
 62
     7
370
    15
100
AcDbLine
 10
61.1746730272
 20
99.1605802526
 30
0.0
 11
47.3466324091
 21
101.4731579207
 31
0.0
  0
LINE
  5
3E7
330
1F
100
AcDbEntity
  8
0
  6
Continuous
 62
     7
370
    15
100
AcDbLine
 10
46.1482490163
 20
95.3118402444
 30
0.0
 11
61.4428634437
 21
91.9338181786
 31
0.0
  0
LINE
  5
3E8
330
1F
100
AcDbEntity
  8
0
  6
Continuous
 62
     7
370
    15
100
AcDbLine
 10
61.5055623923
 20
100.2200966136
 30
0.0
 11
33.0101787755
 21
104.9856154327
 31
0.0
  0
LINE
  5
3E9
330
1F
100
AcDbEntity
  8
0
  6
Continuous
 62
     7
370
    15
100
AcDbLine
 10
47.9898347127
 20
102.4119191668
 30
0.0
 11
61.451181114
 21
100.1606668071
 31
0.0
  0
LINE
  5
3EA
330
1F
100
AcDbEntity
  8
0
  6
Continuous
 62
     7
370
    15
100
AcDbLine
 10
1.1498784728
 20
1.7935989956
 30
0.0
 11
17.5292939666
 21
19.6936102488
 31
0.0
  0
ARC
  5
3EB
330
1F
100
AcDbEntity
  8
0
  6
Continuous
 62
     7
370
    15
100
AcDbCircle
 10
-38.7547085152
 20
-70.3466725747
 30
0.0
 40
0.9999999999999192
100
AcDbArc
 50
84.6112938522
 51
137.5399095125
  0
ARC
  5
3EC
330
1F
100
AcDbEntity
  8
0
  6
Continuous
 62
     7
370
    15
100
AcDbCircle
 10
61.2555895209
 20
37.7979762181
 30
0.0
 40
1.00000000000002
100
AcDbArc
 50
221.0195589646
 51
264.6112938523
  0
ARC
  5
3ED
330
1F
100
AcDbEntity
  8
0
  6
Continuous
 62
     7
370
    15
100
AcDbCircle
 10
60.742667159
 20
38.3876192507
 30
0.0
 40
1.000000000000012
100
AcDbArc
 50
137.5399095125
 51
221.0195589646
  0
ARC
  5
3EE
330
1F
100
AcDbEntity
  8
0
  6
Continuous
 62
     7
370
    15
100
AcDbCircle
 10
-32.8719146706
 20
-74.5135673683
 30
0.0
 40
1.09106998478779
100
AcDbArc
 50
138.2569009521
 51
211.1626906995
  0
ARC
  5
3EF
330
1F
100
AcDbEntity
  8
0
  6
Continuous
 62
     7
370
    15
100
AcDbCircle
 10
-33.7008275535
 20
-31.3066757902
 30
0.0
 40
0.8287801125983579
100
AcDbArc
 50
220.3557188829
 51
319.4105951212
  0
ARC
  5
3F0
330
1F
100
AcDbEntity
  8
0
  6
Continuous
 62
     7
370
    15
100
AcDbCircle
 10
-73.2971639313
 20
-100.2509505235
 30
0.0
 40
2.004924600352846
100
AcDbArc
 50
14.6277481036
 51
40.6797023465
  0
ARC
  5
3F1
330
1F
100
AcDbEntity
  8
0
  6
Continuous
 62
     7
370
    15
100
AcDbCircle
 10
-86.4255595727
 20
-69.0639892759
 30
0.0
 40
1.01876174771596
100
AcDbArc
 50
188.2288509144
 51
220.895300863
  0
ARC
  5
3F2
330
1F
100
AcDbEntity
  8
0
  6
Continuous
 62
     7
370
    15
100
AcDbCircle
 10
-85.2966835071
 20
-66.6705554369
 30
0.0
 40
2.037252260353595
100
AcDbArc
 50
285.4553880979
 51
10.6437071053
  0
ARC
  5
3F3
330
1F
100
AcDbEntity
  8
0
  6
Continuous
 62
     7
370
    15
100
AcDbCircle
 10
-87.4940940522
 20
-50.4669965036
 30
0.0
 40
1.769393426766393
100
AcDbArc
 50
5.191447257
 51
99.6129136717
  0
ARC
  5
3F4
330
1F
100
AcDbEntity
  8
0
  6
Continuous
 62
     7
370
    15
100
AcDbCircle
 10
-26.7248826107
 20
-155.5353228514
 30
0.0
 40
2.181076037890426
100
AcDbArc
 50
141.5043216169
 51
207.7182660876
  0
ARC
  5
3F5
330
1F
100
AcDbEntity
  8
0
  6
Continuous
 62
     7
370
    15
100
AcDbCircle
 10
-36.7719653966
 20
-70.8305547548
 30
0.0
 40
0.8167844456683374
100
AcDbArc
 50
39.8957991323
 51
114.2468728227
  0
ARC
  5
3F6
330
1F
100
AcDbEntity
  8
0
  6
Continuous
 62
     7
370
    15
100
AcDbCircle
 10
-37.2739372888
 20
-72.0059998099
 30
0.0
 40
1.803935908314964
100
AcDbArc
 50
100.3009500236
 51
141.929970256
  0
ARC
  5
3F7
330
1F
100
AcDbEntity
  8
0
  6
Continuous
 62
     7
370
    15
100
AcDbCircle
 10
-38.4309034595
 20
-70.9204245444
 30
0.0
 40
1.082274796316892
100
AcDbArc
 50
318.0387925443
 51
39.5599561917
  0
ARC
  5
3F8
330
1F
100
AcDbEntity
  8
0
  6
Continuous
 62
     7
370
    15
100
AcDbCircle
 10
-36.9374799681
 20
-69.5288300176
 30
0.0
 40
2.224509965440464
100
AcDbArc
 50
217.8456979276
 51
251.9665487297
  0
ARC
  5
3F9
330
1F
100
AcDbEntity
  8
0
  6
Continuous
 62
     7
370
    15
100
AcDbCircle
 10
-43.341423485
 20
-77.266059254
 30
0.0
 40
1.561342305085904
100
AcDbArc
 50
193.5301735173
 51
243.1892214969
  0
ARC
  5
3FA
330
1F
100
AcDbEntity
  8
0
  6
Continuous
 62
     7
370
    15
100
AcDbCircle
 10
-37.7868596507
 20
-71.4163567773
 30
0.0
 40
1.803935908314977
100
AcDbArc
 50
100.3009500236
 51
141.929970256
  0
ARC
  5
3FB
330
1F
100
AcDbEntity
  8
0
  6
Continuous
 62
     7
370
    15
100
AcDbCircle
 10
-35.2747010529
 20
-70.9880115639
 30
0.0
 40
0.8339314815380301
100
AcDbArc
 50
40.2843059819
 51
84.163591306
  0
ARC
  5
3FC
330
1F
100
AcDbEntity
  8
0
  6
Continuous
 62
     7
370
    15
100
AcDbCircle
 10
-37.0566770398
 20
-70.3397309165
 30
0.0
 40
0.833647932537891
100
AcDbArc
 50
40.2764559579
 51
84.1714413299
  0
ARC
  5
3FD
330
1F
100
AcDbEntity
  8
0
  6
Continuous
 62
     7
370
    15
100
AcDbCircle
 10
-46.3434656216
 20
-78.3952491139
 30
0.0
 40
0.837673266742136
100
AcDbArc
 50
132.8065512325
 51
213.9159536645
  0
ARC
  5
3FE
330
1F
100
AcDbEntity
  8
0
  6
Continuous
 62
     7
370
    15
100
AcDbCircle
 10
-43.7802283269
 20
-46.7307513217
 30
0.0
 40
3.269099584394672
100
AcDbArc
 50
221.1805249624
 51
234.381607557
  0
ARC
  5
3FF
330
1F
100
AcDbEntity
  8
0
  6
Continuous
 62
     7
370
    15
100
AcDbCircle
 10
-58.6217051354
 20
-10.7170408361
 30
0.0
 40
5.469626275741132
100
AcDbArc
 50
22.6799062274
 51
73.0984049682
  0
ARC
  5
400
330
1F
100
AcDbEntity
  8
0
  6
Continuous
 62
     7
370
    15
100
AcDbCircle
 10
-43.9354842262
 20
-43.3189489741
 30
0.0
 40
2.048597292550258
100
AcDbArc
 50
99.2215387895
 51
222.3461735498
  0
ARC
  5
401
330
1F
100
AcDbEntity
  8
0
  6
Continuous
 62
     7
370
    15
100
AcDbCircle
 10
-94.9348654516
 20
-72.0398383075
 30
0.0
 40
0.8793141019600486
100
AcDbArc
 50
143.1780962517
 51
228.4463332117
  0
ARC
  5
402
330
1F
100
AcDbEntity
  8
0
  6
Continuous
 62
     7
370
    15
100
AcDbCircle
 10
-99.5401551414
 20
-34.076595008
 30
0.0
 40
4.335076422642145
100
AcDbArc
 50
22.0739950765
 51
73.0058239484
  0
ARC
  5
403
330
1F
100
AcDbEntity
  8
0
  6
Continuous
 62
     7
370
    15
100
AcDbCircle
 10
-70.0120600395
 20
11.7248236872
 30
0.0
 40
0.8526563143020328
100
AcDbArc
 50
41.4945698429
 51
159.0608890256
  0
ARC
  5
404
330
1F
100
AcDbEntity
  8
0
  6
Continuous
 62
     7
370
    15
100
AcDbCircle
 10
-76.2810424203
 20
2.6688270002
 30
0.0
 40
1.030821239413107
100
AcDbArc
 50
317.6841046877
 51
335.272995296
  0
ARC
  5
405
330
1F
100
AcDbEntity
  8
0
  6
Continuous
 62
     7
370
    15
100
AcDbCircle
 10
-69.2585718153
 20
11.6781762742
 30
0.0
 40
0.8354592776127185
100
AcDbArc
 50
40.3265037306
 51
84.1213935573
  0
ARC
  5
406
330
1F
100
AcDbEntity
  8
0
  6
Continuous
 62
     7
370
    15
100
AcDbCircle
 10
-72.7153594922
 20
-63.5976005485
 30
0.0
 40
2.181194031902433
100
AcDbArc
 50
141.5063426543
 51
207.7162450502
  0
ARC
  5
407
330
1F
100
AcDbEntity
  8
0
  6
Continuous
 62
     7
370
    15
100
AcDbCircle
 10
-89.451995265
 20
-62.8600409805
 30
0.0
 40
7.259385446126183
100
AcDbArc
 50
257.3968530731
 51
261.9059985148
  0
ARC
  5
408
330
1F
100
AcDbEntity
  8
0
  6
Continuous
 62
     7
370
    15
100
AcDbCircle
 10
-86.3158108785
 20
-69.2237342643
 30
0.0
 40
1.118108368344322
100
AcDbArc
 50
95.990054537
 51
179.2860387689
  0
ARC
  5
409
330
1F
100
AcDbEntity
  8
0
  6
Continuous
 62
     7
370
    15
100
AcDbCircle
 10
-86.6194551302
 20
-48.7233102506
 30
0.0
 40
1.170111968197136
100
AcDbArc
 50
179.9577862178
 51
240.947416859
  0
ARC
  5
40A
330
1F
100
AcDbEntity
  8
0
  6
Continuous
 62
     7
370
    15
100
AcDbCircle
 10
-92.1108187872
 20
-51.9675232311
 30
0.0
 40
0.9835689604229204
100
AcDbArc
 50
92.8943190442
 51
126.6299815791
  0
ARC
  5
40B
330
1F
100
AcDbEntity
  8
0
  6
Continuous
 62
     7
370
    15
100
AcDbCircle
 10
-91.0155870077
 20
-49.6675823611
 30
0.0
 40
1.17011196819715
100
AcDbArc
 50
179.9577862178
 51
240.947416859
  0
ARC
  5
40C
330
1F
100
AcDbEntity
  8
0
  6
Continuous
 62
     7
370
    15
100
AcDbCircle
 10
-90.533702346
 20
-70.0371853698
 30
0.0
 40
0.9835689604238408
100
AcDbArc
 50
92.8943190442
 51
126.6299815791
  0
ARC
  5
40D
330
1F
100
AcDbEntity
  8
0
  6
Continuous
 62
     7
370
    15
100
AcDbCircle
 10
-102.5192914655
 20
-37.9620575832
 30
0.0
 40
7.887994197775967
100
AcDbArc
 50
22.5765991419
 51
51.2667780805
  0
ARC
  5
40E
330
1F
100
AcDbEntity
  8
0
  6
Continuous
 62
     7
370
    15
100
AcDbCircle
 10
-98.9108278319
 20
-20.3371839108
 30
0.0
 40
0.8246527765738859
100
AcDbArc
 50
40.2385050238
 51
139.5597252819
  0
ARC
  5
40F
330
1F
100
AcDbEntity
  8
0
  6
Continuous
 62
     7
370
    15
100
AcDbCircle
 10
-101.5184826446
 20
-23.5927736318
 30
0.0
 40
1.084992756478734
100
AcDbArc
 50
138.3065892033
 51
219.6002694562
  0
ARC
  5
410
330
1F
100
AcDbEntity
  8
0
  6
Continuous
 62
     7
370
    15
100
AcDbCircle
 10
-97.9886202696
 20
-20.4310208511
 30
0.0
 40
0.8336479325380659
100
AcDbArc
 50
40.2764559579
 51
84.1714413299
  0
ARC
  5
411
330
1F
100
AcDbEntity
  8
0
  6
Continuous
 62
     7
370
    15
100
AcDbCircle
 10
88.4751659147
 20
73.5546624952
 30
0.0
 40
1.123992064438025
100
AcDbArc
 50
109.0800920981
 51
172.0943012737
  0
ARC
  5
412
330
1F
100
AcDbEntity
  8
0
  6
Continuous
 62
     7
370
    15
100
AcDbCircle
 10
87.9613291962
 20
75.3190419218
 30
0.0
 40
1.717779369257208
100
AcDbArc
 50
220.671383091
 51
249.5749872473
  0
ARC
  5
413
330
1F
100
AcDbEntity
  8
0
  6
Continuous
 62
     7
370
    15
100
AcDbCircle
 10
25.0296654852
 20
33.252206837
 30
0.0
 40
1.082274796316909
100
AcDbArc
 50
318.0387925443
 51
39.5599561917
  0
ARC
  5
414
330
1F
100
AcDbEntity
  8
0
  6
Continuous
 62
     7
370
    15
100
AcDbCircle
 10
63.8861430686
 20
31.6178111092
 30
0.0
 40
0.8276835966465207
100
AcDbArc
 50
50.578761931
 51
139.448248943
  0
ARC
  5
415
330
1F
100
AcDbEntity
  8
0
  6
Continuous
 62
     7
370
    15
100
AcDbCircle
 10
69.6118013676
 20
46.2494649696
 30
0.0
 40
0.8336479325380801
100
AcDbArc
 50
40.2764559579
 51
84.1714413299
  0
ARC
  5
416
330
1F
100
AcDbEntity
  8
0
  6
Continuous
 62
     7
370
    15
100
AcDbCircle
 10
46.1729217807
 20
95.134459585
 30
0.0
 40
1.956951583821051
100
AcDbArc
 50
166.2658518269
 51
253.9850896617
  0
ARC
  5
417
330
1F
100
AcDbEntity
  8
0
  6
Continuous
 62
     7
370
    15
100
AcDbCircle
 10
60.1258710521
 20
91.9387158381
 30
0.0
 40
1.844759400091822
100
AcDbArc
 50
260.7846919779
 51
352.3671188089
  0
ARC
  5
418
330
1F
100
AcDbEntity
  8
0
  6
Continuous
 62
     7
370
    15
100
AcDbCircle
 10
65.6469847604
 20
32.3451537243
 30
0.0
 40
1.075987531174018
100
AcDbArc
 50
339.1369932868
 51
39.6994992925
  0
ARC
  5
419
330
1F
100
AcDbEntity
  8
0
  6
Continuous
 62
     7
370
    15
100
AcDbCircle
 10
62.8641891374
 20
37.550078117
 30
0.0
 40
0.9191381700227698
100
AcDbArc
 50
295.8318840427
 51
317.773870877
  0
ARC
  5
41A
330
1F
100
AcDbEntity
  8
0
  6
Continuous
 62
     7
370
    15
100
AcDbCircle
 10
141.04589941
 20
27.8104235409
 30
0.0
 40
2.181194031902367
100
AcDbArc
 50
141.5063426542
 51
207.7162450503
  0
ARC
  5
41B
330
1F
100
AcDbEntity
  8
0
  6
Continuous
 62
     7
370
    15
100
AcDbCircle
 10
88.0786247477
 20
73.0871808602
 30
0.0
 40
1.803935908314927
100
AcDbArc
 50
100.3009500236
 51
141.929970256
  0
ARC
  5
41C
330
1F
100
AcDbEntity
  8
0
  6
Continuous
 62
     7
370
    15
100
AcDbCircle
 10
88.4074809995
 20
75.4217963592
 30
0.0
 40
0.8588896846285927
100
AcDbArc
 50
220.671383091
 51
249.5749872473
  0
ARC
  5
41D
330
1F
100
AcDbEntity
  8
0
  6
Continuous
 62
     7
370
    15
100
AcDbCircle
 10
63.625176707
 20
100.5534775414
 30
0.0
 40
1.359202702437835
100
AcDbArc
 50
49.4035087722
 51
127.5714411255
  0
ARC
  5
41E
330
1F
100
AcDbEntity
  8
0
  6
Continuous
 62
     7
370
    15
100
AcDbCircle
 10
91.1213621267
 20
75.1657987785
 30
0.0
 40
0.8588896846286498
100
AcDbArc
 50
220.671383091
 51
249.5749872473
  0
ARC
  5
41F
330
1F
100
AcDbEntity
  8
0
  6
Continuous
 62
     7
370
    15
100
AcDbCircle
 10
66.9248798163
 20
101.2942735024
 30
0.0
 40
0.3007236720005095
100
AcDbArc
 50
6.7342603884
 51
82.3858213507
  0
ARC
  5
420
330
1F
100
AcDbEntity
  8
0
  6
Continuous
 62
     7
370
    15
100
AcDbCircle
 10
62.5598957061
 20
39.2054618077
 30
0.0
 40
2.224509965440405
100
AcDbArc
 50
217.8456979276
 51
251.9665487297
  0
ARC
  5
421
330
1F
100
AcDbEntity
  8
0
  6
Continuous
 62
     7
370
    15
100
AcDbCircle
 10
63.8985638009
 20
32.9383399595
 30
0.0
 40
1.534089024940214
100
AcDbArc
 50
326.8970438774
 51
7.249203345
  0
ARC
  5
422
330
1F
100
AcDbEntity
  8
0
  6
Continuous
 62
     7
370
    15
100
AcDbCircle
 10
61.6265432062
 20
36.3239377202
 30
0.0
 40
1.076715715219372
100
AcDbArc
 50
158.419308744
 51
219.6849393567
  0
ARC
  5
423
330
1F
100
AcDbEntity
  8
0
  6
Continuous
 62
     7
370
    15
100
AcDbCircle
 10
28.1638634877
 20
33.0157949784
 30
0.0
 40
0.9767267259615882
100
AcDbArc
 50
23.6004578191
 51
40.8675426684
  0
ARC
  5
424
330
1F
100
AcDbEntity
  8
0
  6
Continuous
 62
     7
370
    15
100
AcDbCircle
 10
60.2104702966
 20
81.6686683796
 30
0.0
 40
2.181076037890459
100
AcDbArc
 50
141.5043216168
 51
207.7182660877
  0
ARC
  5
425
330
1F
100
AcDbEntity
  8
0
  6
Continuous
 62
     7
370
    15
100
AcDbCircle
 10
47.1468767505
 20
94.9253993129
 30
0.0
 40
1.070791270580598
100
AcDbArc
 50
158.8449598403
 51
223.99008506
  0
ARC
  5
426
330
1F
100
AcDbEntity
  8
0
  6
Continuous
 62
     7
370
    15
100
AcDbCircle
 10
48.341780562
 20
114.2030426585
 30
0.0
 40
14.05198534870247
100
AcDbArc
 50
257.1864873316
 51
262.6697080945
  0
ARC
  5
427
330
1F
100
AcDbEntity
  8
0
  6
Continuous
 62
     7
370
    15
100
AcDbCircle
 10
47.3883515911
 20
109.3011232841
 30
0.0
 40
14.05198534870046
100
AcDbArc
 50
257.1864873316
 51
262.6697080945
  0
ARC
  5
428
330
1F
100
AcDbEntity
  8
0
  6
Continuous
 62
     7
370
    15
100
AcDbCircle
 10
46.5459718561
 20
95.1316761155
 30
0.0
 40
0.9784757919105289
100
AcDbArc
 50
166.2658518269
 51
253.9850896617
  0
ARC
  5
429
330
1F
100
AcDbEntity
  8
0
  6
Continuous
 62
     7
370
    15
100
AcDbCircle
 10
39.9386464475
 20
48.3642987956
 30
0.0
 40
2.036591690077743
100
AcDbArc
 50
98.9575331785
 51
250.265054526
  0
ARC
  5
42A
330
1F
100
AcDbEntity
  8
0
  6
Continuous
 62
     7
370
    15
100
AcDbCircle
 10
22.8205490982
 20
99.0138044318
 30
0.0
 40
7.887994197775791
100
AcDbArc
 50
22.5765991419
 51
51.2667780805
  0
ARC
  5
42B
330
1F
100
AcDbEntity
  8
0
  6
Continuous
 62
     7
370
    15
100
AcDbCircle
 10
-9.1345390495
 20
64.7218966726
 30
0.0
 40
4.335076422642163
100
AcDbArc
 50
22.0739950765
 51
73.0058239484
  0
ARC
  5
42C
330
1F
100
AcDbEntity
  8
0
  6
Continuous
 62
     7
370
    15
100
AcDbCircle
 10
-3.9420105051
 20
81.5698322735
 30
0.0
 40
0.9270786645241429
100
AcDbArc
 50
298.8322922459
 51
317.714871127
  0
ARC
  5
42D
330
1F
100
AcDbEntity
  8
0
  6
Continuous
 62
     7
370
    15
100
AcDbCircle
 10
-11.7942973171
 20
75.0074129335
 30
0.0
 40
1.067064350399456
100
AcDbArc
 50
120.9502023088
 51
220.0205767568
  0
ARC
  5
42E
330
1F
100
AcDbEntity
  8
0
  6
Continuous
 62
     7
370
    15
100
AcDbCircle
 10
33.2465117017
 20
107.1435146991
 30
0.0
 40
2.224509965440407
100
AcDbArc
 50
217.8456979276
 51
251.9665487297
  0
ARC
  5
42F
330
1F
100
AcDbEntity
  8
0
  6
Continuous
 62
     7
370
    15
100
AcDbCircle
 10
24.1110924965
 20
100.4241564289
 30
0.0
 40
7.887994197775764
100
AcDbArc
 50
22.5765991419
 51
51.2667780805
  0
ARC
  5
430
330
1F
100
AcDbEntity
  8
0
  6
Continuous
 62
     7
370
    15
100
AcDbCircle
 10
26.4052602565
 20
108.2396774797
 30
0.0
 40
2.224509965440438
100
AcDbArc
 50
37.8456979276
 51
71.9665487296
  0
ARC
  5
431
330
1F
100
AcDbEntity
  8
0
  6
Continuous
 62
     7
370
    15
100
AcDbCircle
 10
21.0611982177
 20
110.7405003105
 30
0.0
 40
0.8329194318658367
100
AcDbArc
 50
40.472308707
 51
139.2622805177
  0
ARC
  5
432
330
1F
100
AcDbEntity
  8
0
  6
Continuous
 62
     7
370
    15
100
AcDbCircle
 10
18.4062858033
 20
107.4927636806
 30
0.0
 40
1.079592377062931
100
AcDbArc
 50
137.7714397791
 51
219.5190776594
  0
ARC
  5
433
330
1F
100
AcDbEntity
  8
0
  6
Continuous
 62
     7
370
    15
100
AcDbCircle
 10
21.9634251394
 20
110.6568658612
 30
0.0
 40
0.8336479325379029
100
AcDbArc
 50
40.2764559579
 51
84.1714413299
  0
ARC
  5
434
330
1F
100
AcDbEntity
  8
0
  6
Continuous
 62
     7
370
    15
100
AcDbCircle
 10
-0.336098844
 20
52.9859001365
 30
0.0
 40
5.564377547167163
100
AcDbArc
 50
23.0826938611
 51
72.5840304542
  0
ARC
  5
435
330
1F
100
AcDbEntity
  8
0
  6
Continuous
 62
     7
370
    15
100
AcDbCircle
 10
-71.2414755435
 20
-100.5351369662
 30
0.0
 40
0.7989353984805302
100
AcDbArc
 50
98.3303075801
 51
142.0458499954
  0
ARC
  5
436
330
1F
100
AcDbEntity
  8
0
  6
Continuous
 62
     7
370
    15
100
AcDbCircle
 10
-38.7454552052
 20
-70.1804302308
 30
0.0
 40
0.8336479325380278
100
AcDbArc
 50
40.2764559579
 51
84.1714413299
  0
ARC
  5
437
330
1F
100
AcDbEntity
  8
0
  6
Continuous
 62
     7
370
    15
100
AcDbCircle
 10
-85.6854920884
 20
-51.275969681
 30
0.0
 40
0.9701882215288569
100
AcDbArc
 50
92.7452062758
 51
126.9154321786
  0
ARC
  5
438
330
1F
100
AcDbEntity
  8
0
  6
Continuous
 62
     7
370
    15
100
AcDbCircle
 10
-83.2480159671
 20
-67.2633475089
 30
0.0
 40
0.9701882215282744
100
AcDbArc
 50
92.7452062758
 51
126.9154321787
  0
ARC
  5
439
330
1F
100
AcDbEntity
  8
0
  6
Continuous
 62
     7
370
    15
100
AcDbCircle
 10
61.2310858481
 20
37.6498305382
 30
0.0
 40
0.8502724812352283
100
AcDbArc
 50
265.3176913063
 51
318.841523037
  0
ARC
  5
43A
330
1F
100
AcDbEntity
  8
0
  6
Continuous
 62
     7
370
    15
100
AcDbCircle
 10
62.2493697302
 20
93.7661040002
 30
0.0
 40
2.093321380118896
100
AcDbArc
 50
246.8080630654
 51
261.8963160873
  0
MTEXT
  5
43C
330
1F
100
AcDbEntity
  8
0
  6
Continuous
 62
     7
100
AcDbMText
 10
-102.6034754011
 20
-187.0986354931
 30
0.0
 40
4.83362
 41
0.0
 71
     1
 72
     1
  1
SolidWorks Educational Edition.
  7
SLDTEXTSTYLE0
 73
     1
 44
1.0
  0
MTEXT
  5
43D
330
1F
100
AcDbEntity
  8
0
  6
Continuous
 62
     7
100
AcDbMText
 10
-102.6034754011
 20
-194.3490654931
 30
0.0
 40
4.83362
 41
0.0
 71
     1
 72
     1
  1
For Instructional Use Only.
  7
SLDTEXTSTYLE0
 73
     1
 44
1.0
  0
ENDSEC
  0
SECTION
  2
OBJECTS
  0
DICTIONARY
  5
C
330
0
100
AcDbDictionary
281
     1
  3
ACAD_GROUP
350
D
  3
ACAD_LAYOUT
350
1A
  3
ACAD_MLINESTYLE
350
17
  3
ACAD_PLOTSETTINGS
350
19
  3
ACAD_PLOTSTYLENAME
350
E
  0
DICTIONARY
  5
D
102
{ACAD_REACTORS
330
C
102
}
330
C
100
AcDbDictionary
281
     1
  0
DICTIONARY
  5
1A
102
{ACAD_REACTORS
330
C
102
}
330
C
100
AcDbDictionary
281
     1
  3
Layout1
350
1E
  3
Layout2
350
26
  3
Model
350
22
  0
DICTIONARY
  5
17
102
{ACAD_REACTORS
330
C
102
}
330
C
100
AcDbDictionary
281
     1
  3
Standard
350
18
  0
DICTIONARY
  5
19
102
{ACAD_REACTORS
330
C
102
}
330
C
100
AcDbDictionary
281
     1
  0
ACDBDICTIONARYWDFLT
  5
E
102
{ACAD_REACTORS
330
C
102
}
330
C
100
AcDbDictionary
281
     1
  3
Normal
350
F
100
AcDbDictionaryWithDefault
340
F
  0
LAYOUT
  5
1E
102
{ACAD_REACTORS
330
1A
102
}
330
1A
100
AcDbPlotSettings
  1

  2
none_device
  4

  6

 40
0.0
 41
0.0
 42
0.0
 43
0.0
 44
0.0
 45
0.0
 46
0.0
 47
0.0
 48
0.0
 49
0.0
140
0.0
141
0.0
142
1.0
143
1.0
 70
   688
 72
     0
 73
     0
 74
     5
  7

 75
    16
147
1.0
148
0.0
149
0.0
100
AcDbLayout
  1
Layout1
 70
     1
 71
     1
 10
0.0
 20
0.0
 11
420.0
 21
297.0
 12
0.0
 22
0.0
 32
0.0
 14
1.0000000000E+20
 24
1.0000000000E+20
 34
1.0000000000E+20
 15
-1.0000000000E+20
 25
-1.0000000000E+20
 35
-1.0000000000E+20
146
0.0
 13
0.0
 23
0.0
 33
0.0
 16
1.0
 26
0.0
 36
0.0
 17
0.0
 27
1.0
 37
0.0
 76
     0
330
1B
  0
LAYOUT
  5
26
102
{ACAD_REACTORS
330
1A
102
}
330
1A
100
AcDbPlotSettings
  1

  2
none_device
  4

  6

 40
0.0
 41
0.0
 42
0.0
 43
0.0
 44
0.0
 45
0.0
 46
0.0
 47
0.0
 48
0.0
 49
0.0
140
0.0
141
0.0
142
1.0
143
1.0
 70
   688
 72
     0
 73
     0
 74
     5
  7

 75
    16
147
1.0
148
0.0
149
0.0
100
AcDbLayout
  1
Layout2
 70
     1
 71
     2
 10
0.0
 20
0.0
 11
0.0
 21
0.0
 12
0.0
 22
0.0
 32
0.0
 14
0.0
 24
0.0
 34
0.0
 15
0.0
 25
0.0
 35
0.0
146
0.0
 13
0.0
 23
0.0
 33
0.0
 16
1.0
 26
0.0
 36
0.0
 17
0.0
 27
1.0
 37
0.0
 76
     0
330
23
  0
LAYOUT
  5
22
102
{ACAD_REACTORS
330
1A
102
}
330
1A
100
AcDbPlotSettings
  1

  2
none_device
  4
ANSI_A_(11.00_x_8.50_Inches)
  6

 40
6.35
 41
19.05
 42
6.35000508
 43
19.05000254
 44
279.4
 45
215.9
 46
110.4558912668
 47
115.650845097
 48
0.0
 49
0.0
140
0.0
141
0.0
142
0.0282712234
143
1.0
 70
  1696
 72
     0
 73
     0
 74
     0
  7

 75
     0
147
0.0179189148
148
0.0
149
0.0
100
AcDbLayout
  1
Model
 70
     1
 71
     0
 10
0.0
 20
0.0
 11
420.0
 21
297.0
 12
0.0
 22
0.0
 32
0.0
 14
-102.6034754011
 24
-186.0790691014
 34
0.0
 15
166.3674485113
 25
111.5734197424
 35
0.0
146
0.0
 13
0.0
 23
0.0
 33
0.0
 16
1.0
 26
0.0
 36
0.0
 17
0.0
 27
1.0
 37
0.0
 76
     0
330
1F
331
29
  0
MLINESTYLE
  5
18
102
{ACAD_REACTORS
330
17
102
}
330
17
100
AcDbMlineStyle
  2
Standard
 70
     0
  3

 62
   256
 51
90.0
 52
90.0
 71
     2
 49
0.5
 62
   256
  6
BYLAYER
 49
-0.5
 62
   256
  6
BYLAYER
  0
ACDBPLACEHOLDER
  5
F
102
{ACAD_REACTORS
330
E
102
}
330
E
  0
ENDSEC
  0
EOF
