solid Shotshell holder back half
facet normal 0.999860737178568 0.0166885064858948 -0.0
outer loop
vertex 14.0890088538924 54.5803352552966 0.0
vertex 15.0 0.0 15.0
vertex 15.0 0.0 0.0
endloop
endfacet
facet normal 0.999860737178568 0.0166885064858948 -0.0
outer loop
vertex 15.0 0.0 15.0
vertex 14.0890088538924 54.5803352552966 0.0
vertex 14.0890088538924 54.5803352552966 15.0
endloop
endfacet
facet normal 0.99144486137381 -0.130526192220052 -0.0
outer loop
vertex 15.0 0.0 0.0
vertex 14.488887394336 -3.88228567653781 15.0
vertex 14.488887394336 -3.88228567653781 0.0
endloop
endfacet
facet normal 0.99144486137381 -0.130526192220052 -0.0
outer loop
vertex 14.488887394336 -3.88228567653781 15.0
vertex 15.0 0.0 0.0
vertex 15.0 0.0 15.0
endloop
endfacet
facet normal 0.923879532511287 -0.382683432365089 -3.67105220068886e-018
outer loop
vertex 14.488887394336 -3.88228567653781 0.0
vertex 12.9903810567666 -7.5 15.0
vertex 12.9903810567666 -7.5 0.0
endloop
endfacet
facet normal 0.923879532511287 -0.382683432365089 -3.67105220068886e-018
outer loop
vertex 12.9903810567666 -7.5 15.0
vertex 14.488887394336 -3.88228567653781 0.0
vertex 14.488887394336 -3.88228567653781 15.0
endloop
endfacet
facet normal 0.793353340291235 -0.608761429008721 2.70381991283722e-032
outer loop
vertex 12.9903810567666 -7.5 0.0
vertex 10.6066017177982 -10.6066017177982 15.0
vertex 10.6066017177982 -10.6066017177982 0.0
endloop
endfacet
facet normal 0.793353340291235 -0.608761429008721 2.70381991283722e-032
outer loop
vertex 10.6066017177982 -10.6066017177982 15.0
vertex 12.9903810567666 -7.5 0.0
vertex 12.9903810567666 -7.5 15.0
endloop
endfacet
facet normal 0.60876142900872 -0.793353340291235 0.0
outer loop
vertex 10.6066017177982 -10.6066017177982 15.0
vertex 7.49999999999999 -12.9903810567666 0.0
vertex 10.6066017177982 -10.6066017177982 0.0
endloop
endfacet
facet normal 0.60876142900872 -0.793353340291235 0.0
outer loop
vertex 7.49999999999999 -12.9903810567666 0.0
vertex 10.6066017177982 -10.6066017177982 15.0
vertex 7.49999999999999 -12.9903810567666 15.0
endloop
endfacet
facet normal 0.38268343236509 -0.923879532511287 3.67105220068889e-018
outer loop
vertex 7.49999999999999 -12.9903810567666 15.0
vertex 3.8822856765378 -14.488887394336 0.0
vertex 7.49999999999999 -12.9903810567666 0.0
endloop
endfacet
facet normal 0.38268343236509 -0.923879532511287 3.67105220068889e-018
outer loop
vertex 3.8822856765378 -14.488887394336 0.0
vertex 7.49999999999999 -12.9903810567666 15.0
vertex 3.8822856765378 -14.488887394336 15.0
endloop
endfacet
facet normal 0.130526192220051 -0.99144486137381 -2.44098415614649e-018
outer loop
vertex 3.8822856765378 -14.488887394336 15.0
vertex -5.07579076266045e-015 -15.0 0.0
vertex 3.8822856765378 -14.488887394336 0.0
endloop
endfacet
facet normal 0.130526192220051 -0.99144486137381 -2.44098415614649e-018
outer loop
vertex -5.07579076266045e-015 -15.0 0.0
vertex 3.8822856765378 -14.488887394336 15.0
vertex -5.07579076266045e-015 -15.0 15.0
endloop
endfacet
facet normal -0.130526192220052 -0.99144486137381 -1.18885661502053e-018
outer loop
vertex -5.07579076266045e-015 -15.0 15.0
vertex -3.88228567653781 -14.488887394336 0.0
vertex -5.07579076266045e-015 -15.0 0.0
endloop
endfacet
facet normal -0.130526192220052 -0.99144486137381 -1.18885661502053e-018
outer loop
vertex -3.88228567653781 -14.488887394336 0.0
vertex -5.07579076266045e-015 -15.0 15.0
vertex -3.88228567653781 -14.488887394336 15.0
endloop
endfacet
facet normal -0.38268343236509 -0.923879532511287 3.14866497713334e-032
outer loop
vertex -3.88228567653781 -14.488887394336 15.0
vertex -7.5 -12.9903810567666 0.0
vertex -3.88228567653781 -14.488887394336 0.0
endloop
endfacet
facet normal -0.38268343236509 -0.923879532511287 3.14866497713334e-032
outer loop
vertex -7.5 -12.9903810567666 0.0
vertex -3.88228567653781 -14.488887394336 15.0
vertex -7.5 -12.9903810567666 15.0
endloop
endfacet
facet normal -0.608761429008721 -0.793353340291235 -3.80528823497828e-018
outer loop
vertex -7.5 -12.9903810567666 15.0
vertex -10.6066017177982 -10.6066017177982 0.0
vertex -7.5 -12.9903810567666 0.0
endloop
endfacet
facet normal -0.608761429008721 -0.793353340291235 -3.80528823497828e-018
outer loop
vertex -10.6066017177982 -10.6066017177982 0.0
vertex -7.5 -12.9903810567666 15.0
vertex -10.6066017177982 -10.6066017177982 15.0
endloop
endfacet
facet normal -0.793353340291235 -0.60876142900872 -9.64508895445373e-018
outer loop
vertex -12.9903810567666 -7.49999999999999 15.0
vertex -10.6066017177982 -10.6066017177982 0.0
vertex -10.6066017177982 -10.6066017177982 15.0
endloop
endfacet
facet normal -0.793353340291235 -0.60876142900872 -9.64508895445373e-018
outer loop
vertex -10.6066017177982 -10.6066017177982 0.0
vertex -12.9903810567666 -7.49999999999999 15.0
vertex -12.9903810567666 -7.49999999999999 0.0
endloop
endfacet
facet normal -0.923879532511287 -0.38268343236509 3.67105220068887e-018
outer loop
vertex -14.488887394336 -3.88228567653781 15.0
vertex -12.9903810567666 -7.49999999999999 0.0
vertex -12.9903810567666 -7.49999999999999 15.0
endloop
endfacet
facet normal -0.923879532511287 -0.38268343236509 3.67105220068887e-018
outer loop
vertex -12.9903810567666 -7.49999999999999 0.0
vertex -14.488887394336 -3.88228567653781 15.0
vertex -14.488887394336 -3.88228567653781 0.0
endloop
endfacet
facet normal -0.99144486137381 -0.130526192220052 -2.44098415614647e-018
outer loop
vertex -15.0 1.65327317884893e-015 15.0
vertex -14.488887394336 -3.88228567653781 0.0
vertex -14.488887394336 -3.88228567653781 15.0
endloop
endfacet
facet normal -0.99144486137381 -0.130526192220052 -2.44098415614647e-018
outer loop
vertex -14.488887394336 -3.88228567653781 0.0
vertex -15.0 1.65327317884893e-015 15.0
vertex -15.0 1.65327317884893e-015 0.0
endloop
endfacet
facet normal -1.0 0.0 0.0
outer loop
vertex -15.0 54.5 15.0
vertex -15.0 1.65327317884893e-015 0.0
vertex -15.0 1.65327317884893e-015 15.0
endloop
endfacet
facet normal -1.0 0.0 0.0
outer loop
vertex -15.0 1.65327317884893e-015 0.0
vertex -15.0 54.5 15.0
vertex -15.0 54.5 0.0
endloop
endfacet
facet normal -0.0 1.0 -0.0
outer loop
vertex -15.0 54.5 15.0
vertex -11.5 54.5 0.0
vertex -15.0 54.5 0.0
endloop
endfacet
facet normal -0.0 1.0 -0.0
outer loop
vertex -11.5 54.5 0.0
vertex -15.0 54.5 15.0
vertex -11.5 54.5 5.0
endloop
endfacet
facet normal -0.0 1.0 -0.0
outer loop
vertex -11.5 54.5 5.0
vertex -15.0 54.5 15.0
vertex -12.5 54.5 15.0
endloop
endfacet
facet normal -0.793353340291237 -0.608761429008718 -9.83717474624222e-033
outer loop
vertex 6.36396103067893 29.7639610306789 5.0
vertex 7.79422863405995 27.9 0.0
vertex 7.79422863405995 27.9 5.0
endloop
endfacet
facet normal -0.793353340291237 -0.608761429008718 -9.83717474624222e-033
outer loop
vertex 7.79422863405995 27.9 0.0
vertex 6.36396103067893 29.7639610306789 5.0
vertex 6.36396103067893 29.7639610306789 0.0
endloop
endfacet
facet normal -0.60876142900872 -0.793353340291236 -4.76968527683722e-033
outer loop
vertex 6.36396103067893 29.7639610306789 5.0
vertex 4.5 31.1942286340599 0.0
vertex 6.36396103067893 29.7639610306789 0.0
endloop
endfacet
facet normal -0.60876142900872 -0.793353340291236 -4.76968527683722e-033
outer loop
vertex 4.5 31.1942286340599 0.0
vertex 6.36396103067893 29.7639610306789 5.0
vertex 4.5 31.1942286340599 5.0
endloop
endfacet
facet normal -0.382683432365091 -0.923879532511286 6.22850361906505e-034
outer loop
vertex 4.5 31.1942286340599 5.0
vertex 2.32937140592269 32.0933324366016 0.0
vertex 4.5 31.1942286340599 0.0
endloop
endfacet
facet normal -0.382683432365091 -0.923879532511286 6.22850361906505e-034
outer loop
vertex 2.32937140592269 32.0933324366016 0.0
vertex 4.5 31.1942286340599 5.0
vertex 2.32937140592269 32.0933324366016 5.0
endloop
endfacet
facet normal -0.130526192220054 -0.99144486137381 5.97293977779521e-033
outer loop
vertex 2.32937140592269 32.0933324366016 5.0
vertex 0.0 32.4 0.0
vertex 2.32937140592269 32.0933324366016 0.0
endloop
endfacet
facet normal -0.130526192220054 -0.99144486137381 5.97293977779521e-033
outer loop
vertex 0.0 32.4 0.0
vertex 2.32937140592269 32.0933324366016 5.0
vertex -9.46753168216286e-032 32.4 5.0
endloop
endfacet
facet normal 0.130526192220054 -0.99144486137381 1.0915983218577e-032
outer loop
vertex -9.46753168216286e-032 32.4 5.0
vertex -2.32937140592269 32.0933324366016 0.0
vertex 0.0 32.4 0.0
endloop
endfacet
facet normal 0.130526192220054 -0.99144486137381 1.0915983218577e-032
outer loop
vertex -2.32937140592269 32.0933324366016 0.0
vertex -9.46753168216286e-032 32.4 5.0
vertex -2.32937140592269 32.0933324366016 5.0
endloop
endfacet
facet normal 0.38268343236509 -0.923879532511287 1.51151204425278e-032
outer loop
vertex -2.32937140592269 32.0933324366016 5.0
vertex -4.5 31.1942286340599 0.0
vertex -2.32937140592269 32.0933324366016 0.0
endloop
endfacet
facet normal 0.38268343236509 -0.923879532511287 1.51151204425278e-032
outer loop
vertex -4.5 31.1942286340599 0.0
vertex -2.32937140592269 32.0933324366016 5.0
vertex -4.5 31.1942286340599 5.0
endloop
endfacet
facet normal 0.608761429008719 -0.793353340291237 1.82841871872379e-032
outer loop
vertex -4.5 31.1942286340599 5.0
vertex -6.36396103067893 29.7639610306789 0.0
vertex -4.5 31.1942286340599 0.0
endloop
endfacet
facet normal 0.608761429008719 -0.793353340291237 1.82841871872379e-032
outer loop
vertex -6.36396103067893 29.7639610306789 0.0
vertex -4.5 31.1942286340599 5.0
vertex -6.36396103067893 29.7639610306789 5.0
endloop
endfacet
facet normal 0.793353340291235 -0.60876142900872 2.02072167911858e-032
outer loop
vertex -6.36396103067893 29.7639610306789 0.0
vertex -7.79422863405995 27.9 5.0
vertex -7.79422863405995 27.9 0.0
endloop
endfacet
facet normal 0.793353340291235 -0.60876142900872 2.02072167911858e-032
outer loop
vertex -7.79422863405995 27.9 5.0
vertex -6.36396103067893 29.7639610306789 0.0
vertex -6.36396103067893 29.7639610306789 5.0
endloop
endfacet
facet normal 0.923879532511287 -0.382683432365089 2.07531579648191e-032
outer loop
vertex -7.79422863405995 27.9 0.0
vertex -8.69333243660162 25.7293714059227 5.0
vertex -8.69333243660162 25.7293714059227 0.0
endloop
endfacet
facet normal 0.923879532511287 -0.382683432365089 2.07531579648191e-032
outer loop
vertex -8.69333243660162 25.7293714059227 5.0
vertex -7.79422863405995 27.9 0.0
vertex -7.79422863405995 27.9 5.0
endloop
endfacet
facet normal 0.99144486137381 -0.130526192220052 1.9884805719365e-032
outer loop
vertex -8.69333243660162 25.7293714059227 0.0
vertex -9.0 23.4 5.0
vertex -9.0 23.4 0.0
endloop
endfacet
facet normal 0.99144486137381 -0.130526192220052 1.9884805719365e-032
outer loop
vertex -9.0 23.4 5.0
vertex -8.69333243660162 25.7293714059227 0.0
vertex -8.69333243660162 25.7293714059227 5.0
endloop
endfacet
facet normal 0.99144486137381 0.130526192220052 1.76613368253314e-032
outer loop
vertex -9.0 23.4 0.0
vertex -8.69333243660162 21.0706285940773 5.0
vertex -8.69333243660162 21.0706285940773 0.0
endloop
endfacet
facet normal 0.99144486137381 0.130526192220052 1.76613368253314e-032
outer loop
vertex -8.69333243660162 21.0706285940773 5.0
vertex -9.0 23.4 0.0
vertex -9.0 23.4 5.0
endloop
endfacet
facet normal 0.923879532511287 0.38268343236509 1.42342770133906e-032
outer loop
vertex -8.69333243660162 21.0706285940773 0.0
vertex -7.79422863405995 18.9 5.0
vertex -7.79422863405995 18.9 0.0
endloop
endfacet
facet normal 0.923879532511287 0.38268343236509 1.42342770133906e-032
outer loop
vertex -7.79422863405995 18.9 5.0
vertex -8.69333243660162 21.0706285940773 0.0
vertex -8.69333243660162 21.0706285940773 5.0
endloop
endfacet
facet normal 0.793353340291235 0.60876142900872 9.83717474624217e-033
outer loop
vertex -7.79422863405995 18.9 0.0
vertex -6.36396103067893 17.0360389693211 5.0
vertex -6.36396103067893 17.0360389693211 0.0
endloop
endfacet
facet normal 0.793353340291235 0.60876142900872 9.83717474624217e-033
outer loop
vertex -6.36396103067893 17.0360389693211 5.0
vertex -7.79422863405995 18.9 0.0
vertex -7.79422863405995 18.9 5.0
endloop
endfacet
facet normal 0.608761429008721 0.793353340291235 4.76968527683726e-033
outer loop
vertex -6.36396103067893 17.0360389693211 5.0
vertex -4.5 15.6057713659401 0.0
vertex -6.36396103067893 17.0360389693211 0.0
endloop
endfacet
facet normal 0.608761429008721 0.793353340291235 4.76968527683726e-033
outer loop
vertex -4.5 15.6057713659401 0.0
vertex -6.36396103067893 17.0360389693211 5.0
vertex -4.5 15.6057713659401 5.0
endloop
endfacet
facet normal 0.38268343236509 0.923879532511287 -6.22850361906517e-034
outer loop
vertex -4.5 15.6057713659401 5.0
vertex -2.32937140592269 14.7066675633984 0.0
vertex -4.5 15.6057713659401 0.0
endloop
endfacet
facet normal 0.38268343236509 0.923879532511287 -6.22850361906517e-034
outer loop
vertex -2.32937140592269 14.7066675633984 0.0
vertex -4.5 15.6057713659401 5.0
vertex -2.32937140592269 14.7066675633984 5.0
endloop
endfacet
facet normal 0.130526192220051 0.99144486137381 -5.97293977779527e-033
outer loop
vertex -2.32937140592269 14.7066675633984 5.0
vertex -1.89893852818128 14.65 0.0
vertex -2.32937140592269 14.7066675633984 0.0
endloop
endfacet
facet normal 0.130526192220051 0.99144486137381 -5.97293977779527e-033
outer loop
vertex -1.89893852818128 14.65 0.0
vertex -2.32937140592269 14.7066675633984 5.0
vertex -1.89893852818128 14.65 5.0
endloop
endfacet
facet normal 0.130526192220052 0.99144486137381 -5.97293977779525e-033
outer loop
vertex -1.89893852818128 14.65 5.0
vertex -1.10154940724527e-015 14.4 0.0
vertex -1.89893852818128 14.65 0.0
endloop
endfacet
facet normal 0.130526192220052 0.99144486137381 -5.97293977779525e-033
outer loop
vertex -1.10154940724527e-015 14.4 0.0
vertex -1.89893852818128 14.65 5.0
vertex -1.10154940724527e-015 14.4 5.0
endloop
endfacet
facet normal -0.130526192220052 0.99144486137381 -1.09159832185769e-032
outer loop
vertex -1.10154940724527e-015 14.4 5.0
vertex 1.89893852818128 14.65 0.0
vertex -1.10154940724527e-015 14.4 0.0
endloop
endfacet
facet normal -0.130526192220052 0.99144486137381 -1.09159832185769e-032
outer loop
vertex 1.89893852818128 14.65 0.0
vertex -1.10154940724527e-015 14.4 5.0
vertex 1.89893852818128 14.65 5.0
endloop
endfacet
facet normal -0.130526192220053 0.99144486137381 -1.09159832185769e-032
outer loop
vertex 1.89893852818128 14.65 5.0
vertex 2.32937140592268 14.7066675633984 0.0
vertex 1.89893852818128 14.65 0.0
endloop
endfacet
facet normal -0.130526192220053 0.99144486137381 -1.09159832185769e-032
outer loop
vertex 2.32937140592268 14.7066675633984 0.0
vertex 1.89893852818128 14.65 5.0
vertex 2.32937140592268 14.7066675633984 5.0
endloop
endfacet
facet normal -0.382683432365089 0.923879532511287 -1.51151204425278e-032
outer loop
vertex 2.32937140592268 14.7066675633984 5.0
vertex 4.5 15.6057713659401 0.0
vertex 2.32937140592268 14.7066675633984 0.0
endloop
endfacet
facet normal -0.382683432365089 0.923879532511287 -1.51151204425278e-032
outer loop
vertex 4.5 15.6057713659401 0.0
vertex 2.32937140592268 14.7066675633984 5.0
vertex 4.5 15.6057713659401 5.0
endloop
endfacet
facet normal -0.60876142900872 0.793353340291236 -1.8284187187238e-032
outer loop
vertex 4.5 15.6057713659401 5.0
vertex 6.36396103067892 17.0360389693211 0.0
vertex 4.5 15.6057713659401 0.0
endloop
endfacet
facet normal -0.60876142900872 0.793353340291236 -1.8284187187238e-032
outer loop
vertex 6.36396103067892 17.0360389693211 0.0
vertex 4.5 15.6057713659401 5.0
vertex 6.36396103067892 17.0360389693211 5.0
endloop
endfacet
facet normal -0.793353340291235 0.608761429008721 -2.02072167911858e-032
outer loop
vertex 7.79422863405995 18.9 5.0
vertex 6.36396103067892 17.0360389693211 0.0
vertex 6.36396103067892 17.0360389693211 5.0
endloop
endfacet
facet normal -0.793353340291235 0.608761429008721 -2.02072167911858e-032
outer loop
vertex 6.36396103067892 17.0360389693211 0.0
vertex 7.79422863405995 18.9 5.0
vertex 7.79422863405995 18.9 0.0
endloop
endfacet
facet normal -0.923879532511287 0.382683432365091 -2.07531579648191e-032
outer loop
vertex 8.69333243660161 21.0706285940773 5.0
vertex 7.79422863405995 18.9 0.0
vertex 7.79422863405995 18.9 5.0
endloop
endfacet
facet normal -0.923879532511287 0.382683432365091 -2.07531579648191e-032
outer loop
vertex 7.79422863405995 18.9 0.0
vertex 8.69333243660161 21.0706285940773 5.0
vertex 8.69333243660161 21.0706285940773 0.0
endloop
endfacet
facet normal -0.99144486137381 0.130526192220052 -1.9884805719365e-032
outer loop
vertex 9.0 23.4 5.0
vertex 8.69333243660161 21.0706285940773 0.0
vertex 8.69333243660161 21.0706285940773 5.0
endloop
endfacet
facet normal -0.99144486137381 0.130526192220052 -1.9884805719365e-032
outer loop
vertex 8.69333243660161 21.0706285940773 0.0
vertex 9.0 23.4 5.0
vertex 9.0 23.4 0.0
endloop
endfacet
facet normal -0.99144486137381 -0.130526192220051 -1.76613368253314e-032
outer loop
vertex 8.69333243660162 25.7293714059227 5.0
vertex 9.0 23.4 0.0
vertex 9.0 23.4 5.0
endloop
endfacet
facet normal -0.99144486137381 -0.130526192220051 -1.76613368253314e-032
outer loop
vertex 9.0 23.4 0.0
vertex 8.69333243660162 25.7293714059227 5.0
vertex 8.69333243660162 25.7293714059227 0.0
endloop
endfacet
facet normal -0.923879532511287 -0.382683432365091 -1.42342770133906e-032
outer loop
vertex 7.79422863405995 27.9 5.0
vertex 8.69333243660162 25.7293714059227 0.0
vertex 8.69333243660162 25.7293714059227 5.0
endloop
endfacet
facet normal -0.923879532511287 -0.382683432365091 -1.42342770133906e-032
outer loop
vertex 8.69333243660162 25.7293714059227 0.0
vertex 7.79422863405995 27.9 5.0
vertex 7.79422863405995 27.9 0.0
endloop
endfacet
facet normal -0.793353340291236 -0.60876142900872 -9.83717474624217e-033
outer loop
vertex 6.36396103067893 6.36396103067892 5.0
vertex 7.79422863405995 4.49999999999999 -6.9223926587416e-020
vertex 7.79422863405995 4.49999999999999 5.0
endloop
endfacet
facet normal -0.793353340291236 -0.60876142900872 -9.83717474624217e-033
outer loop
vertex 7.79422863405995 4.49999999999999 -6.9223926587416e-020
vertex 6.36396103067893 6.36396103067892 5.0
vertex 6.36396103067893 6.36396103067892 -4.82749762813959e-020
endloop
endfacet
facet normal -0.608761429008721 -0.793353340291235 -4.76968527683725e-033
outer loop
vertex 6.36396103067893 6.36396103067892 5.0
vertex 4.5 7.79422863405994 -2.40361661199691e-020
vertex 6.36396103067893 6.36396103067892 -4.82749762813959e-020
endloop
endfacet
facet normal -0.608761429008721 -0.793353340291235 -4.76968527683725e-033
outer loop
vertex 4.5 7.79422863405994 -2.40361661199691e-020
vertex 6.36396103067893 6.36396103067892 5.0
vertex 4.5 7.79422863405994 5.0
endloop
endfacet
facet normal -0.382683432365091 -0.923879532511287 6.22850361906503e-034
outer loop
vertex 4.5 7.79422863405994 5.0
vertex 2.32937140592269 8.69333243660161 1.840669040891e-021
vertex 4.5 7.79422863405994 -2.40361661199691e-020
endloop
endfacet
facet normal -0.382683432365091 -0.923879532511287 6.22850361906503e-034
outer loop
vertex 2.32937140592269 8.69333243660161 1.840669040891e-021
vertex 4.5 7.79422863405994 5.0
vertex 2.32937140592269 8.69333243660161 5.0
endloop
endfacet
facet normal -0.130526192220052 -0.99144486137381 5.97293977779525e-033
outer loop
vertex 2.32937140592269 8.69333243660161 5.0
vertex 2.93895942468112e-040 9.0 2.75920656484639e-020
vertex 2.32937140592269 8.69333243660161 1.840669040891e-021
endloop
endfacet
facet normal -0.130526192220052 -0.99144486137381 5.97293977779525e-033
outer loop
vertex 2.93895942468112e-040 9.0 2.75920656484639e-020
vertex 2.32937140592269 8.69333243660161 5.0
vertex -9.46753165277327e-032 9.0 5.0
endloop
endfacet
facet normal 0.130526192220052 -0.99144486137381 1.09159832185769e-032
outer loop
vertex -9.46753165277327e-032 9.0 5.0
vertex -2.32937140592269 8.69333243660161 5.14631085801383e-020
vertex 2.93895942468112e-040 9.0 2.75920656484639e-020
endloop
endfacet
facet normal 0.130526192220052 -0.99144486137381 1.09159832185769e-032
outer loop
vertex -2.32937140592269 8.69333243660161 5.14631085801383e-020
vertex -9.46753165277327e-032 9.0 5.0
vertex -2.32937140592269 8.69333243660161 5.0
endloop
endfacet
facet normal 0.382683432365089 -0.923879532511287 1.51151204425278e-032
outer loop
vertex -2.32937140592269 8.69333243660161 5.0
vertex -4.5 7.79422863405995 7.18270257088844e-020
vertex -2.32937140592269 8.69333243660161 5.14631085801383e-020
endloop
endfacet
facet normal 0.382683432365089 -0.923879532511287 1.51151204425278e-032
outer loop
vertex -4.5 7.79422863405995 7.18270257088844e-020
vertex -2.32937140592269 8.69333243660161 5.0
vertex -4.5 7.79422863405995 5.0
endloop
endfacet
facet normal 0.608761429008721 -0.793353340291235 1.8284187187238e-032
outer loop
vertex -4.5 7.79422863405995 5.0
vertex -6.36396103067892 6.36396103067893 8.72960497353423e-020
vertex -4.5 7.79422863405995 7.18270257088844e-020
endloop
endfacet
facet normal 0.608761429008721 -0.793353340291235 1.8284187187238e-032
outer loop
vertex -6.36396103067892 6.36396103067893 8.72960497353423e-020
vertex -4.5 7.79422863405995 5.0
vertex -6.36396103067892 6.36396103067893 5.0
endloop
endfacet
facet normal 0.793353340291235 -0.608761429008721 2.02072167911858e-032
outer loop
vertex -6.36396103067892 6.36396103067893 8.72960497353423e-020
vertex -7.79422863405995 4.5 5.0
vertex -7.79422863405995 4.5 9.68159922358798e-020
endloop
endfacet
facet normal 0.793353340291235 -0.608761429008721 2.02072167911858e-032
outer loop
vertex -7.79422863405995 4.5 5.0
vertex -6.36396103067892 6.36396103067893 8.72960497353423e-020
vertex -6.36396103067892 6.36396103067893 5.0
endloop
endfacet
facet normal 0.923879532511287 -0.38268343236509 2.07531579648191e-032
outer loop
vertex -7.79422863405995 4.5 9.68159922358798e-020
vertex -8.69333243660161 2.32937140592269 5.0
vertex -8.69333243660161 2.32937140592269 9.97380848615341e-020
endloop
endfacet
facet normal 0.923879532511287 -0.38268343236509 2.07531579648191e-032
outer loop
vertex -8.69333243660161 2.32937140592269 5.0
vertex -7.79422863405995 4.5 9.68159922358798e-020
vertex -7.79422863405995 4.5 5.0
endloop
endfacet
facet normal 0.99144486137381 -0.130526192220052 1.9884805719365e-032
outer loop
vertex -8.69333243660161 2.32937140592269 9.97380848615341e-020
vertex -9.0 5.51091059616309e-016 5.0
vertex -9.0 5.51091059616309e-016 9.58631918288534e-020
endloop
endfacet
facet normal 0.99144486137381 -0.130526192220052 1.9884805719365e-032
outer loop
vertex -9.0 5.51091059616309e-016 5.0
vertex -8.69333243660161 2.32937140592269 9.97380848615341e-020
vertex -8.69333243660161 2.32937140592269 5.0
endloop
endfacet
facet normal 0.99144486137381 0.130526192220052 1.76613368253314e-032
outer loop
vertex -9.0 5.51091059616309e-016 9.58631918288534e-020
vertex -8.69333243660161 -2.32937140592269 5.0
vertex -8.69333243660161 -2.32937140592269 8.54553806944512e-020
endloop
endfacet
facet normal 0.99144486137381 0.130526192220052 1.76613368253314e-032
outer loop
vertex -8.69333243660161 -2.32937140592269 5.0
vertex -9.0 5.51091059616309e-016 9.58631918288534e-020
vertex -9.0 5.51091059616309e-016 5.0
endloop
endfacet
facet normal 0.923879532511287 0.382683432365089 1.42342770133906e-032
outer loop
vertex -8.69333243660161 -2.32937140592269 8.54553806944512e-020
vertex -7.79422863405995 -4.5 5.0
vertex -7.79422863405995 -4.5 6.92239265874159e-020
endloop
endfacet
facet normal 0.923879532511287 0.382683432365089 1.42342770133906e-032
outer loop
vertex -7.79422863405995 -4.5 5.0
vertex -8.69333243660161 -2.32937140592269 8.54553806944512e-020
vertex -8.69333243660161 -2.32937140592269 5.0
endloop
endfacet
facet normal 0.793353340291235 0.608761429008721 9.83717474624217e-033
outer loop
vertex -7.79422863405995 -4.5 6.92239265874159e-020
vertex -6.36396103067893 -6.36396103067892 5.0
vertex -6.36396103067893 -6.36396103067892 4.82749762813959e-020
endloop
endfacet
facet normal 0.793353340291235 0.608761429008721 9.83717474624217e-033
outer loop
vertex -6.36396103067893 -6.36396103067892 5.0
vertex -7.79422863405995 -4.5 6.92239265874159e-020
vertex -7.79422863405995 -4.5 5.0
endloop
endfacet
facet normal 0.608761429008721 0.793353340291235 4.76968527683725e-033
outer loop
vertex -6.36396103067893 -6.36396103067892 4.82749762813959e-020
vertex -4.5 -7.79422863405994 5.0
vertex -4.5 -7.79422863405994 2.40361661199691e-020
endloop
endfacet
facet normal 0.608761429008721 0.793353340291235 4.76968527683725e-033
outer loop
vertex -4.5 -7.79422863405994 5.0
vertex -6.36396103067893 -6.36396103067892 4.82749762813959e-020
vertex -6.36396103067893 -6.36396103067892 5.0
endloop
endfacet
facet normal 0.38268343236509 0.923879532511287 -6.22850361906515e-034
outer loop
vertex -4.5 -7.79422863405994 2.40361661199691e-020
vertex -2.32937140592269 -8.69333243660161 5.0
vertex -2.32937140592269 -8.69333243660161 -1.84066904089105e-021
endloop
endfacet
facet normal 0.38268343236509 0.923879532511287 -6.22850361906515e-034
outer loop
vertex -2.32937140592269 -8.69333243660161 5.0
vertex -4.5 -7.79422863405994 2.40361661199691e-020
vertex -4.5 -7.79422863405994 5.0
endloop
endfacet
facet normal 0.130526192220052 0.99144486137381 -5.97293977779525e-033
outer loop
vertex -2.32937140592269 -8.69333243660161 -1.84066904089105e-021
vertex -1.10218211923262e-015 -9.0 5.0
vertex -1.10218211923262e-015 -9.0 -2.75920656484639e-020
endloop
endfacet
facet normal 0.130526192220052 0.99144486137381 -5.97293977779525e-033
outer loop
vertex -1.10218211923262e-015 -9.0 5.0
vertex -2.32937140592269 -8.69333243660161 -1.84066904089105e-021
vertex -2.32937140592269 -8.69333243660161 5.0
endloop
endfacet
facet normal -0.130526192220051 0.99144486137381 -1.09159832185769e-032
outer loop
vertex -1.10218211923262e-015 -9.0 -2.75920656484639e-020
vertex 2.32937140592268 -8.69333243660161 5.0
vertex 2.32937140592268 -8.69333243660161 -5.14631085801382e-020
endloop
endfacet
facet normal -0.130526192220051 0.99144486137381 -1.09159832185769e-032
outer loop
vertex 2.32937140592268 -8.69333243660161 5.0
vertex -1.10218211923262e-015 -9.0 -2.75920656484639e-020
vertex -1.10218211923262e-015 -9.0 5.0
endloop
endfacet
facet normal -0.38268343236509 0.923879532511287 -1.51151204425278e-032
outer loop
vertex 2.32937140592268 -8.69333243660161 -5.14631085801382e-020
vertex 4.5 -7.79422863405995 5.0
vertex 4.5 -7.79422863405995 -7.18270257088843e-020
endloop
endfacet
facet normal -0.38268343236509 0.923879532511287 -1.51151204425278e-032
outer loop
vertex 4.5 -7.79422863405995 5.0
vertex 2.32937140592268 -8.69333243660161 -5.14631085801382e-020
vertex 2.32937140592268 -8.69333243660161 5.0
endloop
endfacet
facet normal -0.60876142900872 0.793353340291236 -1.8284187187238e-032
outer loop
vertex 4.5 -7.79422863405995 -7.18270257088843e-020
vertex 6.36396103067892 -6.36396103067893 5.0
vertex 6.36396103067892 -6.36396103067893 -8.72960497353422e-020
endloop
endfacet
facet normal -0.60876142900872 0.793353340291236 -1.8284187187238e-032
outer loop
vertex 6.36396103067892 -6.36396103067893 5.0
vertex 4.5 -7.79422863405995 -7.18270257088843e-020
vertex 4.5 -7.79422863405995 5.0
endloop
endfacet
facet normal -0.793353340291235 0.608761429008721 -2.02072167911858e-032
outer loop
vertex 7.79422863405994 -4.5 5.0
vertex 6.36396103067892 -6.36396103067893 -8.72960497353422e-020
vertex 6.36396103067892 -6.36396103067893 5.0
endloop
endfacet
facet normal -0.793353340291235 0.608761429008721 -2.02072167911858e-032
outer loop
vertex 6.36396103067892 -6.36396103067893 -8.72960497353422e-020
vertex 7.79422863405994 -4.5 5.0
vertex 7.79422863405994 -4.5 -9.68159922358798e-020
endloop
endfacet
facet normal -0.923879532511286 0.382683432365091 -2.07531579648191e-032
outer loop
vertex 8.69333243660161 -2.32937140592269 5.0
vertex 7.79422863405994 -4.5 -9.68159922358798e-020
vertex 7.79422863405994 -4.5 5.0
endloop
endfacet
facet normal -0.923879532511286 0.382683432365091 -2.07531579648191e-032
outer loop
vertex 7.79422863405994 -4.5 -9.68159922358798e-020
vertex 8.69333243660161 -2.32937140592269 5.0
vertex 8.69333243660161 -2.32937140592269 -9.97380848615341e-020
endloop
endfacet
facet normal -0.99144486137381 0.130526192220052 -1.9884805719365e-032
outer loop
vertex 9.0 -1.65327317884893e-015 5.0
vertex 8.69333243660161 -2.32937140592269 -9.97380848615341e-020
vertex 8.69333243660161 -2.32937140592269 5.0
endloop
endfacet
facet normal -0.99144486137381 0.130526192220052 -1.9884805719365e-032
outer loop
vertex 8.69333243660161 -2.32937140592269 -9.97380848615341e-020
vertex 9.0 -1.65327317884893e-015 5.0
vertex 9.0 -1.65327317884893e-015 -9.58631918288534e-020
endloop
endfacet
facet normal -0.99144486137381 -0.130526192220051 -1.76613368253314e-032
outer loop
vertex 8.69333243660161 2.32937140592268 5.0
vertex 9.0 -1.65327317884893e-015 -9.58631918288534e-020
vertex 9.0 -1.65327317884893e-015 5.0
endloop
endfacet
facet normal -0.99144486137381 -0.130526192220051 -1.76613368253314e-032
outer loop
vertex 9.0 -1.65327317884893e-015 -9.58631918288534e-020
vertex 8.69333243660161 2.32937140592268 5.0
vertex 8.69333243660161 2.32937140592268 -8.54553806944512e-020
endloop
endfacet
facet normal -0.923879532511287 -0.382683432365089 -1.42342770133906e-032
outer loop
vertex 7.79422863405995 4.49999999999999 5.0
vertex 8.69333243660161 2.32937140592268 -8.54553806944512e-020
vertex 8.69333243660161 2.32937140592268 5.0
endloop
endfacet
facet normal -0.923879532511287 -0.382683432365089 -1.42342770133906e-032
outer loop
vertex 8.69333243660161 2.32937140592268 -8.54553806944512e-020
vertex 7.79422863405995 4.49999999999999 5.0
vertex 7.79422863405995 4.49999999999999 -6.9223926587416e-020
endloop
endfacet
facet normal -1.0 0.0 0.0
outer loop
vertex 10.5890088538924 54.5803352552966 15.0
vertex 10.5890088538924 51.5803352552966 0.0
vertex 10.5890088538924 51.5803352552966 15.0
endloop
endfacet
facet normal -1.0 0.0 0.0
outer loop
vertex 10.5890088538924 51.5803352552966 0.0
vertex 10.5890088538924 54.5803352552966 15.0
vertex 10.5890088538924 54.5803352552966 0.0
endloop
endfacet
facet normal 0.944442825030838 0.31481427501028 0.0944442825030839
outer loop
vertex -11.1899366455289 53.5698099365866 5.00000000000001
vertex -12.5 54.5 15.0
vertex -11.4942877835674 51.4828633507023 15.0
endloop
endfacet
facet normal 0.944442825030838 0.31481427501028 0.0944442825030839
outer loop
vertex -12.5 54.5 15.0
vertex -11.1899366455289 53.5698099365866 5.00000000000001
vertex -11.5 54.5 5.0
endloop
endfacet
facet normal -0.0 1.0 -0.0
outer loop
vertex 10.5890088538924 54.5803352552966 15.0
vertex 14.0890088538924 54.5803352552966 0.0
vertex 10.5890088538924 54.5803352552966 0.0
endloop
endfacet
facet normal -0.0 1.0 -0.0
outer loop
vertex 14.0890088538924 54.5803352552966 0.0
vertex 10.5890088538924 54.5803352552966 15.0
vertex 14.0890088538924 54.5803352552966 15.0
endloop
endfacet
facet normal 1.0 1.16287277630841e-016 -5.6399329650958e-016
outer loop
vertex -12.5 48.5 5.0
vertex -12.5 1.40834381901946e-015 15.0
vertex -12.5 1.40834381901946e-015 5.0
endloop
endfacet
facet normal 1.0 1.16287277630841e-016 -5.6399329650958e-016
outer loop
vertex -12.5 1.40834381901946e-015 15.0
vertex -12.5 48.5 5.0
vertex -12.5 48.5 15.0
endloop
endfacet
facet normal -0.948102217889886 -0.317965696942735 -2.22856635643734e-014
outer loop
vertex 10.5890088538924 51.5803352552966 15.0
vertex 11.5888330765959 48.5990842204851 5.00000000000001
vertex 11.5888330765957 48.5990842204852 15.0
endloop
endfacet
facet normal -0.948102217889863 -0.317965696942802 2.0058200408958e-018
outer loop
vertex 10.5890088538924 51.5803352552966 0.0
vertex 11.5888330765959 48.5990842204851 5.00000000000001
vertex 10.5890088538924 51.5803352552966 15.0
endloop
endfacet
facet normal -0.980587304553195 -7.33105604920724e-014 0.196082987913537
outer loop
vertex 10.5890088538924 51.5803352552966 0.0
vertex 10.5890088538926 48.5803352552966 0.0
vertex 11.5888330765959 48.5990842204851 5.00000000000001
endloop
endfacet
facet normal -1.38772082673789e-014 2.19536944112367e-015 1.0
outer loop
vertex -11.8449683227644 51.0349049682933 5.0
vertex -11.5 54.5 5.0
vertex -12.5 48.5 5.0
endloop
endfacet
facet normal -1.38772082673789e-014 2.19536944112367e-015 1.0
outer loop
vertex -11.5 54.5 5.0
vertex -11.8449683227644 51.0349049682933 5.0
vertex -11.1899366455289 53.5698099365866 5.00000000000001
endloop
endfacet
facet normal -0.999824222703352 -0.0187489651884872 -1.18415791011041e-014
outer loop
vertex 11.5888330765957 48.5990842204852 15.0
vertex 12.4998242227034 0.0187489651884871 5.00000000000001
vertex 12.4998242227034 0.0187489651884871 15.0
endloop
endfacet
facet normal -0.999824222703352 -0.0187489651884872 -1.18415791011041e-014
outer loop
vertex 12.4998242227034 0.0187489651884871 5.00000000000001
vertex 11.5888330765957 48.5990842204852 15.0
vertex 11.5888330765959 48.5990842204851 5.00000000000001
endloop
endfacet
facet normal -0.934719957359497 0.302885538039328 0.185900382357025
outer loop
vertex 11.5888330765959 48.5990842204851 5.00000000000001
vertex 9.7978140705314 46.1408216558598 -6.10631177830112e-032
vertex 10.727273504321 45.938294069879 5.00000000000001
endloop
endfacet
facet normal -0.934719957359497 0.302885538039328 0.185900382357025
outer loop
vertex 9.7978140705314 46.1408216558598 -6.10631177830112e-032
vertex 11.5888330765959 48.5990842204851 5.00000000000001
vertex 10.5890088538926 48.5803352552966 0.0
endloop
endfacet
facet normal -0.843448576453293 0.507054816095832 0.177453972491278
outer loop
vertex 10.727273504321 45.938294069879 5.00000000000001
vertex 8.47587692804799 43.9431642716486 -1.63088061742169e-031
vertex 9.28679426232564 43.5409812668594 5.00000000000001
endloop
endfacet
facet normal -0.843448576453293 0.507054816095832 0.177453972491278
outer loop
vertex 8.47587692804799 43.9431642716486 -1.63088061742169e-031
vertex 10.727273504321 45.938294069879 5.00000000000001
vertex 9.7978140705314 46.1408216558598 -6.10631177830112e-032
endloop
endfacet
facet normal -0.708002729190552 0.685422002476071 0.170084725888081
outer loop
vertex 9.28679426232564 43.5409812668594 5.00000000000001
vertex 6.6915696796476 42.1010287092209 -3.00797973335983e-031
vertex 7.34189875043541 41.5311378475926 5.00000000000001
endloop
endfacet
facet normal -0.708002729190552 0.685422002476071 0.170084725888081
outer loop
vertex 6.6915696796476 42.1010287092209 -3.00797973335983e-031
vertex 9.28679426232564 43.5409812668594 5.00000000000001
vertex 8.47587692804799 43.9431642716486 -1.63088061742169e-031
endloop
endfacet
facet normal -0.535365882861628 0.828507685435123 0.164190093010284
outer loop
vertex 4.99317941296795 40.012715443929 5.00000000000001
vertex 6.6915696796476 42.1010287092209 -3.00797973335983e-031
vertex 4.53717894249449 40.7096925389429 -4.6707032257284e-031
endloop
endfacet
facet normal -0.535365882861628 0.828507685435123 0.164190093010284
outer loop
vertex 6.6915696796476 42.1010287092209 -3.00797973335983e-031
vertex 4.99317941296795 40.012715443929 5.00000000000001
vertex 7.34189875043541 41.5311378475926 5.00000000000001
endloop
endfacet
facet normal -0.334549679272839 0.928680562392502 0.160090365521435
outer loop
vertex 2.36211497087645 39.0642487741388 5.00000000000001
vertex 4.53717894249449 40.7096925389429 -4.6707032257284e-031
vertex 2.12413251769194 39.8411174191042 -6.53305294228776e-031
endloop
endfacet
facet normal -0.334549679272839 0.928680562392502 0.160090365521435
outer loop
vertex 4.53717894249449 40.7096925389429 -4.6707032257284e-031
vertex 2.36211497087645 39.0642487741388 5.00000000000001
vertex 4.99317941296795 40.012715443929 5.00000000000001
endloop
endfacet
facet normal -0.116103954820331 0.980588039967834 0.15800939069283
outer loop
vertex -0.41521261062852 38.7347937284151 5.00000000000001
vertex 2.12413251769194 39.8411174191042 -6.53305294228776e-031
vertex -0.422763795868075 39.5402271483584 -8.49870581117223e-031
endloop
endfacet
facet normal -0.116103954820331 0.980588039967834 0.15800939069283
outer loop
vertex 2.12413251769194 39.8411174191042 -6.53305294228776e-031
vertex -0.41521261062852 38.7347937284151 5.00000000000001
vertex 2.36211497087645 39.0642487741388 5.00000000000001
endloop
endfacet
facet normal 0.108459525325188 0.981454644477573 0.158061102740792
outer loop
vertex -3.1951564526342 39.0413901364758 5.00000000000001
vertex -0.422763795868075 39.5402271483584 -8.49870581117223e-031
vertex -2.97178131454247 39.8225841503012 -1.04659957914288e-030
endloop
endfacet
facet normal 0.108459525325188 0.981454644477573 0.158061102740792
outer loop
vertex -0.422763795868075 39.5402271483584 -8.49870581117223e-031
vertex -3.1951564526342 39.0413901364758 5.00000000000001
vertex -0.41521261062852 38.7347937284151 5.00000000000001
endloop
endfacet
facet normal 0.327295757909745 0.931235616909576 0.160242668017377
outer loop
vertex -5.83393435994113 39.9681804461198 5.0
vertex -2.97178131454247 39.8225841503012 -1.04659957914288e-030
vertex -5.39108164328925 40.6735845653309 -1.23331721686435e-030
endloop
endfacet
facet normal 0.327295757909745 0.931235616909576 0.160242668017377
outer loop
vertex -2.97178131454247 39.8225841503012 -1.04659957914288e-030
vertex -5.83393435994113 39.9681804461198 5.0
vertex -3.1951564526342 39.0413901364758 5.00000000000001
endloop
endfacet
facet normal 0.528872688864677 0.832619314645259 0.164434655266785
outer loop
vertex -8.19506541720725 41.4672298957893 5.0
vertex -5.39108164328925 40.6735845653309 -1.23331721686435e-030
vertex -7.55553552343135 42.0492135806519 -1.4003662229985e-030
endloop
endfacet
facet normal 0.528872688864677 0.832619314645259 0.164434655266785
outer loop
vertex -5.39108164328925 40.6735845653309 -1.23331721686435e-030
vertex -8.19506541720725 41.4672298957893 5.0
vertex -5.83393435994113 39.9681804461198 5.0
endloop
endfacet
facet normal 0.932255225069244 0.310133520122459 0.186326044952242
outer loop
vertex -10.6910819048921 46.066305832184 -1.64236255820162e-030
vertex -12.5 48.5 5.0
vertex -11.6165807781558 45.8463874433865 5.0
endloop
endfacet
facet normal 0.932255225069244 0.310133520122459 0.186326044952242
outer loop
vertex -12.5 48.5 5.0
vertex -10.6910819048921 46.066305832184 -1.64236255820162e-030
vertex -11.5000000000001 48.5 -1.70479353216299e-030
endloop
endfacet
facet normal 0.702601101812664 0.690878230826821 0.170408221342849
outer loop
vertex -7.55553552343135 42.0492135806519 -1.4003662229985e-030
vertex -10.1564289537062 43.4610057607835 5.0
vertex -8.19506541720725 41.4672298957893 5.0
endloop
endfacet
facet normal 0.702601101812664 0.690878230826821 0.170408221342849
outer loop
vertex -10.1564289537062 43.4610057607835 5.0
vertex -7.55553552343135 42.0492135806519 -1.4003662229985e-030
vertex -9.35319467544155 43.8783219318025 -1.53910661264892e-030
endloop
endfacet
facet normal 0.839413120750201 0.513574673001776 0.177838882035193
outer loop
vertex -9.35319467544155 43.8783219318025 -1.53910661264892e-030
vertex -11.6165807781558 45.8463874433865 5.0
vertex -10.1564289537062 43.4610057607835 5.0
endloop
endfacet
facet normal 0.839413120750201 0.513574673001776 0.177838882035193
outer loop
vertex -11.6165807781558 45.8463874433865 5.0
vertex -9.35319467544155 43.8783219318025 -1.53910661264892e-030
vertex -10.6910819048921 46.066305832184 -1.64236255820162e-030
endloop
endfacet
facet normal 0.967947200115441 -0.250122227814314 -0.022739589747448
outer loop
vertex -11.8449683227644 51.0349049682933 5.0
vertex -11.4942877835674 51.4828633507023 15.0
vertex -12.5 48.5 5.0
endloop
endfacet
facet normal 0.967947200115441 -0.250122227814314 -0.022739589747448
outer loop
vertex -11.4942877835674 51.4828633507023 15.0
vertex -11.8449683227644 51.0349049682933 5.0
vertex -11.1899366455289 53.5698099365866 5.00000000000001
endloop
endfacet
facet normal 0.947588888982272 -0.3194922494793 -3.51450578207238e-016
outer loop
vertex -11.4942877835674 51.4828633507023 15.0
vertex -12.5 48.5 15.0
vertex -12.5 48.5 5.0
endloop
endfacet
facet normal 0.99144486137381 0.130526192220051 9.85522336940377e-033
outer loop
vertex -11.5 1.40834381901946e-015 5.0
vertex -11.1081470023243 -2.97641901867898 15.0
vertex -11.1081470023243 -2.97641901867898 5.0
endloop
endfacet
facet normal 0.99144486137381 0.130526192220051 9.85522336940377e-033
outer loop
vertex -11.1081470023243 -2.97641901867898 15.0
vertex -11.5 1.40834381901946e-015 5.0
vertex -11.5 1.40834381901946e-015 15.0
endloop
endfacet
facet normal 0.923879532511287 0.382683432365089 3.13343905294282e-018
outer loop
vertex -11.1081470023243 -2.97641901867898 5.0
vertex -9.95929214352105 -5.75 15.0
vertex -9.95929214352105 -5.75 5.0
endloop
endfacet
facet normal 0.923879532511287 0.382683432365089 3.13343905294282e-018
outer loop
vertex -9.95929214352105 -5.75 15.0
vertex -11.1081470023243 -2.97641901867898 5.0
vertex -11.1081470023243 -2.97641901867898 15.0
endloop
endfacet
facet normal 0.793353340291235 0.60876142900872 3.58394126616813e-018
outer loop
vertex -9.95929214352105 -5.75 5.0
vertex -8.1317279836453 -8.13172798364529 15.0
vertex -8.1317279836453 -8.13172798364529 5.0
endloop
endfacet
facet normal 0.793353340291235 0.60876142900872 3.58394126616813e-018
outer loop
vertex -8.1317279836453 -8.13172798364529 15.0
vertex -9.95929214352105 -5.75 5.0
vertex -9.95929214352105 -5.75 15.0
endloop
endfacet
facet normal 0.608761429008721 0.793353340291235 1.9685783009931e-018
outer loop
vertex -8.1317279836453 -8.13172798364529 15.0
vertex -5.75 -9.95929214352104 5.0
vertex -8.1317279836453 -8.13172798364529 5.0
endloop
endfacet
facet normal 0.608761429008721 0.793353340291235 1.9685783009931e-018
outer loop
vertex -5.75 -9.95929214352104 5.0
vertex -8.1317279836453 -8.13172798364529 15.0
vertex -5.75 -9.95929214352104 15.0
endloop
endfacet
facet normal 0.382683432365091 0.923879532511287 -6.48956476299258e-019
outer loop
vertex -5.75 -9.95929214352104 15.0
vertex -2.976419018679 -11.1081470023243 5.0
vertex -5.75 -9.95929214352104 5.0
endloop
endfacet
facet normal 0.382683432365091 0.923879532511287 -6.48956476299258e-019
outer loop
vertex -2.976419018679 -11.1081470023243 5.0
vertex -5.75 -9.95929214352104 15.0
vertex -2.976419018679 -11.1081470023243 15.0
endloop
endfacet
facet normal 0.130526192220052 0.99144486137381 1.67422217446913e-018
outer loop
vertex -2.976419018679 -11.1081470023243 15.0
vertex -2.11251572852918e-015 -11.5 5.0
vertex -2.976419018679 -11.1081470023243 5.0
endloop
endfacet
facet normal 0.130526192220052 0.99144486137381 1.67422217446913e-018
outer loop
vertex -2.11251572852918e-015 -11.5 5.0
vertex -2.976419018679 -11.1081470023243 15.0
vertex -2.11251572852918e-015 -11.5 15.0
endloop
endfacet
facet normal -0.130526192220051 0.99144486137381 -9.07460192791785e-019
outer loop
vertex -2.11251572852918e-015 -11.5 15.0
vertex 2.97641901867898 -11.1081470023243 5.0
vertex -2.11251572852918e-015 -11.5 5.0
endloop
endfacet
facet normal -0.130526192220051 0.99144486137381 -9.07460192791785e-019
outer loop
vertex 2.97641901867898 -11.1081470023243 5.0
vertex -2.11251572852918e-015 -11.5 15.0
vertex 2.97641901867898 -11.1081470023243 15.0
endloop
endfacet
facet normal -0.382683432365089 0.923879532511287 -2.12063852716409e-018
outer loop
vertex 2.97641901867898 -11.1081470023243 15.0
vertex 5.74999999999999 -9.95929214352105 5.0
vertex 2.97641901867898 -11.1081470023243 5.0
endloop
endfacet
facet normal -0.382683432365089 0.923879532511287 -2.12063852716409e-018
outer loop
vertex 5.74999999999999 -9.95929214352105 5.0
vertex 2.97641901867898 -11.1081470023243 15.0
vertex 5.74999999999999 -9.95929214352105 15.0
endloop
endfacet
facet normal -0.60876142900872 0.793353340291235 -5.83513309618571e-033
outer loop
vertex 5.74999999999999 -9.95929214352105 15.0
vertex 8.13172798364529 -8.1317279836453 5.0
vertex 5.74999999999999 -9.95929214352105 5.0
endloop
endfacet
facet normal -0.60876142900872 0.793353340291235 -5.83513309618571e-033
outer loop
vertex 8.13172798364529 -8.1317279836453 5.0
vertex 5.74999999999999 -9.95929214352105 15.0
vertex 8.13172798364529 -8.1317279836453 15.0
endloop
endfacet
facet normal -0.793353340291235 0.608761429008721 -7.29975089934454e-019
outer loop
vertex 9.95929214352104 -5.75000000000001 15.0
vertex 8.13172798364529 -8.1317279836453 5.0
vertex 8.13172798364529 -8.1317279836453 15.0
endloop
endfacet
facet normal -0.793353340291235 0.608761429008721 -7.29975089934454e-019
outer loop
vertex 8.13172798364529 -8.1317279836453 5.0
vertex 9.95929214352104 -5.75000000000001 15.0
vertex 9.95929214352104 -5.75000000000001 5.0
endloop
endfacet
facet normal -0.923879532511287 0.382683432365091 -1.56671952647148e-018
outer loop
vertex 11.1081470023243 -2.976419018679 15.0
vertex 9.95929214352104 -5.75000000000001 5.0
vertex 9.95929214352104 -5.75000000000001 15.0
endloop
endfacet
facet normal -0.923879532511287 0.382683432365091 -1.56671952647148e-018
outer loop
vertex 9.95929214352104 -5.75000000000001 5.0
vertex 11.1081470023243 -2.976419018679 15.0
vertex 11.1081470023243 -2.976419018679 5.0
endloop
endfacet
facet normal -0.99144486137381 0.130526192220055 -6.30307081764787e-016
outer loop
vertex 11.5 0.0 15.0
vertex 11.1081470023243 -2.976419018679 5.0
vertex 11.1081470023243 -2.976419018679 15.0
endloop
endfacet
facet normal -0.99144486137381 0.130526192220055 -6.30307081764787e-016
outer loop
vertex 11.1081470023243 -2.976419018679 5.0
vertex 11.5 0.0 15.0
vertex 11.5 0.0 5.0
endloop
endfacet
facet normal -0.0187489651884871 0.999824222703351 -0.0
outer loop
vertex 11.5 0.0 15.0
vertex 12.4998242227034 0.0187489651884871 5.00000000000001
vertex 11.5 0.0 5.0
endloop
endfacet
facet normal -0.0187489651884871 0.999824222703351 -0.0
outer loop
vertex 12.4998242227034 0.0187489651884871 5.00000000000001
vertex 11.5 0.0 15.0
vertex 12.4998242227034 0.0187489651884871 15.0
endloop
endfacet
facet normal 0.0 1.0 0.0
outer loop
vertex -12.5 1.40834381901946e-015 15.0
vertex -11.5 1.40834381901946e-015 5.0
vertex -12.5 1.40834381901946e-015 5.0
endloop
endfacet
facet normal 0.0 1.0 0.0
outer loop
vertex -11.5 1.40834381901946e-015 5.0
vertex -12.5 1.40834381901946e-015 15.0
vertex -11.5 1.40834381901946e-015 15.0
endloop
endfacet
facet normal -3.09869278062528e-016 -1.11762430743573e-016 1.0
outer loop
vertex -9.95929214352105 -5.75 5.0
vertex -9.0 5.51091059616309e-016 5.0
vertex -9.0 23.4 5.0
endloop
endfacet
facet normal -3.09869278062528e-016 -1.11762430743573e-016 1.0
outer loop
vertex -9.0 5.51091059616309e-016 5.0
vertex -9.95929214352105 -5.75 5.0
vertex -8.1317279836453 -8.13172798364529 5.0
endloop
endfacet
facet normal -3.09869278062528e-016 -1.11762430743573e-016 1.0
outer loop
vertex -9.0 5.51091059616309e-016 5.0
vertex -8.1317279836453 -8.13172798364529 5.0
vertex -8.69333243660161 -2.32937140592269 5.0
endloop
endfacet
facet normal -3.09869278062528e-016 -1.11762430743573e-016 1.0
outer loop
vertex -8.69333243660161 -2.32937140592269 5.0
vertex -8.1317279836453 -8.13172798364529 5.0
vertex -7.79422863405995 -4.5 5.0
endloop
endfacet
facet normal -3.09869278062528e-016 -1.11762430743573e-016 1.0
outer loop
vertex -7.79422863405995 -4.5 5.0
vertex -8.1317279836453 -8.13172798364529 5.0
vertex -5.75 -9.95929214352104 5.0
endloop
endfacet
facet normal -3.09869278062528e-016 -1.11762430743573e-016 1.0
outer loop
vertex -7.79422863405995 -4.5 5.0
vertex -5.75 -9.95929214352104 5.0
vertex -6.36396103067893 -6.36396103067892 5.0
endloop
endfacet
facet normal -3.09869278062528e-016 -1.11762430743573e-016 1.0
outer loop
vertex -6.36396103067893 -6.36396103067892 5.0
vertex -5.75 -9.95929214352104 5.0
vertex -4.5 -7.79422863405994 5.0
endloop
endfacet
facet normal -3.09869278062528e-016 -1.11762430743573e-016 1.0
outer loop
vertex -4.5 -7.79422863405994 5.0
vertex -5.75 -9.95929214352104 5.0
vertex -2.976419018679 -11.1081470023243 5.0
endloop
endfacet
facet normal -3.09869278062528e-016 -1.11762430743573e-016 1.0
outer loop
vertex -4.5 -7.79422863405994 5.0
vertex -2.976419018679 -11.1081470023243 5.0
vertex -2.32937140592269 -8.69333243660161 5.0
endloop
endfacet
facet normal -3.09869278062528e-016 -1.11762430743573e-016 1.0
outer loop
vertex -2.32937140592269 -8.69333243660161 5.0
vertex -2.976419018679 -11.1081470023243 5.0
vertex -2.11251572852918e-015 -11.5 5.0
endloop
endfacet
facet normal -3.09869278062528e-016 -1.11762430743573e-016 1.0
outer loop
vertex -2.32937140592269 -8.69333243660161 5.0
vertex -2.11251572852918e-015 -11.5 5.0
vertex -1.10218211923262e-015 -9.0 5.0
endloop
endfacet
facet normal -3.09869278062528e-016 -1.11762430743573e-016 1.0
outer loop
vertex -1.10218211923262e-015 -9.0 5.0
vertex -2.11251572852918e-015 -11.5 5.0
vertex 2.97641901867898 -11.1081470023243 5.0
endloop
endfacet
facet normal -3.09869278062528e-016 -1.11762430743573e-016 1.0
outer loop
vertex -1.10218211923262e-015 -9.0 5.0
vertex 2.97641901867898 -11.1081470023243 5.0
vertex 2.32937140592268 -8.69333243660161 5.0
endloop
endfacet
facet normal -3.09869278062528e-016 -1.11762430743573e-016 1.0
outer loop
vertex 2.32937140592268 -8.69333243660161 5.0
vertex 2.97641901867898 -11.1081470023243 5.0
vertex 4.5 -7.79422863405995 5.0
endloop
endfacet
facet normal -3.09869278062528e-016 -1.11762430743573e-016 1.0
outer loop
vertex 4.5 -7.79422863405995 5.0
vertex 2.97641901867898 -11.1081470023243 5.0
vertex 5.74999999999999 -9.95929214352105 5.0
endloop
endfacet
facet normal -3.09869278062528e-016 -1.11762430743573e-016 1.0
outer loop
vertex 4.5 -7.79422863405995 5.0
vertex 5.74999999999999 -9.95929214352105 5.0
vertex 6.36396103067892 -6.36396103067893 5.0
endloop
endfacet
facet normal -3.09869278062528e-016 -1.11762430743573e-016 1.0
outer loop
vertex 6.36396103067892 -6.36396103067893 5.0
vertex 5.74999999999999 -9.95929214352105 5.0
vertex 8.13172798364529 -8.1317279836453 5.0
endloop
endfacet
facet normal -3.09869278062528e-016 -1.11762430743573e-016 1.0
outer loop
vertex 6.36396103067892 -6.36396103067893 5.0
vertex 8.13172798364529 -8.1317279836453 5.0
vertex 7.79422863405994 -4.5 5.0
endloop
endfacet
facet normal -3.09869278062528e-016 -1.11762430743573e-016 1.0
outer loop
vertex 7.79422863405994 -4.5 5.0
vertex 8.13172798364529 -8.1317279836453 5.0
vertex 8.69333243660161 -2.32937140592269 5.0
endloop
endfacet
facet normal -3.09869278062528e-016 -1.11762430743573e-016 1.0
outer loop
vertex 8.69333243660161 -2.32937140592269 5.0
vertex 8.13172798364529 -8.1317279836453 5.0
vertex 9.95929214352104 -5.75000000000001 5.0
endloop
endfacet
facet normal -3.09869278062528e-016 -1.11762430743573e-016 1.0
outer loop
vertex 8.69333243660161 -2.32937140592269 5.0
vertex 9.95929214352104 -5.75000000000001 5.0
vertex 9.0 -1.65327317884893e-015 5.0
endloop
endfacet
facet normal -3.09869278062528e-016 -1.11762430743573e-016 1.0
outer loop
vertex 9.0 -1.65327317884893e-015 5.0
vertex 9.95929214352104 -5.75000000000001 5.0
vertex 9.0 23.4 5.0
endloop
endfacet
facet normal -3.09869278062528e-016 -1.11762430743573e-016 1.0
outer loop
vertex 9.0 23.4 5.0
vertex 9.95929214352104 -5.75000000000001 5.0
vertex 9.28679426232564 43.5409812668594 5.00000000000001
endloop
endfacet
facet normal -3.09869278062528e-016 -1.11762430743573e-016 1.0
outer loop
vertex 9.28679426232564 43.5409812668594 5.00000000000001
vertex 9.95929214352104 -5.75000000000001 5.0
vertex 10.727273504321 45.938294069879 5.00000000000001
endloop
endfacet
facet normal -3.09869278062528e-016 -1.11762430743573e-016 1.0
outer loop
vertex 10.727273504321 45.938294069879 5.00000000000001
vertex 9.95929214352104 -5.75000000000001 5.0
vertex 11.1081470023243 -2.976419018679 5.0
endloop
endfacet
facet normal -3.09869278062528e-016 -1.11762430743573e-016 1.0
outer loop
vertex 10.727273504321 45.938294069879 5.00000000000001
vertex 11.1081470023243 -2.976419018679 5.0
vertex 11.5888330765959 48.5990842204851 5.00000000000001
endloop
endfacet
facet normal -3.09869278062528e-016 -1.11762430743573e-016 1.0
outer loop
vertex 11.5888330765959 48.5990842204851 5.00000000000001
vertex 11.1081470023243 -2.976419018679 5.0
vertex 11.5 0.0 5.0
endloop
endfacet
facet normal -3.09869278062528e-016 -1.11762430743573e-016 1.0
outer loop
vertex 11.5888330765959 48.5990842204851 5.00000000000001
vertex 11.5 0.0 5.0
vertex 12.4998242227034 0.0187489651884871 5.00000000000001
endloop
endfacet
facet normal -3.09869278062528e-016 -1.11762430743573e-016 1.0
outer loop
vertex -12.5 1.40834381901946e-015 5.0
vertex -11.6165807781558 45.8463874433865 5.0
vertex -12.5 48.5 5.0
endloop
endfacet
facet normal -3.09869278062528e-016 -1.11762430743573e-016 1.0
outer loop
vertex -11.6165807781558 45.8463874433865 5.0
vertex -12.5 1.40834381901946e-015 5.0
vertex -11.5 1.40834381901946e-015 5.0
endloop
endfacet
facet normal -3.09869278062528e-016 -1.11762430743573e-016 1.0
outer loop
vertex -11.6165807781558 45.8463874433865 5.0
vertex -11.5 1.40834381901946e-015 5.0
vertex -10.1564289537062 43.4610057607835 5.0
endloop
endfacet
facet normal -3.09869278062528e-016 -1.11762430743573e-016 1.0
outer loop
vertex -10.1564289537062 43.4610057607835 5.0
vertex -11.5 1.40834381901946e-015 5.0
vertex -11.1081470023243 -2.97641901867898 5.0
endloop
endfacet
facet normal -3.09869278062528e-016 -1.11762430743573e-016 1.0
outer loop
vertex -10.1564289537062 43.4610057607835 5.0
vertex -11.1081470023243 -2.97641901867898 5.0
vertex -9.95929214352105 -5.75 5.0
endloop
endfacet
facet normal -3.09869278062528e-016 -1.11762430743573e-016 1.0
outer loop
vertex -10.1564289537062 43.4610057607835 5.0
vertex -9.95929214352105 -5.75 5.0
vertex -9.0 23.4 5.0
endloop
endfacet
facet normal -3.09869278062528e-016 -1.11762430743573e-016 1.0
outer loop
vertex -10.1564289537062 43.4610057607835 5.0
vertex -9.0 23.4 5.0
vertex -8.19506541720725 41.4672298957893 5.0
endloop
endfacet
facet normal -3.09869278062528e-016 -1.11762430743573e-016 1.0
outer loop
vertex -8.19506541720725 41.4672298957893 5.0
vertex -9.0 23.4 5.0
vertex -8.69333243660162 25.7293714059227 5.0
endloop
endfacet
facet normal -3.09869278062528e-016 -1.11762430743573e-016 1.0
outer loop
vertex -8.19506541720725 41.4672298957893 5.0
vertex -8.69333243660162 25.7293714059227 5.0
vertex -7.79422863405995 27.9 5.0
endloop
endfacet
facet normal -3.09869278062528e-016 -1.11762430743573e-016 1.0
outer loop
vertex -8.19506541720725 41.4672298957893 5.0
vertex -7.79422863405995 27.9 5.0
vertex -5.83393435994113 39.9681804461198 5.0
endloop
endfacet
facet normal -3.09869278062528e-016 -1.11762430743573e-016 1.0
outer loop
vertex -5.83393435994113 39.9681804461198 5.0
vertex -7.79422863405995 27.9 5.0
vertex -6.36396103067893 29.7639610306789 5.0
endloop
endfacet
facet normal -3.09869278062528e-016 -1.11762430743573e-016 1.0
outer loop
vertex -5.83393435994113 39.9681804461198 5.0
vertex -6.36396103067893 29.7639610306789 5.0
vertex -4.5 31.1942286340599 5.0
endloop
endfacet
facet normal -3.09869278062528e-016 -1.11762430743573e-016 1.0
outer loop
vertex -5.83393435994113 39.9681804461198 5.0
vertex -4.5 31.1942286340599 5.0
vertex -3.1951564526342 39.0413901364758 5.00000000000001
endloop
endfacet
facet normal -3.09869278062528e-016 -1.11762430743573e-016 1.0
outer loop
vertex -3.1951564526342 39.0413901364758 5.00000000000001
vertex -4.5 31.1942286340599 5.0
vertex -2.32937140592269 32.0933324366016 5.0
endloop
endfacet
facet normal -3.09869278062528e-016 -1.11762430743573e-016 1.0
outer loop
vertex -3.1951564526342 39.0413901364758 5.00000000000001
vertex -2.32937140592269 32.0933324366016 5.0
vertex -0.41521261062852 38.7347937284151 5.00000000000001
endloop
endfacet
facet normal -3.09869278062528e-016 -1.11762430743573e-016 1.0
outer loop
vertex -0.41521261062852 38.7347937284151 5.00000000000001
vertex -2.32937140592269 32.0933324366016 5.0
vertex -9.46753168216286e-032 32.4 5.0
endloop
endfacet
facet normal -3.09869278062528e-016 -1.11762430743573e-016 1.0
outer loop
vertex -0.41521261062852 38.7347937284151 5.00000000000001
vertex -9.46753168216286e-032 32.4 5.0
vertex 2.36211497087645 39.0642487741388 5.00000000000001
endloop
endfacet
facet normal -3.09869278062528e-016 -1.11762430743573e-016 1.0
outer loop
vertex 2.36211497087645 39.0642487741388 5.00000000000001
vertex -9.46753168216286e-032 32.4 5.0
vertex 2.32937140592269 32.0933324366016 5.0
endloop
endfacet
facet normal -3.09869278062528e-016 -1.11762430743573e-016 1.0
outer loop
vertex 2.36211497087645 39.0642487741388 5.00000000000001
vertex 2.32937140592269 32.0933324366016 5.0
vertex 4.5 31.1942286340599 5.0
endloop
endfacet
facet normal -3.09869278062528e-016 -1.11762430743573e-016 1.0
outer loop
vertex 2.36211497087645 39.0642487741388 5.00000000000001
vertex 4.5 31.1942286340599 5.0
vertex 4.99317941296795 40.012715443929 5.00000000000001
endloop
endfacet
facet normal -3.09869278062528e-016 -1.11762430743573e-016 1.0
outer loop
vertex 4.99317941296795 40.012715443929 5.00000000000001
vertex 4.5 31.1942286340599 5.0
vertex 6.36396103067893 29.7639610306789 5.0
endloop
endfacet
facet normal -3.09869278062528e-016 -1.11762430743573e-016 1.0
outer loop
vertex 4.99317941296795 40.012715443929 5.00000000000001
vertex 6.36396103067893 29.7639610306789 5.0
vertex 7.34189875043541 41.5311378475926 5.00000000000001
endloop
endfacet
facet normal -3.09869278062528e-016 -1.11762430743573e-016 1.0
outer loop
vertex 7.34189875043541 41.5311378475926 5.00000000000001
vertex 6.36396103067893 29.7639610306789 5.0
vertex 7.79422863405995 27.9 5.0
endloop
endfacet
facet normal -3.09869278062528e-016 -1.11762430743573e-016 1.0
outer loop
vertex 7.34189875043541 41.5311378475926 5.00000000000001
vertex 7.79422863405995 27.9 5.0
vertex 9.28679426232564 43.5409812668594 5.00000000000001
endloop
endfacet
facet normal -3.09869278062528e-016 -1.11762430743573e-016 1.0
outer loop
vertex 9.28679426232564 43.5409812668594 5.00000000000001
vertex 7.79422863405995 27.9 5.0
vertex 8.69333243660162 25.7293714059227 5.0
endloop
endfacet
facet normal -3.09869278062528e-016 -1.11762430743573e-016 1.0
outer loop
vertex 9.28679426232564 43.5409812668594 5.00000000000001
vertex 8.69333243660162 25.7293714059227 5.0
vertex 9.0 23.4 5.0
endloop
endfacet
facet normal -3.09869278062528e-016 -1.11762430743573e-016 1.0
outer loop
vertex -9.0 5.51091059616309e-016 5.0
vertex -8.69333243660162 21.0706285940773 5.0
vertex -9.0 23.4 5.0
endloop
endfacet
facet normal -3.09869278062528e-016 -1.11762430743573e-016 1.0
outer loop
vertex -8.69333243660162 21.0706285940773 5.0
vertex -9.0 5.51091059616309e-016 5.0
vertex -8.69333243660161 2.32937140592269 5.0
endloop
endfacet
facet normal -3.09869278062528e-016 -1.11762430743573e-016 1.0
outer loop
vertex -8.69333243660162 21.0706285940773 5.0
vertex -8.69333243660161 2.32937140592269 5.0
vertex -7.79422863405995 18.9 5.0
endloop
endfacet
facet normal -3.09869278062528e-016 -1.11762430743573e-016 1.0
outer loop
vertex -7.79422863405995 18.9 5.0
vertex -8.69333243660161 2.32937140592269 5.0
vertex -7.79422863405995 4.5 5.0
endloop
endfacet
facet normal -3.09869278062528e-016 -1.11762430743573e-016 1.0
outer loop
vertex -7.79422863405995 18.9 5.0
vertex -7.79422863405995 4.5 5.0
vertex -6.36396103067893 17.0360389693211 5.0
endloop
endfacet
facet normal -3.09869278062528e-016 -1.11762430743573e-016 1.0
outer loop
vertex -6.36396103067893 17.0360389693211 5.0
vertex -7.79422863405995 4.5 5.0
vertex -6.36396103067892 6.36396103067893 5.0
endloop
endfacet
facet normal -3.09869278062528e-016 -1.11762430743573e-016 1.0
outer loop
vertex -6.36396103067893 17.0360389693211 5.0
vertex -6.36396103067892 6.36396103067893 5.0
vertex -4.5 15.6057713659401 5.0
endloop
endfacet
facet normal -3.09869278062528e-016 -1.11762430743573e-016 1.0
outer loop
vertex -4.5 15.6057713659401 5.0
vertex -6.36396103067892 6.36396103067893 5.0
vertex -4.5 7.79422863405995 5.0
endloop
endfacet
facet normal -3.09869278062528e-016 -1.11762430743573e-016 1.0
outer loop
vertex -4.5 15.6057713659401 5.0
vertex -4.5 7.79422863405995 5.0
vertex -2.32937140592269 14.7066675633984 5.0
endloop
endfacet
facet normal -3.09869278062528e-016 -1.11762430743573e-016 1.0
outer loop
vertex -2.32937140592269 14.7066675633984 5.0
vertex -4.5 7.79422863405995 5.0
vertex -2.32937140592269 8.69333243660161 5.0
endloop
endfacet
facet normal -3.09869278062528e-016 -1.11762430743573e-016 1.0
outer loop
vertex -2.32937140592269 14.7066675633984 5.0
vertex -2.32937140592269 8.69333243660161 5.0
vertex -1.89893852818128 14.65 5.0
endloop
endfacet
facet normal -3.09869278062528e-016 -1.11762430743573e-016 1.0
outer loop
vertex -1.89893852818128 14.65 5.0
vertex -2.32937140592269 8.69333243660161 5.0
vertex -9.46753165277327e-032 9.0 5.0
endloop
endfacet
facet normal -3.09869278062528e-016 -1.11762430743573e-016 1.0
outer loop
vertex -1.89893852818128 14.65 5.0
vertex -9.46753165277327e-032 9.0 5.0
vertex -1.10154940724527e-015 14.4 5.0
endloop
endfacet
facet normal -3.09869278062528e-016 -1.11762430743573e-016 1.0
outer loop
vertex -1.10154940724527e-015 14.4 5.0
vertex -9.46753165277327e-032 9.0 5.0
vertex 1.89893852818128 14.65 5.0
endloop
endfacet
facet normal -3.09869278062528e-016 -1.11762430743573e-016 1.0
outer loop
vertex 1.89893852818128 14.65 5.0
vertex -9.46753165277327e-032 9.0 5.0
vertex 2.32937140592269 8.69333243660161 5.0
endloop
endfacet
facet normal -3.09869278062528e-016 -1.11762430743573e-016 1.0
outer loop
vertex 1.89893852818128 14.65 5.0
vertex 2.32937140592269 8.69333243660161 5.0
vertex 2.32937140592268 14.7066675633984 5.0
endloop
endfacet
facet normal -3.09869278062528e-016 -1.11762430743573e-016 1.0
outer loop
vertex 2.32937140592268 14.7066675633984 5.0
vertex 2.32937140592269 8.69333243660161 5.0
vertex 4.5 15.6057713659401 5.0
endloop
endfacet
facet normal -3.09869278062528e-016 -1.11762430743573e-016 1.0
outer loop
vertex 4.5 15.6057713659401 5.0
vertex 2.32937140592269 8.69333243660161 5.0
vertex 4.5 7.79422863405994 5.0
endloop
endfacet
facet normal -3.09869278062528e-016 -1.11762430743573e-016 1.0
outer loop
vertex 4.5 15.6057713659401 5.0
vertex 4.5 7.79422863405994 5.0
vertex 6.36396103067892 17.0360389693211 5.0
endloop
endfacet
facet normal -3.09869278062528e-016 -1.11762430743573e-016 1.0
outer loop
vertex 6.36396103067892 17.0360389693211 5.0
vertex 4.5 7.79422863405994 5.0
vertex 6.36396103067893 6.36396103067892 5.0
endloop
endfacet
facet normal -3.09869278062528e-016 -1.11762430743573e-016 1.0
outer loop
vertex 6.36396103067892 17.0360389693211 5.0
vertex 6.36396103067893 6.36396103067892 5.0
vertex 7.79422863405995 18.9 5.0
endloop
endfacet
facet normal -3.09869278062528e-016 -1.11762430743573e-016 1.0
outer loop
vertex 7.79422863405995 18.9 5.0
vertex 6.36396103067893 6.36396103067892 5.0
vertex 7.79422863405995 4.49999999999999 5.0
endloop
endfacet
facet normal -3.09869278062528e-016 -1.11762430743573e-016 1.0
outer loop
vertex 7.79422863405995 18.9 5.0
vertex 7.79422863405995 4.49999999999999 5.0
vertex 8.69333243660161 21.0706285940773 5.0
endloop
endfacet
facet normal -3.09869278062528e-016 -1.11762430743573e-016 1.0
outer loop
vertex 8.69333243660161 21.0706285940773 5.0
vertex 7.79422863405995 4.49999999999999 5.0
vertex 8.69333243660161 2.32937140592268 5.0
endloop
endfacet
facet normal -3.09869278062528e-016 -1.11762430743573e-016 1.0
outer loop
vertex 8.69333243660161 21.0706285940773 5.0
vertex 8.69333243660161 2.32937140592268 5.0
vertex 9.0 -1.65327317884893e-015 5.0
endloop
endfacet
facet normal -3.09869278062528e-016 -1.11762430743573e-016 1.0
outer loop
vertex 8.69333243660161 21.0706285940773 5.0
vertex 9.0 -1.65327317884893e-015 5.0
vertex 9.0 23.4 5.0
endloop
endfacet
facet normal -3.44867015981413e-017 -9.38159943920652e-018 1.0
outer loop
vertex -10.6066017177982 -10.6066017177982 15.0
vertex -12.5 1.40834381901946e-015 15.0
vertex -12.9903810567666 -7.49999999999999 15.0
endloop
endfacet
facet normal -3.44867015981413e-017 -9.38159943920652e-018 1.0
outer loop
vertex -12.5 1.40834381901946e-015 15.0
vertex -10.6066017177982 -10.6066017177982 15.0
vertex -11.5 1.40834381901946e-015 15.0
endloop
endfacet
facet normal -3.44867015981413e-017 -9.38159943920652e-018 1.0
outer loop
vertex -11.5 1.40834381901946e-015 15.0
vertex -10.6066017177982 -10.6066017177982 15.0
vertex -11.1081470023243 -2.97641901867898 15.0
endloop
endfacet
facet normal -3.44867015981413e-017 -9.38159943920652e-018 1.0
outer loop
vertex -11.1081470023243 -2.97641901867898 15.0
vertex -10.6066017177982 -10.6066017177982 15.0
vertex -9.95929214352105 -5.75 15.0
endloop
endfacet
facet normal -3.44867015981413e-017 -9.38159943920652e-018 1.0
outer loop
vertex -9.95929214352105 -5.75 15.0
vertex -10.6066017177982 -10.6066017177982 15.0
vertex -7.5 -12.9903810567666 15.0
endloop
endfacet
facet normal -3.44867015981413e-017 -9.38159943920652e-018 1.0
outer loop
vertex -9.95929214352105 -5.75 15.0
vertex -7.5 -12.9903810567666 15.0
vertex -8.1317279836453 -8.13172798364529 15.0
endloop
endfacet
facet normal -3.44867015981413e-017 -9.38159943920652e-018 1.0
outer loop
vertex -8.1317279836453 -8.13172798364529 15.0
vertex -7.5 -12.9903810567666 15.0
vertex -5.75 -9.95929214352104 15.0
endloop
endfacet
facet normal -3.44867015981413e-017 -9.38159943920652e-018 1.0
outer loop
vertex -5.75 -9.95929214352104 15.0
vertex -7.5 -12.9903810567666 15.0
vertex -3.88228567653781 -14.488887394336 15.0
endloop
endfacet
facet normal -3.44867015981413e-017 -9.38159943920652e-018 1.0
outer loop
vertex -5.75 -9.95929214352104 15.0
vertex -3.88228567653781 -14.488887394336 15.0
vertex -2.976419018679 -11.1081470023243 15.0
endloop
endfacet
facet normal -3.44867015981413e-017 -9.38159943920652e-018 1.0
outer loop
vertex -2.976419018679 -11.1081470023243 15.0
vertex -3.88228567653781 -14.488887394336 15.0
vertex -5.07579076266045e-015 -15.0 15.0
endloop
endfacet
facet normal -3.44867015981413e-017 -9.38159943920652e-018 1.0
outer loop
vertex -2.976419018679 -11.1081470023243 15.0
vertex -5.07579076266045e-015 -15.0 15.0
vertex -2.11251572852918e-015 -11.5 15.0
endloop
endfacet
facet normal -3.44867015981413e-017 -9.38159943920652e-018 1.0
outer loop
vertex -2.11251572852918e-015 -11.5 15.0
vertex -5.07579076266045e-015 -15.0 15.0
vertex 3.8822856765378 -14.488887394336 15.0
endloop
endfacet
facet normal -3.44867015981413e-017 -9.38159943920652e-018 1.0
outer loop
vertex -2.11251572852918e-015 -11.5 15.0
vertex 3.8822856765378 -14.488887394336 15.0
vertex 2.97641901867898 -11.1081470023243 15.0
endloop
endfacet
facet normal -3.44867015981413e-017 -9.38159943920652e-018 1.0
outer loop
vertex 2.97641901867898 -11.1081470023243 15.0
vertex 3.8822856765378 -14.488887394336 15.0
vertex 5.74999999999999 -9.95929214352105 15.0
endloop
endfacet
facet normal -3.44867015981413e-017 -9.38159943920652e-018 1.0
outer loop
vertex 5.74999999999999 -9.95929214352105 15.0
vertex 3.8822856765378 -14.488887394336 15.0
vertex 7.49999999999999 -12.9903810567666 15.0
endloop
endfacet
facet normal -3.44867015981413e-017 -9.38159943920652e-018 1.0
outer loop
vertex 5.74999999999999 -9.95929214352105 15.0
vertex 7.49999999999999 -12.9903810567666 15.0
vertex 8.13172798364529 -8.1317279836453 15.0
endloop
endfacet
facet normal -3.44867015981413e-017 -9.38159943920652e-018 1.0
outer loop
vertex 8.13172798364529 -8.1317279836453 15.0
vertex 7.49999999999999 -12.9903810567666 15.0
vertex 10.6066017177982 -10.6066017177982 15.0
endloop
endfacet
facet normal -3.44867015981413e-017 -9.38159943920652e-018 1.0
outer loop
vertex 8.13172798364529 -8.1317279836453 15.0
vertex 10.6066017177982 -10.6066017177982 15.0
vertex 9.95929214352104 -5.75000000000001 15.0
endloop
endfacet
facet normal -3.44867015981413e-017 -9.38159943920652e-018 1.0
outer loop
vertex 9.95929214352104 -5.75000000000001 15.0
vertex 10.6066017177982 -10.6066017177982 15.0
vertex 11.1081470023243 -2.976419018679 15.0
endloop
endfacet
facet normal -3.44867015981413e-017 -9.38159943920652e-018 1.0
outer loop
vertex 11.1081470023243 -2.976419018679 15.0
vertex 10.6066017177982 -10.6066017177982 15.0
vertex 12.9903810567666 -7.5 15.0
endloop
endfacet
facet normal -3.44867015981413e-017 -9.38159943920652e-018 1.0
outer loop
vertex 11.1081470023243 -2.976419018679 15.0
vertex 12.9903810567666 -7.5 15.0
vertex 11.5 0.0 15.0
endloop
endfacet
facet normal -3.44867015981413e-017 -9.38159943920652e-018 1.0
outer loop
vertex 11.5 0.0 15.0
vertex 12.9903810567666 -7.5 15.0
vertex 12.4998242227034 0.0187489651884871 15.0
endloop
endfacet
facet normal -3.44867015981413e-017 -9.38159943920652e-018 1.0
outer loop
vertex 11.5888330765957 48.5990842204852 15.0
vertex 10.5890088538924 54.5803352552966 15.0
vertex 10.5890088538924 51.5803352552966 15.0
endloop
endfacet
facet normal -3.44867015981413e-017 -9.38159943920652e-018 1.0
outer loop
vertex 10.5890088538924 54.5803352552966 15.0
vertex 11.5888330765957 48.5990842204852 15.0
vertex 14.0890088538924 54.5803352552966 15.0
endloop
endfacet
facet normal -3.44867015981413e-017 -9.38159943920652e-018 1.0
outer loop
vertex 14.0890088538924 54.5803352552966 15.0
vertex 11.5888330765957 48.5990842204852 15.0
vertex 12.4998242227034 0.0187489651884871 15.0
endloop
endfacet
facet normal -3.44867015981413e-017 -9.38159943920652e-018 1.0
outer loop
vertex 14.0890088538924 54.5803352552966 15.0
vertex 12.4998242227034 0.0187489651884871 15.0
vertex 12.9903810567666 -7.5 15.0
endloop
endfacet
facet normal -3.44867015981413e-017 -9.38159943920652e-018 1.0
outer loop
vertex 14.0890088538924 54.5803352552966 15.0
vertex 12.9903810567666 -7.5 15.0
vertex 14.488887394336 -3.88228567653781 15.0
endloop
endfacet
facet normal -3.44867015981413e-017 -9.38159943920652e-018 1.0
outer loop
vertex 14.0890088538924 54.5803352552966 15.0
vertex 14.488887394336 -3.88228567653781 15.0
vertex 15.0 0.0 15.0
endloop
endfacet
facet normal -3.44867015981413e-017 -9.38159943920652e-018 1.0
outer loop
vertex -14.488887394336 -3.88228567653781 15.0
vertex -15.0 54.5 15.0
vertex -15.0 1.65327317884893e-015 15.0
endloop
endfacet
facet normal -3.44867015981413e-017 -9.38159943920652e-018 1.0
outer loop
vertex -15.0 54.5 15.0
vertex -14.488887394336 -3.88228567653781 15.0
vertex -12.5 54.5 15.0
endloop
endfacet
facet normal -3.44867015981413e-017 -9.38159943920652e-018 1.0
outer loop
vertex -12.5 54.5 15.0
vertex -14.488887394336 -3.88228567653781 15.0
vertex -12.9903810567666 -7.49999999999999 15.0
endloop
endfacet
facet normal -3.44867015981413e-017 -9.38159943920652e-018 1.0
outer loop
vertex -12.5 54.5 15.0
vertex -12.9903810567666 -7.49999999999999 15.0
vertex -12.5 1.40834381901946e-015 15.0
endloop
endfacet
facet normal -3.44867015981413e-017 -9.38159943920652e-018 1.0
outer loop
vertex -12.5 54.5 15.0
vertex -12.5 1.40834381901946e-015 15.0
vertex -12.5 48.5 15.0
endloop
endfacet
facet normal -3.44867015981413e-017 -9.38159943920652e-018 1.0
outer loop
vertex -12.5 54.5 15.0
vertex -12.5 48.5 15.0
vertex -11.4942877835674 51.4828633507023 15.0
endloop
endfacet
facet normal -1.8470353464052e-032 8.52171929971693e-033 1.0
outer loop
vertex -10.6066017177982 -10.6066017177982 0.0
vertex -11.5000000000001 48.5 -1.70479353216299e-030
vertex -12.9903810567666 -7.49999999999999 0.0
endloop
endfacet
facet normal -1.8470353464052e-032 8.52171929971693e-033 1.0
outer loop
vertex -11.5000000000001 48.5 -1.70479353216299e-030
vertex -10.6066017177982 -10.6066017177982 0.0
vertex -10.6910819048921 46.066305832184 -1.64236255820162e-030
endloop
endfacet
facet normal -1.8470353464052e-032 8.52171929971693e-033 1.0
outer loop
vertex -10.6910819048921 46.066305832184 -1.64236255820162e-030
vertex -10.6066017177982 -10.6066017177982 0.0
vertex -9.35319467544155 43.8783219318025 -1.53910661264892e-030
endloop
endfacet
facet normal -1.8470353464052e-032 8.52171929971693e-033 1.0
outer loop
vertex -9.35319467544155 43.8783219318025 -1.53910661264892e-030
vertex -10.6066017177982 -10.6066017177982 0.0
vertex -9.0 5.51091059616309e-016 9.58631918288534e-020
endloop
endfacet
facet normal -1.8470353464052e-032 8.52171929971693e-033 1.0
outer loop
vertex -9.0 5.51091059616309e-016 9.58631918288534e-020
vertex -10.6066017177982 -10.6066017177982 0.0
vertex -7.5 -12.9903810567666 0.0
endloop
endfacet
facet normal -1.8470353464052e-032 8.52171929971693e-033 1.0
outer loop
vertex -9.35319467544155 43.8783219318025 -1.53910661264892e-030
vertex -9.0 5.51091059616309e-016 9.58631918288534e-020
vertex -9.0 23.4 0.0
endloop
endfacet
facet normal -1.8470353464052e-032 8.52171929971693e-033 1.0
outer loop
vertex -9.0 5.51091059616309e-016 9.58631918288534e-020
vertex -7.5 -12.9903810567666 0.0
vertex -8.69333243660161 -2.32937140592269 8.54553806944512e-020
endloop
endfacet
facet normal -1.8470353464052e-032 8.52171929971693e-033 1.0
outer loop
vertex -8.69333243660161 -2.32937140592269 8.54553806944512e-020
vertex -7.5 -12.9903810567666 0.0
vertex -7.79422863405995 -4.5 6.92239265874159e-020
endloop
endfacet
facet normal -1.8470353464052e-032 8.52171929971693e-033 1.0
outer loop
vertex -7.79422863405995 -4.5 6.92239265874159e-020
vertex -7.5 -12.9903810567666 0.0
vertex -6.36396103067893 -6.36396103067892 4.82749762813959e-020
endloop
endfacet
facet normal -1.8470353464052e-032 8.52171929971693e-033 1.0
outer loop
vertex -6.36396103067893 -6.36396103067892 4.82749762813959e-020
vertex -7.5 -12.9903810567666 0.0
vertex -3.88228567653781 -14.488887394336 0.0
endloop
endfacet
facet normal -1.8470353464052e-032 8.52171929971693e-033 1.0
outer loop
vertex -6.36396103067893 -6.36396103067892 4.82749762813959e-020
vertex -3.88228567653781 -14.488887394336 0.0
vertex -4.5 -7.79422863405994 2.40361661199691e-020
endloop
endfacet
facet normal -1.8470353464052e-032 8.52171929971693e-033 1.0
outer loop
vertex -4.5 -7.79422863405994 2.40361661199691e-020
vertex -3.88228567653781 -14.488887394336 0.0
vertex -2.32937140592269 -8.69333243660161 -1.84066904089105e-021
endloop
endfacet
facet normal -1.8470353464052e-032 8.52171929971693e-033 1.0
outer loop
vertex -2.32937140592269 -8.69333243660161 -1.84066904089105e-021
vertex -3.88228567653781 -14.488887394336 0.0
vertex -5.07579076266045e-015 -15.0 0.0
endloop
endfacet
facet normal -1.8470353464052e-032 8.52171929971693e-033 1.0
outer loop
vertex -2.32937140592269 -8.69333243660161 -1.84066904089105e-021
vertex -5.07579076266045e-015 -15.0 0.0
vertex -1.10218211923262e-015 -9.0 -2.75920656484639e-020
endloop
endfacet
facet normal -1.8470353464052e-032 8.52171929971693e-033 1.0
outer loop
vertex -1.10218211923262e-015 -9.0 -2.75920656484639e-020
vertex -5.07579076266045e-015 -15.0 0.0
vertex 3.8822856765378 -14.488887394336 0.0
endloop
endfacet
facet normal -1.8470353464052e-032 8.52171929971693e-033 1.0
outer loop
vertex -1.10218211923262e-015 -9.0 -2.75920656484639e-020
vertex 3.8822856765378 -14.488887394336 0.0
vertex 2.32937140592268 -8.69333243660161 -5.14631085801382e-020
endloop
endfacet
facet normal -1.8470353464052e-032 8.52171929971693e-033 1.0
outer loop
vertex 2.32937140592268 -8.69333243660161 -5.14631085801382e-020
vertex 3.8822856765378 -14.488887394336 0.0
vertex 4.5 -7.79422863405995 -7.18270257088843e-020
endloop
endfacet
facet normal -1.8470353464052e-032 8.52171929971693e-033 1.0
outer loop
vertex 4.5 -7.79422863405995 -7.18270257088843e-020
vertex 3.8822856765378 -14.488887394336 0.0
vertex 7.49999999999999 -12.9903810567666 0.0
endloop
endfacet
facet normal -1.8470353464052e-032 8.52171929971693e-033 1.0
outer loop
vertex 4.5 -7.79422863405995 -7.18270257088843e-020
vertex 7.49999999999999 -12.9903810567666 0.0
vertex 6.36396103067892 -6.36396103067893 -8.72960497353422e-020
endloop
endfacet
facet normal -1.8470353464052e-032 8.52171929971693e-033 1.0
outer loop
vertex 6.36396103067892 -6.36396103067893 -8.72960497353422e-020
vertex 7.49999999999999 -12.9903810567666 0.0
vertex 7.79422863405994 -4.5 -9.68159922358798e-020
endloop
endfacet
facet normal -1.8470353464052e-032 8.52171929971693e-033 1.0
outer loop
vertex 7.79422863405994 -4.5 -9.68159922358798e-020
vertex 7.49999999999999 -12.9903810567666 0.0
vertex 10.6066017177982 -10.6066017177982 0.0
endloop
endfacet
facet normal -1.8470353464052e-032 8.52171929971693e-033 1.0
outer loop
vertex 7.79422863405994 -4.5 -9.68159922358798e-020
vertex 10.6066017177982 -10.6066017177982 0.0
vertex 8.69333243660161 -2.32937140592269 -9.97380848615341e-020
endloop
endfacet
facet normal -1.8470353464052e-032 8.52171929971693e-033 1.0
outer loop
vertex 8.69333243660161 -2.32937140592269 -9.97380848615341e-020
vertex 10.6066017177982 -10.6066017177982 0.0
vertex 9.0 -1.65327317884893e-015 -9.58631918288534e-020
endloop
endfacet
facet normal -1.8470353464052e-032 8.52171929971693e-033 1.0
outer loop
vertex 9.0 -1.65327317884893e-015 -9.58631918288534e-020
vertex 10.6066017177982 -10.6066017177982 0.0
vertex 9.0 23.4 0.0
endloop
endfacet
facet normal -1.8470353464052e-032 8.52171929971693e-033 1.0
outer loop
vertex 9.0 23.4 0.0
vertex 10.6066017177982 -10.6066017177982 0.0
vertex 9.7978140705314 46.1408216558598 -6.10631177830112e-032
endloop
endfacet
facet normal -1.8470353464052e-032 8.52171929971693e-033 1.0
outer loop
vertex 9.7978140705314 46.1408216558598 -6.10631177830112e-032
vertex 10.6066017177982 -10.6066017177982 0.0
vertex 10.5890088538926 48.5803352552966 0.0
endloop
endfacet
facet normal -1.8470353464052e-032 8.52171929971693e-033 1.0
outer loop
vertex 10.5890088538926 48.5803352552966 0.0
vertex 10.5890088538924 54.5803352552966 0.0
vertex 10.5890088538924 51.5803352552966 0.0
endloop
endfacet
facet normal -1.8470353464052e-032 8.52171929971693e-033 1.0
outer loop
vertex 10.5890088538924 54.5803352552966 0.0
vertex 10.5890088538926 48.5803352552966 0.0
vertex 14.0890088538924 54.5803352552966 0.0
endloop
endfacet
facet normal -1.8470353464052e-032 8.52171929971693e-033 1.0
outer loop
vertex 14.0890088538924 54.5803352552966 0.0
vertex 10.5890088538926 48.5803352552966 0.0
vertex 10.6066017177982 -10.6066017177982 0.0
endloop
endfacet
facet normal -1.8470353464052e-032 8.52171929971693e-033 1.0
outer loop
vertex 14.0890088538924 54.5803352552966 0.0
vertex 10.6066017177982 -10.6066017177982 0.0
vertex 12.9903810567666 -7.5 0.0
endloop
endfacet
facet normal -1.8470353464052e-032 8.52171929971693e-033 1.0
outer loop
vertex 14.0890088538924 54.5803352552966 0.0
vertex 12.9903810567666 -7.5 0.0
vertex 14.488887394336 -3.88228567653781 0.0
endloop
endfacet
facet normal -1.8470353464052e-032 8.52171929971693e-033 1.0
outer loop
vertex 14.0890088538924 54.5803352552966 0.0
vertex 14.488887394336 -3.88228567653781 0.0
vertex 15.0 0.0 0.0
endloop
endfacet
facet normal -1.8470353464052e-032 8.52171929971693e-033 1.0
outer loop
vertex -9.0 23.4 0.0
vertex -7.55553552343135 42.0492135806519 -1.4003662229985e-030
vertex -9.35319467544155 43.8783219318025 -1.53910661264892e-030
endloop
endfacet
facet normal -1.8470353464052e-032 8.52171929971693e-033 1.0
outer loop
vertex -7.55553552343135 42.0492135806519 -1.4003662229985e-030
vertex -9.0 23.4 0.0
vertex -8.69333243660162 25.7293714059227 0.0
endloop
endfacet
facet normal -1.8470353464052e-032 8.52171929971693e-033 1.0
outer loop
vertex -7.55553552343135 42.0492135806519 -1.4003662229985e-030
vertex -8.69333243660162 25.7293714059227 0.0
vertex -7.79422863405995 27.9 0.0
endloop
endfacet
facet normal -1.8470353464052e-032 8.52171929971693e-033 1.0
outer loop
vertex -7.55553552343135 42.0492135806519 -1.4003662229985e-030
vertex -7.79422863405995 27.9 0.0
vertex -6.36396103067893 29.7639610306789 0.0
endloop
endfacet
facet normal -1.8470353464052e-032 8.52171929971693e-033 1.0
outer loop
vertex -7.55553552343135 42.0492135806519 -1.4003662229985e-030
vertex -6.36396103067893 29.7639610306789 0.0
vertex -5.39108164328925 40.6735845653309 -1.23331721686435e-030
endloop
endfacet
facet normal -1.8470353464052e-032 8.52171929971693e-033 1.0
outer loop
vertex -5.39108164328925 40.6735845653309 -1.23331721686435e-030
vertex -6.36396103067893 29.7639610306789 0.0
vertex -4.5 31.1942286340599 0.0
endloop
endfacet
facet normal -1.8470353464052e-032 8.52171929971693e-033 1.0
outer loop
vertex -5.39108164328925 40.6735845653309 -1.23331721686435e-030
vertex -4.5 31.1942286340599 0.0
vertex -2.97178131454247 39.8225841503012 -1.04659957914288e-030
endloop
endfacet
facet normal -1.8470353464052e-032 8.52171929971693e-033 1.0
outer loop
vertex -2.97178131454247 39.8225841503012 -1.04659957914288e-030
vertex -4.5 31.1942286340599 0.0
vertex -2.32937140592269 32.0933324366016 0.0
endloop
endfacet
facet normal -1.8470353464052e-032 8.52171929971693e-033 1.0
outer loop
vertex -2.97178131454247 39.8225841503012 -1.04659957914288e-030
vertex -2.32937140592269 32.0933324366016 0.0
vertex -0.422763795868075 39.5402271483584 -8.49870581117223e-031
endloop
endfacet
facet normal -1.8470353464052e-032 8.52171929971693e-033 1.0
outer loop
vertex -0.422763795868075 39.5402271483584 -8.49870581117223e-031
vertex -2.32937140592269 32.0933324366016 0.0
vertex 0.0 32.4 0.0
endloop
endfacet
facet normal -1.8470353464052e-032 8.52171929971693e-033 1.0
outer loop
vertex -0.422763795868075 39.5402271483584 -8.49870581117223e-031
vertex 0.0 32.4 0.0
vertex 2.12413251769194 39.8411174191042 -6.53305294228776e-031
endloop
endfacet
facet normal -1.8470353464052e-032 8.52171929971693e-033 1.0
outer loop
vertex 2.12413251769194 39.8411174191042 -6.53305294228776e-031
vertex 0.0 32.4 0.0
vertex 2.32937140592269 32.0933324366016 0.0
endloop
endfacet
facet normal -1.8470353464052e-032 8.52171929971693e-033 1.0
outer loop
vertex 2.12413251769194 39.8411174191042 -6.53305294228776e-031
vertex 2.32937140592269 32.0933324366016 0.0
vertex 4.53717894249449 40.7096925389429 -4.6707032257284e-031
endloop
endfacet
facet normal -1.8470353464052e-032 8.52171929971693e-033 1.0
outer loop
vertex 4.53717894249449 40.7096925389429 -4.6707032257284e-031
vertex 2.32937140592269 32.0933324366016 0.0
vertex 4.5 31.1942286340599 0.0
endloop
endfacet
facet normal -1.8470353464052e-032 8.52171929971693e-033 1.0
outer loop
vertex 4.53717894249449 40.7096925389429 -4.6707032257284e-031
vertex 4.5 31.1942286340599 0.0
vertex 6.36396103067893 29.7639610306789 0.0
endloop
endfacet
facet normal -1.8470353464052e-032 8.52171929971693e-033 1.0
outer loop
vertex 4.53717894249449 40.7096925389429 -4.6707032257284e-031
vertex 6.36396103067893 29.7639610306789 0.0
vertex 6.6915696796476 42.1010287092209 -3.00797973335983e-031
endloop
endfacet
facet normal -1.8470353464052e-032 8.52171929971693e-033 1.0
outer loop
vertex 6.6915696796476 42.1010287092209 -3.00797973335983e-031
vertex 6.36396103067893 29.7639610306789 0.0
vertex 7.79422863405995 27.9 0.0
endloop
endfacet
facet normal -1.8470353464052e-032 8.52171929971693e-033 1.0
outer loop
vertex 6.6915696796476 42.1010287092209 -3.00797973335983e-031
vertex 7.79422863405995 27.9 0.0
vertex 8.47587692804799 43.9431642716486 -1.63088061742169e-031
endloop
endfacet
facet normal -1.8470353464052e-032 8.52171929971693e-033 1.0
outer loop
vertex 8.47587692804799 43.9431642716486 -1.63088061742169e-031
vertex 7.79422863405995 27.9 0.0
vertex 8.69333243660162 25.7293714059227 0.0
endloop
endfacet
facet normal -1.8470353464052e-032 8.52171929971693e-033 1.0
outer loop
vertex 8.47587692804799 43.9431642716486 -1.63088061742169e-031
vertex 8.69333243660162 25.7293714059227 0.0
vertex 9.7978140705314 46.1408216558598 -6.10631177830112e-032
endloop
endfacet
facet normal -1.8470353464052e-032 8.52171929971693e-033 1.0
outer loop
vertex 9.7978140705314 46.1408216558598 -6.10631177830112e-032
vertex 8.69333243660162 25.7293714059227 0.0
vertex 9.0 23.4 0.0
endloop
endfacet
facet normal -1.8470353464052e-032 8.52171929971693e-033 1.0
outer loop
vertex -9.0 5.51091059616309e-016 9.58631918288534e-020
vertex -8.69333243660162 21.0706285940773 0.0
vertex -9.0 23.4 0.0
endloop
endfacet
facet normal -1.8470353464052e-032 8.52171929971693e-033 1.0
outer loop
vertex -8.69333243660162 21.0706285940773 0.0
vertex -9.0 5.51091059616309e-016 9.58631918288534e-020
vertex -8.69333243660161 2.32937140592269 9.97380848615341e-020
endloop
endfacet
facet normal -1.8470353464052e-032 8.52171929971693e-033 1.0
outer loop
vertex -8.69333243660162 21.0706285940773 0.0
vertex -8.69333243660161 2.32937140592269 9.97380848615341e-020
vertex -7.79422863405995 18.9 0.0
endloop
endfacet
facet normal -1.8470353464052e-032 8.52171929971693e-033 1.0
outer loop
vertex -7.79422863405995 18.9 0.0
vertex -8.69333243660161 2.32937140592269 9.97380848615341e-020
vertex -7.79422863405995 4.5 9.68159922358798e-020
endloop
endfacet
facet normal -1.8470353464052e-032 8.52171929971693e-033 1.0
outer loop
vertex -7.79422863405995 18.9 0.0
vertex -7.79422863405995 4.5 9.68159922358798e-020
vertex -6.36396103067893 17.0360389693211 0.0
endloop
endfacet
facet normal -1.8470353464052e-032 8.52171929971693e-033 1.0
outer loop
vertex -6.36396103067893 17.0360389693211 0.0
vertex -7.79422863405995 4.5 9.68159922358798e-020
vertex -6.36396103067892 6.36396103067893 8.72960497353423e-020
endloop
endfacet
facet normal -1.8470353464052e-032 8.52171929971693e-033 1.0
outer loop
vertex -6.36396103067893 17.0360389693211 0.0
vertex -6.36396103067892 6.36396103067893 8.72960497353423e-020
vertex -4.5 15.6057713659401 0.0
endloop
endfacet
facet normal -1.8470353464052e-032 8.52171929971693e-033 1.0
outer loop
vertex -4.5 15.6057713659401 0.0
vertex -6.36396103067892 6.36396103067893 8.72960497353423e-020
vertex -4.5 7.79422863405995 7.18270257088844e-020
endloop
endfacet
facet normal -1.8470353464052e-032 8.52171929971693e-033 1.0
outer loop
vertex -4.5 15.6057713659401 0.0
vertex -4.5 7.79422863405995 7.18270257088844e-020
vertex -2.32937140592269 14.7066675633984 0.0
endloop
endfacet
facet normal -1.8470353464052e-032 8.52171929971693e-033 1.0
outer loop
vertex -2.32937140592269 14.7066675633984 0.0
vertex -4.5 7.79422863405995 7.18270257088844e-020
vertex -2.32937140592269 8.69333243660161 5.14631085801383e-020
endloop
endfacet
facet normal -1.8470353464052e-032 8.52171929971693e-033 1.0
outer loop
vertex -2.32937140592269 14.7066675633984 0.0
vertex -2.32937140592269 8.69333243660161 5.14631085801383e-020
vertex -1.89893852818128 14.65 0.0
endloop
endfacet
facet normal -1.8470353464052e-032 8.52171929971693e-033 1.0
outer loop
vertex -1.89893852818128 14.65 0.0
vertex -2.32937140592269 8.69333243660161 5.14631085801383e-020
vertex 2.93895942468112e-040 9.0 2.75920656484639e-020
endloop
endfacet
facet normal -1.8470353464052e-032 8.52171929971693e-033 1.0
outer loop
vertex -1.89893852818128 14.65 0.0
vertex 2.93895942468112e-040 9.0 2.75920656484639e-020
vertex -1.10154940724527e-015 14.4 0.0
endloop
endfacet
facet normal -1.8470353464052e-032 8.52171929971693e-033 1.0
outer loop
vertex -1.10154940724527e-015 14.4 0.0
vertex 2.93895942468112e-040 9.0 2.75920656484639e-020
vertex 1.89893852818128 14.65 0.0
endloop
endfacet
facet normal -1.8470353464052e-032 8.52171929971693e-033 1.0
outer loop
vertex 1.89893852818128 14.65 0.0
vertex 2.93895942468112e-040 9.0 2.75920656484639e-020
vertex 2.32937140592269 8.69333243660161 1.840669040891e-021
endloop
endfacet
facet normal -1.8470353464052e-032 8.52171929971693e-033 1.0
outer loop
vertex 1.89893852818128 14.65 0.0
vertex 2.32937140592269 8.69333243660161 1.840669040891e-021
vertex 2.32937140592268 14.7066675633984 0.0
endloop
endfacet
facet normal -1.8470353464052e-032 8.52171929971693e-033 1.0
outer loop
vertex 2.32937140592268 14.7066675633984 0.0
vertex 2.32937140592269 8.69333243660161 1.840669040891e-021
vertex 4.5 15.6057713659401 0.0
endloop
endfacet
facet normal -1.8470353464052e-032 8.52171929971693e-033 1.0
outer loop
vertex 4.5 15.6057713659401 0.0
vertex 2.32937140592269 8.69333243660161 1.840669040891e-021
vertex 4.5 7.79422863405994 -2.40361661199691e-020
endloop
endfacet
facet normal -1.8470353464052e-032 8.52171929971693e-033 1.0
outer loop
vertex 4.5 15.6057713659401 0.0
vertex 4.5 7.79422863405994 -2.40361661199691e-020
vertex 6.36396103067892 17.0360389693211 0.0
endloop
endfacet
facet normal -1.8470353464052e-032 8.52171929971693e-033 1.0
outer loop
vertex 6.36396103067892 17.0360389693211 0.0
vertex 4.5 7.79422863405994 -2.40361661199691e-020
vertex 6.36396103067893 6.36396103067892 -4.82749762813959e-020
endloop
endfacet
facet normal -1.8470353464052e-032 8.52171929971693e-033 1.0
outer loop
vertex 6.36396103067892 17.0360389693211 0.0
vertex 6.36396103067893 6.36396103067892 -4.82749762813959e-020
vertex 7.79422863405995 18.9 0.0
endloop
endfacet
facet normal -1.8470353464052e-032 8.52171929971693e-033 1.0
outer loop
vertex 7.79422863405995 18.9 0.0
vertex 6.36396103067893 6.36396103067892 -4.82749762813959e-020
vertex 7.79422863405995 4.49999999999999 -6.9223926587416e-020
endloop
endfacet
facet normal -1.8470353464052e-032 8.52171929971693e-033 1.0
outer loop
vertex 7.79422863405995 18.9 0.0
vertex 7.79422863405995 4.49999999999999 -6.9223926587416e-020
vertex 8.69333243660161 21.0706285940773 0.0
endloop
endfacet
facet normal -1.8470353464052e-032 8.52171929971693e-033 1.0
outer loop
vertex 8.69333243660161 21.0706285940773 0.0
vertex 7.79422863405995 4.49999999999999 -6.9223926587416e-020
vertex 8.69333243660161 2.32937140592268 -8.54553806944512e-020
endloop
endfacet
facet normal -1.8470353464052e-032 8.52171929971693e-033 1.0
outer loop
vertex 8.69333243660161 21.0706285940773 0.0
vertex 8.69333243660161 2.32937140592268 -8.54553806944512e-020
vertex 9.0 -1.65327317884893e-015 -9.58631918288534e-020
endloop
endfacet
facet normal -1.8470353464052e-032 8.52171929971693e-033 1.0
outer loop
vertex 8.69333243660161 21.0706285940773 0.0
vertex 9.0 -1.65327317884893e-015 -9.58631918288534e-020
vertex 9.0 23.4 0.0
endloop
endfacet
facet normal -1.8470353464052e-032 8.52171929971693e-033 1.0
outer loop
vertex -14.488887394336 -3.88228567653781 0.0
vertex -15.0 54.5 0.0
vertex -15.0 1.65327317884893e-015 0.0
endloop
endfacet
facet normal -1.8470353464052e-032 8.52171929971693e-033 1.0
outer loop
vertex -15.0 54.5 0.0
vertex -14.488887394336 -3.88228567653781 0.0
vertex -11.5 54.5 0.0
endloop
endfacet
facet normal -1.8470353464052e-032 8.52171929971693e-033 1.0
outer loop
vertex -11.5 54.5 0.0
vertex -14.488887394336 -3.88228567653781 0.0
vertex -12.9903810567666 -7.49999999999999 0.0
endloop
endfacet
facet normal -1.8470353464052e-032 8.52171929971693e-033 1.0
outer loop
vertex -11.5 54.5 0.0
vertex -12.9903810567666 -7.49999999999999 0.0
vertex -11.5000000000001 48.5 -1.70479353216299e-030
endloop
endfacet
facet normal 0.948683298050513 0.316227766016841 1.49515394410895e-018
outer loop
vertex -11.5 54.5 0.0
vertex -11.1899366455289 53.5698099365866 5.00000000000001
vertex -11.1899366455289 53.5698099365866 0.0
endloop
endfacet
facet normal 0.948683298050513 0.316227766016841 1.49515394410895e-018
outer loop
vertex -11.1899366455289 53.5698099365866 5.00000000000001
vertex -11.5 54.5 0.0
vertex -11.5 54.5 5.0
endloop
endfacet
facet normal -8.52396766081461e-031 -2.8413225536049e-031 1.0
outer loop
vertex -11.1899366455289 53.5698099365866 0.0
vertex -11.5 54.5 0.0
vertex -11.5000000000001 48.5 -1.70479353216299e-030
endloop
endfacet
facet normal 0.968197554608034 -0.250186920623408 2.54986403605745e-017
outer loop
vertex -11.1899366455289 53.5698099365866 5.00000000000001
vertex -11.8449683227644 51.0349049682933 5.0
vertex -11.1899366455289 53.5698099365866 0.0
endloop
endfacet
facet normal 0.950540687616793 -0.24562430098099 0.190108137523345
outer loop
vertex -11.8449683227644 51.0349049682933 5.0
vertex -12.5 48.5 5.0
vertex -11.5000000000001 48.5 -1.70479353216299e-030
endloop
endfacet
facet normal 0.993199800626273 -0.060742881033851 0.0993199800626213
outer loop
vertex -11.1899366455289 53.5698099365866 0.0
vertex -11.8449683227644 51.0349049682933 5.0
vertex -11.5000000000001 48.5 -1.70479353216299e-030
endloop
endfacet
endsolid Shotshell holder back half
