solid Shotshell holder front half
facet normal 0.99144486137381 0.130526192220051 9.85522336940377e-033
outer loop
vertex -11.5 1.40834381901946e-015 5.0
vertex -11.1081470023243 -2.97641901867898 15.0
vertex -11.1081470023243 -2.97641901867898 5.0
endloop
endfacet
facet normal 0.99144486137381 0.130526192220051 9.85522336940377e-033
outer loop
vertex -11.1081470023243 -2.97641901867898 15.0
vertex -11.5 1.40834381901946e-015 5.0
vertex -11.5 1.40834381901946e-015 15.0
endloop
endfacet
facet normal 0.923879532511287 0.382683432365089 3.13343905294282e-018
outer loop
vertex -11.1081470023243 -2.97641901867898 5.0
vertex -9.95929214352105 -5.75 15.0
vertex -9.95929214352105 -5.75 5.0
endloop
endfacet
facet normal 0.923879532511287 0.382683432365089 3.13343905294282e-018
outer loop
vertex -9.95929214352105 -5.75 15.0
vertex -11.1081470023243 -2.97641901867898 5.0
vertex -11.1081470023243 -2.97641901867898 15.0
endloop
endfacet
facet normal 0.793353340291235 0.60876142900872 3.58394126616813e-018
outer loop
vertex -9.95929214352105 -5.75 5.0
vertex -8.1317279836453 -8.13172798364529 15.0
vertex -8.1317279836453 -8.13172798364529 5.0
endloop
endfacet
facet normal 0.793353340291235 0.60876142900872 3.58394126616813e-018
outer loop
vertex -8.1317279836453 -8.13172798364529 15.0
vertex -9.95929214352105 -5.75 5.0
vertex -9.95929214352105 -5.75 15.0
endloop
endfacet
facet normal 0.608761429008721 0.793353340291235 1.9685783009931e-018
outer loop
vertex -8.1317279836453 -8.13172798364529 15.0
vertex -5.75 -9.95929214352104 5.0
vertex -8.1317279836453 -8.13172798364529 5.0
endloop
endfacet
facet normal 0.608761429008721 0.793353340291235 1.9685783009931e-018
outer loop
vertex -5.75 -9.95929214352104 5.0
vertex -8.1317279836453 -8.13172798364529 15.0
vertex -5.75 -9.95929214352104 15.0
endloop
endfacet
facet normal 0.38268343236509 0.923879532511287 -0.0
outer loop
vertex -5.75 -9.95929214352104 15.0
vertex -2.976419018679 -11.1081470023243 5.0
vertex -5.75 -9.95929214352104 5.0
endloop
endfacet
facet normal 0.38268343236509 0.923879532511287 -0.0
outer loop
vertex -2.976419018679 -11.1081470023243 5.0
vertex -5.75 -9.95929214352104 15.0
vertex -2.976419018679 -11.1081470023243 15.0
endloop
endfacet
facet normal 0.130526192220052 0.99144486137381 -9.85522336940377e-033
outer loop
vertex -2.976419018679 -11.1081470023243 15.0
vertex -2.11251572852918e-015 -11.5 5.0
vertex -2.976419018679 -11.1081470023243 5.0
endloop
endfacet
facet normal 0.130526192220052 0.99144486137381 -9.85522336940377e-033
outer loop
vertex -2.11251572852918e-015 -11.5 5.0
vertex -2.976419018679 -11.1081470023243 15.0
vertex -2.11251572852918e-015 -11.5 15.0
endloop
endfacet
facet normal -0.130526192220051 0.99144486137381 9.85522336940377e-033
outer loop
vertex -2.11251572852918e-015 -11.5 15.0
vertex 2.97641901867898 -11.1081470023243 5.0
vertex -2.11251572852918e-015 -11.5 5.0
endloop
endfacet
facet normal -0.130526192220051 0.99144486137381 9.85522336940377e-033
outer loop
vertex 2.97641901867898 -11.1081470023243 5.0
vertex -2.11251572852918e-015 -11.5 15.0
vertex 2.97641901867898 -11.1081470023243 15.0
endloop
endfacet
facet normal -0.382683432365089 0.923879532511287 5.16991067313156e-018
outer loop
vertex 2.97641901867898 -11.1081470023243 15.0
vertex 5.74999999999999 -9.95929214352105 5.0
vertex 2.97641901867898 -11.1081470023243 5.0
endloop
endfacet
facet normal -0.382683432365089 0.923879532511287 5.16991067313156e-018
outer loop
vertex 5.74999999999999 -9.95929214352105 5.0
vertex 2.97641901867898 -11.1081470023243 15.0
vertex 5.74999999999999 -9.95929214352105 15.0
endloop
endfacet
facet normal -0.60876142900872 0.793353340291235 -5.83513309618571e-033
outer loop
vertex 5.74999999999999 -9.95929214352105 15.0
vertex 8.13172798364529 -8.1317279836453 5.0
vertex 5.74999999999999 -9.95929214352105 5.0
endloop
endfacet
facet normal -0.60876142900872 0.793353340291235 -5.83513309618571e-033
outer loop
vertex 8.13172798364529 -8.1317279836453 5.0
vertex 5.74999999999999 -9.95929214352105 15.0
vertex 8.13172798364529 -8.1317279836453 15.0
endloop
endfacet
facet normal -0.793353340291235 0.608761429008721 -7.29975089934454e-019
outer loop
vertex 9.95929214352104 -5.75000000000001 15.0
vertex 8.13172798364529 -8.1317279836453 5.0
vertex 8.13172798364529 -8.1317279836453 15.0
endloop
endfacet
facet normal -0.793353340291235 0.608761429008721 -7.29975089934454e-019
outer loop
vertex 8.13172798364529 -8.1317279836453 5.0
vertex 9.95929214352104 -5.75000000000001 15.0
vertex 9.95929214352104 -5.75000000000001 5.0
endloop
endfacet
facet normal -0.923879532511287 0.382683432365091 -1.56671952647148e-018
outer loop
vertex 11.1081470023243 -2.976419018679 15.0
vertex 9.95929214352104 -5.75000000000001 5.0
vertex 9.95929214352104 -5.75000000000001 15.0
endloop
endfacet
facet normal -0.923879532511287 0.382683432365091 -1.56671952647148e-018
outer loop
vertex 9.95929214352104 -5.75000000000001 5.0
vertex 11.1081470023243 -2.976419018679 15.0
vertex 11.1081470023243 -2.976419018679 5.0
endloop
endfacet
facet normal -0.99144486137381 0.130526192220052 -1.03234067237976e-018
outer loop
vertex 11.5 0.0 15.0
vertex 11.1081470023243 -2.976419018679 5.0
vertex 11.1081470023243 -2.976419018679 15.0
endloop
endfacet
facet normal -0.99144486137381 0.130526192220052 -1.03234067237976e-018
outer loop
vertex 11.1081470023243 -2.976419018679 5.0
vertex 11.5 0.0 15.0
vertex 11.5 0.0 5.0
endloop
endfacet
facet normal 1.0 -0.0 -0.0
outer loop
vertex -11.5 48.5 5.0
vertex -11.5 45.5805110325816 15.0
vertex -11.5 45.5805110325816 5.0
endloop
endfacet
facet normal 1.0 -0.0 -0.0
outer loop
vertex -11.5 45.5805110325816 15.0
vertex -11.5 48.5 5.0
vertex -11.5 48.5 15.0
endloop
endfacet
facet normal 1.3301923198075e-017 2.7809728344719e-018 1.0
outer loop
vertex 10.3393511918721 -0.0227197940607701 15.0
vertex 10.6077578190811 45.5805110325816 15.0
vertex 9.44710901095312 45.5577912385208 15.0
endloop
endfacet
facet normal 1.3301923198075e-017 2.7809728344719e-018 1.0
outer loop
vertex 10.6077578190811 45.5805110325816 15.0
vertex 10.3393511918721 -0.0227197940607701 15.0
vertex 11.5 0.0 15.0
endloop
endfacet
facet normal 1.3301923198075e-017 2.7809728344719e-018 1.0
outer loop
vertex -10.6066017177982 -10.6066017177982 15.0
vertex -11.5 1.40834381901946e-015 15.0
vertex -12.9903810567666 -7.49999999999999 15.0
endloop
endfacet
facet normal 1.3301923198075e-017 2.7809728344719e-018 1.0
outer loop
vertex -11.5 1.40834381901946e-015 15.0
vertex -10.6066017177982 -10.6066017177982 15.0
vertex -11.1081470023243 -2.97641901867898 15.0
endloop
endfacet
facet normal 1.3301923198075e-017 2.7809728344719e-018 1.0
outer loop
vertex -11.1081470023243 -2.97641901867898 15.0
vertex -10.6066017177982 -10.6066017177982 15.0
vertex -9.95929214352105 -5.75 15.0
endloop
endfacet
facet normal 1.3301923198075e-017 2.7809728344719e-018 1.0
outer loop
vertex -9.95929214352105 -5.75 15.0
vertex -10.6066017177982 -10.6066017177982 15.0
vertex -7.5 -12.9903810567666 15.0
endloop
endfacet
facet normal 1.3301923198075e-017 2.7809728344719e-018 1.0
outer loop
vertex -9.95929214352105 -5.75 15.0
vertex -7.5 -12.9903810567666 15.0
vertex -8.1317279836453 -8.13172798364529 15.0
endloop
endfacet
facet normal 1.3301923198075e-017 2.7809728344719e-018 1.0
outer loop
vertex -8.1317279836453 -8.13172798364529 15.0
vertex -7.5 -12.9903810567666 15.0
vertex -5.75 -9.95929214352104 15.0
endloop
endfacet
facet normal 1.3301923198075e-017 2.7809728344719e-018 1.0
outer loop
vertex -5.75 -9.95929214352104 15.0
vertex -7.5 -12.9903810567666 15.0
vertex -3.88228567653781 -14.488887394336 15.0
endloop
endfacet
facet normal 1.3301923198075e-017 2.7809728344719e-018 1.0
outer loop
vertex -5.75 -9.95929214352104 15.0
vertex -3.88228567653781 -14.488887394336 15.0
vertex -2.976419018679 -11.1081470023243 15.0
endloop
endfacet
facet normal 1.3301923198075e-017 2.7809728344719e-018 1.0
outer loop
vertex -2.976419018679 -11.1081470023243 15.0
vertex -3.88228567653781 -14.488887394336 15.0
vertex -5.07579076266045e-015 -15.0 15.0
endloop
endfacet
facet normal 1.3301923198075e-017 2.7809728344719e-018 1.0
outer loop
vertex -2.976419018679 -11.1081470023243 15.0
vertex -5.07579076266045e-015 -15.0 15.0
vertex -2.11251572852918e-015 -11.5 15.0
endloop
endfacet
facet normal 1.3301923198075e-017 2.7809728344719e-018 1.0
outer loop
vertex -2.11251572852918e-015 -11.5 15.0
vertex -5.07579076266045e-015 -15.0 15.0
vertex 3.8822856765378 -14.488887394336 15.0
endloop
endfacet
facet normal 1.3301923198075e-017 2.7809728344719e-018 1.0
outer loop
vertex -2.11251572852918e-015 -11.5 15.0
vertex 3.8822856765378 -14.488887394336 15.0
vertex 2.97641901867898 -11.1081470023243 15.0
endloop
endfacet
facet normal 1.3301923198075e-017 2.7809728344719e-018 1.0
outer loop
vertex 2.97641901867898 -11.1081470023243 15.0
vertex 3.8822856765378 -14.488887394336 15.0
vertex 5.74999999999999 -9.95929214352105 15.0
endloop
endfacet
facet normal 1.3301923198075e-017 2.7809728344719e-018 1.0
outer loop
vertex 5.74999999999999 -9.95929214352105 15.0
vertex 3.8822856765378 -14.488887394336 15.0
vertex 7.49999999999999 -12.9903810567666 15.0
endloop
endfacet
facet normal 1.3301923198075e-017 2.7809728344719e-018 1.0
outer loop
vertex 5.74999999999999 -9.95929214352105 15.0
vertex 7.49999999999999 -12.9903810567666 15.0
vertex 8.13172798364529 -8.1317279836453 15.0
endloop
endfacet
facet normal 1.3301923198075e-017 2.7809728344719e-018 1.0
outer loop
vertex 8.13172798364529 -8.1317279836453 15.0
vertex 7.49999999999999 -12.9903810567666 15.0
vertex 10.6066017177982 -10.6066017177982 15.0
endloop
endfacet
facet normal 1.3301923198075e-017 2.7809728344719e-018 1.0
outer loop
vertex 8.13172798364529 -8.1317279836453 15.0
vertex 10.6066017177982 -10.6066017177982 15.0
vertex 9.95929214352104 -5.75000000000001 15.0
endloop
endfacet
facet normal 1.3301923198075e-017 2.7809728344719e-018 1.0
outer loop
vertex 9.95929214352104 -5.75000000000001 15.0
vertex 10.6066017177982 -10.6066017177982 15.0
vertex 11.1081470023243 -2.976419018679 15.0
endloop
endfacet
facet normal 1.3301923198075e-017 2.7809728344719e-018 1.0
outer loop
vertex 11.1081470023243 -2.976419018679 15.0
vertex 10.6066017177982 -10.6066017177982 15.0
vertex 12.9903810567666 -7.5 15.0
endloop
endfacet
facet normal 1.3301923198075e-017 2.7809728344719e-018 1.0
outer loop
vertex 11.1081470023243 -2.976419018679 15.0
vertex 12.9903810567666 -7.5 15.0
vertex 11.5 0.0 15.0
endloop
endfacet
facet normal 1.3301923198075e-017 2.7809728344719e-018 1.0
outer loop
vertex 10.5890088538924 48.5803352552967 15.0
vertex 10.5890088538924 54.5803352552966 15.0
vertex 8.58900885389235 51.5803352552966 15.0
endloop
endfacet
facet normal 1.3301923198075e-017 2.7809728344719e-018 1.0
outer loop
vertex 10.5890088538924 54.5803352552966 15.0
vertex 10.5890088538924 48.5803352552967 15.0
vertex 10.6077578190811 45.5805110325816 15.0
endloop
endfacet
facet normal 1.3301923198075e-017 2.7809728344719e-018 1.0
outer loop
vertex 10.5890088538924 54.5803352552966 15.0
vertex 10.6077578190811 45.5805110325816 15.0
vertex 14.0890088538924 54.5803352552966 15.0
endloop
endfacet
facet normal 1.3301923198075e-017 2.7809728344719e-018 1.0
outer loop
vertex 14.0890088538924 54.5803352552966 15.0
vertex 10.6077578190811 45.5805110325816 15.0
vertex 11.5 0.0 15.0
endloop
endfacet
facet normal 1.3301923198075e-017 2.7809728344719e-018 1.0
outer loop
vertex 14.0890088538924 54.5803352552966 15.0
vertex 11.5 0.0 15.0
vertex 12.9903810567666 -7.5 15.0
endloop
endfacet
facet normal 1.3301923198075e-017 2.7809728344719e-018 1.0
outer loop
vertex 14.0890088538924 54.5803352552966 15.0
vertex 12.9903810567666 -7.5 15.0
vertex 14.488887394336 -3.88228567653781 15.0
endloop
endfacet
facet normal 1.3301923198075e-017 2.7809728344719e-018 1.0
outer loop
vertex 14.0890088538924 54.5803352552966 15.0
vertex 14.488887394336 -3.88228567653781 15.0
vertex 15.0 0.0 15.0
endloop
endfacet
facet normal 1.3301923198075e-017 2.7809728344719e-018 1.0
outer loop
vertex -10.3940328002765 1.40834381901946e-015 15.0
vertex -11.5 45.5805110325816 15.0
vertex -11.5 1.40834381901946e-015 15.0
endloop
endfacet
facet normal 1.3301923198075e-017 2.7809728344719e-018 1.0
outer loop
vertex -11.5 45.5805110325816 15.0
vertex -10.3940328002765 1.40834381901946e-015 15.0
vertex -10.3940328002765 45.5805110325816 15.0
endloop
endfacet
facet normal 1.3301923198075e-017 2.7809728344719e-018 1.0
outer loop
vertex -14.488887394336 -3.88228567653781 15.0
vertex -15.0 54.5 15.0
vertex -15.0 1.65327317884893e-015 15.0
endloop
endfacet
facet normal 1.3301923198075e-017 2.7809728344719e-018 1.0
outer loop
vertex -15.0 54.5 15.0
vertex -14.488887394336 -3.88228567653781 15.0
vertex -11.5 54.5 15.0
endloop
endfacet
facet normal 1.3301923198075e-017 2.7809728344719e-018 1.0
outer loop
vertex -11.5 54.5 15.0
vertex -14.488887394336 -3.88228567653781 15.0
vertex -12.9903810567666 -7.49999999999999 15.0
endloop
endfacet
facet normal 1.3301923198075e-017 2.7809728344719e-018 1.0
outer loop
vertex -11.5 54.5 15.0
vertex -12.9903810567666 -7.49999999999999 15.0
vertex -11.5 1.40834381901946e-015 15.0
endloop
endfacet
facet normal 1.3301923198075e-017 2.7809728344719e-018 1.0
outer loop
vertex -11.5 54.5 15.0
vertex -11.5 1.40834381901946e-015 15.0
vertex -11.5 45.5805110325816 15.0
endloop
endfacet
facet normal 1.3301923198075e-017 2.7809728344719e-018 1.0
outer loop
vertex -11.5 54.5 15.0
vertex -11.5 45.5805110325816 15.0
vertex -11.5 48.5 15.0
endloop
endfacet
facet normal 1.3301923198075e-017 2.7809728344719e-018 1.0
outer loop
vertex -11.5 54.5 15.0
vertex -11.5 48.5 15.0
vertex -9.5 51.5 15.0
endloop
endfacet
facet normal -1.89350633643257e-032 8.51732842357456e-033 1.0
outer loop
vertex -10.6066017177982 -10.6066017177982 0.0
vertex -11.5000000000001 48.5 -1.70479353216299e-030
vertex -12.9903810567666 -7.49999999999999 0.0
endloop
endfacet
facet normal -1.89350633643257e-032 8.51732842357456e-033 1.0
outer loop
vertex -11.5000000000001 48.5 -1.70479353216299e-030
vertex -10.6066017177982 -10.6066017177982 0.0
vertex -10.6910819048921 46.066305832184 -1.64236255820162e-030
endloop
endfacet
facet normal -1.89350633643257e-032 8.51732842357456e-033 1.0
outer loop
vertex -10.6910819048921 46.066305832184 -1.64236255820162e-030
vertex -10.6066017177982 -10.6066017177982 0.0
vertex -9.35319467544155 43.8783219318025 -1.53910661264892e-030
endloop
endfacet
facet normal -1.89350633643257e-032 8.51732842357456e-033 1.0
outer loop
vertex -9.35319467544155 43.8783219318025 -1.53910661264892e-030
vertex -10.6066017177982 -10.6066017177982 0.0
vertex -9.0 5.51091059616309e-016 9.58631918288534e-020
endloop
endfacet
facet normal -1.89350633643257e-032 8.51732842357456e-033 1.0
outer loop
vertex -9.0 5.51091059616309e-016 9.58631918288534e-020
vertex -10.6066017177982 -10.6066017177982 0.0
vertex -7.5 -12.9903810567666 0.0
endloop
endfacet
facet normal -1.89350633643257e-032 8.51732842357456e-033 1.0
outer loop
vertex -9.35319467544155 43.8783219318025 -1.53910661264892e-030
vertex -9.0 5.51091059616309e-016 9.58631918288534e-020
vertex -9.0 23.4 0.0
endloop
endfacet
facet normal -1.89350633643257e-032 8.51732842357456e-033 1.0
outer loop
vertex -9.0 5.51091059616309e-016 9.58631918288534e-020
vertex -7.5 -12.9903810567666 0.0
vertex -8.69333243660161 -2.32937140592269 8.54553806944512e-020
endloop
endfacet
facet normal -1.89350633643257e-032 8.51732842357456e-033 1.0
outer loop
vertex -8.69333243660161 -2.32937140592269 8.54553806944512e-020
vertex -7.5 -12.9903810567666 0.0
vertex -7.79422863405995 -4.5 6.92239265874159e-020
endloop
endfacet
facet normal -1.89350633643257e-032 8.51732842357456e-033 1.0
outer loop
vertex -7.79422863405995 -4.5 6.92239265874159e-020
vertex -7.5 -12.9903810567666 0.0
vertex -6.36396103067893 -6.36396103067892 4.82749762813959e-020
endloop
endfacet
facet normal -1.89350633643257e-032 8.51732842357456e-033 1.0
outer loop
vertex -6.36396103067893 -6.36396103067892 4.82749762813959e-020
vertex -7.5 -12.9903810567666 0.0
vertex -3.88228567653781 -14.488887394336 0.0
endloop
endfacet
facet normal -1.89350633643257e-032 8.51732842357456e-033 1.0
outer loop
vertex -6.36396103067893 -6.36396103067892 4.82749762813959e-020
vertex -3.88228567653781 -14.488887394336 0.0
vertex -4.5 -7.79422863405994 2.40361661199691e-020
endloop
endfacet
facet normal -1.89350633643257e-032 8.51732842357456e-033 1.0
outer loop
vertex -4.5 -7.79422863405994 2.40361661199691e-020
vertex -3.88228567653781 -14.488887394336 0.0
vertex -2.32937140592269 -8.69333243660161 -1.84066904089105e-021
endloop
endfacet
facet normal -1.89350633643257e-032 8.51732842357456e-033 1.0
outer loop
vertex -2.32937140592269 -8.69333243660161 -1.84066904089105e-021
vertex -3.88228567653781 -14.488887394336 0.0
vertex -5.07579076266045e-015 -15.0 0.0
endloop
endfacet
facet normal -1.89350633643257e-032 8.51732842357456e-033 1.0
outer loop
vertex -2.32937140592269 -8.69333243660161 -1.84066904089105e-021
vertex -5.07579076266045e-015 -15.0 0.0
vertex -1.10218211923262e-015 -9.0 -2.75920656484639e-020
endloop
endfacet
facet normal -1.89350633643257e-032 8.51732842357456e-033 1.0
outer loop
vertex -1.10218211923262e-015 -9.0 -2.75920656484639e-020
vertex -5.07579076266045e-015 -15.0 0.0
vertex 3.8822856765378 -14.488887394336 0.0
endloop
endfacet
facet normal -1.89350633643257e-032 8.51732842357456e-033 1.0
outer loop
vertex -1.10218211923262e-015 -9.0 -2.75920656484639e-020
vertex 3.8822856765378 -14.488887394336 0.0
vertex 2.32937140592268 -8.69333243660161 -5.14631085801382e-020
endloop
endfacet
facet normal -1.89350633643257e-032 8.51732842357456e-033 1.0
outer loop
vertex 2.32937140592268 -8.69333243660161 -5.14631085801382e-020
vertex 3.8822856765378 -14.488887394336 0.0
vertex 4.5 -7.79422863405995 -7.18270257088843e-020
endloop
endfacet
facet normal -1.89350633643257e-032 8.51732842357456e-033 1.0
outer loop
vertex 4.5 -7.79422863405995 -7.18270257088843e-020
vertex 3.8822856765378 -14.488887394336 0.0
vertex 7.49999999999999 -12.9903810567666 0.0
endloop
endfacet
facet normal -1.89350633643257e-032 8.51732842357456e-033 1.0
outer loop
vertex 4.5 -7.79422863405995 -7.18270257088843e-020
vertex 7.49999999999999 -12.9903810567666 0.0
vertex 6.36396103067892 -6.36396103067893 -8.72960497353422e-020
endloop
endfacet
facet normal -1.89350633643257e-032 8.51732842357456e-033 1.0
outer loop
vertex 6.36396103067892 -6.36396103067893 -8.72960497353422e-020
vertex 7.49999999999999 -12.9903810567666 0.0
vertex 7.79422863405994 -4.5 -9.68159922358798e-020
endloop
endfacet
facet normal -1.89350633643257e-032 8.51732842357456e-033 1.0
outer loop
vertex 7.79422863405994 -4.5 -9.68159922358798e-020
vertex 7.49999999999999 -12.9903810567666 0.0
vertex 10.6066017177982 -10.6066017177982 0.0
endloop
endfacet
facet normal -1.89350633643257e-032 8.51732842357456e-033 1.0
outer loop
vertex 7.79422863405994 -4.5 -9.68159922358798e-020
vertex 10.6066017177982 -10.6066017177982 0.0
vertex 8.69333243660161 -2.32937140592269 -9.97380848615341e-020
endloop
endfacet
facet normal -1.89350633643257e-032 8.51732842357456e-033 1.0
outer loop
vertex 8.69333243660161 -2.32937140592269 -9.97380848615341e-020
vertex 10.6066017177982 -10.6066017177982 0.0
vertex 9.0 -1.65327317884893e-015 -9.58631918288534e-020
endloop
endfacet
facet normal -1.89350633643257e-032 8.51732842357456e-033 1.0
outer loop
vertex 9.0 -1.65327317884893e-015 -9.58631918288534e-020
vertex 10.6066017177982 -10.6066017177982 0.0
vertex 9.0 23.4 0.0
endloop
endfacet
facet normal -1.89350633643257e-032 8.51732842357456e-033 1.0
outer loop
vertex 9.0 23.4 0.0
vertex 10.6066017177982 -10.6066017177982 0.0
vertex 9.7978140705314 46.1408216558598 -6.10631177830112e-032
endloop
endfacet
facet normal -1.89350633643257e-032 8.51732842357456e-033 1.0
outer loop
vertex 9.7978140705314 46.1408216558598 -6.10631177830112e-032
vertex 10.6066017177982 -10.6066017177982 0.0
vertex 10.5890088538926 48.5803352552966 0.0
endloop
endfacet
facet normal -1.89350633643257e-032 8.51732842357456e-033 1.0
outer loop
vertex 10.5890088538926 48.5803352552966 0.0
vertex 10.5890088538924 54.5803352552966 0.0
vertex 8.58900885389235 51.5803352552966 0.0
endloop
endfacet
facet normal -1.89350633643257e-032 8.51732842357456e-033 1.0
outer loop
vertex 10.5890088538924 54.5803352552966 0.0
vertex 10.5890088538926 48.5803352552966 0.0
vertex 14.0890088538924 54.5803352552966 0.0
endloop
endfacet
facet normal -1.89350633643257e-032 8.51732842357456e-033 1.0
outer loop
vertex 14.0890088538924 54.5803352552966 0.0
vertex 10.5890088538926 48.5803352552966 0.0
vertex 10.6066017177982 -10.6066017177982 0.0
endloop
endfacet
facet normal -1.89350633643257e-032 8.51732842357456e-033 1.0
outer loop
vertex 14.0890088538924 54.5803352552966 0.0
vertex 10.6066017177982 -10.6066017177982 0.0
vertex 12.9903810567666 -7.5 0.0
endloop
endfacet
facet normal -1.89350633643257e-032 8.51732842357456e-033 1.0
outer loop
vertex 14.0890088538924 54.5803352552966 0.0
vertex 12.9903810567666 -7.5 0.0
vertex 14.488887394336 -3.88228567653781 0.0
endloop
endfacet
facet normal -1.89350633643257e-032 8.51732842357456e-033 1.0
outer loop
vertex 14.0890088538924 54.5803352552966 0.0
vertex 14.488887394336 -3.88228567653781 0.0
vertex 15.0 0.0 0.0
endloop
endfacet
facet normal -1.89350633643257e-032 8.51732842357456e-033 1.0
outer loop
vertex -9.0 23.4 0.0
vertex -7.55553552343135 42.0492135806519 -1.4003662229985e-030
vertex -9.35319467544155 43.8783219318025 -1.53910661264892e-030
endloop
endfacet
facet normal -1.89350633643257e-032 8.51732842357456e-033 1.0
outer loop
vertex -7.55553552343135 42.0492135806519 -1.4003662229985e-030
vertex -9.0 23.4 0.0
vertex -8.69333243660162 25.7293714059227 0.0
endloop
endfacet
facet normal -1.89350633643257e-032 8.51732842357456e-033 1.0
outer loop
vertex -7.55553552343135 42.0492135806519 -1.4003662229985e-030
vertex -8.69333243660162 25.7293714059227 0.0
vertex -7.79422863405995 27.9 0.0
endloop
endfacet
facet normal -1.89350633643257e-032 8.51732842357456e-033 1.0
outer loop
vertex -7.55553552343135 42.0492135806519 -1.4003662229985e-030
vertex -7.79422863405995 27.9 0.0
vertex -6.36396103067893 29.7639610306789 0.0
endloop
endfacet
facet normal -1.89350633643257e-032 8.51732842357456e-033 1.0
outer loop
vertex -7.55553552343135 42.0492135806519 -1.4003662229985e-030
vertex -6.36396103067893 29.7639610306789 0.0
vertex -5.39108164328925 40.6735845653309 -1.23331721686435e-030
endloop
endfacet
facet normal -1.89350633643257e-032 8.51732842357456e-033 1.0
outer loop
vertex -5.39108164328925 40.6735845653309 -1.23331721686435e-030
vertex -6.36396103067893 29.7639610306789 0.0
vertex -4.5 31.1942286340599 0.0
endloop
endfacet
facet normal -1.89350633643257e-032 8.51732842357456e-033 1.0
outer loop
vertex -5.39108164328925 40.6735845653309 -1.23331721686435e-030
vertex -4.5 31.1942286340599 0.0
vertex -2.97178131454247 39.8225841503012 -1.04659957914288e-030
endloop
endfacet
facet normal -1.89350633643257e-032 8.51732842357456e-033 1.0
outer loop
vertex -2.97178131454247 39.8225841503012 -1.04659957914288e-030
vertex -4.5 31.1942286340599 0.0
vertex -2.32937140592269 32.0933324366016 0.0
endloop
endfacet
facet normal -1.89350633643257e-032 8.51732842357456e-033 1.0
outer loop
vertex -2.97178131454247 39.8225841503012 -1.04659957914288e-030
vertex -2.32937140592269 32.0933324366016 0.0
vertex -0.422763795868075 39.5402271483584 -8.49870581117223e-031
endloop
endfacet
facet normal -1.89350633643257e-032 8.51732842357456e-033 1.0
outer loop
vertex -0.422763795868075 39.5402271483584 -8.49870581117223e-031
vertex -2.32937140592269 32.0933324366016 0.0
vertex 0.0 32.4 0.0
endloop
endfacet
facet normal -1.89350633643257e-032 8.51732842357456e-033 1.0
outer loop
vertex -0.422763795868075 39.5402271483584 -8.49870581117223e-031
vertex 0.0 32.4 0.0
vertex 2.12413251769194 39.8411174191042 -6.53305294228776e-031
endloop
endfacet
facet normal -1.89350633643257e-032 8.51732842357456e-033 1.0
outer loop
vertex 2.12413251769194 39.8411174191042 -6.53305294228776e-031
vertex 0.0 32.4 0.0
vertex 2.32937140592269 32.0933324366016 0.0
endloop
endfacet
facet normal -1.89350633643257e-032 8.51732842357456e-033 1.0
outer loop
vertex 2.12413251769194 39.8411174191042 -6.53305294228776e-031
vertex 2.32937140592269 32.0933324366016 0.0
vertex 4.53717894249449 40.7096925389429 -4.6707032257284e-031
endloop
endfacet
facet normal -1.89350633643257e-032 8.51732842357456e-033 1.0
outer loop
vertex 4.53717894249449 40.7096925389429 -4.6707032257284e-031
vertex 2.32937140592269 32.0933324366016 0.0
vertex 4.5 31.1942286340599 0.0
endloop
endfacet
facet normal -1.89350633643257e-032 8.51732842357456e-033 1.0
outer loop
vertex 4.53717894249449 40.7096925389429 -4.6707032257284e-031
vertex 4.5 31.1942286340599 0.0
vertex 6.36396103067893 29.7639610306789 0.0
endloop
endfacet
facet normal -1.89350633643257e-032 8.51732842357456e-033 1.0
outer loop
vertex 4.53717894249449 40.7096925389429 -4.6707032257284e-031
vertex 6.36396103067893 29.7639610306789 0.0
vertex 6.6915696796476 42.1010287092209 -3.00797973335983e-031
endloop
endfacet
facet normal -1.89350633643257e-032 8.51732842357456e-033 1.0
outer loop
vertex 6.6915696796476 42.1010287092209 -3.00797973335983e-031
vertex 6.36396103067893 29.7639610306789 0.0
vertex 7.79422863405995 27.9 0.0
endloop
endfacet
facet normal -1.89350633643257e-032 8.51732842357456e-033 1.0
outer loop
vertex 6.6915696796476 42.1010287092209 -3.00797973335983e-031
vertex 7.79422863405995 27.9 0.0
vertex 8.47587692804799 43.9431642716486 -1.63088061742169e-031
endloop
endfacet
facet normal -1.89350633643257e-032 8.51732842357456e-033 1.0
outer loop
vertex 8.47587692804799 43.9431642716486 -1.63088061742169e-031
vertex 7.79422863405995 27.9 0.0
vertex 8.69333243660162 25.7293714059227 0.0
endloop
endfacet
facet normal -1.89350633643257e-032 8.51732842357456e-033 1.0
outer loop
vertex 8.47587692804799 43.9431642716486 -1.63088061742169e-031
vertex 8.69333243660162 25.7293714059227 0.0
vertex 9.7978140705314 46.1408216558598 -6.10631177830112e-032
endloop
endfacet
facet normal -1.89350633643257e-032 8.51732842357456e-033 1.0
outer loop
vertex 9.7978140705314 46.1408216558598 -6.10631177830112e-032
vertex 8.69333243660162 25.7293714059227 0.0
vertex 9.0 23.4 0.0
endloop
endfacet
facet normal -1.89350633643257e-032 8.51732842357456e-033 1.0
outer loop
vertex -9.0 5.51091059616309e-016 9.58631918288534e-020
vertex -8.69333243660162 21.0706285940773 0.0
vertex -9.0 23.4 0.0
endloop
endfacet
facet normal -1.89350633643257e-032 8.51732842357456e-033 1.0
outer loop
vertex -8.69333243660162 21.0706285940773 0.0
vertex -9.0 5.51091059616309e-016 9.58631918288534e-020
vertex -8.69333243660161 2.32937140592269 9.97380848615341e-020
endloop
endfacet
facet normal -1.89350633643257e-032 8.51732842357456e-033 1.0
outer loop
vertex -8.69333243660162 21.0706285940773 0.0
vertex -8.69333243660161 2.32937140592269 9.97380848615341e-020
vertex -7.79422863405995 18.9 0.0
endloop
endfacet
facet normal -1.89350633643257e-032 8.51732842357456e-033 1.0
outer loop
vertex -7.79422863405995 18.9 0.0
vertex -8.69333243660161 2.32937140592269 9.97380848615341e-020
vertex -7.79422863405995 4.5 9.68159922358798e-020
endloop
endfacet
facet normal -1.89350633643257e-032 8.51732842357456e-033 1.0
outer loop
vertex -7.79422863405995 18.9 0.0
vertex -7.79422863405995 4.5 9.68159922358798e-020
vertex -6.36396103067893 17.0360389693211 0.0
endloop
endfacet
facet normal -1.89350633643257e-032 8.51732842357456e-033 1.0
outer loop
vertex -6.36396103067893 17.0360389693211 0.0
vertex -7.79422863405995 4.5 9.68159922358798e-020
vertex -6.36396103067892 6.36396103067893 8.72960497353423e-020
endloop
endfacet
facet normal -1.89350633643257e-032 8.51732842357456e-033 1.0
outer loop
vertex -6.36396103067893 17.0360389693211 0.0
vertex -6.36396103067892 6.36396103067893 8.72960497353423e-020
vertex -4.5 15.6057713659401 0.0
endloop
endfacet
facet normal -1.89350633643257e-032 8.51732842357456e-033 1.0
outer loop
vertex -4.5 15.6057713659401 0.0
vertex -6.36396103067892 6.36396103067893 8.72960497353423e-020
vertex -4.5 7.79422863405995 7.18270257088844e-020
endloop
endfacet
facet normal -1.89350633643257e-032 8.51732842357456e-033 1.0
outer loop
vertex -4.5 15.6057713659401 0.0
vertex -4.5 7.79422863405995 7.18270257088844e-020
vertex -2.32937140592269 14.7066675633984 0.0
endloop
endfacet
facet normal -1.89350633643257e-032 8.51732842357456e-033 1.0
outer loop
vertex -2.32937140592269 14.7066675633984 0.0
vertex -4.5 7.79422863405995 7.18270257088844e-020
vertex -2.32937140592269 8.69333243660161 5.14631085801383e-020
endloop
endfacet
facet normal -1.89350633643257e-032 8.51732842357456e-033 1.0
outer loop
vertex -2.32937140592269 14.7066675633984 0.0
vertex -2.32937140592269 8.69333243660161 5.14631085801383e-020
vertex -1.89893852818128 14.65 0.0
endloop
endfacet
facet normal -1.89350633643257e-032 8.51732842357456e-033 1.0
outer loop
vertex -1.89893852818128 14.65 0.0
vertex -2.32937140592269 8.69333243660161 5.14631085801383e-020
vertex 2.93895942468112e-040 9.0 2.75920656484639e-020
endloop
endfacet
facet normal -1.89350633643257e-032 8.51732842357456e-033 1.0
outer loop
vertex -1.89893852818128 14.65 0.0
vertex 2.93895942468112e-040 9.0 2.75920656484639e-020
vertex -1.10154940724527e-015 14.4 0.0
endloop
endfacet
facet normal -1.89350633643257e-032 8.51732842357456e-033 1.0
outer loop
vertex -1.10154940724527e-015 14.4 0.0
vertex 2.93895942468112e-040 9.0 2.75920656484639e-020
vertex 1.89893852818128 14.65 0.0
endloop
endfacet
facet normal -1.89350633643257e-032 8.51732842357456e-033 1.0
outer loop
vertex 1.89893852818128 14.65 0.0
vertex 2.93895942468112e-040 9.0 2.75920656484639e-020
vertex 2.32937140592269 8.69333243660161 1.840669040891e-021
endloop
endfacet
facet normal -1.89350633643257e-032 8.51732842357456e-033 1.0
outer loop
vertex 1.89893852818128 14.65 0.0
vertex 2.32937140592269 8.69333243660161 1.840669040891e-021
vertex 2.32937140592268 14.7066675633984 0.0
endloop
endfacet
facet normal -1.89350633643257e-032 8.51732842357456e-033 1.0
outer loop
vertex 2.32937140592268 14.7066675633984 0.0
vertex 2.32937140592269 8.69333243660161 1.840669040891e-021
vertex 4.5 15.6057713659401 0.0
endloop
endfacet
facet normal -1.89350633643257e-032 8.51732842357456e-033 1.0
outer loop
vertex 4.5 15.6057713659401 0.0
vertex 2.32937140592269 8.69333243660161 1.840669040891e-021
vertex 4.5 7.79422863405994 -2.40361661199691e-020
endloop
endfacet
facet normal -1.89350633643257e-032 8.51732842357456e-033 1.0
outer loop
vertex 4.5 15.6057713659401 0.0
vertex 4.5 7.79422863405994 -2.40361661199691e-020
vertex 6.36396103067892 17.0360389693211 0.0
endloop
endfacet
facet normal -1.89350633643257e-032 8.51732842357456e-033 1.0
outer loop
vertex 6.36396103067892 17.0360389693211 0.0
vertex 4.5 7.79422863405994 -2.40361661199691e-020
vertex 6.36396103067893 6.36396103067892 -4.82749762813959e-020
endloop
endfacet
facet normal -1.89350633643257e-032 8.51732842357456e-033 1.0
outer loop
vertex 6.36396103067892 17.0360389693211 0.0
vertex 6.36396103067893 6.36396103067892 -4.82749762813959e-020
vertex 7.79422863405995 18.9 0.0
endloop
endfacet
facet normal -1.89350633643257e-032 8.51732842357456e-033 1.0
outer loop
vertex 7.79422863405995 18.9 0.0
vertex 6.36396103067893 6.36396103067892 -4.82749762813959e-020
vertex 7.79422863405995 4.49999999999999 -6.9223926587416e-020
endloop
endfacet
facet normal -1.89350633643257e-032 8.51732842357456e-033 1.0
outer loop
vertex 7.79422863405995 18.9 0.0
vertex 7.79422863405995 4.49999999999999 -6.9223926587416e-020
vertex 8.69333243660161 21.0706285940773 0.0
endloop
endfacet
facet normal -1.89350633643257e-032 8.51732842357456e-033 1.0
outer loop
vertex 8.69333243660161 21.0706285940773 0.0
vertex 7.79422863405995 4.49999999999999 -6.9223926587416e-020
vertex 8.69333243660161 2.32937140592268 -8.54553806944512e-020
endloop
endfacet
facet normal -1.89350633643257e-032 8.51732842357456e-033 1.0
outer loop
vertex 8.69333243660161 21.0706285940773 0.0
vertex 8.69333243660161 2.32937140592268 -8.54553806944512e-020
vertex 9.0 -1.65327317884893e-015 -9.58631918288534e-020
endloop
endfacet
facet normal -1.89350633643257e-032 8.51732842357456e-033 1.0
outer loop
vertex 8.69333243660161 21.0706285940773 0.0
vertex 9.0 -1.65327317884893e-015 -9.58631918288534e-020
vertex 9.0 23.4 0.0
endloop
endfacet
facet normal -1.89350633643257e-032 8.51732842357456e-033 1.0
outer loop
vertex -14.488887394336 -3.88228567653781 0.0
vertex -15.0 54.5 0.0
vertex -15.0 1.65327317884893e-015 0.0
endloop
endfacet
facet normal -1.89350633643257e-032 8.51732842357456e-033 1.0
outer loop
vertex -15.0 54.5 0.0
vertex -14.488887394336 -3.88228567653781 0.0
vertex -11.5 54.5 0.0
endloop
endfacet
facet normal -1.89350633643257e-032 8.51732842357456e-033 1.0
outer loop
vertex -11.5 54.5 0.0
vertex -14.488887394336 -3.88228567653781 0.0
vertex -12.9903810567666 -7.49999999999999 0.0
endloop
endfacet
facet normal -1.89350633643257e-032 8.51732842357456e-033 1.0
outer loop
vertex -11.5 54.5 0.0
vertex -12.9903810567666 -7.49999999999999 0.0
vertex -11.5000000000001 48.5 -1.70479353216299e-030
endloop
endfacet
facet normal -1.89350633643257e-032 8.51732842357456e-033 1.0
outer loop
vertex -11.5 54.5 0.0
vertex -11.5000000000001 48.5 -1.70479353216299e-030
vertex -9.5 51.5 0.0
endloop
endfacet
facet normal 0.832050294337841 -0.554700196225234 -2.20164465742354e-015
outer loop
vertex -11.5000000000001 48.5 -1.70479353216299e-030
vertex -11.5 48.5 15.0
vertex -11.5 48.5 5.0
endloop
endfacet
facet normal 0.832050294337841 -0.554700196225234 -2.20164465742354e-015
outer loop
vertex -11.5 48.5 15.0
vertex -11.5000000000001 48.5 -1.70479353216299e-030
vertex -9.5 51.5 15.0
endloop
endfacet
facet normal 0.832050294337841 -0.554700196225234 -2.20164465742354e-015
outer loop
vertex -9.5 51.5 15.0
vertex -11.5000000000001 48.5 -1.70479353216299e-030
vertex -9.5 51.5 0.0
endloop
endfacet
facet normal 0.948953552754904 0.315415844107181 -5.05003409636868e-015
outer loop
vertex -11.5000000000001 48.5 -1.70479353216299e-030
vertex -10.6910819048921 46.066305832184 5.0
vertex -10.6910819048921 46.066305832184 -1.64236255820162e-030
endloop
endfacet
facet normal 0.948953552754904 0.315415844107181 -5.05003409636868e-015
outer loop
vertex -10.6910819048921 46.066305832184 5.0
vertex -11.5000000000001 48.5 -1.70479353216299e-030
vertex -11.5 48.5 5.0
endloop
endfacet
facet normal 0.853145445756926 0.521673124076961 -3.58514708883385e-017
outer loop
vertex -10.6910819048921 46.066305832184 -1.64236255820162e-030
vertex -9.35319467544155 43.8783219318025 5.0
vertex -9.35319467544155 43.8783219318025 -1.53910661264892e-030
endloop
endfacet
facet normal 0.853145445756926 0.521673124076961 -3.58514708883385e-017
outer loop
vertex -9.35319467544155 43.8783219318025 5.0
vertex -10.6910819048921 46.066305832184 -1.64236255820162e-030
vertex -10.3940328002765 45.5805110325816 5.0
endloop
endfacet
facet normal 0.853145445756926 0.521673124076961 -3.58514708883385e-017
outer loop
vertex -10.3940328002765 45.5805110325816 5.0
vertex -10.6910819048921 46.066305832184 -1.64236255820162e-030
vertex -10.6910819048921 46.066305832184 5.0
endloop
endfacet
facet normal 0.713211582273575 0.70094881333149 7.53449525126199e-033
outer loop
vertex -9.35319467544155 43.8783219318025 -1.53910661264892e-030
vertex -7.55553552343135 42.0492135806519 5.0
vertex -7.55553552343135 42.0492135806519 -1.4003662229985e-030
endloop
endfacet
facet normal 0.713211582273575 0.70094881333149 7.53449525126199e-033
outer loop
vertex -7.55553552343135 42.0492135806519 5.0
vertex -9.35319467544155 43.8783219318025 -1.53910661264892e-030
vertex -9.35319467544155 43.8783219318025 5.0
endloop
endfacet
facet normal 0.536389517887937 0.843970547531101 2.96819517602178e-033
outer loop
vertex -7.55553552343135 42.0492135806519 5.0
vertex -5.39108164328925 40.6735845653309 -1.23331721686435e-030
vertex -7.55553552343135 42.0492135806519 -1.4003662229985e-030
endloop
endfacet
facet normal 0.536389517887937 0.843970547531101 2.96819517602178e-033
outer loop
vertex -5.39108164328925 40.6735845653309 -1.23331721686435e-030
vertex -7.55553552343135 42.0492135806519 5.0
vertex -5.39108164328925 40.6735845653309 5.0
endloop
endfacet
facet normal 0.331824712372582 0.943341062531921 -1.75162369040415e-033
outer loop
vertex -5.39108164328925 40.6735845653309 5.0
vertex -2.97178131454247 39.8225841503012 -1.04659957914288e-030
vertex -5.39108164328925 40.6735845653309 -1.23331721686435e-030
endloop
endfacet
facet normal 0.331824712372582 0.943341062531921 -1.75162369040415e-033
outer loop
vertex -2.97178131454247 39.8225841503012 -1.04659957914288e-030
vertex -5.39108164328925 40.6735845653309 5.0
vertex -2.97178131454247 39.8225841503012 5.0
endloop
endfacet
facet normal 0.110097514996838 0.993920790199864 -6.38084637443105e-033
outer loop
vertex -2.97178131454247 39.8225841503012 5.0
vertex -0.422763795868075 39.5402271483584 -8.49870581117223e-031
vertex -2.97178131454247 39.8225841503012 -1.04659957914288e-030
endloop
endfacet
facet normal 0.110097514996838 0.993920790199864 -6.38084637443105e-033
outer loop
vertex -0.422763795868075 39.5402271483584 -8.49870581117223e-031
vertex -2.97178131454247 39.8225841503012 5.0
vertex -0.422763795868075 39.5402271483584 5.0
endloop
endfacet
facet normal -0.117324064457074 0.993093683344765 -1.06800436510797e-032
outer loop
vertex -0.422763795868075 39.5402271483584 5.0
vertex 2.12413251769194 39.8411174191042 -6.53305294228776e-031
vertex -0.422763795868075 39.5402271483584 -8.49870581117223e-031
endloop
endfacet
facet normal -0.117324064457074 0.993093683344765 -1.06800436510797e-032
outer loop
vertex 2.12413251769194 39.8411174191042 -6.53305294228776e-031
vertex -0.422763795868075 39.5402271483584 5.0
vertex 2.12413251769194 39.8411174191042 5.0
endloop
endfacet
facet normal -0.338677495597178 0.940902520974423 -1.44268556249121e-032
outer loop
vertex 2.12413251769194 39.8411174191042 5.0
vertex 4.53717894249449 40.7096925389429 -4.6707032257284e-031
vertex 2.12413251769194 39.8411174191042 -6.53305294228776e-031
endloop
endfacet
facet normal -0.338677495597178 0.940902520974423 -1.44268556249121e-032
outer loop
vertex 4.53717894249449 40.7096925389429 -4.6707032257284e-031
vertex 2.12413251769194 39.8411174191042 5.0
vertex 4.53717894249449 40.7096925389429 5.0
endloop
endfacet
facet normal -0.542514100301502 0.840046695710454 -1.74274924637536e-032
outer loop
vertex 4.53717894249449 40.7096925389429 5.0
vertex 6.6915696796476 42.1010287092209 -3.00797973335983e-031
vertex 4.53717894249449 40.7096925389429 -4.6707032257284e-031
endloop
endfacet
facet normal -0.542514100301502 0.840046695710454 -1.74274924637536e-032
outer loop
vertex 6.6915696796476 42.1010287092209 -3.00797973335983e-031
vertex 4.53717894249449 40.7096925389429 5.0
vertex 6.6915696796476 42.1010287092209 5.0
endloop
endfacet
facet normal -0.718291192763402 0.69574259780362 -1.95267574527765e-032
outer loop
vertex 8.47587692804799 43.9431642716486 5.0
vertex 6.6915696796476 42.1010287092209 -3.00797973335983e-031
vertex 6.6915696796476 42.1010287092209 5.0
endloop
endfacet
facet normal -0.718291192763402 0.69574259780362 -1.95267574527765e-032
outer loop
vertex 6.6915696796476 42.1010287092209 -3.00797973335983e-031
vertex 8.47587692804799 43.9431642716486 5.0
vertex 8.47587692804799 43.9431642716486 -1.63088061742169e-031
endloop
endfacet
facet normal -0.856917360473718 0.515453816863117 2.99276566770226e-015
outer loop
vertex 9.44710901095312 45.5577912385325 4.99999999999998
vertex 8.47587692804799 43.9431642716486 -1.63088061742169e-031
vertex 8.47587692804799 43.9431642716486 5.0
endloop
endfacet
facet normal -0.856917360473718 0.515453816863117 2.99276566770226e-015
outer loop
vertex 8.47587692804799 43.9431642716486 -1.63088061742169e-031
vertex 9.44710901095312 45.5577912385325 4.99999999999998
vertex 9.7978140705314 46.1408216558598 -6.10631177830112e-032
endloop
endfacet
facet normal -0.856917360473718 0.515453816863117 2.99276566770226e-015
outer loop
vertex 9.7978140705314 46.1408216558598 -6.10631177830112e-032
vertex 9.44710901095312 45.5577912385325 4.99999999999998
vertex 9.7978140705314 46.1408216558598 5.0
endloop
endfacet
facet normal -0.95122268352102 0.308505115605996 0.0
outer loop
vertex 10.5890088538926 48.5803352552966 5.0
vertex 9.7978140705314 46.1408216558598 -6.10631177830112e-032
vertex 9.7978140705314 46.1408216558598 5.0
endloop
endfacet
facet normal -0.95122268352102 0.308505115605996 0.0
outer loop
vertex 9.7978140705314 46.1408216558598 -6.10631177830112e-032
vertex 10.5890088538926 48.5803352552966 5.0
vertex 10.5890088538926 48.5803352552966 0.0
endloop
endfacet
facet normal -0.832050294337824 -0.554700196225259 -6.10341129199933e-015
outer loop
vertex 10.5890088538924 48.5803352552967 15.0
vertex 10.5890088538926 48.5803352552966 0.0
vertex 10.5890088538926 48.5803352552966 5.0
endloop
endfacet
facet normal -0.832050294337824 -0.554700196225259 -6.10341129199933e-015
outer loop
vertex 10.5890088538926 48.5803352552966 0.0
vertex 10.5890088538924 48.5803352552967 15.0
vertex 8.58900885389235 51.5803352552966 0.0
endloop
endfacet
facet normal -0.832050294337824 -0.554700196225259 -6.10341129199933e-015
outer loop
vertex 8.58900885389235 51.5803352552966 0.0
vertex 10.5890088538924 48.5803352552967 15.0
vertex 8.58900885389235 51.5803352552966 15.0
endloop
endfacet
facet normal -0.832050294337843 0.55470019622523 -2.66059777332153e-018
outer loop
vertex 10.5890088538924 54.5803352552966 15.0
vertex 8.58900885389235 51.5803352552966 0.0
vertex 8.58900885389235 51.5803352552966 15.0
endloop
endfacet
facet normal -0.832050294337843 0.55470019622523 -2.66059777332153e-018
outer loop
vertex 8.58900885389235 51.5803352552966 0.0
vertex 10.5890088538924 54.5803352552966 15.0
vertex 10.5890088538924 54.5803352552966 0.0
endloop
endfacet
facet normal -0.0 1.0 -0.0
outer loop
vertex 10.5890088538924 54.5803352552966 15.0
vertex 14.0890088538924 54.5803352552966 0.0
vertex 10.5890088538924 54.5803352552966 0.0
endloop
endfacet
facet normal -0.0 1.0 -0.0
outer loop
vertex 14.0890088538924 54.5803352552966 0.0
vertex 10.5890088538924 54.5803352552966 15.0
vertex 14.0890088538924 54.5803352552966 15.0
endloop
endfacet
facet normal 0.999860737178568 0.0166885064858948 -2.39789643943867e-018
outer loop
vertex 14.0890088538924 54.5803352552966 0.0
vertex 15.0 0.0 15.0
vertex 15.0 0.0 0.0
endloop
endfacet
facet normal 0.999860737178568 0.0166885064858948 -2.39789643943867e-018
outer loop
vertex 15.0 0.0 15.0
vertex 14.0890088538924 54.5803352552966 0.0
vertex 14.0890088538924 54.5803352552966 15.0
endloop
endfacet
facet normal 0.99144486137381 -0.130526192220052 6.32709261054713e-020
outer loop
vertex 15.0 0.0 0.0
vertex 14.488887394336 -3.88228567653781 15.0
vertex 14.488887394336 -3.88228567653781 0.0
endloop
endfacet
facet normal 0.99144486137381 -0.130526192220052 6.32709261054713e-020
outer loop
vertex 14.488887394336 -3.88228567653781 15.0
vertex 15.0 0.0 0.0
vertex 15.0 0.0 15.0
endloop
endfacet
facet normal 0.923879532511287 -0.382683432365089 -3.67105220068886e-018
outer loop
vertex 14.488887394336 -3.88228567653781 0.0
vertex 12.9903810567666 -7.5 15.0
vertex 12.9903810567666 -7.5 0.0
endloop
endfacet
facet normal 0.923879532511287 -0.382683432365089 -3.67105220068886e-018
outer loop
vertex 12.9903810567666 -7.5 15.0
vertex 14.488887394336 -3.88228567653781 0.0
vertex 14.488887394336 -3.88228567653781 15.0
endloop
endfacet
facet normal 0.793353340291235 -0.608761429008721 2.70381991283722e-032
outer loop
vertex 12.9903810567666 -7.5 0.0
vertex 10.6066017177982 -10.6066017177982 15.0
vertex 10.6066017177982 -10.6066017177982 0.0
endloop
endfacet
facet normal 0.793353340291235 -0.608761429008721 2.70381991283722e-032
outer loop
vertex 10.6066017177982 -10.6066017177982 15.0
vertex 12.9903810567666 -7.5 0.0
vertex 12.9903810567666 -7.5 15.0
endloop
endfacet
facet normal 0.60876142900872 -0.793353340291235 0.0
outer loop
vertex 10.6066017177982 -10.6066017177982 15.0
vertex 7.49999999999999 -12.9903810567666 0.0
vertex 10.6066017177982 -10.6066017177982 0.0
endloop
endfacet
facet normal 0.60876142900872 -0.793353340291235 0.0
outer loop
vertex 7.49999999999999 -12.9903810567666 0.0
vertex 10.6066017177982 -10.6066017177982 15.0
vertex 7.49999999999999 -12.9903810567666 15.0
endloop
endfacet
facet normal 0.38268343236509 -0.923879532511287 3.67105220068889e-018
outer loop
vertex 7.49999999999999 -12.9903810567666 15.0
vertex 3.8822856765378 -14.488887394336 0.0
vertex 7.49999999999999 -12.9903810567666 0.0
endloop
endfacet
facet normal 0.38268343236509 -0.923879532511287 3.67105220068889e-018
outer loop
vertex 3.8822856765378 -14.488887394336 0.0
vertex 7.49999999999999 -12.9903810567666 15.0
vertex 3.8822856765378 -14.488887394336 15.0
endloop
endfacet
facet normal 0.130526192220051 -0.99144486137381 -2.44098415614649e-018
outer loop
vertex 3.8822856765378 -14.488887394336 15.0
vertex -5.07579076266045e-015 -15.0 0.0
vertex 3.8822856765378 -14.488887394336 0.0
endloop
endfacet
facet normal 0.130526192220051 -0.99144486137381 -2.44098415614649e-018
outer loop
vertex -5.07579076266045e-015 -15.0 0.0
vertex 3.8822856765378 -14.488887394336 15.0
vertex -5.07579076266045e-015 -15.0 15.0
endloop
endfacet
facet normal -0.130526192220052 -0.99144486137381 -1.18885661502053e-018
outer loop
vertex -5.07579076266045e-015 -15.0 15.0
vertex -3.88228567653781 -14.488887394336 0.0
vertex -5.07579076266045e-015 -15.0 0.0
endloop
endfacet
facet normal -0.130526192220052 -0.99144486137381 -1.18885661502053e-018
outer loop
vertex -3.88228567653781 -14.488887394336 0.0
vertex -5.07579076266045e-015 -15.0 15.0
vertex -3.88228567653781 -14.488887394336 15.0
endloop
endfacet
facet normal -0.38268343236509 -0.923879532511287 3.14866497713334e-032
outer loop
vertex -3.88228567653781 -14.488887394336 15.0
vertex -7.5 -12.9903810567666 0.0
vertex -3.88228567653781 -14.488887394336 0.0
endloop
endfacet
facet normal -0.38268343236509 -0.923879532511287 3.14866497713334e-032
outer loop
vertex -7.5 -12.9903810567666 0.0
vertex -3.88228567653781 -14.488887394336 15.0
vertex -7.5 -12.9903810567666 15.0
endloop
endfacet
facet normal -0.608761429008721 -0.793353340291235 -3.80528823497828e-018
outer loop
vertex -7.5 -12.9903810567666 15.0
vertex -10.6066017177982 -10.6066017177982 0.0
vertex -7.5 -12.9903810567666 0.0
endloop
endfacet
facet normal -0.608761429008721 -0.793353340291235 -3.80528823497828e-018
outer loop
vertex -10.6066017177982 -10.6066017177982 0.0
vertex -7.5 -12.9903810567666 15.0
vertex -10.6066017177982 -10.6066017177982 15.0
endloop
endfacet
facet normal -0.793353340291235 -0.60876142900872 -9.64508895445373e-018
outer loop
vertex -12.9903810567666 -7.49999999999999 15.0
vertex -10.6066017177982 -10.6066017177982 0.0
vertex -10.6066017177982 -10.6066017177982 15.0
endloop
endfacet
facet normal -0.793353340291235 -0.60876142900872 -9.64508895445373e-018
outer loop
vertex -10.6066017177982 -10.6066017177982 0.0
vertex -12.9903810567666 -7.49999999999999 15.0
vertex -12.9903810567666 -7.49999999999999 0.0
endloop
endfacet
facet normal -0.923879532511287 -0.38268343236509 3.67105220068887e-018
outer loop
vertex -14.488887394336 -3.88228567653781 15.0
vertex -12.9903810567666 -7.49999999999999 0.0
vertex -12.9903810567666 -7.49999999999999 15.0
endloop
endfacet
facet normal -0.923879532511287 -0.38268343236509 3.67105220068887e-018
outer loop
vertex -12.9903810567666 -7.49999999999999 0.0
vertex -14.488887394336 -3.88228567653781 15.0
vertex -14.488887394336 -3.88228567653781 0.0
endloop
endfacet
facet normal -0.99144486137381 -0.130526192220052 -2.44098415614647e-018
outer loop
vertex -15.0 1.65327317884893e-015 15.0
vertex -14.488887394336 -3.88228567653781 0.0
vertex -14.488887394336 -3.88228567653781 15.0
endloop
endfacet
facet normal -0.99144486137381 -0.130526192220052 -2.44098415614647e-018
outer loop
vertex -14.488887394336 -3.88228567653781 0.0
vertex -15.0 1.65327317884893e-015 15.0
vertex -15.0 1.65327317884893e-015 0.0
endloop
endfacet
facet normal -1.0 0.0 0.0
outer loop
vertex -15.0 54.5 15.0
vertex -15.0 1.65327317884893e-015 0.0
vertex -15.0 1.65327317884893e-015 15.0
endloop
endfacet
facet normal -1.0 0.0 0.0
outer loop
vertex -15.0 1.65327317884893e-015 0.0
vertex -15.0 54.5 15.0
vertex -15.0 54.5 0.0
endloop
endfacet
facet normal -0.0 1.0 -0.0
outer loop
vertex -15.0 54.5 15.0
vertex -11.5 54.5 0.0
vertex -15.0 54.5 0.0
endloop
endfacet
facet normal -0.0 1.0 -0.0
outer loop
vertex -11.5 54.5 0.0
vertex -15.0 54.5 15.0
vertex -11.5 54.5 15.0
endloop
endfacet
facet normal 0.832050294337843 0.55470019622523 2.6605977733215e-018
outer loop
vertex -11.5 54.5 0.0
vertex -9.5 51.5 15.0
vertex -9.5 51.5 0.0
endloop
endfacet
facet normal 0.832050294337843 0.55470019622523 2.6605977733215e-018
outer loop
vertex -9.5 51.5 15.0
vertex -11.5 54.5 0.0
vertex -11.5 54.5 15.0
endloop
endfacet
facet normal -0.793353340291237 -0.608761429008718 -9.83717474624222e-033
outer loop
vertex 6.36396103067893 29.7639610306789 5.0
vertex 7.79422863405995 27.9 0.0
vertex 7.79422863405995 27.9 5.0
endloop
endfacet
facet normal -0.793353340291237 -0.608761429008718 -9.83717474624222e-033
outer loop
vertex 7.79422863405995 27.9 0.0
vertex 6.36396103067893 29.7639610306789 5.0
vertex 6.36396103067893 29.7639610306789 0.0
endloop
endfacet
facet normal -0.60876142900872 -0.793353340291236 -4.76968527683722e-033
outer loop
vertex 6.36396103067893 29.7639610306789 5.0
vertex 4.5 31.1942286340599 0.0
vertex 6.36396103067893 29.7639610306789 0.0
endloop
endfacet
facet normal -0.60876142900872 -0.793353340291236 -4.76968527683722e-033
outer loop
vertex 4.5 31.1942286340599 0.0
vertex 6.36396103067893 29.7639610306789 5.0
vertex 4.5 31.1942286340599 5.0
endloop
endfacet
facet normal -0.382683432365091 -0.923879532511286 6.22850361906505e-034
outer loop
vertex 4.5 31.1942286340599 5.0
vertex 2.32937140592269 32.0933324366016 0.0
vertex 4.5 31.1942286340599 0.0
endloop
endfacet
facet normal -0.382683432365091 -0.923879532511286 6.22850361906505e-034
outer loop
vertex 2.32937140592269 32.0933324366016 0.0
vertex 4.5 31.1942286340599 5.0
vertex 2.32937140592269 32.0933324366016 5.0
endloop
endfacet
facet normal -0.130526192220054 -0.99144486137381 5.97293977779521e-033
outer loop
vertex 2.32937140592269 32.0933324366016 5.0
vertex 0.0 32.4 0.0
vertex 2.32937140592269 32.0933324366016 0.0
endloop
endfacet
facet normal -0.130526192220054 -0.99144486137381 5.97293977779521e-033
outer loop
vertex 0.0 32.4 0.0
vertex 2.32937140592269 32.0933324366016 5.0
vertex -9.46753168216286e-032 32.4 5.0
endloop
endfacet
facet normal 0.130526192220054 -0.99144486137381 1.0915983218577e-032
outer loop
vertex -9.46753168216286e-032 32.4 5.0
vertex -2.32937140592269 32.0933324366016 0.0
vertex 0.0 32.4 0.0
endloop
endfacet
facet normal 0.130526192220054 -0.99144486137381 1.0915983218577e-032
outer loop
vertex -2.32937140592269 32.0933324366016 0.0
vertex -9.46753168216286e-032 32.4 5.0
vertex -2.32937140592269 32.0933324366016 5.0
endloop
endfacet
facet normal 0.38268343236509 -0.923879532511287 1.51151204425278e-032
outer loop
vertex -2.32937140592269 32.0933324366016 5.0
vertex -4.5 31.1942286340599 0.0
vertex -2.32937140592269 32.0933324366016 0.0
endloop
endfacet
facet normal 0.38268343236509 -0.923879532511287 1.51151204425278e-032
outer loop
vertex -4.5 31.1942286340599 0.0
vertex -2.32937140592269 32.0933324366016 5.0
vertex -4.5 31.1942286340599 5.0
endloop
endfacet
facet normal 0.608761429008719 -0.793353340291237 1.82841871872379e-032
outer loop
vertex -4.5 31.1942286340599 5.0
vertex -6.36396103067893 29.7639610306789 0.0
vertex -4.5 31.1942286340599 0.0
endloop
endfacet
facet normal 0.608761429008719 -0.793353340291237 1.82841871872379e-032
outer loop
vertex -6.36396103067893 29.7639610306789 0.0
vertex -4.5 31.1942286340599 5.0
vertex -6.36396103067893 29.7639610306789 5.0
endloop
endfacet
facet normal 0.793353340291235 -0.60876142900872 2.02072167911858e-032
outer loop
vertex -6.36396103067893 29.7639610306789 0.0
vertex -7.79422863405995 27.9 5.0
vertex -7.79422863405995 27.9 0.0
endloop
endfacet
facet normal 0.793353340291235 -0.60876142900872 2.02072167911858e-032
outer loop
vertex -7.79422863405995 27.9 5.0
vertex -6.36396103067893 29.7639610306789 0.0
vertex -6.36396103067893 29.7639610306789 5.0
endloop
endfacet
facet normal 0.923879532511287 -0.382683432365089 2.07531579648191e-032
outer loop
vertex -7.79422863405995 27.9 0.0
vertex -8.69333243660162 25.7293714059227 5.0
vertex -8.69333243660162 25.7293714059227 0.0
endloop
endfacet
facet normal 0.923879532511287 -0.382683432365089 2.07531579648191e-032
outer loop
vertex -8.69333243660162 25.7293714059227 5.0
vertex -7.79422863405995 27.9 0.0
vertex -7.79422863405995 27.9 5.0
endloop
endfacet
facet normal 0.99144486137381 -0.130526192220052 1.9884805719365e-032
outer loop
vertex -8.69333243660162 25.7293714059227 0.0
vertex -9.0 23.4 5.0
vertex -9.0 23.4 0.0
endloop
endfacet
facet normal 0.99144486137381 -0.130526192220052 1.9884805719365e-032
outer loop
vertex -9.0 23.4 5.0
vertex -8.69333243660162 25.7293714059227 0.0
vertex -8.69333243660162 25.7293714059227 5.0
endloop
endfacet
facet normal 0.99144486137381 0.130526192220052 1.76613368253314e-032
outer loop
vertex -9.0 23.4 0.0
vertex -8.69333243660162 21.0706285940773 5.0
vertex -8.69333243660162 21.0706285940773 0.0
endloop
endfacet
facet normal 0.99144486137381 0.130526192220052 1.76613368253314e-032
outer loop
vertex -8.69333243660162 21.0706285940773 5.0
vertex -9.0 23.4 0.0
vertex -9.0 23.4 5.0
endloop
endfacet
facet normal 0.923879532511287 0.38268343236509 1.42342770133906e-032
outer loop
vertex -8.69333243660162 21.0706285940773 0.0
vertex -7.79422863405995 18.9 5.0
vertex -7.79422863405995 18.9 0.0
endloop
endfacet
facet normal 0.923879532511287 0.38268343236509 1.42342770133906e-032
outer loop
vertex -7.79422863405995 18.9 5.0
vertex -8.69333243660162 21.0706285940773 0.0
vertex -8.69333243660162 21.0706285940773 5.0
endloop
endfacet
facet normal 0.793353340291235 0.60876142900872 9.83717474624217e-033
outer loop
vertex -7.79422863405995 18.9 0.0
vertex -6.36396103067893 17.0360389693211 5.0
vertex -6.36396103067893 17.0360389693211 0.0
endloop
endfacet
facet normal 0.793353340291235 0.60876142900872 9.83717474624217e-033
outer loop
vertex -6.36396103067893 17.0360389693211 5.0
vertex -7.79422863405995 18.9 0.0
vertex -7.79422863405995 18.9 5.0
endloop
endfacet
facet normal 0.608761429008721 0.793353340291235 4.76968527683726e-033
outer loop
vertex -6.36396103067893 17.0360389693211 5.0
vertex -4.5 15.6057713659401 0.0
vertex -6.36396103067893 17.0360389693211 0.0
endloop
endfacet
facet normal 0.608761429008721 0.793353340291235 4.76968527683726e-033
outer loop
vertex -4.5 15.6057713659401 0.0
vertex -6.36396103067893 17.0360389693211 5.0
vertex -4.5 15.6057713659401 5.0
endloop
endfacet
facet normal 0.38268343236509 0.923879532511287 -6.22850361906517e-034
outer loop
vertex -4.5 15.6057713659401 5.0
vertex -2.32937140592269 14.7066675633984 0.0
vertex -4.5 15.6057713659401 0.0
endloop
endfacet
facet normal 0.38268343236509 0.923879532511287 -6.22850361906517e-034
outer loop
vertex -2.32937140592269 14.7066675633984 0.0
vertex -4.5 15.6057713659401 5.0
vertex -2.32937140592269 14.7066675633984 5.0
endloop
endfacet
facet normal 0.130526192220051 0.99144486137381 -5.97293977779527e-033
outer loop
vertex -2.32937140592269 14.7066675633984 5.0
vertex -1.89893852818128 14.65 0.0
vertex -2.32937140592269 14.7066675633984 0.0
endloop
endfacet
facet normal 0.130526192220051 0.99144486137381 -5.97293977779527e-033
outer loop
vertex -1.89893852818128 14.65 0.0
vertex -2.32937140592269 14.7066675633984 5.0
vertex -1.89893852818128 14.65 5.0
endloop
endfacet
facet normal 0.130526192220052 0.99144486137381 -5.97293977779525e-033
outer loop
vertex -1.89893852818128 14.65 5.0
vertex -1.10154940724527e-015 14.4 0.0
vertex -1.89893852818128 14.65 0.0
endloop
endfacet
facet normal 0.130526192220052 0.99144486137381 -5.97293977779525e-033
outer loop
vertex -1.10154940724527e-015 14.4 0.0
vertex -1.89893852818128 14.65 5.0
vertex -1.10154940724527e-015 14.4 5.0
endloop
endfacet
facet normal -0.130526192220052 0.99144486137381 -1.09159832185769e-032
outer loop
vertex -1.10154940724527e-015 14.4 5.0
vertex 1.89893852818128 14.65 0.0
vertex -1.10154940724527e-015 14.4 0.0
endloop
endfacet
facet normal -0.130526192220052 0.99144486137381 -1.09159832185769e-032
outer loop
vertex 1.89893852818128 14.65 0.0
vertex -1.10154940724527e-015 14.4 5.0
vertex 1.89893852818128 14.65 5.0
endloop
endfacet
facet normal -0.130526192220053 0.99144486137381 -1.09159832185769e-032
outer loop
vertex 1.89893852818128 14.65 5.0
vertex 2.32937140592268 14.7066675633984 0.0
vertex 1.89893852818128 14.65 0.0
endloop
endfacet
facet normal -0.130526192220053 0.99144486137381 -1.09159832185769e-032
outer loop
vertex 2.32937140592268 14.7066675633984 0.0
vertex 1.89893852818128 14.65 5.0
vertex 2.32937140592268 14.7066675633984 5.0
endloop
endfacet
facet normal -0.382683432365089 0.923879532511287 -1.51151204425278e-032
outer loop
vertex 2.32937140592268 14.7066675633984 5.0
vertex 4.5 15.6057713659401 0.0
vertex 2.32937140592268 14.7066675633984 0.0
endloop
endfacet
facet normal -0.382683432365089 0.923879532511287 -1.51151204425278e-032
outer loop
vertex 4.5 15.6057713659401 0.0
vertex 2.32937140592268 14.7066675633984 5.0
vertex 4.5 15.6057713659401 5.0
endloop
endfacet
facet normal -0.60876142900872 0.793353340291236 -1.8284187187238e-032
outer loop
vertex 4.5 15.6057713659401 5.0
vertex 6.36396103067892 17.0360389693211 0.0
vertex 4.5 15.6057713659401 0.0
endloop
endfacet
facet normal -0.60876142900872 0.793353340291236 -1.8284187187238e-032
outer loop
vertex 6.36396103067892 17.0360389693211 0.0
vertex 4.5 15.6057713659401 5.0
vertex 6.36396103067892 17.0360389693211 5.0
endloop
endfacet
facet normal -0.793353340291235 0.608761429008721 -2.02072167911858e-032
outer loop
vertex 7.79422863405995 18.9 5.0
vertex 6.36396103067892 17.0360389693211 0.0
vertex 6.36396103067892 17.0360389693211 5.0
endloop
endfacet
facet normal -0.793353340291235 0.608761429008721 -2.02072167911858e-032
outer loop
vertex 6.36396103067892 17.0360389693211 0.0
vertex 7.79422863405995 18.9 5.0
vertex 7.79422863405995 18.9 0.0
endloop
endfacet
facet normal -0.923879532511287 0.382683432365091 -2.07531579648191e-032
outer loop
vertex 8.69333243660161 21.0706285940773 5.0
vertex 7.79422863405995 18.9 0.0
vertex 7.79422863405995 18.9 5.0
endloop
endfacet
facet normal -0.923879532511287 0.382683432365091 -2.07531579648191e-032
outer loop
vertex 7.79422863405995 18.9 0.0
vertex 8.69333243660161 21.0706285940773 5.0
vertex 8.69333243660161 21.0706285940773 0.0
endloop
endfacet
facet normal -0.99144486137381 0.130526192220052 -1.9884805719365e-032
outer loop
vertex 9.0 23.4 5.0
vertex 8.69333243660161 21.0706285940773 0.0
vertex 8.69333243660161 21.0706285940773 5.0
endloop
endfacet
facet normal -0.99144486137381 0.130526192220052 -1.9884805719365e-032
outer loop
vertex 8.69333243660161 21.0706285940773 0.0
vertex 9.0 23.4 5.0
vertex 9.0 23.4 0.0
endloop
endfacet
facet normal -0.99144486137381 -0.130526192220051 -1.76613368253314e-032
outer loop
vertex 8.69333243660162 25.7293714059227 5.0
vertex 9.0 23.4 0.0
vertex 9.0 23.4 5.0
endloop
endfacet
facet normal -0.99144486137381 -0.130526192220051 -1.76613368253314e-032
outer loop
vertex 9.0 23.4 0.0
vertex 8.69333243660162 25.7293714059227 5.0
vertex 8.69333243660162 25.7293714059227 0.0
endloop
endfacet
facet normal -0.923879532511287 -0.382683432365091 -1.42342770133906e-032
outer loop
vertex 7.79422863405995 27.9 5.0
vertex 8.69333243660162 25.7293714059227 0.0
vertex 8.69333243660162 25.7293714059227 5.0
endloop
endfacet
facet normal -0.923879532511287 -0.382683432365091 -1.42342770133906e-032
outer loop
vertex 8.69333243660162 25.7293714059227 0.0
vertex 7.79422863405995 27.9 5.0
vertex 7.79422863405995 27.9 0.0
endloop
endfacet
facet normal -0.793353340291236 -0.60876142900872 -9.83717474624217e-033
outer loop
vertex 6.36396103067893 6.36396103067892 5.0
vertex 7.79422863405995 4.49999999999999 -6.9223926587416e-020
vertex 7.79422863405995 4.49999999999999 5.0
endloop
endfacet
facet normal -0.793353340291236 -0.60876142900872 -9.83717474624217e-033
outer loop
vertex 7.79422863405995 4.49999999999999 -6.9223926587416e-020
vertex 6.36396103067893 6.36396103067892 5.0
vertex 6.36396103067893 6.36396103067892 -4.82749762813959e-020
endloop
endfacet
facet normal -0.608761429008721 -0.793353340291235 -4.76968527683725e-033
outer loop
vertex 6.36396103067893 6.36396103067892 5.0
vertex 4.5 7.79422863405994 -2.40361661199691e-020
vertex 6.36396103067893 6.36396103067892 -4.82749762813959e-020
endloop
endfacet
facet normal -0.608761429008721 -0.793353340291235 -4.76968527683725e-033
outer loop
vertex 4.5 7.79422863405994 -2.40361661199691e-020
vertex 6.36396103067893 6.36396103067892 5.0
vertex 4.5 7.79422863405994 5.0
endloop
endfacet
facet normal -0.382683432365091 -0.923879532511287 6.22850361906503e-034
outer loop
vertex 4.5 7.79422863405994 5.0
vertex 2.32937140592269 8.69333243660161 1.840669040891e-021
vertex 4.5 7.79422863405994 -2.40361661199691e-020
endloop
endfacet
facet normal -0.382683432365091 -0.923879532511287 6.22850361906503e-034
outer loop
vertex 2.32937140592269 8.69333243660161 1.840669040891e-021
vertex 4.5 7.79422863405994 5.0
vertex 2.32937140592269 8.69333243660161 5.0
endloop
endfacet
facet normal -0.130526192220052 -0.99144486137381 5.97293977779525e-033
outer loop
vertex 2.32937140592269 8.69333243660161 5.0
vertex 2.93895942468112e-040 9.0 2.75920656484639e-020
vertex 2.32937140592269 8.69333243660161 1.840669040891e-021
endloop
endfacet
facet normal -0.130526192220052 -0.99144486137381 5.97293977779525e-033
outer loop
vertex 2.93895942468112e-040 9.0 2.75920656484639e-020
vertex 2.32937140592269 8.69333243660161 5.0
vertex -9.46753165277327e-032 9.0 5.0
endloop
endfacet
facet normal 0.130526192220052 -0.99144486137381 1.09159832185769e-032
outer loop
vertex -9.46753165277327e-032 9.0 5.0
vertex -2.32937140592269 8.69333243660161 5.14631085801383e-020
vertex 2.93895942468112e-040 9.0 2.75920656484639e-020
endloop
endfacet
facet normal 0.130526192220052 -0.99144486137381 1.09159832185769e-032
outer loop
vertex -2.32937140592269 8.69333243660161 5.14631085801383e-020
vertex -9.46753165277327e-032 9.0 5.0
vertex -2.32937140592269 8.69333243660161 5.0
endloop
endfacet
facet normal 0.382683432365089 -0.923879532511287 1.51151204425278e-032
outer loop
vertex -2.32937140592269 8.69333243660161 5.0
vertex -4.5 7.79422863405995 7.18270257088844e-020
vertex -2.32937140592269 8.69333243660161 5.14631085801383e-020
endloop
endfacet
facet normal 0.382683432365089 -0.923879532511287 1.51151204425278e-032
outer loop
vertex -4.5 7.79422863405995 7.18270257088844e-020
vertex -2.32937140592269 8.69333243660161 5.0
vertex -4.5 7.79422863405995 5.0
endloop
endfacet
facet normal 0.608761429008721 -0.793353340291235 1.8284187187238e-032
outer loop
vertex -4.5 7.79422863405995 5.0
vertex -6.36396103067892 6.36396103067893 8.72960497353423e-020
vertex -4.5 7.79422863405995 7.18270257088844e-020
endloop
endfacet
facet normal 0.608761429008721 -0.793353340291235 1.8284187187238e-032
outer loop
vertex -6.36396103067892 6.36396103067893 8.72960497353423e-020
vertex -4.5 7.79422863405995 5.0
vertex -6.36396103067892 6.36396103067893 5.0
endloop
endfacet
facet normal 0.793353340291235 -0.608761429008721 2.02072167911858e-032
outer loop
vertex -6.36396103067892 6.36396103067893 8.72960497353423e-020
vertex -7.79422863405995 4.5 5.0
vertex -7.79422863405995 4.5 9.68159922358798e-020
endloop
endfacet
facet normal 0.793353340291235 -0.608761429008721 2.02072167911858e-032
outer loop
vertex -7.79422863405995 4.5 5.0
vertex -6.36396103067892 6.36396103067893 8.72960497353423e-020
vertex -6.36396103067892 6.36396103067893 5.0
endloop
endfacet
facet normal 0.923879532511287 -0.38268343236509 2.07531579648191e-032
outer loop
vertex -7.79422863405995 4.5 9.68159922358798e-020
vertex -8.69333243660161 2.32937140592269 5.0
vertex -8.69333243660161 2.32937140592269 9.97380848615341e-020
endloop
endfacet
facet normal 0.923879532511287 -0.38268343236509 2.07531579648191e-032
outer loop
vertex -8.69333243660161 2.32937140592269 5.0
vertex -7.79422863405995 4.5 9.68159922358798e-020
vertex -7.79422863405995 4.5 5.0
endloop
endfacet
facet normal 0.99144486137381 -0.130526192220052 1.9884805719365e-032
outer loop
vertex -8.69333243660161 2.32937140592269 9.97380848615341e-020
vertex -9.0 5.51091059616309e-016 5.0
vertex -9.0 5.51091059616309e-016 9.58631918288534e-020
endloop
endfacet
facet normal 0.99144486137381 -0.130526192220052 1.9884805719365e-032
outer loop
vertex -9.0 5.51091059616309e-016 5.0
vertex -8.69333243660161 2.32937140592269 9.97380848615341e-020
vertex -8.69333243660161 2.32937140592269 5.0
endloop
endfacet
facet normal 0.99144486137381 0.130526192220052 1.76613368253314e-032
outer loop
vertex -9.0 5.51091059616309e-016 9.58631918288534e-020
vertex -8.69333243660161 -2.32937140592269 5.0
vertex -8.69333243660161 -2.32937140592269 8.54553806944512e-020
endloop
endfacet
facet normal 0.99144486137381 0.130526192220052 1.76613368253314e-032
outer loop
vertex -8.69333243660161 -2.32937140592269 5.0
vertex -9.0 5.51091059616309e-016 9.58631918288534e-020
vertex -9.0 5.51091059616309e-016 5.0
endloop
endfacet
facet normal 0.923879532511287 0.382683432365089 1.42342770133906e-032
outer loop
vertex -8.69333243660161 -2.32937140592269 8.54553806944512e-020
vertex -7.79422863405995 -4.5 5.0
vertex -7.79422863405995 -4.5 6.92239265874159e-020
endloop
endfacet
facet normal 0.923879532511287 0.382683432365089 1.42342770133906e-032
outer loop
vertex -7.79422863405995 -4.5 5.0
vertex -8.69333243660161 -2.32937140592269 8.54553806944512e-020
vertex -8.69333243660161 -2.32937140592269 5.0
endloop
endfacet
facet normal 0.793353340291235 0.608761429008721 9.83717474624217e-033
outer loop
vertex -7.79422863405995 -4.5 6.92239265874159e-020
vertex -6.36396103067893 -6.36396103067892 5.0
vertex -6.36396103067893 -6.36396103067892 4.82749762813959e-020
endloop
endfacet
facet normal 0.793353340291235 0.608761429008721 9.83717474624217e-033
outer loop
vertex -6.36396103067893 -6.36396103067892 5.0
vertex -7.79422863405995 -4.5 6.92239265874159e-020
vertex -7.79422863405995 -4.5 5.0
endloop
endfacet
facet normal 0.608761429008721 0.793353340291235 4.76968527683725e-033
outer loop
vertex -6.36396103067893 -6.36396103067892 4.82749762813959e-020
vertex -4.5 -7.79422863405994 5.0
vertex -4.5 -7.79422863405994 2.40361661199691e-020
endloop
endfacet
facet normal 0.608761429008721 0.793353340291235 4.76968527683725e-033
outer loop
vertex -4.5 -7.79422863405994 5.0
vertex -6.36396103067893 -6.36396103067892 4.82749762813959e-020
vertex -6.36396103067893 -6.36396103067892 5.0
endloop
endfacet
facet normal 0.38268343236509 0.923879532511287 -6.22850361906515e-034
outer loop
vertex -4.5 -7.79422863405994 2.40361661199691e-020
vertex -2.32937140592269 -8.69333243660161 5.0
vertex -2.32937140592269 -8.69333243660161 -1.84066904089105e-021
endloop
endfacet
facet normal 0.38268343236509 0.923879532511287 -6.22850361906515e-034
outer loop
vertex -2.32937140592269 -8.69333243660161 5.0
vertex -4.5 -7.79422863405994 2.40361661199691e-020
vertex -4.5 -7.79422863405994 5.0
endloop
endfacet
facet normal 0.130526192220052 0.99144486137381 -0.0
outer loop
vertex -2.32937140592269 -8.69333243660161 -1.84066904089105e-021
vertex -1.10218211923262e-015 -9.0 5.0
vertex -1.10218211923262e-015 -9.0 -2.75920656484639e-020
endloop
endfacet
facet normal 0.130526192220052 0.99144486137381 -0.0
outer loop
vertex -1.10218211923262e-015 -9.0 5.0
vertex -2.32937140592269 -8.69333243660161 -1.84066904089105e-021
vertex -2.32937140592269 -8.69333243660161 5.0
endloop
endfacet
facet normal -0.130526192220051 0.99144486137381 -0.0
outer loop
vertex -1.10218211923262e-015 -9.0 -2.75920656484639e-020
vertex 2.32937140592268 -8.69333243660161 5.0
vertex 2.32937140592268 -8.69333243660161 -5.14631085801382e-020
endloop
endfacet
facet normal -0.130526192220051 0.99144486137381 -0.0
outer loop
vertex 2.32937140592268 -8.69333243660161 5.0
vertex -1.10218211923262e-015 -9.0 -2.75920656484639e-020
vertex -1.10218211923262e-015 -9.0 5.0
endloop
endfacet
facet normal -0.38268343236509 0.923879532511287 -1.51151204425278e-032
outer loop
vertex 2.32937140592268 -8.69333243660161 -5.14631085801382e-020
vertex 4.5 -7.79422863405995 5.0
vertex 4.5 -7.79422863405995 -7.18270257088843e-020
endloop
endfacet
facet normal -0.38268343236509 0.923879532511287 -1.51151204425278e-032
outer loop
vertex 4.5 -7.79422863405995 5.0
vertex 2.32937140592268 -8.69333243660161 -5.14631085801382e-020
vertex 2.32937140592268 -8.69333243660161 5.0
endloop
endfacet
facet normal -0.60876142900872 0.793353340291236 -1.8284187187238e-032
outer loop
vertex 4.5 -7.79422863405995 -7.18270257088843e-020
vertex 6.36396103067892 -6.36396103067893 5.0
vertex 6.36396103067892 -6.36396103067893 -8.72960497353422e-020
endloop
endfacet
facet normal -0.60876142900872 0.793353340291236 -1.8284187187238e-032
outer loop
vertex 6.36396103067892 -6.36396103067893 5.0
vertex 4.5 -7.79422863405995 -7.18270257088843e-020
vertex 4.5 -7.79422863405995 5.0
endloop
endfacet
facet normal -0.793353340291235 0.608761429008721 -2.02072167911858e-032
outer loop
vertex 7.79422863405994 -4.5 5.0
vertex 6.36396103067892 -6.36396103067893 -8.72960497353422e-020
vertex 6.36396103067892 -6.36396103067893 5.0
endloop
endfacet
facet normal -0.793353340291235 0.608761429008721 -2.02072167911858e-032
outer loop
vertex 6.36396103067892 -6.36396103067893 -8.72960497353422e-020
vertex 7.79422863405994 -4.5 5.0
vertex 7.79422863405994 -4.5 -9.68159922358798e-020
endloop
endfacet
facet normal -0.923879532511286 0.382683432365091 -2.07531579648191e-032
outer loop
vertex 8.69333243660161 -2.32937140592269 5.0
vertex 7.79422863405994 -4.5 -9.68159922358798e-020
vertex 7.79422863405994 -4.5 5.0
endloop
endfacet
facet normal -0.923879532511286 0.382683432365091 -2.07531579648191e-032
outer loop
vertex 7.79422863405994 -4.5 -9.68159922358798e-020
vertex 8.69333243660161 -2.32937140592269 5.0
vertex 8.69333243660161 -2.32937140592269 -9.97380848615341e-020
endloop
endfacet
facet normal -0.99144486137381 0.130526192220052 -1.9884805719365e-032
outer loop
vertex 9.0 -1.65327317884893e-015 5.0
vertex 8.69333243660161 -2.32937140592269 -9.97380848615341e-020
vertex 8.69333243660161 -2.32937140592269 5.0
endloop
endfacet
facet normal -0.99144486137381 0.130526192220052 -1.9884805719365e-032
outer loop
vertex 8.69333243660161 -2.32937140592269 -9.97380848615341e-020
vertex 9.0 -1.65327317884893e-015 5.0
vertex 9.0 -1.65327317884893e-015 -9.58631918288534e-020
endloop
endfacet
facet normal -0.99144486137381 -0.130526192220051 -1.76613368253314e-032
outer loop
vertex 8.69333243660161 2.32937140592268 5.0
vertex 9.0 -1.65327317884893e-015 -9.58631918288534e-020
vertex 9.0 -1.65327317884893e-015 5.0
endloop
endfacet
facet normal -0.99144486137381 -0.130526192220051 -1.76613368253314e-032
outer loop
vertex 9.0 -1.65327317884893e-015 -9.58631918288534e-020
vertex 8.69333243660161 2.32937140592268 5.0
vertex 8.69333243660161 2.32937140592268 -8.54553806944512e-020
endloop
endfacet
facet normal -0.923879532511287 -0.382683432365089 -1.42342770133906e-032
outer loop
vertex 7.79422863405995 4.49999999999999 5.0
vertex 8.69333243660161 2.32937140592268 -8.54553806944512e-020
vertex 8.69333243660161 2.32937140592268 5.0
endloop
endfacet
facet normal -0.923879532511287 -0.382683432365089 -1.42342770133906e-032
outer loop
vertex 8.69333243660161 2.32937140592268 -8.54553806944512e-020
vertex 7.79422863405995 4.49999999999999 5.0
vertex 7.79422863405995 4.49999999999999 -6.9223926587416e-020
endloop
endfacet
facet normal -2.12544461777349e-016 -2.49693781909743e-016 1.0
outer loop
vertex -11.5 45.5805110325816 5.0
vertex -10.6910819048921 46.066305832184 5.0
vertex -11.5 48.5 5.0
endloop
endfacet
facet normal -2.12544461777349e-016 -2.49693781909743e-016 1.0
outer loop
vertex -10.6910819048921 46.066305832184 5.0
vertex -11.5 45.5805110325816 5.0
vertex -10.3940328002765 45.5805110325816 5.0
endloop
endfacet
facet normal -0.999980469189276 -0.00624989919881851 -1.48502721088149e-014
outer loop
vertex 10.5890088538924 48.5803352552967 15.0
vertex 10.6077578190811 45.5805110325933 5.0
vertex 10.6077578190811 45.5805110325816 15.0
endloop
endfacet
facet normal -0.999980469189276 -0.00624989919881851 -1.48502721088149e-014
outer loop
vertex 10.6077578190811 45.5805110325933 5.0
vertex 10.5890088538924 48.5803352552967 15.0
vertex 10.5890088538926 48.5803352552966 5.0
endloop
endfacet
facet normal -0.99980846315178 -0.0195713313311905 -1.14256922652127e-014
outer loop
vertex 9.44710901095312 45.5577912385208 15.0
vertex 10.3393511918721 -0.0227197940607701 4.99999999999998
vertex 10.3393511918721 -0.0227197940607701 15.0
endloop
endfacet
facet normal -0.99980846315178 -0.0195713313311905 -1.14256922652127e-014
outer loop
vertex 10.3393511918721 -0.0227197940607701 4.99999999999998
vertex 9.44710901095312 45.5577912385208 15.0
vertex 9.44710901095312 45.5577912385325 4.99999999999998
endloop
endfacet
facet normal -0.0195713313311737 0.999808463151781 1.16780623857487e-012
outer loop
vertex 9.44710901095312 45.5577912385208 15.0
vertex 10.6077578190811 45.5805110325933 5.0
vertex 9.44710901095312 45.5577912385325 4.99999999999998
endloop
endfacet
facet normal -0.0195713313311737 0.999808463151781 1.16780623857487e-012
outer loop
vertex 10.6077578190811 45.5805110325933 5.0
vertex 9.44710901095312 45.5577912385208 15.0
vertex 10.6077578190811 45.5805110325816 15.0
endloop
endfacet
facet normal 0.0195713313311905 -0.99980846315178 0.0
outer loop
vertex 11.5 0.0 5.0
vertex 10.3393511918721 -0.0227197940607701 15.0
vertex 10.3393511918721 -0.0227197940607701 4.99999999999998
endloop
endfacet
facet normal 0.0195713313311905 -0.99980846315178 0.0
outer loop
vertex 10.3393511918721 -0.0227197940607701 15.0
vertex 11.5 0.0 5.0
vertex 11.5 0.0 15.0
endloop
endfacet
facet normal -0.0 -0.0 1.0
outer loop
vertex -2.11251572852918e-015 -11.5 5.0
vertex -2.976419018679 -9.00814700232429 5.0
vertex -2.976419018679 -11.1081470023243 5.0
endloop
endfacet
facet normal -0.0 -0.0 1.0
outer loop
vertex -2.976419018679 -9.00814700232429 5.0
vertex -2.11251572852918e-015 -11.5 5.0
vertex -1.10218211923262e-015 -9.0 5.0
endloop
endfacet
facet normal -0.0 -0.0 1.0
outer loop
vertex -1.10218211923262e-015 -9.0 5.0
vertex -2.11251572852918e-015 -11.5 5.0
vertex 2.97641901867898 -11.1081470023243 5.0
endloop
endfacet
facet normal -0.0 -0.0 1.0
outer loop
vertex -1.10218211923262e-015 -9.0 5.0
vertex 2.97641901867898 -11.1081470023243 5.0
vertex 2.97641901867898 -9.00814700232429 5.0
endloop
endfacet
facet normal -0.0 -0.0 1.0
outer loop
vertex -2.11251572852918e-015 -11.5 15.0
vertex -2.976419018679 -9.00814700232429 15.0
vertex -2.976419018679 -11.1081470023243 15.0
endloop
endfacet
facet normal -0.0 -0.0 1.0
outer loop
vertex -2.976419018679 -9.00814700232429 15.0
vertex -2.11251572852918e-015 -11.5 15.0
vertex 2.97641901867898 -9.00814700232429 15.0
endloop
endfacet
facet normal -0.0 -0.0 1.0
outer loop
vertex 2.97641901867898 -9.00814700232429 15.0
vertex -2.11251572852918e-015 -11.5 15.0
vertex 2.97641901867898 -11.1081470023243 15.0
endloop
endfacet
facet normal 4.72819170664635e-016 0.999999963125754 0.00027156673412922
outer loop
vertex -2.976419018679 -9.00814700232429 15.0
vertex -1.10218211923262e-015 -9.0 5.0
vertex -2.976419018679 -9.00814700232429 5.0
endloop
endfacet
facet normal 4.72819170664635e-016 0.999999963125754 0.00027156673412922
outer loop
vertex -1.10218211923262e-015 -9.0 5.0
vertex -2.976419018679 -9.00814700232429 15.0
vertex 2.97641901867898 -9.00814700232429 5.0
endloop
endfacet
facet normal 4.72819170664635e-016 0.999999963125754 0.00027156673412922
outer loop
vertex 2.97641901867898 -9.00814700232429 5.0
vertex -2.976419018679 -9.00814700232429 15.0
vertex 2.97641901867898 -9.00814700232429 15.0
endloop
endfacet
facet normal -1.0 4.73717992132618e-016 0.0
outer loop
vertex -2.976419018679 -9.00814700232429 15.0
vertex -2.976419018679 -11.1081470023243 5.0
vertex -2.976419018679 -11.1081470023243 15.0
endloop
endfacet
facet normal -1.0 4.73717992132618e-016 0.0
outer loop
vertex -2.976419018679 -11.1081470023243 5.0
vertex -2.976419018679 -9.00814700232429 15.0
vertex -2.976419018679 -9.00814700232429 5.0
endloop
endfacet
facet normal 1.0 -4.73717992132618e-016 0.0
outer loop
vertex 2.97641901867898 -9.00814700232429 5.0
vertex 2.97641901867898 -11.1081470023243 15.0
vertex 2.97641901867898 -11.1081470023243 5.0
endloop
endfacet
facet normal 1.0 -4.73717992132618e-016 0.0
outer loop
vertex 2.97641901867898 -11.1081470023243 15.0
vertex 2.97641901867898 -9.00814700232429 5.0
vertex 2.97641901867898 -9.00814700232429 15.0
endloop
endfacet
facet normal 1.80216418074252e-016 2.24776136788319e-017 1.0
outer loop
vertex 10.6077578190811 45.5805110325933 5.0
vertex 9.7978140705314 46.1408216558598 5.0
vertex 9.44710901095312 45.5577912385325 4.99999999999998
endloop
endfacet
facet normal 1.80216418074252e-016 2.24776136788319e-017 1.0
outer loop
vertex 9.7978140705314 46.1408216558598 5.0
vertex 10.6077578190811 45.5805110325933 5.0
vertex 10.5890088538926 48.5803352552966 5.0
endloop
endfacet
facet normal 1.80216418074252e-016 2.24776136788319e-017 1.0
outer loop
vertex -9.0 23.4 5.0
vertex -7.55553552343135 42.0492135806519 5.0
vertex -9.35319467544155 43.8783219318025 5.0
endloop
endfacet
facet normal 1.80216418074252e-016 2.24776136788319e-017 1.0
outer loop
vertex -7.55553552343135 42.0492135806519 5.0
vertex -9.0 23.4 5.0
vertex -8.69333243660162 25.7293714059227 5.0
endloop
endfacet
facet normal 1.80216418074252e-016 2.24776136788319e-017 1.0
outer loop
vertex -7.55553552343135 42.0492135806519 5.0
vertex -8.69333243660162 25.7293714059227 5.0
vertex -7.79422863405995 27.9 5.0
endloop
endfacet
facet normal 1.80216418074252e-016 2.24776136788319e-017 1.0
outer loop
vertex -7.55553552343135 42.0492135806519 5.0
vertex -7.79422863405995 27.9 5.0
vertex -6.36396103067893 29.7639610306789 5.0
endloop
endfacet
facet normal 1.80216418074252e-016 2.24776136788319e-017 1.0
outer loop
vertex -7.55553552343135 42.0492135806519 5.0
vertex -6.36396103067893 29.7639610306789 5.0
vertex -5.39108164328925 40.6735845653309 5.0
endloop
endfacet
facet normal 1.80216418074252e-016 2.24776136788319e-017 1.0
outer loop
vertex -5.39108164328925 40.6735845653309 5.0
vertex -6.36396103067893 29.7639610306789 5.0
vertex -4.5 31.1942286340599 5.0
endloop
endfacet
facet normal 1.80216418074252e-016 2.24776136788319e-017 1.0
outer loop
vertex -5.39108164328925 40.6735845653309 5.0
vertex -4.5 31.1942286340599 5.0
vertex -2.97178131454247 39.8225841503012 5.0
endloop
endfacet
facet normal 1.80216418074252e-016 2.24776136788319e-017 1.0
outer loop
vertex -2.97178131454247 39.8225841503012 5.0
vertex -4.5 31.1942286340599 5.0
vertex -2.32937140592269 32.0933324366016 5.0
endloop
endfacet
facet normal 1.80216418074252e-016 2.24776136788319e-017 1.0
outer loop
vertex -2.97178131454247 39.8225841503012 5.0
vertex -2.32937140592269 32.0933324366016 5.0
vertex -0.422763795868075 39.5402271483584 5.0
endloop
endfacet
facet normal 1.80216418074252e-016 2.24776136788319e-017 1.0
outer loop
vertex -0.422763795868075 39.5402271483584 5.0
vertex -2.32937140592269 32.0933324366016 5.0
vertex -9.46753168216286e-032 32.4 5.0
endloop
endfacet
facet normal 1.80216418074252e-016 2.24776136788319e-017 1.0
outer loop
vertex -0.422763795868075 39.5402271483584 5.0
vertex -9.46753168216286e-032 32.4 5.0
vertex 2.12413251769194 39.8411174191042 5.0
endloop
endfacet
facet normal 1.80216418074252e-016 2.24776136788319e-017 1.0
outer loop
vertex 2.12413251769194 39.8411174191042 5.0
vertex -9.46753168216286e-032 32.4 5.0
vertex 2.32937140592269 32.0933324366016 5.0
endloop
endfacet
facet normal 1.80216418074252e-016 2.24776136788319e-017 1.0
outer loop
vertex 2.12413251769194 39.8411174191042 5.0
vertex 2.32937140592269 32.0933324366016 5.0
vertex 4.53717894249449 40.7096925389429 5.0
endloop
endfacet
facet normal 1.80216418074252e-016 2.24776136788319e-017 1.0
outer loop
vertex 4.53717894249449 40.7096925389429 5.0
vertex 2.32937140592269 32.0933324366016 5.0
vertex 4.5 31.1942286340599 5.0
endloop
endfacet
facet normal 1.80216418074252e-016 2.24776136788319e-017 1.0
outer loop
vertex 4.53717894249449 40.7096925389429 5.0
vertex 4.5 31.1942286340599 5.0
vertex 6.36396103067893 29.7639610306789 5.0
endloop
endfacet
facet normal 1.80216418074252e-016 2.24776136788319e-017 1.0
outer loop
vertex 4.53717894249449 40.7096925389429 5.0
vertex 6.36396103067893 29.7639610306789 5.0
vertex 6.6915696796476 42.1010287092209 5.0
endloop
endfacet
facet normal 1.80216418074252e-016 2.24776136788319e-017 1.0
outer loop
vertex 6.6915696796476 42.1010287092209 5.0
vertex 6.36396103067893 29.7639610306789 5.0
vertex 7.79422863405995 27.9 5.0
endloop
endfacet
facet normal 1.80216418074252e-016 2.24776136788319e-017 1.0
outer loop
vertex 6.6915696796476 42.1010287092209 5.0
vertex 7.79422863405995 27.9 5.0
vertex 8.47587692804799 43.9431642716486 5.0
endloop
endfacet
facet normal 1.80216418074252e-016 2.24776136788319e-017 1.0
outer loop
vertex 8.47587692804799 43.9431642716486 5.0
vertex 7.79422863405995 27.9 5.0
vertex 8.69333243660162 25.7293714059227 5.0
endloop
endfacet
facet normal 1.80216418074252e-016 2.24776136788319e-017 1.0
outer loop
vertex 8.47587692804799 43.9431642716486 5.0
vertex 8.69333243660162 25.7293714059227 5.0
vertex 9.44710901095312 45.5577912385325 4.99999999999998
endloop
endfacet
facet normal 1.80216418074252e-016 2.24776136788319e-017 1.0
outer loop
vertex 9.44710901095312 45.5577912385325 4.99999999999998
vertex 8.69333243660162 25.7293714059227 5.0
vertex 9.0 23.4 5.0
endloop
endfacet
facet normal 1.80216418074252e-016 2.24776136788319e-017 1.0
outer loop
vertex 5.74999999999999 -9.95929214352105 5.0
vertex 2.97641901867898 -9.00814700232429 5.0
vertex 2.97641901867898 -11.1081470023243 5.0
endloop
endfacet
facet normal 1.80216418074252e-016 2.24776136788319e-017 1.0
outer loop
vertex 2.97641901867898 -9.00814700232429 5.0
vertex 5.74999999999999 -9.95929214352105 5.0
vertex 4.5 -7.79422863405995 5.0
endloop
endfacet
facet normal 1.80216418074252e-016 2.24776136788319e-017 1.0
outer loop
vertex 4.5 -7.79422863405995 5.0
vertex 5.74999999999999 -9.95929214352105 5.0
vertex 6.36396103067892 -6.36396103067893 5.0
endloop
endfacet
facet normal 1.80216418074252e-016 2.24776136788319e-017 1.0
outer loop
vertex 6.36396103067892 -6.36396103067893 5.0
vertex 5.74999999999999 -9.95929214352105 5.0
vertex 8.13172798364529 -8.1317279836453 5.0
endloop
endfacet
facet normal 1.80216418074252e-016 2.24776136788319e-017 1.0
outer loop
vertex 6.36396103067892 -6.36396103067893 5.0
vertex 8.13172798364529 -8.1317279836453 5.0
vertex 7.79422863405994 -4.5 5.0
endloop
endfacet
facet normal 1.80216418074252e-016 2.24776136788319e-017 1.0
outer loop
vertex 7.79422863405994 -4.5 5.0
vertex 8.13172798364529 -8.1317279836453 5.0
vertex 8.69333243660161 -2.32937140592269 5.0
endloop
endfacet
facet normal 1.80216418074252e-016 2.24776136788319e-017 1.0
outer loop
vertex 8.69333243660161 -2.32937140592269 5.0
vertex 8.13172798364529 -8.1317279836453 5.0
vertex 9.95929214352104 -5.75000000000001 5.0
endloop
endfacet
facet normal 1.80216418074252e-016 2.24776136788319e-017 1.0
outer loop
vertex 8.69333243660161 -2.32937140592269 5.0
vertex 9.95929214352104 -5.75000000000001 5.0
vertex 9.0 -1.65327317884893e-015 5.0
endloop
endfacet
facet normal 1.80216418074252e-016 2.24776136788319e-017 1.0
outer loop
vertex 9.0 -1.65327317884893e-015 5.0
vertex 9.95929214352104 -5.75000000000001 5.0
vertex 9.0 23.4 5.0
endloop
endfacet
facet normal 1.80216418074252e-016 2.24776136788319e-017 1.0
outer loop
vertex 9.0 23.4 5.0
vertex 9.95929214352104 -5.75000000000001 5.0
vertex 9.44710901095312 45.5577912385325 4.99999999999998
endloop
endfacet
facet normal 1.80216418074252e-016 2.24776136788319e-017 1.0
outer loop
vertex 9.44710901095312 45.5577912385325 4.99999999999998
vertex 9.95929214352104 -5.75000000000001 5.0
vertex 10.3393511918721 -0.0227197940607701 4.99999999999998
endloop
endfacet
facet normal 1.80216418074252e-016 2.24776136788319e-017 1.0
outer loop
vertex 10.3393511918721 -0.0227197940607701 4.99999999999998
vertex 9.95929214352104 -5.75000000000001 5.0
vertex 11.1081470023243 -2.976419018679 5.0
endloop
endfacet
facet normal 1.80216418074252e-016 2.24776136788319e-017 1.0
outer loop
vertex 10.3393511918721 -0.0227197940607701 4.99999999999998
vertex 11.1081470023243 -2.976419018679 5.0
vertex 11.5 0.0 5.0
endloop
endfacet
facet normal 1.80216418074252e-016 2.24776136788319e-017 1.0
outer loop
vertex -9.0 5.51091059616309e-016 5.0
vertex -8.69333243660162 21.0706285940773 5.0
vertex -9.0 23.4 5.0
endloop
endfacet
facet normal 1.80216418074252e-016 2.24776136788319e-017 1.0
outer loop
vertex -8.69333243660162 21.0706285940773 5.0
vertex -9.0 5.51091059616309e-016 5.0
vertex -8.69333243660161 2.32937140592269 5.0
endloop
endfacet
facet normal 1.80216418074252e-016 2.24776136788319e-017 1.0
outer loop
vertex -8.69333243660162 21.0706285940773 5.0
vertex -8.69333243660161 2.32937140592269 5.0
vertex -7.79422863405995 18.9 5.0
endloop
endfacet
facet normal 1.80216418074252e-016 2.24776136788319e-017 1.0
outer loop
vertex -7.79422863405995 18.9 5.0
vertex -8.69333243660161 2.32937140592269 5.0
vertex -7.79422863405995 4.5 5.0
endloop
endfacet
facet normal 1.80216418074252e-016 2.24776136788319e-017 1.0
outer loop
vertex -7.79422863405995 18.9 5.0
vertex -7.79422863405995 4.5 5.0
vertex -6.36396103067893 17.0360389693211 5.0
endloop
endfacet
facet normal 1.80216418074252e-016 2.24776136788319e-017 1.0
outer loop
vertex -6.36396103067893 17.0360389693211 5.0
vertex -7.79422863405995 4.5 5.0
vertex -6.36396103067892 6.36396103067893 5.0
endloop
endfacet
facet normal 1.80216418074252e-016 2.24776136788319e-017 1.0
outer loop
vertex -6.36396103067893 17.0360389693211 5.0
vertex -6.36396103067892 6.36396103067893 5.0
vertex -4.5 15.6057713659401 5.0
endloop
endfacet
facet normal 1.80216418074252e-016 2.24776136788319e-017 1.0
outer loop
vertex -4.5 15.6057713659401 5.0
vertex -6.36396103067892 6.36396103067893 5.0
vertex -4.5 7.79422863405995 5.0
endloop
endfacet
facet normal 1.80216418074252e-016 2.24776136788319e-017 1.0
outer loop
vertex -4.5 15.6057713659401 5.0
vertex -4.5 7.79422863405995 5.0
vertex -2.32937140592269 14.7066675633984 5.0
endloop
endfacet
facet normal 1.80216418074252e-016 2.24776136788319e-017 1.0
outer loop
vertex -2.32937140592269 14.7066675633984 5.0
vertex -4.5 7.79422863405995 5.0
vertex -2.32937140592269 8.69333243660161 5.0
endloop
endfacet
facet normal 1.80216418074252e-016 2.24776136788319e-017 1.0
outer loop
vertex -2.32937140592269 14.7066675633984 5.0
vertex -2.32937140592269 8.69333243660161 5.0
vertex -1.89893852818128 14.65 5.0
endloop
endfacet
facet normal 1.80216418074252e-016 2.24776136788319e-017 1.0
outer loop
vertex -1.89893852818128 14.65 5.0
vertex -2.32937140592269 8.69333243660161 5.0
vertex -9.46753165277327e-032 9.0 5.0
endloop
endfacet
facet normal 1.80216418074252e-016 2.24776136788319e-017 1.0
outer loop
vertex -1.89893852818128 14.65 5.0
vertex -9.46753165277327e-032 9.0 5.0
vertex -1.10154940724527e-015 14.4 5.0
endloop
endfacet
facet normal 1.80216418074252e-016 2.24776136788319e-017 1.0
outer loop
vertex -1.10154940724527e-015 14.4 5.0
vertex -9.46753165277327e-032 9.0 5.0
vertex 1.89893852818128 14.65 5.0
endloop
endfacet
facet normal 1.80216418074252e-016 2.24776136788319e-017 1.0
outer loop
vertex 1.89893852818128 14.65 5.0
vertex -9.46753165277327e-032 9.0 5.0
vertex 2.32937140592269 8.69333243660161 5.0
endloop
endfacet
facet normal 1.80216418074252e-016 2.24776136788319e-017 1.0
outer loop
vertex 1.89893852818128 14.65 5.0
vertex 2.32937140592269 8.69333243660161 5.0
vertex 2.32937140592268 14.7066675633984 5.0
endloop
endfacet
facet normal 1.80216418074252e-016 2.24776136788319e-017 1.0
outer loop
vertex 2.32937140592268 14.7066675633984 5.0
vertex 2.32937140592269 8.69333243660161 5.0
vertex 4.5 15.6057713659401 5.0
endloop
endfacet
facet normal 1.80216418074252e-016 2.24776136788319e-017 1.0
outer loop
vertex 4.5 15.6057713659401 5.0
vertex 2.32937140592269 8.69333243660161 5.0
vertex 4.5 7.79422863405994 5.0
endloop
endfacet
facet normal 1.80216418074252e-016 2.24776136788319e-017 1.0
outer loop
vertex 4.5 15.6057713659401 5.0
vertex 4.5 7.79422863405994 5.0
vertex 6.36396103067892 17.0360389693211 5.0
endloop
endfacet
facet normal 1.80216418074252e-016 2.24776136788319e-017 1.0
outer loop
vertex 6.36396103067892 17.0360389693211 5.0
vertex 4.5 7.79422863405994 5.0
vertex 6.36396103067893 6.36396103067892 5.0
endloop
endfacet
facet normal 1.80216418074252e-016 2.24776136788319e-017 1.0
outer loop
vertex 6.36396103067892 17.0360389693211 5.0
vertex 6.36396103067893 6.36396103067892 5.0
vertex 7.79422863405995 18.9 5.0
endloop
endfacet
facet normal 1.80216418074252e-016 2.24776136788319e-017 1.0
outer loop
vertex 7.79422863405995 18.9 5.0
vertex 6.36396103067893 6.36396103067892 5.0
vertex 7.79422863405995 4.49999999999999 5.0
endloop
endfacet
facet normal 1.80216418074252e-016 2.24776136788319e-017 1.0
outer loop
vertex 7.79422863405995 18.9 5.0
vertex 7.79422863405995 4.49999999999999 5.0
vertex 8.69333243660161 21.0706285940773 5.0
endloop
endfacet
facet normal 1.80216418074252e-016 2.24776136788319e-017 1.0
outer loop
vertex 8.69333243660161 21.0706285940773 5.0
vertex 7.79422863405995 4.49999999999999 5.0
vertex 8.69333243660161 2.32937140592268 5.0
endloop
endfacet
facet normal 1.80216418074252e-016 2.24776136788319e-017 1.0
outer loop
vertex 8.69333243660161 21.0706285940773 5.0
vertex 8.69333243660161 2.32937140592268 5.0
vertex 9.0 -1.65327317884893e-015 5.0
endloop
endfacet
facet normal 1.80216418074252e-016 2.24776136788319e-017 1.0
outer loop
vertex 8.69333243660161 21.0706285940773 5.0
vertex 9.0 -1.65327317884893e-015 5.0
vertex 9.0 23.4 5.0
endloop
endfacet
facet normal 1.80216418074252e-016 2.24776136788319e-017 1.0
outer loop
vertex 2.97641901867898 -9.00814700232429 5.0
vertex 2.32937140592268 -8.69333243660161 5.0
vertex -1.10218211923262e-015 -9.0 5.0
endloop
endfacet
facet normal 1.80216418074252e-016 2.24776136788319e-017 1.0
outer loop
vertex 2.32937140592268 -8.69333243660161 5.0
vertex 2.97641901867898 -9.00814700232429 5.0
vertex 4.5 -7.79422863405995 5.0
endloop
endfacet
facet normal 1.80216418074252e-016 2.24776136788319e-017 1.0
outer loop
vertex -11.1081470023243 -2.97641901867898 5.0
vertex -10.3940328002765 1.40834381901946e-015 5.0
vertex -11.5 1.40834381901946e-015 5.0
endloop
endfacet
facet normal 1.80216418074252e-016 2.24776136788319e-017 1.0
outer loop
vertex -10.3940328002765 1.40834381901946e-015 5.0
vertex -11.1081470023243 -2.97641901867898 5.0
vertex -9.95929214352105 -5.75 5.0
endloop
endfacet
facet normal 1.80216418074252e-016 2.24776136788319e-017 1.0
outer loop
vertex -10.3940328002765 1.40834381901946e-015 5.0
vertex -9.95929214352105 -5.75 5.0
vertex -10.3940328002765 45.5805110325816 5.0
endloop
endfacet
facet normal 1.80216418074252e-016 2.24776136788319e-017 1.0
outer loop
vertex -10.3940328002765 45.5805110325816 5.0
vertex -9.95929214352105 -5.75 5.0
vertex -9.35319467544155 43.8783219318025 5.0
endloop
endfacet
facet normal 1.80216418074252e-016 2.24776136788319e-017 1.0
outer loop
vertex -9.35319467544155 43.8783219318025 5.0
vertex -9.95929214352105 -5.75 5.0
vertex -9.0 5.51091059616309e-016 5.0
endloop
endfacet
facet normal 1.80216418074252e-016 2.24776136788319e-017 1.0
outer loop
vertex -9.0 5.51091059616309e-016 5.0
vertex -9.95929214352105 -5.75 5.0
vertex -8.1317279836453 -8.13172798364529 5.0
endloop
endfacet
facet normal 1.80216418074252e-016 2.24776136788319e-017 1.0
outer loop
vertex -9.35319467544155 43.8783219318025 5.0
vertex -9.0 5.51091059616309e-016 5.0
vertex -9.0 23.4 5.0
endloop
endfacet
facet normal 1.80216418074252e-016 2.24776136788319e-017 1.0
outer loop
vertex -9.0 5.51091059616309e-016 5.0
vertex -8.1317279836453 -8.13172798364529 5.0
vertex -8.69333243660161 -2.32937140592269 5.0
endloop
endfacet
facet normal 1.80216418074252e-016 2.24776136788319e-017 1.0
outer loop
vertex -8.69333243660161 -2.32937140592269 5.0
vertex -8.1317279836453 -8.13172798364529 5.0
vertex -7.79422863405995 -4.5 5.0
endloop
endfacet
facet normal 1.80216418074252e-016 2.24776136788319e-017 1.0
outer loop
vertex -7.79422863405995 -4.5 5.0
vertex -8.1317279836453 -8.13172798364529 5.0
vertex -5.75 -9.95929214352104 5.0
endloop
endfacet
facet normal 1.80216418074252e-016 2.24776136788319e-017 1.0
outer loop
vertex -7.79422863405995 -4.5 5.0
vertex -5.75 -9.95929214352104 5.0
vertex -6.36396103067893 -6.36396103067892 5.0
endloop
endfacet
facet normal 1.80216418074252e-016 2.24776136788319e-017 1.0
outer loop
vertex -6.36396103067893 -6.36396103067892 5.0
vertex -5.75 -9.95929214352104 5.0
vertex -4.5 -7.79422863405994 5.0
endloop
endfacet
facet normal 1.80216418074252e-016 2.24776136788319e-017 1.0
outer loop
vertex -4.5 -7.79422863405994 5.0
vertex -5.75 -9.95929214352104 5.0
vertex -2.976419018679 -11.1081470023243 5.0
endloop
endfacet
facet normal 1.80216418074252e-016 2.24776136788319e-017 1.0
outer loop
vertex -4.5 -7.79422863405994 5.0
vertex -2.976419018679 -11.1081470023243 5.0
vertex -2.976419018679 -9.00814700232429 5.0
endloop
endfacet
facet normal 1.80216418074252e-016 2.24776136788319e-017 1.0
outer loop
vertex -4.5 -7.79422863405994 5.0
vertex -2.976419018679 -9.00814700232429 5.0
vertex -2.32937140592269 -8.69333243660161 5.0
endloop
endfacet
facet normal 1.80216418074252e-016 2.24776136788319e-017 1.0
outer loop
vertex -2.32937140592269 -8.69333243660161 5.0
vertex -2.976419018679 -9.00814700232429 5.0
vertex -1.10218211923262e-015 -9.0 5.0
endloop
endfacet
facet normal 1.0 -0.0 -0.0
outer loop
vertex -10.3940328002765 45.5805110325816 5.0
vertex -10.3940328002765 1.40834381901946e-015 15.0
vertex -10.3940328002765 1.40834381901946e-015 5.0
endloop
endfacet
facet normal 1.0 -0.0 -0.0
outer loop
vertex -10.3940328002765 1.40834381901946e-015 15.0
vertex -10.3940328002765 45.5805110325816 5.0
vertex -10.3940328002765 45.5805110325816 15.0
endloop
endfacet
facet normal -0.0 1.0 -0.0
outer loop
vertex -11.5 45.5805110325816 15.0
vertex -10.3940328002765 45.5805110325816 5.0
vertex -11.5 45.5805110325816 5.0
endloop
endfacet
facet normal -0.0 1.0 -0.0
outer loop
vertex -10.3940328002765 45.5805110325816 5.0
vertex -11.5 45.5805110325816 15.0
vertex -10.3940328002765 45.5805110325816 15.0
endloop
endfacet
facet normal -0.0 -1.0 -0.0
outer loop
vertex -10.3940328002765 1.40834381901946e-015 15.0
vertex -11.5 1.40834381901946e-015 5.0
vertex -10.3940328002765 1.40834381901946e-015 5.0
endloop
endfacet
facet normal -0.0 -1.0 -0.0
outer loop
vertex -11.5 1.40834381901946e-015 5.0
vertex -10.3940328002765 1.40834381901946e-015 15.0
vertex -11.5 1.40834381901946e-015 15.0
endloop
endfacet
endsolid Shotshell holder front half
