  0
SECTION
  2
HEADER
  9
$ACADVER
  1
AC1015
  9
$ACADMAINTVER
 70
     6
  9
$DWGCODEPAGE
  3
ANSI_1252
  9
$INSBASE
 10
0.0
 20
0.0
 30
0.0
  9
$EXTMIN
 10
-12.2395507314
 20
-8.9569984504
 30
0.0
  9
$EXTMAX
 10
12.7022479213
 20
10.0207167347
 30
0.0
  9
$LIMMIN
 10
0.0
 20
0.0
  9
$LIMMAX
 10
420.0
 20
297.0
  9
$ORTHOMODE
 70
     0
  9
$REGENMODE
 70
     1
  9
$FILLMODE
 70
     1
  9
$QTEXTMODE
 70
     0
  9
$MIRRTEXT
 70
     1
  9
$LTSCALE
 40
1.0
  9
$ATTMODE
 70
     1
  9
$TEXTSIZE
 40
2.5
  9
$TRACEWID
 40
1.0
  9
$TEXTSTYLE
  7
Standard
  9
$CLAYER
  8
0
  9
$CELTYPE
  6
ByLayer
  9
$CECOLOR
 62
   256
  9
$CELTSCALE
 40
1.0
  9
$DISPSILH
 70
     0
  9
$DIMSCALE
 40
1.0
  9
$DIMASZ
 40
6.0
  9
$DIMEXO
 40
1.0
  9
$DIMDLI
 40
3.75
  9
$DIMRND
 40
0.0
  9
$DIMDLE
 40
0.0
  9
$DIMEXE
 40
1.0
  9
$DIMTP
 40
0.0
  9
$DIMTM
 40
0.0
  9
$DIMTXT
 40
2.5
  9
$DIMCEN
 40
2.5
  9
$DIMTSZ
 40
0.0
  9
$DIMTOL
 70
     0
  9
$DIMLIM
 70
     0
  9
$DIMTIH
 70
     1
  9
$DIMTOH
 70
     1
  9
$DIMSE1
 70
     0
  9
$DIMSE2
 70
     0
  9
$DIMTAD
 70
     1
  9
$DIMZIN
 70
     0
  9
$DIMBLK
  1

  9
$DIMASO
 70
     1
  9
$DIMSHO
 70
     1
  9
$DIMPOST
  1

  9
$DIMAPOST
  1

  9
$DIMALT
 70
     0
  9
$DIMALTD
 70
     3
  9
$DIMALTF
 40
0.0393700787
  9
$DIMLFAC
 40
1.0
  9
$DIMTOFL
 70
     1
  9
$DIMTVP
 40
0.0
  9
$DIMTIX
 70
     0
  9
$DIMSOXD
 70
     0
  9
$DIMSAH
 70
     0
  9
$DIMBLK1
  1

  9
$DIMBLK2
  1

  9
$DIMSTYLE
  2
ISO-25
  9
$DIMCLRD
 70
     0
  9
$DIMCLRE
 70
     0
  9
$DIMCLRT
 70
     0
  9
$DIMTFAC
 40
1.0
  9
$DIMGAP
 40
1.524
  9
$DIMJUST
 70
     0
  9
$DIMSD1
 70
     0
  9
$DIMSD2
 70
     0
  9
$DIMTOLJ
 70
     0
  9
$DIMTZIN
 70
     0
  9
$DIMALTZ
 70
     0
  9
$DIMALTTZ
 70
     0
  9
$DIMUPT
 70
     0
  9
$DIMDEC
 70
     2
  9
$DIMTDEC
 70
     2
  9
$DIMALTU
 70
     2
  9
$DIMALTTD
 70
     3
  9
$DIMTXSTY
  7
Standard
  9
$DIMAUNIT
 70
     0
  9
$DIMADEC
 70
     2
  9
$DIMALTRND
 40
0.0
  9
$DIMAZIN
 70
     0
  9
$DIMDSEP
 70
    44
  9
$DIMATFIT
 70
     3
  9
$DIMFRAC
 70
     0
  9
$DIMLDRBLK
  1

  9
$DIMLUNIT
 70
     2
  9
$DIMLWD
 70
    -2
  9
$DIMLWE
 70
    -2
  9
$DIMTMOVE
 70
     0
  9
$LUNITS
 70
     2
  9
$LUPREC
 70
     2
  9
$SKETCHINC
 40
1.0
  9
$FILLETRAD
 40
10.0
  9
$AUNITS
 70
     0
  9
$AUPREC
 70
     2
  9
$MENU
  1
.
  9
$ELEVATION
 40
0.0
  9
$PELEVATION
 40
0.0
  9
$THICKNESS
 40
0.0
  9
$LIMCHECK
 70
     0
  9
$CHAMFERA
 40
10.0
  9
$CHAMFERB
 40
10.0
  9
$CHAMFERC
 40
20.0
  9
$CHAMFERD
 40
0.0
  9
$SKPOLY
 70
     0
  9
$TDCREATE
 40
2456560.923662974
  9
$TDUCREATE
 40
2456560.423662974
  9
$TDUPDATE
 40
2456560.923722558
  9
$TDUUPDATE
 40
2456560.423722558
  9
$TDINDWG
 40
0.0000000116
  9
$TDUSRTIMER
 40
0.0000000116
  9
$USRTIMER
 70
     1
  9
$ANGBASE
 50
0.0
  9
$ANGDIR
 70
     0
  9
$PDMODE
 70
     0
  9
$PDSIZE
 40
-1.0
  9
$PLINEWID
 40
0.0
  9
$SPLFRAME
 70
     0
  9
$SPLINETYPE
 70
     6
  9
$SPLINESEGS
 70
     8
  9
$HANDSEED
  5
A6
  9
$SURFTAB1
 70
     6
  9
$SURFTAB2
 70
     6
  9
$SURFTYPE
 70
     6
  9
$SURFU
 70
     6
  9
$SURFV
 70
     6
  9
$UCSBASE
  2

  9
$UCSNAME
  2

  9
$UCSORG
 10
0.0
 20
0.0
 30
0.0
  9
$UCSXDIR
 10
1.0
 20
0.0
 30
0.0
  9
$UCSYDIR
 10
0.0
 20
1.0
 30
0.0
  9
$UCSORTHOREF
  2

  9
$UCSORTHOVIEW
 70
     0
  9
$UCSORGTOP
 10
0.0
 20
0.0
 30
0.0
  9
$UCSORGBOTTOM
 10
0.0
 20
0.0
 30
0.0
  9
$UCSORGLEFT
 10
0.0
 20
0.0
 30
0.0
  9
$UCSORGRIGHT
 10
0.0
 20
0.0
 30
0.0
  9
$UCSORGFRONT
 10
0.0
 20
0.0
 30
0.0
  9
$UCSORGBACK
 10
0.0
 20
0.0
 30
0.0
  9
$PUCSBASE
  2

  9
$PUCSNAME
  2

  9
$PUCSORG
 10
0.0
 20
0.0
 30
0.0
  9
$PUCSXDIR
 10
1.0
 20
0.0
 30
0.0
  9
$PUCSYDIR
 10
0.0
 20
1.0
 30
0.0
  9
$PUCSORTHOREF
  2

  9
$PUCSORTHOVIEW
 70
     0
  9
$PUCSORGTOP
 10
0.0
 20
0.0
 30
0.0
  9
$PUCSORGBOTTOM
 10
0.0
 20
0.0
 30
0.0
  9
$PUCSORGLEFT
 10
0.0
 20
0.0
 30
0.0
  9
$PUCSORGRIGHT
 10
0.0
 20
0.0
 30
0.0
  9
$PUCSORGFRONT
 10
0.0
 20
0.0
 30
0.0
  9
$PUCSORGBACK
 10
0.0
 20
0.0
 30
0.0
  9
$USERI1
 70
     0
  9
$USERI2
 70
     0
  9
$USERI3
 70
     0
  9
$USERI4
 70
     0
  9
$USERI5
 70
     0
  9
$USERR1
 40
0.0
  9
$USERR2
 40
0.0
  9
$USERR3
 40
0.0
  9
$USERR4
 40
0.0
  9
$USERR5
 40
0.0
  9
$WORLDVIEW
 70
     1
  9
$SHADEDGE
 70
     3
  9
$SHADEDIF
 70
    70
  9
$TILEMODE
 70
     1
  9
$MAXACTVP
 70
    64
  9
$PINSBASE
 10
0.0
 20
0.0
 30
0.0
  9
$PLIMCHECK
 70
     0
  9
$PEXTMIN
 10
1.0000000000E+20
 20
1.0000000000E+20
 30
1.0000000000E+20
  9
$PEXTMAX
 10
-1.0000000000E+20
 20
-1.0000000000E+20
 30
-1.0000000000E+20
  9
$PLIMMIN
 10
0.0
 20
0.0
  9
$PLIMMAX
 10
420.0
 20
297.0
  9
$UNITMODE
 70
     0
  9
$VISRETAIN
 70
     1
  9
$PLINEGEN
 70
     0
  9
$PSLTSCALE
 70
     1
  9
$TREEDEPTH
 70
  3020
  9
$CMLSTYLE
  2
Standard
  9
$CMLJUST
 70
     0
  9
$CMLSCALE
 40
20.0
  9
$PROXYGRAPHICS
 70
     1
  9
$MEASUREMENT
 70
     1
  9
$CELWEIGHT
370
    -1
  9
$ENDCAPS
280
     0
  9
$JOINSTYLE
280
     0
  9
$LWDISPLAY
290
     1
  9
$INSUNITS
 70
     4
  9
$HYPERLINKBASE
  1

  9
$STYLESHEET
  1

  9
$XEDIT
290
     1
  9
$CEPSNTYPE
380
     0
  9
$PSTYLEMODE
290
     1
  9
$FINGERPRINTGUID
  2
{75B0A2B3-2214-4D9D-8391-1DE9085F5059}
  9
$VERSIONGUID
  2
{FAEB1C32-E019-11D5-929B-00C0DF256EC4}
  9
$EXTNAMES
290
     1
  9
$PSVPSCALE
 40
0.0
  9
$OLESTARTUP
290
     0
  0
ENDSEC
  0
SECTION
  2
CLASSES
  0
CLASS
  1
ACDBDICTIONARYWDFLT
  2
AcDbDictionaryWithDefault
  3
ObjectDBX Classes
 90
        0
280
     0
281
     0
  0
CLASS
  1
VISUALSTYLE
  2
AcDbVisualStyle
  3
ObjectDBX Classes
 90
     4095
280
     0
281
     0
  0
CLASS
  1
MATERIAL
  2
AcDbMaterial
  3
ObjectDBX Classes
 90
     1153
280
     0
281
     0
  0
CLASS
  1
ACDBPLACEHOLDER
  2
AcDbPlaceHolder
  3
ObjectDBX Classes
 90
        0
280
     0
281
     0
  0
CLASS
  1
LAYOUT
  2
AcDbLayout
  3
ObjectDBX Classes
 90
        0
280
     0
281
     0
  0
ENDSEC
  0
SECTION
  2
TABLES
  0
TABLE
  2
VPORT
  5
8
330
0
100
AcDbSymbolTable
 70
     1
  0
VPORT
  5
29
330
8
100
AcDbSymbolTableRecord
100
AcDbViewportTableRecord
  2
*Active
 70
     0
 10
0.0
 20
0.0
 11
1.0
 21
1.0
 12
0.231348595
 22
0.5318591421
 13
0.0
 23
0.0
 14
10.0
 24
10.0
 15
10.0
 25
10.0
 16
0.0
 26
0.0
 36
1.0
 17
0.0
 27
0.0
 37
0.0
 40
19.3572694888
 41
1.3142677298
 42
50.0
 43
0.0
 44
0.0
 50
0.0
 51
0.0
 71
     0
 72
   100
 73
     1
 74
     3
 75
     0
 76
     0
 77
     0
 78
     0
281
     0
 65
     1
110
0.0
120
0.0
130
0.0
111
1.0
121
0.0
131
0.0
112
0.0
122
1.0
132
0.0
 79
     0
146
0.0
  0
ENDTAB
  0
TABLE
  2
LTYPE
  5
5
330
0
100
AcDbSymbolTable
 70
     6
  0
LTYPE
  5
14
330
5
100
AcDbSymbolTableRecord
100
AcDbLinetypeTableRecord
  2
ByBlock
 70
     0
  3

 72
    65
 73
     0
 40
0.0
  0
LTYPE
  5
15
330
5
100
AcDbSymbolTableRecord
100
AcDbLinetypeTableRecord
  2
ByLayer
 70
     0
  3

 72
    65
 73
     0
 40
0.0
  0
LTYPE
  5
16
330
5
100
AcDbSymbolTableRecord
100
AcDbLinetypeTableRecord
  2
Continuous
 70
     0
  3
Solid line
 72
    65
 73
     0
 40
0.0
  0
LTYPE
  5
3F
330
5
100
AcDbSymbolTableRecord
100
AcDbLinetypeTableRecord
  2
HIDDEN
 70
     0
  3
Hidden __ __ __ __ __ __ __ __ __ __ __ __ __ __
 72
    65
 73
     2
 40
1.905
 49
1.27
 74
     0
 49
-0.635
 74
     0
  0
LTYPE
  5
40
330
5
100
AcDbSymbolTableRecord
100
AcDbLinetypeTableRecord
  2
PHANTOM
 70
     0
  3
Phantom ______  __  __  ______  __  __  ______
 72
    65
 73
     6
 40
12.7
 49
6.35
 74
     0
 49
-1.27
 74
     0
 49
1.27
 74
     0
 49
-1.27
 74
     0
 49
1.27
 74
     0
 49
-1.27
 74
     0
  0
LTYPE
  5
41
330
5
100
AcDbSymbolTableRecord
100
AcDbLinetypeTableRecord
  2
CENTER
 70
     0
  3
Center ____ _ ____ _ ____ _ ____ _ ____ _ ____
 72
    65
 73
     4
 40
10.16
 49
6.35
 74
     0
 49
-1.27
 74
     0
 49
1.27
 74
     0
 49
-1.27
 74
     0
  0
LTYPE
  5
42
330
5
100
AcDbSymbolTableRecord
100
AcDbLinetypeTableRecord
  2
CENTERX2
 70
     0
  3
Center (2x) ________  __  ________  __  _____
 72
    65
 73
     4
 40
20.32
 49
12.7
 74
     0
 49
-2.54
 74
     0
 49
2.54
 74
     0
 49
-2.54
 74
     0
  0
LTYPE
  5
43
330
5
100
AcDbSymbolTableRecord
100
AcDbLinetypeTableRecord
  2
DOT2
 70
     0
  3
Dot (.5x) ........................................
 72
    65
 73
     2
 40
0.635
 49
0.0
 74
     0
 49
-0.635
 74
     0
  0
ENDTAB
  0
TABLE
  2
LAYER
  5
2
330
0
100
AcDbSymbolTable
 70
     1
  0
LAYER
  5
10
330
2
100
AcDbSymbolTableRecord
100
AcDbLayerTableRecord
  2
0
 70
     0
 62
     7
  6
Continuous
370
    -3
390
F
  0
ENDTAB
  0
TABLE
  2
STYLE
  5
3
330
0
100
AcDbSymbolTable
 70
     2
  0
STYLE
  5
11
330
3
100
AcDbSymbolTableRecord
100
AcDbTextStyleTableRecord
  2
Standard
 70
     0
 40
0.0
 41
1.0
 50
0.0
 71
     0
 42
2.5
  3
txt
  4

  0
STYLE
  5
A3
330
3
100
AcDbSymbolTableRecord
100
AcDbTextStyleTableRecord
  2
SLDTEXTSTYLE0
 70
     0
 40
0.0
 41
0.7
 50
0.0
 71
     0
 42
0.2
  3
TXT
  4

  0
ENDTAB
  0
TABLE
  2
VIEW
  5
6
330
0
100
AcDbSymbolTable
 70
     0
  0
ENDTAB
  0
TABLE
  2
UCS
  5
7
330
0
100
AcDbSymbolTable
 70
     0
  0
ENDTAB
  0
TABLE
  2
APPID
  5
9
330
0
100
AcDbSymbolTable
 70
     1
  0
APPID
  5
12
330
9
100
AcDbSymbolTableRecord
100
AcDbRegAppTableRecord
  2
ACAD
 70
     0
  0
ENDTAB
  0
TABLE
  2
DIMSTYLE
  5
A
330
0
100
AcDbSymbolTable
 70
     1
100
AcDbDimStyleTable
  0
DIMSTYLE
105
27
330
A
100
AcDbSymbolTableRecord
100
AcDbDimStyleTableRecord
  2
ISO-25
 70
     0
 41
2.5
 42
0.625
 43
3.75
 44
1.25
 73
     0
 74
     0
 77
     1
 78
     8
140
2.5
141
2.5
143
0.0393700787
147
0.625
171
     3
172
     1
178
     0
271
     2
272
     2
274
     3
278
    44
283
     0
284
     8
340
11
  0
ENDTAB
  0
TABLE
  2
BLOCK_RECORD
  5
1
330
0
100
AcDbSymbolTable
 70
     1
  0
BLOCK_RECORD
  5
1F
330
1
100
AcDbSymbolTableRecord
100
AcDbBlockTableRecord
  2
*Model_Space
340
22
  0
BLOCK_RECORD
  5
1B
330
1
100
AcDbSymbolTableRecord
100
AcDbBlockTableRecord
  2
*Paper_Space
340
1E
  0
BLOCK_RECORD
  5
23
330
1
100
AcDbSymbolTableRecord
100
AcDbBlockTableRecord
  2
*Paper_Space0
340
26
  0
ENDTAB
  0
ENDSEC
  0
SECTION
  2
BLOCKS
  0
BLOCK
  5
20
330
1F
100
AcDbEntity
  8
0
100
AcDbBlockBegin
  2
*Model_Space
 70
     0
 10
0.0
 20
0.0
 30
0.0
  3
*Model_Space
  1

  0
ENDBLK
  5
21
330
1F
100
AcDbEntity
  8
0
100
AcDbBlockEnd
  0
BLOCK
  5
1C
330
1B
100
AcDbEntity
 67
     1
  8
0
100
AcDbBlockBegin
  2
*Paper_Space
 70
     0
 10
0.0
 20
0.0
 30
0.0
  3
*Paper_Space
  1

  0
ENDBLK
  5
1D
330
1B
100
AcDbEntity
 67
     1
  8
0
100
AcDbBlockEnd
  0
BLOCK
  5
24
330
23
100
AcDbEntity
  8
0
100
AcDbBlockBegin
  2
*Paper_Space0
 70
     0
 10
0.0
 20
0.0
 30
0.0
  3
*Paper_Space0
  1

  0
ENDBLK
  5
25
330
23
100
AcDbEntity
  8
0
100
AcDbBlockEnd
  0
ENDSEC
  0
SECTION
  2
ENTITIES
  0
SPLINE
  5
44
330
1F
100
AcDbEntity
  8
0
  6
Continuous
 62
     7
370
    15
100
AcDbSpline
210
0.0
220
0.0
230
1.0
 70
     8
 71
     3
 72
    34
 73
    30
 74
     0
 42
0.00000001
 43
0.00000001
 12
1.0
 22
0.0
 32
0.0
 13
1.0
 23
0.0
 33
0.0
 40
0.0
 40
0.0
 40
0.0
 40
0.0
 40
0.0276728044446229
 40
0.0653632578879823
 40
0.1030870939664384
 40
0.1408663342221325
 40
0.1787195918612397
 40
0.2166611826512332
 40
0.2547006258565759
 40
0.2928425548271917
 40
0.3310870090101659
 40
0.3694300368132775
 40
0.407864509220548
 40
0.4463810322845395
 40
0.4849688533340847
 40
0.5236166772167856
 40
0.5623133384427832
 40
0.601048305437741
 40
0.63981201856579
 40
0.6785960811544548
 40
0.7173933320632164
 40
0.756197830792683
 40
0.7950042891542147
 40
0.8338084048342778
 40
0.8726076171419158
 40
0.9114001095870096
 40
0.9501846908224212
 40
0.9889606869780664
 40
1.0
 40
1.0
 40
1.0
 40
1.0
 10
12.36062418263553
 20
-4.138340900603508
 30
0.0
 10
12.39004576176931
 20
-4.056030961069332
 30
0.0
 10
12.45953963140011
 20
-3.861614604921453
 30
0.0
 10
12.54400431078093
 20
-3.545606368643895
 30
0.0
 10
12.61774434931896
 20
-3.192580741965235
 30
0.0
 10
12.66895455077877
 20
-2.83240540577463
 30
0.0
 10
12.69845954970301
 20
-2.466007944469922
 30
0.0
 10
12.70591742511514
 20
-2.09387480371286
 30
0.0
 10
12.69132966124291
 20
-1.716644593246388
 30
0.0
 10
12.65464483886186
 20
-1.33495311214969
 30
0.0
 10
12.59587486715248
 20
-0.9494757520789217
 30
0.0
 10
12.51507240827589
 20
-0.5609132451738752
 30
0.0
 10
12.41234359513269
 20
-0.1699896720861252
 30
0.0
 10
12.28784862430049
 20
0.2225548400326162
 30
0.0
 10
12.14180286264477
 20
0.6159709000932317
 30
0.0
 10
11.97447535810933
 20
1.009506656336575
 30
0.0
 10
11.78618615169209
 20
1.402413679139926
 30
0.0
 10
11.57730269206348
 20
1.793951691914527
 30
0.0
 10
11.34823591118969
 20
2.183392025599218
 30
0.0
 10
11.09943637831886
 20
2.570019920720695
 30
0.0
 10
10.83139065461281
 20
2.953135779185189
 30
0.0
 10
10.54461975479162
 20
3.332054370835979
 30
0.0
 10
10.23967583334573
 20
3.706104034471859
 30
0.0
 10
9.917142942488
 20
4.074632490572561
 30
0.0
 10
9.57761581353627
 20
4.436996082424289
 30
0.0
 10
9.221764078112518
 20
4.792603561895698
 30
0.0
 10
8.850086131646066
 20
5.14074817470039
 30
0.0
 10
8.555898606972702
 20
5.400067611805856
 30
0.0
 10
8.386059163996357
 20
5.543229517272598
 30
0.0
 10
8.348421923448413
 20
5.574954886709333
 30
0.0
  0
SPLINE
  5
45
330
1F
100
AcDbEntity
  8
0
  6
Continuous
 62
     7
370
    15
100
AcDbSpline
210
0.0
220
0.0
230
1.0
 70
     8
 71
     3
 72
    54
 73
    50
 74
     0
 42
0.00000001
 43
0.00000001
 12
1.0
 22
0.0
 32
0.0
 13
1.0
 23
0.0
 33
0.0
 40
0.0
 40
0.0
 40
0.0
 40
0.0
 40
0.0114198633724836
 40
0.0330071743971335
 40
0.0545902732948612
 40
0.0761689611286536
 40
0.0977436413775764
 40
0.1193147953093696
 40
0.1408829642734974
 40
0.1624487354868078
 40
0.1840127305852949
 40
0.205575596332078
 40
0.2271379969349009
 40
0.248700607478109
 40
0.270263934558714
 40
0.2918286058552402
 40
0.3133952974815095
 40
0.3349646746589019
 40
0.3565373844975227
 40
0.3781140473597505
 40
0.399695246263684
 40
0.421281513728323
 40
0.4428733153886407
 40
0.4644710296306798
 40
0.4860749224240088
 40
0.5076851164776206
 40
0.5293015538399674
 40
0.5509239511416383
 40
0.5725517468923814
 40
0.59418404066442
 40
0.6158195247128327
 40
0.6374561549301875
 40
0.6590909286700506
 40
0.6807206452707107
 40
0.7023413949324223
 40
0.7239485307694822
 40
0.7455366852711783
 40
0.7670998494871225
 40
0.7886315334959648
 40
0.8101250230709109
 40
0.8315737388504834
 40
0.8529716903231394
 40
0.8743139986387323
 40
0.8955974427075533
 40
0.9168209669060916
 40
0.9379860810380009
 40
0.9590970876153151
 40
0.9801610885940608
 40
1.0
 40
1.0
 40
1.0
 40
1.0
 10
8.348421923448413
 20
5.574954886709333
 30
0.0
 10
8.277892362657497
 20
5.633502596736129
 30
0.0
 10
8.074038652919747
 20
5.802724803024836
 30
0.0
 10
7.726204498306547
 20
6.075817652598901
 30
0.0
 10
7.301270442493711
 20
6.390678874512126
 30
0.0
 10
6.863874962712816
 20
6.695345801717855
 30
0.0
 10
6.415043137959535
 20
6.989446048897556
 30
0.0
 10
5.955498161698625
 20
7.272442293671043
 30
0.0
 10
5.486064246872249
 20
7.543864175007141
 30
0.0
 10
5.007558140822167
 20
7.803246368813089
 30
0.0
 10
4.520816668561391
 20
8.050146037894322
 30
0.0
 10
4.02668776612922
 20
8.284139012265388
 30
0.0
 10
3.526031233122602
 20
8.504821645444249
 30
0.0
 10
3.019718186726601
 20
8.711810560455964
 30
0.0
 10
2.508628938857842
 20
8.904743892118812
 30
0.0
 10
1.993651099822323
 20
9.083282034396339
 30
0.0
 10
1.475676724798544
 20
9.247108532530333
 30
0.0
 10
0.9556018135298922
 20
9.395930068300983
 30
0.0
 10
0.4343253277457534
 20
9.52947668320877
 30
0.0
 10
-0.0872521861360765
 20
9.647502106305971
 30
0.0
 10
-0.6082299345176586
 20
9.749784031540754
 30
0.0
 10
-1.127708159450877
 20
9.836124349474721
 30
0.0
 10
-1.644789350745778
 20
9.906349341808264
 30
0.0
 10
-2.158579370946576
 20
9.960309851136705
 30
0.0
 10
-2.66818847688126
 20
9.997881443320454
 30
0.0
 10
-3.172732222680943
 20
10.01896458577387
 30
0.0
 10
-3.671332231968237
 20
10.02348487189852
 30
0.0
 10
-4.163116832097431
 20
10.01139332964105
 30
0.0
 10
-4.647221551911564
 20
9.982666860302695
 30
0.0
 10
-5.122789497402248
 20
9.937308861419043
 30
0.0
 10
-5.588969808837033
 20
9.875350336398984
 30
0.0
 10
-6.044915327146193
 20
9.796851906525596
 30
0.0
 10
-6.48978653956421
 20
9.701905615377173
 30
0.0
 10
-6.922753979795337
 20
9.590636631001745
 30
0.0
 10
-7.343001649556427
 20
9.46320458456047
 30
0.0
 10
-7.749725574751706
 20
9.31980672934724
 30
0.0
 10
-8.142136404828396
 20
9.160680655728358
 30
0.0
 10
-8.51946305753636
 20
8.986106851633169
 30
0.0
 10
-8.880957472389504
 20
8.796410720870918
 30
0.0
 10
-9.225900591105084
 20
8.591963683612551
 30
0.0
 10
-9.55360874790803
 20
8.373182609107424
 30
0.0
 10
-9.863442136476335
 20
8.140528185148607
 30
0.0
 10
-10.15480666557139
 20
7.894498189813691
 30
0.0
 10
-10.4271780277673
 20
7.635629796751752
 30
0.0
 10
-10.68003681073572
 20
7.364458904379712
 30
0.0
 10
-10.91312398276359
 20
7.081631956782706
 30
0.0
 10
-11.12549242180134
 20
6.787447416399188
 30
0.0
 10
-11.31538389980425
 20
6.489230927300206
 30
0.0
 10
-11.42368545639225
 20
6.283987019253231
 30
0.0
 10
-11.47621435619448
 20
6.184438711542085
 30
0.0
  0
SPLINE
  5
48
330
1F
100
AcDbEntity
  8
0
  6
Continuous
 62
     7
370
    15
100
AcDbSpline
210
0.0
220
0.0
230
1.0
 70
     8
 71
     3
 72
    81
 73
    77
 74
     0
 42
0.00000001
 43
0.00000001
 12
1.0
 22
0.0
 32
0.0
 13
1.0
 23
0.0
 33
0.0
 40
0.0
 40
0.0
 40
0.0
 40
0.0
 40
0.0013254897612795
 40
0.0148180696613456
 40
0.0283175220176423
 40
0.0418322566464513
 40
0.0553697088012396
 40
0.0689359481397708
 40
0.0825354152330233
 40
0.0961708026690239
 40
0.1098430807452374
 40
0.1235516510795188
 40
0.1372945978877877
 40
0.1510689985511314
 40
0.164871253635606
 40
0.1786974013214521
 40
0.1925433903862314
 40
0.2064052968779958
 40
0.2202794799616719
 40
0.2341626804594925
 40
0.2480520706664866
 40
0.2619452662730066
 40
0.2758403113254531
 40
0.2897353038292353
 40
0.3036290495161914
 40
0.3175207452420738
 40
0.3314098365779444
 40
0.3452959767079139
 40
0.359178989764748
 40
0.3730588389882746
 40
0.3869355996371969
 40
0.4008094363208886
 40
0.4146805842809663
 40
0.4285493340994572
 40
0.4424160193091681
 40
0.4562810064096788
 40
0.4701446868337534
 40
0.4840074704542958
 40
0.497869780264502
 40
0.5117320479005071
 40
0.5255946573852275
 40
0.5394579531751079
 40
0.5533223716006774
 40
0.5671883436947793
 40
0.5810562908248817
 40
0.5949266195529913
 40
0.6087997153797654
 40
0.622675935005785
 40
0.6365555966979098
 40
0.650438968299093
 40
0.6643262523708083
 40
0.6782175679171536
 40
0.6921129281218537
 40
0.7060122135541783
 40
0.7199151403966586
 40
0.7338212234571132
 40
0.7477297341036337
 40
0.761639653869675
 40
0.7755491310948079
 40
0.7894562474386668
 40
0.8033586782042125
 40
0.8172536293082602
 40
0.831137834908973
 40
0.8450075904286412
 40
0.858858833106265
 40
0.8726872809666562
 40
0.8864886369323158
 40
0.9002588571945825
 40
0.913994472158551
 40
0.9276929357204947
 40
0.9413529669648454
 40
0.9549748408600689
 40
0.9685605840393267
 40
0.9821140395221601
 40
0.995640779263287
 40
1.0
 40
1.0
 40
1.0
 40
1.0
 10
-11.90604438831663
 20
5.188227270111795
 30
0.0
 10
-11.91029579528629
 20
5.177344743251412
 30
0.0
 10
-11.95782361969904
 20
5.055685530317954
 30
0.0
 10
-12.02851415377854
 20
4.815201017235687
 30
0.0
 10
-12.11630086358712
 20
4.466986027552692
 30
0.0
 10
-12.18013803432837
 20
4.110685604231248
 30
0.0
 10
-12.22273337244382
 20
3.747990770675571
 30
0.0
 10
-12.24322549439209
 20
3.379166531541345
 30
0.0
 10
-12.24173655950349
 20
3.004890256850313
 30
0.0
 10
-12.21815815424627
 20
2.625764399916854
 30
0.0
 10
-12.1724872471296
 20
2.242450403152272
 30
0.0
 10
-12.10474528679018
 20
1.85563193117414
 30
0.0
 10
-12.01500791852527
 20
1.466020602338167
 30
0.0
 10
-11.9034026091254
 20
1.074347673212727
 30
0.0
 10
-11.7701121707772
 20
0.6813579346704514
 30
0.0
 10
-11.61537402569038
 20
0.2878025418867857
 30
0.0
 10
-11.43947836306767
 20
-0.1055673919270854
 30
0.0
 10
-11.24276496703365
 20
-0.4980062560819231
 30
0.0
 10
-11.02561945368752
 20
-0.8887781486899455
 30
0.0
 10
-10.78846932822828
 20
-1.277159840952286
 30
0.0
 10
-10.53178021974635
 20
-1.66244263847499
 30
0.0
 10
-10.2560525018736
 20
-2.043933368832594
 30
0.0
 10
-9.961820809589783
 20
-2.420951654006506
 30
0.0
 10
-9.649649798852966
 20
-2.792833269043755
 30
0.0
 10
-9.320131440276361
 20
-3.158930710918866
 30
0.0
 10
-8.973880240663547
 20
-3.518615639550534
 30
0.0
 10
-8.611534412999077
 20
-3.871275253899182
 30
0.0
 10
-8.233755579221548
 20
-4.216311322469713
 30
0.0
 10
-7.841227841289032
 20
-4.553140231440157
 30
0.0
 10
-7.43465689914898
 20
-4.881193175616191
 30
0.0
 10
-7.014769174099095
 20
-5.199916479874812
 30
0.0
 10
-6.582310907955557
 20
-5.508772032363443
 30
0.0
 10
-6.138047218292749
 20
-5.807237808010668
 30
0.0
 10
-5.682761097862881
 20
-6.094808460522259
 30
0.0
 10
-5.217252352344278
 20
-6.370995962070652
 30
0.0
 10
-4.742336475105137
 20
-6.635330271687501
 30
0.0
 10
-4.258843461019833
 20
-6.88736001550658
 30
0.0
 10
-3.767616563807196
 20
-7.126653164222081
 30
0.0
 10
-3.269511003212652
 20
-7.352797695241809
 30
0.0
 10
-2.765393263682545
 20
-7.565401961635421
 30
0.0
 10
-2.256140257947559
 20
-7.764095196243105
 30
0.0
 10
-1.742636802802879
 20
-7.948528672795057
 30
0.0
 10
-1.225773496452756
 20
-8.11837642246066
 30
0.0
 10
-0.7064447337155315
 20
-8.273335730567323
 30
0.0
 10
-0.1855484393145533
 20
-8.413127093599941
 30
0.0
 10
0.3360153210158435
 20
-8.537494568498717
 30
0.0
 10
0.8573456959982778
 20
-8.646206070141984
 30
0.0
 10
1.377542355776559
 20
-8.739053620804443
 30
0.0
 10
1.895706734757375
 20
-8.815853558562251
 30
0.0
 10
2.410943194022882
 20
-8.87644671532833
 30
0.0
 10
2.922360086871745
 20
-8.920698579773518
 30
0.0
 10
3.429070711743637
 20
-8.948499465905865
 30
0.0
 10
3.930194138841496
 20
-8.959764714604871
 30
0.0
 10
4.424855900896333
 20
-8.954434962852856
 30
0.0
 10
4.912188545511894
 20
-8.932476523484189
 30
0.0
 10
5.391332057830485
 20
-8.893881926234783
 30
0.0
 10
5.861434177652614
 20
-8.83867067779361
 30
0.0
 10
6.321645209452397
 20
-8.766891151663273
 30
0.0
 10
6.77112245179354
 20
-8.678622363117341
 30
0.0
 10
7.209031267454376
 20
-8.573976026089491
 30
0.0
 10
7.634550915890472
 20
-8.453097304012113
 30
0.0
 10
8.046872270400492
 20
-8.31616781926455
 30
0.0
 10
8.445199656491402
 20
-8.163408429608323
 30
0.0
 10
8.828754043748726
 20
-7.995081885809508
 30
0.0
 10
9.19677737798358
 20
-7.811495137425695
 30
0.0
 10
9.548537948990953
 20
-7.613000802944354
 30
0.0
 10
9.883337141454925
 20
-7.399997564769597
 30
0.0
 10
10.20051533221863
 20
-7.172928164625282
 30
0.0
 10
10.49946322006237
 20
-6.932277917106631
 30
0.0
 10
10.77961210357585
 20
-6.67856158718305
 30
0.0
 10
11.04049768340732
 20
-6.412343720378272
 30
0.0
 10
11.28154183887268
 20
-6.134126321177591
 30
0.0
 10
11.50287053838898
 20
-5.844724380787827
 30
0.0
 10
11.70226575609792
 20
-5.543826971578468
 30
0.0
 10
11.84496213633057
 20
-5.304846600643315
 30
0.0
 10
11.91407169679956
 20
-5.163108779261877
 30
0.0
 10
11.93091528926276
 20
-5.12856400595166
 30
0.0
  0
LWPOLYLINE
  5
4F
330
1F
100
AcDbEntity
  8
0
  6
Continuous
 62
     7
370
    15
100
AcDbPolyline
 90
      140
 70
   128
 43
0.0
 10
8.1808434897
 20
5.5464118142
 10
7.7640188147
 20
5.8846512631
 10
7.3322743157
 20
6.2130421596
 10
6.886492022
 20
6.53091362
 10
6.4275826411
 20
6.837616251
 10
5.9564836988
 20
7.1325234768
 10
5.4741576231
 20
7.4150328189
 10
4.9815897786
 20
7.6845671267
 10
4.4797864531
 20
7.9405757572
 10
3.9697728021
 20
8.1825356993
 10
3.4525907543
 20
8.4099526429
 10
2.929296883
 20
8.6223619881
 10
2.4009602474
 20
8.8193297948
 10
1.8686602092
 20
9.000453669
 10
1.3334842268
 20
9.1653635851
 10
0.7965256341
 20
9.3137226415
 10
0.2588814066
 20
9.4452277493
 10
-0.2783500792
 20
9.5596102509
 10
-0.8140712902
 20
9.6566364695
 10
-1.3471877787
 20
9.7361081861
 10
-1.8766104182
 20
9.7978630445
 10
-2.4012576286
 20
9.8417748832
 10
-2.9200575858
 20
9.8677539926
 10
-3.4319504111
 20
9.8757472991
 10
-3.9358903368
 20
9.8657384726
 10
-4.4308478426
 20
9.8377479608
 10
-4.9158117586
 20
9.7918329465
 10
-5.3897913313
 20
9.7280872316
 10
-5.8518182477
 20
9.6466410448
 10
-6.3009486131
 20
9.5476607762
 10
-6.7362648801
 20
9.4313486366
 10
-7.1568777223
 20
9.2979422451
 10
-7.561927852
 20
9.1477141434
 10
-7.9505877748
 20
8.9809712388
 10
-8.3220634808
 20
8.7980541776
 10
-8.6755960665
 20
8.5993366488
 10
-9.0104632849
 20
8.3852246209
 10
-9.3259810217
 20
8.1561555126
 10
-9.6215046921
 20
7.9125972989
 10
-9.8964305582
 20
7.6550475552
 10
-10.1501969621
 20
7.3840324411
 10
-10.3822854738
 20
7.1001056247
 10
-10.5922219497
 20
6.8038471523
 10
-10.7795775015
 20
6.4958622631
 10
-10.9439693726
 20
6.1767801524
 10
-11.0850617198
 20
5.8472526868
 10
-11.2025662996
 20
5.5079530719
 10
-11.2962430568
 20
5.1595744775
 10
-11.3659006152
 20
4.8028286211
 10
-11.4113966684
 20
4.438444314
 10
-11.4326382705
 20
4.0671659724
 10
-11.4295820262
 20
3.6897520968
 10
-11.4022341793
 20
3.3069737221
 10
-11.3506505997
 20
2.9196128424
 10
-11.2749366698
 20
2.5284608141
 10
-11.1752470688
 20
2.1343167381
 10
-11.0517854569
 20
1.7379858283
 10
-10.904804059
 20
1.340277766
 10
-10.7346031497
 20
0.9420050461
 10
-10.5415304398
 20
0.5439813167
 10
-10.3259803657
 20
0.1470197177
 10
-10.0883932839
 20
-0.2480687812
 10
-9.8292545711
 20
-0.6404770369
 10
-9.5490936329
 20
-1.0294033816
 10
-9.2484828221
 20
-1.4140532613
 10
-8.9280362692
 20
-1.7936408582
 10
-8.5884086284
 20
-2.1673906967
 10
-8.2302937392
 20
-2.5345392271
 10
-7.8544232101
 20
-2.8943363862
 10
-7.4615649228
 20
-3.2460471289
 10
-7.0525214645
 20
-3.5889529304
 10
-6.6281284873
 20
-3.9223532537
 10
-6.1892530019
 20
-4.2455669811
 10
-5.7367916058
 20
-4.5579338054
 10
-5.2716686516
 20
-4.8588155792
 10
-4.7948343589
 20
-5.1475976181
 10
-4.3072628728
 20
-5.4236899572
 10
-3.8099502739
 20
-5.6865285554
 10
-3.3039125435
 20
-5.9355764487
 10
-2.7901834874
 20
-6.1703248464
 10
-2.2698126249
 20
-6.3902941711
 10
-1.7438630437
 20
-6.5950350379
 10
-1.2134092287
 20
-6.7841291731
 10
-0.6795348666
 20
-6.9571902681
 10
-0.1433306322
 20
-7.1138647691
 10
0.3941080399
 20
-7.2538325991
 10
0.9316831935
 20
-7.3768078117
 10
1.4682965932
 20
-7.4825391756
 10
2.0028519686
 20
-7.5708106878
 10
2.5342572538
 20
-7.6414420146
 10
3.0614268181
 20
-7.6942888602
 10
3.5832836844
 20
-7.7292432617
 10
4.098761729
 20
-7.746233809
 10
4.6068078597
 20
-7.7452257916
 10
5.1063841675
 20
-7.7262212686
 10
5.5964700465
 20
-7.6892590654
 10
6.0760642795
 20
-7.6344146936
 10
6.5441870828
 20
-7.5618001969
 10
6.9998821084
 20
-7.4715639228
 10
7.4422183975
 20
-7.3638902188
 10
7.8702922823
 20
-7.238999056
 10
8.2832292326
 20
-7.09714558
 10
8.6801856416
 20
-6.9386195892
 10
9.0603505503
 20
-6.7637449433
 10
9.4229473036
 20
-6.572878901
 10
9.7672351369
 20
-6.3664113907
 10
10.09251069
 20
-6.1447642138
 10
10.3981094437
 20
-5.9083901828
 10
10.683407077
 20
-5.6577721962
 10
10.9478207434
 20
-5.3934222522
 10
11.1908102609
 20
-5.1158804026
 10
11.4118792158
 20
-4.8257136495
 10
11.6105759768
 20
-4.5235147869
 10
11.786494618
 20
-4.2099011899
 10
11.9392757475
 20
-3.885513553
 10
12.0686072424
 20
-3.5510145816
 10
12.1742248857
 20
-3.2070876379
 10
12.2559129066
 20
-2.8544353449
 10
12.3135044213
 20
-2.4937781512
 10
12.3468817736
 20
-2.1258528585
 10
12.3559767754
 20
-1.7514111173
 10
12.3407708461
 20
-1.3712178906
 10
12.3012950507
 20
-0.9860498914
 10
12.2376300359
 20
-0.5966939957
 10
12.1499058657
 20
-0.2039456354
 10
12.0383017555
 20
0.1913928271
 10
11.9030457061
 20
0.588513738
 10
11.744414038
 20
0.986605802
 10
11.5627308264
 20
1.3848557399
 10
11.3583672398
 20
1.7824499498
 10
11.1317407813
 20
2.1785761696
 10
10.8833144358
 20
2.5724251361
 10
10.6135957241
 20
2.9631922384
 10
10.3231356659
 20
3.3500791617
 10
10.0125276547
 20
3.7322955182
 10
9.6824062446
 20
4.1090604618
 10
9.333445855
 20
4.4796042833
 10
8.9663593918
 20
4.843169983
 10
8.5818967917
 20
5.1990148168
 10
8.1808434897
 20
5.5464118142
  0
LWPOLYLINE
  5
51
330
1F
100
AcDbEntity
  8
0
  6
Continuous
 62
     7
370
    15
100
AcDbPolyline
 90
        3
 70
   128
 43
0.0
 10
-11.7448125378
 20
5.5652045899
 10
-11.6096915467
 20
5.9039275658
 10
-11.4845514144
 20
6.1681487675
  0
LWPOLYLINE
  5
52
330
1F
100
AcDbEntity
  8
0
  6
Continuous
 62
     7
370
    15
100
AcDbPolyline
 90
        3
 70
   128
 43
0.0
 10
-11.7750016521
 20
5.5225629606
 10
-11.8994402874
 20
5.2078186105
 10
-11.8998733734
 20
5.2066100695
  0
LWPOLYLINE
  5
53
330
1F
100
AcDbEntity
  8
0
  6
Continuous
 62
     7
370
    15
100
AcDbPolyline
 90
        3
 70
   128
 43
0.0
 10
11.9412292131
 20
-5.112582833
 10
11.9936592944
 20
-5.0069586707
 10
12.0822778596
 20
-4.8133073123
  0
LWPOLYLINE
  5
60
330
1F
100
AcDbEntity
  8
0
  6
Continuous
 62
     7
370
    15
100
AcDbPolyline
 90
        8
 70
   128
 43
0.0
 10
0.427543317
 20
0.3432891738
 10
0.4350232873
 20
0.3470031301
 10
0.4622795735
 20
0.3493722988
 10
0.4877733906
 20
0.3335785383
 10
0.5107301218
 20
0.3001017339
 10
0.5304522384
 20
0.2499590615
 10
0.546340494
 20
0.1846740807
 10
0.5579121319
 20
0.1062304427
  0
LWPOLYLINE
  5
63
330
1F
100
AcDbEntity
  8
0
  6
Continuous
 62
     7
370
    15
100
AcDbPolyline
 90
        9
 70
   128
 43
0.0
 10
-0.8712721778
 20
1.3043319674
 10
-0.7433594297
 20
1.2732949805
 10
-0.6262665229
 20
1.2298225792
 10
-0.5244932722
 20
1.1755853836
 10
-0.4419507666
 20
1.1126676985
 10
-0.3818110681
 20
1.0434874154
 10
-0.3463853118
 20
0.9707030937
 10
-0.3370348896
 20
0.8971117942
 10
-0.3541191329
 20
0.8255415891
  0
LWPOLYLINE
  5
73
330
1F
100
AcDbEntity
  8
0
  6
Continuous
 62
     7
370
    15
100
AcDbPolyline
 90
       71
 70
   128
 43
0.0
 10
12.0930825959
 20
-4.7614480397
 10
11.9758127481
 20
-4.9780937726
 10
11.7811612987
 20
-5.2925649928
 10
11.5637295126
 20
-5.5951201536
 10
11.3239490804
 20
-5.8851585599
 10
11.0622960639
 20
-6.1621043672
 10
10.7792899511
 20
-6.4254077252
 10
10.4754926243
 20
-6.6745458695
 10
10.151507245
 20
-6.9090241593
 10
9.8079770563
 20
-7.1283770598
 10
9.4455841054
 20
-7.332169066
 10
9.0650478901
 20
-7.5199955678
 10
8.6671239297
 20
-7.6914836531
 10
8.2526022655
 20
-7.846292848
 10
7.8223058919
 20
-7.9841157934
 10
7.3770891225
 20
-8.1046788545
 10
6.917835894
 20
-8.2077426645
 10
6.445458011
 20
-8.2931025997
 10
5.9608933363
 20
-8.3605891859
 10
5.4651039282
 20
-8.4100684347
 10
4.9590741305
 20
-8.4414421097
 10
4.4438086186
 20
-8.4546479214
 10
3.9203304045
 20
-8.4496596507
 10
3.3896788057
 20
-8.4264872015
 10
2.8529073819
 20
-8.3851765806
 10
2.3110818431
 20
-8.3258098062
 10
1.7652779336
 20
-8.2485047457
 10
1.2165792967
 20
-8.1534148812
 10
0.6660753227
 20
-8.0407290046
 10
0.1148589862
 20
-7.9106708435
 10
-0.4359753237
 20
-7.7634986162
 10
-0.9853339765
 20
-7.5995045196
 10
-1.5321262714
 20
-7.4190141488
 10
-2.0752666029
 20
-7.2223858507
 10
-2.6136766163
 20
-7.0100100126
 10
-3.1462873482
 20
-6.782308287
 10
-3.6720413493
 20
-6.5397327547
 10
-4.1898947837
 20
-6.2827650269
 10
-4.6988195015
 20
-6.0119152893
 10
-5.1978050795
 20
-5.727721289
 10
-5.6858608283
 20
-5.4307472667
 10
-6.1620177582
 20
-5.121582837
 10
-6.6253305038
 20
-4.8008418173
 10
-7.0748792005
 20
-4.469161009
 10
-7.5097713109
 20
-4.1271989338
 10
-7.9291433971
 20
-3.7756345257
 10
-8.3321628345
 20
-3.4151657834
 10
-8.7180294655
 20
-3.046508384
 10
-9.0859771874
 20
-2.6703942628
 10
-9.4352754742
 20
-2.2875701596
 10
-9.7652308265
 20
-1.8987961361
 10
-10.0751881483
 20
-1.5048440672
 10
-10.3645320483
 20
-1.1064961083
 10
-10.6326880608
 20
-0.7045431423
 10
-10.8791237869
 20
-0.2997832097
 10
-11.1033499513
 20
0.1069800762
 10
-11.3049213736
 20
0.5149391244
 10
-11.4834378525
 20
0.9232839702
 10
-11.6385449601
 20
1.3312038825
 10
-11.7699347455
 20
1.7378889741
 10
-11.8773463464
 20
2.1425318095
 10
-11.9605665072
 20
2.5443290078
 10
-12.0194300018
 20
2.9424828377
 10
-12.0538199622
 20
3.3362028018
 10
-12.0636681104
 20
3.7247072055
 10
-12.0489548937
 20
4.1072247093
 10
-12.009709524
 20
4.48299586
 10
-11.9460099192
 20
4.8512745988
 10
-11.857982549
 20
5.2113297424
 10
-11.7458021836
 20
5.5624464346
 10
-11.7448125378
 20
5.5652045899
  0
LWPOLYLINE
  5
74
330
1F
100
AcDbEntity
  8
0
  6
Continuous
 62
     7
370
    15
100
AcDbPolyline
 90
       70
 70
   128
 43
0.0
 10
-11.8998733734
 20
5.2066100695
 10
-12.0116206528
 20
4.8567019183
 10
-12.0996480229
 20
4.4966467747
 10
-12.1633476278
 20
4.1283680358
 10
-12.2025929975
 20
3.7525968851
 10
-12.2173062142
 20
3.3700793814
 10
-12.207458066
 20
2.9815749777
 10
-12.1730681055
 20
2.5878550136
 10
-12.1142046109
 20
2.1897011837
 10
-12.0309844502
 20
1.7879039854
 10
-11.9235728492
 20
1.38326115
 10
-11.7921830639
 20
0.9765760583
 10
-11.6370759563
 20
0.568656146
 10
-11.4585594774
 20
0.1603113003
 10
-11.256988055
 20
-0.247647748
 10
-11.0327618907
 20
-0.6544110338
 10
-10.7863261646
 20
-1.0591709664
 10
-10.5181701521
 20
-1.4611239324
 10
-10.2288262521
 20
-1.8594718913
 10
-9.9188689302
 20
-2.2534239602
 10
-9.588913578
 20
-2.6421979837
 10
-9.2396152912
 20
-3.025022087
 10
-8.8716675692
 20
-3.4011362082
 10
-8.4858009383
 20
-3.7697936075
 10
-8.0827815009
 20
-4.1302623499
 10
-7.6634094147
 20
-4.481826758
 10
-7.2285173043
 20
-4.8237888331
 10
-6.7789686076
 20
-5.1554696414
 10
-6.315655862
 20
-5.4762106612
 10
-5.8394989321
 20
-5.7853750908
 10
-5.3514431833
 20
-6.0823491131
 10
-4.8524576052
 20
-6.3665431135
 10
-4.3435328875
 20
-6.6373928511
 10
-3.8256794531
 20
-6.8943605788
 10
-3.2999254519
 20
-7.1369361111
 10
-2.7673147201
 20
-7.3646378367
 10
-2.2289047067
 20
-7.5770136748
 10
-1.6857643752
 20
-7.7736419729
 10
-1.1389720803
 20
-7.9541323437
 10
-0.5896134275
 20
-8.1181264403
 10
-0.0387791176
 20
-8.2652986676
 10
0.5124372189
 20
-8.3953568288
 10
1.0629411929
 20
-8.5080427053
 10
1.6116398299
 20
-8.6031325699
 10
2.1574437393
 20
-8.6804376303
 10
2.6992692782
 20
-8.7398044047
 10
3.236040702
 20
-8.7811150257
 10
3.7666923007
 20
-8.8042874749
 10
4.2901705148
 20
-8.8092757455
 10
4.8054360267
 20
-8.7960699339
 10
5.3114658244
 20
-8.7646962589
 10
5.8072552326
 20
-8.71521701
 10
6.2918199073
 20
-8.6477304238
 10
6.7641977902
 20
-8.5623704886
 10
7.2234510187
 20
-8.4593066786
 10
7.6686677882
 20
-8.3387436175
 10
8.0989641618
 20
-8.2009206722
 10
8.5134858259
 20
-8.0461114772
 10
8.9114097863
 20
-7.8746233919
 10
9.2919460016
 20
-7.6867968901
 10
9.6543389525
 20
-7.4830048839
 10
9.9978691413
 20
-7.2636519834
 10
10.3218545205
 20
-7.0291736936
 10
10.6256518473
 20
-6.7800355493
 10
10.9086579602
 20
-6.5167321913
 10
11.1703109766
 20
-6.239786384
 10
11.4100914088
 20
-5.9497479778
 10
11.6275231949
 20
-5.6471928169
 10
11.8221746443
 20
-5.3327215967
 10
11.9412292131
 20
-5.112582833
  0
LINE
  5
79
330
1F
100
AcDbEntity
  8
0
  6
Continuous
 62
     7
370
    15
100
AcDbLine
 10
12.0822778596
 20
-4.8133073123
 30
0.0
 11
12.2359159634
 21
-4.4586794882
 31
0.0
  0
LINE
  5
7A
330
1F
100
AcDbEntity
  8
0
  6
Continuous
 62
     7
370
    15
100
AcDbLine
 10
-11.6213635483
 20
5.8771907847
 30
0.0
 11
-11.7750016521
 21
5.5225629606
 31
0.0
  0
LINE
  5
7B
330
1F
100
AcDbEntity
  8
0
  6
Continuous
 62
     7
370
    15
100
AcDbLine
 10
0.427543317
 20
0.3432891738
 30
0.0
 11
-0.7819054905
 21
-0.3589696724
 31
0.0
  0
LINE
  5
7C
330
1F
100
AcDbEntity
  8
0
  6
Continuous
 62
     7
370
    15
100
AcDbLine
 10
-0.7561398901
 20
-0.3805692694
 30
0.0
 11
-1.6991120328
 21
0.4099350443
 31
0.0
  0
LINE
  5
7D
330
1F
100
AcDbEntity
  8
0
  6
Continuous
 62
     7
370
    15
100
AcDbLine
 10
1.9397562163
 20
-0.8831592438
 30
0.0
 11
0.4823844822
 21
0.3385721207
 31
0.0
  0
LINE
  5
7E
330
1F
100
AcDbEntity
  8
0
  6
Continuous
 62
     7
370
    15
100
AcDbLine
 10
2.5714305612
 20
-0.4798212759
 30
0.0
 11
1.9139906159
 21
-0.8615596468
 31
0.0
  0
LINE
  5
7F
330
1F
100
AcDbEntity
  8
0
  6
Continuous
 62
     7
370
    15
100
AcDbLine
 10
-0.4605876605
 20
1.1290764344
 30
0.0
 11
-1.9179593947
 21
2.3508077989
 31
0.0
  0
LINE
  5
80
330
1F
100
AcDbEntity
  8
0
  6
Continuous
 62
     7
370
    15
100
AcDbLine
 10
2.3525831993
 20
1.4610514787
 30
0.0
 11
1.1140588271
 21
0.7419100886
 31
0.0
  0
LINE
  5
81
330
1F
100
AcDbEntity
  8
0
  6
Continuous
 62
     7
370
    15
100
AcDbLine
 10
-2.3286439119
 20
2.5260633319
 30
0.0
 11
-1.0934552434
 21
3.2432678666
 31
0.0
  0
LINE
  5
82
330
1F
100
AcDbEntity
  8
0
  6
Continuous
 62
     7
370
    15
100
AcDbLine
 10
-0.8712721778
 20
1.3043319674
 30
0.0
 11
-2.3286439119
 21
2.5260633319
 31
0.0
  0
LINE
  5
83
330
1F
100
AcDbEntity
  8
0
  6
Continuous
 62
     7
370
    15
100
AcDbLine
 10
-2.10979655
 20
0.5851905773
 30
0.0
 11
-0.8712721778
 21
1.3043319674
 31
0.0
  0
LINE
  5
84
330
1F
100
AcDbEntity
  8
0
  6
Continuous
 62
     7
370
    15
100
AcDbLine
 10
-0.6806122404
 20
-0.6129109474
 30
0.0
 11
-2.10979655
 21
0.5851905773
 31
0.0
  0
LINE
  5
85
330
1F
100
AcDbEntity
  8
0
  6
Continuous
 62
     7
370
    15
100
AcDbLine
 10
0.5579121319
 20
0.1062304427
 30
0.0
 11
-0.6806122404
 21
-0.6129109474
 31
0.0
  0
LINE
  5
86
330
1F
100
AcDbEntity
  8
0
  6
Continuous
 62
     7
370
    15
100
AcDbLine
 10
2.015283866
 20
-1.1155009218
 30
0.0
 11
0.5579121319
 21
0.1062304427
 31
0.0
  0
LINE
  5
87
330
1F
100
AcDbEntity
  8
0
  6
Continuous
 62
     7
370
    15
100
AcDbLine
 10
3.2504725346
 20
-0.3982963871
 30
0.0
 11
2.015283866
 21
-1.1155009218
 31
0.0
  0
LINE
  5
88
330
1F
100
AcDbEntity
  8
0
  6
Continuous
 62
     7
370
    15
100
AcDbLine
 10
1.7931008004
 20
0.8234349774
 30
0.0
 11
3.2504725346
 21
-0.3982963871
 31
0.0
  0
LINE
  5
89
330
1F
100
AcDbEntity
  8
0
  6
Continuous
 62
     7
370
    15
100
AcDbLine
 10
3.0316251727
 20
1.5425763675
 30
0.0
 11
1.7931008004
 21
0.8234349774
 31
0.0
  0
LINE
  5
8A
330
1F
100
AcDbEntity
  8
0
  6
Continuous
 62
     7
370
    15
100
AcDbLine
 10
1.6024408631
 20
2.7406778922
 30
0.0
 11
3.0316251727
 21
1.5425763675
 31
0.0
  0
LINE
  5
8B
330
1F
100
AcDbEntity
  8
0
  6
Continuous
 62
     7
370
    15
100
AcDbLine
 10
0.3639164908
 20
2.0215365021
 30
0.0
 11
1.6024408631
 21
2.7406778922
 31
0.0
  0
LINE
  5
8C
330
1F
100
AcDbEntity
  8
0
  6
Continuous
 62
     7
370
    15
100
AcDbLine
 10
-1.0934552434
 20
3.2432678666
 30
0.0
 11
0.3639164908
 21
2.0215365021
 31
0.0
  0
LINE
  5
8D
330
1F
100
AcDbEntity
  8
0
  6
Continuous
 62
     7
370
    15
100
AcDbLine
 10
-0.8445442793
 20
-0.3064588606
 30
0.0
 11
-0.3541191329
 21
0.8255415891
 31
0.0
  0
LINE
  5
8E
330
1F
100
AcDbEntity
  8
0
  6
Continuous
 62
     7
370
    15
100
AcDbLine
 10
0.7582616639
 20
0.1073011294
 30
0.0
 11
0.968671548
 21
0.5929697074
 31
0.0
  0
LINE
  5
8F
330
1F
100
AcDbEntity
  8
0
  6
Continuous
 62
     7
370
    15
100
AcDbLine
 10
0.2634752014
 20
1.1841438565
 30
0.0
 11
-1.1938965328
 21
2.405875221
 31
0.0
  0
LINE
  5
90
330
1F
100
AcDbEntity
  8
0
  6
Continuous
 62
     7
370
    15
100
AcDbLine
 10
1.5019995736
 20
1.9032852466
 30
0.0
 11
0.2634752014
 21
1.1841438565
 31
0.0
  0
LINE
  5
91
330
1F
100
AcDbEntity
  8
0
  6
Continuous
 62
     7
370
    15
100
AcDbLine
 10
-1.4043064169
 20
1.9202066429
 30
0.0
 11
-1.1938965328
 21
2.405875221
 31
0.0
  0
LINE
  5
92
330
1F
100
AcDbEntity
  8
0
  6
Continuous
 62
     7
370
    15
100
AcDbLine
 10
-0.2783992166
 20
-0.06661192
 30
0.0
 11
0.2634752014
 21
1.1841438565
 31
0.0
  0
LINE
  5
93
330
1F
100
AcDbEntity
  8
0
  6
Continuous
 62
     7
370
    15
100
AcDbLine
 10
0.7330634374
 20
0.1284250903
 30
0.0
 11
1.5019995736
 21
1.9032852466
 31
0.0
  0
LINE
  5
94
330
1F
100
AcDbEntity
  8
0
  6
Continuous
 62
     7
370
    15
100
AcDbLine
 10
-0.3541191329
 20
0.8255415891
 30
0.0
 11
-1.4416302291
 21
0.1940851084
 31
0.0
  0
LINE
  5
95
330
1F
100
AcDbEntity
  8
0
  6
Continuous
 62
     7
370
    15
100
AcDbLine
 10
2.380571674
 20
-0.5906422888
 30
0.0
 11
0.968671548
 21
0.5929697074
 31
0.0
  0
LINE
  5
96
330
1F
100
AcDbEntity
  8
0
  6
Continuous
 62
     7
370
    15
100
AcDbLine
 10
-1.1938965328
 20
2.405875221
 30
0.0
 11
-1.6604775909
 21
2.134957863
 31
0.0
  0
LINE
  5
97
330
1F
100
AcDbEntity
  8
0
  6
Continuous
 62
     7
370
    15
100
AcDbLine
 10
2.1617243122
 20
1.3502304658
 30
0.0
 11
1.5019995736
 21
1.9032852466
 31
0.0
  0
ARC
  5
98
330
1F
100
AcDbEntity
  8
0
  6
Continuous
 62
     7
370
    15
100
AcDbCircle
 10
7.430420981
 20
-2.376760518
 30
0.0
 40
5.237093460186601
100
AcDbArc
 50
332.9128263451
 51
340.1346926974
  0
ARC
  5
99
330
1F
100
AcDbEntity
  8
0
  6
Continuous
 62
     7
370
    15
100
AcDbCircle
 10
-1.0641933936
 20
-0.6091554541
 30
0.0
 40
0.3835995370325903
100
AcDbArc
 50
359.4390573141
 51
36.5766727069
  0
ARC
  5
9A
330
1F
100
AcDbEntity
  8
0
  6
Continuous
 62
     7
370
    15
100
AcDbCircle
 10
-2.2451491941
 20
-0.3008035475
 30
0.0
 40
0.8962733552635347
100
AcDbArc
 50
52.4661083043
 51
81.3141237569
  0
ARC
  5
9B
330
1F
100
AcDbEntity
  8
0
  6
Continuous
 62
     7
370
    15
100
AcDbCircle
 10
1.6356067986
 20
-1.1104763216
 30
0.0
 40
0.3797103134375492
100
AcDbArc
 50
359.2417988727
 51
36.7739311483
  0
ARC
  5
9C
330
1F
100
AcDbEntity
  8
0
  6
Continuous
 62
     7
370
    15
100
AcDbCircle
 10
3.0283838839
 20
-1.4171832581
 30
0.0
 40
1.042810541158119
100
AcDbArc
 50
77.7034686128
 51
115.9887079188
  0
ARC
  5
9D
330
1F
100
AcDbEntity
  8
0
  6
Continuous
 62
     7
370
    15
100
AcDbCircle
 10
1.5566880514
 20
0.079317087
 30
0.0
 40
0.7807704033377805
100
AcDbArc
 50
72.3744932474
 51
138.861670423
  0
ARC
  5
9E
330
1F
100
AcDbEntity
  8
0
  6
Continuous
 62
     7
370
    15
100
AcDbCircle
 10
-2.463996556
 20
1.6400692071
 30
0.0
 40
0.8962733552635515
100
AcDbArc
 50
52.4661083043
 51
81.3141237569
  0
ARC
  5
9F
330
1F
100
AcDbEntity
  8
0
  6
Continuous
 62
     7
370
    15
100
AcDbCircle
 10
2.809536522
 20
0.5236894965
 30
0.0
 40
1.042810541158121
100
AcDbArc
 50
77.7034686128
 51
115.9887079188
  0
ARC
  5
A0
330
1F
100
AcDbEntity
  8
0
  6
Continuous
 62
     7
370
    15
100
AcDbCircle
 10
-2.9955122334
 20
3.0466905596
 30
0.0
 40
1.912188126469715
100
AcDbArc
 50
340.4200740001
 51
5.9005614525
  0
ARC
  5
A1
330
1F
100
AcDbEntity
  8
0
  6
Continuous
 62
     7
370
    15
100
AcDbCircle
 10
-1.5381404993
 20
1.8249591951
 30
0.0
 40
1.912188126469716
100
AcDbArc
 50
340.4200740001
 51
5.9005614525
  0
ARC
  5
A2
330
1F
100
AcDbEntity
  8
0
  6
Continuous
 62
     7
370
    15
100
AcDbCircle
 10
-0.299616127
 20
2.5441005852
 30
0.0
 40
1.912188126469718
100
AcDbArc
 50
340.4200740001
 51
5.9005614525
  0
MTEXT
  5
A4
330
1F
100
AcDbEntity
  8
0
  6
Continuous
 62
     7
100
AcDbMText
 10
-12.2395507314
 20
-9.9765648421
 30
0.0
 40
4.83362
 41
0.0
 71
     1
 72
     1
  1
SolidWorks Educational Edition.
  7
SLDTEXTSTYLE0
 73
     1
 44
1.0
  0
MTEXT
  5
A5
330
1F
100
AcDbEntity
  8
0
  6
Continuous
 62
     7
100
AcDbMText
 10
-12.2395507314
 20
-17.2269948421
 30
0.0
 40
4.83362
 41
0.0
 71
     1
 72
     1
  1
For Instructional Use Only.
  7
SLDTEXTSTYLE0
 73
     1
 44
1.0
  0
ENDSEC
  0
SECTION
  2
OBJECTS
  0
DICTIONARY
  5
C
330
0
100
AcDbDictionary
281
     1
  3
ACAD_GROUP
350
D
  3
ACAD_LAYOUT
350
1A
  3
ACAD_MLINESTYLE
350
17
  3
ACAD_PLOTSETTINGS
350
19
  3
ACAD_PLOTSTYLENAME
350
E
  0
DICTIONARY
  5
D
102
{ACAD_REACTORS
330
C
102
}
330
C
100
AcDbDictionary
281
     1
  0
DICTIONARY
  5
1A
102
{ACAD_REACTORS
330
C
102
}
330
C
100
AcDbDictionary
281
     1
  3
Layout1
350
1E
  3
Layout2
350
26
  3
Model
350
22
  0
DICTIONARY
  5
17
102
{ACAD_REACTORS
330
C
102
}
330
C
100
AcDbDictionary
281
     1
  3
Standard
350
18
  0
DICTIONARY
  5
19
102
{ACAD_REACTORS
330
C
102
}
330
C
100
AcDbDictionary
281
     1
  0
ACDBDICTIONARYWDFLT
  5
E
102
{ACAD_REACTORS
330
C
102
}
330
C
100
AcDbDictionary
281
     1
  3
Normal
350
F
100
AcDbDictionaryWithDefault
340
F
  0
LAYOUT
  5
1E
102
{ACAD_REACTORS
330
1A
102
}
330
1A
100
AcDbPlotSettings
  1

  2
none_device
  4

  6

 40
0.0
 41
0.0
 42
0.0
 43
0.0
 44
0.0
 45
0.0
 46
0.0
 47
0.0
 48
0.0
 49
0.0
140
0.0
141
0.0
142
1.0
143
1.0
 70
   688
 72
     0
 73
     0
 74
     5
  7

 75
    16
147
1.0
148
0.0
149
0.0
100
AcDbLayout
  1
Layout1
 70
     1
 71
     1
 10
0.0
 20
0.0
 11
420.0
 21
297.0
 12
0.0
 22
0.0
 32
0.0
 14
1.0000000000E+20
 24
1.0000000000E+20
 34
1.0000000000E+20
 15
-1.0000000000E+20
 25
-1.0000000000E+20
 35
-1.0000000000E+20
146
0.0
 13
0.0
 23
0.0
 33
0.0
 16
1.0
 26
0.0
 36
0.0
 17
0.0
 27
1.0
 37
0.0
 76
     0
330
1B
  0
LAYOUT
  5
26
102
{ACAD_REACTORS
330
1A
102
}
330
1A
100
AcDbPlotSettings
  1

  2
none_device
  4

  6

 40
0.0
 41
0.0
 42
0.0
 43
0.0
 44
0.0
 45
0.0
 46
0.0
 47
0.0
 48
0.0
 49
0.0
140
0.0
141
0.0
142
1.0
143
1.0
 70
   688
 72
     0
 73
     0
 74
     5
  7

 75
    16
147
1.0
148
0.0
149
0.0
100
AcDbLayout
  1
Layout2
 70
     1
 71
     2
 10
0.0
 20
0.0
 11
0.0
 21
0.0
 12
0.0
 22
0.0
 32
0.0
 14
0.0
 24
0.0
 34
0.0
 15
0.0
 25
0.0
 35
0.0
146
0.0
 13
0.0
 23
0.0
 33
0.0
 16
1.0
 26
0.0
 36
0.0
 17
0.0
 27
1.0
 37
0.0
 76
     0
330
23
  0
LAYOUT
  5
22
102
{ACAD_REACTORS
330
1A
102
}
330
1A
100
AcDbPlotSettings
  1

  2
none_device
  4
ANSI_A_(11.00_x_8.50_Inches)
  6

 40
6.35
 41
19.05
 42
6.35000508
 43
19.05000254
 44
279.4
 45
215.9
 46
130.7843280649
 47
83.0016498613
 48
0.0
 49
0.0
140
0.0
141
0.0
142
0.4366164667
143
1.0
 70
  1696
 72
     0
 73
     0
 74
     0
  7

 75
     0
147
0.0179189148
148
0.0
149
0.0
100
AcDbLayout
  1
Model
 70
     1
 71
     0
 10
0.0
 20
0.0
 11
420.0
 21
297.0
 12
0.0
 22
0.0
 32
0.0
 14
-12.2395507314
 24
-8.9569984504
 34
0.0
 15
12.7022479213
 25
10.0207167347
 35
0.0
146
0.0
 13
0.0
 23
0.0
 33
0.0
 16
1.0
 26
0.0
 36
0.0
 17
0.0
 27
1.0
 37
0.0
 76
     0
330
1F
331
29
  0
MLINESTYLE
  5
18
102
{ACAD_REACTORS
330
17
102
}
330
17
100
AcDbMlineStyle
  2
Standard
 70
     0
  3

 62
   256
 51
90.0
 52
90.0
 71
     2
 49
0.5
 62
   256
  6
BYLAYER
 49
-0.5
 62
   256
  6
BYLAYER
  0
ACDBPLACEHOLDER
  5
F
102
{ACAD_REACTORS
330
E
102
}
330
E
  0
ENDSEC
  0
EOF
