  0
SECTION
  2
HEADER
  9
$ACADVER
  1
AC1015
  9
$ACADMAINTVER
 70
     6
  9
$DWGCODEPAGE
  3
ANSI_1252
  9
$INSBASE
 10
0.0
 20
0.0
 30
0.0
  9
$EXTMIN
 10
-3.3926602607
 20
-10.0912530075
 30
0.0
  9
$EXTMAX
 10
8.465992097
 20
3.8232050945
 30
0.0
  9
$LIMMIN
 10
0.0
 20
0.0
  9
$LIMMAX
 10
420.0
 20
297.0
  9
$ORTHOMODE
 70
     0
  9
$REGENMODE
 70
     1
  9
$FILLMODE
 70
     1
  9
$QTEXTMODE
 70
     0
  9
$MIRRTEXT
 70
     1
  9
$LTSCALE
 40
1.0
  9
$ATTMODE
 70
     1
  9
$TEXTSIZE
 40
2.5
  9
$TRACEWID
 40
1.0
  9
$TEXTSTYLE
  7
Standard
  9
$CLAYER
  8
0
  9
$CELTYPE
  6
ByLayer
  9
$CECOLOR
 62
   256
  9
$CELTSCALE
 40
1.0
  9
$DISPSILH
 70
     0
  9
$DIMSCALE
 40
1.0
  9
$DIMASZ
 40
6.0
  9
$DIMEXO
 40
1.0
  9
$DIMDLI
 40
3.75
  9
$DIMRND
 40
0.0
  9
$DIMDLE
 40
0.0
  9
$DIMEXE
 40
1.0
  9
$DIMTP
 40
0.0
  9
$DIMTM
 40
0.0
  9
$DIMTXT
 40
2.5
  9
$DIMCEN
 40
2.5
  9
$DIMTSZ
 40
0.0
  9
$DIMTOL
 70
     0
  9
$DIMLIM
 70
     0
  9
$DIMTIH
 70
     1
  9
$DIMTOH
 70
     1
  9
$DIMSE1
 70
     0
  9
$DIMSE2
 70
     0
  9
$DIMTAD
 70
     1
  9
$DIMZIN
 70
     0
  9
$DIMBLK
  1

  9
$DIMASO
 70
     1
  9
$DIMSHO
 70
     1
  9
$DIMPOST
  1

  9
$DIMAPOST
  1

  9
$DIMALT
 70
     0
  9
$DIMALTD
 70
     3
  9
$DIMALTF
 40
0.0393700787
  9
$DIMLFAC
 40
1.0
  9
$DIMTOFL
 70
     1
  9
$DIMTVP
 40
0.0
  9
$DIMTIX
 70
     0
  9
$DIMSOXD
 70
     0
  9
$DIMSAH
 70
     0
  9
$DIMBLK1
  1

  9
$DIMBLK2
  1

  9
$DIMSTYLE
  2
ISO-25
  9
$DIMCLRD
 70
     0
  9
$DIMCLRE
 70
     0
  9
$DIMCLRT
 70
     0
  9
$DIMTFAC
 40
1.0
  9
$DIMGAP
 40
1.524
  9
$DIMJUST
 70
     0
  9
$DIMSD1
 70
     0
  9
$DIMSD2
 70
     0
  9
$DIMTOLJ
 70
     0
  9
$DIMTZIN
 70
     0
  9
$DIMALTZ
 70
     0
  9
$DIMALTTZ
 70
     0
  9
$DIMUPT
 70
     0
  9
$DIMDEC
 70
     2
  9
$DIMTDEC
 70
     2
  9
$DIMALTU
 70
     2
  9
$DIMALTTD
 70
     3
  9
$DIMTXSTY
  7
Standard
  9
$DIMAUNIT
 70
     0
  9
$DIMADEC
 70
     2
  9
$DIMALTRND
 40
0.0
  9
$DIMAZIN
 70
     0
  9
$DIMDSEP
 70
    44
  9
$DIMATFIT
 70
     3
  9
$DIMFRAC
 70
     0
  9
$DIMLDRBLK
  1

  9
$DIMLUNIT
 70
     2
  9
$DIMLWD
 70
    -2
  9
$DIMLWE
 70
    -2
  9
$DIMTMOVE
 70
     0
  9
$LUNITS
 70
     2
  9
$LUPREC
 70
     2
  9
$SKETCHINC
 40
1.0
  9
$FILLETRAD
 40
10.0
  9
$AUNITS
 70
     0
  9
$AUPREC
 70
     2
  9
$MENU
  1
.
  9
$ELEVATION
 40
0.0
  9
$PELEVATION
 40
0.0
  9
$THICKNESS
 40
0.0
  9
$LIMCHECK
 70
     0
  9
$CHAMFERA
 40
10.0
  9
$CHAMFERB
 40
10.0
  9
$CHAMFERC
 40
20.0
  9
$CHAMFERD
 40
0.0
  9
$SKPOLY
 70
     0
  9
$TDCREATE
 40
2456560.920566262
  9
$TDUCREATE
 40
2456560.420566262
  9
$TDUPDATE
 40
2456560.920590995
  9
$TDUUPDATE
 40
2456560.420590995
  9
$TDINDWG
 40
0.0000000116
  9
$TDUSRTIMER
 40
0.0000000116
  9
$USRTIMER
 70
     1
  9
$ANGBASE
 50
0.0
  9
$ANGDIR
 70
     0
  9
$PDMODE
 70
     0
  9
$PDSIZE
 40
-1.0
  9
$PLINEWID
 40
0.0
  9
$SPLFRAME
 70
     0
  9
$SPLINETYPE
 70
     6
  9
$SPLINESEGS
 70
     8
  9
$HANDSEED
  5
FD
  9
$SURFTAB1
 70
     6
  9
$SURFTAB2
 70
     6
  9
$SURFTYPE
 70
     6
  9
$SURFU
 70
     6
  9
$SURFV
 70
     6
  9
$UCSBASE
  2

  9
$UCSNAME
  2

  9
$UCSORG
 10
0.0
 20
0.0
 30
0.0
  9
$UCSXDIR
 10
1.0
 20
0.0
 30
0.0
  9
$UCSYDIR
 10
0.0
 20
1.0
 30
0.0
  9
$UCSORTHOREF
  2

  9
$UCSORTHOVIEW
 70
     0
  9
$UCSORGTOP
 10
0.0
 20
0.0
 30
0.0
  9
$UCSORGBOTTOM
 10
0.0
 20
0.0
 30
0.0
  9
$UCSORGLEFT
 10
0.0
 20
0.0
 30
0.0
  9
$UCSORGRIGHT
 10
0.0
 20
0.0
 30
0.0
  9
$UCSORGFRONT
 10
0.0
 20
0.0
 30
0.0
  9
$UCSORGBACK
 10
0.0
 20
0.0
 30
0.0
  9
$PUCSBASE
  2

  9
$PUCSNAME
  2

  9
$PUCSORG
 10
0.0
 20
0.0
 30
0.0
  9
$PUCSXDIR
 10
1.0
 20
0.0
 30
0.0
  9
$PUCSYDIR
 10
0.0
 20
1.0
 30
0.0
  9
$PUCSORTHOREF
  2

  9
$PUCSORTHOVIEW
 70
     0
  9
$PUCSORGTOP
 10
0.0
 20
0.0
 30
0.0
  9
$PUCSORGBOTTOM
 10
0.0
 20
0.0
 30
0.0
  9
$PUCSORGLEFT
 10
0.0
 20
0.0
 30
0.0
  9
$PUCSORGRIGHT
 10
0.0
 20
0.0
 30
0.0
  9
$PUCSORGFRONT
 10
0.0
 20
0.0
 30
0.0
  9
$PUCSORGBACK
 10
0.0
 20
0.0
 30
0.0
  9
$USERI1
 70
     0
  9
$USERI2
 70
     0
  9
$USERI3
 70
     0
  9
$USERI4
 70
     0
  9
$USERI5
 70
     0
  9
$USERR1
 40
0.0
  9
$USERR2
 40
0.0
  9
$USERR3
 40
0.0
  9
$USERR4
 40
0.0
  9
$USERR5
 40
0.0
  9
$WORLDVIEW
 70
     1
  9
$SHADEDGE
 70
     3
  9
$SHADEDIF
 70
    70
  9
$TILEMODE
 70
     1
  9
$MAXACTVP
 70
    64
  9
$PINSBASE
 10
0.0
 20
0.0
 30
0.0
  9
$PLIMCHECK
 70
     0
  9
$PEXTMIN
 10
1.0000000000E+20
 20
1.0000000000E+20
 30
1.0000000000E+20
  9
$PEXTMAX
 10
-1.0000000000E+20
 20
-1.0000000000E+20
 30
-1.0000000000E+20
  9
$PLIMMIN
 10
0.0
 20
0.0
  9
$PLIMMAX
 10
420.0
 20
297.0
  9
$UNITMODE
 70
     0
  9
$VISRETAIN
 70
     1
  9
$PLINEGEN
 70
     0
  9
$PSLTSCALE
 70
     1
  9
$TREEDEPTH
 70
  3020
  9
$CMLSTYLE
  2
Standard
  9
$CMLJUST
 70
     0
  9
$CMLSCALE
 40
20.0
  9
$PROXYGRAPHICS
 70
     1
  9
$MEASUREMENT
 70
     1
  9
$CELWEIGHT
370
    -1
  9
$ENDCAPS
280
     0
  9
$JOINSTYLE
280
     0
  9
$LWDISPLAY
290
     1
  9
$INSUNITS
 70
     4
  9
$HYPERLINKBASE
  1

  9
$STYLESHEET
  1

  9
$XEDIT
290
     1
  9
$CEPSNTYPE
380
     0
  9
$PSTYLEMODE
290
     1
  9
$FINGERPRINTGUID
  2
{0DF4C4F4-DEEA-44EA-A133-8D6534AC4316}
  9
$VERSIONGUID
  2
{FAEB1C32-E019-11D5-929B-00C0DF256EC4}
  9
$EXTNAMES
290
     1
  9
$PSVPSCALE
 40
0.0
  9
$OLESTARTUP
290
     0
  0
ENDSEC
  0
SECTION
  2
CLASSES
  0
CLASS
  1
ACDBDICTIONARYWDFLT
  2
AcDbDictionaryWithDefault
  3
ObjectDBX Classes
 90
        0
280
     0
281
     0
  0
CLASS
  1
VISUALSTYLE
  2
AcDbVisualStyle
  3
ObjectDBX Classes
 90
     4095
280
     0
281
     0
  0
CLASS
  1
MATERIAL
  2
AcDbMaterial
  3
ObjectDBX Classes
 90
     1153
280
     0
281
     0
  0
CLASS
  1
ACDBPLACEHOLDER
  2
AcDbPlaceHolder
  3
ObjectDBX Classes
 90
        0
280
     0
281
     0
  0
CLASS
  1
LAYOUT
  2
AcDbLayout
  3
ObjectDBX Classes
 90
        0
280
     0
281
     0
  0
ENDSEC
  0
SECTION
  2
TABLES
  0
TABLE
  2
VPORT
  5
8
330
0
100
AcDbSymbolTable
 70
     1
  0
VPORT
  5
29
330
8
100
AcDbSymbolTableRecord
100
AcDbViewportTableRecord
  2
*Active
 70
     0
 10
0.0
 20
0.0
 11
1.0
 21
1.0
 12
2.5366659181
 22
-3.1340239565
 13
0.0
 23
0.0
 14
10.0
 24
10.0
 15
10.0
 25
10.0
 16
0.0
 26
0.0
 36
1.0
 17
0.0
 27
0.0
 37
0.0
 40
14.1927472641
 41
0.8522539844
 42
50.0
 43
0.0
 44
0.0
 50
0.0
 51
0.0
 71
     0
 72
   100
 73
     1
 74
     3
 75
     0
 76
     0
 77
     0
 78
     0
281
     0
 65
     1
110
0.0
120
0.0
130
0.0
111
1.0
121
0.0
131
0.0
112
0.0
122
1.0
132
0.0
 79
     0
146
0.0
  0
ENDTAB
  0
TABLE
  2
LTYPE
  5
5
330
0
100
AcDbSymbolTable
 70
     6
  0
LTYPE
  5
14
330
5
100
AcDbSymbolTableRecord
100
AcDbLinetypeTableRecord
  2
ByBlock
 70
     0
  3

 72
    65
 73
     0
 40
0.0
  0
LTYPE
  5
15
330
5
100
AcDbSymbolTableRecord
100
AcDbLinetypeTableRecord
  2
ByLayer
 70
     0
  3

 72
    65
 73
     0
 40
0.0
  0
LTYPE
  5
16
330
5
100
AcDbSymbolTableRecord
100
AcDbLinetypeTableRecord
  2
Continuous
 70
     0
  3
Solid line
 72
    65
 73
     0
 40
0.0
  0
LTYPE
  5
3F
330
5
100
AcDbSymbolTableRecord
100
AcDbLinetypeTableRecord
  2
HIDDEN
 70
     0
  3
Hidden __ __ __ __ __ __ __ __ __ __ __ __ __ __
 72
    65
 73
     2
 40
1.905
 49
1.27
 74
     0
 49
-0.635
 74
     0
  0
LTYPE
  5
40
330
5
100
AcDbSymbolTableRecord
100
AcDbLinetypeTableRecord
  2
PHANTOM
 70
     0
  3
Phantom ______  __  __  ______  __  __  ______
 72
    65
 73
     6
 40
12.7
 49
6.35
 74
     0
 49
-1.27
 74
     0
 49
1.27
 74
     0
 49
-1.27
 74
     0
 49
1.27
 74
     0
 49
-1.27
 74
     0
  0
LTYPE
  5
41
330
5
100
AcDbSymbolTableRecord
100
AcDbLinetypeTableRecord
  2
CENTER
 70
     0
  3
Center ____ _ ____ _ ____ _ ____ _ ____ _ ____
 72
    65
 73
     4
 40
10.16
 49
6.35
 74
     0
 49
-1.27
 74
     0
 49
1.27
 74
     0
 49
-1.27
 74
     0
  0
LTYPE
  5
42
330
5
100
AcDbSymbolTableRecord
100
AcDbLinetypeTableRecord
  2
CENTERX2
 70
     0
  3
Center (2x) ________  __  ________  __  _____
 72
    65
 73
     4
 40
20.32
 49
12.7
 74
     0
 49
-2.54
 74
     0
 49
2.54
 74
     0
 49
-2.54
 74
     0
  0
LTYPE
  5
43
330
5
100
AcDbSymbolTableRecord
100
AcDbLinetypeTableRecord
  2
DOT2
 70
     0
  3
Dot (.5x) ........................................
 72
    65
 73
     2
 40
0.635
 49
0.0
 74
     0
 49
-0.635
 74
     0
  0
ENDTAB
  0
TABLE
  2
LAYER
  5
2
330
0
100
AcDbSymbolTable
 70
     1
  0
LAYER
  5
10
330
2
100
AcDbSymbolTableRecord
100
AcDbLayerTableRecord
  2
0
 70
     0
 62
     7
  6
Continuous
370
    -3
390
F
  0
ENDTAB
  0
TABLE
  2
STYLE
  5
3
330
0
100
AcDbSymbolTable
 70
     2
  0
STYLE
  5
11
330
3
100
AcDbSymbolTableRecord
100
AcDbTextStyleTableRecord
  2
Standard
 70
     0
 40
0.0
 41
1.0
 50
0.0
 71
     0
 42
2.5
  3
txt
  4

  0
STYLE
  5
FA
330
3
100
AcDbSymbolTableRecord
100
AcDbTextStyleTableRecord
  2
SLDTEXTSTYLE0
 70
     0
 40
0.0
 41
0.7
 50
0.0
 71
     0
 42
0.2
  3
TXT
  4

  0
ENDTAB
  0
TABLE
  2
VIEW
  5
6
330
0
100
AcDbSymbolTable
 70
     0
  0
ENDTAB
  0
TABLE
  2
UCS
  5
7
330
0
100
AcDbSymbolTable
 70
     0
  0
ENDTAB
  0
TABLE
  2
APPID
  5
9
330
0
100
AcDbSymbolTable
 70
     1
  0
APPID
  5
12
330
9
100
AcDbSymbolTableRecord
100
AcDbRegAppTableRecord
  2
ACAD
 70
     0
  0
ENDTAB
  0
TABLE
  2
DIMSTYLE
  5
A
330
0
100
AcDbSymbolTable
 70
     1
100
AcDbDimStyleTable
  0
DIMSTYLE
105
27
330
A
100
AcDbSymbolTableRecord
100
AcDbDimStyleTableRecord
  2
ISO-25
 70
     0
 41
2.5
 42
0.625
 43
3.75
 44
1.25
 73
     0
 74
     0
 77
     1
 78
     8
140
2.5
141
2.5
143
0.0393700787
147
0.625
171
     3
172
     1
178
     0
271
     2
272
     2
274
     3
278
    44
283
     0
284
     8
340
11
  0
ENDTAB
  0
TABLE
  2
BLOCK_RECORD
  5
1
330
0
100
AcDbSymbolTable
 70
     1
  0
BLOCK_RECORD
  5
1F
330
1
100
AcDbSymbolTableRecord
100
AcDbBlockTableRecord
  2
*Model_Space
340
22
  0
BLOCK_RECORD
  5
1B
330
1
100
AcDbSymbolTableRecord
100
AcDbBlockTableRecord
  2
*Paper_Space
340
1E
  0
BLOCK_RECORD
  5
23
330
1
100
AcDbSymbolTableRecord
100
AcDbBlockTableRecord
  2
*Paper_Space0
340
26
  0
ENDTAB
  0
ENDSEC
  0
SECTION
  2
BLOCKS
  0
BLOCK
  5
20
330
1F
100
AcDbEntity
  8
0
100
AcDbBlockBegin
  2
*Model_Space
 70
     0
 10
0.0
 20
0.0
 30
0.0
  3
*Model_Space
  1

  0
ENDBLK
  5
21
330
1F
100
AcDbEntity
  8
0
100
AcDbBlockEnd
  0
BLOCK
  5
1C
330
1B
100
AcDbEntity
 67
     1
  8
0
100
AcDbBlockBegin
  2
*Paper_Space
 70
     0
 10
0.0
 20
0.0
 30
0.0
  3
*Paper_Space
  1

  0
ENDBLK
  5
1D
330
1B
100
AcDbEntity
 67
     1
  8
0
100
AcDbBlockEnd
  0
BLOCK
  5
24
330
23
100
AcDbEntity
  8
0
100
AcDbBlockBegin
  2
*Paper_Space0
 70
     0
 10
0.0
 20
0.0
 30
0.0
  3
*Paper_Space0
  1

  0
ENDBLK
  5
25
330
23
100
AcDbEntity
  8
0
100
AcDbBlockEnd
  0
ENDSEC
  0
SECTION
  2
ENTITIES
  0
SPLINE
  5
44
330
1F
100
AcDbEntity
  8
0
  6
Continuous
 62
     7
370
    15
100
AcDbSpline
210
0.0
220
0.0
230
1.0
 70
     8
 71
     3
 72
    14
 73
    10
 74
     0
 42
0.00000001
 43
0.00000001
 12
1.0
 22
0.0
 32
0.0
 13
1.0
 23
0.0
 33
0.0
 40
0.0
 40
0.0
 40
0.0
 40
0.0
 40
0.0897748192916716
 40
0.2396836268489579
 40
0.3892032284289135
 40
0.5480867460384748
 40
0.7258482952174717
 40
0.9279103933740499
 40
1.0
 40
1.0
 40
1.0
 40
1.0
 10
0.2196709063698511
 20
2.814520733949872
 30
0.0
 10
0.2151134938799361
 20
2.82114010496554
 30
0.0
 10
0.2029459711464115
 20
2.83881270921038
 30
0.0
 10
0.1744223096738756
 20
2.859137393847962
 30
0.0
 10
0.1385363977495211
 20
2.875377005470989
 30
0.0
 10
0.098387962090572
 20
2.883853380976572
 30
0.0
 10
0.052964038018809
 20
2.885251543022145
 30
0.0
 10
0.0135201811336308
 20
2.880574290453917
 30
0.0
 10
-0.0113001780858181
 20
2.8751423488632
 30
0.0
 10
-0.017826819727037
 20
2.873713991768719
 30
0.0
  0
SPLINE
  5
45
330
1F
100
AcDbEntity
  8
0
  6
Continuous
 62
     7
370
    15
100
AcDbSpline
210
0.0
220
0.0
230
1.0
 70
     8
 71
     3
 72
    14
 73
    10
 74
     0
 42
0.00000001
 43
0.00000001
 12
1.0
 22
0.0
 32
0.0
 13
1.0
 23
0.0
 33
0.0
 40
0.0
 40
0.0
 40
0.0
 40
0.0
 40
0.093002468008745
 40
0.2784421146183134
 40
0.4715613142908602
 40
0.6230213228349333
 40
0.7580477590503617
 40
0.8847266318012692
 40
1.0
 40
1.0
 40
1.0
 40
1.0
 10
-2.880111578295629
 20
0.9379038070088638
 30
0.0
 10
-2.886449859926037
 20
0.9292370190776785
 30
0.0
 10
-2.905426179350711
 20
0.903289333922907
 30
0.0
 10
-2.931082122220646
 20
0.8595266169558364
 30
0.0
 10
-2.951107046463361
 20
0.81008373545154
 30
0.0
 10
-2.960174203449799
 20
0.7636763411697248
 30
0.0
 10
-2.959301367787974
 20
0.7222922283811554
 30
0.0
 10
-2.95015321116288
 20
0.6840666841485534
 30
0.0
 10
-2.936719871785828
 20
0.6624761742957826
 30
0.0
 10
-2.930319822461746
 20
0.6521898021502369
 30
0.0
  0
SPLINE
  5
4C
330
1F
100
AcDbEntity
  8
0
  6
Continuous
 62
     7
370
    15
100
AcDbSpline
210
0.0
220
0.0
230
1.0
 70
     8
 71
     3
 72
    24
 73
    20
 74
     0
 42
0.00000001
 43
0.00000001
 12
1.0
 22
0.0
 32
0.0
 13
1.0
 23
0.0
 33
0.0
 40
0.0
 40
0.0
 40
0.0
 40
0.0
 40
0.0033631244116323
 40
0.0553637233799584
 40
0.1058921196983271
 40
0.1577673514425525
 40
0.2142860740237348
 40
0.2784139685458466
 40
0.3501476331575763
 40
0.4236789243488552
 40
0.4953086173933121
 40
0.5653232927438842
 40
0.6343552854156701
 40
0.7028922751270409
 40
0.7713093751427919
 40
0.8398858033153638
 40
0.9089330503474923
 40
0.9789078764557883
 40
1.0
 40
1.0
 40
1.0
 40
1.0
 10
-0.2118420167441586
 20
3.752956861911003
 30
0.0
 10
-0.2122626506287364
 20
3.753728385147571
 30
0.0
 10
-0.2191871217988907
 20
3.766429193628774
 30
0.0
 10
-0.2407127249638731
 20
3.785406240066985
 30
0.0
 10
-0.2740729616898085
 20
3.806512062563782
 30
0.0
 10
-0.3120734108278801
 20
3.818961849698174
 30
0.0
 10
-0.354227949256738
 20
3.824414549656655
 30
0.0
 10
-0.40257946449349
 20
3.822486555417294
 30
0.0
 10
-0.4574980804988463
 20
3.812400428888812
 30
0.0
 10
-0.5174316756916674
 20
3.794036035725752
 30
0.0
 10
-0.5794898654232505
 20
3.768573790257055
 30
0.0
 10
-0.6417666198841314
 20
3.737330450312487
 30
0.0
 10
-0.7033462913730163
 20
3.701163745715009
 30
0.0
 10
-0.7632968369203064
 20
3.660840720041688
 30
0.0
 10
-0.8205651184385128
 20
3.617153868342188
 30
0.0
 10
-0.8740946035392915
 20
3.57090694947188
 30
0.0
 10
-0.9227687879275923
 20
3.522855403631631
 30
0.0
 10
-0.9556604735797942
 20
3.485343462972227
 30
0.0
 10
-0.9720272673638556
 20
3.464068370993932
 30
0.0
 10
-0.975817999762748
 20
3.459140821865153
 30
0.0
  0
SPLINE
  5
4F
330
1F
100
AcDbEntity
  8
0
  6
Continuous
 62
     7
370
    15
100
AcDbSpline
210
0.0
220
0.0
230
1.0
 70
     8
 71
     3
 72
    24
 73
    20
 74
     0
 42
0.00000001
 43
0.00000001
 12
1.0
 22
0.0
 32
0.0
 13
1.0
 23
0.0
 33
0.0
 40
0.0
 40
0.0
 40
0.0
 40
0.0
 40
0.0352376955160206
 40
0.1039322554314791
 40
0.1708954424849552
 40
0.236579795518796
 40
0.3015354667296276
 40
0.3661723272528257
 40
0.4308227428941747
 40
0.4957123771870718
 40
0.5612015491248449
 40
0.6277834763850302
 40
0.6961942089954112
 40
0.7674818962795238
 40
0.828911781582304
 40
0.8824027897722406
 40
0.9314025111543035
 40
0.9783668105332823
 40
1.0
 40
1.0
 40
1.0
 40
1.0
 10
-2.788700613264658
 20
2.2304998941502
 30
0.0
 10
-2.798762933074405
 20
2.227968643428975
 30
0.0
 10
-2.828441366280241
 20
2.220502814785332
 30
0.0
 10
-2.879503557511354
 20
2.202423947371128
 30
0.0
 10
-2.941714032606568
 20
2.174652971955912
 30
0.0
 10
-3.003828149602318
 20
2.141348749874305
 30
0.0
 10
-3.06487948854648
 20
2.103452845779986
 30
0.0
 10
-3.123903975296013
 20
2.061699478808158
 30
0.0
 10
-3.179820664243866
 20
2.016903883737533
 30
0.0
 10
-3.231563509185751
 20
1.969856877080957
 30
0.0
 10
-3.27814529722903
 20
1.921252907506457
 30
0.0
 10
-3.318711376025815
 20
1.871518559499178
 30
0.0
 10
-3.352439556655701
 20
1.820617178840902
 30
0.0
 10
-3.376625851445616
 20
1.771093765097828
 30
0.0
 10
-3.390335544122842
 20
1.724283600655456
 30
0.0
 10
-3.394309994208403
 20
1.681232326357893
 30
0.0
 10
-3.388518975245242
 20
1.641429714342822
 30
0.0
 10
-3.377663425922365
 20
1.610091576358311
 30
0.0
 10
-3.365623746254183
 20
1.59528697099716
 30
0.0
 10
-3.36182686278566
 20
1.590618129059255
 30
0.0
  0
LWPOLYLINE
  5
56
330
1F
100
AcDbEntity
  8
0
  6
Continuous
 62
     7
370
    15
100
AcDbPolyline
 90
        9
 70
   128
 43
0.0
 10
7.9565688674
 20
-6.822945552
 10
7.9690421725
 20
-6.8183490574
 10
7.9789542129
 20
-6.8110104568
 10
7.9859240742
 20
-6.8012117683
 10
7.9896839087
 20
-6.7893295501
 10
7.990089228
 20
-6.7758204292
 10
7.9871244559
 20
-6.7612035535
 10
7.980903527
 20
-6.7460406414
 10
7.9716655081
 20
-6.730914395
  0
LWPOLYLINE
  5
5E
330
1F
100
AcDbEntity
  8
0
  6
Continuous
 62
     7
370
    15
100
AcDbPolyline
 90
       18
 70
   128
 43
0.0
 10
-3.2011223783
 20
1.7047933863
 10
-3.248794629
 20
1.6972672434
 10
-3.288358615
 20
1.6985831645
 10
-3.3184670321
 20
1.7086963376
 10
-3.3380945744
 20
1.7272623706
 10
-3.3465728495
 20
1.7536490195
 10
-3.3436131399
 20
1.7869577188
 10
-3.3293162348
 20
1.8260541804
 10
-3.3041689984
 20
1.8696070215
 10
-3.2690277895
 20
1.9161331021
 10
-3.2250892999
 20
1.9640480325
 10
-3.1738498021
 20
2.0117201271
 10
-3.1170541959
 20
2.0575259699
 10
-3.0566365873
 20
2.0999056979
 10
-2.9946544257
 20
2.1374161202
 10
-2.9332184392
 20
2.1687798646
 10
-2.8744207567
 20
2.1929288761
 10
-2.8202636626
 20
2.2090407893
  0
LWPOLYLINE
  5
61
330
1F
100
AcDbEntity
  8
0
  6
Continuous
 62
     7
370
    15
100
AcDbPolyline
 90
       18
 70
   128
 43
0.0
 10
-0.9501967138
 20
3.4748212342
 10
-0.9104874719
 20
3.5222440371
 10
-0.8626946023
 20
3.5702423017
 10
-0.8084456338
 20
3.6171815047
 10
-0.7495879498
 20
3.661463188
 10
-0.6881258784
 20
3.7015793918
 10
-0.6261524366
 20
3.736164007
 10
-0.5657780556
 20
3.764039296
 10
-0.5090587126
 20
3.7842559993
 10
-0.4579259168
 20
3.7961256612
 10
-0.4141209341
 20
3.7992440747
 10
-0.3791354908
 20
3.7935050459
 10
-0.3541609742
 20
3.7791040106
 10
-0.3400478615
 20
3.7565313787
 10
-0.3372767577
 20
3.7265558343
 10
-0.3459420296
 20
3.6901981584
 10
-0.3657485916
 20
3.6486964681
 10
-0.3960219551
 20
3.6034640538
  0
LWPOLYLINE
  5
64
330
1F
100
AcDbEntity
  8
0
  6
Continuous
 62
     7
370
    15
100
AcDbPolyline
 90
       18
 70
   128
 43
0.0
 10
-0.0493898691
 20
2.8522548869
 10
-0.0017176184
 20
2.8597810298
 10
0.0378463675
 20
2.8584651086
 10
0.0679547847
 20
2.8483519356
 10
0.087582327
 20
2.8297859026
 10
0.0960606021
 20
2.8033992536
 10
0.0931008924
 20
2.7700905544
 10
0.0788039874
 20
2.7309940927
 10
0.0536567509
 20
2.6874412517
 10
0.018515542
 20
2.640915171
 10
-0.0254229476
 20
2.5930002407
 10
-0.0766624453
 20
2.5453281461
 10
-0.1334580516
 20
2.4995223033
 10
-0.1938756601
 20
2.4571425753
 10
-0.2558578217
 20
2.4196321529
 10
-0.3172938082
 20
2.3882684086
 10
-0.3760914908
 20
2.3641193971
 10
-0.4302485848
 20
2.3480074839
  0
LWPOLYLINE
  5
67
330
1F
100
AcDbEntity
  8
0
  6
Continuous
 62
     7
370
    15
100
AcDbPolyline
 90
       18
 70
   128
 43
0.0
 10
-2.3003155336
 20
1.0822270389
 10
-2.3400247755
 20
1.0348042361
 10
-2.3878176451
 20
0.9868059715
 10
-2.4420666137
 20
0.9398667684
 10
-2.5009242976
 20
0.8955850852
 10
-2.562386369
 20
0.8554688813
 10
-2.6243598109
 20
0.8208842661
 10
-2.6847341918
 20
0.7930089771
 10
-2.7414535349
 20
0.7727922739
 10
-2.7925863307
 20
0.760922612
 10
-2.8363913133
 20
0.7578041985
 10
-2.8713767566
 20
0.7635432273
 10
-2.8963512732
 20
0.7779442626
 10
-2.910464386
 20
0.8005168944
 10
-2.9132354897
 20
0.8304924389
 10
-2.9045702179
 20
0.8668501148
 10
-2.8847636558
 20
0.908351805
 10
-2.8544902923
 20
0.9535842194
  0
LWPOLYLINE
  5
69
330
1F
100
AcDbEntity
  8
0
  6
Continuous
 62
     7
370
    15
100
AcDbPolyline
 90
        9
 70
   128
 43
0.0
 10
3.296498136
 20
-9.8953655075
 10
3.3079819557
 20
-9.9089716528
 10
3.320853982
 20
-9.9196326785
 10
3.3346195502
 20
-9.9269388874
 10
3.3487496571
 20
-9.9306095058
 10
3.3627012908
 20
-9.930503474
 10
3.3759382977
 20
-9.9266248668
 10
3.3879519871
 20
-9.9191227368
 10
3.3982806796
 20
-9.9082853867
  0
LWPOLYLINE
  5
77
330
1F
100
AcDbEntity
  8
0
  6
Continuous
 62
     7
370
    15
100
AcDbPolyline
 90
        7
 70
   128
 43
0.0
 10
5.0430068483
 20
-3.9450896693
 10
5.0491794632
 20
-3.9557406193
 10
5.0560741029
 20
-3.9851515905
 10
5.0526238719
 20
-4.0207255231
 10
5.0389137261
 20
-4.0615864689
 10
5.015281255
 20
-4.1067282958
 10
4.9823083684
 20
-4.1550394622
  0
LWPOLYLINE
  5
79
330
1F
100
AcDbEntity
  8
0
  6
Continuous
 62
     7
370
    15
100
AcDbPolyline
 90
        6
 70
   128
 43
0.0
 10
2.0603287609
 20
-6.1328214075
 10
2.0090768677
 20
-6.1415189377
 10
1.9649482197
 20
-6.142242153
 10
1.9290294106
 20
-6.1349732455
 10
1.9022048808
 20
-6.1198911997
 10
1.8913077541
 20
-6.1080183357
  0
LWPOLYLINE
  5
84
330
1F
100
AcDbEntity
  8
0
  6
Continuous
 62
     7
370
    15
100
AcDbPolyline
 90
        9
 70
   128
 43
0.0
 10
5.7933769516
 20
-1.7162056738
 10
5.7818931319
 20
-1.7025995284
 10
5.7690211056
 20
-1.6919385027
 10
5.7552555375
 20
-1.6846322939
 10
5.7411254305
 20
-1.6809616755
 10
5.7271737969
 20
-1.6810677073
 10
5.71393679
 20
-1.6849463145
 10
5.7019231006
 20
-1.6924484445
 10
5.691594408
 20
-1.7032857946
  0
LWPOLYLINE
  5
8B
330
1F
100
AcDbEntity
  8
0
  6
Continuous
 62
     7
370
    15
100
AcDbPolyline
 90
        9
 70
   128
 43
0.0
 10
-0.0354856228
 20
-5.5797384074
 10
-0.0479589279
 20
-5.584334902
 10
-0.0578709682
 20
-5.5916735026
 10
-0.0648408296
 20
-5.6014721911
 10
-0.0686006641
 20
-5.6133544093
 10
-0.0690059834
 20
-5.6268635302
 10
-0.0660412113
 20
-5.6414804059
 10
-0.0598202824
 20
-5.656643318
 10
-0.0505822635
 20
-5.6717695644
  0
LWPOLYLINE
  5
94
330
1F
100
AcDbEntity
  8
0
  6
Continuous
 62
     7
370
    15
100
AcDbPolyline
 90
        7
 70
   128
 43
0.0
 10
4.6097167408
 20
-3.0060782107
 10
4.6158893557
 20
-3.0167291607
 10
4.6227839954
 20
-3.0461401319
 10
4.6193337644
 20
-3.0817140645
 10
4.6056236186
 20
-3.1225750103
 10
4.5819911475
 20
-3.1677168372
 10
4.5490182609
 20
-3.2160280035
  0
LWPOLYLINE
  5
9E
330
1F
100
AcDbEntity
  8
0
  6
Continuous
 62
     7
370
    15
100
AcDbPolyline
 90
        7
 70
   128
 43
0.0
 10
0.1607152014
 20
2.604582143
 10
0.193688088
 20
2.6528933094
 10
0.2173205591
 20
2.6980351363
 10
0.2310307048
 20
2.7388960821
 10
0.2344809359
 20
2.7744700147
 10
0.2275862962
 20
2.8038809859
 10
0.2211524909
 20
2.81489545
  0
LWPOLYLINE
  5
9F
330
1F
100
AcDbEntity
  8
0
  6
Continuous
 62
     7
370
    15
100
AcDbPolyline
 90
        6
 70
   128
 43
0.0
 10
-2.7612644062
 20
0.6268001977
 10
-2.8125162994
 20
0.6181026675
 10
-2.8566449474
 20
0.6173794522
 10
-2.8925637565
 20
0.6246483597
 10
-2.9193882863
 20
0.6397304055
 10
-2.9303973553
 20
0.6517607025
  0
LWPOLYLINE
  5
A6
330
1F
100
AcDbEntity
  8
0
  6
Continuous
 62
     7
370
    15
100
AcDbPolyline
 90
        7
 70
   128
 43
0.0
 10
-0.2117644839
 20
3.7533859616
 10
-0.2057038113
 20
3.7428924445
 10
-0.1988091716
 20
3.7134814733
 10
-0.2022594027
 20
3.6779075407
 10
-0.2159695484
 20
3.6370465949
 10
-0.2396020195
 20
3.591904768
 10
-0.2725749061
 20
3.5435936017
  0
LINE
  5
A8
330
1F
100
AcDbEntity
  8
0
  6
Continuous
 62
     7
370
    15
100
AcDbLine
 10
5.0430068483
 20
-3.9450896693
 30
0.0
 11
0.2214136813
 21
2.8145319359
 31
0.0
  0
LINE
  5
A9
330
1F
100
AcDbEntity
  8
0
  6
Continuous
 62
     7
370
    15
100
AcDbLine
 10
-2.930285413
 20
0.6516032695
 30
0.0
 11
1.8913077541
 21
-6.1080183357
 31
0.0
  0
LINE
  5
AA
330
1F
100
AcDbEntity
  8
0
  6
Continuous
 62
     7
370
    15
100
AcDbLine
 10
-0.0178268197
 20
2.8737139918
 30
0.0
 11
-1.0911017009
 21
2.6245703694
 31
0.0
  0
LINE
  5
AB
330
1F
100
AcDbEntity
  8
0
  6
Continuous
 62
     7
370
    15
100
AcDbLine
 10
-2.1400958618
 20
1.9176660858
 30
0.0
 11
-2.8801115783
 21
0.937903807
 31
0.0
  0
LINE
  5
AC
330
1F
100
AcDbEntity
  8
0
  6
Continuous
 62
     7
370
    15
100
AcDbLine
 10
-0.9758179998
 20
3.4591408219
 30
0.0
 11
-1.7158337163
 21
2.4793785431
 31
0.0
  0
LINE
  5
AD
330
1F
100
AcDbEntity
  8
0
  6
Continuous
 62
     7
370
    15
100
AcDbLine
 10
-1.7156777718
 20
2.4795850096
 30
0.0
 11
-2.7887006133
 21
2.2304998942
 31
0.0
  0
LINE
  5
AE
330
1F
100
AcDbEntity
  8
0
  6
Continuous
 62
     7
370
    15
100
AcDbLine
 10
4.6097167408
 20
-3.0060782107
 30
0.0
 11
-0.2118764262
 21
3.7535433945
 31
0.0
  0
LINE
  5
AF
330
1F
100
AcDbEntity
  8
0
  6
Continuous
 62
     7
370
    15
100
AcDbLine
 10
7.9821901533
 20
-6.8072651396
 30
0.0
 11
8.458263548
 21
-6.1769558859
 31
0.0
  0
LINE
  5
B0
330
1F
100
AcDbEntity
  8
0
  6
Continuous
 62
     7
370
    15
100
AcDbLine
 10
-3.3635755205
 20
1.5906147282
 30
0.0
 11
-2.8890685365
 21
0.9253807381
 31
0.0
  0
LINE
  5
B1
330
1F
100
AcDbEntity
  8
0
  6
Continuous
 62
     7
370
    15
100
AcDbLine
 10
2.6739991818
 20
-10.0905480159
 30
0.0
 11
3.3667176302
 21
-9.9297444915
 31
0.0
  0
LINE
  5
B2
330
1F
100
AcDbEntity
  8
0
  6
Continuous
 62
     7
370
    15
100
AcDbLine
 10
5.7231574574
 20
-1.6818266897
 30
0.0
 11
5.030439009
 21
-1.8426302141
 31
0.0
  0
LINE
  5
B3
330
1F
100
AcDbEntity
  8
0
  6
Continuous
 62
     7
370
    15
100
AcDbLine
 10
0.4149664859
 20
-4.9651095661
 30
0.0
 11
-0.0611069087
 21
-5.5954188198
 31
0.0
  0
LINE
  5
B4
330
1F
100
AcDbEntity
  8
0
  6
Continuous
 62
     7
370
    15
100
AcDbLine
 10
6.183883772
 20
-4.2245378448
 30
0.0
 11
7.9716655081
 21
-6.730914395
 31
0.0
  0
LINE
  5
B5
330
1F
100
AcDbEntity
  8
0
  6
Continuous
 62
     7
370
    15
100
AcDbLine
 10
7.9565688674
 20
-6.822945552
 30
0.0
 11
5.2549669187
 21
-7.4500792972
 31
0.0
  0
LINE
  5
B6
330
1F
100
AcDbEntity
  8
0
  6
Continuous
 62
     7
370
    15
100
AcDbLine
 10
-1.4627583927
 20
1.9678204674
 30
0.0
 11
5.2549669187
 21
-7.4500792972
 31
0.0
  0
LINE
  5
B7
330
1F
100
AcDbEntity
  8
0
  6
Continuous
 62
     7
370
    15
100
AcDbLine
 10
-0.4236807202
 20
2.209025754
 30
0.0
 11
-1.4627583927
 21
1.9678204674
 31
0.0
  0
LINE
  5
B8
330
1F
100
AcDbEntity
  8
0
  6
Continuous
 62
     7
370
    15
100
AcDbLine
 10
4.3979124469
 20
-4.5505958512
 30
0.0
 11
-0.4236807202
 21
2.209025754
 31
0.0
  0
LINE
  5
B9
330
1F
100
AcDbEntity
  8
0
  6
Continuous
 62
     7
370
    15
100
AcDbLine
 10
6.060436723
 20
-4.1646673926
 30
0.0
 11
4.3979124469
 21
-4.5505958512
 31
0.0
  0
LINE
  5
BA
330
1F
100
AcDbEntity
  8
0
  6
Continuous
 62
     7
370
    15
100
AcDbLine
 10
-2.0927728609
 20
1.9620790253
 30
0.0
 11
-2.8544902923
 21
0.9535842194
 31
0.0
  0
LINE
  5
BB
330
1F
100
AcDbEntity
  8
0
  6
Continuous
 62
     7
370
    15
100
AcDbLine
 10
-3.2011223783
 20
1.7047933863
 30
0.0
 11
-2.0927728609
 21
1.9620790253
 31
0.0
  0
LINE
  5
BC
330
1F
100
AcDbEntity
  8
0
  6
Continuous
 62
     7
370
    15
100
AcDbLine
 10
-1.7119141452
 20
2.4663264283
 30
0.0
 11
-2.8202636626
 21
2.2090407893
 31
0.0
  0
LINE
  5
BD
330
1F
100
AcDbEntity
  8
0
  6
Continuous
 62
     7
370
    15
100
AcDbLine
 10
-0.9501967138
 20
3.4748212342
 30
0.0
 11
-1.7119141452
 21
2.4663264283
 31
0.0
  0
LINE
  5
BE
330
1F
100
AcDbEntity
  8
0
  6
Continuous
 62
     7
370
    15
100
AcDbLine
 10
-1.1577393865
 20
2.5949692478
 30
0.0
 11
-0.3960219551
 21
3.6034640538
 31
0.0
  0
LINE
  5
BF
330
1F
100
AcDbEntity
  8
0
  6
Continuous
 62
     7
370
    15
100
AcDbLine
 10
-0.0493898691
 20
2.8522548869
 30
0.0
 11
-1.1577393865
 21
2.5949692478
 31
0.0
  0
LINE
  5
C0
330
1F
100
AcDbEntity
  8
0
  6
Continuous
 62
     7
370
    15
100
AcDbLine
 10
-1.5385981022
 20
2.0907218449
 30
0.0
 11
-0.4302485848
 21
2.3480074839
 31
0.0
  0
LINE
  5
C1
330
1F
100
AcDbEntity
  8
0
  6
Continuous
 62
     7
370
    15
100
AcDbLine
 10
-2.3003155336
 20
1.0822270389
 30
0.0
 11
-1.5385981022
 21
2.0907218449
 31
0.0
  0
LINE
  5
C2
330
1F
100
AcDbEntity
  8
0
  6
Continuous
 62
     7
370
    15
100
AcDbLine
 10
5.2549669187
 20
-7.4500792972
 30
0.0
 11
3.3982806796
 21
-9.9082853867
 31
0.0
  0
LINE
  5
C3
330
1F
100
AcDbEntity
  8
0
  6
Continuous
 62
     7
370
    15
100
AcDbLine
 10
3.296498136
 20
-9.8953655075
 30
0.0
 11
1.5087163999
 21
-7.3889889572
 31
0.0
  0
LINE
  5
C4
330
1F
100
AcDbEntity
  8
0
  6
Continuous
 62
     7
370
    15
100
AcDbLine
 10
1.5021485353
 20
-7.2500072273
 30
0.0
 11
2.6447246824
 21
-5.7372650184
 31
0.0
  0
LINE
  5
C5
330
1F
100
AcDbEntity
  8
0
  6
Continuous
 62
     7
370
    15
100
AcDbLine
 10
-2.1768684847
 20
1.0223565868
 30
0.0
 11
2.6447246824
 21
-5.7372650184
 31
0.0
  0
LINE
  5
C6
330
1F
100
AcDbEntity
  8
0
  6
Continuous
 62
     7
370
    15
100
AcDbLine
 10
-1.4627583927
 20
1.9678204674
 30
0.0
 11
-2.1768684847
 21
1.0223565868
 31
0.0
  0
LINE
  5
C7
330
1F
100
AcDbEntity
  8
0
  6
Continuous
 62
     7
370
    15
100
AcDbLine
 10
0.1607152014
 20
2.604582143
 30
0.0
 11
4.9823083684
 21
-4.1550394622
 31
0.0
  0
LINE
  5
C8
330
1F
100
AcDbEntity
  8
0
  6
Continuous
 62
     7
370
    15
100
AcDbLine
 10
-2.7612644062
 20
0.6268001977
 30
0.0
 11
2.0603287609
 21
-6.1328214075
 31
0.0
  0
LINE
  5
C9
330
1F
100
AcDbEntity
  8
0
  6
Continuous
 62
     7
370
    15
100
AcDbLine
 10
6.6599571666
 20
-3.594228591
 30
0.0
 11
6.183883772
 21
-4.2245378448
 31
0.0
  0
LINE
  5
CA
330
1F
100
AcDbEntity
  8
0
  6
Continuous
 62
     7
370
    15
100
AcDbLine
 10
6.060436723
 20
-4.1646673926
 30
0.0
 11
6.5365101177
 21
-3.5343581389
 31
0.0
  0
LINE
  5
CB
330
1F
100
AcDbEntity
  8
0
  6
Continuous
 62
     7
370
    15
100
AcDbLine
 10
7.9716655081
 20
-6.730914395
 30
0.0
 11
8.4477389027
 21
-6.1006051413
 31
0.0
  0
LINE
  5
CC
330
1F
100
AcDbEntity
  8
0
  6
Continuous
 62
     7
370
    15
100
AcDbLine
 10
8.4477389027
 20
-6.1006051413
 30
0.0
 11
6.6599571666
 21
-3.594228591
 31
0.0
  0
LINE
  5
CD
330
1F
100
AcDbEntity
  8
0
  6
Continuous
 62
     7
370
    15
100
AcDbLine
 10
6.5365101177
 20
-3.5343581389
 30
0.0
 11
5.0038175001
 21
-3.8901482515
 31
0.0
  0
LINE
  5
CE
330
1F
100
AcDbEntity
  8
0
  6
Continuous
 62
     7
370
    15
100
AcDbLine
 10
5.7933769516
 20
-1.7162056738
 30
0.0
 11
7.5811586877
 21
-4.222582224
 31
0.0
  0
LINE
  5
CF
330
1F
100
AcDbEntity
  8
0
  6
Continuous
 62
     7
370
    15
100
AcDbLine
 10
4.5490182609
 20
-3.2160280035
 30
0.0
 11
-0.2725749061
 21
3.5435936017
 31
0.0
  0
LINE
  5
D0
330
1F
100
AcDbEntity
  8
0
  6
Continuous
 62
     7
370
    15
100
AcDbLine
 10
5.691594408
 20
-1.7032857946
 30
0.0
 11
4.5490182609
 21
-3.2160280035
 31
0.0
  0
LINE
  5
D1
330
1F
100
AcDbEntity
  8
0
  6
Continuous
 62
     7
370
    15
100
AcDbLine
 10
7.5877265524
 20
-4.361563954
 30
0.0
 11
7.3920684639
 21
-4.6206103639
 31
0.0
  0
LINE
  5
D2
330
1F
100
AcDbEntity
  8
0
  6
Continuous
 62
     7
370
    15
100
AcDbLine
 10
1.0050881753
 20
-7.1517643418
 30
0.0
 11
-0.0505822635
 21
-5.6717695644
 31
0.0
  0
LINE
  5
D3
330
1F
100
AcDbEntity
  8
0
  6
Continuous
 62
     7
370
    15
100
AcDbLine
 10
-0.0354856228
 20
-5.5797384074
 30
0.0
 11
1.2943032093
 21
-5.2710491681
 31
0.0
  0
LINE
  5
D4
330
1F
100
AcDbEntity
  8
0
  6
Continuous
 62
     7
370
    15
100
AcDbLine
 10
1.5087163999
 20
-7.3889889572
 30
0.0
 11
0.8159979515
 21
-7.5497924816
 31
0.0
  0
LINE
  5
D5
330
1F
100
AcDbEntity
  8
0
  6
Continuous
 62
     7
370
    15
100
AcDbLine
 10
0.8094300869
 20
-7.4108107517
 30
0.0
 11
1.5021485353
 21
-7.2500072273
 31
0.0
  0
LINE
  5
D6
330
1F
100
AcDbEntity
  8
0
  6
Continuous
 62
     7
370
    15
100
AcDbLine
 10
2.6037796876
 20
-10.0561690319
 30
0.0
 11
3.296498136
 21
-9.8953655075
 31
0.0
  0
LINE
  5
D7
330
1F
100
AcDbEntity
  8
0
  6
Continuous
 62
     7
370
    15
100
AcDbLine
 10
0.8159979515
 20
-7.5497924816
 30
0.0
 11
2.6037796876
 21
-10.0561690319
 31
0.0
  0
LINE
  5
D8
330
1F
100
AcDbEntity
  8
0
  6
Continuous
 62
     7
370
    15
100
AcDbLine
 10
0.8094300869
 20
-7.4108107517
 30
0.0
 11
1.8437691626
 21
-6.0413717151
 31
0.0
  0
LINE
  5
D9
330
1F
100
AcDbEntity
  8
0
  6
Continuous
 62
     7
370
    15
100
AcDbLine
 10
5.691594408
 20
-1.7032857946
 30
0.0
 11
4.9988759596
 21
-1.864089319
 31
0.0
  0
LINE
  5
DA
330
1F
100
AcDbEntity
  8
0
  6
Continuous
 62
     7
370
    15
100
AcDbLine
 10
4.9988759596
 20
-1.864089319
 30
0.0
 11
4.3797939216
 21
-2.6837384357
 31
0.0
  0
LINE
  5
DB
330
1F
100
AcDbEntity
  8
0
  6
Continuous
 62
     7
370
    15
100
AcDbLine
 10
0.4405877719
 20
-4.9494291537
 30
0.0
 11
-0.0354856228
 21
-5.5797384074
 31
0.0
  0
LINE
  5
DC
330
1F
100
AcDbEntity
  8
0
  6
Continuous
 62
     7
370
    15
100
AcDbLine
 10
0.4405877719
 20
-4.9494291537
 30
0.0
 11
0.9762062628
 21
-4.8250938754
 31
0.0
  0
LINE
  5
DD
330
1F
100
AcDbEntity
  8
0
  6
Continuous
 62
     7
370
    15
100
AcDbLine
 10
-0.2725749061
 20
3.5435936017
 30
0.0
 11
-0.9402686047
 21
2.6595838637
 31
0.0
  0
LINE
  5
DE
330
1F
100
AcDbEntity
  8
0
  6
Continuous
 62
     7
370
    15
100
AcDbLine
 10
-2.2381675599
 20
1.7878216133
 30
0.0
 11
-3.1945545137
 21
1.5658116564
 31
0.0
  0
LINE
  5
DF
330
1F
100
AcDbEntity
  8
0
  6
Continuous
 62
     7
370
    15
100
AcDbLine
 10
-3.1945545137
 20
1.5658116564
 30
0.0
 11
-2.8114833337
 21
1.0287658844
 31
0.0
  0
ARC
  5
E0
330
1F
100
AcDbEntity
  8
0
  6
Continuous
 62
     7
370
    15
100
AcDbCircle
 10
6.0719848597
 20
-4.2980593881
 30
0.0
 40
0.1338909403739608
100
AcDbArc
 50
33.3063294867
 51
94.9479270836
  0
ARC
  5
E1
330
1F
100
AcDbEntity
  8
0
  6
Continuous
 62
     7
370
    15
100
AcDbCircle
 10
1.6085804781
 20
-7.314623623
 30
0.0
 40
0.1245111924847532
100
AcDbArc
 50
148.7374476316
 51
216.6737840626
  0
ARC
  5
E2
330
1F
100
AcDbEntity
  8
0
  6
Continuous
 62
     7
370
    15
100
AcDbCircle
 10
-0.7522972092
 20
3.3239966485
 30
0.0
 40
1.162389303276733
100
AcDbArc
 50
286.4218796332
 51
321.7634105882
  0
ARC
  5
E3
330
1F
100
AcDbEntity
  8
0
  6
Continuous
 62
     7
370
    15
100
AcDbCircle
 10
-0.3238166419
 20
2.2833910882
 30
0.0
 40
0.1245111924847499
100
AcDbArc
 50
148.7374476316
 51
216.6737840626
  0
ARC
  5
E4
330
1F
100
AcDbEntity
  8
0
  6
Continuous
 62
     7
370
    15
100
AcDbCircle
 10
4.0692959579
 20
-3.4356249567
 30
0.0
 40
1.162389303276759
100
AcDbArc
 50
286.4218796332
 51
321.7634105882
  0
ARC
  5
E5
330
1F
100
AcDbEntity
  8
0
  6
Continuous
 62
     7
370
    15
100
AcDbCircle
 10
-2.288767397
 20
0.9488350435
 30
0.0
 40
0.1338909403739565
100
AcDbArc
 50
33.3063294867
 51
94.9479270836
  0
ARC
  5
E6
330
1F
100
AcDbEntity
  8
0
  6
Continuous
 62
     7
370
    15
100
AcDbCircle
 10
-3.0898808952
 20
1.7417710922
 30
0.0
 40
1.162389303276729
100
AcDbArc
 50
286.4218796332
 51
321.7634105882
  0
ARC
  5
E7
330
1F
100
AcDbEntity
  8
0
  6
Continuous
 62
     7
370
    15
100
AcDbCircle
 10
1.7317122719
 20
-5.017850513
 30
0.0
 40
1.162389303276743
100
AcDbArc
 50
286.4218796332
 51
321.7634105882
  0
ARC
  5
E8
330
1F
100
AcDbEntity
  8
0
  6
Continuous
 62
     7
370
    15
100
AcDbCircle
 10
-0.6905424275
 20
2.5291879715
 30
0.0
 40
0.9546994143138111
100
AcDbArc
 50
207.3401015947
 51
216.0155254441
  0
ARC
  5
E9
330
1F
100
AcDbEntity
  8
0
  6
Continuous
 62
     7
370
    15
100
AcDbCircle
 10
-1.0450036436
 20
2.4309874466
 30
0.0
 40
0.1989959267353886
100
AcDbArc
 50
103.3944262504
 51
124.5081088661
  0
ARC
  5
EA
330
1F
100
AcDbEntity
  8
0
  6
Continuous
 62
     7
370
    15
100
AcDbCircle
 10
-1.9821289069
 20
1.7967670281
 30
0.0
 40
0.1989224497338184
100
AcDbArc
 50
123.7945470517
 51
142.5715808163
  0
ARC
  5
EB
330
1F
100
AcDbEntity
  8
0
  6
Continuous
 62
     7
370
    15
100
AcDbCircle
 10
6.5480582543
 20
-3.6677501344
 30
0.0
 40
0.1338909403739599
100
AcDbArc
 50
33.3063294867
 51
94.9479270836
  0
ARC
  5
EC
330
1F
100
AcDbEntity
  8
0
  6
Continuous
 62
     7
370
    15
100
AcDbCircle
 10
-0.3844738185
 20
3.4700720583
 30
0.0
 40
0.1338909403739593
100
AcDbArc
 50
33.3063294867
 51
94.9479270836
  0
ARC
  5
ED
330
1F
100
AcDbEntity
  8
0
  6
Continuous
 62
     7
370
    15
100
AcDbCircle
 10
-3.0946904355
 20
1.6401769906
 30
0.0
 40
0.1245111924847528
100
AcDbArc
 50
148.7374476316
 51
216.6737840626
  0
ARC
  5
EE
330
1F
100
AcDbEntity
  8
0
  6
Continuous
 62
     7
370
    15
100
AcDbCircle
 10
7.4812946095
 20
-4.2969475583
 30
0.0
 40
0.1245111924847453
100
AcDbArc
 50
328.7374476316
 51
36.6737840626
  0
ARC
  5
EF
330
1F
100
AcDbEntity
  8
0
  6
Continuous
 62
     7
370
    15
100
AcDbCircle
 10
0.9158620297
 20
-7.4754271474
 30
0.0
 40
0.1245111924847489
100
AcDbArc
 50
148.7374476316
 51
216.6737840626
  0
ARC
  5
F0
330
1F
100
AcDbEntity
  8
0
  6
Continuous
 62
     7
370
    15
100
AcDbCircle
 10
-1.6942000823
 20
2.478760574
 30
0.0
 40
0.021642458374873
100
AcDbArc
 50
178.3637795671
 51
215.0664141759
  0
ARC
  5
F1
330
1F
100
AcDbEntity
  8
0
  6
Continuous
 62
     7
370
    15
100
AcDbCircle
 10
8.4003085981
 20
-6.1460439818
 30
0.0
 40
0.0656834988954744
100
AcDbArc
 50
331.925513848
 51
43.7715510604
  0
ARC
  5
F2
330
1F
100
AcDbEntity
  8
0
  6
Continuous
 62
     7
370
    15
100
AcDbCircle
 10
2.6641289542
 20
-10.0218064976
 30
0.0
 40
0.0694465099358054
100
AcDbArc
 50
209.6569438682
 51
278.1709482349
  0
ARC
  5
F3
330
1F
100
AcDbEntity
  8
0
  6
Continuous
 62
     7
370
    15
100
AcDbCircle
 10
5.0437635895
 20
-1.8961703795
 30
0.0
 40
0.0551733065399135
100
AcDbArc
 50
103.9753313313
 51
144.4467162566
  0
ARC
  5
F4
330
1F
100
AcDbEntity
  8
0
  6
Continuous
 62
     7
370
    15
100
AcDbCircle
 10
0.4487599342
 20
-4.9915545841
 30
0.0
 40
0.0429107926484018
100
AcDbArc
 50
100.9787773603
 51
141.9550903702
  0
ARC
  5
F5
330
1F
100
AcDbEntity
  8
0
  6
Continuous
 62
     7
370
    15
100
AcDbCircle
 10
-0.0044994794
 20
2.8201709034
 30
0.0
 40
0.0551772515199369
100
AcDbArc
 50
104.0063749393
 51
144.4459133238
  0
ARC
  5
F6
330
1F
100
AcDbEntity
  8
0
  6
Continuous
 62
     7
370
    15
100
AcDbCircle
 10
-2.8463160445
 20
0.911453992
 30
0.0
 40
0.0429158990461052
100
AcDbArc
 50
100.9802909991
 51
141.912207912
  0
ARC
  5
F7
330
1F
100
AcDbEntity
  8
0
  6
Continuous
 62
     7
370
    15
100
AcDbCircle
 10
-0.9420245515
 20
3.4326958038
 30
0.0
 40
0.0429107926484186
100
AcDbArc
 50
100.9787773603
 51
141.9550903702
  0
ARC
  5
F8
330
1F
100
AcDbEntity
  8
0
  6
Continuous
 62
     7
370
    15
100
AcDbCircle
 10
-2.7753760328
 20
2.1769597288
 30
0.0
 40
0.0551733065399205
100
AcDbArc
 50
103.9753313313
 51
144.4467162566
  0
ARC
  5
F9
330
1F
100
AcDbEntity
  8
0
  6
Continuous
 62
     7
370
    15
100
AcDbCircle
 10
-3.2589766592
 20
1.7158436007
 30
0.0
 40
0.1632782813014467
100
AcDbArc
 50
230.2814078348
 51
293.238178838
  0
MTEXT
  5
FB
330
1F
100
AcDbEntity
  8
0
  6
Continuous
 62
     7
100
AcDbMText
 10
-3.3926602607
 20
-11.1108193992
 30
0.0
 40
4.83362
 41
0.0
 71
     1
 72
     1
  1
SolidWorks Educational Edition.
  7
SLDTEXTSTYLE0
 73
     1
 44
1.0
  0
MTEXT
  5
FC
330
1F
100
AcDbEntity
  8
0
  6
Continuous
 62
     7
100
AcDbMText
 10
-3.3926602607
 20
-18.3612493992
 30
0.0
 40
4.83362
 41
0.0
 71
     1
 72
     1
  1
For Instructional Use Only.
  7
SLDTEXTSTYLE0
 73
     1
 44
1.0
  0
ENDSEC
  0
SECTION
  2
OBJECTS
  0
DICTIONARY
  5
C
330
0
100
AcDbDictionary
281
     1
  3
ACAD_GROUP
350
D
  3
ACAD_LAYOUT
350
1A
  3
ACAD_MLINESTYLE
350
17
  3
ACAD_PLOTSETTINGS
350
19
  3
ACAD_PLOTSTYLENAME
350
E
  0
DICTIONARY
  5
D
102
{ACAD_REACTORS
330
C
102
}
330
C
100
AcDbDictionary
281
     1
  0
DICTIONARY
  5
1A
102
{ACAD_REACTORS
330
C
102
}
330
C
100
AcDbDictionary
281
     1
  3
Layout1
350
1E
  3
Layout2
350
26
  3
Model
350
22
  0
DICTIONARY
  5
17
102
{ACAD_REACTORS
330
C
102
}
330
C
100
AcDbDictionary
281
     1
  3
Standard
350
18
  0
DICTIONARY
  5
19
102
{ACAD_REACTORS
330
C
102
}
330
C
100
AcDbDictionary
281
     1
  0
ACDBDICTIONARYWDFLT
  5
E
102
{ACAD_REACTORS
330
C
102
}
330
C
100
AcDbDictionary
281
     1
  3
Normal
350
F
100
AcDbDictionaryWithDefault
340
F
  0
LAYOUT
  5
1E
102
{ACAD_REACTORS
330
1A
102
}
330
1A
100
AcDbPlotSettings
  1

  2
none_device
  4

  6

 40
0.0
 41
0.0
 42
0.0
 43
0.0
 44
0.0
 45
0.0
 46
0.0
 47
0.0
 48
0.0
 49
0.0
140
0.0
141
0.0
142
1.0
143
1.0
 70
   688
 72
     0
 73
     0
 74
     5
  7

 75
    16
147
1.0
148
0.0
149
0.0
100
AcDbLayout
  1
Layout1
 70
     1
 71
     1
 10
0.0
 20
0.0
 11
420.0
 21
297.0
 12
0.0
 22
0.0
 32
0.0
 14
1.0000000000E+20
 24
1.0000000000E+20
 34
1.0000000000E+20
 15
-1.0000000000E+20
 25
-1.0000000000E+20
 35
-1.0000000000E+20
146
0.0
 13
0.0
 23
0.0
 33
0.0
 16
1.0
 26
0.0
 36
0.0
 17
0.0
 27
1.0
 37
0.0
 76
     0
330
1B
  0
LAYOUT
  5
26
102
{ACAD_REACTORS
330
1A
102
}
330
1A
100
AcDbPlotSettings
  1

  2
none_device
  4

  6

 40
0.0
 41
0.0
 42
0.0
 43
0.0
 44
0.0
 45
0.0
 46
0.0
 47
0.0
 48
0.0
 49
0.0
140
0.0
141
0.0
142
1.0
143
1.0
 70
   688
 72
     0
 73
     0
 74
     5
  7

 75
    16
147
1.0
148
0.0
149
0.0
100
AcDbLayout
  1
Layout2
 70
     1
 71
     2
 10
0.0
 20
0.0
 11
0.0
 21
0.0
 12
0.0
 22
0.0
 32
0.0
 14
0.0
 24
0.0
 34
0.0
 15
0.0
 25
0.0
 35
0.0
146
0.0
 13
0.0
 23
0.0
 33
0.0
 16
1.0
 26
0.0
 36
0.0
 17
0.0
 27
1.0
 37
0.0
 76
     0
330
23
  0
LAYOUT
  5
22
102
{ACAD_REACTORS
330
1A
102
}
330
1A
100
AcDbPlotSettings
  1

  2
none_device
  4
ANSI_A_(11.00_x_8.50_Inches)
  6

 40
6.35
 41
19.05
 42
6.35000508
 43
19.05000254
 44
279.4
 45
215.9
 46
94.3840883293
 47
137.0419680093
 48
0.0
 49
0.0
140
0.0
141
0.0
142
0.6047666347
143
1.0
 70
  1696
 72
     0
 73
     0
 74
     0
  7

 75
     0
147
0.0179189148
148
0.0
149
0.0
100
AcDbLayout
  1
Model
 70
     1
 71
     0
 10
0.0
 20
0.0
 11
420.0
 21
297.0
 12
0.0
 22
0.0
 32
0.0
 14
-3.3926602607
 24
-10.0912530075
 34
0.0
 15
8.465992097
 25
3.8232050945
 35
0.0
146
0.0
 13
0.0
 23
0.0
 33
0.0
 16
1.0
 26
0.0
 36
0.0
 17
0.0
 27
1.0
 37
0.0
 76
     0
330
1F
331
29
  0
MLINESTYLE
  5
18
102
{ACAD_REACTORS
330
17
102
}
330
17
100
AcDbMlineStyle
  2
Standard
 70
     0
  3

 62
   256
 51
90.0
 52
90.0
 71
     2
 49
0.5
 62
   256
  6
BYLAYER
 49
-0.5
 62
   256
  6
BYLAYER
  0
ACDBPLACEHOLDER
  5
F
102
{ACAD_REACTORS
330
E
102
}
330
E
  0
ENDSEC
  0
EOF
