  0
SECTION
  2
HEADER
  9
$ACADVER
  1
AC1015
  9
$ACADMAINTVER
 70
     6
  9
$DWGCODEPAGE
  3
ANSI_1252
  9
$INSBASE
 10
0.0
 20
0.0
 30
0.0
  9
$EXTMIN
 10
-38.0784379874
 20
-24.7092730447
 30
0.0
  9
$EXTMAX
 10
11.3526185177
 20
29.265252633
 30
0.0
  9
$LIMMIN
 10
0.0
 20
0.0
  9
$LIMMAX
 10
420.0
 20
297.0
  9
$ORTHOMODE
 70
     0
  9
$REGENMODE
 70
     1
  9
$FILLMODE
 70
     1
  9
$QTEXTMODE
 70
     0
  9
$MIRRTEXT
 70
     1
  9
$LTSCALE
 40
1.0
  9
$ATTMODE
 70
     1
  9
$TEXTSIZE
 40
6.35
  9
$TRACEWID
 40
1.0
  9
$TEXTSTYLE
  7
Standard
  9
$CLAYER
  8
0
  9
$CELTYPE
  6
ByLayer
  9
$CECOLOR
 62
   256
  9
$CELTSCALE
 40
1.0
  9
$DISPSILH
 70
     0
  9
$DIMSCALE
 40
1.0
  9
$DIMASZ
 40
5.9944
  9
$DIMEXO
 40
0.9906
  9
$DIMDLI
 40
3.75
  9
$DIMRND
 40
0.0
  9
$DIMDLE
 40
0.0
  9
$DIMEXE
 40
0.9906
  9
$DIMTP
 40
0.0
  9
$DIMTM
 40
0.0
  9
$DIMTXT
 40
6.35
  9
$DIMCEN
 40
2.5
  9
$DIMTSZ
 40
0.0
  9
$DIMTOL
 70
     0
  9
$DIMLIM
 70
     0
  9
$DIMTIH
 70
     1
  9
$DIMTOH
 70
     1
  9
$DIMSE1
 70
     0
  9
$DIMSE2
 70
     0
  9
$DIMTAD
 70
     1
  9
$DIMZIN
 70
     0
  9
$DIMBLK
  1

  9
$DIMASO
 70
     1
  9
$DIMSHO
 70
     1
  9
$DIMPOST
  1

  9
$DIMAPOST
  1

  9
$DIMALT
 70
     0
  9
$DIMALTD
 70
     3
  9
$DIMALTF
 40
0.0393700787
  9
$DIMLFAC
 40
1.0
  9
$DIMTOFL
 70
     1
  9
$DIMTVP
 40
0.0
  9
$DIMTIX
 70
     0
  9
$DIMSOXD
 70
     0
  9
$DIMSAH
 70
     0
  9
$DIMBLK1
  1

  9
$DIMBLK2
  1

  9
$DIMSTYLE
  2
ISO-25
  9
$DIMCLRD
 70
     0
  9
$DIMCLRE
 70
     0
  9
$DIMCLRT
 70
     0
  9
$DIMTFAC
 40
1.0
  9
$DIMGAP
 40
1.524
  9
$DIMJUST
 70
     0
  9
$DIMSD1
 70
     0
  9
$DIMSD2
 70
     0
  9
$DIMTOLJ
 70
     0
  9
$DIMTZIN
 70
     0
  9
$DIMALTZ
 70
     0
  9
$DIMALTTZ
 70
     0
  9
$DIMUPT
 70
     0
  9
$DIMDEC
 70
     2
  9
$DIMTDEC
 70
     2
  9
$DIMALTU
 70
     2
  9
$DIMALTTD
 70
     3
  9
$DIMTXSTY
  7
Standard
  9
$DIMAUNIT
 70
     0
  9
$DIMADEC
 70
     2
  9
$DIMALTRND
 40
0.0
  9
$DIMAZIN
 70
     0
  9
$DIMDSEP
 70
    44
  9
$DIMATFIT
 70
     3
  9
$DIMFRAC
 70
     0
  9
$DIMLDRBLK
  1

  9
$DIMLUNIT
 70
     2
  9
$DIMLWD
 70
    -2
  9
$DIMLWE
 70
    -2
  9
$DIMTMOVE
 70
     0
  9
$LUNITS
 70
     2
  9
$LUPREC
 70
     2
  9
$SKETCHINC
 40
1.0
  9
$FILLETRAD
 40
10.0
  9
$AUNITS
 70
     0
  9
$AUPREC
 70
     2
  9
$MENU
  1
.
  9
$ELEVATION
 40
0.0
  9
$PELEVATION
 40
0.0
  9
$THICKNESS
 40
0.0
  9
$LIMCHECK
 70
     0
  9
$CHAMFERA
 40
10.0
  9
$CHAMFERB
 40
10.0
  9
$CHAMFERC
 40
20.0
  9
$CHAMFERD
 40
0.0
  9
$SKPOLY
 70
     0
  9
$TDCREATE
 40
2456560.924651504
  9
$TDUCREATE
 40
2456560.424651504
  9
$TDUPDATE
 40
2456560.924675695
  9
$TDUUPDATE
 40
2456560.424675695
  9
$TDINDWG
 40
0.0000000116
  9
$TDUSRTIMER
 40
0.0000000116
  9
$USRTIMER
 70
     1
  9
$ANGBASE
 50
0.0
  9
$ANGDIR
 70
     0
  9
$PDMODE
 70
     0
  9
$PDSIZE
 40
-1.0
  9
$PLINEWID
 40
0.0
  9
$SPLFRAME
 70
     0
  9
$SPLINETYPE
 70
     6
  9
$SPLINESEGS
 70
     8
  9
$HANDSEED
  5
53
  9
$SURFTAB1
 70
     6
  9
$SURFTAB2
 70
     6
  9
$SURFTYPE
 70
     6
  9
$SURFU
 70
     6
  9
$SURFV
 70
     6
  9
$UCSBASE
  2

  9
$UCSNAME
  2

  9
$UCSORG
 10
0.0
 20
0.0
 30
0.0
  9
$UCSXDIR
 10
1.0
 20
0.0
 30
0.0
  9
$UCSYDIR
 10
0.0
 20
1.0
 30
0.0
  9
$UCSORTHOREF
  2

  9
$UCSORTHOVIEW
 70
     0
  9
$UCSORGTOP
 10
0.0
 20
0.0
 30
0.0
  9
$UCSORGBOTTOM
 10
0.0
 20
0.0
 30
0.0
  9
$UCSORGLEFT
 10
0.0
 20
0.0
 30
0.0
  9
$UCSORGRIGHT
 10
0.0
 20
0.0
 30
0.0
  9
$UCSORGFRONT
 10
0.0
 20
0.0
 30
0.0
  9
$UCSORGBACK
 10
0.0
 20
0.0
 30
0.0
  9
$PUCSBASE
  2

  9
$PUCSNAME
  2

  9
$PUCSORG
 10
0.0
 20
0.0
 30
0.0
  9
$PUCSXDIR
 10
1.0
 20
0.0
 30
0.0
  9
$PUCSYDIR
 10
0.0
 20
1.0
 30
0.0
  9
$PUCSORTHOREF
  2

  9
$PUCSORTHOVIEW
 70
     0
  9
$PUCSORGTOP
 10
0.0
 20
0.0
 30
0.0
  9
$PUCSORGBOTTOM
 10
0.0
 20
0.0
 30
0.0
  9
$PUCSORGLEFT
 10
0.0
 20
0.0
 30
0.0
  9
$PUCSORGRIGHT
 10
0.0
 20
0.0
 30
0.0
  9
$PUCSORGFRONT
 10
0.0
 20
0.0
 30
0.0
  9
$PUCSORGBACK
 10
0.0
 20
0.0
 30
0.0
  9
$USERI1
 70
     0
  9
$USERI2
 70
     0
  9
$USERI3
 70
     0
  9
$USERI4
 70
     0
  9
$USERI5
 70
     0
  9
$USERR1
 40
0.0
  9
$USERR2
 40
0.0
  9
$USERR3
 40
0.0
  9
$USERR4
 40
0.0
  9
$USERR5
 40
0.0
  9
$WORLDVIEW
 70
     1
  9
$SHADEDGE
 70
     3
  9
$SHADEDIF
 70
    70
  9
$TILEMODE
 70
     1
  9
$MAXACTVP
 70
    64
  9
$PINSBASE
 10
0.0
 20
0.0
 30
0.0
  9
$PLIMCHECK
 70
     0
  9
$PEXTMIN
 10
1.0000000000E+20
 20
1.0000000000E+20
 30
1.0000000000E+20
  9
$PEXTMAX
 10
-1.0000000000E+20
 20
-1.0000000000E+20
 30
-1.0000000000E+20
  9
$PLIMMIN
 10
0.0
 20
0.0
  9
$PLIMMAX
 10
420.0
 20
297.0
  9
$UNITMODE
 70
     0
  9
$VISRETAIN
 70
     1
  9
$PLINEGEN
 70
     0
  9
$PSLTSCALE
 70
     1
  9
$TREEDEPTH
 70
  3020
  9
$CMLSTYLE
  2
Standard
  9
$CMLJUST
 70
     0
  9
$CMLSCALE
 40
20.0
  9
$PROXYGRAPHICS
 70
     1
  9
$MEASUREMENT
 70
     1
  9
$CELWEIGHT
370
    -1
  9
$ENDCAPS
280
     0
  9
$JOINSTYLE
280
     0
  9
$LWDISPLAY
290
     1
  9
$INSUNITS
 70
     4
  9
$HYPERLINKBASE
  1

  9
$STYLESHEET
  1

  9
$XEDIT
290
     1
  9
$CEPSNTYPE
380
     0
  9
$PSTYLEMODE
290
     1
  9
$FINGERPRINTGUID
  2
{EAC93922-798D-43D5-AD67-82AC858643AA}
  9
$VERSIONGUID
  2
{FAEB1C32-E019-11D5-929B-00C0DF256EC4}
  9
$EXTNAMES
290
     1
  9
$PSVPSCALE
 40
0.0
  9
$OLESTARTUP
290
     0
  0
ENDSEC
  0
SECTION
  2
CLASSES
  0
CLASS
  1
ACDBDICTIONARYWDFLT
  2
AcDbDictionaryWithDefault
  3
ObjectDBX Classes
 90
        0
280
     0
281
     0
  0
CLASS
  1
VISUALSTYLE
  2
AcDbVisualStyle
  3
ObjectDBX Classes
 90
     4095
280
     0
281
     0
  0
CLASS
  1
MATERIAL
  2
AcDbMaterial
  3
ObjectDBX Classes
 90
     1153
280
     0
281
     0
  0
CLASS
  1
ACDBPLACEHOLDER
  2
AcDbPlaceHolder
  3
ObjectDBX Classes
 90
        0
280
     0
281
     0
  0
CLASS
  1
LAYOUT
  2
AcDbLayout
  3
ObjectDBX Classes
 90
        0
280
     0
281
     0
  0
ENDSEC
  0
SECTION
  2
TABLES
  0
TABLE
  2
VPORT
  5
8
330
0
100
AcDbSymbolTable
 70
     1
  0
VPORT
  5
29
330
8
100
AcDbSymbolTableRecord
100
AcDbViewportTableRecord
  2
*Active
 70
     0
 10
0.0
 20
0.0
 11
1.0
 21
1.0
 12
-13.3629097348
 22
2.2779897942
 13
0.0
 23
0.0
 14
10.0
 24
10.0
 15
10.0
 25
10.0
 16
0.0
 26
0.0
 36
1.0
 17
0.0
 27
0.0
 37
0.0
 40
55.0540161913
 41
0.9158219713
 42
50.0
 43
0.0
 44
0.0
 50
0.0
 51
0.0
 71
     0
 72
   100
 73
     1
 74
     3
 75
     0
 76
     0
 77
     0
 78
     0
281
     0
 65
     1
110
0.0
120
0.0
130
0.0
111
1.0
121
0.0
131
0.0
112
0.0
122
1.0
132
0.0
 79
     0
146
0.0
  0
ENDTAB
  0
TABLE
  2
LTYPE
  5
5
330
0
100
AcDbSymbolTable
 70
     6
  0
LTYPE
  5
14
330
5
100
AcDbSymbolTableRecord
100
AcDbLinetypeTableRecord
  2
ByBlock
 70
     0
  3

 72
    65
 73
     0
 40
0.0
  0
LTYPE
  5
15
330
5
100
AcDbSymbolTableRecord
100
AcDbLinetypeTableRecord
  2
ByLayer
 70
     0
  3

 72
    65
 73
     0
 40
0.0
  0
LTYPE
  5
16
330
5
100
AcDbSymbolTableRecord
100
AcDbLinetypeTableRecord
  2
Continuous
 70
     0
  3
Solid line
 72
    65
 73
     0
 40
0.0
  0
LTYPE
  5
3F
330
5
100
AcDbSymbolTableRecord
100
AcDbLinetypeTableRecord
  2
HIDDEN
 70
     0
  3
Hidden __ __ __ __ __ __ __ __ __ __ __ __ __ __
 72
    65
 73
     2
 40
1.905
 49
1.27
 74
     0
 49
-0.635
 74
     0
  0
LTYPE
  5
40
330
5
100
AcDbSymbolTableRecord
100
AcDbLinetypeTableRecord
  2
PHANTOM
 70
     0
  3
Phantom ______  __  __  ______  __  __  ______
 72
    65
 73
     6
 40
12.7
 49
6.35
 74
     0
 49
-1.27
 74
     0
 49
1.27
 74
     0
 49
-1.27
 74
     0
 49
1.27
 74
     0
 49
-1.27
 74
     0
  0
LTYPE
  5
41
330
5
100
AcDbSymbolTableRecord
100
AcDbLinetypeTableRecord
  2
CENTER
 70
     0
  3
Center ____ _ ____ _ ____ _ ____ _ ____ _ ____
 72
    65
 73
     4
 40
10.16
 49
6.35
 74
     0
 49
-1.27
 74
     0
 49
1.27
 74
     0
 49
-1.27
 74
     0
  0
LTYPE
  5
42
330
5
100
AcDbSymbolTableRecord
100
AcDbLinetypeTableRecord
  2
CENTERX2
 70
     0
  3
Center (2x) ________  __  ________  __  _____
 72
    65
 73
     4
 40
20.32
 49
12.7
 74
     0
 49
-2.54
 74
     0
 49
2.54
 74
     0
 49
-2.54
 74
     0
  0
LTYPE
  5
43
330
5
100
AcDbSymbolTableRecord
100
AcDbLinetypeTableRecord
  2
DOT2
 70
     0
  3
Dot (.5x) ........................................
 72
    65
 73
     2
 40
0.635
 49
0.0
 74
     0
 49
-0.635
 74
     0
  0
ENDTAB
  0
TABLE
  2
LAYER
  5
2
330
0
100
AcDbSymbolTable
 70
     1
  0
LAYER
  5
10
330
2
100
AcDbSymbolTableRecord
100
AcDbLayerTableRecord
  2
0
 70
     0
 62
     7
  6
Continuous
370
    -3
390
F
  0
ENDTAB
  0
TABLE
  2
STYLE
  5
3
330
0
100
AcDbSymbolTable
 70
     2
  0
STYLE
  5
11
330
3
100
AcDbSymbolTableRecord
100
AcDbTextStyleTableRecord
  2
Standard
 70
     0
 40
0.0
 41
1.0
 50
0.0
 71
     0
 42
6.35
  3
txt
  4

  0
STYLE
  5
50
330
3
100
AcDbSymbolTableRecord
100
AcDbTextStyleTableRecord
  2
SLDTEXTSTYLE0
 70
     0
 40
0.0
 41
0.7
 50
0.0
 71
     0
 42
0.2
  3
TXT
  4

  0
ENDTAB
  0
TABLE
  2
VIEW
  5
6
330
0
100
AcDbSymbolTable
 70
     0
  0
ENDTAB
  0
TABLE
  2
UCS
  5
7
330
0
100
AcDbSymbolTable
 70
     0
  0
ENDTAB
  0
TABLE
  2
APPID
  5
9
330
0
100
AcDbSymbolTable
 70
     1
  0
APPID
  5
12
330
9
100
AcDbSymbolTableRecord
100
AcDbRegAppTableRecord
  2
ACAD
 70
     0
  0
ENDTAB
  0
TABLE
  2
DIMSTYLE
  5
A
330
0
100
AcDbSymbolTable
 70
     1
100
AcDbDimStyleTable
  0
DIMSTYLE
105
27
330
A
100
AcDbSymbolTableRecord
100
AcDbDimStyleTableRecord
  2
ISO-25
 70
     0
 41
2.5
 42
0.625
 43
3.75
 44
1.25
 73
     0
 74
     0
 77
     1
 78
     8
140
2.5
141
2.5
143
0.0393700787
147
0.625
171
     3
172
     1
178
     0
271
     2
272
     2
274
     3
278
    44
283
     0
284
     8
340
11
  0
ENDTAB
  0
TABLE
  2
BLOCK_RECORD
  5
1
330
0
100
AcDbSymbolTable
 70
     1
  0
BLOCK_RECORD
  5
1F
330
1
100
AcDbSymbolTableRecord
100
AcDbBlockTableRecord
  2
*Model_Space
340
22
  0
BLOCK_RECORD
  5
1B
330
1
100
AcDbSymbolTableRecord
100
AcDbBlockTableRecord
  2
*Paper_Space
340
1E
  0
BLOCK_RECORD
  5
23
330
1
100
AcDbSymbolTableRecord
100
AcDbBlockTableRecord
  2
*Paper_Space0
340
26
  0
ENDTAB
  0
ENDSEC
  0
SECTION
  2
BLOCKS
  0
BLOCK
  5
20
330
1F
100
AcDbEntity
  8
0
100
AcDbBlockBegin
  2
*Model_Space
 70
     0
 10
0.0
 20
0.0
 30
0.0
  3
*Model_Space
  1

  0
ENDBLK
  5
21
330
1F
100
AcDbEntity
  8
0
100
AcDbBlockEnd
  0
BLOCK
  5
1C
330
1B
100
AcDbEntity
 67
     1
  8
0
100
AcDbBlockBegin
  2
*Paper_Space
 70
     0
 10
0.0
 20
0.0
 30
0.0
  3
*Paper_Space
  1

  0
ENDBLK
  5
1D
330
1B
100
AcDbEntity
 67
     1
  8
0
100
AcDbBlockEnd
  0
BLOCK
  5
24
330
23
100
AcDbEntity
  8
0
100
AcDbBlockBegin
  2
*Paper_Space0
 70
     0
 10
0.0
 20
0.0
 30
0.0
  3
*Paper_Space0
  1

  0
ENDBLK
  5
25
330
23
100
AcDbEntity
  8
0
100
AcDbBlockEnd
  0
ENDSEC
  0
SECTION
  2
ENTITIES
  0
LWPOLYLINE
  5
46
330
1F
100
AcDbEntity
  8
0
  6
Continuous
 62
     7
370
    15
100
AcDbPolyline
 90
       52
 70
   128
 43
0.0
 10
5.1283155763
 20
-17.6494816296
 10
5.5872713931
 20
-16.8380870017
 10
6.0344770914
 20
-15.9912816155
 10
6.4689921908
 20
-15.1108463159
 10
6.8899028993
 20
-14.1986326721
 10
7.296324035
 20
-13.2565590834
 10
7.6874008881
 20
-12.2866067453
 10
8.0623110179
 20
-11.2908154825
 10
8.4202659824
 20
-10.2712794596
 10
8.760512997
 20
-9.2301427766
 10
9.0823365168
 20
-8.1695949602
 10
9.3850597419
 20
-7.0918663588
 10
9.6680460408
 20
-5.9992234523
 10
9.9307002889
 20
-4.8939640859
 10
10.1724701201
 20
-3.778412637
 10
10.3928470889
 20
-2.6549151278
 10
10.5913677389
 20
-1.5258342908
 10
10.7676145783
 20
-0.3935446007
 10
10.9212169571
 20
0.7395727199
 10
11.0518518472
 20
1.8711347075
 10
11.1592445214
 20
2.9987616698
 10
11.2431691312
 20
4.1200821898
 10
11.3034491819
 20
5.2327381131
 10
11.3399579035
 20
6.3343895068
 10
11.3526185177
 20
7.4227195812
 10
11.341404399
 20
8.4954395611
 10
11.3063391309
 20
9.5502934998
 10
11.2474964562
 20
10.585063023
 10
11.1650001218
 20
11.5975719945
 10
11.059023619
 20
12.5856910921
 10
10.9297898179
 20
13.5473422861
 10
10.7775704992
 20
14.480503209
 10
10.6026857826
 20
15.383211409
 10
10.4055034532
 20
16.2535684767
 10
10.1864381886
 20
17.0897440377
 10
9.9459506864
 20
17.8899796018
 10
9.6845466956
 20
18.6525922612
 10
9.4027759528
 20
19.3759782297
 10
9.1012310263
 20
20.0586162152
 10
8.7805460698
 20
20.6990706197
 10
8.4413954886
 20
21.2959945574
 10
8.0844925217
 20
21.8481326882
 10
7.7105877415
 20
22.3543238569
 10
7.3204674758
 20
22.8135035356
 10
6.9149521533
 20
23.2247060625
 10
6.4948945792
 20
23.5870666721
 10
6.0611781409
 20
23.8998233145
 10
5.614714951
 20
24.1623182576
 10
5.1564439285
 20
24.3739994705
 10
4.6873288243
 20
24.5344217844
 10
4.2083561949
 20
24.6432478285
 10
4.2043255045
 20
24.6439373285
  0
LWPOLYLINE
  5
47
330
1F
100
AcDbEntity
  8
0
  6
Continuous
 62
     7
370
    15
100
AcDbPolyline
 90
       20
 70
   128
 43
0.0
 10
-4.2043255045
 20
-24.6439373285
 10
-3.9654873332
 20
-24.6782364765
 10
-3.473622979
 20
-24.7092730447
 10
-2.9744535417
 20
-24.6883456283
 10
-2.4690287825
 20
-24.615498238
 10
-1.9584116175
 20
-24.4908840729
 10
-1.4436758824
 20
-24.3147651987
 10
-0.9259040745
 20
-24.0875119959
 10
-0.406185076
 20
-23.8096023816
 10
0.114388136
 20
-23.4816208041
 10
0.634720788
 20
-23.1042570137
 10
1.1537186123
 20
-22.6783046122
 10
1.6702901485
 20
-22.2046593843
 10
2.1833490386
 20
-21.6843174132
 10
2.6918163117
 20
-21.118372986
 10
3.1946226534
 20
-20.5080162928
 10
3.6907106541
 20
-19.8545309231
 10
4.179037033
 20
-19.1592911668
 10
4.6585748322
 20
-18.4237591239
 10
5.1283155763
 20
-17.6494816296
  0
LWPOLYLINE
  5
48
330
1F
100
AcDbEntity
  8
0
  6
Continuous
 62
     7
370
    15
100
AcDbPolyline
 90
      138
 70
   128
 43
0.0
 10
-21.6001269084
 20
-13.0895336418
 10
-21.1411710916
 20
-12.2781390139
 10
-20.6939653933
 20
-11.4313336277
 10
-20.2594502938
 20
-10.5508983281
 10
-19.8385395854
 20
-9.6386846843
 10
-19.4321184496
 20
-8.6966110956
 10
-19.0410415966
 20
-7.7266587575
 10
-18.6661314668
 20
-6.7308674947
 10
-18.3081765023
 20
-5.7113314718
 10
-17.9679294877
 20
-4.6701947888
 10
-17.6461059679
 20
-3.6096469724
 10
-17.3433827428
 20
-2.5319183709
 10
-17.0603964439
 20
-1.4392754645
 10
-16.7977421958
 20
-0.3340160981
 10
-16.5559723646
 20
0.7815353508
 10
-16.3355953958
 20
1.90503286
 10
-16.1370747457
 20
3.034113697
 10
-15.9608279064
 20
4.1664033871
 10
-15.8072255275
 20
5.2995207077
 10
-15.6765906374
 20
6.4310826953
 10
-15.5691979633
 20
7.5587096576
 10
-15.4852733535
 20
8.6800301776
 10
-15.4249933028
 20
9.7926861009
 10
-15.3884845812
 20
10.8943374946
 10
-15.375823967
 20
11.982667569
 10
-15.3870380856
 20
13.0553875489
 10
-15.4221033538
 20
14.1102414876
 10
-15.4809460285
 20
15.1450110108
 10
-15.5634423628
 20
16.1575199823
 10
-15.6694188657
 20
17.1456390799
 10
-15.7986526668
 20
18.1072902739
 10
-15.9508719854
 20
19.0404511968
 10
-16.1257567021
 20
19.9431593968
 10
-16.3229390315
 20
20.8135164645
 10
-16.5420042961
 20
21.6496920255
 10
-16.7824917983
 20
22.4499275896
 10
-17.0438957891
 20
23.212540249
 10
-17.3256665318
 20
23.9359262175
 10
-17.6272114583
 20
24.618564203
 10
-17.9478964149
 20
25.2590186075
 10
-18.2870469961
 20
25.8559425452
 10
-18.643949963
 20
26.408080676
 10
-19.0178547431
 20
26.9142718447
 10
-19.4079750089
 20
27.3734515234
 10
-19.8134903314
 20
27.7846540503
 10
-20.2335479055
 20
28.1470146599
 10
-20.6672643437
 20
28.4597713023
 10
-21.1137275336
 20
28.7222662454
 10
-21.5719985562
 20
28.9339474583
 10
-22.0411136604
 20
29.0943697722
 10
-22.5200862898
 20
29.2031958163
 10
-23.0079091576
 20
29.2601967278
 10
-23.5035563647
 20
29.265252633
 10
-24.0059855573
 20
29.2183528992
 10
-24.5141401191
 20
29.1195961572
 10
-25.0269513932
 20
28.9691900941
 10
-25.5433409294
 20
28.767451016
 10
-26.0622227526
 20
28.5148031835
 10
-26.5825056462
 20
28.2117779188
 10
-27.1030954472
 20
27.8590124887
 10
-27.6228973473
 20
27.4572487645
 10
-28.1408181949
 20
27.0073316614
 10
-28.6557687944
 20
26.5102073622
 10
-29.1666661969
 20
25.9669213269
 10
-29.672435977
 20
25.3786160945
 10
-30.1720144931
 20
24.74652888
 10
-30.6643511239
 20
24.0719889727
 10
-31.1484104777
 20
23.3564149405
 10
-31.6231745703
 20
22.6013116466
 10
-32.0876449653
 20
21.8082670849
 10
-32.5408448744
 20
20.9789490406
 10
-32.981821211
 20
20.1151015823
 10
-33.4096465951
 20
19.2185413946
 10
-33.8234213034
 20
18.2911539575
 10
-34.222275161
 20
17.3348895812
 10
-34.6053693723
 20
16.3517593045
 10
-34.9718982841
 20
15.3438306657
 10
-35.3210910805
 20
14.3132233542
 10
-35.6522134035
 20
13.2621047533
 10
-35.9645688979
 20
12.1926853817
 10
-36.257500675
 20
11.1072142449
 10
-36.530392695
 20
10.0079741056
 10
-36.7826710615
 20
8.8972766829
 10
-37.0138052293
 20
7.7774577906
 10
-37.2233091197
 20
6.6508724252
 10
-37.4107421427
 20
5.5198898133
 10
-37.5757101238
 20
4.3868884289
 10
-37.7178661327
 20
3.2542509914
 10
-37.8369112132
 20
2.1243594549
 10
-37.9325950115
 20
0.9995899989
 10
-38.0047163033
 20
-0.117691969
 10
-38.0531234162
 20
-1.2251367875
 10
-38.0777145494
 20
-2.3204154829
 10
-38.0784379874
 20
-3.4012246672
 10
-38.0552922087
 20
-4.4652913818
 10
-38.0083258893
 20
-5.5103778781
 10
-37.9376378
 20
-6.5342863228
 10
-37.8433765991
 20
-7.5348634205
 10
-37.7257405193
 20
-8.5100049422
 10
-37.584976951
 20
-9.4576601501
 10
-37.4213819223
 20
-10.3758361106
 10
-37.2352994761
 20
-11.2626018854
 10
-37.0271209466
 20
-12.1160925923
 10
-36.7972841364
 20
-12.934513327
 10
-36.5462723961
 20
-13.7161429382
 10
-36.2746136071
 20
-14.4593376466
 10
-35.9828790721
 20
-15.1625345021
 10
-35.6716823133
 20
-15.824254671
 10
-35.3416777825
 20
-16.4431065453
 10
-34.9935594841
 20
-17.0177886701
 10
-34.6280595165
 20
-17.5470924799
 10
-34.2459465316
 20
-18.0299048406
 10
-33.8480241191
 20
-18.4652103902
 10
-33.435129116
 20
-18.8520936745
 10
-33.0081298468
 20
-19.1897410719
 10
-32.5679242976
 20
-19.4774425047
 10
-32.1154382276
 20
-19.7145929323
 10
-31.6516232219
 20
-19.9006936236
 10
-31.1774546908
 20
-20.0353532062
 10
-30.6939298179
 20
-20.1182884887
 10
-30.2020654637
 20
-20.1493250569
 10
-29.7028960264
 20
-20.1283976405
 10
-29.1974712672
 20
-20.0555502502
 10
-28.6868541021
 20
-19.9309360851
 10
-28.172118367
 20
-19.7548172109
 10
-27.6543465592
 20
-19.5275640081
 10
-27.1346275607
 20
-19.2496543938
 10
-26.6140543487
 20
-18.9216728163
 10
-26.0937216967
 20
-18.5443090259
 10
-25.5747238724
 20
-18.1183566244
 10
-25.0581523362
 20
-17.6447113965
 10
-24.5450934461
 20
-17.1243694253
 10
-24.0366261729
 20
-16.5584249982
 10
-23.5338198312
 20
-15.948068305
 10
-23.0377318306
 20
-15.2945829353
 10
-22.5494054516
 20
-14.599343179
 10
-22.0698676525
 20
-13.8638111361
 10
-21.6001269084
 20
-13.0895336418
  0
LWPOLYLINE
  5
49
330
1F
100
AcDbEntity
  8
0
  6
Continuous
 62
     7
370
    15
100
AcDbPolyline
 90
       55
 70
   128
 43
0.0
 10
-23.3437542043
 20
-7.0887098878
 10
-23.537434261
 20
-7.3908351792
 10
-23.7395913944
 20
-7.6506861104
 10
-23.9474917761
 20
-7.8647486435
 10
-24.1583239102
 20
-8.0301279498
 10
-24.3692366537
 20
-8.144587558
 10
-24.5773777736
 20
-8.2065795981
 10
-24.7799325183
 20
-8.2152657342
 10
-24.9741616823
 20
-8.1705285012
 10
-25.1574386494
 20
-8.0729728935
 10
-25.3272849131
 20
-7.9239181832
 10
-25.4814035939
 20
-7.7253800797
 10
-25.6177105011
 20
-7.4800434702
 10
-25.7343623177
 20
-7.1912261114
 10
-25.8297815279
 20
-6.8628337627
 10
-25.9026777505
 20
-6.4993073672
 10
-25.9520651893
 20
-6.1055629958
 10
-25.9772759638
 20
-5.6869253658
 10
-25.9779691416
 20
-5.2490558328
 10
-25.9541353487
 20
-4.7978758311
 10
-25.9060968961
 20
-4.3394867963
 10
-25.8345034216
 20
-3.8800876537
 10
-25.740323104
 20
-3.4258909886
 10
-25.6248295707
 20
-2.9830390317
 10
-25.4895846734
 20
-2.5575205961
 10
-25.3364173675
 20
-2.1550900886
 10
-25.1673989781
 20
-1.7811896915
 10
-24.9848151887
 20
-1.4408757663
 10
-24.7911351321
 20
-1.1387504749
 10
-24.5889779987
 20
-0.8788995436
 10
-24.381077617
 20
-0.6648370105
 10
-24.1702454829
 20
-0.4994577042
 10
-23.9593327393
 20
-0.3849980961
 10
-23.7511916195
 20
-0.3230060559
 10
-23.5486368748
 20
-0.3143199198
 10
-23.3544077108
 20
-0.3590571528
 10
-23.1711307437
 20
-0.4566127605
 10
-23.00128448
 20
-0.6056674708
 10
-22.8471657992
 20
-0.8042055743
 10
-22.710858892
 20
-1.0495421839
 10
-22.5942070754
 20
-1.3383595427
 10
-22.4987878652
 20
-1.6667518914
 10
-22.4258916426
 20
-2.0302782868
 10
-22.3765042038
 20
-2.4240226582
 10
-22.3512934293
 20
-2.8426602882
 10
-22.3506002515
 20
-3.2805298213
 10
-22.3744340444
 20
-3.7317098229
 10
-22.422472497
 20
-4.1900988577
 10
-22.4940659715
 20
-4.6494980004
 10
-22.5882462891
 20
-5.1036946655
 10
-22.7037398224
 20
-5.5465466223
 10
-22.8389847197
 20
-5.9720650579
 10
-22.9921520255
 20
-6.3744955654
 10
-23.161170415
 20
-6.7483959625
 10
-23.3437542043
 20
-7.0887098878
  0
LWPOLYLINE
  5
4A
330
1F
100
AcDbEntity
  8
0
  6
Continuous
 62
     7
370
    15
100
AcDbPolyline
 90
       55
 70
   128
 43
0.0
 10
-28.4720697806
 20
10.5607717419
 10
-28.6657498372
 20
10.2586464505
 10
-28.8679069706
 20
9.9987955192
 10
-29.0758073524
 20
9.7847329861
 10
-29.2866394865
 20
9.6193536798
 10
-29.49755223
 20
9.5048940717
 10
-29.7056933499
 20
9.4429020315
 10
-29.9082480946
 20
9.4342158954
 10
-30.1024772586
 20
9.4789531284
 10
-30.2857542257
 20
9.5765087361
 10
-30.4556004893
 20
9.7255634464
 10
-30.6097191702
 20
9.9241015499
 10
-30.7460260774
 20
10.1694381595
 10
-30.8626778939
 20
10.4582555183
 10
-30.9580971041
 20
10.786647867
 10
-31.0309933268
 20
11.1501742624
 10
-31.0803807656
 20
11.5439186338
 10
-31.1055915401
 20
11.9625562639
 10
-31.1062847179
 20
12.4004257969
 10
-31.0824509249
 20
12.8516057985
 10
-31.0344124723
 20
13.3099948334
 10
-30.9628189978
 20
13.769393976
 10
-30.8686386803
 20
14.2235906411
 10
-30.7531451469
 20
14.6664425979
 10
-30.6179002497
 20
15.0919610335
 10
-30.4647329438
 20
15.494391541
 10
-30.2957145543
 20
15.8682919381
 10
-30.113130765
 20
16.2086058634
 10
-29.9194507084
 20
16.5107311548
 10
-29.717293575
 20
16.770582086
 10
-29.5093931932
 20
16.9846446191
 10
-29.2985610591
 20
17.1500239254
 10
-29.0876483156
 20
17.2644835336
 10
-28.8795071957
 20
17.3264755737
 10
-28.676952451
 20
17.3351617098
 10
-28.482723287
 20
17.2904244769
 10
-28.2994463199
 20
17.1928688691
 10
-28.1296000563
 20
17.0438141589
 10
-27.9754813754
 20
16.8452760553
 10
-27.8391744682
 20
16.5999394458
 10
-27.7225226517
 20
16.311122087
 10
-27.6271034415
 20
15.9827297383
 10
-27.5542072188
 20
15.6192033428
 10
-27.50481978
 20
15.2254589715
 10
-27.4796090055
 20
14.8068213414
 10
-27.4789158277
 20
14.3689518084
 10
-27.5027496207
 20
13.9177718067
 10
-27.5507880733
 20
13.4593827719
 10
-27.6223815478
 20
12.9999836293
 10
-27.7165618653
 20
12.5457869642
 10
-27.8320553987
 20
12.1029350073
 10
-27.9673002959
 20
11.6774165717
 10
-28.1204676018
 20
11.2749860643
 10
-28.2894859913
 20
10.9010856672
 10
-28.4720697806
 20
10.5607717419
  0
LWPOLYLINE
  5
4B
330
1F
100
AcDbEntity
  8
0
  6
Continuous
 62
     7
370
    15
100
AcDbPolyline
 90
       44
 70
   128
 43
0.0
 10
-26.215610927
 20
2.7949998248
 10
-26.0736066712
 20
3.0655998123
 10
-25.9455591037
 20
3.3680492367
 10
-25.8341973364
 20
3.6959019136
 10
-25.7418948518
 20
4.0421702325
 10
-25.6706189172
 20
4.3994740853
 10
-25.6218886555
 20
4.7601981608
 10
-25.5967426674
 20
5.1166542514
 10
-25.5957168962
 20
5.4612451146
 10
-25.6188332043
 20
5.7866263944
 10
-25.6655989078
 20
6.0858631535
 10
-25.7350172768
 20
6.3525776802
 10
-25.8256087794
 20
6.5810854172
 10
-25.935442615
 20
6.7665161189
 10
-26.0621778661
 20
6.9049176518
 10
-26.2031133907
 20
6.9933402276
 10
-26.355245393
 20
7.0298992725
 10
-26.5153314433
 20
7.013815594
 10
-26.6799595855
 20
6.9454319877
 10
-26.8456210565
 20
6.8262059316
 10
-27.0087850697
 20
6.6586785219
 10
-27.1659740674
 20
6.4464203146
 10
-27.313837839
 20
6.1939552248
 10
-27.449224925
 20
5.9066641077
 10
-27.5692497847
 20
5.5906700746
 10
-27.6713542965
 20
5.2527079897
 10
-27.7533622801
 20
4.8999809281
 10
-27.8135258777
 20
4.5400066547
 10
-27.8505628066
 20
4.1804573962
 10
-27.863683689
 20
3.8289963209
 10
-27.8526088762
 20
3.4931142112
 10
-27.8175744083
 20
3.1799698113
 10
-27.7593269845
 20
2.8962372504
 10
-27.6791080473
 20
2.6479637955
 10
-27.5786273241
 20
2.440440964
 10
-27.4600263871
 20
2.2780917451
 10
-27.3258330094
 20
2.1643763302
 10
-27.1789072898
 20
2.1017183662
 10
-27.022380695
 20
2.0914532988
 10
-26.8595893175
 20
2.1337999099
 10
-26.694002773
 20
2.2278556552
 10
-26.5291502511
 20
2.3716158996
 10
-26.3685452972
 20
2.5620166433
 10
-26.215610927
 20
2.7949998248
  0
LWPOLYLINE
  5
4C
330
1F
100
AcDbEntity
  8
0
  6
Continuous
 62
     7
370
    15
100
AcDbPolyline
 90
       55
 70
   128
 43
0.0
 10
-30.9720648195
 20
-6.9105887537
 10
-31.1657448761
 20
-7.2127140451
 10
-31.3679020095
 20
-7.4725649764
 10
-31.5758023913
 20
-7.6866275094
 10
-31.7866345254
 20
-7.8520068157
 10
-31.9975472689
 20
-7.9664664239
 10
-32.2056883888
 20
-8.028458464
 10
-32.4082431335
 20
-8.0371446001
 10
-32.6024722975
 20
-7.9924073672
 10
-32.7857492646
 20
-7.8948517594
 10
-32.9555955282
 20
-7.7457970492
 10
-33.1097142091
 20
-7.5472589456
 10
-33.2460211163
 20
-7.3019223361
 10
-33.3626729328
 20
-7.0131049773
 10
-33.458092143
 20
-6.6847126286
 10
-33.5309883657
 20
-6.3211862331
 10
-33.5803758045
 20
-5.9274418618
 10
-33.605586579
 20
-5.5088042317
 10
-33.6062797568
 20
-5.0709346987
 10
-33.5824459638
 20
-4.619754697
 10
-33.5344075112
 20
-4.1613656622
 10
-33.4628140367
 20
-3.7019665196
 10
-33.3686337192
 20
-3.2477698545
 10
-33.2531401858
 20
-2.8049178977
 10
-33.1178952886
 20
-2.3793994621
 10
-32.9647279827
 20
-1.9769689546
 10
-32.7957095932
 20
-1.6030685575
 10
-32.6131258039
 20
-1.2627546322
 10
-32.4194457473
 20
-0.9606293408
 10
-32.2172886139
 20
-0.7007784095
 10
-32.0093882321
 20
-0.4867158765
 10
-31.798556098
 20
-0.3213365701
 10
-31.5876433545
 20
-0.206876962
 10
-31.3795022346
 20
-0.1448849219
 10
-31.1769474899
 20
-0.1361987857
 10
-30.9827183259
 20
-0.1809360187
 10
-30.7994413588
 20
-0.2784916264
 10
-30.6295950952
 20
-0.4275463367
 10
-30.4754764143
 20
-0.6260844403
 10
-30.3391695071
 20
-0.8714210498
 10
-30.2225176906
 20
-1.1602384086
 10
-30.1270984804
 20
-1.4886307573
 10
-30.0542022577
 20
-1.8521571528
 10
-30.0048148189
 20
-2.2459015241
 10
-29.9796040444
 20
-2.6645391542
 10
-29.9789108666
 20
-3.1024086872
 10
-30.0027446596
 20
-3.5535886889
 10
-30.0507831122
 20
-4.0119777237
 10
-30.1223765867
 20
-4.4713768663
 10
-30.2165569043
 20
-4.9255735314
 10
-30.3320504376
 20
-5.3684254882
 10
-30.4672953348
 20
-5.7939439238
 10
-30.6204626407
 20
-6.1963744313
 10
-30.7894810302
 20
-6.5702748284
 10
-30.9720648195
 20
-6.9105887537
  0
LWPOLYLINE
  5
4D
330
1F
100
AcDbEntity
  8
0
  6
Continuous
 62
     7
370
    15
100
AcDbPolyline
 90
       55
 70
   128
 43
0.0
 10
-20.8437591654
 20
10.3826506078
 10
-21.0374392221
 20
10.0805253164
 10
-21.2395963555
 20
9.8206743851
 10
-21.4474967372
 20
9.6066118521
 10
-21.6583288713
 20
9.4412325458
 10
-21.8692416148
 20
9.3267729376
 10
-22.0773827347
 20
9.2647808975
 10
-22.2799374794
 20
9.2560947613
 10
-22.4741666434
 20
9.3008319943
 10
-22.6574436105
 20
9.3983876021
 10
-22.8272898742
 20
9.5474423123
 10
-22.981408555
 20
9.7459804159
 10
-23.1177154622
 20
9.9913170254
 10
-23.2343672788
 20
10.2801343842
 10
-23.329786489
 20
10.6085267329
 10
-23.4026827116
 20
10.9720531284
 10
-23.4520701504
 20
11.3657974997
 10
-23.4772809249
 20
11.7844351298
 10
-23.4779741027
 20
12.2223046628
 10
-23.4541403098
 20
12.6734846645
 10
-23.4061018572
 20
13.1318736993
 10
-23.3345083827
 20
13.5912728419
 10
-23.2403280651
 20
14.045469507
 10
-23.1248345318
 20
14.4883214638
 10
-22.9895896345
 20
14.9138398994
 10
-22.8364223286
 20
15.3162704069
 10
-22.6674039392
 20
15.690170804
 10
-22.4848201498
 20
16.0304847293
 10
-22.2911400932
 20
16.3326100207
 10
-22.0889829598
 20
16.592460952
 10
-21.8810825781
 20
16.806523485
 10
-21.670250444
 20
16.9719027913
 10
-21.4593377004
 20
17.0863623995
 10
-21.2511965806
 20
17.1483544396
 10
-21.0486418359
 20
17.1570405758
 10
-20.8544126719
 20
17.1123033428
 10
-20.6711357047
 20
17.014747735
 10
-20.5012894411
 20
16.8656930248
 10
-20.3471707603
 20
16.6671549212
 10
-20.2108638531
 20
16.4218183117
 10
-20.0942120365
 20
16.1330009529
 10
-19.9987928263
 20
15.8046086042
 10
-19.9258966037
 20
15.4410822087
 10
-19.8765091649
 20
15.0473378374
 10
-19.8512983903
 20
14.6287002073
 10
-19.8506052125
 20
14.1908306743
 10
-19.8744390055
 20
13.7396506726
 10
-19.9224774581
 20
13.2812616378
 10
-19.9940709326
 20
12.8218624952
 10
-20.0882512502
 20
12.3676658301
 10
-20.2037447835
 20
11.9248138733
 10
-20.3389896808
 20
11.4992954377
 10
-20.4921569866
 20
11.0968649302
 10
-20.6611753761
 20
10.7229645331
 10
-20.8437591654
 20
10.3826506078
  0
LINE
  5
4E
330
1F
100
AcDbEntity
  8
0
  6
Continuous
 62
     7
370
    15
100
AcDbLine
 10
4.2043255045
 20
24.6439373285
 30
0.0
 11
-22.5241169802
 21
29.2038853163
 31
0.0
  0
LINE
  5
4F
330
1F
100
AcDbEntity
  8
0
  6
Continuous
 62
     7
370
    15
100
AcDbLine
 10
-30.9327679891
 20
-20.0839893407
 30
0.0
 11
-4.2043255045
 21
-24.6439373285
 31
0.0
  0
MTEXT
  5
51
330
1F
100
AcDbEntity
  8
0
  6
Continuous
 62
     7
100
AcDbMText
 10
-38.0784379874
 20
-25.7288394364
 30
0.0
 40
4.83362
 41
0.0
 71
     1
 72
     1
  1
SolidWorks Educational Edition.
  7
SLDTEXTSTYLE0
 73
     1
 44
1.0
  0
MTEXT
  5
52
330
1F
100
AcDbEntity
  8
0
  6
Continuous
 62
     7
100
AcDbMText
 10
-38.0784379874
 20
-32.9792694364
 30
0.0
 40
4.83362
 41
0.0
 71
     1
 72
     1
  1
For Instructional Use Only.
  7
SLDTEXTSTYLE0
 73
     1
 44
1.0
  0
ENDSEC
  0
SECTION
  2
OBJECTS
  0
DICTIONARY
  5
C
330
0
100
AcDbDictionary
281
     1
  3
ACAD_GROUP
350
D
  3
ACAD_LAYOUT
350
1A
  3
ACAD_MLINESTYLE
350
17
  3
ACAD_PLOTSETTINGS
350
19
  3
ACAD_PLOTSTYLENAME
350
E
  0
DICTIONARY
  5
D
102
{ACAD_REACTORS
330
C
102
}
330
C
100
AcDbDictionary
281
     1
  0
DICTIONARY
  5
1A
102
{ACAD_REACTORS
330
C
102
}
330
C
100
AcDbDictionary
281
     1
  3
Layout1
350
1E
  3
Layout2
350
26
  3
Model
350
22
  0
DICTIONARY
  5
17
102
{ACAD_REACTORS
330
C
102
}
330
C
100
AcDbDictionary
281
     1
  3
Standard
350
18
  0
DICTIONARY
  5
19
102
{ACAD_REACTORS
330
C
102
}
330
C
100
AcDbDictionary
281
     1
  0
ACDBDICTIONARYWDFLT
  5
E
102
{ACAD_REACTORS
330
C
102
}
330
C
100
AcDbDictionary
281
     1
  3
Normal
350
F
100
AcDbDictionaryWithDefault
340
F
  0
LAYOUT
  5
1E
102
{ACAD_REACTORS
330
1A
102
}
330
1A
100
AcDbPlotSettings
  1

  2
none_device
  4

  6

 40
0.0
 41
0.0
 42
0.0
 43
0.0
 44
0.0
 45
0.0
 46
0.0
 47
0.0
 48
0.0
 49
0.0
140
0.0
141
0.0
142
1.0
143
1.0
 70
   688
 72
     0
 73
     0
 74
     5
  7

 75
    16
147
1.0
148
0.0
149
0.0
100
AcDbLayout
  1
Layout1
 70
     1
 71
     1
 10
0.0
 20
0.0
 11
420.0
 21
297.0
 12
0.0
 22
0.0
 32
0.0
 14
1.0000000000E+20
 24
1.0000000000E+20
 34
1.0000000000E+20
 15
-1.0000000000E+20
 25
-1.0000000000E+20
 35
-1.0000000000E+20
146
0.0
 13
0.0
 23
0.0
 33
0.0
 16
1.0
 26
0.0
 36
0.0
 17
0.0
 27
1.0
 37
0.0
 76
     0
330
1B
  0
LAYOUT
  5
26
102
{ACAD_REACTORS
330
1A
102
}
330
1A
100
AcDbPlotSettings
  1

  2
none_device
  4

  6

 40
0.0
 41
0.0
 42
0.0
 43
0.0
 44
0.0
 45
0.0
 46
0.0
 47
0.0
 48
0.0
 49
0.0
140
0.0
141
0.0
142
1.0
143
1.0
 70
   688
 72
     0
 73
     0
 74
     5
  7

 75
    16
147
1.0
148
0.0
149
0.0
100
AcDbLayout
  1
Layout2
 70
     1
 71
     2
 10
0.0
 20
0.0
 11
0.0
 21
0.0
 12
0.0
 22
0.0
 32
0.0
 14
0.0
 24
0.0
 34
0.0
 15
0.0
 25
0.0
 35
0.0
146
0.0
 13
0.0
 23
0.0
 33
0.0
 16
1.0
 26
0.0
 36
0.0
 17
0.0
 27
1.0
 37
0.0
 76
     0
330
23
  0
LAYOUT
  5
22
102
{ACAD_REACTORS
330
1A
102
}
330
1A
100
AcDbPlotSettings
  1

  2
none_device
  4
ANSI_A_(11.00_x_8.50_Inches)
  6

 40
6.35
 41
19.05
 42
6.35000508
 43
19.05000254
 44
279.4
 45
215.9
 46
186.2675850399
 47
79.8790798709
 48
0.0
 49
0.0
140
0.0
141
0.0
142
0.1559068819
143
1.0
 70
  1696
 72
     0
 73
     0
 74
     0
  7

 75
     0
147
0.0179189148
148
0.0
149
0.0
100
AcDbLayout
  1
Model
 70
     1
 71
     0
 10
0.0
 20
0.0
 11
420.0
 21
297.0
 12
0.0
 22
0.0
 32
0.0
 14
-38.0784379874
 24
-24.7092730447
 34
0.0
 15
11.3526185177
 25
29.265252633
 35
0.0
146
0.0
 13
0.0
 23
0.0
 33
0.0
 16
1.0
 26
0.0
 36
0.0
 17
0.0
 27
1.0
 37
0.0
 76
     0
330
1F
331
29
  0
MLINESTYLE
  5
18
102
{ACAD_REACTORS
330
17
102
}
330
17
100
AcDbMlineStyle
  2
Standard
 70
     0
  3

 62
   256
 51
90.0
 52
90.0
 71
     2
 49
0.5
 62
   256
  6
BYLAYER
 49
-0.5
 62
   256
  6
BYLAYER
  0
ACDBPLACEHOLDER
  5
F
102
{ACAD_REACTORS
330
E
102
}
330
E
  0
ENDSEC
  0
EOF
