  0
SECTION
  2
HEADER
  9
$ACADVER
  1
AC1015
  9
$ACADMAINTVER
 70
     6
  9
$DWGCODEPAGE
  3
ANSI_1252
  9
$INSBASE
 10
0.0
 20
0.0
 30
0.0
  9
$EXTMIN
 10
-31.1614539382
 20
-24.9992304874
 30
0.0
  9
$EXTMAX
 10
24.3451315799
 20
25.0981330627
 30
0.0
  9
$LIMMIN
 10
0.0
 20
0.0
  9
$LIMMAX
 10
420.0
 20
297.0
  9
$ORTHOMODE
 70
     0
  9
$REGENMODE
 70
     1
  9
$FILLMODE
 70
     1
  9
$QTEXTMODE
 70
     0
  9
$MIRRTEXT
 70
     1
  9
$LTSCALE
 40
1.0
  9
$ATTMODE
 70
     1
  9
$TEXTSIZE
 40
6.35
  9
$TRACEWID
 40
1.0
  9
$TEXTSTYLE
  7
Standard
  9
$CLAYER
  8
0
  9
$CELTYPE
  6
ByLayer
  9
$CECOLOR
 62
   256
  9
$CELTSCALE
 40
1.0
  9
$DISPSILH
 70
     0
  9
$DIMSCALE
 40
1.0
  9
$DIMASZ
 40
5.9944
  9
$DIMEXO
 40
0.9906
  9
$DIMDLI
 40
3.75
  9
$DIMRND
 40
0.0
  9
$DIMDLE
 40
0.0
  9
$DIMEXE
 40
0.9906
  9
$DIMTP
 40
0.0
  9
$DIMTM
 40
0.0
  9
$DIMTXT
 40
6.35
  9
$DIMCEN
 40
2.5
  9
$DIMTSZ
 40
0.0
  9
$DIMTOL
 70
     0
  9
$DIMLIM
 70
     0
  9
$DIMTIH
 70
     1
  9
$DIMTOH
 70
     1
  9
$DIMSE1
 70
     0
  9
$DIMSE2
 70
     0
  9
$DIMTAD
 70
     1
  9
$DIMZIN
 70
     0
  9
$DIMBLK
  1

  9
$DIMASO
 70
     1
  9
$DIMSHO
 70
     1
  9
$DIMPOST
  1

  9
$DIMAPOST
  1

  9
$DIMALT
 70
     0
  9
$DIMALTD
 70
     3
  9
$DIMALTF
 40
0.0393700787
  9
$DIMLFAC
 40
1.0
  9
$DIMTOFL
 70
     1
  9
$DIMTVP
 40
0.0
  9
$DIMTIX
 70
     0
  9
$DIMSOXD
 70
     0
  9
$DIMSAH
 70
     0
  9
$DIMBLK1
  1

  9
$DIMBLK2
  1

  9
$DIMSTYLE
  2
ISO-25
  9
$DIMCLRD
 70
     0
  9
$DIMCLRE
 70
     0
  9
$DIMCLRT
 70
     0
  9
$DIMTFAC
 40
1.0
  9
$DIMGAP
 40
1.524
  9
$DIMJUST
 70
     0
  9
$DIMSD1
 70
     0
  9
$DIMSD2
 70
     0
  9
$DIMTOLJ
 70
     0
  9
$DIMTZIN
 70
     0
  9
$DIMALTZ
 70
     0
  9
$DIMALTTZ
 70
     0
  9
$DIMUPT
 70
     0
  9
$DIMDEC
 70
     2
  9
$DIMTDEC
 70
     2
  9
$DIMALTU
 70
     2
  9
$DIMALTTD
 70
     3
  9
$DIMTXSTY
  7
Standard
  9
$DIMAUNIT
 70
     0
  9
$DIMADEC
 70
     2
  9
$DIMALTRND
 40
0.0
  9
$DIMAZIN
 70
     0
  9
$DIMDSEP
 70
    44
  9
$DIMATFIT
 70
     3
  9
$DIMFRAC
 70
     0
  9
$DIMLDRBLK
  1

  9
$DIMLUNIT
 70
     2
  9
$DIMLWD
 70
    -2
  9
$DIMLWE
 70
    -2
  9
$DIMTMOVE
 70
     0
  9
$LUNITS
 70
     2
  9
$LUPREC
 70
     2
  9
$SKETCHINC
 40
1.0
  9
$FILLETRAD
 40
10.0
  9
$AUNITS
 70
     0
  9
$AUPREC
 70
     2
  9
$MENU
  1
.
  9
$ELEVATION
 40
0.0
  9
$PELEVATION
 40
0.0
  9
$THICKNESS
 40
0.0
  9
$LIMCHECK
 70
     0
  9
$CHAMFERA
 40
10.0
  9
$CHAMFERB
 40
10.0
  9
$CHAMFERC
 40
20.0
  9
$CHAMFERD
 40
0.0
  9
$SKPOLY
 70
     0
  9
$TDCREATE
 40
2456560.925314062
  9
$TDUCREATE
 40
2456560.425314062
  9
$TDUPDATE
 40
2456560.925338437
  9
$TDUUPDATE
 40
2456560.425338437
  9
$TDINDWG
 40
0.0000000116
  9
$TDUSRTIMER
 40
0.0000000116
  9
$USRTIMER
 70
     1
  9
$ANGBASE
 50
0.0
  9
$ANGDIR
 70
     0
  9
$PDMODE
 70
     0
  9
$PDSIZE
 40
-1.0
  9
$PLINEWID
 40
0.0
  9
$SPLFRAME
 70
     0
  9
$SPLINETYPE
 70
     6
  9
$SPLINESEGS
 70
     8
  9
$HANDSEED
  5
55
  9
$SURFTAB1
 70
     6
  9
$SURFTAB2
 70
     6
  9
$SURFTYPE
 70
     6
  9
$SURFU
 70
     6
  9
$SURFV
 70
     6
  9
$UCSBASE
  2

  9
$UCSNAME
  2

  9
$UCSORG
 10
0.0
 20
0.0
 30
0.0
  9
$UCSXDIR
 10
1.0
 20
0.0
 30
0.0
  9
$UCSYDIR
 10
0.0
 20
1.0
 30
0.0
  9
$UCSORTHOREF
  2

  9
$UCSORTHOVIEW
 70
     0
  9
$UCSORGTOP
 10
0.0
 20
0.0
 30
0.0
  9
$UCSORGBOTTOM
 10
0.0
 20
0.0
 30
0.0
  9
$UCSORGLEFT
 10
0.0
 20
0.0
 30
0.0
  9
$UCSORGRIGHT
 10
0.0
 20
0.0
 30
0.0
  9
$UCSORGFRONT
 10
0.0
 20
0.0
 30
0.0
  9
$UCSORGBACK
 10
0.0
 20
0.0
 30
0.0
  9
$PUCSBASE
  2

  9
$PUCSNAME
  2

  9
$PUCSORG
 10
0.0
 20
0.0
 30
0.0
  9
$PUCSXDIR
 10
1.0
 20
0.0
 30
0.0
  9
$PUCSYDIR
 10
0.0
 20
1.0
 30
0.0
  9
$PUCSORTHOREF
  2

  9
$PUCSORTHOVIEW
 70
     0
  9
$PUCSORGTOP
 10
0.0
 20
0.0
 30
0.0
  9
$PUCSORGBOTTOM
 10
0.0
 20
0.0
 30
0.0
  9
$PUCSORGLEFT
 10
0.0
 20
0.0
 30
0.0
  9
$PUCSORGRIGHT
 10
0.0
 20
0.0
 30
0.0
  9
$PUCSORGFRONT
 10
0.0
 20
0.0
 30
0.0
  9
$PUCSORGBACK
 10
0.0
 20
0.0
 30
0.0
  9
$USERI1
 70
     0
  9
$USERI2
 70
     0
  9
$USERI3
 70
     0
  9
$USERI4
 70
     0
  9
$USERI5
 70
     0
  9
$USERR1
 40
0.0
  9
$USERR2
 40
0.0
  9
$USERR3
 40
0.0
  9
$USERR4
 40
0.0
  9
$USERR5
 40
0.0
  9
$WORLDVIEW
 70
     1
  9
$SHADEDGE
 70
     3
  9
$SHADEDIF
 70
    70
  9
$TILEMODE
 70
     1
  9
$MAXACTVP
 70
    64
  9
$PINSBASE
 10
0.0
 20
0.0
 30
0.0
  9
$PLIMCHECK
 70
     0
  9
$PEXTMIN
 10
1.0000000000E+20
 20
1.0000000000E+20
 30
1.0000000000E+20
  9
$PEXTMAX
 10
-1.0000000000E+20
 20
-1.0000000000E+20
 30
-1.0000000000E+20
  9
$PLIMMIN
 10
0.0
 20
0.0
  9
$PLIMMAX
 10
420.0
 20
297.0
  9
$UNITMODE
 70
     0
  9
$VISRETAIN
 70
     1
  9
$PLINEGEN
 70
     0
  9
$PSLTSCALE
 70
     1
  9
$TREEDEPTH
 70
  3020
  9
$CMLSTYLE
  2
Standard
  9
$CMLJUST
 70
     0
  9
$CMLSCALE
 40
20.0
  9
$PROXYGRAPHICS
 70
     1
  9
$MEASUREMENT
 70
     1
  9
$CELWEIGHT
370
    -1
  9
$ENDCAPS
280
     0
  9
$JOINSTYLE
280
     0
  9
$LWDISPLAY
290
     1
  9
$INSUNITS
 70
     4
  9
$HYPERLINKBASE
  1

  9
$STYLESHEET
  1

  9
$XEDIT
290
     1
  9
$CEPSNTYPE
380
     0
  9
$PSTYLEMODE
290
     1
  9
$FINGERPRINTGUID
  2
{5254FFA5-74B0-4CCE-906D-E628F2C999A0}
  9
$VERSIONGUID
  2
{FAEB1C32-E019-11D5-929B-00C0DF256EC4}
  9
$EXTNAMES
290
     1
  9
$PSVPSCALE
 40
0.0
  9
$OLESTARTUP
290
     0
  0
ENDSEC
  0
SECTION
  2
CLASSES
  0
CLASS
  1
ACDBDICTIONARYWDFLT
  2
AcDbDictionaryWithDefault
  3
ObjectDBX Classes
 90
        0
280
     0
281
     0
  0
CLASS
  1
VISUALSTYLE
  2
AcDbVisualStyle
  3
ObjectDBX Classes
 90
     4095
280
     0
281
     0
  0
CLASS
  1
MATERIAL
  2
AcDbMaterial
  3
ObjectDBX Classes
 90
     1153
280
     0
281
     0
  0
CLASS
  1
ACDBPLACEHOLDER
  2
AcDbPlaceHolder
  3
ObjectDBX Classes
 90
        0
280
     0
281
     0
  0
CLASS
  1
LAYOUT
  2
AcDbLayout
  3
ObjectDBX Classes
 90
        0
280
     0
281
     0
  0
ENDSEC
  0
SECTION
  2
TABLES
  0
TABLE
  2
VPORT
  5
8
330
0
100
AcDbSymbolTable
 70
     1
  0
VPORT
  5
29
330
8
100
AcDbSymbolTableRecord
100
AcDbViewportTableRecord
  2
*Active
 70
     0
 10
0.0
 20
0.0
 11
1.0
 21
1.0
 12
-3.4081611791
 22
0.0494512877
 13
0.0
 23
0.0
 14
10.0
 24
10.0
 15
10.0
 25
10.0
 16
0.0
 26
0.0
 36
1.0
 17
0.0
 27
0.0
 37
0.0
 40
51.0993108211
 41
1.1079741844
 42
50.0
 43
0.0
 44
0.0
 50
0.0
 51
0.0
 71
     0
 72
   100
 73
     1
 74
     3
 75
     0
 76
     0
 77
     0
 78
     0
281
     0
 65
     1
110
0.0
120
0.0
130
0.0
111
1.0
121
0.0
131
0.0
112
0.0
122
1.0
132
0.0
 79
     0
146
0.0
  0
ENDTAB
  0
TABLE
  2
LTYPE
  5
5
330
0
100
AcDbSymbolTable
 70
     6
  0
LTYPE
  5
14
330
5
100
AcDbSymbolTableRecord
100
AcDbLinetypeTableRecord
  2
ByBlock
 70
     0
  3

 72
    65
 73
     0
 40
0.0
  0
LTYPE
  5
15
330
5
100
AcDbSymbolTableRecord
100
AcDbLinetypeTableRecord
  2
ByLayer
 70
     0
  3

 72
    65
 73
     0
 40
0.0
  0
LTYPE
  5
16
330
5
100
AcDbSymbolTableRecord
100
AcDbLinetypeTableRecord
  2
Continuous
 70
     0
  3
Solid line
 72
    65
 73
     0
 40
0.0
  0
LTYPE
  5
3F
330
5
100
AcDbSymbolTableRecord
100
AcDbLinetypeTableRecord
  2
HIDDEN
 70
     0
  3
Hidden __ __ __ __ __ __ __ __ __ __ __ __ __ __
 72
    65
 73
     2
 40
1.905
 49
1.27
 74
     0
 49
-0.635
 74
     0
  0
LTYPE
  5
40
330
5
100
AcDbSymbolTableRecord
100
AcDbLinetypeTableRecord
  2
PHANTOM
 70
     0
  3
Phantom ______  __  __  ______  __  __  ______
 72
    65
 73
     6
 40
12.7
 49
6.35
 74
     0
 49
-1.27
 74
     0
 49
1.27
 74
     0
 49
-1.27
 74
     0
 49
1.27
 74
     0
 49
-1.27
 74
     0
  0
LTYPE
  5
41
330
5
100
AcDbSymbolTableRecord
100
AcDbLinetypeTableRecord
  2
CENTER
 70
     0
  3
Center ____ _ ____ _ ____ _ ____ _ ____ _ ____
 72
    65
 73
     4
 40
10.16
 49
6.35
 74
     0
 49
-1.27
 74
     0
 49
1.27
 74
     0
 49
-1.27
 74
     0
  0
LTYPE
  5
42
330
5
100
AcDbSymbolTableRecord
100
AcDbLinetypeTableRecord
  2
CENTERX2
 70
     0
  3
Center (2x) ________  __  ________  __  _____
 72
    65
 73
     4
 40
20.32
 49
12.7
 74
     0
 49
-2.54
 74
     0
 49
2.54
 74
     0
 49
-2.54
 74
     0
  0
LTYPE
  5
43
330
5
100
AcDbSymbolTableRecord
100
AcDbLinetypeTableRecord
  2
DOT2
 70
     0
  3
Dot (.5x) ........................................
 72
    65
 73
     2
 40
0.635
 49
0.0
 74
     0
 49
-0.635
 74
     0
  0
ENDTAB
  0
TABLE
  2
LAYER
  5
2
330
0
100
AcDbSymbolTable
 70
     1
  0
LAYER
  5
10
330
2
100
AcDbSymbolTableRecord
100
AcDbLayerTableRecord
  2
0
 70
     0
 62
     7
  6
Continuous
370
    -3
390
F
  0
ENDTAB
  0
TABLE
  2
STYLE
  5
3
330
0
100
AcDbSymbolTable
 70
     2
  0
STYLE
  5
11
330
3
100
AcDbSymbolTableRecord
100
AcDbTextStyleTableRecord
  2
Standard
 70
     0
 40
0.0
 41
1.0
 50
0.0
 71
     0
 42
6.35
  3
txt
  4

  0
STYLE
  5
52
330
3
100
AcDbSymbolTableRecord
100
AcDbTextStyleTableRecord
  2
SLDTEXTSTYLE0
 70
     0
 40
0.0
 41
0.7
 50
0.0
 71
     0
 42
0.2
  3
TXT
  4

  0
ENDTAB
  0
TABLE
  2
VIEW
  5
6
330
0
100
AcDbSymbolTable
 70
     0
  0
ENDTAB
  0
TABLE
  2
UCS
  5
7
330
0
100
AcDbSymbolTable
 70
     0
  0
ENDTAB
  0
TABLE
  2
APPID
  5
9
330
0
100
AcDbSymbolTable
 70
     1
  0
APPID
  5
12
330
9
100
AcDbSymbolTableRecord
100
AcDbRegAppTableRecord
  2
ACAD
 70
     0
  0
ENDTAB
  0
TABLE
  2
DIMSTYLE
  5
A
330
0
100
AcDbSymbolTable
 70
     1
100
AcDbDimStyleTable
  0
DIMSTYLE
105
27
330
A
100
AcDbSymbolTableRecord
100
AcDbDimStyleTableRecord
  2
ISO-25
 70
     0
 41
2.5
 42
0.625
 43
3.75
 44
1.25
 73
     0
 74
     0
 77
     1
 78
     8
140
2.5
141
2.5
143
0.0393700787
147
0.625
171
     3
172
     1
178
     0
271
     2
272
     2
274
     3
278
    44
283
     0
284
     8
340
11
  0
ENDTAB
  0
TABLE
  2
BLOCK_RECORD
  5
1
330
0
100
AcDbSymbolTable
 70
     1
  0
BLOCK_RECORD
  5
1F
330
1
100
AcDbSymbolTableRecord
100
AcDbBlockTableRecord
  2
*Model_Space
340
22
  0
BLOCK_RECORD
  5
1B
330
1
100
AcDbSymbolTableRecord
100
AcDbBlockTableRecord
  2
*Paper_Space
340
1E
  0
BLOCK_RECORD
  5
23
330
1
100
AcDbSymbolTableRecord
100
AcDbBlockTableRecord
  2
*Paper_Space0
340
26
  0
ENDTAB
  0
ENDSEC
  0
SECTION
  2
BLOCKS
  0
BLOCK
  5
20
330
1F
100
AcDbEntity
  8
0
100
AcDbBlockBegin
  2
*Model_Space
 70
     0
 10
0.0
 20
0.0
 30
0.0
  3
*Model_Space
  1

  0
ENDBLK
  5
21
330
1F
100
AcDbEntity
  8
0
100
AcDbBlockEnd
  0
BLOCK
  5
1C
330
1B
100
AcDbEntity
 67
     1
  8
0
100
AcDbBlockBegin
  2
*Paper_Space
 70
     0
 10
0.0
 20
0.0
 30
0.0
  3
*Paper_Space
  1

  0
ENDBLK
  5
1D
330
1B
100
AcDbEntity
 67
     1
  8
0
100
AcDbBlockEnd
  0
BLOCK
  5
24
330
23
100
AcDbEntity
  8
0
100
AcDbBlockBegin
  2
*Paper_Space0
 70
     0
 10
0.0
 20
0.0
 30
0.0
  3
*Paper_Space0
  1

  0
ENDBLK
  5
25
330
23
100
AcDbEntity
  8
0
100
AcDbBlockEnd
  0
ENDSEC
  0
SECTION
  2
ENTITIES
  0
LWPOLYLINE
  5
46
330
1F
100
AcDbEntity
  8
0
  6
Continuous
 62
     7
370
    15
100
AcDbPolyline
 90
       71
 70
   128
 43
0.0
 10
-0.3697152051
 20
-24.9972660639
 10
0.1534806055
 20
-24.9992304874
 10
1.2694531808
 20
-24.9648183171
 10
2.3827560764
 20
-24.8779047465
 10
3.4910479989
 20
-24.7386725562
 10
4.5919981934
 20
-24.5474145536
 10
5.6832913444
 20
-24.3045329573
 10
6.7626324455
 20
-24.0105385512
 10
7.8277516257
 20
-23.6660496098
 10
8.8764089227
 20
-23.2717905989
 10
9.906398994
 20
-22.8285906513
 10
10.9155557545
 20
-22.3373818234
 10
11.9017569319
 20
-21.7991971348
 10
12.8629285298
 20
-21.2151683964
 10
13.7970491894
 20
-20.5865238297
 10
14.7021544405
 20
-19.914585484
 10
15.5763408327
 20
-19.2007664559
 10
16.4177699384
 20
-18.4465679181
 10
17.2246722191
 20
-17.6535759617
 10
17.9953507469
 20
-16.8234582612
 10
18.7281847729
 20
-15.9579605669
 10
19.4216331357
 20
-15.0589030338
 10
20.0742375026
 20
-14.1281763941
 10
20.6846254366
 20
-13.1677379801
 10
21.2515132824
 20
-12.1796076089
 10
21.7737088659
 20
-11.1658633339
 10
22.2501140019
 20
-10.128637075
 10
22.6797268029
 20
-9.0701101352
 10
23.0616437864
 20
-7.9925086131
 10
23.3950617753
 20
-6.8980987213
 10
23.6792795862
 20
-5.7891820209
 10
23.9136995048
 20
-4.6680905808
 10
24.0978285422
 20
-3.5371820739
 10
24.2312794723
 20
-2.3988348181
 10
24.3137716456
 20
-1.2554427755
 10
24.3451315799
 20
-0.1094105173
 10
24.3252933248
 20
1.036851833
 10
24.2542986003
 20
2.1809336678
 10
24.1322967095
 20
3.3204289652
 10
23.9595442243
 20
4.452941349
 10
23.7364044459
 20
5.576089128
 10
23.4633466405
 20
6.6875103051
 10
23.1409450531
 20
7.7848675442
 10
22.7698776992
 20
8.8658530861
 10
22.3509249392
 20
9.9281936014
 10
21.8849678372
 20
10.9696549715
 10
21.3729863082
 20
11.9880469869
 10
20.8160570575
 20
12.9812279536
 10
20.2153513157
 20
13.9471091964
 10
19.5721323764
 20
14.8836594522
 10
18.8877529391
 20
15.7889091412
 10
18.1636522642
 20
16.6609545093
 10
17.4013531468
 20
17.4979616315
 10
16.6024587138
 20
18.2981702689
 10
15.7686490524
 20
19.0598975703
 10
14.9016776774
 20
19.7815416114
 10
14.003367843
 20
20.4615847635
 10
13.0756087088
 20
21.0985968853
 10
12.1203513665
 20
21.6912383306
 10
11.1396047373
 20
22.238262765
 10
10.1354313464
 20
22.7385197878
 10
9.1099429862
 20
23.1909573506
 10
8.0652962745
 20
23.5946239703
 10
7.0036881196
 20
23.9486707297
 10
5.9273510998
 20
24.2523530629
 10
4.8385487688
 20
24.5050323213
 10
3.7395708946
 20
24.7061771165
 10
2.6327286448
 20
24.8553644379
 10
1.5203497259
 20
24.9522805422
 10
0.4047734878
 20
24.9967216133
 10
0.3697152051
 20
24.9972660639
  0
LWPOLYLINE
  5
47
330
1F
100
AcDbEntity
  8
0
  6
Continuous
 62
     7
370
    15
100
AcDbPolyline
 90
      138
 70
   128
 43
0.0
 10
-27.9199109298
 20
-12.3870536893
 10
-27.3409412157
 20
-13.3668423918
 10
-26.7188153111
 20
-14.3183082924
 10
-26.0548415565
 20
-15.2394504437
 10
-25.3504162989
 20
-16.1283316693
 10
-24.6070209556
 20
-16.9830826383
 10
-23.8262188985
 20
-17.8019057962
 10
-23.0096521665
 20
-18.583079145
 10
-22.1590380121
 20
-19.3249598652
 10
-21.27616529
 20
-20.0259877701
 10
-20.3628906953
 20
-20.6846885871
 10
-19.4211348586
 20
-21.2996770582
 10
-18.452878307
 20
-21.8696598531
 10
-17.4601572992
 20
-22.3934382891
 10
-16.4450595428
 20
-22.869910852
 10
-15.4097198041
 20
-23.2980755127
 10
-14.3563154187
 20
-23.6770318342
 10
-13.2870617123
 20
-24.0059828655
 10
-12.204207342
 20
-24.2842368175
 10
-11.1100295675
 20
-24.5112085178
 10
-10.0068294615
 20
-24.6864206413
 10
-8.896927071
 20
-24.8095047144
 10
-7.782656538
 20
-24.8802018892
 10
-6.6663611906
 20
-24.8983634885
 10
-5.5503886153
 20
-24.8639513182
 10
-4.4370857197
 20
-24.7770377476
 10
-3.3287937971
 20
-24.6378055573
 10
-2.2278436027
 20
-24.4465475547
 10
-1.1365504517
 20
-24.2036659585
 10
-0.0572093506
 20
-23.9096715523
 10
1.0079098296
 20
-23.5651826109
 10
2.0565671266
 20
-23.1709236001
 10
3.0865571979
 20
-22.7277236524
 10
4.0957139584
 20
-22.2365148245
 10
5.0819151358
 20
-21.6983301359
 10
6.0430867337
 20
-21.1143013975
 10
6.9772073933
 20
-20.4856568308
 10
7.8823126444
 20
-19.8137184851
 10
8.7564990366
 20
-19.0998994571
 10
9.5979281423
 20
-18.3457009192
 10
10.404830423
 20
-17.5527089628
 10
11.1755089509
 20
-16.7225912623
 10
11.9083429768
 20
-15.857093568
 10
12.6017913396
 20
-14.9580360349
 10
13.2543957066
 20
-14.0273093952
 10
13.8647836406
 20
-13.0668709813
 10
14.4316714863
 20
-12.07874061
 10
14.9538670699
 20
-11.064996335
 10
15.4302722058
 20
-10.0277700761
 10
15.8598850068
 20
-8.9692431363
 10
16.2418019904
 20
-7.8916416142
 10
16.5752199792
 20
-6.7972317224
 10
16.8594377902
 20
-5.688315022
 10
17.0938577087
 20
-4.5672235819
 10
17.2779867461
 20
-3.436315075
 10
17.4114376762
 20
-2.2979678192
 10
17.4939298495
 20
-1.1545757766
 10
17.5252897838
 20
-0.0085435184
 10
17.5054515287
 20
1.1377188319
 10
17.4344568042
 20
2.2818006667
 10
17.3124549135
 20
3.4212959641
 10
17.1397024283
 20
4.5538083479
 10
16.9165626498
 20
5.6769561269
 10
16.6435048444
 20
6.788377304
 10
16.321103257
 20
7.8857345431
 10
15.9500359031
 20
8.966720085
 10
15.5310831431
 20
10.0290606003
 10
15.0651260411
 20
11.0705219704
 10
14.5531445122
 20
12.0889139858
 10
13.9962152614
 20
13.0820949525
 10
13.3955095196
 20
14.0479761953
 10
12.7522905804
 20
14.9845264511
 10
12.067911143
 20
15.8897761401
 10
11.3438104682
 20
16.7618215081
 10
10.5815113508
 20
17.5988286304
 10
9.7826169177
 20
18.3990372678
 10
8.9488072563
 20
19.1607645692
 10
8.0818358813
 20
19.8824086103
 10
7.1835260469
 20
20.5624517624
 10
6.2557669127
 20
21.1994638842
 10
5.3005095704
 20
21.7921053295
 10
4.3197629412
 20
22.3391297639
 10
3.3155895503
 20
22.8393867867
 10
2.2901011901
 20
23.2918243495
 10
1.2454544784
 20
23.6954909692
 10
0.1838463235
 20
24.0495377286
 10
-0.8924906962
 20
24.3532200618
 10
-1.9812930273
 20
24.6058993202
 10
-3.0802709014
 20
24.8070441154
 10
-4.1871131512
 20
24.9562314368
 10
-5.2994920702
 20
25.0531475411
 10
-6.4150683083
 20
25.0975886122
 10
-7.5314957912
 20
25.0894611899
 10
-8.6464266548
 20
25.0287823663
 10
-9.7575161821
 20
24.9156797499
 10
-10.8624277346
 20
24.7503911972
 10
-11.9588376661
 20
24.5332643126
 10
-13.0444402095
 20
24.2647557174
 10
-14.1169523259
 20
23.9454300893
 10
-15.1741185057
 20
23.5759589749
 10
-16.2137155118
 20
23.157119378
 10
-17.2335570558
 20
22.6897921245
 10
-18.2314983951
 20
22.1749600109
 10
-19.2054408434
 20
21.6137057372
 10
-20.1533361847
 20
21.0072096299
 10
-21.0731909805
 20
20.3567471596
 10
-21.9630707617
 20
19.663686259
 10
-22.8211040975
 20
18.929484446
 10
-23.6454865303
 20
18.1556857583
 10
-24.4344843712
 20
17.3439175066
 10
-25.1864383455
 20
16.4958868522
 10
-25.8997670822
 20
15.6133772166
 10
-26.5729704399
 20
14.6982445313
 10
-27.2046326617
 20
13.7524133345
 10
-27.7934253519
 20
12.777872724
 10
-28.3381102705
 20
11.7766721738
 10
-28.8375419366
 20
10.750917224
 10
-29.2906700376
 20
9.7027650535
 10
-29.6965416382
 20
8.6344199423
 10
-30.0543031841
 20
7.5481286368
 10
-30.3632022971
 20
6.4461756246
 10
-30.6225893577
 20
5.3308783299
 10
-30.8319188708
 20
4.2045822402
 10
-30.9907506132
 20
3.0696559736
 10
-31.0987505594
 20
1.9284862978
 10
-31.1556915836
 20
0.7834731103
 10
-31.1614539382
 20
-0.3629756085
 10
-31.1160255047
 20
-1.5084488591
 10
-31.0195018199
 20
-2.6505376935
 10
-30.8720858746
 20
-3.7868402811
 10
-30.6740876868
 20
-4.91496696
 10
-30.4259236497
 20
-6.0325452623
 10
-30.1281156562
 20
-7.1372249033
 10
-29.781290001
 20
-8.2266827248
 10
-29.3861760641
 20
-9.2986275801
 10
-28.943604776
 20
-10.3508051523
 10
-28.454506871
 20
-11.3810026959
 10
-27.9199109298
 20
-12.3870536893
  0
LWPOLYLINE
  5
48
330
1F
100
AcDbEntity
  8
0
  6
Continuous
 62
     7
370
    15
100
AcDbPolyline
 90
       44
 70
   128
 43
0.0
 10
-8.9298487094
 20
-1.1479250699
 10
-8.7305381501
 20
-1.4499520295
 10
-8.4905044152
 20
-1.7189259739
 10
-8.2148634072
 20
-1.9491141905
 10
-7.9094899354
 20
-2.1356106172
 10
-7.5808925054
 20
-2.2744404063
 10
-7.2360746008
 20
-2.362644642
 10
-6.8823854166
 20
-2.3983434041
 10
-6.5273632237
 20
-2.3807758354
 10
-6.1785747038
 20
-2.3103163583
 10
-5.8434536786
 20
-2.188466694
 10
-5.529142671
 20
-2.0178238567
 10
-5.2423406744
 20
-1.8020248022
 10
-4.9891603754
 20
-1.5456689127
 10
-4.7749978726
 20
-1.2542199688
 10
-4.6044176679
 20
-0.9338896989
 10
-4.4810553821
 20
-0.5915053864
 10
-4.4075402683
 20
-0.2343643586
 10
-4.3854391734
 20
0.1299215435
 10
-4.4152231439
 20
0.4935881985
 10
-4.4962573862
 20
0.848884683
 10
-4.6268147961
 20
1.1882384691
 10
-4.8041127691
 20
1.5044168203
 10
-5.0243725067
 20
1.7906809437
 10
-5.282899555
 20
2.0409296167
 10
-5.5741838588
 20
2.2498292233
 10
-5.8920171989
 20
2.4129274309
 10
-6.2296255095
 20
2.5267480845
 10
-6.5798132554
 20
2.5888652945
 10
-6.935116793
 20
2.5979551404
 10
-7.2879634442
 20
2.5538238878
 10
-7.6308328952
 20
2.4574121178
 10
-7.9564174789
 20
2.31077468
 10
-8.2577779252
 20
2.1170368966
 10
-8.5284912593
 20
1.8803279523
 10
-8.7627876967
 20
1.6056928872
 10
-8.9556736154
 20
1.2989850708
 10
-9.103037987
 20
0.9667414479
 10
-9.2017399957
 20
0.6160432143
 10
-9.2496759797
 20
0.2543648942
 10
-9.2458242666
 20
-0.1105849671
 10
-9.190266949
 20
-0.4710280968
 10
-9.0841881347
 20
-0.8192822755
 10
-8.9298487094
 20
-1.1479250699
  0
LWPOLYLINE
  5
49
330
1F
100
AcDbEntity
  8
0
  6
Continuous
 62
     7
370
    15
100
AcDbPolyline
 90
       47
 70
   128
 43
0.0
 10
-19.7752842442
 20
-7.5667163037
 10
-19.5643614649
 20
-7.8896450233
 10
-19.3125595803
 20
-8.1800387898
 10
-19.0245691831
 20
-8.4324881168
 10
-18.7057549894
 20
-8.6422903508
 10
-18.3620559045
 20
-8.8055372733
 10
-17.999874392
 20
-8.9191879029
 10
-17.6259572083
 20
-8.9811251435
 10
-17.2472697229
 20
-8.9901952215
 10
-16.8708661672
 20
-8.9462291784
 10
-16.5037582273
 20
-8.8500460185
 10
-16.1527844296
 20
-8.703437452
 10
-15.8244827517
 20
-8.5091345192
 10
-15.5249688328
 20
-8.2707567161
 10
-15.2598220505
 20
-7.99274457
 10
-15.0339815876
 20
-7.6802769213
 10
-14.8516544247
 20
-7.339174451
 10
-14.7162369719
 20
-6.9757912528
 10
-14.6302518001
 20
-6.5968964681
 10
-14.5953006503
 20
-6.2095481899
 10
-14.6120345963
 20
-5.8209619836
 10
-14.6801419164
 20
-5.4383764751
 10
-14.7983539
 20
-5.0689185085
 10
-14.9644684817
 20
-4.7194703868
 10
-15.1753912609
 20
-4.3965416671
 10
-15.4271931455
 20
-4.1061479006
 10
-15.7151835428
 20
-3.8536985737
 10
-16.0339977364
 20
-3.6438963396
 10
-16.3776968213
 20
-3.4806494171
 10
-16.7398783338
 20
-3.3669987875
 10
-17.1137955176
 20
-3.3050615469
 10
-17.492483003
 20
-3.2959914689
 10
-17.8688865586
 20
-3.339957512
 10
-18.2359944985
 20
-3.4361406719
 10
-18.5869682963
 20
-3.5827492384
 10
-18.9152699742
 20
-3.7770521712
 10
-19.2147838931
 20
-4.0154299744
 10
-19.4799306754
 20
-4.2934421204
 10
-19.7057711382
 20
-4.6059097691
 10
-19.8880983011
 20
-4.9470122394
 10
-20.0235157539
 20
-5.3103954376
 10
-20.1095009258
 20
-5.6892902223
 10
-20.1444520756
 20
-6.0766385006
 10
-20.1277181296
 20
-6.4652247068
 10
-20.0596108095
 20
-6.8478102153
 10
-19.9413988258
 20
-7.2172681819
 10
-19.7752842442
 20
-7.5667163037
  0
LWPOLYLINE
  5
4A
330
1F
100
AcDbEntity
  8
0
  6
Continuous
 62
     7
370
    15
100
AcDbPolyline
 90
       47
 70
   128
 43
0.0
 10
-15.2974878006
 20
9.5059647809
 10
-15.0865650213
 20
9.1830360613
 10
-14.8347631367
 20
8.8926422947
 10
-14.5467727395
 20
8.6401929678
 10
-14.2279585458
 20
8.4303907338
 10
-13.8842594609
 20
8.2671438113
 10
-13.5220779484
 20
8.1534931817
 10
-13.1481607647
 20
8.0915559411
 10
-12.7694732793
 20
8.0824858631
 10
-12.3930697236
 20
8.1264519062
 10
-12.0259617837
 20
8.2226350661
 10
-11.674987986
 20
8.3692436326
 10
-11.3466863081
 20
8.5635465654
 10
-11.0471723892
 20
8.8019243685
 10
-10.7820256068
 20
9.0799365146
 10
-10.556185144
 20
9.3924041633
 10
-10.3738579811
 20
9.7335066336
 10
-10.2384405283
 20
10.0968898318
 10
-10.1524553565
 20
10.4757846165
 10
-10.1175042067
 20
10.8631328947
 10
-10.1342381527
 20
11.251719101
 10
-10.2023454728
 20
11.6343046095
 10
-10.3205574564
 20
12.0037625761
 10
-10.4866720381
 20
12.3532106978
 10
-10.6975948173
 20
12.6761394175
 10
-10.9493967019
 20
12.966533184
 10
-11.2373870991
 20
13.2189825109
 10
-11.5562012928
 20
13.428784745
 10
-11.8999003777
 20
13.5920316675
 10
-12.2620818902
 20
13.7056822971
 10
-12.6359990739
 20
13.7676195377
 10
-13.0146865593
 20
13.7766896156
 10
-13.391090115
 20
13.7327235726
 10
-13.7581980549
 20
13.6365404127
 10
-14.1091718527
 20
13.4899318462
 10
-14.4374735305
 20
13.2956289134
 10
-14.7369874495
 20
13.0572511102
 10
-15.0021342318
 20
12.7792389642
 10
-15.2279746946
 20
12.4667713155
 10
-15.4103018575
 20
12.1256688452
 10
-15.5457193103
 20
11.762285647
 10
-15.6317044822
 20
11.3833908623
 10
-15.666655632
 20
10.996042584
 10
-15.6499216859
 20
10.6074563778
 10
-15.5818143658
 20
10.2248708693
 10
-15.4636023822
 20
9.8554129027
 10
-15.2974878006
 20
9.5059647809
  0
LWPOLYLINE
  5
4B
330
1F
100
AcDbEntity
  8
0
  6
Continuous
 62
     7
370
    15
100
AcDbPolyline
 90
       47
 70
   128
 43
0.0
 10
1.3247848895
 20
4.9212043845
 10
1.5357076688
 20
4.5982756649
 10
1.7875095534
 20
4.3078818984
 10
2.0754999506
 20
4.0554325714
 10
2.3943141443
 20
3.8456303374
 10
2.7380132292
 20
3.6823834149
 10
3.1001947416
 20
3.5687327853
 10
3.4741119254
 20
3.5067955447
 10
3.8527994108
 20
3.4977254667
 10
4.2292029665
 20
3.5416915098
 10
4.5963109063
 20
3.6378746697
 10
4.9472847041
 20
3.7844832362
 10
5.275586382
 20
3.978786169
 10
5.5751003009
 20
4.2171639722
 10
5.8402470832
 20
4.4951761182
 10
6.0660875461
 20
4.8076437669
 10
6.248414709
 20
5.1487462372
 10
6.3838321618
 20
5.5121294354
 10
6.4698173336
 20
5.8910242201
 10
6.5047684834
 20
6.2783724983
 10
6.4880345374
 20
6.6669587046
 10
6.4199272173
 20
7.0495442131
 10
6.3017152336
 20
7.4190021797
 10
6.135600652
 20
7.7684503015
 10
5.9246778728
 20
8.0913790211
 10
5.6728759882
 20
8.3817727876
 10
5.3848855909
 20
8.6342221146
 10
5.0660713973
 20
8.8440243486
 10
4.7223723124
 20
9.0072712711
 10
4.3601907999
 20
9.1209219007
 10
3.9862736161
 20
9.1828591413
 10
3.6075861307
 20
9.1919292193
 10
3.2311825751
 20
9.1479631762
 10
2.8640746352
 20
9.0517800163
 10
2.5131008374
 20
8.9051714498
 10
2.1847991595
 20
8.710868517
 10
1.8852852406
 20
8.4724907139
 10
1.6201384583
 20
8.1944785678
 10
1.3942979955
 20
7.8820109191
 10
1.2119708326
 20
7.5409084488
 10
1.0765533798
 20
7.1775252506
 10
0.9905682079
 20
6.7986304659
 10
0.9556170581
 20
6.4112821877
 10
0.9723510041
 20
6.0226959814
 10
1.0404583242
 20
5.6401104729
 10
1.1586703079
 20
5.2706525063
 10
1.3247848895
 20
4.9212043845
  0
LWPOLYLINE
  5
4C
330
1F
100
AcDbEntity
  8
0
  6
Continuous
 62
     7
370
    15
100
AcDbPolyline
 90
       47
 70
   128
 43
0.0
 10
1.6578042084
 20
-9.3042307831
 10
1.82391879
 20
-9.6536789049
 10
1.9421307737
 20
-10.0231368715
 10
2.0102380938
 20
-10.40572238
 10
2.0269720398
 20
-10.7943085863
 10
1.99202089
 20
-11.1816568645
 10
1.9060357182
 20
-11.5605516492
 10
1.7706182653
 20
-11.9239348474
 10
1.5882911025
 20
-12.2650373177
 10
1.3624506396
 20
-12.5775049664
 10
1.0973038573
 20
-12.8555171124
 10
0.7977899384
 20
-13.0938949156
 10
0.4694882605
 20
-13.2881978484
 10
0.1185144627
 20
-13.4348064149
 10
-0.2485934772
 20
-13.5309895748
 10
-0.6249970328
 20
-13.5749556179
 10
-1.0036845182
 20
-13.5658855399
 10
-1.377601702
 20
-13.5039482993
 10
-1.7397832145
 20
-13.3902976697
 10
-2.0834822994
 20
-13.2270507472
 10
-2.402296493
 20
-13.0172485132
 10
-2.6902868902
 20
-12.7647991862
 10
-2.9420887748
 20
-12.4744054197
 10
-3.1530115541
 20
-12.1514767001
 10
-3.3191261357
 20
-11.8020285783
 10
-3.4373381194
 20
-11.4325706117
 10
-3.5054454395
 20
-11.0499851032
 10
-3.5221793855
 20
-10.6613988969
 10
-3.4872282357
 20
-10.2740506187
 10
-3.4012430638
 20
-9.895155834
 10
-3.265825611
 20
-9.5317726358
 10
-3.0834984482
 20
-9.1906701655
 10
-2.8576579853
 20
-8.8782025168
 10
-2.592511203
 20
-8.6001903707
 10
-2.2929972841
 20
-8.3618125676
 10
-1.9646956062
 20
-8.1675096348
 10
-1.6137218084
 20
-8.0209010683
 10
-1.2466138685
 20
-7.9247179084
 10
-0.8702103129
 20
-7.8807518653
 10
-0.4915228275
 20
-7.8898219433
 10
-0.1176056437
 20
-7.9517591839
 10
0.2445758688
 20
-8.0654098135
 10
0.5882749537
 20
-8.228656736
 10
0.9070891473
 20
-8.43845897
 10
1.1950795446
 20
-8.690908297
 10
1.4468814291
 20
-8.9813020635
 10
1.6578042084
 20
-9.3042307831
  0
LWPOLYLINE
  5
4D
330
1F
100
AcDbEntity
  8
0
  6
Continuous
 62
     7
370
    15
100
AcDbPolyline
 90
        3
 70
   128
 43
0.0
 10
-5.5199278114
 20
-1.1983585694
 10
-5.3206172521
 20
-1.5003855289
 10
-5.1412697698
 20
-1.7085296126
  0
LINE
  5
4F
330
1F
100
AcDbEntity
  8
0
  6
Continuous
 62
     7
370
    15
100
AcDbLine
 10
0.3697152051
 20
24.9972660639
 30
0.0
 11
-6.450126591
 21
25.0981330627
 31
0.0
  0
LINE
  5
50
330
1F
100
AcDbEntity
  8
0
  6
Continuous
 62
     7
370
    15
100
AcDbLine
 10
-7.1895570012
 20
-24.896399065
 30
0.0
 11
-0.3697152051
 21
-24.9972660639
 31
0.0
  0
ARC
  5
51
330
1F
100
AcDbEntity
  8
0
  6
Continuous
 62
     7
370
    15
100
AcDbCircle
 10
-3.2997254095
 20
0.0479524529
 30
0.0
 40
2.546093059929701
100
AcDbArc
 50
134.6322616034
 51
209.3076838254
  0
MTEXT
  5
53
330
1F
100
AcDbEntity
  8
0
  6
Continuous
 62
     7
100
AcDbMText
 10
-31.1614539382
 20
-26.0187968791
 30
0.0
 40
4.83362
 41
0.0
 71
     1
 72
     1
  1
SolidWorks Educational Edition.
  7
SLDTEXTSTYLE0
 73
     1
 44
1.0
  0
MTEXT
  5
54
330
1F
100
AcDbEntity
  8
0
  6
Continuous
 62
     7
100
AcDbMText
 10
-31.1614539382
 20
-33.2692268791
 30
0.0
 40
4.83362
 41
0.0
 71
     1
 72
     1
  1
For Instructional Use Only.
  7
SLDTEXTSTYLE0
 73
     1
 44
1.0
  0
ENDSEC
  0
SECTION
  2
OBJECTS
  0
DICTIONARY
  5
C
330
0
100
AcDbDictionary
281
     1
  3
ACAD_GROUP
350
D
  3
ACAD_LAYOUT
350
1A
  3
ACAD_MLINESTYLE
350
17
  3
ACAD_PLOTSETTINGS
350
19
  3
ACAD_PLOTSTYLENAME
350
E
  0
DICTIONARY
  5
D
102
{ACAD_REACTORS
330
C
102
}
330
C
100
AcDbDictionary
281
     1
  0
DICTIONARY
  5
1A
102
{ACAD_REACTORS
330
C
102
}
330
C
100
AcDbDictionary
281
     1
  3
Layout1
350
1E
  3
Layout2
350
26
  3
Model
350
22
  0
DICTIONARY
  5
17
102
{ACAD_REACTORS
330
C
102
}
330
C
100
AcDbDictionary
281
     1
  3
Standard
350
18
  0
DICTIONARY
  5
19
102
{ACAD_REACTORS
330
C
102
}
330
C
100
AcDbDictionary
281
     1
  0
ACDBDICTIONARYWDFLT
  5
E
102
{ACAD_REACTORS
330
C
102
}
330
C
100
AcDbDictionary
281
     1
  3
Normal
350
F
100
AcDbDictionaryWithDefault
340
F
  0
LAYOUT
  5
1E
102
{ACAD_REACTORS
330
1A
102
}
330
1A
100
AcDbPlotSettings
  1

  2
none_device
  4

  6

 40
0.0
 41
0.0
 42
0.0
 43
0.0
 44
0.0
 45
0.0
 46
0.0
 47
0.0
 48
0.0
 49
0.0
140
0.0
141
0.0
142
1.0
143
1.0
 70
   688
 72
     0
 73
     0
 74
     5
  7

 75
    16
147
1.0
148
0.0
149
0.0
100
AcDbLayout
  1
Layout1
 70
     1
 71
     1
 10
0.0
 20
0.0
 11
420.0
 21
297.0
 12
0.0
 22
0.0
 32
0.0
 14
1.0000000000E+20
 24
1.0000000000E+20
 34
1.0000000000E+20
 15
-1.0000000000E+20
 25
-1.0000000000E+20
 35
-1.0000000000E+20
146
0.0
 13
0.0
 23
0.0
 33
0.0
 16
1.0
 26
0.0
 36
0.0
 17
0.0
 27
1.0
 37
0.0
 76
     0
330
1B
  0
LAYOUT
  5
26
102
{ACAD_REACTORS
330
1A
102
}
330
1A
100
AcDbPlotSettings
  1

  2
none_device
  4

  6

 40
0.0
 41
0.0
 42
0.0
 43
0.0
 44
0.0
 45
0.0
 46
0.0
 47
0.0
 48
0.0
 49
0.0
140
0.0
141
0.0
142
1.0
143
1.0
 70
   688
 72
     0
 73
     0
 74
     5
  7

 75
    16
147
1.0
148
0.0
149
0.0
100
AcDbLayout
  1
Layout2
 70
     1
 71
     2
 10
0.0
 20
0.0
 11
0.0
 21
0.0
 12
0.0
 22
0.0
 32
0.0
 14
0.0
 24
0.0
 34
0.0
 15
0.0
 25
0.0
 35
0.0
146
0.0
 13
0.0
 23
0.0
 33
0.0
 16
1.0
 26
0.0
 36
0.0
 17
0.0
 27
1.0
 37
0.0
 76
     0
330
23
  0
LAYOUT
  5
22
102
{ACAD_REACTORS
330
1A
102
}
330
1A
100
AcDbPlotSettings
  1

  2
none_device
  4
ANSI_A_(11.00_x_8.50_Inches)
  6

 40
6.35
 41
19.05
 42
6.35000508
 43
19.05000254
 44
279.4
 45
215.9
 46
147.8909578413
 47
88.6890142204
 48
0.0
 49
0.0
140
0.0
141
0.0
142
0.1679729112
143
1.0
 70
  1696
 72
     0
 73
     0
 74
     0
  7

 75
     0
147
0.0179189148
148
0.0
149
0.0
100
AcDbLayout
  1
Model
 70
     1
 71
     0
 10
0.0
 20
0.0
 11
420.0
 21
297.0
 12
0.0
 22
0.0
 32
0.0
 14
-31.1614539382
 24
-24.9992304874
 34
0.0
 15
24.3451315799
 25
25.0981330627
 35
0.0
146
0.0
 13
0.0
 23
0.0
 33
0.0
 16
1.0
 26
0.0
 36
0.0
 17
0.0
 27
1.0
 37
0.0
 76
     0
330
1F
331
29
  0
MLINESTYLE
  5
18
102
{ACAD_REACTORS
330
17
102
}
330
17
100
AcDbMlineStyle
  2
Standard
 70
     0
  3

 62
   256
 51
90.0
 52
90.0
 71
     2
 49
0.5
 62
   256
  6
BYLAYER
 49
-0.5
 62
   256
  6
BYLAYER
  0
ACDBPLACEHOLDER
  5
F
102
{ACAD_REACTORS
330
E
102
}
330
E
  0
ENDSEC
  0
EOF
