  0
SECTION
  2
HEADER
  9
$ACADVER
  1
AC1015
  9
$ACADMAINTVER
 70
     6
  9
$DWGCODEPAGE
  3
ANSI_1252
  9
$INSBASE
 10
0.0
 20
0.0
 30
0.0
  9
$EXTMIN
 10
-36.5390040824
 20
-15.9626064995
 30
0.0
  9
$EXTMAX
 10
6.7409030663
 20
38.1753276089
 30
0.0
  9
$LIMMIN
 10
0.0
 20
0.0
  9
$LIMMAX
 10
420.0
 20
297.0
  9
$ORTHOMODE
 70
     0
  9
$REGENMODE
 70
     1
  9
$FILLMODE
 70
     1
  9
$QTEXTMODE
 70
     0
  9
$MIRRTEXT
 70
     1
  9
$LTSCALE
 40
1.0
  9
$ATTMODE
 70
     1
  9
$TEXTSIZE
 40
2.5
  9
$TRACEWID
 40
1.0
  9
$TEXTSTYLE
  7
Standard
  9
$CLAYER
  8
0
  9
$CELTYPE
  6
ByLayer
  9
$CECOLOR
 62
   256
  9
$CELTSCALE
 40
1.0
  9
$DISPSILH
 70
     0
  9
$DIMSCALE
 40
1.0
  9
$DIMASZ
 40
6.0
  9
$DIMEXO
 40
1.0
  9
$DIMDLI
 40
3.75
  9
$DIMRND
 40
0.0
  9
$DIMDLE
 40
0.0
  9
$DIMEXE
 40
1.0
  9
$DIMTP
 40
0.0
  9
$DIMTM
 40
0.0
  9
$DIMTXT
 40
2.5
  9
$DIMCEN
 40
2.5
  9
$DIMTSZ
 40
0.0
  9
$DIMTOL
 70
     0
  9
$DIMLIM
 70
     0
  9
$DIMTIH
 70
     1
  9
$DIMTOH
 70
     1
  9
$DIMSE1
 70
     0
  9
$DIMSE2
 70
     0
  9
$DIMTAD
 70
     1
  9
$DIMZIN
 70
     0
  9
$DIMBLK
  1

  9
$DIMASO
 70
     1
  9
$DIMSHO
 70
     1
  9
$DIMPOST
  1

  9
$DIMAPOST
  1

  9
$DIMALT
 70
     0
  9
$DIMALTD
 70
     3
  9
$DIMALTF
 40
0.0393700787
  9
$DIMLFAC
 40
1.0
  9
$DIMTOFL
 70
     1
  9
$DIMTVP
 40
0.0
  9
$DIMTIX
 70
     0
  9
$DIMSOXD
 70
     0
  9
$DIMSAH
 70
     0
  9
$DIMBLK1
  1

  9
$DIMBLK2
  1

  9
$DIMSTYLE
  2
ISO-25
  9
$DIMCLRD
 70
     0
  9
$DIMCLRE
 70
     0
  9
$DIMCLRT
 70
     0
  9
$DIMTFAC
 40
1.0
  9
$DIMGAP
 40
1.524
  9
$DIMJUST
 70
     0
  9
$DIMSD1
 70
     0
  9
$DIMSD2
 70
     0
  9
$DIMTOLJ
 70
     0
  9
$DIMTZIN
 70
     0
  9
$DIMALTZ
 70
     0
  9
$DIMALTTZ
 70
     0
  9
$DIMUPT
 70
     0
  9
$DIMDEC
 70
     2
  9
$DIMTDEC
 70
     2
  9
$DIMALTU
 70
     2
  9
$DIMALTTD
 70
     3
  9
$DIMTXSTY
  7
Standard
  9
$DIMAUNIT
 70
     0
  9
$DIMADEC
 70
     2
  9
$DIMALTRND
 40
0.0
  9
$DIMAZIN
 70
     0
  9
$DIMDSEP
 70
    44
  9
$DIMATFIT
 70
     3
  9
$DIMFRAC
 70
     0
  9
$DIMLDRBLK
  1

  9
$DIMLUNIT
 70
     2
  9
$DIMLWD
 70
    -2
  9
$DIMLWE
 70
    -2
  9
$DIMTMOVE
 70
     0
  9
$LUNITS
 70
     2
  9
$LUPREC
 70
     2
  9
$SKETCHINC
 40
1.0
  9
$FILLETRAD
 40
10.0
  9
$AUNITS
 70
     0
  9
$AUPREC
 70
     2
  9
$MENU
  1
.
  9
$ELEVATION
 40
0.0
  9
$PELEVATION
 40
0.0
  9
$THICKNESS
 40
0.0
  9
$LIMCHECK
 70
     0
  9
$CHAMFERA
 40
10.0
  9
$CHAMFERB
 40
10.0
  9
$CHAMFERC
 40
20.0
  9
$CHAMFERD
 40
0.0
  9
$SKPOLY
 70
     0
  9
$TDCREATE
 40
2456483.966110752
  9
$TDUCREATE
 40
2456483.466110752
  9
$TDUPDATE
 40
2456483.96619544
  9
$TDUUPDATE
 40
2456483.46619544
  9
$TDINDWG
 40
0.0000000116
  9
$TDUSRTIMER
 40
0.0000000116
  9
$USRTIMER
 70
     1
  9
$ANGBASE
 50
0.0
  9
$ANGDIR
 70
     0
  9
$PDMODE
 70
     0
  9
$PDSIZE
 40
-1.0
  9
$PLINEWID
 40
0.0
  9
$SPLFRAME
 70
     0
  9
$SPLINETYPE
 70
     6
  9
$SPLINESEGS
 70
     8
  9
$HANDSEED
  5
1AB
  9
$SURFTAB1
 70
     6
  9
$SURFTAB2
 70
     6
  9
$SURFTYPE
 70
     6
  9
$SURFU
 70
     6
  9
$SURFV
 70
     6
  9
$UCSBASE
  2

  9
$UCSNAME
  2

  9
$UCSORG
 10
0.0
 20
0.0
 30
0.0
  9
$UCSXDIR
 10
1.0
 20
0.0
 30
0.0
  9
$UCSYDIR
 10
0.0
 20
1.0
 30
0.0
  9
$UCSORTHOREF
  2

  9
$UCSORTHOVIEW
 70
     0
  9
$UCSORGTOP
 10
0.0
 20
0.0
 30
0.0
  9
$UCSORGBOTTOM
 10
0.0
 20
0.0
 30
0.0
  9
$UCSORGLEFT
 10
0.0
 20
0.0
 30
0.0
  9
$UCSORGRIGHT
 10
0.0
 20
0.0
 30
0.0
  9
$UCSORGFRONT
 10
0.0
 20
0.0
 30
0.0
  9
$UCSORGBACK
 10
0.0
 20
0.0
 30
0.0
  9
$PUCSBASE
  2

  9
$PUCSNAME
  2

  9
$PUCSORG
 10
0.0
 20
0.0
 30
0.0
  9
$PUCSXDIR
 10
1.0
 20
0.0
 30
0.0
  9
$PUCSYDIR
 10
0.0
 20
1.0
 30
0.0
  9
$PUCSORTHOREF
  2

  9
$PUCSORTHOVIEW
 70
     0
  9
$PUCSORGTOP
 10
0.0
 20
0.0
 30
0.0
  9
$PUCSORGBOTTOM
 10
0.0
 20
0.0
 30
0.0
  9
$PUCSORGLEFT
 10
0.0
 20
0.0
 30
0.0
  9
$PUCSORGRIGHT
 10
0.0
 20
0.0
 30
0.0
  9
$PUCSORGFRONT
 10
0.0
 20
0.0
 30
0.0
  9
$PUCSORGBACK
 10
0.0
 20
0.0
 30
0.0
  9
$USERI1
 70
     0
  9
$USERI2
 70
     0
  9
$USERI3
 70
     0
  9
$USERI4
 70
     0
  9
$USERI5
 70
     0
  9
$USERR1
 40
0.0
  9
$USERR2
 40
0.0
  9
$USERR3
 40
0.0
  9
$USERR4
 40
0.0
  9
$USERR5
 40
0.0
  9
$WORLDVIEW
 70
     1
  9
$SHADEDGE
 70
     3
  9
$SHADEDIF
 70
    70
  9
$TILEMODE
 70
     1
  9
$MAXACTVP
 70
    64
  9
$PINSBASE
 10
0.0
 20
0.0
 30
0.0
  9
$PLIMCHECK
 70
     0
  9
$PEXTMIN
 10
1.0000000000E+20
 20
1.0000000000E+20
 30
1.0000000000E+20
  9
$PEXTMAX
 10
-1.0000000000E+20
 20
-1.0000000000E+20
 30
-1.0000000000E+20
  9
$PLIMMIN
 10
0.0
 20
0.0
  9
$PLIMMAX
 10
420.0
 20
297.0
  9
$UNITMODE
 70
     0
  9
$VISRETAIN
 70
     1
  9
$PLINEGEN
 70
     0
  9
$PSLTSCALE
 70
     1
  9
$TREEDEPTH
 70
  3020
  9
$CMLSTYLE
  2
Standard
  9
$CMLJUST
 70
     0
  9
$CMLSCALE
 40
20.0
  9
$PROXYGRAPHICS
 70
     1
  9
$MEASUREMENT
 70
     1
  9
$CELWEIGHT
370
    -1
  9
$ENDCAPS
280
     0
  9
$JOINSTYLE
280
     0
  9
$LWDISPLAY
290
     1
  9
$INSUNITS
 70
     4
  9
$HYPERLINKBASE
  1

  9
$STYLESHEET
  1

  9
$XEDIT
290
     1
  9
$CEPSNTYPE
380
     0
  9
$PSTYLEMODE
290
     1
  9
$FINGERPRINTGUID
  2
{880C71E6-5411-4C0F-8838-8EBA1458F529}
  9
$VERSIONGUID
  2
{FAEB1C32-E019-11D5-929B-00C0DF256EC4}
  9
$EXTNAMES
290
     1
  9
$PSVPSCALE
 40
0.0
  9
$OLESTARTUP
290
     0
  0
ENDSEC
  0
SECTION
  2
CLASSES
  0
CLASS
  1
ACDBDICTIONARYWDFLT
  2
AcDbDictionaryWithDefault
  3
ObjectDBX Classes
 90
        0
280
     0
281
     0
  0
CLASS
  1
VISUALSTYLE
  2
AcDbVisualStyle
  3
ObjectDBX Classes
 90
     4095
280
     0
281
     0
  0
CLASS
  1
MATERIAL
  2
AcDbMaterial
  3
ObjectDBX Classes
 90
     1153
280
     0
281
     0
  0
CLASS
  1
ACDBPLACEHOLDER
  2
AcDbPlaceHolder
  3
ObjectDBX Classes
 90
        0
280
     0
281
     0
  0
CLASS
  1
LAYOUT
  2
AcDbLayout
  3
ObjectDBX Classes
 90
        0
280
     0
281
     0
  0
ENDSEC
  0
SECTION
  2
TABLES
  0
TABLE
  2
VPORT
  5
8
330
0
100
AcDbSymbolTable
 70
     1
  0
VPORT
  5
29
330
8
100
AcDbSymbolTableRecord
100
AcDbViewportTableRecord
  2
*Active
 70
     0
 10
0.0
 20
0.0
 11
1.0
 21
1.0
 12
-14.899050508
 22
11.1063605547
 13
0.0
 23
0.0
 14
10.0
 24
10.0
 15
10.0
 25
10.0
 16
0.0
 26
0.0
 36
1.0
 17
0.0
 27
0.0
 37
0.0
 40
55.2206927906
 41
0.79943773
 42
50.0
 43
0.0
 44
0.0
 50
0.0
 51
0.0
 71
     0
 72
   100
 73
     1
 74
     3
 75
     0
 76
     0
 77
     0
 78
     0
281
     0
 65
     1
110
0.0
120
0.0
130
0.0
111
1.0
121
0.0
131
0.0
112
0.0
122
1.0
132
0.0
 79
     0
146
0.0
  0
ENDTAB
  0
TABLE
  2
LTYPE
  5
5
330
0
100
AcDbSymbolTable
 70
     6
  0
LTYPE
  5
14
330
5
100
AcDbSymbolTableRecord
100
AcDbLinetypeTableRecord
  2
ByBlock
 70
     0
  3

 72
    65
 73
     0
 40
0.0
  0
LTYPE
  5
15
330
5
100
AcDbSymbolTableRecord
100
AcDbLinetypeTableRecord
  2
ByLayer
 70
     0
  3

 72
    65
 73
     0
 40
0.0
  0
LTYPE
  5
16
330
5
100
AcDbSymbolTableRecord
100
AcDbLinetypeTableRecord
  2
Continuous
 70
     0
  3
Solid line
 72
    65
 73
     0
 40
0.0
  0
LTYPE
  5
3F
330
5
100
AcDbSymbolTableRecord
100
AcDbLinetypeTableRecord
  2
HIDDEN
 70
     0
  3
Hidden __ __ __ __ __ __ __ __ __ __ __ __ __ __
 72
    65
 73
     2
 40
1.905
 49
1.27
 74
     0
 49
-0.635
 74
     0
  0
LTYPE
  5
40
330
5
100
AcDbSymbolTableRecord
100
AcDbLinetypeTableRecord
  2
PHANTOM
 70
     0
  3
Phantom ______  __  __  ______  __  __  ______
 72
    65
 73
     6
 40
12.7
 49
6.35
 74
     0
 49
-1.27
 74
     0
 49
1.27
 74
     0
 49
-1.27
 74
     0
 49
1.27
 74
     0
 49
-1.27
 74
     0
  0
LTYPE
  5
41
330
5
100
AcDbSymbolTableRecord
100
AcDbLinetypeTableRecord
  2
CENTER
 70
     0
  3
Center ____ _ ____ _ ____ _ ____ _ ____ _ ____
 72
    65
 73
     4
 40
10.16
 49
6.35
 74
     0
 49
-1.27
 74
     0
 49
1.27
 74
     0
 49
-1.27
 74
     0
  0
LTYPE
  5
42
330
5
100
AcDbSymbolTableRecord
100
AcDbLinetypeTableRecord
  2
CENTERX2
 70
     0
  3
Center (2x) ________  __  ________  __  _____
 72
    65
 73
     4
 40
20.32
 49
12.7
 74
     0
 49
-2.54
 74
     0
 49
2.54
 74
     0
 49
-2.54
 74
     0
  0
LTYPE
  5
43
330
5
100
AcDbSymbolTableRecord
100
AcDbLinetypeTableRecord
  2
DOT2
 70
     0
  3
Dot (.5x) ........................................
 72
    65
 73
     2
 40
0.635
 49
0.0
 74
     0
 49
-0.635
 74
     0
  0
ENDTAB
  0
TABLE
  2
LAYER
  5
2
330
0
100
AcDbSymbolTable
 70
     1
  0
LAYER
  5
10
330
2
100
AcDbSymbolTableRecord
100
AcDbLayerTableRecord
  2
0
 70
     0
 62
     7
  6
Continuous
370
    -3
390
F
  0
ENDTAB
  0
TABLE
  2
STYLE
  5
3
330
0
100
AcDbSymbolTable
 70
     2
  0
STYLE
  5
11
330
3
100
AcDbSymbolTableRecord
100
AcDbTextStyleTableRecord
  2
Standard
 70
     0
 40
0.0
 41
1.0
 50
0.0
 71
     0
 42
2.5
  3
txt
  4

  0
STYLE
  5
1A8
330
3
100
AcDbSymbolTableRecord
100
AcDbTextStyleTableRecord
  2
SLDTEXTSTYLE0
 70
     0
 40
0.0
 41
0.7
 50
0.0
 71
     0
 42
0.2
  3
TXT
  4

  0
ENDTAB
  0
TABLE
  2
VIEW
  5
6
330
0
100
AcDbSymbolTable
 70
     0
  0
ENDTAB
  0
TABLE
  2
UCS
  5
7
330
0
100
AcDbSymbolTable
 70
     0
  0
ENDTAB
  0
TABLE
  2
APPID
  5
9
330
0
100
AcDbSymbolTable
 70
     1
  0
APPID
  5
12
330
9
100
AcDbSymbolTableRecord
100
AcDbRegAppTableRecord
  2
ACAD
 70
     0
  0
ENDTAB
  0
TABLE
  2
DIMSTYLE
  5
A
330
0
100
AcDbSymbolTable
 70
     1
100
AcDbDimStyleTable
  0
DIMSTYLE
105
27
330
A
100
AcDbSymbolTableRecord
100
AcDbDimStyleTableRecord
  2
ISO-25
 70
     0
 41
2.5
 42
0.625
 43
3.75
 44
1.25
 73
     0
 74
     0
 77
     1
 78
     8
140
2.5
141
2.5
143
0.0393700787
147
0.625
171
     3
172
     1
178
     0
271
     2
272
     2
274
     3
278
    44
283
     0
284
     8
340
11
  0
ENDTAB
  0
TABLE
  2
BLOCK_RECORD
  5
1
330
0
100
AcDbSymbolTable
 70
     1
  0
BLOCK_RECORD
  5
1F
330
1
100
AcDbSymbolTableRecord
100
AcDbBlockTableRecord
  2
*Model_Space
340
22
  0
BLOCK_RECORD
  5
1B
330
1
100
AcDbSymbolTableRecord
100
AcDbBlockTableRecord
  2
*Paper_Space
340
1E
  0
BLOCK_RECORD
  5
23
330
1
100
AcDbSymbolTableRecord
100
AcDbBlockTableRecord
  2
*Paper_Space0
340
26
  0
ENDTAB
  0
ENDSEC
  0
SECTION
  2
BLOCKS
  0
BLOCK
  5
20
330
1F
100
AcDbEntity
  8
0
100
AcDbBlockBegin
  2
*Model_Space
 70
     0
 10
0.0
 20
0.0
 30
0.0
  3
*Model_Space
  1

  0
ENDBLK
  5
21
330
1F
100
AcDbEntity
  8
0
100
AcDbBlockEnd
  0
BLOCK
  5
1C
330
1B
100
AcDbEntity
 67
     1
  8
0
100
AcDbBlockBegin
  2
*Paper_Space
 70
     0
 10
0.0
 20
0.0
 30
0.0
  3
*Paper_Space
  1

  0
ENDBLK
  5
1D
330
1B
100
AcDbEntity
 67
     1
  8
0
100
AcDbBlockEnd
  0
BLOCK
  5
24
330
23
100
AcDbEntity
  8
0
100
AcDbBlockBegin
  2
*Paper_Space0
 70
     0
 10
0.0
 20
0.0
 30
0.0
  3
*Paper_Space0
  1

  0
ENDBLK
  5
25
330
23
100
AcDbEntity
  8
0
100
AcDbBlockEnd
  0
ENDSEC
  0
SECTION
  2
ENTITIES
  0
SPLINE
  5
45
330
1F
100
AcDbEntity
  8
0
  6
Continuous
 62
     7
370
    15
100
AcDbSpline
210
0.0
220
0.0
230
1.0
 70
     8
 71
     3
 72
    14
 73
    10
 74
     0
 42
0.00000001
 43
0.00000001
 12
1.0
 22
0.0
 32
0.0
 13
1.0
 23
0.0
 33
0.0
 40
0.0
 40
0.0
 40
0.0
 40
0.0
 40
0.1343040365747904
 40
0.286098041105354
 40
0.4451999944827064
 40
0.6052209955250514
 40
0.7623167454539265
 40
0.9161623902292709
 40
1.0
 40
1.0
 40
1.0
 40
1.0
 10
-22.85472711767786
 20
21.77978389240821
 30
0.0
 10
-23.14022108198243
 20
21.52867132372844
 30
0.0
 10
-23.74838793994169
 20
20.99374463181019
 30
0.0
 10
-24.67038741672008
 20
20.1316247075175
 30
0.0
 10
-25.61271718872125
 20
19.19136875407759
 30
0.0
 10
-26.53266908865973
 20
18.21078799827366
 30
0.0
 10
-27.40421072800791
 20
17.2094383414085
 30
0.0
 10
-28.10942546017222
 20
16.34963470988043
 30
0.0
 10
-28.50772490846317
 20
15.81248972294163
 30
0.0
 10
-28.64821639483853
 20
15.62302348607406
 30
0.0
  0
SPLINE
  5
49
330
1F
100
AcDbEntity
  8
0
  6
Continuous
 62
     7
370
    15
100
AcDbSpline
210
0.0
220
0.0
230
1.0
 70
     8
 71
     3
 72
     9
 73
     5
 74
     0
 42
0.00000001
 43
0.00000001
 12
1.0
 22
0.0
 32
0.0
 13
1.0
 23
0.0
 33
0.0
 40
0.0
 40
0.0
 40
0.0
 40
0.0
 40
0.3662017660908615
 40
1.0
 40
1.0
 40
1.0
 40
1.0
 10
-33.72127087079257
 20
7.258260495984675
 30
0.0
 10
-33.78805435566076
 20
7.122789148550892
 30
0.0
 10
-33.97042235890961
 20
6.752852791116256
 30
0.0
 10
-34.13063178192959
 20
6.371797182636012
 30
0.0
 10
-34.23217223129527
 20
6.130284810960064
 30
0.0
  0
SPLINE
  5
4A
330
1F
100
AcDbEntity
  8
0
  6
Continuous
 62
     7
370
    15
100
AcDbSpline
210
0.0
220
0.0
230
1.0
 70
     8
 71
     3
 72
    21
 73
    17
 74
     0
 42
0.00000001
 43
0.00000001
 12
1.0
 22
0.0
 32
0.0
 13
1.0
 23
0.0
 33
0.0
 40
0.0
 40
0.0
 40
0.0
 40
0.0
 40
0.0149894315526582
 40
0.0962677341581865
 40
0.1764660222406296
 40
0.2556334179107222
 40
0.3350943956963597
 40
0.4150858585019076
 40
0.4955117730668304
 40
0.576269802972938
 40
0.6572516864013762
 40
0.7383451532157449
 40
0.8194191544635031
 40
0.9005097914452896
 40
0.9778164001804293
 40
1.0
 40
1.0
 40
1.0
 40
1.0
 10
-34.29847414964703
 20
5.978008457247681
 30
0.0
 10
-34.32679034901234
 20
5.913467644311925
 30
0.0
 10
-34.50864756910075
 20
5.498962411059722
 30
0.0
 10
-34.80158428351693
 20
4.720081907838146
 30
0.0
 10
-35.17208146494237
 20
3.646068520858907
 30
0.0
 10
-35.49260697226872
 20
2.561918264948249
 30
0.0
 10
-35.77110481064174
 20
1.464447335255081
 30
0.0
 10
-36.00774934664153
 20
0.3476509644625911
 30
0.0
 10
-36.20236540245677
 20
-0.7872401669387266
 30
0.0
 10
-36.35406197914696
 20
-1.937578662788354
 30
0.0
 10
-36.46229912438501
 20
-3.100494147916973
 30
0.0
 10
-36.52635861127452
 20
-4.273094853864786
 30
0.0
 10
-36.54685404776781
 20
-5.452590022184824
 30
0.0
 10
-36.52066048960351
 20
-6.620235001338854
 30
0.0
 10
-36.47150699967106
 20
-7.502711193132376
 30
0.0
 10
-36.42831563304902
 20
-7.988498416017748
 30
0.0
 10
-36.41868513767945
 20
-8.096815701773803
 30
0.0
  0
SPLINE
  5
4B
330
1F
100
AcDbEntity
  8
0
  6
Continuous
 62
     7
370
    15
100
AcDbSpline
210
0.0
220
0.0
230
1.0
 70
     8
 71
     3
 72
    13
 73
     9
 74
     0
 42
0.00000001
 43
0.00000001
 12
1.0
 22
0.0
 32
0.0
 13
1.0
 23
0.0
 33
0.0
 40
0.0
 40
0.0
 40
0.0
 40
0.0
 40
0.1532998670396575
 40
0.3581126149699838
 40
0.5413513658776913
 40
0.7126280144835473
 40
0.8933987020997567
 40
1.0
 40
1.0
 40
1.0
 40
1.0
 10
-13.13019674901173
 20
-7.212182788429447
 30
0.0
 10
-13.14450769594925
 20
-7.236817045652002
 30
0.0
 10
-13.1779384531277
 20
-7.294363333474482
 30
0.0
 10
-13.26370344546798
 20
-7.365970592767109
 30
0.0
 10
-13.38170256886245
 20
-7.431056087933562
 30
0.0
 10
-13.52752752992438
 20
-7.47485986561992
 30
0.0
 10
-13.67624298188191
 20
-7.492122335145225
 30
0.0
 10
-13.77910407734094
 20
-7.485435604314302
 30
0.0
 10
-13.81726063689446
 20
-7.482955146158283
 30
0.0
  0
SPLINE
  5
4E
330
1F
100
AcDbEntity
  8
0
  6
Continuous
 62
     7
370
    15
100
AcDbSpline
210
0.0
220
0.0
230
1.0
 70
     8
 71
     3
 72
    20
 73
    16
 74
     0
 42
0.00000001
 43
0.00000001
 12
1.0
 22
0.0
 32
0.0
 13
1.0
 23
0.0
 33
0.0
 40
0.0
 40
0.0
 40
0.0
 40
0.0
 40
0.0843923751200548
 40
0.1646520113340347
 40
0.2490889763799147
 40
0.3328227665024438
 40
0.4167288738497977
 40
0.5006527585050657
 40
0.5844258263749909
 40
0.6679083483476348
 40
0.7509735868402182
 40
0.8335171561230948
 40
0.9154656881542843
 40
0.9974678474158569
 40
1.0
 40
1.0
 40
1.0
 40
1.0
 10
-20.30893876727585
 20
5.649499581970483
 30
0.0
 10
-20.18150867704476
 20
5.795595982072268
 30
0.0
 10
-19.93288881498757
 20
6.080634364878776
 30
0.0
 10
-19.52207898007508
 20
6.475811679248622
 30
0.0
 10
-19.08163281239453
 20
6.841282817843382
 30
0.0
 10
-18.60227437004492
 20
7.179775288185914
 30
0.0
 10
-18.0945210413663
 20
7.484246163975971
 30
0.0
 10
-17.55930618499905
 20
7.753866877320892
 30
0.0
 10
-16.99999962910944
 20
7.986790582083496
 30
0.0
 10
-16.42009405994001
 20
8.181557353189739
 30
0.0
 10
-15.8230778689516
 20
8.336669944353261
 30
0.0
 10
-15.21271611140152
 20
8.452373378245722
 30
0.0
 10
-14.58996119069282
 20
8.524201125044915
 30
0.0
 10
-14.1630962999532
 20
8.553128993319737
 30
0.0
 10
-13.94277219455212
 20
8.553841576040242
 30
0.0
 10
-13.93617257552572
 20
8.553862920842581
 30
0.0
  0
SPLINE
  5
4F
330
1F
100
AcDbEntity
  8
0
  6
Continuous
 62
     7
370
    15
100
AcDbSpline
210
0.0
220
0.0
230
1.0
 70
     8
 71
     3
 72
    15
 73
    11
 74
     0
 42
0.00000001
 43
0.00000001
 12
1.0
 22
0.0
 32
0.0
 13
1.0
 23
0.0
 33
0.0
 40
0.0
 40
0.0
 40
0.0
 40
0.0
 40
0.0057480084183754
 40
0.181944136994241
 40
0.3346873533196383
 40
0.4973609785160011
 40
0.6560666568646543
 40
0.8181873627465005
 40
0.984647721958195
 40
1.0
 40
1.0
 40
1.0
 40
1.0
 10
-31.45167641056528
 20
-9.35686224510359
 30
0.0
 10
-31.4447763967157
 20
-9.355185654444192
 30
0.0
 10
-31.22636734548728
 20
-9.30211582252789
 30
0.0
 10
-30.83232552396652
 20
-9.18101774374155
 30
0.0
 10
-30.26031244289505
 20
-8.979943081280636
 30
0.0
 10
-29.73102931269799
 20
-8.742723052850447
 30
0.0
 10
-29.21395053661434
 20
-8.465827139262995
 30
0.0
 10
-28.72117252815616
 20
-8.149410523268845
 30
0.0
 10
-28.38442759855316
 20
-7.911725342595589
 30
0.0
 10
-28.22033444390138
 20
-7.772001586847651
 30
0.0
 10
-28.20647840081755
 20
-7.76020329834751
 30
0.0
  0
SPLINE
  5
5F
330
1F
100
AcDbEntity
  8
0
  6
Continuous
 62
     7
370
    15
100
AcDbSpline
210
0.0
220
0.0
230
1.0
 70
     8
 71
     3
 72
    13
 73
     9
 74
     0
 42
0.00000001
 43
0.00000001
 12
1.0
 22
0.0
 32
0.0
 13
1.0
 23
0.0
 33
0.0
 40
0.0
 40
0.0
 40
0.0
 40
0.0
 40
0.0797859946558473
 40
0.2992764311415818
 40
0.4935335948238248
 40
0.674185373849333
 40
0.864848164531385
 40
1.0
 40
1.0
 40
1.0
 40
1.0
 10
-6.776079815304168
 20
-8.18859106729362
 30
0.0
 10
-6.767719035921485
 20
-8.177021008811469
 30
0.0
 10
-6.736357839937094
 20
-8.133621840504128
 30
0.0
 10
-6.667465722271509
 20
-8.06890199412624
 30
0.0
 10
-6.55202079754413
 20
-8.001180513473889
 30
0.0
 10
-6.409333438483768
 20
-7.953961737642019
 30
0.0
 10
-6.255534623486051
 20
-7.932084481282128
 30
0.0
 10
-6.144359255038369
 20
-7.938592352515383
 30
0.0
 10
-6.098242371698528
 20
-7.941291895972216
 30
0.0
  0
SPLINE
  5
62
330
1F
100
AcDbEntity
  8
0
  6
Continuous
 62
     7
370
    15
100
AcDbSpline
210
0.0
220
0.0
230
1.0
 70
     8
 71
     3
 72
    15
 73
    11
 74
     0
 42
0.00000001
 43
0.00000001
 12
1.0
 22
0.0
 32
0.0
 13
1.0
 23
0.0
 33
0.0
 40
0.0
 40
0.0
 40
0.0
 40
0.0
 40
0.0616094410678411
 40
0.202371219628579
 40
0.3426227517698501
 40
0.4823174483297617
 40
0.6217339404946545
 40
0.761112211429676
 40
0.901011122534998
 40
1.0
 40
1.0
 40
1.0
 40
1.0
 10
-3.650105517344342
 20
-8.178436771124751
 30
0.0
 10
-3.622953878100584
 20
-8.18166743303534
 30
0.0
 10
-3.533767703815647
 20
-8.192279329194783
 30
0.0
 10
-3.376739235273969
 20
-8.232802398635105
 30
0.0
 10
-3.187627506414641
 20
-8.313825099315153
 30
0.0
 10
-3.011900378246916
 20
-8.424213296196147
 30
0.0
 10
-2.858020079129092
 20
-8.557815704280259
 30
0.0
 10
-2.733114235217188
 20
-8.707159267688256
 30
0.0
 10
-2.648421948341993
 20
-8.848611827723081
 30
0.0
 10
-2.615455835317098
 20
-8.935064972378202
 30
0.0
 10
-2.601795536721473
 20
-8.970888903747598
 30
0.0
  0
SPLINE
  5
63
330
1F
100
AcDbEntity
  8
0
  6
Continuous
 62
     7
370
    15
100
AcDbSpline
210
0.0
220
0.0
230
1.0
 70
     8
 71
     3
 72
    29
 73
    25
 74
     0
 42
0.00000001
 43
0.00000001
 12
1.0
 22
0.0
 32
0.0
 13
1.0
 23
0.0
 33
0.0
 40
0.0
 40
0.0
 40
0.0
 40
0.0
 40
0.0010064594163325
 40
0.0322863607673357
 40
0.0732030954437547
 40
0.1151319657969296
 40
0.1585130984807127
 40
0.2039283877192881
 40
0.2522916566285268
 40
0.3062435361064531
 40
0.3685320852729402
 40
0.4451337518191025
 40
0.5441199184405011
 40
0.6034882310164954
 40
0.6580674166662626
 40
0.7071075776324488
 40
0.7512312247898407
 40
0.7922409796148353
 40
0.8359470946291522
 40
0.8789829999832073
 40
0.9210890135558992
 40
0.9621367757539688
 40
0.9994158181626359
 40
1.0
 40
1.0
 40
1.0
 40
1.0
 10
-11.61243048204308
 20
25.47127232728462
 30
0.0
 10
-11.61534509927884
 20
25.46899249062829
 30
0.0
 10
-11.70884353751231
 20
25.39585727267267
 30
0.0
 10
-11.9371395337729
 20
25.25261465232877
 30
0.0
 10
-12.31046483092905
 20
25.04235686386363
 30
0.0
 10
-12.75219130131326
 20
24.84611455899825
 30
0.0
 10
-13.2322655373612
 20
24.67515834189014
 30
0.0
 10
-13.75746388223889
 20
24.52986023396433
 30
0.0
 10
-14.34042023989578
 20
24.40522544697437
 30
0.0
 10
-15.00429311434821
 20
24.29683114949286
 30
0.0
 10
-15.79388697837413
 20
24.19792647259563
 30
0.0
 10
-16.77713712966178
 20
24.09735303838952
 30
0.0
 10
-17.75134421707754
 20
23.99723773283781
 30
0.0
 10
-18.62967511987804
 20
23.87572871224178
 30
0.0
 10
-19.29514437561417
 20
23.75266834088265
 30
0.0
 10
-19.88854751956798
 20
23.60703579119264
 30
0.0
 10
-20.41517444195609
 20
23.44157118031778
 30
0.0
 10
-20.90658207067056
 20
23.24505106228532
 30
0.0
 10
-21.37176858829635
 20
23.01199468284829
 30
0.0
 10
-21.81572477789646
 20
22.73762812353887
 30
0.0
 10
-22.22138119800507
 20
22.43132747986407
 30
0.0
 10
-22.57829408967737
 20
22.10282973707818
 30
0.0
 10
-22.78763933500444
 20
21.86881902854322
 30
0.0
 10
-22.88194281518361
 20
21.75782471464766
 30
0.0
 10
-22.88339779904772
 20
21.75611221225202
 30
0.0
  0
SPLINE
  5
64
330
1F
100
AcDbEntity
  8
0
  6
Continuous
 62
     7
370
    15
100
AcDbSpline
210
0.0
220
0.0
230
1.0
 70
     8
 71
     3
 72
    10
 73
     6
 74
     0
 42
0.00000001
 43
0.00000001
 12
1.0
 22
0.0
 32
0.0
 13
1.0
 23
0.0
 33
0.0
 40
0.0
 40
0.0
 40
0.0
 40
0.0
 40
0.2361451947096881
 40
0.8742282025007381
 40
1.0
 40
1.0
 40
1.0
 40
1.0
 10
-12.32352082483093
 20
-2.5665675480681
 30
0.0
 10
-12.3233169730837
 20
-2.584921740116708
 30
0.0
 10
-12.32256229777994
 20
-2.652870411876621
 30
0.0
 10
-12.33490118091918
 20
-2.719549907906481
 30
0.0
 10
-12.34990975380663
 20
-2.764698450160807
 30
0.0
 10
-12.35238097631761
 20
-2.772132341097239
 30
0.0
  0
SPLINE
  5
66
330
1F
100
AcDbEntity
  8
0
  6
Continuous
 62
     7
370
    15
100
AcDbSpline
210
0.0
220
0.0
230
1.0
 70
     8
 71
     3
 72
    10
 73
     6
 74
     0
 42
0.00000001
 43
0.00000001
 12
1.0
 22
0.0
 32
0.0
 13
1.0
 23
0.0
 33
0.0
 40
0.0
 40
0.0
 40
0.0
 40
0.0
 40
0.2691717214952901
 40
0.898898444704886
 40
1.0
 40
1.0
 40
1.0
 40
1.0
 10
-0.5885233601086969
 20
9.926897997774416
 30
0.0
 10
-0.5957062802963986
 20
9.948798349278771
 30
0.0
 10
-0.6196936284074799
 20
10.02193453088207
 30
0.0
 10
-0.6315507097710525
 20
10.09790232258705
 30
0.0
 10
-0.6340360771305495
 20
10.14864994821173
 30
0.0
 10
-0.6343798986723735
 20
10.15567028941785
 30
0.0
  0
SPLINE
  5
68
330
1F
100
AcDbEntity
  8
0
  6
Continuous
 62
     7
370
    15
100
AcDbSpline
210
0.0
220
0.0
230
1.0
 70
     8
 71
     3
 72
    17
 73
    13
 74
     0
 42
0.00000001
 43
0.00000001
 12
1.0
 22
0.0
 32
0.0
 13
1.0
 23
0.0
 33
0.0
 40
0.0
 40
0.0
 40
0.0
 40
0.0
 40
0.0465023490894452
 40
0.1539526242686798
 40
0.2605009580475834
 40
0.3663319208396046
 40
0.4718081981810605
 40
0.5771121664985613
 40
0.682471622577227
 40
0.7883963058503196
 40
0.8958841275057644
 40
1.0
 40
1.0
 40
1.0
 40
1.0
 10
-13.93583061672676
 20
8.556690018771071
 30
0.0
 10
-13.91027562198952
 20
8.556877450158616
 30
0.0
 10
-13.82567218624903
 20
8.557497968359272
 30
0.0
 10
-13.67124409867451
 20
8.537113316226126
 30
0.0
 10
-13.47778664198689
 20
8.479625300859484
 30
0.0
 10
-13.29099130284899
 20
8.39003964967174
 30
0.0
 10
-13.1203493334503
 20
8.272956081366305
 30
0.0
 10
-12.97357016129778
 20
8.134405221310045
 30
0.0
 10
-12.85648578472572
 20
7.982050053096319
 30
0.0
 10
-12.77325690870542
 20
7.825027173743884
 30
0.0
 10
-12.72339024246782
 20
7.673360169744162
 30
0.0
 10
-12.71536282209407
 20
7.58535744006485
 30
0.0
 10
-12.71141307121921
 20
7.542057246184706
 30
0.0
  0
SPLINE
  5
69
330
1F
100
AcDbEntity
  8
0
  6
Continuous
 62
     7
370
    15
100
AcDbSpline
210
0.0
220
0.0
230
1.0
 70
     8
 71
     3
 72
    10
 73
     6
 74
     0
 42
0.00000001
 43
0.00000001
 12
1.0
 22
0.0
 32
0.0
 13
1.0
 23
0.0
 33
0.0
 40
0.0
 40
0.0
 40
0.0
 40
0.0
 40
0.0126554183361694
 40
0.743292078171775
 40
0.9999999999999999
 40
0.9999999999999999
 40
0.9999999999999999
 40
0.9999999999999999
 10
-11.47848751969268
 20
25.61535637883647
 30
0.0
 10
-11.47880912761786
 20
25.61461495226934
 30
0.0
 10
-11.49769816128798
 20
25.57106866409036
 30
0.0
 10
-11.54233720386936
 20
25.52580746525979
 30
0.0
 10
-11.59755845459809
 20
25.48220603143048
 30
0.0
 10
-11.61191588641936
 20
25.47086973235626
 30
0.0
  0
LWPOLYLINE
  5
6F
330
1F
100
AcDbEntity
  8
0
  6
Continuous
 62
     7
370
    15
100
AcDbPolyline
 90
       37
 70
   128
 43
0.0
 10
-3.1364593924
 20
0.239305729
 10
-3.1612239375
 20
0.5274817067
 10
-3.2354272872
 20
0.8146931203
 10
-3.3571398968
 20
1.0934714757
 10
-3.5231968158
 20
1.3565675675
 10
-3.7292799875
 20
1.5971399837
 10
-3.970030534
 20
1.8089330061
 10
-4.2391881049
 20
1.9864392807
 10
-4.5297536688
 20
2.1250430278
 10
-4.8341715119
 20
2.2211400689
 10
-5.1445257133
 20
2.2722315469
 10
-5.452745986
 20
2.2769889063
 10
-5.7508175325
 20
2.235288439
 10
-6.0309894576
 20
2.148214502
 10
-6.2859763183
 20
2.0180313201
 10
-6.5091475707
 20
1.848124108
 10
-6.6946999874
 20
1.6429110434
 10
-6.837808561
 20
1.4077283784
 10
-6.9347519719
 20
1.1486916792
 10
-6.9830093545
 20
0.8725367993
 10
-6.9813258495
 20
0.5864447246
 10
-6.9297452338
 20
0.2978548426
 10
-6.8296087824
 20
0.0142714924
 10
-6.6835203909
 20
-0.2569311743
 10
-6.4952788648
 20
-0.5087009462
 10
-6.2697791375
 20
-0.734490935
 10
-6.0128849848
 20
-0.928429817
 10
-5.7312765468
 20
-1.0854745077
 10
-5.432276621
 20
-1.2015412998
 10
-5.1236602435
 20
-1.2736120537
 10
-4.813452512
 20
-1.2998126795
 10
-4.5097199047
 20
-1.2794618699
 10
-4.2203605241
 20
-1.2130888168
 10
-3.9528987189
 20
-1.1024194498
 10
-3.7142894249
 20
-0.9503315569
 10
-3.5107373123
 20
-0.7607799515
 10
-3.3475354428
 20
-0.5386936334
  0
SPLINE
  5
81
330
1F
100
AcDbEntity
  8
0
  6
Continuous
 62
     7
370
    15
100
AcDbSpline
210
0.0
220
0.0
230
1.0
 70
     8
 71
     3
 72
    36
 73
    32
 74
     0
 42
0.00000001
 43
0.00000001
 12
1.0
 22
0.0
 32
0.0
 13
1.0
 23
0.0
 33
0.0
 40
0.0
 40
0.0
 40
0.0
 40
0.0
 40
0.0625
 40
0.0625
 40
0.09375
 40
0.09375
 40
0.1250000000000001
 40
0.1250000000000001
 40
0.1875000000000001
 40
0.1875000000000001
 40
0.2500000000000002
 40
0.2500000000000002
 40
0.3750000000000003
 40
0.3750000000000003
 40
0.5000000000000004
 40
0.5000000000000004
 40
0.6250000000000006
 40
0.6250000000000006
 40
0.7500000000000006
 40
0.7500000000000006
 40
0.7812500000000004
 40
0.7812500000000004
 40
0.8125000000000003
 40
0.8125000000000003
 40
0.8750000000000002
 40
0.8750000000000002
 40
0.9062500000000002
 40
0.9062500000000002
 40
0.9375000000000002
 40
0.9375000000000002
 40
1.0
 40
1.0
 40
1.0
 40
1.0
 10
-29.53577449238744
 20
-4.811507198223021
 30
0.0
 10
-28.95784299072412
 20
-4.67293056747127
 30
0.0
 10
-28.41675103621648
 20
-4.477692178924946
 30
0.0
 10
-27.66065456002145
 20
-4.0994080166319
 30
0.0
 10
-27.41784341978889
 20
-3.959130735082851
 30
0.0
 10
-26.95022334298493
 20
-3.650887544344842
 30
0.0
 10
-26.72424702297766
 20
-3.481846094099548
 30
0.0
 10
-26.08384675739301
 20
-2.945404711563786
 30
0.0
 10
-25.70461848618852
 20
-2.548580952705444
 30
0.0
 10
-25.01471027195005
 20
-1.69861190711405
 30
0.0
 10
-24.70307651504184
 20
-1.243508057852972
 30
0.0
 10
-23.85022926345482
 20
0.1593828233823098
 30
0.0
 10
-23.38416284872918
 20
1.147306094946753
 30
0.0
 10
-22.50399236524959
 20
3.149850382475856
 30
0.0
 10
-22.09202283686299
 20
4.165903451720118
 30
0.0
 10
-21.20938369989527
 20
6.166448530159092
 30
0.0
 10
-20.74069066518271
 20
7.149306181654872
 30
0.0
 10
-19.62930313538641
 20
9.00432246425902
 30
0.0
 10
-18.98827112493725
 20
9.877538761320679
 30
0.0
 10
-17.97731449731149
 20
10.83567008642536
 30
0.0
 10
-17.76356036170774
 20
11.02101782158655
 30
0.0
 10
-17.32159517640672
 20
11.36831928589388
 30
0.0
 10
-17.0924832044951
 20
11.53124501634471
 30
0.0
 10
-16.379680713258
 20
11.9864244314276
 30
0.0
 10
-15.8704881669316
 20
12.24503356901308
 30
0.0
 10
-15.05224119876115
 20
12.56110123172991
 30
0.0
 10
-14.77044660283584
 20
12.6542764957506
 30
0.0
 10
-14.20082209493884
 20
12.81341642087427
 30
0.0
 10
-13.9115466018102
 20
12.87999205074606
 30
0.0
 10
-13.03123855233487
 20
13.04337993461091
 30
0.0
 10
-12.42774300471942
 20
13.10390727347347
 30
0.0
 10
-11.8098152989462
 20
13.1224166390734
 30
0.0
  0
SPLINE
  5
83
330
1F
100
AcDbEntity
  8
0
  6
Continuous
 62
     7
370
    15
100
AcDbSpline
210
0.0
220
0.0
230
1.0
 70
     8
 71
     3
 72
    25
 73
    21
 74
     0
 42
0.00000001
 43
0.00000001
 12
1.0
 22
0.0
 32
0.0
 13
1.0
 23
0.0
 33
0.0
 40
0.0
 40
0.0
 40
0.0
 40
0.0
 40
0.1250000000000001
 40
0.1250000000000001
 40
0.2500000000000002
 40
0.2500000000000002
 40
0.3125000000000002
 40
0.3125000000000002
 40
0.3750000000000002
 40
0.3750000000000002
 40
0.5000000000000002
 40
0.6250000000000004
 40
0.6250000000000004
 40
0.6875000000000003
 40
0.6875000000000003
 40
0.7500000000000002
 40
0.7500000000000002
 40
0.8750000000000001
 40
0.8750000000000001
 40
1.0
 40
1.0
 40
1.0
 40
1.0
 10
-21.88234696341177
 20
21.51224579139654
 30
0.0
 10
-22.81663313862638
 20
20.70436905975143
 30
0.0
 10
-23.71398510326482
 20
19.86667210909816
 30
0.0
 10
-25.41687327672623
 20
18.11714731656348
 30
0.0
 10
-26.22378357759571
 20
17.20642889938954
 30
0.0
 10
-27.358405938041
 20
15.77919725077194
 30
0.0
 10
-27.72397079946534
 20
15.29324589742413
 30
0.0
 10
-28.42806625021368
 20
14.29951605804632
 30
0.0
 10
-28.76735314871042
 20
13.79045603603931
 30
0.0
 10
-29.73419781276363
 20
12.24066881537708
 30
0.0
 10
-30.88943640823078
 20
10.11240168443252
 30
0.0
 10
-31.76215041456706
 20
7.85354892284286
 30
0.0
 10
-32.30477291920862
 20
6.107682067516535
 30
0.0
 10
-32.4669903563375
 20
5.517103125341785
 30
0.0
 10
-32.75306143001377
 20
4.318213116831728
 30
0.0
 10
-32.87705405357551
 20
3.708761334307413
 30
0.0
 10
-33.18783680687091
 20
1.866905920708609
 30
0.0
 10
-33.31410589126499
 20
0.6165309614385717
 30
0.0
 10
-33.40905356447588
 20
-1.900436062356269
 30
0.0
 10
-33.37844167742755
 20
-3.169787384726091
 30
0.0
 10
-33.27446120279342
 20
-4.449349996268916
 30
0.0
  0
SPLINE
  5
84
330
1F
100
AcDbEntity
  8
0
  6
Continuous
 62
     7
370
    15
100
AcDbSpline
210
0.0
220
0.0
230
1.0
 70
     8
 71
     3
 72
    26
 73
    22
 74
     0
 42
0.00000001
 43
0.00000001
 12
1.0
 22
0.0
 32
0.0
 13
1.0
 23
0.0
 33
0.0
 40
0.0
 40
0.0
 40
0.0
 40
0.0
 40
0.2499999999999991
 40
0.2499999999999991
 40
0.3749999999999984
 40
0.3749999999999984
 40
0.4999999999999977
 40
0.4999999999999977
 40
0.6249999999999978
 40
0.6249999999999978
 40
0.7499999999999978
 40
0.7499999999999978
 40
0.8124999999999982
 40
0.8124999999999982
 40
0.8749999999999987
 40
0.8749999999999987
 40
0.9374999999999991
 40
0.9374999999999991
 40
0.9687499999999996
 40
0.9687499999999996
 40
1.0
 40
1.0
 40
1.0
 40
1.0
 10
-10.75539048816882
 20
25.1070770879457
 30
0.0
 10
-11.5379253285102
 20
24.53964590614086
 30
0.0
 10
-12.44888267491368
 20
24.19069862753633
 30
0.0
 10
-13.92482985808951
 20
23.85358793822249
 30
0.0
 10
-14.43092003542814
 20
23.7726837995175
 30
0.0
 10
-15.44835016250993
 20
23.64207521905272
 30
0.0
 10
-15.9616387639581
 20
23.59206472615246
 30
0.0
 10
-16.98703483758162
 20
23.48809407335781
 30
0.0
 10
-17.49921235902667
 20
23.43436815648392
 30
0.0
 10
-18.51059582238141
 20
23.28353968248074
 30
0.0
 10
-19.01164990877061
 20
23.18588866479255
 30
0.0
 10
-19.72551916789415
 20
22.97216200140101
 30
0.0
 10
-19.9575430229204
 20
22.88961056717908
 30
0.0
 10
-20.40622736944574
 20
22.69522060937959
 30
0.0
 10
-20.62448775077369
 20
22.58228119549101
 30
0.0
 10
-21.03359078735545
 20
22.32574329211451
 30
0.0
 10
-21.22355408028425
 20
22.18304110725235
 30
0.0
 10
-21.48660401698042
 20
21.94732545009955
 30
0.0
 10
-21.57065246865906
 20
21.86515732230179
 30
0.0
 10
-21.73162173247219
 20
21.69376915456703
 30
0.0
 10
-21.80762966601642
 20
21.60364593489257
 30
0.0
 10
-21.88234696341178
 20
21.51224579139654
 30
0.0
  0
SPLINE
  5
88
330
1F
100
AcDbEntity
  8
0
  6
Continuous
 62
     7
370
    15
100
AcDbSpline
210
0.0
220
0.0
230
1.0
 70
     8
 71
     3
 72
    11
 73
     7
 74
     0
 42
0.00000001
 43
0.00000001
 12
1.0
 22
0.0
 32
0.0
 13
1.0
 23
0.0
 33
0.0
 40
0.0
 40
0.0
 40
0.0
 40
0.0
 40
0.2040860047314379
 40
0.4352494467800444
 40
0.6664168568761414
 40
0.9999999999999999
 40
0.9999999999999999
 40
0.9999999999999999
 40
0.9999999999999999
 10
-31.81890296879598
 20
10.41901163147174
 30
0.0
 10
-31.63710931808807
 20
10.79068299218113
 30
0.0
 10
-31.24940225310405
 20
11.58333780624165
 30
0.0
 10
-30.58259132362558
 20
12.75715546459934
 30
0.0
 10
-29.73566184373245
 20
14.12904350430637
 30
0.0
 10
-29.06004324399668
 20
15.05360331804847
 30
0.0
 10
-28.66097329219618
 20
15.59971622916585
 30
0.0
  0
SPLINE
  5
8A
330
1F
100
AcDbEntity
  8
0
  6
Continuous
 62
     7
370
    15
100
AcDbSpline
210
0.0
220
0.0
230
1.0
 70
     8
 71
     3
 72
    10
 73
     6
 74
     0
 42
0.00000001
 43
0.00000001
 12
1.0
 22
0.0
 32
0.0
 13
1.0
 23
0.0
 33
0.0
 40
0.0
 40
0.0
 40
0.0
 40
0.0
 40
0.2323581311807738
 40
0.8520431097059157
 40
1.0
 40
1.0
 40
1.0
 40
1.0
 10
-32.31217021463326
 20
9.85762031508856
 30
0.0
 10
-32.43205348315904
 20
9.664869175135214
 30
0.0
 10
-32.87165812448288
 20
8.9580624890484
 30
0.0
 10
-33.33697444265221
 20
8.09683835255197
 30
0.0
 10
-33.64645124112596
 20
7.41215755043523
 30
0.0
 10
-33.70610044289602
 20
7.280190748675085
 30
0.0
  0
SPLINE
  5
8B
330
1F
100
AcDbEntity
  8
0
  6
Continuous
 62
     7
370
    15
100
AcDbSpline
210
0.0
220
0.0
230
1.0
 70
     8
 71
     3
 72
    13
 73
     9
 74
     0
 42
0.00000001
 43
0.00000001
 12
1.0
 22
0.0
 32
0.0
 13
1.0
 23
0.0
 33
0.0
 40
0.0
 40
0.0
 40
0.0
 40
0.0
 40
0.1263789276695708
 40
0.364130373442474
 40
0.6021808539945356
 40
0.8408627670991725
 40
0.9883686419111463
 40
1.0
 40
1.0
 40
1.0
 40
1.0
 10
-22.84590134782759
 20
21.76971036565033
 30
0.0
 10
-22.82459458776855
 20
21.79156784164207
 30
0.0
 10
-22.76320430190198
 20
21.85454488253129
 30
0.0
 10
-22.58013730278052
 20
21.86615440103316
 30
0.0
 10
-22.32958654285207
 20
21.80499970296627
 30
0.0
 10
-22.08975697229602
 20
21.67533852421869
 30
0.0
 10
-21.94290886827097
 20
21.56416355036072
 30
0.0
 10
-21.88647194446294
 20
21.51578200401154
 30
0.0
 10
-21.8823469634118
 20
21.51224579139666
 30
0.0
  0
SPLINE
  5
8E
330
1F
100
AcDbEntity
  8
0
  6
Continuous
 62
     7
370
    15
100
AcDbSpline
210
0.0
220
0.0
230
1.0
 70
     8
 71
     3
 72
    17
 73
    13
 74
     0
 42
0.00000001
 43
0.00000001
 12
1.0
 22
0.0
 32
0.0
 13
1.0
 23
0.0
 33
0.0
 40
0.0
 40
0.0
 40
0.0
 40
0.0
 40
0.0098366674164586
 40
0.098598594653922
 40
0.2375769586516174
 40
0.3766467311235718
 40
0.5206993954069488
 40
0.6647447633384919
 40
0.7611109510715146
 40
0.8574931844817227
 40
0.953765109311751
 40
1.0
 40
1.0
 40
1.0
 40
1.0
 10
-18.86079753675976
 20
8.21547319276121
 30
0.0
 10
-18.88644949219496
 20
8.1837887043445
 30
0.0
 10
-19.14357384630335
 20
7.866196790543583
 30
0.0
 10
-19.66136993165998
 20
7.028687484867129
 30
0.0
 10
-20.3903514341015
 20
5.699024550836191
 30
0.0
 10
-21.10910977330269
 20
4.104252327914419
 30
0.0
 10
-21.79576446629748
 20
2.472310292538601
 30
0.0
 10
-22.42151475625387
 20
1.006837132008036
 30
0.0
 10
-23.01113090996965
 20
-0.2571017917149532
 30
0.0
 10
-23.57054322035486
 20
-1.313225611097778
 30
0.0
 10
-24.07614987832275
 20
-2.163346984570828
 30
0.0
 10
-24.43300058003983
 20
-2.633338530950727
 30
0.0
 10
-24.54877717027454
 20
-2.785822520521659
 30
0.0
  0
SPLINE
  5
91
330
1F
100
AcDbEntity
  8
0
  6
Continuous
 62
     7
370
    15
100
AcDbSpline
210
0.0
220
0.0
230
1.0
 70
     8
 71
     3
 72
     9
 73
     5
 74
     0
 42
0.00000001
 43
0.00000001
 12
1.0
 22
0.0
 32
0.0
 13
1.0
 23
0.0
 33
0.0
 40
0.0
 40
0.0
 40
0.0
 40
0.0
 40
0.6239942112896064
 40
1.0
 40
1.0
 40
1.0
 40
1.0
 10
-26.3794812292383
 20
-5.843035256292647
 30
0.0
 10
-26.22973709854531
 20
-5.637159376863255
 30
0.0
 10
-25.98976030391526
 20
-5.307227022196204
 30
0.0
 10
-25.78309556211318
 20
-4.956057502377265
 30
0.0
 10
-25.70538842287326
 20
-4.824015730106694
 30
0.0
  0
LWPOLYLINE
  5
AB
330
1F
100
AcDbEntity
  8
0
  6
Continuous
 62
     7
370
    15
100
AcDbPolyline
 90
        9
 70
   128
 43
0.0
 10
-10.4350655416
 20
-11.3964315618
 10
-10.2773882156
 20
-11.5123136613
 10
-10.1361268624
 20
-11.6408732396
 10
-10.0167100767
 20
-11.7771698242
 10
-9.9237269785
 20
-11.9159656137
 10
-9.8607508562
 20
-12.0519267638
 10
-9.8302018468
 20
-12.1798283638
 10
-9.8332539317
 20
-12.2947552269
 10
-9.8697898208
 20
-12.3922907782
  0
LWPOLYLINE
  5
AD
330
1F
100
AcDbEntity
  8
0
  6
Continuous
 62
     7
370
    15
100
AcDbPolyline
 90
        9
 70
   128
 43
0.0
 10
-5.447086463
 20
-4.0601590065
 10
-5.289409137
 20
-4.176041106
 10
-5.1481477838
 20
-4.3046006843
 10
-5.0287309981
 20
-4.4408972689
 10
-4.9357478999
 20
-4.5796930584
 10
-4.8727717776
 20
-4.7156542085
 10
-4.8422227682
 20
-4.8435558085
 10
-4.8452748531
 20
-4.9584826716
 10
-4.8818107423
 20
-5.0560182229
  0
SPLINE
  5
DC
330
1F
100
AcDbEntity
  8
0
  6
Continuous
 62
     7
370
    15
100
AcDbSpline
210
0.0
220
0.0
230
1.0
 70
     8
 71
     3
 72
    16
 73
    12
 74
     0
 42
0.00000001
 43
0.00000001
 12
1.0
 22
0.0
 32
0.0
 13
1.0
 23
0.0
 33
0.0
 40
0.0
 40
0.0
 40
0.0
 40
0.0
 40
0.2500000000000014
 40
0.2500000000000014
 40
0.5000000000000029
 40
0.5000000000000029
 40
0.7500000000000043
 40
0.7500000000000043
 40
0.8750000000000021
 40
0.8750000000000021
 40
1.0
 40
1.0
 40
1.0
 40
1.0
 10
-1.698443215241301
 20
36.79319532303885
 30
0.0
 10
-1.645393119855811
 20
36.6815894453162
 30
0.0
 10
-1.637911863396424
 20
36.55047502940003
 30
0.0
 10
-1.675669294652224
 20
36.26468216749495
 30
0.0
 10
-1.721341926249643
 20
36.10698115672917
 30
0.0
 10
-1.844622073874999
 20
35.7703715421186
 30
0.0
 10
-1.921587575839635
 20
35.59309454276342
 30
0.0
 10
-2.051620476837678
 20
35.31252613075905
 30
0.0
 10
-2.097459528106032
 20
35.21655107953594
 30
0.0
 10
-2.193234557327632
 20
35.01933227651406
 30
0.0
 10
-2.243859485943387
 20
34.91670834713794
 30
0.0
 10
-2.294719402791119
 20
34.81410299305591
 30
0.0
  0
SPLINE
  5
E0
330
1F
100
AcDbEntity
  8
0
  6
Continuous
 62
     7
370
    15
100
AcDbSpline
210
0.0
220
0.0
230
1.0
 70
     8
 71
     3
 72
    12
 73
     8
 74
     0
 42
0.00000001
 43
0.00000001
 12
1.0
 22
0.0
 32
0.0
 13
1.0
 23
0.0
 33
0.0
 40
0.0
 40
0.0
 40
0.0
 40
0.0
 40
0.2500000000000014
 40
0.2500000000000014
 40
0.5000000000000029
 40
0.5000000000000029
 40
1.0
 40
1.0
 40
1.0
 40
1.0
 10
-11.82336820171213
 20
37.77397140488857
 30
0.0
 10
-11.76980100452455
 20
37.66127765729357
 30
0.0
 10
-11.68218243078599
 20
37.52578401642152
 30
0.0
 10
-11.47586832950557
 20
37.21438889196514
 30
0.0
 10
-11.3592185088394
 20
37.0427987263603
 30
0.0
 10
-10.99629618280154
 20
36.49001573897474
 30
0.0
 10
-10.73279483455333
 20
36.06409557770397
 30
0.0
 10
-10.49485279082579
 20
35.6084293417161
 30
0.0
  0
LWPOLYLINE
  5
E1
330
1F
100
AcDbEntity
  8
0
  6
Continuous
 62
     7
370
    15
100
AcDbPolyline
 90
       19
 70
   128
 43
0.0
 10
-13.0074304256
 20
30.211986935
 10
-13.0024431245
 20
30.21155906
 10
-12.8926503891
 20
30.2289373185
 10
-12.7796105267
 20
30.2968685034
 10
-12.6649719131
 20
30.4143620252
 10
-12.5504062374
 20
30.5797045637
 10
-12.4375841252
 20
30.7904850524
 10
-12.3281507768
 20
31.0436298371
 10
-12.223701977
 20
31.3354474968
 10
-12.1257608244
 20
31.661682673
 10
-12.0357555215
 20
32.017578122
 10
-11.9549985484
 20
32.397944087
 10
-11.8846675236
 20
32.7972339756
 10
-11.8257880318
 20
33.2096252421
 10
-11.7792186686
 20
33.6291042932
 10
-11.7456385201
 20
34.0495541798
 10
-11.7255372606
 20
34.4648437957
 10
-11.7192080116
 20
34.8689172833
 10
-11.7267430679
 20
35.2558823411
  0
LWPOLYLINE
  5
E2
330
1F
100
AcDbEntity
  8
0
  6
Continuous
 62
     7
370
    15
100
AcDbPolyline
 90
       10
 70
   128
 43
0.0
 10
-11.7267430679
 20
35.2558823411
 10
-11.7480325513
 20
35.6200961473
 10
-11.7827660134
 20
35.9562476443
 10
-11.8304369618
 20
36.2594349865
 10
-11.890350247
 20
36.5252370197
 10
-11.9616321983
 20
36.7497777517
 10
-12.0432433644
 20
36.929782873
 10
-12.1339936705
 20
37.0626275036
 10
-12.232559773
 20
37.1463744696
 10
-12.332517055
 20
37.1793746767
  0
LWPOLYLINE
  5
E3
330
1F
100
AcDbEntity
  8
0
  6
Continuous
 62
     7
370
    15
100
AcDbPolyline
 90
       53
 70
   128
 43
0.0
 10
-13.6515346663
 20
35.4423320743
 10
-13.6728241498
 20
35.8065458804
 10
-13.7075576118
 20
36.1426973775
 10
-13.7552285603
 20
36.4458847197
 10
-13.8151418455
 20
36.7116867529
 10
-13.8864237968
 20
36.9362274849
 10
-13.9680349628
 20
37.1162326062
 10
-14.058785269
 20
37.2490772368
 10
-14.1573513715
 20
37.3328242028
 10
-14.2622959546
 20
37.3662522849
 10
-14.37208869
 20
37.3488740264
 10
-14.4851285524
 20
37.2809428414
 10
-14.599767166
 20
37.1634493197
 10
-14.7143328416
 20
36.9981067812
 10
-14.8271549539
 20
36.7873262925
 10
-14.9365883023
 20
36.5341815078
 10
-15.0410371021
 20
36.2423638481
 10
-15.1389782547
 20
35.9161286719
 10
-15.2289835576
 20
35.5602332228
 10
-15.3097405306
 20
35.1798672579
 10
-15.3800715554
 20
34.7805773693
 10
-15.4389510472
 20
34.3681861028
 10
-15.4855204105
 20
33.9487070517
 10
-15.5191005589
 20
33.5282571651
 10
-15.5392018185
 20
33.1129675491
 10
-15.5455310675
 20
32.7088940616
 10
-15.5379960112
 20
32.3219290038
 10
-15.5167065278
 20
31.9577151976
 10
-15.4819730657
 20
31.6215637006
 10
-15.4343021172
 20
31.3183763584
 10
-15.374388832
 20
31.0525743252
 10
-15.3031068808
 20
30.8280335932
 10
-15.2214957147
 20
30.6480284719
 10
-15.1307454086
 20
30.5151838413
 10
-15.0321793061
 20
30.4314368753
 10
-14.9272347229
 20
30.3980087932
 10
-14.8174419875
 20
30.4153870517
 10
-14.7044021252
 20
30.4833182366
 10
-14.5897635116
 20
30.6008117584
 10
-14.4751978359
 20
30.7661542969
 10
-14.3623757236
 20
30.9769347856
 10
-14.2529423753
 20
31.2300795703
 10
-14.1484935754
 20
31.52189723
 10
-14.0505524228
 20
31.8481324061
 10
-13.96054712
 20
32.2040278552
 10
-13.8797901469
 20
32.5843938202
 10
-13.8094591221
 20
32.9836837088
 10
-13.7505796303
 20
33.3960749753
 10
-13.7040102671
 20
33.8155540264
 10
-13.6704301186
 20
34.236003913
 10
-13.650328859
 20
34.6512935289
 10
-13.64399961
 20
35.0553670165
 10
-13.6515346663
 20
35.4423320743
  0
LWPOLYLINE
  5
E4
330
1F
100
AcDbEntity
  8
0
  6
Continuous
 62
     7
370
    15
100
AcDbPolyline
 90
        9
 70
   128
 43
0.0
 10
-12.5341076264
 20
38.061395067
 10
-12.4354089303
 20
38.1290380914
 10
-12.3382753298
 20
38.16710026
 10
-12.243354933
 20
38.1753276089
 10
-12.1512810809
 20
38.1536652427
 10
-12.0626681213
 20
38.1022576999
 10
-11.9781073097
 20
38.0214479889
 10
-11.8981628644
 20
37.9117752995
 10
-11.8233682017
 20
37.7739714049
  0
SPLINE
  5
E7
330
1F
100
AcDbEntity
  8
0
  6
Continuous
 62
     7
370
    15
100
AcDbSpline
210
0.0
220
0.0
230
1.0
 70
     8
 71
     3
 72
    17
 73
    13
 74
     0
 42
0.00000001
 43
0.00000001
 12
1.0
 22
0.0
 32
0.0
 13
1.0
 23
0.0
 33
0.0
 40
0.0
 40
0.0
 40
0.0
 40
0.0
 40
0.1350698305861661
 40
0.2701332809738419
 40
0.4073618399316555
 40
0.5445873754924421
 40
0.6328829782102763
 40
0.7211787814879858
 40
0.810112430781109
 40
0.8990468368485511
 40
0.9898883970453556
 40
1.0
 40
1.0
 40
1.0
 40
1.0
 10
-34.50421774820739
 20
-4.837546115166753
 30
0.0
 10
-34.54979829966447
 20
-4.114701670892815
 30
0.0
 10
-34.64095724952218
 20
-2.669046926839034
 30
0.0
 10
-34.59826708001963
 20
-0.5075630981174785
 30
0.0
 10
-34.41392408108021
 20
1.639907715445888
 30
0.0
 10
-34.11215825988418
 20
3.510474794132733
 30
0.0
 10
-33.75425648833998
 20
5.099789853941564
 30
0.0
 10
-33.38744506921264
 20
6.423066886744435
 30
0.0
 10
-32.95817317455443
 20
7.726523871429098
 30
0.0
 10
-32.45676228237674
 20
9.013317162324903
 30
0.0
 10
-32.07491282932776
 20
9.91087543705461
 30
0.0
 10
-31.8422107211366
 20
10.37274969238007
 30
0.0
 10
-31.81890296879598
 20
10.41901163147174
 30
0.0
  0
SPLINE
  5
E8
330
1F
100
AcDbEntity
  8
0
  6
Continuous
 62
     7
370
    15
100
AcDbSpline
210
0.0
220
0.0
230
1.0
 70
     8
 71
     3
 72
    17
 73
    13
 74
     0
 42
0.00000001
 43
0.00000001
 12
1.0
 22
0.0
 32
0.0
 13
1.0
 23
0.0
 33
0.0
 40
0.0
 40
0.0
 40
0.0
 40
0.0
 40
0.0900396088711217
 40
0.2115870797362947
 40
0.333233535755016
 40
0.4547748861652258
 40
0.5341295359831042
 40
0.6135996608036817
 40
0.7098156432489375
 40
0.8060328152504069
 40
0.9030155159869753
 40
1.0
 40
1.0
 40
1.0
 40
1.0
 10
-33.70610044289602
 20
7.280190748675086
 30
0.0
 10
-33.90287636557692
 20
6.863129387836743
 30
0.0
 10
-34.36528666882537
 20
5.883062986871596
 30
0.0
 10
-34.96569107434672
 20
4.278302273669061
 30
0.0
 10
-35.52026470866492
 20
2.481248633783061
 30
0.0
 10
-35.90237349333621
 20
0.8534571268762354
 30
0.0
 10
-36.15748599453541
 20
-0.5838312020877787
 30
0.0
 10
-36.33394080597485
 20
-1.905707320076343
 30
0.0
 10
-36.45700295595029
 20
-3.329589108440807
 30
0.0
 10
-36.51156672983462
 20
-4.858812090570479
 30
0.0
 10
-36.49686286091254
 20
-6.402189117628558
 30
0.0
 10
-36.42607389930198
 20
-7.439359317843088
 30
0.0
 10
-36.39067909309041
 20
-7.957949185667126
 30
0.0
  0
SPLINE
  5
E9
330
1F
100
AcDbEntity
  8
0
  6
Continuous
 62
     7
370
    15
100
AcDbSpline
210
0.0
220
0.0
230
1.0
 70
     8
 71
     3
 72
    15
 73
    11
 74
     0
 42
0.00000001
 43
0.00000001
 12
1.0
 22
0.0
 32
0.0
 13
1.0
 23
0.0
 33
0.0
 40
0.0
 40
0.0
 40
0.0
 40
0.0
 40
0.1193847214741211
 40
0.2390228056798316
 40
0.3582716450169258
 40
0.4827183381322721
 40
0.6076374772104092
 40
0.7321838688949327
 40
0.8737373659947129
 40
0.9999999999999999
 40
0.9999999999999999
 40
0.9999999999999999
 40
0.9999999999999999
 10
-11.9148942551317
 20
11.78194950375499
 30
0.0
 10
-12.2567583854995
 20
11.76316526092822
 30
0.0
 10
-12.94121216310891
 20
11.72555691065035
 30
0.0
 10
-13.93631571945423
 20
11.55158837472312
 30
0.0
 10
-14.90663607022446
 20
11.27922082910286
 30
0.0
 10
-15.82920155322642
 20
10.88435049626282
 30
0.0
 10
-16.69228908098808
 20
10.37790954811886
 30
0.0
 10
-17.50863402627938
 20
9.747184333557374
 30
0.0
 10
-18.23860197846175
 20
9.025863713361552
 30
0.0
 10
-18.66144639934159
 20
8.475121899474097
 30
0.0
 10
-18.86079753675976
 20
8.21547319276121
 30
0.0
  0
SPLINE
  5
EA
330
1F
100
AcDbEntity
  8
0
  6
Continuous
 62
     7
370
    15
100
AcDbSpline
210
0.0
220
0.0
230
1.0
 70
     8
 71
     3
 72
    14
 73
    10
 74
     0
 42
0.00000001
 43
0.00000001
 12
1.0
 22
0.0
 32
0.0
 13
1.0
 23
0.0
 33
0.0
 40
0.0
 40
0.0
 40
0.0
 40
0.0
 40
0.0819316010264405
 40
0.2614257911284011
 40
0.4403595477511488
 40
0.6010790036453333
 40
0.762288204972559
 40
0.9229531888640232
 40
1.0
 40
1.0
 40
1.0
 40
1.0
 10
-24.54877717027455
 20
-2.785822520521659
 30
0.0
 10
-24.64294097238274
 20
-2.916501392265512
 30
0.0
 10
-24.94339703760535
 20
-3.333469045788824
 30
0.0
 10
-25.53535550504485
 20
-3.973246685742671
 30
0.0
 10
-26.3067760867459
 20
-4.6605421497329
 30
0.0
 10
-27.14485810889026
 20
-5.22501915292873
 30
0.0
 10
-28.0247932027588
 20
-5.672781659221578
 30
0.0
 10
-28.80352006554171
 20
-5.961476863771454
 30
0.0
 10
-29.28923881354263
 20
-6.086025988305824
 30
0.0
 10
-29.44666928786179
 20
-6.126394674571659
 30
0.0
  0
SPLINE
  5
EB
330
1F
100
AcDbEntity
  8
0
  6
Continuous
 62
     7
370
    15
100
AcDbSpline
210
0.0
220
0.0
230
1.0
 70
     8
 71
     3
 72
    15
 73
    11
 74
     0
 42
0.00000001
 43
0.00000001
 12
1.0
 22
0.0
 32
0.0
 13
1.0
 23
0.0
 33
0.0
 40
0.0
 40
0.0
 40
0.0
 40
0.0
 40
0.1562008037235752
 40
0.3143980753016654
 40
0.4392549257735272
 40
0.5641278570615056
 40
0.6925523546985285
 40
0.8210044474636099
 40
0.9742815746224204
 40
1.0
 40
1.0
 40
1.0
 40
1.0
 10
-31.33313063274479
 20
-9.246797745072016
 30
0.0
 10
-31.01126999574556
 20
-9.15878328463829
 30
0.0
 10
-30.36343488622201
 20
-8.981629414111163
 30
0.0
 10
-29.52207468973891
 20
-8.6096105252025
 30
0.0
 10
-28.79265850913585
 20
-8.191829552867299
 30
0.0
 10
-28.16472976529644
 20
-7.744707475813926
 30
0.0
 10
-27.58049987736123
 20
-7.240832676427815
 30
0.0
 10
-27.01022257088202
 20
-6.647920512625531
 30
0.0
 10
-26.61114957053486
 20
-6.178872075640881
 30
0.0
 10
-26.40858595871841
 20
-5.885226777680021
 30
0.0
 10
-26.3794812292383
 20
-5.843035256292647
 30
0.0
  0
SPLINE
  5
EC
330
1F
100
AcDbEntity
  8
0
  6
Continuous
 62
     7
370
    15
100
AcDbSpline
210
0.0
220
0.0
230
1.0
 70
     8
 71
     3
 72
    17
 73
    13
 74
     0
 42
0.00000001
 43
0.00000001
 12
1.0
 22
0.0
 32
0.0
 13
1.0
 23
0.0
 33
0.0
 40
0.0
 40
0.0
 40
0.0
 40
0.0
 40
0.0605208063262147
 40
0.2050873382793512
 40
0.3029242770002773
 40
0.4007445018246164
 40
0.5015395296082187
 40
0.6023303110080751
 40
0.7003383243899458
 40
0.7983579088701346
 40
0.8991696395353018
 40
1.0
 40
1.0
 40
1.0
 40
1.0
 10
-20.50221412415096
 20
5.4030336265129
 30
0.0
 10
-20.41186601185666
 20
5.521456797875173
 30
0.0
 10
-20.10570264435082
 20
5.922758341585238
 30
0.0
 10
-19.57318936144085
 20
6.454519091918456
 30
0.0
 10
-18.92410452451007
 20
7.00042277861292
 30
0.0
 10
-18.30926950403513
 20
7.424023420002994
 30
0.0
 10
-17.64192316872286
 20
7.793180924599833
 30
0.0
 10
-16.93135720202091
 20
8.098621657561385
 30
0.0
 10
-16.19102088322488
 20
8.335173294981075
 30
0.0
 10
-15.42222656278715
 20
8.507148553578746
 30
0.0
 10
-14.62460041965211
 20
8.620959649544089
 30
0.0
 10
-14.07578744158288
 20
8.648016672081129
 30
0.0
 10
-13.80135560001471
 20
8.661546433254626
 30
0.0
  0
LWPOLYLINE
  5
EE
330
1F
100
AcDbEntity
  8
0
  6
Continuous
 62
     7
370
    15
100
AcDbPolyline
 90
        7
 70
   128
 43
0.0
 10
-14.6272016603
 20
-7.937301771
 10
-14.6390446247
 20
-7.77218235
 10
-14.6607889923
 20
-7.6305391386
 10
-14.6915991392
 20
-7.517815406
 10
-14.7302910488
 20
-7.4383430621
 10
-14.7753778126
 20
-7.3951761844
 10
-14.8002799423
 20
-7.3877325323
  0
LWPOLYLINE
  5
EF
330
1F
100
AcDbEntity
  8
0
  6
Continuous
 62
     7
370
    15
100
AcDbPolyline
 90
        7
 70
   128
 43
0.0
 10
-13.6441823549
 20
-8.0325243849
 10
-13.6560253193
 20
-7.8674049639
 10
-13.6777696869
 20
-7.7257617525
 10
-13.7085798338
 20
-7.6130380199
 10
-13.7472717434
 20
-7.533565676
 10
-13.7923585072
 20
-7.4903987983
 10
-13.8172606369
 20
-7.4829551462
  0
LWPOLYLINE
  5
F0
330
1F
100
AcDbEntity
  8
0
  6
Continuous
 62
     7
370
    15
100
AcDbPolyline
 90
        3
 70
   128
 43
0.0
 10
-36.3906790931
 20
-7.9579491857
 10
-36.4248036912
 20
-8.0460212646
 10
-36.427067481
 20
-8.0972894657
  0
LWPOLYLINE
  5
F1
330
1F
100
AcDbEntity
  8
0
  6
Continuous
 62
     7
370
    15
100
AcDbPolyline
 90
        3
 70
   128
 43
0.0
 10
-13.1257453065
 20
-7.2142900905
 10
-13.1164417156
 20
-7.1984054234
 10
-13.0617913958
 20
-7.078243981
  0
LWPOLYLINE
  5
F6
330
1F
100
AcDbEntity
  8
0
  6
Continuous
 62
     7
370
    15
100
AcDbPolyline
 90
        3
 70
   128
 43
0.0
 10
-31.4542184917
 20
-9.3490106055
 10
-31.3925967896
 20
-9.3170637095
 10
-31.3331306327
 20
-9.2467977451
  0
LWPOLYLINE
  5
F9
330
1F
100
AcDbEntity
  8
0
  6
Continuous
 62
     7
370
    15
100
AcDbPolyline
 90
        7
 70
   128
 43
0.0
 10
-1.2613696426
 20
10.0380149809
 10
-1.0888195247
 20
10.0624816351
 10
-0.9332569328
 20
10.0688772865
 10
-0.8006600499
 20
10.056956154
 10
-0.6961245
 20
10.02717636
 10
-0.6236675255
 20
9.9806823252
 10
-0.5885233601
 20
9.9268979978
  0
LWPOLYLINE
  5
FA
330
1F
100
AcDbEntity
  8
0
  6
Continuous
 62
     7
370
    15
100
AcDbPolyline
 90
        7
 70
   128
 43
0.0
 10
6.0103975442
 20
-10.4382516038
 10
6.182947662
 20
-10.4137849497
 10
6.338510254
 20
-10.4073892982
 10
6.4711071368
 20
-10.4193104307
 10
6.5756426868
 20
-10.4490902248
 10
6.6480996612
 20
-10.4955842595
 10
6.6832438266
 20
-10.549368587
  0
LWPOLYLINE
  5
FB
330
1F
100
AcDbEntity
  8
0
  6
Continuous
 62
     7
370
    15
100
AcDbPolyline
 90
        3
 70
   128
 43
0.0
 10
-17.6648321901
 20
-14.6062596138
 10
-17.6620469971
 20
-14.5634476282
 10
-17.627963398
 20
-14.4746905614
  0
LWPOLYLINE
  5
FF
330
1F
100
AcDbEntity
  8
0
  6
Continuous
 62
     7
370
    15
100
AcDbPolyline
 90
        3
 70
   128
 43
0.0
 10
-17.7824220743
 20
-11.5418208945
 10
-17.7796368813
 20
-11.4990089089
 10
-17.7455532822
 20
-11.4102518421
  0
LWPOLYLINE
  5
108
330
1F
100
AcDbEntity
  8
0
  6
Continuous
 62
     7
370
    15
100
AcDbPolyline
 90
        8
 70
   128
 43
0.0
 10
-11.6116163736
 20
25.4710865632
 10
-11.5271274235
 20
25.510446647
 10
-11.4199836386
 20
25.5196433933
 10
-11.2976564334
 20
25.495854685
 10
-11.1648467735
 20
25.4399947088
 10
-11.0266584599
 20
25.3542101323
 10
-10.888401992
 20
25.2417976086
 10
-10.7553904882
 20
25.1070770879
  0
LWPOLYLINE
  5
109
330
1F
100
AcDbEntity
  8
0
  6
Continuous
 62
     7
370
    15
100
AcDbPolyline
 90
        3
 70
   128
 43
0.0
 10
-12.3236470897
 20
-2.5618968163
 10
-12.3207356318
 20
-2.5237555625
 10
-12.2866520328
 20
-2.4349984957
  0
LWPOLYLINE
  5
10A
330
1F
100
AcDbEntity
  8
0
  6
Continuous
 62
     7
370
    15
100
AcDbPolyline
 90
        3
 70
   128
 43
0.0
 10
-12.7114130712
 20
7.5420572462
 10
-12.7086278782
 20
7.5848692318
 10
-12.6745442791
 20
7.6736262986
  0
LWPOLYLINE
  5
10B
330
1F
100
AcDbEntity
  8
0
  6
Continuous
 62
     7
370
    15
100
AcDbPolyline
 90
        8
 70
   128
 43
0.0
 10
-1.3641500121
 20
10.5630979709
 10
-1.1815741666
 20
10.5363453202
 10
-1.01637113
 20
10.493489996
 10
-0.8748895625
 20
10.4361789044
 10
-0.7625665214
 20
10.3666144785
 10
-0.6837185181
 20
10.2874700401
 10
-0.6413756371
 20
10.2017870657
 10
-0.6343904892
 20
10.1559416216
  0
LINE
  5
10F
330
1F
100
AcDbEntity
  8
0
  6
Continuous
 62
     7
370
    15
100
AcDbLine
 10
-30.4365069342
 20
12.9846278329
 30
0.0
 11
-32.3229682791
 21
9.8642247624
 31
0.0
  0
LINE
  5
110
330
1F
100
AcDbEntity
  8
0
  6
Continuous
 62
     7
370
    15
100
AcDbLine
 10
-25.6996334645
 20
-4.8274967005
 30
0.0
 11
-23.8131721196
 21
-1.70709363
 31
0.0
  0
LINE
  5
111
330
1F
100
AcDbEntity
  8
0
  6
Continuous
 62
     7
370
    15
100
AcDbLine
 10
-13.8172606369
 20
-7.4829551462
 30
0.0
 11
-14.8002799423
 21
-7.3877325323
 31
0.0
  0
LINE
  5
112
330
1F
100
AcDbEntity
  8
0
  6
Continuous
 62
     7
370
    15
100
AcDbLine
 10
-15.7524638201
 20
-7.8657133435
 30
0.0
 11
-17.6389251649
 21
-10.986116414
 31
0.0
  0
LINE
  5
113
330
1F
100
AcDbEntity
  8
0
  6
Continuous
 62
     7
370
    15
100
AcDbLine
 10
-35.5268332213
 20
-9.0108660399
 30
0.0
 11
-31.7881465109
 21
-9.3730232419
 31
0.0
  0
LINE
  5
114
330
1F
100
AcDbEntity
  8
0
  6
Continuous
 62
     7
370
    15
100
AcDbLine
 10
6.6832438266
 20
-10.549368587
 30
0.0
 11
-0.5885233601
 21
9.9268979978
 31
0.0
  0
LINE
  5
115
330
1F
100
AcDbEntity
  8
0
  6
Continuous
 62
     7
370
    15
100
AcDbLine
 10
-16.7619837946
 20
-15.563256534
 30
0.0
 11
-12.6874375601
 21
-15.9579476054
 31
0.0
  0
LINE
  5
116
330
1F
100
AcDbEntity
  8
0
  6
Continuous
 62
     7
370
    15
100
AcDbLine
 10
-17.7824220743
 20
-11.5418208945
 30
0.0
 11
-17.6648321901
 21
-14.6062596138
 31
0.0
  0
LINE
  5
117
330
1F
100
AcDbEntity
  8
0
  6
Continuous
 62
     7
370
    15
100
AcDbLine
 10
4.7102094034
 20
-14.5217868362
 30
0.0
 11
6.5966707483
 21
-11.4013837657
 31
0.0
  0
LINE
  5
118
330
1F
100
AcDbEntity
  8
0
  6
Continuous
 62
     7
370
    15
100
AcDbLine
 10
-11.7640588939
 20
-15.5248636226
 30
0.0
 11
-6.7760798153
 21
-8.1885910673
 31
0.0
  0
LINE
  5
119
330
1F
100
AcDbEntity
  8
0
  6
Continuous
 62
     7
370
    15
100
AcDbLine
 10
-12.3523809763
 20
-2.7721323411
 30
0.0
 11
-13.9967690898
 21
-7.4655666127
 31
0.0
  0
LINE
  5
11A
330
1F
100
AcDbEntity
  8
0
  6
Continuous
 62
     7
370
    15
100
AcDbLine
 10
-2.6017955367
 20
-8.9708889037
 30
0.0
 11
-0.9050945848
 21
-13.9572184258
 31
0.0
  0
LINE
  5
11B
330
1F
100
AcDbEntity
  8
0
  6
Continuous
 62
     7
370
    15
100
AcDbLine
 10
-0.0548161155
 20
-14.6304272434
 30
0.0
 11
3.7580255256
 21
-14.9997676475
 31
0.0
  0
LINE
  5
11C
330
1F
100
AcDbEntity
  8
0
  6
Continuous
 62
     7
370
    15
100
AcDbLine
 10
-6.0982423717
 20
-7.941291896
 30
0.0
 11
-3.6501055173
 21
-8.1784367711
 31
0.0
  0
LINE
  5
11D
330
1F
100
AcDbEntity
  8
0
  6
Continuous
 62
     7
370
    15
100
AcDbLine
 10
-12.7114130712
 20
7.5420572462
 30
0.0
 11
-12.3235208248
 21
-2.5665675481
 31
0.0
  0
LINE
  5
11E
330
1F
100
AcDbEntity
  8
0
  6
Continuous
 62
     7
370
    15
100
AcDbLine
 10
-0.6343798987
 20
10.1556702894
 30
0.0
 11
-1.6478072909
 21
36.5659874836
 31
0.0
  0
LINE
  5
11F
330
1F
100
AcDbEntity
  8
0
  6
Continuous
 62
     7
370
    15
100
AcDbLine
 10
-12.332517055
 20
37.1793746767
 30
0.0
 11
-14.2573086534
 21
37.3658244098
 31
0.0
  0
LINE
  5
120
330
1F
100
AcDbEntity
  8
0
  6
Continuous
 62
     7
370
    15
100
AcDbLine
 10
-14.9322220241
 20
30.3984366682
 30
0.0
 11
-13.0074304256
 21
30.211986935
 31
0.0
  0
LINE
  5
121
330
1F
100
AcDbEntity
  8
0
  6
Continuous
 62
     7
370
    15
100
AcDbLine
 10
-2.1111758727
 20
37.1939397008
 30
0.0
 11
-12.2361008592
 21
38.1747157826
 31
0.0
  0
LINE
  5
122
330
1F
100
AcDbEntity
  8
0
  6
Continuous
 62
     7
370
    15
100
AcDbLine
 10
-13.5834539001
 20
30.2677848839
 30
0.0
 11
-13.3676604945
 21
24.644123699
 31
0.0
  0
LINE
  5
123
330
1F
100
AcDbEntity
  8
0
  6
Continuous
 62
     7
370
    15
100
AcDbLine
 10
-3.1364593924
 20
0.239305729
 30
0.0
 11
-3.3475354428
 21
-0.5386936334
 31
0.0
  0
LINE
  5
124
330
1F
100
AcDbEntity
  8
0
  6
Continuous
 62
     7
370
    15
100
AcDbLine
 10
-1.3641500121
 20
10.5630979709
 30
0.0
 11
-2.2947194028
 21
34.8141029931
 31
0.0
  0
LINE
  5
125
330
1F
100
AcDbEntity
  8
0
  6
Continuous
 62
     7
370
    15
100
AcDbLine
 10
6.0103975442
 20
-10.4382516038
 30
0.0
 11
-1.2613696426
 21
10.0380149809
 31
0.0
  0
LINE
  5
126
330
1F
100
AcDbEntity
  8
0
  6
Continuous
 62
     7
370
    15
100
AcDbLine
 10
2.197555903
 20
-10.0689111998
 30
0.0
 11
6.0103975442
 21
-10.4382516038
 31
0.0
  0
LINE
  5
127
330
1F
100
AcDbEntity
  8
0
  6
Continuous
 62
     7
370
    15
100
AcDbLine
 10
0.500854951
 20
-5.0825816777
 30
0.0
 11
2.197555903
 21
-10.0689111998
 31
0.0
  0
LINE
  5
128
330
1F
100
AcDbEntity
  8
0
  6
Continuous
 62
     7
370
    15
100
AcDbLine
 10
-3.8458703532
 20
-3.3797758523
 30
0.0
 11
-1.3977334988
 21
-3.6169207275
 31
0.0
  0
LINE
  5
129
330
1F
100
AcDbEntity
  8
0
  6
Continuous
 62
     7
370
    15
100
AcDbLine
 10
-10.4350655416
 20
-11.3964315618
 30
0.0
 11
-5.447086463
 21
-4.0601590065
 31
0.0
  0
LINE
  5
12A
330
1F
100
AcDbEntity
  8
0
  6
Continuous
 62
     7
370
    15
100
AcDbLine
 10
-14.5096117761
 20
-11.0017404903
 30
0.0
 11
-10.4350655416
 21
-11.3964315618
 31
0.0
  0
LINE
  5
12B
330
1F
100
AcDbEntity
  8
0
  6
Continuous
 62
     7
370
    15
100
AcDbLine
 10
-14.6272016603
 20
-7.937301771
 30
0.0
 11
-14.5096117761
 21
-11.0017404903
 31
0.0
  0
LINE
  5
12C
330
1F
100
AcDbEntity
  8
0
  6
Continuous
 62
     7
370
    15
100
AcDbLine
 10
-13.6441823549
 20
-8.0325243849
 30
0.0
 11
-14.6272016603
 21
-7.937301771
 31
0.0
  0
LINE
  5
12D
330
1F
100
AcDbEntity
  8
0
  6
Continuous
 62
     7
370
    15
100
AcDbLine
 10
-9.2526725607
 20
0.4633901455
 30
0.0
 11
-11.8720871937
 21
-7.0129776953
 31
0.0
  0
LINE
  5
12E
330
1F
100
AcDbEntity
  8
0
  6
Continuous
 62
     7
370
    15
100
AcDbLine
 10
-9.5561926572
 20
11.1465763697
 30
0.0
 11
-9.1683004108
 21
1.0379515754
 31
0.0
  0
LINE
  5
12F
330
1F
100
AcDbEntity
  8
0
  6
Continuous
 62
     7
370
    15
100
AcDbLine
 10
-33.2744612028
 20
-4.4493499963
 30
0.0
 11
-29.5357744924
 21
-4.8115071982
 31
0.0
  0
LINE
  5
130
330
1F
100
AcDbEntity
  8
0
  6
Continuous
 62
     7
370
    15
100
AcDbLine
 10
-10.4948527908
 20
35.6084293417
 30
0.0
 11
-10.1411020625
 21
26.389545962
 31
0.0
  0
LINE
  5
131
330
1F
100
AcDbEntity
  8
0
  6
Continuous
 62
     7
370
    15
100
AcDbLine
 10
-10.4948527908
 20
35.6084293417
 30
0.0
 11
-2.2947194028
 21
34.8141029931
 31
0.0
  0
LINE
  5
132
330
1F
100
AcDbEntity
  8
0
  6
Continuous
 62
     7
370
    15
100
AcDbLine
 10
-36.3906790931
 20
-7.9579491857
 30
0.0
 11
-34.5042177482
 21
-4.8375461152
 31
0.0
  0
LINE
  5
133
330
1F
100
AcDbEntity
  8
0
  6
Continuous
 62
     7
370
    15
100
AcDbLine
 10
-13.8013556
 20
8.6615464333
 30
0.0
 11
-11.9148942551
 21
11.7819495038
 31
0.0
  0
LINE
  5
134
330
1F
100
AcDbEntity
  8
0
  6
Continuous
 62
     7
370
    15
100
AcDbLine
 10
-29.4466692879
 20
-6.1263946746
 30
0.0
 11
-31.3331306327
 21
-9.2467977451
 31
0.0
  0
LINE
  5
135
330
1F
100
AcDbEntity
  8
0
  6
Continuous
 62
     7
370
    15
100
AcDbLine
 10
-29.7711068265
 20
-6.1475579918
 30
0.0
 11
-33.509793537
 21
-5.7854007898
 31
0.0
  0
LINE
  5
136
330
1F
100
AcDbEntity
  8
0
  6
Continuous
 62
     7
370
    15
100
AcDbLine
 10
-33.509793537
 20
-5.7854007898
 30
0.0
 11
-35.3962548818
 21
-8.9058038603
 31
0.0
  0
LINE
  5
137
330
1F
100
AcDbEntity
  8
0
  6
Continuous
 62
     7
370
    15
100
AcDbLine
 10
-31.6575681714
 20
-9.2679610623
 30
0.0
 11
-29.7711068265
 21
-6.1475579918
 31
0.0
  0
LINE
  5
138
330
1F
100
AcDbEntity
  8
0
  6
Continuous
 62
     7
370
    15
100
AcDbLine
 10
-35.3962548818
 20
-8.9058038603
 30
0.0
 11
-31.6575681714
 21
-9.2679610623
 31
0.0
  0
LINE
  5
139
330
1F
100
AcDbEntity
  8
0
  6
Continuous
 62
     7
370
    15
100
AcDbLine
 10
-10.6703978758
 20
-12.7324823553
 30
0.0
 11
-14.7449441103
 21
-12.3377912839
 31
0.0
  0
LINE
  5
13A
330
1F
100
AcDbEntity
  8
0
  6
Continuous
 62
     7
370
    15
100
AcDbLine
 10
-15.7415020532
 20
-11.3542874909
 30
0.0
 11
-15.8590919373
 21
-8.2898487716
 31
0.0
  0
LINE
  5
13B
330
1F
100
AcDbEntity
  8
0
  6
Continuous
 62
     7
370
    15
100
AcDbLine
 10
-14.7449441103
 20
-12.3377912839
 30
0.0
 11
-16.6314054551
 21
-15.4581943544
 31
0.0
  0
LINE
  5
13C
330
1F
100
AcDbEntity
  8
0
  6
Continuous
 62
     7
370
    15
100
AcDbLine
 10
-17.627963398
 20
-14.4746905614
 30
0.0
 11
-15.7415020532
 21
-11.3542874909
 31
0.0
  0
LINE
  5
13D
330
1F
100
AcDbEntity
  8
0
  6
Continuous
 62
     7
370
    15
100
AcDbLine
 10
-12.5568592207
 20
-15.8528854258
 30
0.0
 11
-10.6703978758
 21
-12.7324823553
 31
0.0
  0
LINE
  5
13E
330
1F
100
AcDbEntity
  8
0
  6
Continuous
 62
     7
370
    15
100
AcDbLine
 10
-16.6314054551
 20
-15.4581943544
 30
0.0
 11
-12.5568592207
 21
-15.8528854258
 31
0.0
  0
LINE
  5
13F
330
1F
100
AcDbEntity
  8
0
  6
Continuous
 62
     7
370
    15
100
AcDbLine
 10
-17.7455532822
 20
-11.4102518421
 30
0.0
 11
-17.627963398
 21
-14.4746905614
 31
0.0
  0
LINE
  5
140
330
1F
100
AcDbEntity
  8
0
  6
Continuous
 62
     7
370
    15
100
AcDbLine
 10
-15.8590919373
 20
-8.2898487716
 30
0.0
 11
-17.7455532822
 21
-11.4102518421
 31
0.0
  0
LINE
  5
141
330
1F
100
AcDbEntity
  8
0
  6
Continuous
 62
     7
370
    15
100
AcDbLine
 10
-4.8818107423
 20
-5.0560182229
 30
0.0
 11
-9.8697898208
 21
-12.3922907782
 31
0.0
  0
LINE
  5
142
330
1F
100
AcDbEntity
  8
0
  6
Continuous
 62
     7
370
    15
100
AcDbLine
 10
-9.8697898208
 20
-12.3922907782
 30
0.0
 11
-11.7562511657
 21
-15.5126938487
 31
0.0
  0
LINE
  5
143
330
1F
100
AcDbEntity
  8
0
  6
Continuous
 62
     7
370
    15
100
AcDbLine
 10
-6.7682720871
 20
-8.1764212934
 30
0.0
 11
-4.8818107423
 21
-5.0560182229
 31
0.0
  0
LINE
  5
144
330
1F
100
AcDbEntity
  8
0
  6
Continuous
 62
     7
370
    15
100
AcDbLine
 10
-11.7562511657
 20
-15.5126938487
 30
0.0
 11
-6.7682720871
 21
-8.1764212934
 31
0.0
  0
LINE
  5
145
330
1F
100
AcDbEntity
  8
0
  6
Continuous
 62
     7
370
    15
100
AcDbLine
 10
-13.0617913958
 20
-7.078243981
 30
0.0
 11
-10.4423767628
 21
0.3981238599
 31
0.0
  0
LINE
  5
146
330
1F
100
AcDbEntity
  8
0
  6
Continuous
 62
     7
370
    15
100
AcDbLine
 10
-10.4423767628
 20
0.3981238599
 30
0.0
 11
-12.3288381077
 21
-2.7222792106
 31
0.0
  0
LINE
  5
147
330
1F
100
AcDbEntity
  8
0
  6
Continuous
 62
     7
370
    15
100
AcDbLine
 10
1.0129293439
 20
-10.6721315182
 30
0.0
 11
-0.683771608
 21
-5.6858019961
 31
0.0
  0
LINE
  5
148
330
1F
100
AcDbEntity
  8
0
  6
Continuous
 62
     7
370
    15
100
AcDbLine
 10
5.77506521
 20
-11.7743023973
 30
0.0
 11
1.9622235688
 21
-11.4049619933
 31
0.0
  0
LINE
  5
149
330
1F
100
AcDbEntity
  8
0
  6
Continuous
 62
     7
370
    15
100
AcDbLine
 10
-0.873532001
 20
-13.7925345887
 30
0.0
 11
1.0129293439
 21
-10.6721315182
 31
0.0
  0
LINE
  5
14A
330
1F
100
AcDbEntity
  8
0
  6
Continuous
 62
     7
370
    15
100
AcDbLine
 10
-2.5702329529
 20
-8.8062050666
 30
0.0
 11
-0.873532001
 21
-13.7925345887
 31
0.0
  0
LINE
  5
14B
330
1F
100
AcDbEntity
  8
0
  6
Continuous
 62
     7
370
    15
100
AcDbLine
 10
-0.683771608
 20
-5.6858019961
 30
0.0
 11
-2.5702329529
 21
-8.8062050666
 31
0.0
  0
LINE
  5
14C
330
1F
100
AcDbEntity
  8
0
  6
Continuous
 62
     7
370
    15
100
AcDbLine
 10
1.9622235688
 20
-11.4049619933
 30
0.0
 11
0.0757622239
 21
-14.5253650638
 31
0.0
  0
LINE
  5
14D
330
1F
100
AcDbEntity
  8
0
  6
Continuous
 62
     7
370
    15
100
AcDbLine
 10
3.8886038651
 20
-14.8947054678
 30
0.0
 11
5.77506521
 21
-11.7743023973
 31
0.0
  0
LINE
  5
14E
330
1F
100
AcDbEntity
  8
0
  6
Continuous
 62
     7
370
    15
100
AcDbLine
 10
0.0757622239
 20
-14.5253650638
 30
0.0
 11
3.8886038651
 21
-14.8947054678
 31
0.0
  0
LINE
  5
14F
330
1F
100
AcDbEntity
  8
0
  6
Continuous
 62
     7
370
    15
100
AcDbLine
 10
-1.633065833
 20
-4.952971521
 30
0.0
 11
-4.0812026873
 21
-4.7158266458
 31
0.0
  0
LINE
  5
150
330
1F
100
AcDbEntity
  8
0
  6
Continuous
 62
     7
370
    15
100
AcDbLine
 10
-4.0812026873
 20
-4.7158266458
 30
0.0
 11
-5.9676640322
 21
-7.8362297163
 31
0.0
  0
LINE
  5
151
330
1F
100
AcDbEntity
  8
0
  6
Continuous
 62
     7
370
    15
100
AcDbLine
 10
-11.7640588939
 20
-15.5248636226
 30
0.0
 11
-11.7562511657
 21
-15.5126938487
 31
0.0
  0
LINE
  5
152
330
1F
100
AcDbEntity
  8
0
  6
Continuous
 62
     7
370
    15
100
AcDbLine
 10
-3.9451653459
 20
-1.0983779439
 30
0.0
 11
-3.1364593924
 21
0.239305729
 31
0.0
  0
LINE
  5
153
330
1F
100
AcDbEntity
  8
0
  6
Continuous
 62
     7
370
    15
100
AcDbLine
 10
-6.7760798153
 20
-8.1885910673
 30
0.0
 11
-6.7682720871
 21
-8.1764212934
 31
0.0
  0
LINE
  5
154
330
1F
100
AcDbEntity
  8
0
  6
Continuous
 62
     7
370
    15
100
AcDbLine
 10
-10.4001906879
 20
0.6854045748
 30
0.0
 11
-10.7880829343
 21
10.7940293691
 31
0.0
  0
LINE
  5
155
330
1F
100
AcDbEntity
  8
0
  6
Continuous
 62
     7
370
    15
100
AcDbLine
 10
-3.5195271779
 20
-8.0733745915
 30
0.0
 11
-1.633065833
 21
-4.952971521
 31
0.0
  0
LINE
  5
156
330
1F
100
AcDbEntity
  8
0
  6
Continuous
 62
     7
370
    15
100
AcDbLine
 10
-5.9676640322
 20
-7.8362297163
 30
0.0
 11
-3.5195271779
 21
-8.0733745915
 31
0.0
  0
LINE
  5
157
330
1F
100
AcDbEntity
  8
0
  6
Continuous
 62
     7
370
    15
100
AcDbLine
 10
-12.2866520328
 20
-2.4349984957
 30
0.0
 11
-10.4001906879
 21
0.6854045748
 31
0.0
  0
LINE
  5
158
330
1F
100
AcDbEntity
  8
0
  6
Continuous
 62
     7
370
    15
100
AcDbLine
 10
-12.6745442791
 20
7.6736262986
 30
0.0
 11
-12.2866520328
 21
-2.4349984957
 31
0.0
  0
LINE
  5
159
330
1F
100
AcDbEntity
  8
0
  6
Continuous
 62
     7
370
    15
100
AcDbLine
 10
-10.7880829343
 20
10.7940293691
 30
0.0
 11
-12.6745442791
 21
7.6736262986
 31
0.0
  0
LINE
  5
15A
330
1F
100
AcDbEntity
  8
0
  6
Continuous
 62
     7
370
    15
100
AcDbLine
 10
-11.3729923396
 20
26.0369989614
 30
0.0
 11
-11.8233682017
 21
37.7739714049
 31
0.0
  0
LINE
  5
15B
330
1F
100
AcDbEntity
  8
0
  6
Continuous
 62
     7
370
    15
100
AcDbLine
 10
-12.5341076264
 20
38.061395067
 30
0.0
 11
-13.026687243
 21
37.2466172012
 31
0.0
  0
LINE
  5
15C
330
1F
100
AcDbEntity
  8
0
  6
Continuous
 62
     7
370
    15
100
AcDbLine
 10
-13.1961798063
 20
-7.3005363751
 30
0.0
 11
-13.0617913958
 21
-7.078243981
 31
0.0
  0
LINE
  5
15D
330
1F
100
AcDbEntity
  8
0
  6
Continuous
 62
     7
370
    15
100
AcDbLine
 10
-12.3288381077
 20
-2.7222792106
 30
0.0
 11
-13.9908921797
 21
-7.4661358942
 31
0.0
  0
LINE
  5
15E
330
1F
100
AcDbEntity
  8
0
  6
Continuous
 62
     7
370
    15
100
AcDbLine
 10
-12.3523809763
 20
-2.7721323411
 30
0.0
 11
-12.3288381077
 21
-2.7222792106
 31
0.0
  0
LINE
  5
15F
330
1F
100
AcDbEntity
  8
0
  6
Continuous
 62
     7
370
    15
100
AcDbLine
 10
-11.7849456772
 20
25.3555853384
 30
0.0
 11
-11.3729923396
 21
26.0369989614
 31
0.0
  0
LINE
  5
160
330
1F
100
AcDbEntity
  8
0
  6
Continuous
 62
     7
370
    15
100
AcDbLine
 10
-13.5413800971
 20
30.2637093001
 30
0.0
 11
-13.3261873954
 21
24.6557026963
 31
0.0
  0
ARC
  5
161
330
1F
100
AcDbEntity
  8
0
  6
Continuous
 62
     7
370
    15
100
AcDbCircle
 10
-14.8966961381
 20
-8.3830736382
 30
0.0
 40
0.9999999999999933
100
AcDbArc
 50
84.467163933
 51
148.8446487302
  0
ARC
  5
162
330
1F
100
AcDbEntity
  8
0
  6
Continuous
 62
     7
370
    15
100
AcDbCircle
 10
-35.4304170255
 20
-8.015524934
 30
0.0
 40
1.000000000000008
100
AcDbArc
 50
184.6457907223
 51
264.467163933
  0
ARC
  5
163
330
1F
100
AcDbEntity
  8
0
  6
Continuous
 62
     7
370
    15
100
AcDbCircle
 10
-31.6917303151
 20
-8.3776821359
 30
0.0
 40
0.9999999999999795
100
AcDbArc
 50
264.467163933
 51
283.4838343062
  0
ARC
  5
164
330
1F
100
AcDbEntity
  8
0
  6
Continuous
 62
     7
370
    15
100
AcDbCircle
 10
-16.6655675988
 20
-14.567915428
 30
0.0
 40
0.9999999999999861
100
AcDbArc
 50
182.1974987268
 51
264.467163933
  0
ARC
  5
165
330
1F
100
AcDbEntity
  8
0
  6
Continuous
 62
     7
370
    15
100
AcDbCircle
 10
5.7409030663
 20
-10.884023471
 30
0.0
 40
1.000000000000012
100
AcDbArc
 50
328.8446487302
 51
19.5515529943
  0
ARC
  5
166
330
1F
100
AcDbEntity
  8
0
  6
Continuous
 62
     7
370
    15
100
AcDbCircle
 10
-12.5910213643
 20
-14.9626064995
 30
0.0
 40
1.000000000000001
100
AcDbArc
 50
264.467163933
 51
325.7879629854
  0
ARC
  5
167
330
1F
100
AcDbEntity
  8
0
  6
Continuous
 62
     7
370
    15
100
AcDbCircle
 10
-16.783157483
 20
-11.5034767087
 30
0.0
 40
1.000000000000016
100
AcDbArc
 50
148.8446487302
 51
182.1974987268
  0
ARC
  5
168
330
1F
100
AcDbEntity
  8
0
  6
Continuous
 62
     7
370
    15
100
AcDbCircle
 10
0.0416000803
 20
-13.6350861375
 30
0.0
 40
0.9999999999999923
100
AcDbArc
 50
198.7919257652
 51
264.467163933
  0
ARC
  5
169
330
1F
100
AcDbEntity
  8
0
  6
Continuous
 62
     7
370
    15
100
AcDbCircle
 10
3.8544417214
 20
-14.0044265415
 30
0.0
 40
1.000000000000008
100
AcDbArc
 50
264.467163933
 51
328.8446487302
  0
ARC
  5
16A
330
1F
100
AcDbEntity
  8
0
  6
Continuous
 62
     7
370
    15
100
AcDbCircle
 10
0.4078558185
 20
10.6373518307
 30
0.0
 40
1.773560909467028
100
AcDbArc
 50
182.3995097331
 51
199.7507197228
  0
ARC
  5
16B
330
1F
100
AcDbEntity
  8
0
  6
Continuous
 62
     7
370
    15
100
AcDbCircle
 10
-1.615633917
 20
-5.8617122518
 30
0.0
 40
2.255342452880011
100
AcDbArc
 50
20.2098775949
 51
84.4557069228
  0
ARC
  5
16C
330
1F
100
AcDbEntity
  8
0
  6
Continuous
 62
     7
370
    15
100
AcDbCircle
 10
-4.0748593969
 20
-5.0652176223
 30
0.0
 40
1.700926201301596
100
AcDbArc
 50
82.2630009561
 51
143.7798788471
  0
ARC
  5
16D
330
1F
100
AcDbEntity
  8
0
  6
Continuous
 62
     7
370
    15
100
AcDbCircle
 10
-13.3980606913
 20
-6.4104825853
 30
0.0
 40
1.640608263125335
100
AcDbArc
 50
261.3719987644
 51
338.4545688475
  0
ARC
  5
16E
330
1F
100
AcDbEntity
  8
0
  6
Continuous
 62
     7
370
    15
100
AcDbCircle
 10
-10.7212892506
 20
0.9725264719
 30
0.0
 40
1.554366359911068
100
AcDbArc
 50
340.879720819
 51
2.4123592474
  0
ARC
  5
16F
330
1F
100
AcDbEntity
  8
0
  6
Continuous
 62
     7
370
    15
100
AcDbCircle
 10
-11.7303665252
 20
10.9398857928
 30
0.0
 40
2.183976419921323
100
AcDbArc
 50
5.4305749033
 51
92.084767944
  0
ARC
  5
170
330
1F
100
AcDbEntity
  8
0
  6
Continuous
 62
     7
370
    15
100
AcDbCircle
 10
-11.6298679903
 20
26.3142952753
 30
0.0
 40
1.490666513184664
100
AcDbArc
 50
305.9185961491
 51
2.8935915885
  0
ARC
  5
171
330
1F
100
AcDbEntity
  8
0
  6
Continuous
 62
     7
370
    15
100
AcDbCircle
 10
-33.490562126
 20
-5.9067246107
 30
0.0
 40
1.473309327911358
100
AcDbArc
 50
81.5655843635
 51
133.4730070162
  0
ARC
  5
172
330
1F
100
AcDbEntity
  8
0
  6
Continuous
 62
     7
370
    15
100
AcDbCircle
 10
-14.0481341062
 20
12.6235258849
 30
0.0
 40
2.293242915028787
100
AcDbArc
 50
338.4704575084
 51
12.5650647546
  0
ARC
  5
173
330
1F
100
AcDbEntity
  8
0
  6
Continuous
 62
     7
370
    15
100
AcDbCircle
 10
-31.1061770347
 20
-5.5783906497
 30
0.0
 40
1.747648240620238
100
AcDbArc
 50
341.7257007586
 51
26.0279034501
  0
ARC
  5
174
330
1F
100
AcDbEntity
  8
0
  6
Continuous
 62
     7
370
    15
100
AcDbCircle
 10
-36.1489056039
 20
-4.6317957581
 30
0.0
 40
2.880228649097357
100
AcDbArc
 50
336.3889656119
 51
3.6317864795
  0
ARC
  5
175
330
1F
100
AcDbEntity
  8
0
  6
Continuous
 62
     7
370
    15
100
AcDbCircle
 10
-33.4170990291
 20
-4.6925838331
 30
0.0
 40
1.096741160309719
100
AcDbArc
 50
187.5953227456
 51
265.1516841731
  0
ARC
  5
176
330
1F
100
AcDbEntity
  8
0
  6
Continuous
 62
     7
370
    15
100
AcDbCircle
 10
-32.4102188935
 20
-4.9939529601
 30
0.0
 40
2.880228649097248
100
AcDbArc
 50
336.3889656119
 51
3.6317864795
  0
ARC
  5
177
330
1F
100
AcDbEntity
  8
0
  6
Continuous
 62
     7
370
    15
100
AcDbCircle
 10
-35.303560374
 20
-7.8129869036
 30
0.0
 40
1.09674116030971
100
AcDbArc
 50
187.5953227456
 51
265.1516841731
  0
ARC
  5
178
330
1F
100
AcDbEntity
  8
0
  6
Continuous
 62
     7
370
    15
100
AcDbCircle
 10
-29.6721311331
 20
-5.1674483664
 30
0.0
 40
0.9850944449989103
100
AcDbArc
 50
264.2335739424
 51
283.2307490106
  0
ARC
  5
179
330
1F
100
AcDbEntity
  8
0
  6
Continuous
 62
     7
370
    15
100
AcDbCircle
 10
-31.558592478
 20
-8.2878514369
 30
0.0
 40
0.9850944449987333
100
AcDbArc
 50
264.2335739424
 51
283.2307490106
  0
ARC
  5
17A
330
1F
100
AcDbEntity
  8
0
  6
Continuous
 62
     7
370
    15
100
AcDbCircle
 10
-17.3840561772
 20
-11.1841862522
 30
0.0
 40
2.880228649097216
100
AcDbArc
 50
336.3889656119
 51
3.6317864795
  0
ARC
  5
17B
330
1F
100
AcDbEntity
  8
0
  6
Continuous
 62
     7
370
    15
100
AcDbCircle
 10
-14.6556871784
 20
-11.2507050579
 30
0.0
 40
1.090744361706386
100
AcDbArc
 50
185.4492997992
 51
265.3061684263
  0
ARC
  5
17C
330
1F
100
AcDbEntity
  8
0
  6
Continuous
 62
     7
370
    15
100
AcDbCircle
 10
-14.7779618348
 20
-12.3926009773
 30
0.0
 40
1.416511435989902
100
AcDbArc
 50
79.079642332
 51
132.8608816722
  0
ARC
  5
17D
330
1F
100
AcDbEntity
  8
0
  6
Continuous
 62
     7
370
    15
100
AcDbCircle
 10
-13.3095099427
 20
-11.5788773236
 30
0.0
 40
2.880228649097268
100
AcDbArc
 50
336.3889656119
 51
3.6317864795
  0
ARC
  5
17E
330
1F
100
AcDbEntity
  8
0
  6
Continuous
 62
     7
370
    15
100
AcDbCircle
 10
-14.895551719
 20
-9.328162258
 30
0.0
 40
1.416511435989913
100
AcDbArc
 50
79.079642332
 51
132.8608816722
  0
ARC
  5
17F
330
1F
100
AcDbEntity
  8
0
  6
Continuous
 62
     7
370
    15
100
AcDbCircle
 10
-16.5421485233
 20
-14.3711081284
 30
0.0
 40
1.09074436170639
100
AcDbArc
 50
185.4492997992
 51
265.3061684263
  0
ARC
  5
180
330
1F
100
AcDbEntity
  8
0
  6
Continuous
 62
     7
370
    15
100
AcDbCircle
 10
-10.5559033539
 20
-11.8897614703
 30
0.0
 40
0.8504631006508038
100
AcDbArc
 50
262.2630009561
 51
323.7798788471
  0
ARC
  5
181
330
1F
100
AcDbEntity
  8
0
  6
Continuous
 62
     7
370
    15
100
AcDbCircle
 10
-12.4423646988
 20
-15.0101645408
 30
0.0
 40
0.8504631006507822
100
AcDbArc
 50
262.2630009561
 51
323.7798788471
  0
ARC
  5
182
330
1F
100
AcDbEntity
  8
0
  6
Continuous
 62
     7
370
    15
100
AcDbCircle
 10
-12.4200551529
 20
-7.9002367742
 30
0.0
 40
1.042831509602402
100
AcDbArc
 50
58.3006739104
 51
127.9794385664
  0
ARC
  5
183
330
1F
100
AcDbEntity
  8
0
  6
Continuous
 62
     7
370
    15
100
AcDbCircle
 10
-9.80064052
 20
-0.4238689333
 30
0.0
 40
1.042831509602404
100
AcDbArc
 50
58.3006739104
 51
127.9794385664
  0
ARC
  5
184
330
1F
100
AcDbEntity
  8
0
  6
Continuous
 62
     7
370
    15
100
AcDbCircle
 10
2.4239009923
 20
-11.9782331966
 30
0.0
 40
1.92269149553481
100
AcDbArc
 50
96.7607109403
 51
137.2103288883
  0
ARC
  5
185
330
1F
100
AcDbEntity
  8
0
  6
Continuous
 62
     7
370
    15
100
AcDbCircle
 10
0.7272000404
 20
-6.9919036745
 30
0.0
 40
1.92269149553482
100
AcDbArc
 50
96.7607109403
 51
137.2103288883
  0
ARC
  5
186
330
1F
100
AcDbEntity
  8
0
  6
Continuous
 62
     7
370
    15
100
AcDbCircle
 10
-0.6768884981
 20
-10.2513569616
 30
0.0
 40
2.880228649097281
100
AcDbArc
 50
336.3889656119
 51
3.6317864795
  0
ARC
  5
187
330
1F
100
AcDbEntity
  8
0
  6
Continuous
 62
     7
370
    15
100
AcDbCircle
 10
2.0711737779
 20
-10.2825662311
 30
0.0
 40
1.127671226440013
100
AcDbArc
 50
200.2098775949
 51
264.4557069228
  0
ARC
  5
188
330
1F
100
AcDbEntity
  8
0
  6
Continuous
 62
     7
370
    15
100
AcDbCircle
 10
3.135953143
 20
-10.6206973656
 30
0.0
 40
2.880228649097263
100
AcDbArc
 50
336.3889656119
 51
3.6317864795
  0
ARC
  5
189
330
1F
100
AcDbEntity
  8
0
  6
Continuous
 62
     7
370
    15
100
AcDbCircle
 10
0.184712433
 20
-13.4029693016
 30
0.0
 40
1.127671226440001
100
AcDbArc
 50
200.2098775949
 51
264.4557069228
  0
ARC
  5
18A
330
1F
100
AcDbEntity
  8
0
  6
Continuous
 62
     7
370
    15
100
AcDbCircle
 10
-6.7203147543
 20
-3.5622216141
 30
0.0
 40
2.880228649097216
100
AcDbArc
 50
336.3889656119
 51
3.6317864795
  0
ARC
  5
18B
330
1F
100
AcDbEntity
  8
0
  6
Continuous
 62
     7
370
    15
100
AcDbCircle
 10
-4.1956972092
 20
-5.5585475309
 30
0.0
 40
0.8504631006507951
100
AcDbArc
 50
82.2630009561
 51
143.7798788471
  0
ARC
  5
18C
330
1F
100
AcDbEntity
  8
0
  6
Continuous
 62
     7
370
    15
100
AcDbCircle
 10
-4.2721778999
 20
-3.7993664893
 30
0.0
 40
2.880228649097222
100
AcDbArc
 50
336.3889656119
 51
3.6317864795
  0
ARC
  5
18D
330
1F
100
AcDbEntity
  8
0
  6
Continuous
 62
     7
370
    15
100
AcDbCircle
 10
-1.742016042
 20
-6.0753672831
 30
0.0
 40
1.127671226440015
100
AcDbArc
 50
20.2098775949
 51
84.4557069228
  0
ARC
  5
18E
330
1F
100
AcDbEntity
  8
0
  6
Continuous
 62
     7
370
    15
100
AcDbCircle
 10
-6.0821585541
 20
-8.6789506014
 30
0.0
 40
0.8504631006507923
100
AcDbArc
 50
82.2630009561
 51
143.7798788471
  0
ARC
  5
18F
330
1F
100
AcDbEntity
  8
0
  6
Continuous
 62
     7
370
    15
100
AcDbCircle
 10
-11.1766851078
 20
0.652692023
 30
0.0
 40
0.7771831799556153
100
AcDbArc
 50
340.879720819
 51
2.4123592474
  0
ARC
  5
190
330
1F
100
AcDbEntity
  8
0
  6
Continuous
 62
     7
370
    15
100
AcDbCircle
 10
-9.4366504696
 20
-0.3529089116
 30
0.0
 40
1.41651143598993
100
AcDbArc
 50
79.079642332
 51
132.8608816722
  0
ARC
  5
191
330
1F
100
AcDbEntity
  8
0
  6
Continuous
 62
     7
370
    15
100
AcDbCircle
 10
-9.8245427159
 20
9.7557158827
 30
0.0
 40
1.416511435989922
100
AcDbArc
 50
79.079642332
 51
132.8608816722
  0
ARC
  5
192
330
1F
100
AcDbEntity
  8
0
  6
Continuous
 62
     7
370
    15
100
AcDbCircle
 10
-3.6284773869
 20
-9.1957703536
 30
0.0
 40
1.127671226440011
100
AcDbArc
 50
20.2098775949
 51
84.4557069228
  0
ARC
  5
193
330
1F
100
AcDbEntity
  8
0
  6
Continuous
 62
     7
370
    15
100
AcDbCircle
 10
-13.0631464527
 20
-2.4677110475
 30
0.0
 40
0.7771831799555341
100
AcDbArc
 50
340.879720819
 51
2.4123592474
  0
ARC
  5
194
330
1F
100
AcDbEntity
  8
0
  6
Continuous
 62
     7
370
    15
100
AcDbCircle
 10
-11.8776272764
 20
10.6878811867
 30
0.0
 40
1.094702840959628
100
AcDbArc
 50
5.5644451557
 51
91.9508976916
  0
ARC
  5
195
330
1F
100
AcDbEntity
  8
0
  6
Continuous
 62
     7
370
    15
100
AcDbCircle
 10
-13.7640886212
 20
7.5674781162
 30
0.0
 40
1.094702840959638
100
AcDbArc
 50
5.5644451557
 51
91.9508976916
  0
ARC
  5
196
330
1F
100
AcDbEntity
  8
0
  6
Continuous
 62
     7
370
    15
100
AcDbCircle
 10
-10.4094521212
 20
24.998685475
 30
0.0
 40
1.41651143598992
100
AcDbArc
 50
79.079642332
 51
132.8608816722
  0
ARC
  5
197
330
1F
100
AcDbEntity
  8
0
  6
Continuous
 62
     7
370
    15
100
AcDbCircle
 10
-2.2621656464
 20
36.6255210913
 30
0.0
 40
0.5881306209906121
100
AcDbArc
 50
16.5646423678
 51
75.1239808778
  0
ARC
  5
198
330
1F
100
AcDbEntity
  8
0
  6
Continuous
 62
     7
370
    15
100
AcDbCircle
 10
-15.1031473803
 20
-8.2544231445
 30
0.0
 40
0.7567741726136734
100
AcDbArc
 50
149.0933782552
 51
182.683073788
  0
ARC
  5
199
330
1F
100
AcDbEntity
  8
0
  6
Continuous
 62
     7
370
    15
100
AcDbCircle
 10
-16.9896087252
 20
-11.374826215
 30
0.0
 40
0.7567741726137032
100
AcDbArc
 50
149.0933782552
 51
182.683073788
  0
ARC
  5
19A
330
1F
100
AcDbEntity
  8
0
  6
Continuous
 62
     7
370
    15
100
AcDbCircle
 10
-35.5428674498
 20
-8.857260764
 30
0.0
 40
0.1544398823707921
100
AcDbArc
 50
275.9592903603
 51
341.6804071975
  0
ARC
  5
19B
330
1F
100
AcDbEntity
  8
0
  6
Continuous
 62
     7
370
    15
100
AcDbCircle
 10
-13.95766331
 20
8.7233119187
 30
0.0
 40
0.1680686627336621
100
AcDbArc
 50
277.5414534307
 51
338.4383894708
  0
ARC
  5
19C
330
1F
100
AcDbEntity
  8
0
  6
Continuous
 62
     7
370
    15
100
AcDbCircle
 10
-31.8041807393
 20
-9.219417966
 30
0.0
 40
0.1544398823707924
100
AcDbArc
 50
275.9592903603
 51
341.6804071975
  0
ARC
  5
19D
330
1F
100
AcDbEntity
  8
0
  6
Continuous
 62
     7
370
    15
100
AcDbCircle
 10
-16.7780180231
 20
-15.4096512581
 30
0.0
 40
0.1544398823708003
100
AcDbArc
 50
275.9592903603
 51
341.6804071975
  0
ARC
  5
19E
330
1F
100
AcDbEntity
  8
0
  6
Continuous
 62
     7
370
    15
100
AcDbCircle
 10
5.8914069501
 20
-10.9390934837
 30
0.0
 40
0.8432729865827295
100
AcDbArc
 50
262.0699220104
 51
326.755734703
  0
ARC
  5
19F
330
1F
100
AcDbEntity
  8
0
  6
Continuous
 62
     7
370
    15
100
AcDbCircle
 10
-12.7034717886
 20
-15.8043423295
 30
0.0
 40
0.1544398823707925
100
AcDbArc
 50
275.9592903603
 51
341.6804071975
  0
ARC
  5
1A0
330
1F
100
AcDbEntity
  8
0
  6
Continuous
 62
     7
370
    15
100
AcDbCircle
 10
4.0087878327
 20
-14.0679616593
 30
0.0
 40
0.835433726262505
100
AcDbArc
 50
261.7288360227
 51
327.0968206907
  0
ARC
  5
1A1
330
1F
100
AcDbEntity
  8
0
  6
Continuous
 62
     7
370
    15
100
AcDbCircle
 10
-2.4247310772
 20
-8.9194578115
 30
0.0
 40
0.1843826999978079
100
AcDbArc
 50
142.1042603756
 51
196.1967507769
  0
ARC
  5
1A2
330
1F
100
AcDbEntity
  8
0
  6
Continuous
 62
     7
370
    15
100
AcDbCircle
 10
-0.7280301253
 20
-13.9057873336
 30
0.0
 40
0.184382699997789
100
AcDbArc
 50
142.1042603756
 51
196.1967507769
  0
ARC
  5
1A3
330
1F
100
AcDbEntity
  8
0
  6
Continuous
 62
     7
370
    15
100
AcDbCircle
 10
-0.070850344
 20
-14.4768219675
 30
0.0
 40
0.1544398823707982
100
AcDbArc
 50
275.9592903603
 51
341.6804071975
  0
ARC
  5
1A4
330
1F
100
AcDbEntity
  8
0
  6
Continuous
 62
     7
370
    15
100
AcDbCircle
 10
3.7419912972
 20
-14.8461623716
 30
0.0
 40
0.1544398823707943
100
AcDbArc
 50
275.9592903603
 51
341.6804071975
  0
ARC
  5
1A5
330
1F
100
AcDbEntity
  8
0
  6
Continuous
 62
     7
370
    15
100
AcDbCircle
 10
-6.1155060869
 20
-7.7866320186
 30
0.0
 40
0.1559397472311551
100
AcDbArc
 50
276.9472362211
 51
341.4545506835
  0
ARC
  5
1A6
330
1F
100
AcDbEntity
  8
0
  6
Continuous
 62
     7
370
    15
100
AcDbCircle
 10
-3.6661397458
 20
-8.0248314952
 30
0.0
 40
0.1544398823707904
100
AcDbArc
 50
275.9592903603
 51
341.6804071975
  0
ARC
  5
1A7
330
1F
100
AcDbEntity
  8
0
  6
Continuous
 62
     7
370
    15
100
AcDbCircle
 10
-12.1324971525
 20
26.0024214454
 30
0.0
 40
0.7602915003591494
100
AcDbArc
 50
329.5251949717
 51
2.6066703646
  0
MTEXT
  5
1A9
330
1F
100
AcDbEntity
  8
0
  6
Continuous
 62
     7
100
AcDbMText
 10
-36.5390040824
 20
-16.9821728912
 30
0.0
 40
4.83362
 41
0.0
 71
     1
 72
     1
  1
SolidWorks Educational Edition.
  7
SLDTEXTSTYLE0
 73
     1
 44
1.0
  0
MTEXT
  5
1AA
330
1F
100
AcDbEntity
  8
0
  6
Continuous
 62
     7
100
AcDbMText
 10
-36.5390040824
 20
-24.2326028912
 30
0.0
 40
4.83362
 41
0.0
 71
     1
 72
     1
  1
For Instructional Use Only.
  7
SLDTEXTSTYLE0
 73
     1
 44
1.0
  0
ENDSEC
  0
SECTION
  2
OBJECTS
  0
DICTIONARY
  5
C
330
0
100
AcDbDictionary
281
     1
  3
ACAD_GROUP
350
D
  3
ACAD_LAYOUT
350
1A
  3
ACAD_MLINESTYLE
350
17
  3
ACAD_PLOTSETTINGS
350
19
  3
ACAD_PLOTSTYLENAME
350
E
  0
DICTIONARY
  5
D
102
{ACAD_REACTORS
330
C
102
}
330
C
100
AcDbDictionary
281
     1
  0
DICTIONARY
  5
1A
102
{ACAD_REACTORS
330
C
102
}
330
C
100
AcDbDictionary
281
     1
  3
Layout1
350
1E
  3
Layout2
350
26
  3
Model
350
22
  0
DICTIONARY
  5
17
102
{ACAD_REACTORS
330
C
102
}
330
C
100
AcDbDictionary
281
     1
  3
Standard
350
18
  0
DICTIONARY
  5
19
102
{ACAD_REACTORS
330
C
102
}
330
C
100
AcDbDictionary
281
     1
  0
ACDBDICTIONARYWDFLT
  5
E
102
{ACAD_REACTORS
330
C
102
}
330
C
100
AcDbDictionary
281
     1
  3
Normal
350
F
100
AcDbDictionaryWithDefault
340
F
  0
LAYOUT
  5
1E
102
{ACAD_REACTORS
330
1A
102
}
330
1A
100
AcDbPlotSettings
  1

  2
none_device
  4

  6

 40
0.0
 41
0.0
 42
0.0
 43
0.0
 44
0.0
 45
0.0
 46
0.0
 47
0.0
 48
0.0
 49
0.0
140
0.0
141
0.0
142
1.0
143
1.0
 70
   688
 72
     0
 73
     0
 74
     5
  7

 75
    16
147
1.0
148
0.0
149
0.0
100
AcDbLayout
  1
Layout1
 70
     1
 71
     1
 10
0.0
 20
0.0
 11
420.0
 21
297.0
 12
0.0
 22
0.0
 32
0.0
 14
1.0000000000E+20
 24
1.0000000000E+20
 34
1.0000000000E+20
 15
-1.0000000000E+20
 25
-1.0000000000E+20
 35
-1.0000000000E+20
146
0.0
 13
0.0
 23
0.0
 33
0.0
 16
1.0
 26
0.0
 36
0.0
 17
0.0
 27
1.0
 37
0.0
 76
     0
330
1B
  0
LAYOUT
  5
26
102
{ACAD_REACTORS
330
1A
102
}
330
1A
100
AcDbPlotSettings
  1

  2
none_device
  4

  6

 40
0.0
 41
0.0
 42
0.0
 43
0.0
 44
0.0
 45
0.0
 46
0.0
 47
0.0
 48
0.0
 49
0.0
140
0.0
141
0.0
142
1.0
143
1.0
 70
   688
 72
     0
 73
     0
 74
     5
  7

 75
    16
147
1.0
148
0.0
149
0.0
100
AcDbLayout
  1
Layout2
 70
     1
 71
     2
 10
0.0
 20
0.0
 11
0.0
 21
0.0
 12
0.0
 22
0.0
 32
0.0
 14
0.0
 24
0.0
 34
0.0
 15
0.0
 25
0.0
 35
0.0
146
0.0
 13
0.0
 23
0.0
 33
0.0
 16
1.0
 26
0.0
 36
0.0
 17
0.0
 27
1.0
 37
0.0
 76
     0
330
23
  0
LAYOUT
  5
22
102
{ACAD_REACTORS
330
1A
102
}
330
1A
100
AcDbPlotSettings
  1

  2
none_device
  4
ANSI_A_(11.00_x_8.50_Inches)
  6

 40
6.35
 41
19.05
 42
6.35000508
 43
19.05000254
 44
279.4
 45
215.9
 46
192.1726697153
 47
45.0511771888
 48
0.0
 49
0.0
140
0.0
141
0.0
142
0.1554362969
143
1.0
 70
  1696
 72
     0
 73
     0
 74
     0
  7

 75
     0
147
0.0179189148
148
0.0
149
0.0
100
AcDbLayout
  1
Model
 70
     1
 71
     0
 10
0.0
 20
0.0
 11
420.0
 21
297.0
 12
0.0
 22
0.0
 32
0.0
 14
-36.5390040824
 24
-15.9626064995
 34
0.0
 15
6.7409030663
 25
38.1753276089
 35
0.0
146
0.0
 13
0.0
 23
0.0
 33
0.0
 16
1.0
 26
0.0
 36
0.0
 17
0.0
 27
1.0
 37
0.0
 76
     0
330
1F
331
29
  0
MLINESTYLE
  5
18
102
{ACAD_REACTORS
330
17
102
}
330
17
100
AcDbMlineStyle
  2
Standard
 70
     0
  3

 62
   256
 51
90.0
 52
90.0
 71
     2
 49
0.5
 62
   256
  6
BYLAYER
 49
-0.5
 62
   256
  6
BYLAYER
  0
ACDBPLACEHOLDER
  5
F
102
{ACAD_REACTORS
330
E
102
}
330
E
  0
ENDSEC
  0
EOF
