  0
SECTION
  2
HEADER
  9
$ACADVER
  1
AC1015
  9
$ACADMAINTVER
 70
     6
  9
$DWGCODEPAGE
  3
ANSI_1252
  9
$INSBASE
 10
0.0
 20
0.0
 30
0.0
  9
$EXTMIN
 10
-33.5212733431
 20
-15.2100466851
 30
0.0
  9
$EXTMAX
 10
32.5442244072
 20
25.6173680523
 30
0.0
  9
$LIMMIN
 10
0.0
 20
0.0
  9
$LIMMAX
 10
420.0
 20
297.0
  9
$ORTHOMODE
 70
     0
  9
$REGENMODE
 70
     1
  9
$FILLMODE
 70
     1
  9
$QTEXTMODE
 70
     0
  9
$MIRRTEXT
 70
     1
  9
$LTSCALE
 40
1.0
  9
$ATTMODE
 70
     1
  9
$TEXTSIZE
 40
2.5
  9
$TRACEWID
 40
1.0
  9
$TEXTSTYLE
  7
Standard
  9
$CLAYER
  8
0
  9
$CELTYPE
  6
ByLayer
  9
$CECOLOR
 62
   256
  9
$CELTSCALE
 40
1.0
  9
$DISPSILH
 70
     0
  9
$DIMSCALE
 40
1.0
  9
$DIMASZ
 40
6.0
  9
$DIMEXO
 40
1.0
  9
$DIMDLI
 40
3.75
  9
$DIMRND
 40
0.0
  9
$DIMDLE
 40
0.0
  9
$DIMEXE
 40
1.0
  9
$DIMTP
 40
0.0
  9
$DIMTM
 40
0.0
  9
$DIMTXT
 40
2.5
  9
$DIMCEN
 40
2.5
  9
$DIMTSZ
 40
0.0
  9
$DIMTOL
 70
     0
  9
$DIMLIM
 70
     0
  9
$DIMTIH
 70
     1
  9
$DIMTOH
 70
     1
  9
$DIMSE1
 70
     0
  9
$DIMSE2
 70
     0
  9
$DIMTAD
 70
     1
  9
$DIMZIN
 70
     0
  9
$DIMBLK
  1

  9
$DIMASO
 70
     1
  9
$DIMSHO
 70
     1
  9
$DIMPOST
  1

  9
$DIMAPOST
  1

  9
$DIMALT
 70
     0
  9
$DIMALTD
 70
     3
  9
$DIMALTF
 40
0.0393700787
  9
$DIMLFAC
 40
1.0
  9
$DIMTOFL
 70
     1
  9
$DIMTVP
 40
0.0
  9
$DIMTIX
 70
     0
  9
$DIMSOXD
 70
     0
  9
$DIMSAH
 70
     0
  9
$DIMBLK1
  1

  9
$DIMBLK2
  1

  9
$DIMSTYLE
  2
ISO-25
  9
$DIMCLRD
 70
     0
  9
$DIMCLRE
 70
     0
  9
$DIMCLRT
 70
     0
  9
$DIMTFAC
 40
1.0
  9
$DIMGAP
 40
1.524
  9
$DIMJUST
 70
     0
  9
$DIMSD1
 70
     0
  9
$DIMSD2
 70
     0
  9
$DIMTOLJ
 70
     0
  9
$DIMTZIN
 70
     0
  9
$DIMALTZ
 70
     0
  9
$DIMALTTZ
 70
     0
  9
$DIMUPT
 70
     0
  9
$DIMDEC
 70
     2
  9
$DIMTDEC
 70
     2
  9
$DIMALTU
 70
     2
  9
$DIMALTTD
 70
     3
  9
$DIMTXSTY
  7
Standard
  9
$DIMAUNIT
 70
     0
  9
$DIMADEC
 70
     2
  9
$DIMALTRND
 40
0.0
  9
$DIMAZIN
 70
     0
  9
$DIMDSEP
 70
    44
  9
$DIMATFIT
 70
     3
  9
$DIMFRAC
 70
     0
  9
$DIMLDRBLK
  1

  9
$DIMLUNIT
 70
     2
  9
$DIMLWD
 70
    -2
  9
$DIMLWE
 70
    -2
  9
$DIMTMOVE
 70
     0
  9
$LUNITS
 70
     2
  9
$LUPREC
 70
     2
  9
$SKETCHINC
 40
1.0
  9
$FILLETRAD
 40
10.0
  9
$AUNITS
 70
     0
  9
$AUPREC
 70
     2
  9
$MENU
  1
.
  9
$ELEVATION
 40
0.0
  9
$PELEVATION
 40
0.0
  9
$THICKNESS
 40
0.0
  9
$LIMCHECK
 70
     0
  9
$CHAMFERA
 40
10.0
  9
$CHAMFERB
 40
10.0
  9
$CHAMFERC
 40
20.0
  9
$CHAMFERD
 40
0.0
  9
$SKPOLY
 70
     0
  9
$TDCREATE
 40
2456560.933286377
  9
$TDUCREATE
 40
2456560.433286377
  9
$TDUPDATE
 40
2456560.933311481
  9
$TDUUPDATE
 40
2456560.433311481
  9
$TDINDWG
 40
0.0000000116
  9
$TDUSRTIMER
 40
0.0000000116
  9
$USRTIMER
 70
     1
  9
$ANGBASE
 50
0.0
  9
$ANGDIR
 70
     0
  9
$PDMODE
 70
     0
  9
$PDSIZE
 40
-1.0
  9
$PLINEWID
 40
0.0
  9
$SPLFRAME
 70
     0
  9
$SPLINETYPE
 70
     6
  9
$SPLINESEGS
 70
     8
  9
$HANDSEED
  5
190
  9
$SURFTAB1
 70
     6
  9
$SURFTAB2
 70
     6
  9
$SURFTYPE
 70
     6
  9
$SURFU
 70
     6
  9
$SURFV
 70
     6
  9
$UCSBASE
  2

  9
$UCSNAME
  2

  9
$UCSORG
 10
0.0
 20
0.0
 30
0.0
  9
$UCSXDIR
 10
1.0
 20
0.0
 30
0.0
  9
$UCSYDIR
 10
0.0
 20
1.0
 30
0.0
  9
$UCSORTHOREF
  2

  9
$UCSORTHOVIEW
 70
     0
  9
$UCSORGTOP
 10
0.0
 20
0.0
 30
0.0
  9
$UCSORGBOTTOM
 10
0.0
 20
0.0
 30
0.0
  9
$UCSORGLEFT
 10
0.0
 20
0.0
 30
0.0
  9
$UCSORGRIGHT
 10
0.0
 20
0.0
 30
0.0
  9
$UCSORGFRONT
 10
0.0
 20
0.0
 30
0.0
  9
$UCSORGBACK
 10
0.0
 20
0.0
 30
0.0
  9
$PUCSBASE
  2

  9
$PUCSNAME
  2

  9
$PUCSORG
 10
0.0
 20
0.0
 30
0.0
  9
$PUCSXDIR
 10
1.0
 20
0.0
 30
0.0
  9
$PUCSYDIR
 10
0.0
 20
1.0
 30
0.0
  9
$PUCSORTHOREF
  2

  9
$PUCSORTHOVIEW
 70
     0
  9
$PUCSORGTOP
 10
0.0
 20
0.0
 30
0.0
  9
$PUCSORGBOTTOM
 10
0.0
 20
0.0
 30
0.0
  9
$PUCSORGLEFT
 10
0.0
 20
0.0
 30
0.0
  9
$PUCSORGRIGHT
 10
0.0
 20
0.0
 30
0.0
  9
$PUCSORGFRONT
 10
0.0
 20
0.0
 30
0.0
  9
$PUCSORGBACK
 10
0.0
 20
0.0
 30
0.0
  9
$USERI1
 70
     0
  9
$USERI2
 70
     0
  9
$USERI3
 70
     0
  9
$USERI4
 70
     0
  9
$USERI5
 70
     0
  9
$USERR1
 40
0.0
  9
$USERR2
 40
0.0
  9
$USERR3
 40
0.0
  9
$USERR4
 40
0.0
  9
$USERR5
 40
0.0
  9
$WORLDVIEW
 70
     1
  9
$SHADEDGE
 70
     3
  9
$SHADEDIF
 70
    70
  9
$TILEMODE
 70
     1
  9
$MAXACTVP
 70
    64
  9
$PINSBASE
 10
0.0
 20
0.0
 30
0.0
  9
$PLIMCHECK
 70
     0
  9
$PEXTMIN
 10
1.0000000000E+20
 20
1.0000000000E+20
 30
1.0000000000E+20
  9
$PEXTMAX
 10
-1.0000000000E+20
 20
-1.0000000000E+20
 30
-1.0000000000E+20
  9
$PLIMMIN
 10
0.0
 20
0.0
  9
$PLIMMAX
 10
420.0
 20
297.0
  9
$UNITMODE
 70
     0
  9
$VISRETAIN
 70
     1
  9
$PLINEGEN
 70
     0
  9
$PSLTSCALE
 70
     1
  9
$TREEDEPTH
 70
  3020
  9
$CMLSTYLE
  2
Standard
  9
$CMLJUST
 70
     0
  9
$CMLSCALE
 40
20.0
  9
$PROXYGRAPHICS
 70
     1
  9
$MEASUREMENT
 70
     1
  9
$CELWEIGHT
370
    -1
  9
$ENDCAPS
280
     0
  9
$JOINSTYLE
280
     0
  9
$LWDISPLAY
290
     1
  9
$INSUNITS
 70
     4
  9
$HYPERLINKBASE
  1

  9
$STYLESHEET
  1

  9
$XEDIT
290
     1
  9
$CEPSNTYPE
380
     0
  9
$PSTYLEMODE
290
     1
  9
$FINGERPRINTGUID
  2
{98246677-50CF-400F-A8FA-635D57D2FAD8}
  9
$VERSIONGUID
  2
{FAEB1C32-E019-11D5-929B-00C0DF256EC4}
  9
$EXTNAMES
290
     1
  9
$PSVPSCALE
 40
0.0
  9
$OLESTARTUP
290
     0
  0
ENDSEC
  0
SECTION
  2
CLASSES
  0
CLASS
  1
ACDBDICTIONARYWDFLT
  2
AcDbDictionaryWithDefault
  3
ObjectDBX Classes
 90
        0
280
     0
281
     0
  0
CLASS
  1
VISUALSTYLE
  2
AcDbVisualStyle
  3
ObjectDBX Classes
 90
     4095
280
     0
281
     0
  0
CLASS
  1
MATERIAL
  2
AcDbMaterial
  3
ObjectDBX Classes
 90
     1153
280
     0
281
     0
  0
CLASS
  1
ACDBPLACEHOLDER
  2
AcDbPlaceHolder
  3
ObjectDBX Classes
 90
        0
280
     0
281
     0
  0
CLASS
  1
LAYOUT
  2
AcDbLayout
  3
ObjectDBX Classes
 90
        0
280
     0
281
     0
  0
ENDSEC
  0
SECTION
  2
TABLES
  0
TABLE
  2
VPORT
  5
8
330
0
100
AcDbSymbolTable
 70
     1
  0
VPORT
  5
29
330
8
100
AcDbSymbolTableRecord
100
AcDbViewportTableRecord
  2
*Active
 70
     0
 10
0.0
 20
0.0
 11
1.0
 21
1.0
 12
-0.4885244679
 22
5.2036606836
 13
0.0
 23
0.0
 14
10.0
 24
10.0
 15
10.0
 25
10.0
 16
0.0
 26
0.0
 36
1.0
 17
0.0
 27
0.0
 37
0.0
 40
41.6439630321
 41
1.6181651024
 42
50.0
 43
0.0
 44
0.0
 50
0.0
 51
0.0
 71
     0
 72
   100
 73
     1
 74
     3
 75
     0
 76
     0
 77
     0
 78
     0
281
     0
 65
     1
110
0.0
120
0.0
130
0.0
111
1.0
121
0.0
131
0.0
112
0.0
122
1.0
132
0.0
 79
     0
146
0.0
  0
ENDTAB
  0
TABLE
  2
LTYPE
  5
5
330
0
100
AcDbSymbolTable
 70
     6
  0
LTYPE
  5
14
330
5
100
AcDbSymbolTableRecord
100
AcDbLinetypeTableRecord
  2
ByBlock
 70
     0
  3

 72
    65
 73
     0
 40
0.0
  0
LTYPE
  5
15
330
5
100
AcDbSymbolTableRecord
100
AcDbLinetypeTableRecord
  2
ByLayer
 70
     0
  3

 72
    65
 73
     0
 40
0.0
  0
LTYPE
  5
16
330
5
100
AcDbSymbolTableRecord
100
AcDbLinetypeTableRecord
  2
Continuous
 70
     0
  3
Solid line
 72
    65
 73
     0
 40
0.0
  0
LTYPE
  5
3F
330
5
100
AcDbSymbolTableRecord
100
AcDbLinetypeTableRecord
  2
HIDDEN
 70
     0
  3
Hidden __ __ __ __ __ __ __ __ __ __ __ __ __ __
 72
    65
 73
     2
 40
1.905
 49
1.27
 74
     0
 49
-0.635
 74
     0
  0
LTYPE
  5
40
330
5
100
AcDbSymbolTableRecord
100
AcDbLinetypeTableRecord
  2
PHANTOM
 70
     0
  3
Phantom ______  __  __  ______  __  __  ______
 72
    65
 73
     6
 40
12.7
 49
6.35
 74
     0
 49
-1.27
 74
     0
 49
1.27
 74
     0
 49
-1.27
 74
     0
 49
1.27
 74
     0
 49
-1.27
 74
     0
  0
LTYPE
  5
41
330
5
100
AcDbSymbolTableRecord
100
AcDbLinetypeTableRecord
  2
CENTER
 70
     0
  3
Center ____ _ ____ _ ____ _ ____ _ ____ _ ____
 72
    65
 73
     4
 40
10.16
 49
6.35
 74
     0
 49
-1.27
 74
     0
 49
1.27
 74
     0
 49
-1.27
 74
     0
  0
LTYPE
  5
42
330
5
100
AcDbSymbolTableRecord
100
AcDbLinetypeTableRecord
  2
CENTERX2
 70
     0
  3
Center (2x) ________  __  ________  __  _____
 72
    65
 73
     4
 40
20.32
 49
12.7
 74
     0
 49
-2.54
 74
     0
 49
2.54
 74
     0
 49
-2.54
 74
     0
  0
LTYPE
  5
43
330
5
100
AcDbSymbolTableRecord
100
AcDbLinetypeTableRecord
  2
DOT2
 70
     0
  3
Dot (.5x) ........................................
 72
    65
 73
     2
 40
0.635
 49
0.0
 74
     0
 49
-0.635
 74
     0
  0
ENDTAB
  0
TABLE
  2
LAYER
  5
2
330
0
100
AcDbSymbolTable
 70
     1
  0
LAYER
  5
10
330
2
100
AcDbSymbolTableRecord
100
AcDbLayerTableRecord
  2
0
 70
     0
 62
     7
  6
Continuous
370
    -3
390
F
  0
ENDTAB
  0
TABLE
  2
STYLE
  5
3
330
0
100
AcDbSymbolTable
 70
     2
  0
STYLE
  5
11
330
3
100
AcDbSymbolTableRecord
100
AcDbTextStyleTableRecord
  2
Standard
 70
     0
 40
0.0
 41
1.0
 50
0.0
 71
     0
 42
2.5
  3
txt
  4

  0
STYLE
  5
18D
330
3
100
AcDbSymbolTableRecord
100
AcDbTextStyleTableRecord
  2
SLDTEXTSTYLE0
 70
     0
 40
0.0
 41
0.7
 50
0.0
 71
     0
 42
0.2
  3
TXT
  4

  0
ENDTAB
  0
TABLE
  2
VIEW
  5
6
330
0
100
AcDbSymbolTable
 70
     0
  0
ENDTAB
  0
TABLE
  2
UCS
  5
7
330
0
100
AcDbSymbolTable
 70
     0
  0
ENDTAB
  0
TABLE
  2
APPID
  5
9
330
0
100
AcDbSymbolTable
 70
     1
  0
APPID
  5
12
330
9
100
AcDbSymbolTableRecord
100
AcDbRegAppTableRecord
  2
ACAD
 70
     0
  0
ENDTAB
  0
TABLE
  2
DIMSTYLE
  5
A
330
0
100
AcDbSymbolTable
 70
     1
100
AcDbDimStyleTable
  0
DIMSTYLE
105
27
330
A
100
AcDbSymbolTableRecord
100
AcDbDimStyleTableRecord
  2
ISO-25
 70
     0
 41
2.5
 42
0.625
 43
3.75
 44
1.25
 73
     0
 74
     0
 77
     1
 78
     8
140
2.5
141
2.5
143
0.0393700787
147
0.625
171
     3
172
     1
178
     0
271
     2
272
     2
274
     3
278
    44
283
     0
284
     8
340
11
  0
ENDTAB
  0
TABLE
  2
BLOCK_RECORD
  5
1
330
0
100
AcDbSymbolTable
 70
     1
  0
BLOCK_RECORD
  5
1F
330
1
100
AcDbSymbolTableRecord
100
AcDbBlockTableRecord
  2
*Model_Space
340
22
  0
BLOCK_RECORD
  5
1B
330
1
100
AcDbSymbolTableRecord
100
AcDbBlockTableRecord
  2
*Paper_Space
340
1E
  0
BLOCK_RECORD
  5
23
330
1
100
AcDbSymbolTableRecord
100
AcDbBlockTableRecord
  2
*Paper_Space0
340
26
  0
ENDTAB
  0
ENDSEC
  0
SECTION
  2
BLOCKS
  0
BLOCK
  5
20
330
1F
100
AcDbEntity
  8
0
100
AcDbBlockBegin
  2
*Model_Space
 70
     0
 10
0.0
 20
0.0
 30
0.0
  3
*Model_Space
  1

  0
ENDBLK
  5
21
330
1F
100
AcDbEntity
  8
0
100
AcDbBlockEnd
  0
BLOCK
  5
1C
330
1B
100
AcDbEntity
 67
     1
  8
0
100
AcDbBlockBegin
  2
*Paper_Space
 70
     0
 10
0.0
 20
0.0
 30
0.0
  3
*Paper_Space
  1

  0
ENDBLK
  5
1D
330
1B
100
AcDbEntity
 67
     1
  8
0
100
AcDbBlockEnd
  0
BLOCK
  5
24
330
23
100
AcDbEntity
  8
0
100
AcDbBlockBegin
  2
*Paper_Space0
 70
     0
 10
0.0
 20
0.0
 30
0.0
  3
*Paper_Space0
  1

  0
ENDBLK
  5
25
330
23
100
AcDbEntity
  8
0
100
AcDbBlockEnd
  0
ENDSEC
  0
SECTION
  2
ENTITIES
  0
SPLINE
  5
51
330
1F
100
AcDbEntity
  8
0
  6
Continuous
 62
     7
370
    15
100
AcDbSpline
210
0.0
220
0.0
230
1.0
 70
     8
 71
     3
 72
    16
 73
    12
 74
     0
 42
0.00000001
 43
0.00000001
 12
1.0
 22
0.0
 32
0.0
 13
1.0
 23
0.0
 33
0.0
 40
0.0
 40
0.0
 40
0.0
 40
0.0
 40
0.0643988044344744
 40
0.1942932920263587
 40
0.325928643572471
 40
0.459030546235849
 40
0.592698700569556
 40
0.7257438112303872
 40
0.8572202244371894
 40
0.9787505687025598
 40
1.0
 40
1.0
 40
1.0
 40
1.0
 10
-16.01119264810822
 20
0.6552397955116186
 30
0.0
 10
-16.03798757696467
 20
0.6445461331588704
 30
0.0
 10
-16.11882875069221
 20
0.6122830052859314
 30
0.0
 10
-16.27520964010174
 20
0.5681812530276432
 30
0.0
 10
-16.48102346670822
 20
0.5340895842894985
 30
0.0
 10
-16.69809426698256
 20
0.5227557525893742
 30
0.0
 10
-16.91487240511821
 20
0.5353886631165612
 30
0.0
 10
-17.12006966408662
 20
0.5708467833440491
 30
0.0
 10
-17.29876042406199
 20
0.6241404225802941
 30
0.0
 10
-17.40632668165798
 20
0.671007847855969
 30
0.0
 10
-17.45414897715224
 20
0.696371443477178
 30
0.0
 10
-17.46126620771648
 20
0.7001462216660679
 30
0.0
  0
SPLINE
  5
56
330
1F
100
AcDbEntity
  8
0
  6
Continuous
 62
     7
370
    15
100
AcDbSpline
210
0.0
220
0.0
230
1.0
 70
     8
 71
     3
 72
    32
 73
    28
 74
     0
 42
0.00000001
 43
0.00000001
 12
1.0
 22
0.0
 32
0.0
 13
1.0
 23
0.0
 33
0.0
 40
0.0
 40
0.0
 40
0.0
 40
0.0
 40
0.0433362149370466
 40
0.0865725452069029
 40
0.1316864095507365
 40
0.1774135330787786
 40
0.2220993334442365
 40
0.2658904624399295
 40
0.3085694350942793
 40
0.3503982533719678
 40
0.3917480873988842
 40
0.4325895747013702
 40
0.4729011577879179
 40
0.5126702062210273
 40
0.5518924096443814
 40
0.5905711036469136
 40
0.6287732123265076
 40
0.6665507409767859
 40
0.704505430103011
 40
0.7426966026915781
 40
0.7810768980638864
 40
0.8195957563246692
 40
0.8581998098072352
 40
0.8968337365803021
 40
0.9354321291384248
 40
0.969129329333746
 40
1.0
 40
1.0
 40
1.0
 40
1.0
 10
-3.382092232778619
 20
20.92265654302027
 30
0.0
 10
-3.880158656736597
 20
20.88127499429671
 30
0.0
 10
-4.875143522553333
 20
20.79860727625056
 30
0.0
 10
-6.383284723680698
 20
20.64356393471974
 30
0.0
 10
-7.911911727187539
 20
20.45655646179227
 30
0.0
 10
-9.448605471666736
 20
20.23684888612178
 30
0.0
 10
-10.9599965378261
 20
19.98746990578142
 30
0.0
 10
-12.42546410643197
 20
19.71253050085311
 30
0.0
 10
-13.84566022510693
 20
19.4119245447484
 30
0.0
 10
-15.22423539084613
 20
19.08635083742797
 30
0.0
 10
-16.5667508811333
 20
18.7353804370083
 30
0.0
 10
-17.87543640647934
 20
18.3588824888582
 30
0.0
 10
-19.148357337891
 20
17.95778072612376
 30
0.0
 10
-20.38388962609976
 20
17.53299234834826
 30
0.0
 10
-21.58068389021685
 20
17.08537070378614
 30
0.0
 10
-22.73830349669501
 20
16.61561088573206
 30
0.0
 10
-23.85654293416552
 20
16.12372729795349
 30
0.0
 10
-24.94157539255409
 20
15.60829241362275
 30
0.0
 10
-25.99962224595424
 20
15.06736037782124
 30
0.0
 10
-27.03506670088793
 20
14.49863251270224
 30
0.0
 10
-28.04611779867285
 20
13.90277099480117
 30
0.0
 10
-29.03002555843991
 20
13.28103732964338
 30
0.0
 10
-29.98408243097473
 20
12.63489180284031
 30
0.0
 10
-30.90557456488465
 20
11.96570829869233
 30
0.0
 10
-31.75507311987164
 20
11.30459477141556
 30
0.0
 10
-32.51570013477826
 20
10.66993241153665
 30
0.0
 10
-32.96882915230363
 20
10.2635460587214
 30
0.0
 10
-33.1854755506236
 20
10.06924788698959
 30
0.0
  0
SPLINE
  5
57
330
1F
100
AcDbEntity
  8
0
  6
Continuous
 62
     7
370
    15
100
AcDbSpline
210
0.0
220
0.0
230
1.0
 70
     8
 71
     3
 72
    13
 73
     9
 74
     0
 42
0.00000001
 43
0.00000001
 12
1.0
 22
0.0
 32
0.0
 13
1.0
 23
0.0
 33
0.0
 40
0.0
 40
0.0
 40
0.0
 40
0.0
 40
0.099820457003494
 40
0.3034244455107487
 40
0.5084465599448861
 40
0.7137557966173679
 40
0.9173737231057368
 40
1.0
 40
1.0
 40
1.0
 40
1.0
 10
-7.505185018098241
 20
-7.168563408714147
 30
0.0
 10
-7.472672235865144
 20
-7.161455428887965
 30
0.0
 10
-7.373843065800898
 20
-7.139849288200931
 30
0.0
 10
-7.196554033000256
 20
-7.119077978405294
 30
0.0
 10
-6.97800229341548
 20
-7.116531600894633
 30
0.0
 10
-6.765625061576926
 20
-7.138976621734112
 30
0.0
 10
-6.602148167371615
 20
-7.17184355617989
 30
0.0
 10
-6.522992690801786
 20
-7.200798504969118
 30
0.0
 10
-6.500143940512812
 20
-7.20915654187553
 30
0.0
  0
SPLINE
  5
59
330
1F
100
AcDbEntity
  8
0
  6
Continuous
 62
     7
370
    15
100
AcDbSpline
210
0.0
220
0.0
230
1.0
 70
     8
 71
     3
 72
    10
 73
     6
 74
     0
 42
0.00000001
 43
0.00000001
 12
1.0
 22
0.0
 32
0.0
 13
1.0
 23
0.0
 33
0.0
 40
0.0
 40
0.0
 40
0.0
 40
0.0
 40
0.2398264900686098
 40
0.7125492418163182
 40
1.0
 40
1.0
 40
1.0
 40
1.0
 10
-7.915507547957371
 20
4.103754426871922
 30
0.0
 10
-7.929679615084211
 20
4.092526179183229
 30
0.0
 10
-7.971786288468422
 20
4.059165897025848
 30
0.0
 10
-8.054704187182121
 20
4.007660665390254
 30
0.0
 10
-8.134095735428966
 20
3.972037901691355
 30
0.0
 10
-8.16411672463575
 20
3.958567568537059
 30
0.0
  0
SPLINE
  5
5A
330
1F
100
AcDbEntity
  8
0
  6
Continuous
 62
     7
370
    15
100
AcDbSpline
210
0.0
220
0.0
230
1.0
 70
     8
 71
     3
 72
    37
 73
    33
 74
     0
 42
0.00000001
 43
0.00000001
 12
1.0
 22
0.0
 32
0.0
 13
1.0
 23
0.0
 33
0.0
 40
0.0
 40
0.0
 40
0.0
 40
0.0
 40
0.0149736767159236
 40
0.0393207154941857
 40
0.0632340408904768
 40
0.0882193333239886
 40
0.1137403187356261
 40
0.1399642136504989
 40
0.1670467785278981
 40
0.1951425190138789
 40
0.2244032109635855
 40
0.2549761077111193
 40
0.287001432851405
 40
0.3206088699942231
 40
0.3558248320834989
 40
0.3938705732377604
 40
0.4392694445562163
 40
0.4905333012363722
 40
0.5530665695449978
 40
0.6244025054625943
 40
0.6755941279140482
 40
0.7193054290553371
 40
0.7579655982577034
 40
0.7929811304904893
 40
0.8253177843358966
 40
0.8556408922618175
 40
0.8844441986481072
 40
0.9099913846474402
 40
0.9369621182219342
 40
0.9634979183495228
 40
0.9901530739946067
 40
1.0
 40
1.0
 40
1.0
 40
1.0
 10
-29.67573937096059
 20
1.536905688046987
 30
0.0
 10
-29.55333183595187
 20
1.510542639183829
 30
0.0
 10
-29.23189095341273
 20
1.441313553797919
 30
0.0
 10
-28.70511509385907
 20
1.351240349335026
 30
0.0
 10
-28.08673042176463
 20
1.272628487739916
 30
0.0
 10
-27.45157882740683
 20
1.224315732581988
 30
0.0
 10
-26.79317769565863
 20
1.205089960241677
 30
0.0
 10
-26.11604738562561
 20
1.216087705455952
 30
0.0
 10
-25.41888683722683
 20
1.257667139568302
 30
0.0
 10
-24.70042168139947
 20
1.330532118101992
 30
0.0
 10
-23.95941992841238
 20
1.435511868008723
 30
0.0
 10
-23.19471908376519
 20
1.573585694739888
 30
0.0
 10
-22.40535803556008
 20
1.745814634524112
 30
0.0
 10
-21.59111951571213
 20
1.953135026928952
 30
0.0
 10
-20.74389368708001
 20
2.198826466471718
 30
0.0
 10
-19.81685176412214
 20
2.491594857882065
 30
0.0
 10
-18.78009013196359
 20
2.845380309407701
 30
0.0
 10
-17.57102822252318
 20
3.282994149650232
 30
0.0
 10
-16.17760991837815
 20
3.805182172171918
 30
0.0
 10
-14.78326200136442
 20
4.322198715420247
 30
0.0
 10
-13.51597438910864
 20
4.766901800920218
 30
0.0
 10
-12.4834312954383
 20
5.103642895341126
 30
0.0
 10
-11.56054650641845
 20
5.376736981729599
 30
0.0
 10
-10.71248197442294
 20
5.599580953362923
 30
0.0
 10
-9.917740014739492
 20
5.780424164878241
 30
0.0
 10
-9.161785943088178
 20
5.924697976332421
 30
0.0
 10
-8.452277844167414
 20
6.033379162825093
 30
0.0
 10
-7.763552544615465
 20
6.113108490909154
 30
0.0
 10
-7.087506472068092
 20
6.160870699019148
 30
0.0
 10
-6.399373129239638
 20
6.177271188310834
 30
0.0
 10
-5.857423021189566
 20
6.172268110519696
 30
0.0
 10
-5.545941768441765
 20
6.151487752204531
 30
0.0
 10
-5.461915523658141
 20
6.145881971891662
 30
0.0
  0
SPLINE
  5
5D
330
1F
100
AcDbEntity
  8
0
  6
Continuous
 62
     7
370
    15
100
AcDbSpline
210
0.0
220
0.0
230
1.0
 70
     8
 71
     3
 72
    11
 73
     7
 74
     0
 42
0.00000001
 43
0.00000001
 12
1.0
 22
0.0
 32
0.0
 13
1.0
 23
0.0
 33
0.0
 40
0.0
 40
0.0
 40
0.0
 40
0.0
 40
0.044202828238817
 40
0.4198100961076847
 40
0.7610851882165542
 40
1.0
 40
1.0
 40
1.0
 40
1.0
 10
-0.6675103124079715
 20
10.16288552612669
 30
0.0
 10
-0.6674173499731173
 20
10.16333649843375
 30
0.0
 10
-0.6665344524241146
 20
10.16761954400144
 30
0.0
 10
-0.6728149629155398
 20
10.15030826149879
 30
0.0
 10
-0.7015315161046877
 20
10.11161923171876
 30
0.0
 10
-0.7410802550644746
 20
10.07610746511696
 30
0.0
 10
-0.7573659219839808
 20
10.06148417199027
 30
0.0
  0
SPLINE
  5
5F
330
1F
100
AcDbEntity
  8
0
  6
Continuous
 62
     7
370
    15
100
AcDbSpline
210
0.0
220
0.0
230
1.0
 70
     8
 71
     3
 72
    10
 73
     6
 74
     0
 42
0.00000001
 43
0.00000001
 12
1.0
 22
0.0
 32
0.0
 13
1.0
 23
0.0
 33
0.0
 40
0.0
 40
0.0
 40
0.0
 40
0.0
 40
0.2775727073558276
 40
0.843860904709938
 40
0.9999999999999999
 40
0.9999999999999999
 40
0.9999999999999999
 40
0.9999999999999999
 10
7.255062154846977
 20
-0.1984354485468024
 30
0.0
 10
7.258391480979726
 20
-0.1932643168978398
 30
0.0
 10
7.268513110693322
 20
-0.1775433338327571
 30
0.0
 10
7.297297784588963
 20
-0.1436090883447268
 30
0.0
 10
7.331364147399577
 20
-0.1143846143110833
 30
0.0
 10
7.338726952104262
 20
-0.1080682929561136
 30
0.0
  0
SPLINE
  5
62
330
1F
100
AcDbEntity
  8
0
  6
Continuous
 62
     7
370
    15
100
AcDbSpline
210
0.0
220
0.0
230
1.0
 70
     8
 71
     3
 72
    18
 73
    14
 74
     0
 42
0.00000001
 43
0.00000001
 12
1.0
 22
0.0
 32
0.0
 13
1.0
 23
0.0
 33
0.0
 40
0.0
 40
0.0
 40
0.0
 40
0.0
 40
0.0108674253290752
 40
0.1204232854867647
 40
0.218732958241257
 40
0.3128672346807472
 40
0.4121681417850825
 40
0.5197457185262656
 40
0.6275290457190696
 40
0.7354748384133878
 40
0.8435278121187166
 40
0.9516316904187063
 40
1.0
 40
1.0
 40
1.0
 40
1.0
 10
15.39974353386277
 20
6.029640153280046
 30
0.0
 10
15.45563163127554
 20
6.052794472733559
 30
0.0
 10
16.07493455779699
 20
6.309370353162412
 30
0.0
 10
17.21435469281274
 20
6.758540099377062
 30
0.0
 10
18.80034893530529
 20
7.36322431443133
 30
0.0
 10
20.35513079385442
 20
7.919403352830992
 30
0.0
 10
21.97783096772878
 20
8.470039906894904
 30
0.0
 10
23.69295205547427
 20
9.019718225850738
 30
0.0
 10
25.47459363808872
 20
9.556324684748743
 30
0.0
 10
27.27689674045919
 20
10.06580739454817
 30
0.0
 10
29.09913041938251
 20
10.54539626219853
 30
0.0
 10
30.59702251649538
 20
10.91837312793754
 30
0.0
 10
31.49258509421075
 20
11.1204646495847
 30
0.0
 10
31.76941926260127
 20
11.18293469883204
 30
0.0
  0
SPLINE
  5
66
330
1F
100
AcDbEntity
  8
0
  6
Continuous
 62
     7
370
    15
100
AcDbSpline
210
0.0
220
0.0
230
1.0
 70
     8
 71
     3
 72
    28
 73
    24
 74
     0
 42
0.00000001
 43
0.00000001
 12
1.0
 22
0.0
 32
0.0
 13
1.0
 23
0.0
 33
0.0
 40
0.0
 40
0.0
 40
0.0
 40
0.0
 40
0.0058706658763849
 40
0.0462802209896342
 40
0.0872323765694432
 40
0.1297469535574085
 40
0.1741065122962959
 40
0.2209672796696943
 40
0.2727780597354297
 40
0.3319583230986438
 40
0.403033969160703
 40
0.4990331299716119
 40
0.5835978207552475
 40
0.6399630697205484
 40
0.6908773330907634
 40
0.73759770932127
 40
0.7797638609217942
 40
0.8249709361413144
 40
0.8691051600317115
 40
0.9124579317545947
 40
0.9549330731859953
 40
0.9948593344615874
 40
1.0
 40
1.0
 40
1.0
 40
1.0
 10
9.158774793941477
 20
18.77411195507834
 30
0.0
 10
9.132927636286809
 20
18.77290376285235
 30
0.0
 10
8.929166735326051
 20
18.763379220936
 30
0.0
 10
8.543619775437238
 20
18.77284469587031
 30
0.0
 10
7.999935857425358
 20
18.804663577383
 30
0.0
 10
7.445089734069219
 20
18.86812519441887
 30
0.0
 10
6.874414241841603
 20
18.96143253013559
 30
0.0
 10
6.276371864151399
 20
19.08833565673229
 30
0.0
 10
5.630178850034747
 20
19.25357167400381
 30
0.0
 10
4.899640097415458
 20
19.46839265237828
 30
0.0
 10
4.006199407485946
 20
19.75804530921012
 30
0.0
 10
3.019374763549163
 20
20.09342165615183
 30
0.0
 10
2.079760483558988
 20
20.39975024525435
 30
0.0
 10
1.301820464849269
 20
20.6255781287361
 30
0.0
 10
0.6638035833394247
 20
20.78503645589332
 30
0.0
 10
0.0726071019532589
 20
20.90567509246777
 30
0.0
 10
-0.5046817222387496
 20
20.9954201318108
 30
0.0
 10
-1.07951782077121
 20
21.05121615222639
 30
0.0
 10
-1.664389772237788
 20
21.07387765117764
 30
0.0
 10
-2.238152058433462
 20
21.06178386684927
 30
0.0
 10
-2.790549109775775
 20
21.01700594361155
 30
0.0
 10
-3.16939072196293
 20
20.96006919589339
 30
0.0
 10
-3.362959469720733
 20
20.92839188295623
 30
0.0
 10
-3.385039346500859
 20
20.9247785353757
 30
0.0
  0
SPLINE
  5
6A
330
1F
100
AcDbEntity
  8
0
  6
Continuous
 62
     7
370
    15
100
AcDbSpline
210
0.0
220
0.0
230
1.0
 70
     8
 71
     3
 72
    13
 73
     9
 74
     0
 42
0.00000001
 43
0.00000001
 12
1.0
 22
0.0
 32
0.0
 13
1.0
 23
0.0
 33
0.0
 40
0.0
 40
0.0
 40
0.0
 40
0.0
 40
0.0929704118764156
 40
0.2762246842495991
 40
0.4607319391720433
 40
0.6477405424912146
 40
0.8377166761791646
 40
1.0
 40
1.0
 40
1.0
 40
1.0
 10
10.03651923680373
 20
19.0452475614379
 30
0.0
 10
10.02237319049699
 20
19.03400762139137
 30
0.0
 10
9.980343827653543
 20
19.0006126000327
 30
0.0
 10
9.880775129037179
 20
18.93985694239083
 30
0.0
 10
9.728003380364806
 20
18.87249841034777
 30
0.0
 10
9.545251872458183
 20
18.81805879035893
 30
0.0
 10
9.3518396261818
 20
18.7825746282618
 30
0.0
 10
9.21979533030934
 20
18.77551168069159
 30
0.0
 10
9.158963500903514
 20
18.77225783304256
 30
0.0
  0
LWPOLYLINE
  5
70
330
1F
100
AcDbEntity
  8
0
  6
Continuous
 62
     7
370
    15
100
AcDbPolyline
 90
       37
 70
   128
 43
0.0
 10
-2.5775412717
 20
1.3279328322
 10
-2.3855172852
 20
1.5029774134
 10
-2.2376358726
 20
1.6962310286
 10
-2.137742464
 20
1.9026684129
 10
-2.088434635
 20
2.1169214774
 10
-2.0909945603
 20
2.3334188985
 10
-2.1453556731
 20
2.5465309912
 10
-2.2501043956
 20
2.7507161013
 10
-2.4025168973
 20
2.9406647068
 10
-2.5986299238
 20
3.1114374842
 10
-2.8333438555
 20
3.2585937485
 10
-3.1005553151
 20
3.3783069257
 10
-3.3933158767
 20
3.4674640574
 10
-3.704012749
 20
3.5237467487
 10
-4.0245667345
 20
3.5456914542
 10
-4.3466423164
 20
3.5327275352
 10
-4.6618644112
 20
3.4851920987
 10
-4.9620361496
 20
3.4043212311
 10
-5.2393520242
 20
3.2922178559
 10
-5.4866008593
 20
3.15179705
 10
-5.6973533264
 20
2.986710242
 10
-5.8661291296
 20
2.8012502622
 10
-5.988539512
 20
2.6002397141
 10
-6.0614013785
 20
2.3889055701
 10
-6.0828200676
 20
2.1727432516
 10
-6.0522386189
 20
1.9573737297
 10
-5.9704522563
 20
1.7483973598
 10
-5.8395877094
 20
1.5512482531
 10
-5.6630479106
 20
1.3710529712
 10
-5.4454235079
 20
1.212497217
 10
-5.1923734915
 20
1.0797039908
 10
-4.9104780404
 20
0.9761263776
 10
-4.6070674154
 20
0.9044577549
 10
-4.2900313462
 20
0.866561756
 10
-3.9676138718
 20
0.8634238083
 10
-3.6481989659
 20
0.8951255094
 10
-3.3400925253
 20
0.960842505
  0
LWPOLYLINE
  5
81
330
1F
100
AcDbEntity
  8
0
  6
Continuous
 62
     7
370
    15
100
AcDbPolyline
 90
       11
 70
   128
 43
0.0
 10
-0.6391557878
 20
12.0250338644
 10
-0.3639336608
 20
11.8914823154
 10
-0.1268957146
 20
11.7282912002
 10
0.0650687876
 20
11.5402035001
 10
0.2063805957
 20
11.3326857898
 10
0.2929326279
 20
11.1117693575
 10
0.3222093387
 20
10.8838749111
 10
0.2933598307
 20
10.6556259675
 10
0.2072225852
 20
10.4336563465
 10
0.0663010922
 20
10.2244173661
 10
-0.1253089106
 20
10.0339903411
  0
SPLINE
  5
82
330
1F
100
AcDbEntity
  8
0
  6
Continuous
 62
     7
370
    15
100
AcDbSpline
210
0.0
220
0.0
230
1.0
 70
     8
 71
     3
 72
    36
 73
    32
 74
     0
 42
0.00000001
 43
0.00000001
 12
1.0
 22
0.0
 32
0.0
 13
1.0
 23
0.0
 33
0.0
 40
0.0
 40
0.0
 40
0.0
 40
0.0
 40
0.0625
 40
0.0625
 40
0.09375
 40
0.09375
 40
0.1250000000000001
 40
0.1250000000000001
 40
0.1875000000000001
 40
0.1875000000000001
 40
0.2500000000000002
 40
0.2500000000000002
 40
0.3750000000000003
 40
0.3750000000000003
 40
0.5000000000000004
 40
0.5000000000000004
 40
0.6250000000000006
 40
0.6250000000000006
 40
0.7500000000000006
 40
0.7500000000000006
 40
0.7812500000000004
 40
0.7812500000000004
 40
0.8125000000000003
 40
0.8125000000000003
 40
0.8750000000000002
 40
0.8750000000000002
 40
0.9062500000000002
 40
0.9062500000000002
 40
0.9375000000000002
 40
0.9375000000000002
 40
1.0
 40
1.0
 40
1.0
 40
1.0
 10
-29.5135295621157
 20
8.44400018013938
 30
0.0
 10
-28.90307459144313
 20
8.304313152048131
 30
0.0
 10
-28.28294616168741
 20
8.211177412972438
 30
0.0
 10
-27.33816924446299
 20
8.141657249869032
 30
0.0
 10
-27.02082231761343
 20
8.130135750703774
 30
0.0
 10
-26.38140138136393
 20
8.12984074604445
 30
0.0
 10
-26.05750407564948
 20
8.141242413440812
 30
0.0
 10
-25.09702914355359
 20
8.206542302770822
 30
0.0
 10
-24.46953995462094
 20
8.2907113489046
 30
0.0
 10
-23.23299349461592
 20
8.517439573609506
 30
0.0
 10
-22.62164547617158
 20
8.66076254832785
 30
0.0
 10
-20.83180022816578
 20
9.143474255977727
 30
0.0
 10
-19.68953796654426
 20
9.534454115711059
 30
0.0
 10
-17.43085200603193
 20
10.35148112934825
 30
0.0
 10
-16.31524094887308
 20
10.77916155873117
 30
0.0
 10
-14.05586959410353
 20
11.59410248577419
 30
0.0
 10
-12.91505793158254
 20
11.98117370999425
 30
0.0
 10
-10.56271146006007
 20
12.62564688676603
 30
0.0
 10
-9.351852370354743
 20
12.8842877551939
 30
0.0
 10
-7.753059207981208
 20
13.05134120265877
 30
0.0
 10
-7.427801398704585
 20
13.07675452140614
 30
0.0
 10
-6.781941171339894
 20
13.10864728704366
 30
0.0
 10
-6.459826325142106
 20
13.1153435212287
 30
0.0
 10
-5.496035741811722
 20
13.10645465968943
 30
0.0
 10
-4.856917515251062
 20
13.06185166079658
 30
0.0
 10
-3.903701595828677
 20
12.93298105736688
 30
0.0
 10
-3.587053231502796
 20
12.87958960351831
 30
0.0
 10
-2.968640683886227
 20
12.75487525831933
 30
0.0
 10
-2.66515346844577
 20
12.68335491605217
 30
0.0
 10
-1.770685324820635
 20
12.4431688353761
 30
0.0
 10
-1.19567409299914
 20
12.24891618599235
 30
0.0
 10
-0.6391557878494183
 20
12.02503386440601
 30
0.0
  0
SPLINE
  5
84
330
1F
100
AcDbEntity
  8
0
  6
Continuous
 62
     7
370
    15
100
AcDbSpline
210
0.0
220
0.0
230
1.0
 70
     8
 71
     3
 72
    25
 73
    21
 74
     0
 42
0.00000001
 43
0.00000001
 12
1.0
 22
0.0
 32
0.0
 13
1.0
 23
0.0
 33
0.0
 40
0.0
 40
0.0
 40
0.0
 40
0.0
 40
0.1250000000000001
 40
0.1250000000000001
 40
0.2500000000000002
 40
0.2500000000000002
 40
0.3125000000000002
 40
0.3125000000000002
 40
0.3750000000000002
 40
0.3750000000000002
 40
0.5000000000000002
 40
0.6250000000000004
 40
0.6250000000000004
 40
0.6875000000000003
 40
0.6875000000000003
 40
0.7500000000000002
 40
0.7500000000000002
 40
0.8750000000000001
 40
0.8750000000000001
 40
1.0
 40
1.0
 40
1.0
 40
1.0
 10
-3.263050424206328
 20
20.67039100538902
 30
0.0
 10
-4.683033140660618
 20
20.56060634438445
 30
0.0
 10
-6.092694345147605
 20
20.41966318447921
 30
0.0
 10
-8.886358227577972
 20
20.06031910715852
 30
0.0
 10
-10.27074490472645
 20
19.84307740351405
 30
0.0
 10
-12.32615800753713
 20
19.4533163383339
 30
0.0
 10
-13.0077626516364
 20
19.31273041916463
 30
0.0
 10
-14.36341703183345
 20
19.00875188415173
 30
0.0
 10
-15.039081789629
 20
18.84490967328344
 30
0.0
 10
-17.03803422661047
 20
18.32102620221069
 30
0.0
 10
-19.63160473210313
 20
17.53612915240743
 30
0.0
 10
-22.0738778585497
 20
16.56894415579363
 30
0.0
 10
-23.84565112840203
 20
15.77134791986531
 30
0.0
 10
-24.426251178198
 20
15.4934449814773
 30
0.0
 10
-25.56690672095657
 20
14.91288636207676
 30
0.0
 10
-26.12793051586607
 20
14.60962773848837
 30
0.0
 10
-27.76726285985541
 20
13.66886659110416
 30
0.0
 10
-28.80574138265699
 20
12.99806450575028
 30
0.0
 10
-30.7563012904904
 20
11.58732841755777
 30
0.0
 10
-31.67105281746709
 20
10.84607765779956
 30
0.0
 10
-32.52893242233589
 20
10.07111184689406
 30
0.0
  0
SPLINE
  5
85
330
1F
100
AcDbEntity
  8
0
  6
Continuous
 62
     7
370
    15
100
AcDbSpline
210
0.0
220
0.0
230
1.0
 70
     8
 71
     3
 72
    26
 73
    22
 74
     0
 42
0.00000001
 43
0.00000001
 12
1.0
 22
0.0
 32
0.0
 13
1.0
 23
0.0
 33
0.0
 40
0.0
 40
0.0
 40
0.0
 40
0.0
 40
0.2499999999999991
 40
0.2499999999999991
 40
0.3749999999999984
 40
0.3749999999999984
 40
0.4999999999999977
 40
0.4999999999999977
 40
0.6249999999999978
 40
0.6249999999999978
 40
0.7499999999999978
 40
0.7499999999999978
 40
0.8124999999999982
 40
0.8124999999999982
 40
0.8749999999999987
 40
0.8749999999999987
 40
0.9374999999999991
 40
0.9374999999999991
 40
0.9687499999999996
 40
0.9687499999999996
 40
1.0
 40
1.0
 40
1.0
 40
1.0
 10
9.177613486633687
 20
18.51372144089481
 30
0.0
 10
8.069298465796413
 20
18.48455261238697
 30
0.0
 10
7.010254738678515
 20
18.62971006725149
 30
0.0
 10
5.463704810764287
 20
18.99610145585466
 30
0.0
 10
4.959138338847136
 20
19.1416731800765
 30
0.0
 10
3.968538821050296
 20
19.45274289036896
 30
0.0
 10
3.480567042577072
 20
19.61880452628603
 30
0.0
 10
2.502731013683462
 20
19.94820922681552
 30
0.0
 10
2.012979000154383
 20
20.11171352181896
 30
0.0
 10
1.012691176645552
 20
20.40886579997436
 30
0.0
 10
0.5001250933743453
 20
20.54289994878965
 30
0.0
 10
-0.2854860035264341
 20
20.6909825311418
 30
0.0
 10
-0.5505347026425449
 20
20.73159118961499
 30
0.0
 10
-1.08886292435997
 20
20.79014322215457
 30
0.0
 10
-1.36436446157456
 20
20.80806100121938
 30
0.0
 10
-1.914027589190837
 20
20.81586766369458
 30
0.0
 10
-2.186751843638339
 20
20.80593800599033
 30
0.0
 10
-2.592675431824483
 20
20.77028202701986
 30
0.0
 10
-2.727458228928092
 20
20.75495001786878
 30
0.0
 10
-2.995994215958465
 20
20.7175273598727
 30
0.0
 10
-3.129615538056829
 20
20.69457109241194
 30
0.0
 10
-3.263050424206328
 20
20.67039100538903
 30
0.0
  0
SPLINE
  5
A9
330
1F
100
AcDbEntity
  8
0
  6
Continuous
 62
     7
370
    15
100
AcDbSpline
210
0.0
220
0.0
230
1.0
 70
     8
 71
     3
 72
    34
 73
    30
 74
     0
 42
0.00000001
 43
0.00000001
 12
1.0
 22
0.0
 32
0.0
 13
1.0
 23
0.0
 33
0.0
 40
0.0
 40
0.0
 40
0.0
 40
0.0
 40
0.0625000000000002
 40
0.0625000000000002
 40
0.0937500000000002
 40
0.0937500000000002
 40
0.1250000000000002
 40
0.1250000000000002
 40
0.1875000000000001
 40
0.1875000000000001
 40
0.21875
 40
0.21875
 40
0.25
 40
0.25
 40
0.375
 40
0.375
 40
0.5000000000000001
 40
0.5000000000000001
 40
0.6250000000000002
 40
0.6250000000000002
 40
0.7500000000000001
 40
0.7500000000000001
 40
0.8750000000000001
 40
0.8750000000000001
 40
0.9375000000000001
 40
0.9375000000000001
 40
0.96875
 40
0.96875
 40
1.0
 40
1.0
 40
1.0
 40
1.0
 10
-1.150784616481007
 20
10.70723835377042
 30
0.0
 10
-1.703644717009728
 20
10.92964901245553
 30
0.0
 10
-2.276232744001434
 20
11.12050594451109
 30
0.0
 10
-3.170189977430688
 20
11.35069051255343
 30
0.0
 10
-3.47403108295981
 20
11.41805337593409
 30
0.0
 10
-4.094431806677526
 20
11.53243654554204
 30
0.0
 10
-4.411568529466849
 20
11.57936269715442
 30
0.0
 10
-5.360607068761282
 20
11.68549958372982
 30
0.0
 10
-5.997215757829236
 20
11.71150625755293
 30
0.0
 10
-6.957520514967189
 20
11.68890593428662
 30
0.0
 10
-7.279369419743286
 20
11.67105427220735
 30
0.0
 10
-7.921106613850886
 20
11.61641438486087
 30
0.0
 10
-8.237005927985669
 20
11.58005101904125
 30
0.0
 10
-9.795706823014037
 20
11.36038887569039
 30
0.0
 10
-10.97767788342216
 20
11.0663867864142
 30
0.0
 10
-13.28317348770357
 20
10.37201786054867
 30
0.0
 10
-14.40640655603589
 20
9.969891362089758
 30
0.0
 10
-16.63887447805662
 20
9.146152945456759
 30
0.0
 10
-17.74737536289381
 20
8.723765868674032
 30
0.0
 10
-20.00553511817186
 20
7.934971285103655
 30
0.0
 10
-21.15419675065442
 20
7.567207420582009
 30
0.0
 10
-23.56531268311728
 20
6.986450740259336
 30
0.0
 10
-24.80143117322827
 20
6.781247795960736
 30
0.0
 10
-26.72104475244074
 20
6.704239311225594
 30
0.0
 10
-27.3543019807762
 20
6.718204991391592
 30
0.0
 10
-28.29370371364832
 20
6.801981110121717
 30
0.0
 10
-28.60509510751136
 20
6.840348777914702
 30
0.0
 10
-29.22435108643595
 20
6.9382190438943
 30
0.0
 10
-29.53274582916509
 20
6.997906438572662
 30
0.0
 10
-29.83561135606355
 20
7.067209478757807
 30
0.0
  0
SPLINE
  5
AF
330
1F
100
AcDbEntity
  8
0
  6
Continuous
 62
     7
370
    15
100
AcDbSpline
210
0.0
220
0.0
230
1.0
 70
     8
 71
     3
 72
    11
 73
     7
 74
     0
 42
0.00000001
 43
0.00000001
 12
1.0
 22
0.0
 32
0.0
 13
1.0
 23
0.0
 33
0.0
 40
0.0
 40
0.0
 40
0.0
 40
0.0
 40
0.2402768978358961
 40
0.6960924745246738
 40
0.9777873650919652
 40
1.0
 40
1.0
 40
1.0
 40
1.0
 10
-3.380876072167619
 20
20.9084356312487
 30
0.0
 10
-3.373575118176968
 20
20.91147789972702
 30
0.0
 10
-3.352423941449132
 20
20.92029148194118
 30
0.0
 10
-3.310676207272786
 20
20.82712382058323
 30
0.0
 10
-3.277491460536529
 20
20.72299145377719
 30
0.0
 10
-3.264034029351433
 20
20.67397371721738
 30
0.0
 10
-3.263050424206264
 20
20.67039100538912
 30
0.0
  0
SPLINE
  5
B3
330
1F
100
AcDbEntity
  8
0
  6
Continuous
 62
     7
370
    15
100
AcDbSpline
210
0.0
220
0.0
230
1.0
 70
     8
 71
     3
 72
    12
 73
     8
 74
     0
 42
0.00000001
 43
0.00000001
 12
1.0
 22
0.0
 32
0.0
 13
1.0
 23
0.0
 33
0.0
 40
0.0
 40
0.0
 40
0.0
 40
0.0
 40
0.1653306977868879
 40
0.3611647122545352
 40
0.6779776531422819
 40
0.9951926796895689
 40
1.0
 40
1.0
 40
1.0
 40
1.0
 10
26.1160514278261
 20
21.22509079668627
 30
0.0
 10
26.01397954556924
 20
21.22855189273136
 30
0.0
 10
25.79100364044062
 20
21.23611265291652
 30
0.0
 10
25.28697255074566
 20
21.20797485427835
 30
0.0
 10
24.62226921925147
 20
21.11150851515968
 30
0.0
 10
24.08441867255016
 20
20.972139732521
 30
0.0
 10
23.81444358169644
 20
20.8836416064241
 30
0.0
 10
23.81041325041591
 20
20.88232045948143
 30
0.0
  0
SPLINE
  5
B8
330
1F
100
AcDbEntity
  8
0
  6
Continuous
 62
     7
370
    15
100
AcDbSpline
210
0.0
220
0.0
230
1.0
 70
     8
 71
     3
 72
    10
 73
     6
 74
     0
 42
0.00000001
 43
0.00000001
 12
1.0
 22
0.0
 32
0.0
 13
1.0
 23
0.0
 33
0.0
 40
0.0
 40
0.0
 40
0.0
 40
0.0
 40
0.5000000000000003
 40
0.5000000000000003
 40
1.0
 40
1.0
 40
1.0
 40
1.0
 10
31.80637717810281
 20
16.7139984855185
 30
0.0
 10
28.70861687924978
 20
16.00426598431252
 30
0.0
 10
25.6771474052519
 20
15.17316634094545
 30
0.0
 10
19.77299287126984
 20
13.27042665348149
 30
0.0
 10
16.90644332639497
 20
12.2005869759635
 30
0.0
 10
14.13981737102341
 20
11.02109460351805
 30
0.0
  0
SPLINE
  5
B9
330
1F
100
AcDbEntity
  8
0
  6
Continuous
 62
     7
370
    15
100
AcDbSpline
210
0.0
220
0.0
230
1.0
 70
     8
 71
     3
 72
    24
 73
    20
 74
     0
 42
0.00000001
 43
0.00000001
 12
1.0
 22
0.0
 32
0.0
 13
1.0
 23
0.0
 33
0.0
 40
0.0
 40
0.0
 40
0.0
 40
0.0
 40
0.0312500000000001
 40
0.0312500000000001
 40
0.0625000000000002
 40
0.0625000000000002
 40
0.1250000000000005
 40
0.1250000000000005
 40
0.2500000000000009
 40
0.2500000000000009
 40
0.5
 40
0.5
 40
0.7499999999999991
 40
0.7499999999999991
 40
0.8749999999999994
 40
0.8749999999999994
 40
0.9374999999999998
 40
0.9374999999999998
 40
1.0
 40
1.0
 40
1.0
 40
1.0
 10
14.13981737102341
 20
11.02109460351805
 30
0.0
 10
14.13934198432736
 20
11.06709456916972
 30
0.0
 10
14.16614437507998
 20
11.1244398984119
 30
0.0
 10
14.22977466225533
 20
11.22708232384626
 30
0.0
 10
14.26777442570235
 20
11.27591298486683
 30
0.0
 10
14.38454715250038
 20
11.41457421787206
 30
0.0
 10
14.46802098049591
 20
11.49879854089832
 30
0.0
 10
14.72393794227807
 20
11.74357218714384
 30
0.0
 10
14.89951268533884
 20
11.89212616153472
 30
0.0
 10
15.42896188499301
 20
12.32070734665122
 30
0.0
 10
15.78829907601637
 20
12.58315383191877
 30
0.0
 10
16.51401021212592
 20
13.08698128168457
 30
0.0
 10
16.87977997293373
 20
13.32650073833934
 30
0.0
 10
17.43075431999254
 20
13.67017633619672
 30
0.0
 10
17.61489565024251
 20
13.78212635572794
 30
0.0
 10
17.89182958230724
 20
13.94620828615939
 30
0.0
 10
17.98426136527608
 20
14.0002594357676
 30
0.0
 10
18.16936711541209
 20
14.10706125160506
 30
0.0
 10
18.26087846412631
 20
14.15915675759461
 30
0.0
 10
18.35494358244217
 20
14.211955924368
 30
0.0
  0
SPLINE
  5
BA
330
1F
100
AcDbEntity
  8
0
  6
Continuous
 62
     7
370
    15
100
AcDbSpline
210
0.0
220
0.0
230
1.0
 70
     8
 71
     3
 72
    10
 73
     6
 74
     0
 42
0.00000001
 43
0.00000001
 12
1.0
 22
0.0
 32
0.0
 13
1.0
 23
0.0
 33
0.0
 40
0.0
 40
0.0
 40
0.0
 40
0.0
 40
0.5
 40
0.5
 40
1.0
 40
1.0
 40
1.0
 40
1.0
 10
18.35494358244217
 20
14.21195592436801
 30
0.0
 10
20.45733272055085
 20
14.98395674695391
 30
0.0
 10
22.60827713050944
 20
15.69496974298118
 30
0.0
 10
26.98905863553962
 20
16.9887356539333
 30
0.0
 10
29.2173377089976
 20
17.57124619206363
 30
0.0
 10
31.48295177317303
 20
18.0903244232388
 30
0.0
  0
SPLINE
  5
C0
330
1F
100
AcDbEntity
  8
0
  6
Continuous
 62
     7
370
    15
100
AcDbSpline
210
0.0
220
0.0
230
1.0
 70
     8
 71
     3
 72
    12
 73
     8
 74
     0
 42
0.00000001
 43
0.00000001
 12
1.0
 22
0.0
 32
0.0
 13
1.0
 23
0.0
 33
0.0
 40
0.0
 40
0.0
 40
0.0
 40
0.0
 40
0.25
 40
0.25
 40
0.5
 40
0.5
 40
1.0
 40
1.0
 40
1.0
 40
1.0
 10
14.19343092583593
 20
5.83327235205767
 30
0.0
 10
15.57666143523577
 20
6.422983379673552
 30
0.0
 10
16.98545871575588
 20
6.985607990573039
 30
0.0
 10
19.84676817314265
 20
8.052643364337314
 30
0.0
 10
21.29982658418318
 20
8.557328259132833
 30
0.0
 10
25.72677267497369
 20
9.984164109649917
 30
0.0
 10
28.76237752848589
 20
10.8164774338764
 30
0.0
 10
31.85999073291534
 20
11.52617623405811
 30
0.0
  0
SPLINE
  5
C9
330
1F
100
AcDbEntity
  8
0
  6
Continuous
 62
     7
370
    15
100
AcDbSpline
210
0.0
220
0.0
230
1.0
 70
     8
 71
     3
 72
    14
 73
    10
 74
     0
 42
0.00000001
 43
0.00000001
 12
1.0
 22
0.0
 32
0.0
 13
1.0
 23
0.0
 33
0.0
 40
0.0
 40
0.0
 40
0.0
 40
0.0
 40
0.033886627489157
 40
0.0780067419933102
 40
0.1586886575927477
 40
0.2944207538396426
 40
0.4308214545846781
 40
0.858050554142197
 40
1.0
 40
1.0
 40
1.0
 40
1.0
 10
14.19343092583593
 20
5.83327235205767
 30
0.0
 10
14.19535267152383
 20
5.819218198565354
 30
0.0
 10
14.19977651453094
 20
5.786865651066781
 30
0.0
 10
14.24026658200884
 20
5.749751372811444
 30
0.0
 10
14.33120711678645
 20
5.728737976318745
 30
0.0
 10
14.47303493352219
 20
5.738835401504542
 30
0.0
 10
14.76963322349726
 20
5.807556820099215
 30
0.0
 10
15.07757153390532
 20
5.902295173474327
 30
0.0
 10
15.33266298301995
 20
6.010978672014467
 30
0.0
 10
15.39628113963628
 20
6.038083633218518
 30
0.0
  0
SPLINE
  5
CA
330
1F
100
AcDbEntity
  8
0
  6
Continuous
 62
     7
370
    15
100
AcDbSpline
210
0.0
220
0.0
230
1.0
 70
     8
 71
     3
 72
    12
 73
     8
 74
     0
 42
0.00000001
 43
0.00000001
 12
1.0
 22
0.0
 32
0.0
 13
1.0
 23
0.0
 33
0.0
 40
0.0
 40
0.0
 40
0.0
 40
0.0
 40
0.2500000000000014
 40
0.2500000000000014
 40
0.5000000000000029
 40
0.5000000000000029
 40
1.0
 40
1.0
 40
1.0
 40
1.0
 10
18.21123472625608
 20
25.61291051908697
 30
0.0
 10
18.07588173832928
 20
25.62868830329863
 30
0.0
 10
17.96742577695991
 20
25.60424474992901
 30
0.0
 10
17.77154961538809
 20
25.49612403671923
 30
0.0
 10
17.6877259444102
 20
25.41346006618165
 30
0.0
 10
17.45600510567591
 20
25.10137226185035
 30
0.0
 10
17.3256902043647
 20
24.80332207220418
 30
0.0
 10
17.19667222642363
 20
24.45109573757019
 30
0.0
  0
SPLINE
  5
DA
330
1F
100
AcDbEntity
  8
0
  6
Continuous
 62
     7
370
    15
100
AcDbSpline
210
0.0
220
0.0
230
1.0
 70
     8
 71
     3
 72
    26
 73
    22
 74
     0
 42
0.00000001
 43
0.00000001
 12
1.0
 22
0.0
 32
0.0
 13
1.0
 23
0.0
 33
0.0
 40
0.0
 40
0.0
 40
0.0
 40
0.0
 40
0.0419274885830137
 40
0.0838500539299167
 40
0.1287959204699541
 40
0.1739105679053235
 40
0.2189229834189564
 40
0.2737344334958699
 40
0.3286782000476229
 40
0.3835909369409226
 40
0.4659035087293582
 40
0.5482762472083289
 40
0.6306331531354625
 40
0.712924118539922
 40
0.7600390176028617
 40
0.8072736549086629
 40
0.8544001554620234
 40
0.9013671576557795
 40
0.9448775039289042
 40
0.9885146924313505
 40
1.0
 40
1.0
 40
1.0
 40
1.0
 10
-29.78199780125102
 20
1.879387227297422
 30
0.0
 10
-29.43164599748652
 20
1.807595610034759
 30
0.0
 10
-28.73098352918883
 20
1.664020805470174
 30
0.0
 10
-27.61544790475309
 20
1.547163794762723
 30
0.0
 10
-26.45972519357523
 20
1.516557394695171
 30
0.0
 10
-25.27825463290914
 20
1.577211605165723
 30
0.0
 10
-24.02655558830186
 20
1.728312144657386
 30
0.0
 10
-22.71948886855171
 20
1.978833358861338
 30
0.0
 10
-21.36702107091083
 20
2.32205084375856
 30
0.0
 10
-19.82934639553094
 20
2.788504051362966
 30
0.0
 10
-18.11667911775024
 20
3.383860130274883
 30
0.0
 10
-16.22177181281815
 20
4.09251758460347
 30
0.0
 10
-14.32372096118907
 20
4.797108510465555
 30
0.0
 10
-12.66432294628124
 20
5.361259038212132
 30
0.0
 10
-11.24375209543384
 20
5.778793471177592
 30
0.0
 10
-10.07945250763284
 20
6.069336345117172
 30
0.0
 10
-8.888167706865511
 20
6.301011397894934
 30
0.0
 10
-7.702225923503651
 20
6.457847737202845
 30
0.0
 10
-6.531156396067902
 20
6.518206771233661
 30
0.0
 10
-5.663420654819977
 20
6.518374255706607
 30
0.0
 10
-5.187634038020277
 20
6.467315372529404
 30
0.0
 10
-5.088499274167355
 20
6.456676758184992
 30
0.0
  0
LWPOLYLINE
  5
DE
330
1F
100
AcDbEntity
  8
0
  6
Continuous
 62
     7
370
    15
100
AcDbPolyline
 90
        6
 70
   128
 43
0.0
 10
-15.6308649833
 20
0.4746923066
 10
-15.733343536
 20
0.5712562168
 10
-15.8315895612
 20
0.6356285016
 10
-15.9218275194
 20
0.6653353702
 10
-16.0005896163
 20
0.6592352041
 10
-16.0111926481
 20
0.6552397955
  0
LWPOLYLINE
  5
DF
330
1F
100
AcDbEntity
  8
0
  6
Continuous
 62
     7
370
    15
100
AcDbPolyline
 90
        6
 70
   128
 43
0.0
 10
-7.7837890598
 20
3.7780200796
 10
-7.8862676125
 20
3.8745839898
 10
-7.9845136377
 20
3.9389562746
 10
-8.0747515959
 20
3.9686631432
 10
-8.1535136929
 20
3.9625629772
 10
-8.1641167246
 20
3.9585675685
  0
LWPOLYLINE
  5
E1
330
1F
100
AcDbEntity
  8
0
  6
Continuous
 62
     7
370
    15
100
AcDbPolyline
 90
        6
 70
   128
 43
0.0
 10
-17.3288806346
 20
-9.4924238552
 10
-17.3237231104
 20
-9.4909390125
 10
-17.2844420129
 20
-9.4573560489
 10
-17.2557152518
 20
-9.387723399
 10
-17.2386467802
 20
-9.2847170063
 10
-17.2338925302
 20
-9.1522953489
  0
LWPOLYLINE
  5
E2
330
1F
100
AcDbEntity
  8
0
  6
Continuous
 62
     7
370
    15
100
AcDbPolyline
 90
        6
 70
   128
 43
0.0
 10
-7.5051850181
 20
-7.1685634087
 10
-7.5000274939
 20
-7.167078566
 10
-7.4607463964
 20
-7.1334956024
 10
-7.4320196352
 20
-7.0638629525
 10
-7.4149511637
 20
-6.9608565598
 10
-7.4101969136
 20
-6.8284349024
  0
LWPOLYLINE
  5
E4
330
1F
100
AcDbEntity
  8
0
  6
Continuous
 62
     7
370
    15
100
AcDbPolyline
 90
        6
 70
   128
 43
0.0
 10
-17.9438016965
 20
0.5612111902
 10
-17.8206644651
 20
0.649335602
 10
-17.7019649943
 20
0.7055927136
 10
-17.5922648382
 20
0.7278205956
 10
-17.4957797124
 20
0.7151650431
 10
-17.4615162312
 20
0.700280928
  0
LWPOLYLINE
  5
E5
330
1F
100
AcDbEntity
  8
0
  6
Continuous
 62
     7
370
    15
100
AcDbPolyline
 90
        6
 70
   128
 43
0.0
 10
-18.7366467394
 20
0.9890304498
 10
-18.613509508
 20
1.0771548617
 10
-18.4948100372
 20
1.1334119732
 10
-18.3851098811
 20
1.1556398553
 10
-18.2886247552
 20
1.1429843028
 10
-18.2541112506
 20
1.1279654813
  0
LWPOLYLINE
  5
EB
330
1F
100
AcDbEntity
  8
0
  6
Continuous
 62
     7
370
    15
100
AcDbPolyline
 90
        6
 70
   128
 43
0.0
 10
-29.6753331322
 20
1.5402594575
 10
-29.6800031486
 20
1.541522423
 10
-29.7221712876
 20
1.5747746819
 10
-29.7539667691
 20
1.6441615962
 10
-29.7741677106
 20
1.7470166655
 10
-29.7819978013
 20
1.8793872273
  0
LWPOLYLINE
  5
F1
330
1F
100
AcDbEntity
  8
0
  6
Continuous
 62
     7
370
    15
100
AcDbPolyline
 90
        6
 70
   128
 43
0.0
 10
31.8599907329
 20
11.5261762341
 10
31.8554175837
 20
11.393796742
 10
31.8388854553
 20
11.2909152249
 10
31.8110296681
 20
11.2214853619
 10
31.7729207043
 20
11.1881753036
 10
31.7687063502
 20
11.1869195675
  0
LINE
  5
F9
330
1F
100
AcDbEntity
  8
0
  6
Continuous
 62
     7
370
    15
100
AcDbLine
 10
-4.1691856355
 20
-3.3201515332
 30
0.0
 11
-6.3778053774
 21
-6.8302787647
 31
0.0
  0
LINE
  5
FA
330
1F
100
AcDbEntity
  8
0
  6
Continuous
 62
     7
370
    15
100
AcDbLine
 10
-6.5313604057
 20
-7.3731737919
 30
0.0
 11
-6.4777468509
 21
-12.5609960434
 31
0.0
  0
LINE
  5
FB
330
1F
100
AcDbEntity
  8
0
  6
Continuous
 62
     7
370
    15
100
AcDbLine
 10
-5.9526766571
 20
-13.4307145901
 30
0.0
 11
-2.8774648298
 21
-15.0900991811
 31
0.0
  0
LINE
  5
FC
330
1F
100
AcDbEntity
  8
0
  6
Continuous
 62
     7
370
    15
100
AcDbLine
 10
-1.5472978437
 20
-14.728195341
 30
0.0
 11
7.2550621548
 21
-0.1984354485
 31
0.0
  0
LINE
  5
FD
330
1F
100
AcDbEntity
  8
0
  6
Continuous
 62
     7
370
    15
100
AcDbLine
 10
-4.1620444949
 20
-3.306928337
 30
0.0
 11
-4.1691856355
 21
-3.3201515332
 31
0.0
  0
LINE
  5
FE
330
1F
100
AcDbEntity
  8
0
  6
Continuous
 62
     7
370
    15
100
AcDbLine
 10
-8.1641167246
 20
3.9585675685
 30
0.0
 11
-16.0111926481
 21
0.6552397955
 31
0.0
  0
LINE
  5
FF
330
1F
100
AcDbEntity
  8
0
  6
Continuous
 62
     7
370
    15
100
AcDbLine
 10
-19.3687037507
 20
1.0165242807
 30
0.0
 11
-21.5387008377
 21
-0.7895668624
 31
0.0
  0
LINE
  5
100
330
1F
100
AcDbEntity
  8
0
  6
Continuous
 62
     7
370
    15
100
AcDbLine
 10
-17.3288806346
 20
-9.4924238552
 30
0.0
 11
-7.5051850181
 21
-7.1685634087
 31
0.0
  0
LINE
  5
101
330
1F
100
AcDbEntity
  8
0
  6
Continuous
 62
     7
370
    15
100
AcDbLine
 10
-21.8989313505
 20
-1.5685121071
 30
0.0
 11
-21.8453177956
 21
-6.7563343585
 31
0.0
  0
LINE
  5
102
330
1F
100
AcDbEntity
  8
0
  6
Continuous
 62
     7
370
    15
100
AcDbLine
 10
-17.4612662077
 20
0.7001462217
 30
0.0
 11
-18.2541112506
 21
1.1279654813
 31
0.0
  0
LINE
  5
103
330
1F
100
AcDbEntity
  8
0
  6
Continuous
 62
     7
370
    15
100
AcDbLine
 10
-21.3202476019
 20
-7.6260529052
 30
0.0
 11
-18.0339603782
 21
-9.3993338
 31
0.0
  0
LINE
  5
104
330
1F
100
AcDbEntity
  8
0
  6
Continuous
 62
     7
370
    15
100
AcDbLine
 10
-0.757365922
 20
10.061484172
 30
0.0
 11
-7.915507548
 21
4.1037544269
 31
0.0
  0
LINE
  5
105
330
1F
100
AcDbEntity
  8
0
  6
Continuous
 62
     7
370
    15
100
AcDbLine
 10
-33.5212199464
 20
9.3196604331
 30
0.0
 11
-33.4676063916
 21
4.1318381817
 31
0.0
  0
LINE
  5
106
330
1F
100
AcDbEntity
  8
0
  6
Continuous
 62
     7
370
    15
100
AcDbLine
 10
7.3387269521
 20
-0.108068293
 30
0.0
 11
14.3635018639
 21
5.7386601782
 31
0.0
  0
LINE
  5
107
330
1F
100
AcDbEntity
  8
0
  6
Continuous
 62
     7
370
    15
100
AcDbLine
 10
26.2294276537
 20
21.3194539636
 30
0.0
 11
14.9604943575
 21
11.9403074473
 31
0.0
  0
LINE
  5
108
330
1F
100
AcDbEntity
  8
0
  6
Continuous
 62
     7
370
    15
100
AcDbLine
 10
-32.9425361978
 20
3.262119635
 30
0.0
 11
-29.9271333376
 21
1.6350079682
 31
0.0
  0
LINE
  5
109
330
1F
100
AcDbEntity
  8
0
  6
Continuous
 62
     7
370
    15
100
AcDbLine
 10
32.5441710106
 20
12.1717186566
 30
0.0
 11
32.4905574558
 21
17.359540908
 31
0.0
  0
LINE
  5
10A
330
1F
100
AcDbEntity
  8
0
  6
Continuous
 62
     7
370
    15
100
AcDbLine
 10
31.965487262
 20
18.2292594547
 30
0.0
 11
26.2372198992
 21
21.320233062
 31
0.0
  0
LINE
  5
10B
330
1F
100
AcDbEntity
  8
0
  6
Continuous
 62
     7
370
    15
100
AcDbLine
 10
17.7630079644
 20
25.4760132717
 30
0.0
 11
10.0365192368
 21
19.0452475614
 31
0.0
  0
LINE
  5
10C
330
1F
100
AcDbEntity
  8
0
  6
Continuous
 62
     7
370
    15
100
AcDbLine
 10
26.7580342965
 20
21.0886843856
 30
0.0
 11
18.5918705795
 21
25.4951470947
 31
0.0
  0
LINE
  5
10D
330
1F
100
AcDbEntity
  8
0
  6
Continuous
 62
     7
370
    15
100
AcDbLine
 10
17.274701922
 20
25.0695955749
 30
0.0
 11
16.564571477
 21
25.4527820298
 31
0.0
  0
LINE
  5
10E
330
1F
100
AcDbEntity
  8
0
  6
Continuous
 62
     7
370
    15
100
AcDbLine
 10
-2.5775412717
 20
1.3279328322
 30
0.0
 11
-3.3400925253
 21
0.960842505
 31
0.0
  0
LINE
  5
10F
330
1F
100
AcDbEntity
  8
0
  6
Continuous
 62
     7
370
    15
100
AcDbLine
 10
6.6377382274
 20
6.5894827184
 30
0.0
 11
23.8104132504
 21
20.8823204595
 31
0.0
  0
LINE
  5
110
330
1F
100
AcDbEntity
  8
0
  6
Continuous
 62
     7
370
    15
100
AcDbLine
 10
-2.4638610543
 20
-8.2811069691
 30
0.0
 11
6.3384989442
 21
6.2486529233
 31
0.0
  0
LINE
  5
111
330
1F
100
AcDbEntity
  8
0
  6
Continuous
 62
     7
370
    15
100
AcDbLine
 10
-5.5390728816
 20
-6.6217223781
 30
0.0
 11
-2.4638610543
 21
-8.2811069691
 31
0.0
  0
LINE
  5
112
330
1F
100
AcDbEntity
  8
0
  6
Continuous
 62
     7
370
    15
100
AcDbLine
 10
-3.3304531397
 20
-3.1115951466
 30
0.0
 11
-5.5390728816
 21
-6.6217223781
 31
0.0
  0
LINE
  5
113
330
1F
100
AcDbEntity
  8
0
  6
Continuous
 62
     7
370
    15
100
AcDbLine
 10
-5.8854255657
 20
-0.4831001676
 30
0.0
 11
-3.9109036428
 21
-1.5485523828
 31
0.0
  0
LINE
  5
114
330
1F
100
AcDbEntity
  8
0
  6
Continuous
 62
     7
370
    15
100
AcDbLine
 10
-17.6203566028
 20
-2.590341588
 30
0.0
 11
-7.7966609862
 21
-0.2664811415
 31
0.0
  0
LINE
  5
115
330
1F
100
AcDbEntity
  8
0
  6
Continuous
 62
     7
370
    15
100
AcDbLine
 10
-20.9066438264
 20
-0.8170606933
 30
0.0
 11
-17.6203566028
 21
-2.590341588
 31
0.0
  0
LINE
  5
116
330
1F
100
AcDbEntity
  8
0
  6
Continuous
 62
     7
370
    15
100
AcDbLine
 10
-18.7366467394
 20
0.9890304498
 30
0.0
 11
-20.9066438264
 21
-0.8170606933
 31
0.0
  0
LINE
  5
117
330
1F
100
AcDbEntity
  8
0
  6
Continuous
 62
     7
370
    15
100
AcDbLine
 10
-17.9438016965
 20
0.5612111902
 30
0.0
 11
-18.7366467394
 21
0.9890304498
 31
0.0
  0
LINE
  5
118
330
1F
100
AcDbEntity
  8
0
  6
Continuous
 62
     7
370
    15
100
AcDbLine
 10
-7.7837890598
 20
3.7780200796
 30
0.0
 11
-15.6308649833
 21
0.4746923066
 31
0.0
  0
LINE
  5
119
330
1F
100
AcDbEntity
  8
0
  6
Continuous
 62
     7
370
    15
100
AcDbLine
 10
-0.1253089106
 20
10.0339903411
 30
0.0
 11
-7.2834505366
 21
4.076260596
 31
0.0
  0
LINE
  5
11A
330
1F
100
AcDbEntity
  8
0
  6
Continuous
 62
     7
370
    15
100
AcDbLine
 10
-32.5289324223
 20
10.0711118469
 30
0.0
 11
-29.5135295621
 21
8.4440001801
 31
0.0
  0
LINE
  5
11B
330
1F
100
AcDbEntity
  8
0
  6
Continuous
 62
     7
370
    15
100
AcDbLine
 10
17.1966722264
 20
24.4510957376
 30
0.0
 11
10.6685762482
 21
19.0177537305
 31
0.0
  0
LINE
  5
11C
330
1F
100
AcDbEntity
  8
0
  6
Continuous
 62
     7
370
    15
100
AcDbLine
 10
17.1966722264
 20
24.4510957376
 30
0.0
 11
23.8104132504
 21
20.8823204595
 31
0.0
  0
LINE
  5
11D
330
1F
100
AcDbEntity
  8
0
  6
Continuous
 62
     7
370
    15
100
AcDbLine
 10
-3.0866282468
 20
-9.5469289655
 30
0.0
 11
-6.1618400741
 21
-7.8875443745
 31
0.0
  0
LINE
  5
11E
330
1F
100
AcDbEntity
  8
0
  6
Continuous
 62
     7
370
    15
100
AcDbLine
 10
7.2719890116
 20
5.2591066408
 30
0.0
 11
-1.5303709869
 21
-9.2706532516
 31
0.0
  0
LINE
  5
11F
330
1F
100
AcDbEntity
  8
0
  6
Continuous
 62
     7
370
    15
100
AcDbLine
 10
-1.5303709869
 20
-9.2706532516
 30
0.0
 11
-1.4767574321
 21
-14.458475503
 31
0.0
  0
LINE
  5
120
330
1F
100
AcDbEntity
  8
0
  6
Continuous
 62
     7
370
    15
100
AcDbLine
 10
-3.033014692
 20
-14.734751217
 30
0.0
 11
-3.0866282468
 21
-9.5469289655
 31
0.0
  0
LINE
  5
121
330
1F
100
AcDbEntity
  8
0
  6
Continuous
 62
     7
370
    15
100
AcDbLine
 10
-6.1082265192
 20
-13.075366626
 30
0.0
 11
-3.033014692
 21
-14.734751217
 31
0.0
  0
LINE
  5
122
330
1F
100
AcDbEntity
  8
0
  6
Continuous
 62
     7
370
    15
100
AcDbLine
 10
-6.1618400741
 20
-7.8875443745
 30
0.0
 11
-6.1082265192
 21
-13.075366626
 31
0.0
  0
LINE
  5
123
330
1F
100
AcDbEntity
  8
0
  6
Continuous
 62
     7
370
    15
100
AcDbLine
 10
7.3256025664
 20
0.0712843894
 30
0.0
 11
7.2719890116
 21
5.2591066408
 31
0.0
  0
LINE
  5
124
330
1F
100
AcDbEntity
  8
0
  6
Continuous
 62
     7
370
    15
100
AcDbLine
 10
-1.4767574321
 20
-14.458475503
 30
0.0
 11
7.3256025664
 21
0.0712843894
 31
0.0
  0
LINE
  5
125
330
1F
100
AcDbEntity
  8
0
  6
Continuous
 62
     7
370
    15
100
AcDbLine
 10
-7.4638104684
 20
-1.6406126509
 30
0.0
 11
-17.287506085
 21
-3.9644730974
 31
0.0
  0
LINE
  5
126
330
1F
100
AcDbEntity
  8
0
  6
Continuous
 62
     7
370
    15
100
AcDbLine
 10
-7.4101969136
 20
-6.8284349024
 30
0.0
 11
-7.4638104684
 21
-1.6406126509
 31
0.0
  0
LINE
  5
127
330
1F
100
AcDbEntity
  8
0
  6
Continuous
 62
     7
370
    15
100
AcDbLine
 10
-17.2338925302
 20
-9.1522953489
 30
0.0
 11
-7.4101969136
 21
-6.8284349024
 31
0.0
  0
LINE
  5
128
330
1F
100
AcDbEntity
  8
0
  6
Continuous
 62
     7
370
    15
100
AcDbLine
 10
-17.287506085
 20
-3.9644730974
 30
0.0
 11
-17.2338925302
 21
-9.1522953489
 31
0.0
  0
LINE
  5
129
330
1F
100
AcDbEntity
  8
0
  6
Continuous
 62
     7
370
    15
100
AcDbLine
 10
-18.2431237952
 20
-3.8561635844
 30
0.0
 11
-21.5294110189
 21
-2.0828826897
 31
0.0
  0
LINE
  5
12A
330
1F
100
AcDbEntity
  8
0
  6
Continuous
 62
     7
370
    15
100
AcDbLine
 10
-18.1895102404
 20
-9.0439858359
 30
0.0
 11
-18.2431237952
 21
-3.8561635844
 31
0.0
  0
LINE
  5
12B
330
1F
100
AcDbEntity
  8
0
  6
Continuous
 62
     7
370
    15
100
AcDbLine
 10
-21.475797464
 20
-7.2707049412
 30
0.0
 11
-18.1895102404
 21
-9.0439858359
 31
0.0
  0
LINE
  5
12C
330
1F
100
AcDbEntity
  8
0
  6
Continuous
 62
     7
370
    15
100
AcDbLine
 10
-21.5294110189
 20
-2.0828826897
 30
0.0
 11
-21.475797464
 21
-7.2707049412
 31
0.0
  0
LINE
  5
12D
330
1F
100
AcDbEntity
  8
0
  6
Continuous
 62
     7
370
    15
100
AcDbLine
 10
-4.5336708352
 20
-2.8143743791
 30
0.0
 11
-6.5081927582
 21
-1.7489221639
 31
0.0
  0
LINE
  5
12E
330
1F
100
AcDbEntity
  8
0
  6
Continuous
 62
     7
370
    15
100
AcDbLine
 10
-29.8356113561
 20
7.0672094788
 30
0.0
 11
-29.7819978013
 21
1.8793872273
 31
0.0
  0
LINE
  5
12F
330
1F
100
AcDbEntity
  8
0
  6
Continuous
 62
     7
370
    15
100
AcDbLine
 10
-6.5081927582
 20
-1.7489221639
 30
0.0
 11
-6.4545792034
 21
-6.9367444154
 31
0.0
  0
LINE
  5
130
330
1F
100
AcDbEntity
  8
0
  6
Continuous
 62
     7
370
    15
100
AcDbLine
 10
14.139817371
 20
11.0210946035
 30
0.0
 11
7.4216086532
 21
5.4295215384
 31
0.0
  0
LINE
  5
131
330
1F
100
AcDbEntity
  8
0
  6
Continuous
 62
     7
370
    15
100
AcDbLine
 10
7.4216086532
 20
5.4295215384
 30
0.0
 11
7.475222208
 21
0.2416992869
 31
0.0
  0
LINE
  5
132
330
1F
100
AcDbEntity
  8
0
  6
Continuous
 62
     7
370
    15
100
AcDbLine
 10
7.475222208
 20
0.2416992869
 30
0.0
 11
14.1934309258
 21
5.8332723521
 31
0.0
  0
LINE
  5
133
330
1F
100
AcDbEntity
  8
0
  6
Continuous
 62
     7
370
    15
100
AcDbLine
 10
14.1934309258
 20
5.8332723521
 30
0.0
 11
14.139817371
 21
11.0210946035
 31
0.0
  0
LINE
  5
134
330
1F
100
AcDbEntity
  8
0
  6
Continuous
 62
     7
370
    15
100
AcDbLine
 10
-30.1362967546
 20
7.1781781837
 30
0.0
 11
-33.1516996148
 21
8.8052898505
 31
0.0
  0
LINE
  5
135
330
1F
100
AcDbEntity
  8
0
  6
Continuous
 62
     7
370
    15
100
AcDbLine
 10
31.8599907329
 20
11.5261762341
 30
0.0
 11
31.8063771781
 21
16.7139984855
 31
0.0
  0
LINE
  5
136
330
1F
100
AcDbEntity
  8
0
  6
Continuous
 62
     7
370
    15
100
AcDbLine
 10
-30.0826831998
 20
1.9903559323
 30
0.0
 11
-30.1362967546
 21
7.1781781837
 31
0.0
  0
LINE
  5
137
330
1F
100
AcDbEntity
  8
0
  6
Continuous
 62
     7
370
    15
100
AcDbLine
 10
-33.09808606
 20
3.617467599
 30
0.0
 11
-30.0826831998
 21
1.9903559323
 31
0.0
  0
LINE
  5
138
330
1F
100
AcDbEntity
  8
0
  6
Continuous
 62
     7
370
    15
100
AcDbLine
 10
-33.1516996148
 20
8.8052898505
 30
0.0
 11
-33.09808606
 21
3.617467599
 31
0.0
  0
LINE
  5
139
330
1F
100
AcDbEntity
  8
0
  6
Continuous
 62
     7
370
    15
100
AcDbLine
 10
26.3454915427
 20
20.8624984464
 30
0.0
 11
18.3549435824
 21
14.2119559244
 31
0.0
  0
LINE
  5
13A
330
1F
100
AcDbEntity
  8
0
  6
Continuous
 62
     7
370
    15
100
AcDbLine
 10
31.4829517732
 20
18.0903244232
 30
0.0
 11
26.3454915427
 21
20.8624984464
 31
0.0
  0
LINE
  5
13B
330
1F
100
AcDbEntity
  8
0
  6
Continuous
 62
     7
370
    15
100
AcDbLine
 10
-4.5226386022
 20
-3.8818891922
 30
0.0
 11
-4.5336708352
 21
-2.8143743791
 31
0.0
  0
LINE
  5
13C
330
1F
100
AcDbEntity
  8
0
  6
Continuous
 62
     7
370
    15
100
AcDbLine
 10
-1.1408128818
 20
9.7423408136
 30
0.0
 11
-1.1507846165
 21
10.7072383538
 31
0.0
  0
LINE
  5
13D
330
1F
100
AcDbEntity
  8
0
  6
Continuous
 62
     7
370
    15
100
AcDbLine
 10
-6.4545792034
 20
-6.9367444154
 30
0.0
 11
-6.4398042799
 21
-6.9447169655
 31
0.0
  0
LINE
  5
13E
330
1F
100
AcDbEntity
  8
0
  6
Continuous
 62
     7
370
    15
100
AcDbLine
 10
-6.4532840459
 20
-6.9753411278
 30
0.0
 11
-6.4545792034
 21
-6.9367444154
 31
0.0
  0
ARC
  5
13F
330
1F
100
AcDbEntity
  8
0
  6
Continuous
 62
     7
370
    15
100
AcDbCircle
 10
-5.5314138023
 20
-7.3628398426
 30
0.0
 40
0.9999999999999649
100
AcDbArc
 50
147.8213395807
 51
180.5921022183
  0
ARC
  5
140
330
1F
100
AcDbEntity
  8
0
  6
Continuous
 62
     7
370
    15
100
AcDbCircle
 10
-2.4025884202
 20
-14.2100466851
 30
0.0
 40
1.000000000000003
100
AcDbArc
 50
241.6486966288
 51
328.791851271
  0
ARC
  5
141
330
1F
100
AcDbEntity
  8
0
  6
Continuous
 62
     7
370
    15
100
AcDbCircle
 10
-5.4778002475
 20
-12.5506620941
 30
0.0
 40
0.9999999999999994
100
AcDbArc
 50
180.5921022183
 51
241.6486966288
  0
ARC
  5
142
330
1F
100
AcDbEntity
  8
0
  6
Continuous
 62
     7
370
    15
100
AcDbCircle
 10
-20.8989847471
 20
-1.5581781578
 30
0.0
 40
1.000000000000007
100
AcDbArc
 50
129.7706523486
 51
180.5921022183
  0
ARC
  5
143
330
1F
100
AcDbEntity
  8
0
  6
Continuous
 62
     7
370
    15
100
AcDbCircle
 10
-18.7289876601
 20
0.2479129853
 30
0.0
 40
0.9999999999999949
100
AcDbArc
 50
61.6486966288
 51
129.7706523486
  0
ARC
  5
144
330
1F
100
AcDbEntity
  8
0
  6
Continuous
 62
     7
370
    15
100
AcDbCircle
 10
-17.5590839687
 20
-8.519281304
 30
0.0
 40
1.000000000000016
100
AcDbArc
 50
241.6486966288
 51
283.3090431637
  0
ARC
  5
145
330
1F
100
AcDbEntity
  8
0
  6
Continuous
 62
     7
370
    15
100
AcDbCircle
 10
-20.8453711923
 20
-6.7460004093
 30
0.0
 40
1.000000000000001
100
AcDbArc
 50
180.5921022183
 51
241.6486966288
  0
ARC
  5
146
330
1F
100
AcDbEntity
  8
0
  6
Continuous
 62
     7
370
    15
100
AcDbCircle
 10
-32.5212733431
 20
9.3299943824
 30
0.0
 40
1.000000000000022
100
AcDbArc
 50
132.0930906244
 51
180.5921022183
  0
ARC
  5
147
330
1F
100
AcDbEntity
  8
0
  6
Continuous
 62
     7
370
    15
100
AcDbCircle
 10
-29.452256928
 20
2.5150604642
 30
0.0
 40
0.9999999999999298
100
AcDbArc
 50
241.6486966288
 51
257.1112214681
  0
ARC
  5
148
330
1F
100
AcDbEntity
  8
0
  6
Continuous
 62
     7
370
    15
100
AcDbCircle
 10
-32.4676597883
 20
4.1421721309
 30
0.0
 40
0.9999999999999869
100
AcDbArc
 50
180.5921022183
 51
241.6486966288
  0
ARC
  5
149
330
1F
100
AcDbEntity
  8
0
  6
Continuous
 62
     7
370
    15
100
AcDbCircle
 10
31.4906108524
 20
17.3492069587
 30
0.0
 40
1.000000000000018
100
AcDbArc
 50
0.5921022183
 51
61.6486966288
  0
ARC
  5
14A
330
1F
100
AcDbEntity
  8
0
  6
Continuous
 62
     7
370
    15
100
AcDbCircle
 10
31.5442244072
 20
12.1613847073
 30
0.0
 40
0.9999999999999637
100
AcDbArc
 50
282.9044054011
 51
0.5921022183
  0
ARC
  5
14B
330
1F
100
AcDbEntity
  8
0
  6
Continuous
 62
     7
370
    15
100
AcDbCircle
 10
7.5069315261
 20
5.5245777898
 30
0.0
 40
1.374597940252074
100
AcDbArc
 50
129.2219011843
 51
148.213594766
  0
ARC
  5
14C
330
1F
100
AcDbEntity
  8
0
  6
Continuous
 62
     7
370
    15
100
AcDbCircle
 10
-4.2863469992
 20
-2.5772760085
 30
0.0
 40
1.095093608771739
100
AcDbArc
 50
330.7959755377
 51
69.9499215036
  0
ARC
  5
14D
330
1F
100
AcDbEntity
  8
0
  6
Continuous
 62
     7
370
    15
100
AcDbCircle
 10
-7.1353856761
 20
-2.9717814688
 30
0.0
 40
2.784947916315849
100
AcDbArc
 50
63.3315429172
 51
103.7358621035
  0
ARC
  5
14E
330
1F
100
AcDbEntity
  8
0
  6
Continuous
 62
     7
370
    15
100
AcDbCircle
 10
-16.6923096994
 20
3.0582488196
 30
0.0
 40
2.793103854428082
100
AcDbArc
 50
243.3803978932
 51
292.335129738
  0
ARC
  5
14F
330
1F
100
AcDbEntity
  8
0
  6
Continuous
 62
     7
370
    15
100
AcDbCircle
 10
-8.5390660237
 20
5.6139114235
 30
0.0
 40
1.985180172872541
100
AcDbArc
 50
292.3620328199
 51
309.234400943
  0
ARC
  5
150
330
1F
100
AcDbEntity
  8
0
  6
Continuous
 62
     7
370
    15
100
AcDbCircle
 10
9.1770769481
 20
20.9725107626
 30
0.0
 40
2.458789380277828
100
AcDbArc
 50
270.0125026541
 51
307.343996239
  0
ARC
  5
151
330
1F
100
AcDbEntity
  8
0
  6
Continuous
 62
     7
370
    15
100
AcDbCircle
 10
-2.7135412004
 20
-9.4517209489
 30
0.0
 40
1.196944971595676
100
AcDbArc
 50
8.7008144767
 51
77.9598047525
  0
ARC
  5
152
330
1F
100
AcDbEntity
  8
0
  6
Continuous
 62
     7
370
    15
100
AcDbCircle
 10
-2.4769234858
 20
-8.4600617935
 30
0.0
 40
1.246202289002992
100
AcDbArc
 50
240.7086864927
 51
319.4245111417
  0
ARC
  5
153
330
1F
100
AcDbEntity
  8
0
  6
Continuous
 62
     7
370
    15
100
AcDbCircle
 10
-1.2621513976
 20
-9.6584392523
 30
0.0
 40
1.827881373964818
100
AcDbArc
 50
131.1043964299
 51
176.5024872454
  0
ARC
  5
154
330
1F
100
AcDbEntity
  8
0
  6
Continuous
 62
     7
370
    15
100
AcDbCircle
 10
-4.3373632249
 20
-7.9990546613
 30
0.0
 40
1.827881373964814
100
AcDbArc
 50
131.1043964299
 51
176.5024872454
  0
ARC
  5
155
330
1F
100
AcDbEntity
  8
0
  6
Continuous
 62
     7
370
    15
100
AcDbCircle
 10
6.0888187981
 20
5.0780389435
 30
0.0
 40
1.19694497159567
100
AcDbArc
 50
8.7008144767
 51
77.9598047525
  0
ARC
  5
156
330
1F
100
AcDbEntity
  8
0
  6
Continuous
 62
     7
370
    15
100
AcDbCircle
 10
-2.423309931
 20
-13.647884045
 30
0.0
 40
1.246202289002977
100
AcDbArc
 50
240.7086864927
 51
319.4245111417
  0
ARC
  5
157
330
1F
100
AcDbEntity
  8
0
  6
Continuous
 62
     7
370
    15
100
AcDbCircle
 10
-11.0080673151
 20
-1.7717458716
 30
0.0
 40
3.546681902419344
100
AcDbArc
 50
2.1189080962
 51
25.113635629
  0
ARC
  5
158
330
1F
100
AcDbEntity
  8
0
  6
Continuous
 62
     7
370
    15
100
AcDbCircle
 10
-20.8317629317
 20
-4.0956063181
 30
0.0
 40
3.546681902419241
100
AcDbArc
 50
2.1189080962
 51
25.113635629
  0
ARC
  5
159
330
1F
100
AcDbEntity
  8
0
  6
Continuous
 62
     7
370
    15
100
AcDbCircle
 10
-17.6181437401
 20
-2.6118229338
 30
0.0
 40
1.392473958157964
100
AcDbArc
 50
243.3315429172
 51
283.7358621035
  0
ARC
  5
15A
330
1F
100
AcDbEntity
  8
0
  6
Continuous
 62
     7
370
    15
100
AcDbCircle
 10
-16.418646946
 20
-3.9676738712
 30
0.0
 40
1.827881373964827
100
AcDbArc
 50
131.1043964299
 51
176.5024872454
  0
ARC
  5
15B
330
1F
100
AcDbEntity
  8
0
  6
Continuous
 62
     7
370
    15
100
AcDbCircle
 10
-2.709193986
 20
-2.9258846659
 30
0.0
 40
1.827881373964807
100
AcDbArc
 50
131.1043964299
 51
176.5024872454
  0
ARC
  5
15C
330
1F
100
AcDbEntity
  8
0
  6
Continuous
 62
     7
370
    15
100
AcDbCircle
 10
-19.7049341697
 20
-2.1943929765
 30
0.0
 40
1.827881373964842
100
AcDbArc
 50
131.1043964299
 51
176.5024872454
  0
ARC
  5
15D
330
1F
100
AcDbEntity
  8
0
  6
Continuous
 62
     7
370
    15
100
AcDbCircle
 10
-17.5645301853
 20
-7.7996451852
 30
0.0
 40
1.392473958157931
100
AcDbArc
 50
243.3315429172
 51
283.7358621035
  0
ARC
  5
15E
330
1F
100
AcDbEntity
  8
0
  6
Continuous
 62
     7
370
    15
100
AcDbCircle
 10
-4.683715909
 20
-1.8604324507
 30
0.0
 40
1.8278813739648
100
AcDbArc
 50
131.1043964299
 51
176.5024872454
  0
ARC
  5
15F
330
1F
100
AcDbEntity
  8
0
  6
Continuous
 62
     7
370
    15
100
AcDbCircle
 10
1.0417070599
 20
10.6142289194
 30
0.0
 40
2.194463603210676
100
AcDbArc
 50
139.992128681
 51
177.5708666005
  0
ARC
  5
160
330
1F
100
AcDbEntity
  8
0
  6
Continuous
 62
     7
370
    15
100
AcDbCircle
 10
-26.4704436911
 20
7.0060421716
 30
0.0
 40
3.365723525891089
100
AcDbArc
 50
154.7077274497
 51
178.9586721947
  0
ARC
  5
161
330
1F
100
AcDbEntity
  8
0
  6
Continuous
 62
     7
370
    15
100
AcDbCircle
 10
-7.1331728134
 20
-2.9932628146
 30
0.0
 40
1.392473958157928
100
AcDbArc
 50
63.3315429172
 51
103.7358621035
  0
ARC
  5
162
330
1F
100
AcDbEntity
  8
0
  6
Continuous
 62
     7
370
    15
100
AcDbCircle
 10
-7.0795592585
 20
-8.181085066
 30
0.0
 40
1.392473958157898
100
AcDbArc
 50
63.3315429172
 51
103.7358621035
  0
ARC
  5
163
330
1F
100
AcDbEntity
  8
0
  6
Continuous
 62
     7
370
    15
100
AcDbCircle
 10
5.9262799531
 20
5.2638586211
 30
0.0
 40
1.504477358875217
100
AcDbArc
 50
6.3218449605
 51
61.7776848888
  0
ARC
  5
164
330
1F
100
AcDbEntity
  8
0
  6
Continuous
 62
     7
370
    15
100
AcDbCircle
 10
7.8562053025
 20
4.8970690741
 30
0.0
 40
0.6872989701260861
100
AcDbArc
 50
129.2219011843
 51
148.213594766
  0
ARC
  5
165
330
1F
100
AcDbEntity
  8
0
  6
Continuous
 62
     7
370
    15
100
AcDbCircle
 10
7.9098188573
 20
-0.2907531774
 30
0.0
 40
0.6872989701261547
100
AcDbArc
 50
129.2219011843
 51
148.213594766
  0
ARC
  5
166
330
1F
100
AcDbEntity
  8
0
  6
Continuous
 62
     7
370
    15
100
AcDbCircle
 10
28.1566893999
 20
16.5825156711
 30
0.0
 40
3.652055395092835
100
AcDbArc
 50
2.0632323209
 51
24.3849871178
  0
ARC
  5
167
330
1F
100
AcDbEntity
  8
0
  6
Continuous
 62
     7
370
    15
100
AcDbCircle
 10
-29.5755108749
 20
8.2348476703
 30
0.0
 40
1.196257165769683
100
AcDbArc
 50
242.044626151
 51
257.4419548965
  0
ARC
  5
168
330
1F
100
AcDbEntity
  8
0
  6
Continuous
 62
     7
370
    15
100
AcDbCircle
 10
-28.3118199054
 20
7.066667897
 30
0.0
 40
1.827881373964766
100
AcDbArc
 50
131.1043964299
 51
176.5024872454
  0
ARC
  5
169
330
1F
100
AcDbEntity
  8
0
  6
Continuous
 62
     7
370
    15
100
AcDbCircle
 10
-31.3272227656
 20
8.6937795637
 30
0.0
 40
1.827881373964875
100
AcDbArc
 50
131.1043964299
 51
176.5024872454
  0
ARC
  5
16A
330
1F
100
AcDbEntity
  8
0
  6
Continuous
 62
     7
370
    15
100
AcDbCircle
 10
-29.5218973201
 20
3.0470254188
 30
0.0
 40
1.196257165769243
100
AcDbArc
 50
242.044626151
 51
257.4419548965
  0
ARC
  5
16B
330
1F
100
AcDbEntity
  8
0
  6
Continuous
 62
     7
370
    15
100
AcDbCircle
 10
25.4561620205
 20
20.8798317366
 30
0.0
 40
0.8894984215961564
100
AcDbArc
 50
358.8834300194
 51
29.6193902313
  0
ARC
  5
16C
330
1F
100
AcDbEntity
  8
0
  6
Continuous
 62
     7
370
    15
100
AcDbCircle
 10
26.273399164
 20
20.1905467873
 30
0.0
 40
1.020365886633871
100
AcDbArc
 50
44.8849455747
 51
78.4124476829
  0
ARC
  5
16D
330
1F
100
AcDbEntity
  8
0
  6
Continuous
 62
     7
370
    15
100
AcDbCircle
 10
18.0985672411
 20
24.5747170099
 30
0.0
 40
1.044289100134426
100
AcDbArc
 50
61.8109734709
 51
83.8063502331
  0
ARC
  5
16E
330
1F
100
AcDbEntity
  8
0
  6
Continuous
 62
     7
370
    15
100
AcDbCircle
 10
16.0777513428
 20
23.9676056275
 30
0.0
 40
1.56292763393703
100
AcDbArc
 50
71.8515769909
 51
140.2735072958
  0
ARC
  5
16F
330
1F
100
AcDbEntity
  8
0
  6
Continuous
 62
     7
370
    15
100
AcDbCircle
 10
19.3204433496
 20
19.975130318
 30
0.0
 40
6.683534475246952
100
AcDbArc
 50
131.6845712944
 51
168.3563839154
  0
ARC
  5
170
330
1F
100
AcDbEntity
  8
0
  6
Continuous
 62
     7
370
    15
100
AcDbCircle
 10
-5.9167859466
 20
-7.3215834153
 30
0.0
 40
0.6167360316198703
100
AcDbArc
 50
184.7984370736
 51
246.5879824399
  0
ARC
  5
171
330
1F
100
AcDbEntity
  8
0
  6
Continuous
 62
     7
370
    15
100
AcDbCircle
 10
-5.8162543834
 20
-7.2978121994
 30
0.0
 40
0.7307031075054158
100
AcDbArc
 50
67.7074826711
 51
140.2200737016
  0
ARC
  5
172
330
1F
100
AcDbEntity
  8
0
  6
Continuous
 62
     7
370
    15
100
AcDbCircle
 10
-3.6076346415
 20
-3.7876849678
 30
0.0
 40
0.7307031075054242
100
AcDbArc
 50
67.7074826711
 51
140.2200737016
  0
ARC
  5
173
330
1F
100
AcDbEntity
  8
0
  6
Continuous
 62
     7
370
    15
100
AcDbCircle
 10
-5.8631723918
 20
-12.5094056668
 30
0.0
 40
0.6167360316198806
100
AcDbArc
 50
184.7984370736
 51
246.5879824399
  0
ARC
  5
174
330
1F
100
AcDbEntity
  8
0
  6
Continuous
 62
     7
370
    15
100
AcDbCircle
 10
-2.6591049988
 20
-14.7827952979
 30
0.0
 40
0.3769836765284933
100
AcDbArc
 50
172.6781190414
 51
234.6036758977
  0
ARC
  5
175
330
1F
100
AcDbEntity
  8
0
  6
Continuous
 62
     7
370
    15
100
AcDbCircle
 10
-1.9740572149
 20
-14.4724998292
 30
0.0
 40
0.49749749309025
100
AcDbArc
 50
329.0718064928
 51
1.6153672598
  0
ARC
  5
176
330
1F
100
AcDbEntity
  8
0
  6
Continuous
 62
     7
370
    15
100
AcDbCircle
 10
-5.7343168261
 20
-13.1234107069
 30
0.0
 40
0.3769836765284905
100
AcDbArc
 50
172.6781190414
 51
234.6036758977
  0
ARC
  5
177
330
1F
100
AcDbEntity
  8
0
  6
Continuous
 62
     7
370
    15
100
AcDbCircle
 10
6.8283027836
 20
0.0572600632
 30
0.0
 40
0.4974974930902916
100
AcDbArc
 50
329.0718064928
 51
1.6153672598
  0
ARC
  5
178
330
1F
100
AcDbEntity
  8
0
  6
Continuous
 62
     7
370
    15
100
AcDbCircle
 10
-4.7787630581
 20
-3.3803806265
 30
0.0
 40
0.6167927283263943
100
AcDbArc
 50
4.8212081899
 51
66.5864065796
  0
ARC
  5
179
330
1F
100
AcDbEntity
  8
0
  6
Continuous
 62
     7
370
    15
100
AcDbCircle
 10
-21.2922630589
 20
-1.5226014676
 30
0.0
 40
0.6084029937143395
100
AcDbArc
 50
184.3277051698
 51
247.0587143437
  0
ARC
  5
17A
330
1F
100
AcDbEntity
  8
0
  6
Continuous
 62
     7
370
    15
100
AcDbCircle
 10
-21.2429627379
 20
-1.269770902
 30
0.0
 40
0.5639653742563886
100
AcDbArc
 50
53.3913023089
 51
121.6272228864
  0
ARC
  5
17B
330
1F
100
AcDbEntity
  8
0
  6
Continuous
 62
     7
370
    15
100
AcDbCircle
 10
-19.0729656509
 20
0.5363202411
 30
0.0
 40
0.5639653742563887
100
AcDbArc
 50
53.3913023089
 51
121.6272228864
  0
ARC
  5
17C
330
1F
100
AcDbEntity
  8
0
  6
Continuous
 62
     7
370
    15
100
AcDbCircle
 10
-21.2267408133
 20
-6.7018685965
 30
0.0
 40
0.6209702104624736
100
AcDbArc
 50
185.0319217451
 51
246.3544977684
  0
ARC
  5
17D
330
1F
100
AcDbEntity
  8
0
  6
Continuous
 62
     7
370
    15
100
AcDbCircle
 10
-17.8156005472
 20
-9.0920299168
 30
0.0
 40
0.376983676528489
100
AcDbArc
 50
172.6781190414
 51
234.6036758977
  0
ARC
  5
17E
330
1F
100
AcDbEntity
  8
0
  6
Continuous
 62
     7
370
    15
100
AcDbCircle
 10
-21.1018877709
 20
-7.3187490221
 30
0.0
 40
0.3769836765284659
100
AcDbArc
 50
172.6781190414
 51
234.6036758977
  0
ARC
  5
17F
330
1F
100
AcDbEntity
  8
0
  6
Continuous
 62
     7
370
    15
100
AcDbCircle
 10
-32.8613754711
 20
9.560803925
 30
0.0
 40
0.6090423268186175
100
AcDbArc
 50
56.9175349317
 51
122.6180561302
  0
ARC
  5
180
330
1F
100
AcDbEntity
  8
0
  6
Continuous
 62
     7
370
    15
100
AcDbCircle
 10
-7.6205393111
 20
3.6210032906
 30
0.0
 40
0.5664698191493467
100
AcDbArc
 50
53.4824305582
 51
120.9055672591
  0
ARC
  5
181
330
1F
100
AcDbEntity
  8
0
  6
Continuous
 62
     7
370
    15
100
AcDbCircle
 10
-0.4616278222
 20
9.5812801324
 30
0.0
 40
0.5639653742564043
100
AcDbArc
 50
53.3913023089
 51
121.6272228864
  0
ARC
  5
182
330
1F
100
AcDbEntity
  8
0
  6
Continuous
 62
     7
370
    15
100
AcDbCircle
 10
-32.9124942267
 20
9.3670491151
 30
0.0
 40
0.6105675139032634
100
AcDbArc
 50
184.4514404053
 51
246.9349791083
  0
ARC
  5
183
330
1F
100
AcDbEntity
  8
0
  6
Continuous
 62
     7
370
    15
100
AcDbCircle
 10
-1.3410419791
 20
10.058417008
 30
0.0
 40
0.6761412594525292
100
AcDbArc
 50
7.1406642139
 51
73.6569971674
  0
ARC
  5
184
330
1F
100
AcDbEntity
  8
0
  6
Continuous
 62
     7
370
    15
100
AcDbCircle
 10
-32.8471428486
 20
4.1876592361
 30
0.0
 40
0.6229695003269724
100
AcDbArc
 50
185.1408716597
 51
246.2455478538
  0
ARC
  5
185
330
1F
100
AcDbEntity
  8
0
  6
Continuous
 62
     7
370
    15
100
AcDbCircle
 10
7.0547346427
 20
0.2039708739
 30
0.0
 40
0.4221767706723774
100
AcDbArc
 50
313.1179724072
 51
5.1271569115
  0
ARC
  5
186
330
1F
100
AcDbEntity
  8
0
  6
Continuous
 62
     7
370
    15
100
AcDbCircle
 10
-29.7087735066
 20
1.9423118513
 30
0.0
 40
0.3769836765284659
100
AcDbArc
 50
172.6781190414
 51
234.6036758977
  0
ARC
  5
187
330
1F
100
AcDbEntity
  8
0
  6
Continuous
 62
     7
370
    15
100
AcDbCircle
 10
-32.7241763668
 20
3.5694235181
 30
0.0
 40
0.3769836765284592
100
AcDbArc
 50
172.6781190414
 51
234.6036758977
  0
ARC
  5
188
330
1F
100
AcDbEntity
  8
0
  6
Continuous
 62
     7
370
    15
100
AcDbCircle
 10
7.2962823149
 20
18.507587983
 30
0.0
 40
1.88134116971815
100
AcDbArc
 50
0.186793271
 51
8.0871209661
  0
ARC
  5
189
330
1F
100
AcDbEntity
  8
0
  6
Continuous
 62
     7
370
    15
100
AcDbCircle
 10
31.8307719739
 20
17.7897244259
 30
0.0
 40
0.4597164891660261
100
AcDbArc
 50
72.9599598157
 51
139.165124471
  0
ARC
  5
18A
330
1F
100
AcDbEntity
  8
0
  6
Continuous
 62
     7
370
    15
100
AcDbCircle
 10
31.7491925352
 20
17.4599423985
 30
0.0
 40
0.7481326117290439
100
AcDbArc
 50
274.3837650058
 51
352.2874758463
  0
ARC
  5
18B
330
1F
100
AcDbEntity
  8
0
  6
Continuous
 62
     7
370
    15
100
AcDbCircle
 10
31.80280609
 20
12.2721201471
 30
0.0
 40
0.7481326117290017
100
AcDbArc
 50
274.3837650057
 51
352.2874758463
  0
ARC
  5
18C
330
1F
100
AcDbEntity
  8
0
  6
Continuous
 62
     7
370
    15
100
AcDbCircle
 10
10.3304689446
 20
18.5411066667
 30
0.0
 40
0.5843876899316126
100
AcDbArc
 50
54.6501994669
 51
119.7623024006
  0
MTEXT
  5
18E
330
1F
100
AcDbEntity
  8
0
  6
Continuous
 62
     7
100
AcDbMText
 10
-33.5212733431
 20
-16.2296130768
 30
0.0
 40
4.83362
 41
0.0
 71
     1
 72
     1
  1
SolidWorks Educational Edition.
  7
SLDTEXTSTYLE0
 73
     1
 44
1.0
  0
MTEXT
  5
18F
330
1F
100
AcDbEntity
  8
0
  6
Continuous
 62
     7
100
AcDbMText
 10
-33.5212733431
 20
-23.4800430768
 30
0.0
 40
4.83362
 41
0.0
 71
     1
 72
     1
  1
For Instructional Use Only.
  7
SLDTEXTSTYLE0
 73
     1
 44
1.0
  0
ENDSEC
  0
SECTION
  2
OBJECTS
  0
DICTIONARY
  5
C
330
0
100
AcDbDictionary
281
     1
  3
ACAD_GROUP
350
D
  3
ACAD_LAYOUT
350
1A
  3
ACAD_MLINESTYLE
350
17
  3
ACAD_PLOTSETTINGS
350
19
  3
ACAD_PLOTSTYLENAME
350
E
  0
DICTIONARY
  5
D
102
{ACAD_REACTORS
330
C
102
}
330
C
100
AcDbDictionary
281
     1
  0
DICTIONARY
  5
1A
102
{ACAD_REACTORS
330
C
102
}
330
C
100
AcDbDictionary
281
     1
  3
Layout1
350
1E
  3
Layout2
350
26
  3
Model
350
22
  0
DICTIONARY
  5
17
102
{ACAD_REACTORS
330
C
102
}
330
C
100
AcDbDictionary
281
     1
  3
Standard
350
18
  0
DICTIONARY
  5
19
102
{ACAD_REACTORS
330
C
102
}
330
C
100
AcDbDictionary
281
     1
  0
ACDBDICTIONARYWDFLT
  5
E
102
{ACAD_REACTORS
330
C
102
}
330
C
100
AcDbDictionary
281
     1
  3
Normal
350
F
100
AcDbDictionaryWithDefault
340
F
  0
LAYOUT
  5
1E
102
{ACAD_REACTORS
330
1A
102
}
330
1A
100
AcDbPlotSettings
  1

  2
none_device
  4

  6

 40
0.0
 41
0.0
 42
0.0
 43
0.0
 44
0.0
 45
0.0
 46
0.0
 47
0.0
 48
0.0
 49
0.0
140
0.0
141
0.0
142
1.0
143
1.0
 70
   688
 72
     0
 73
     0
 74
     5
  7

 75
    16
147
1.0
148
0.0
149
0.0
100
AcDbLayout
  1
Layout1
 70
     1
 71
     1
 10
0.0
 20
0.0
 11
420.0
 21
297.0
 12
0.0
 22
0.0
 32
0.0
 14
1.0000000000E+20
 24
1.0000000000E+20
 34
1.0000000000E+20
 15
-1.0000000000E+20
 25
-1.0000000000E+20
 35
-1.0000000000E+20
146
0.0
 13
0.0
 23
0.0
 33
0.0
 16
1.0
 26
0.0
 36
0.0
 17
0.0
 27
1.0
 37
0.0
 76
     0
330
1B
  0
LAYOUT
  5
26
102
{ACAD_REACTORS
330
1A
102
}
330
1A
100
AcDbPlotSettings
  1

  2
none_device
  4

  6

 40
0.0
 41
0.0
 42
0.0
 43
0.0
 44
0.0
 45
0.0
 46
0.0
 47
0.0
 48
0.0
 49
0.0
140
0.0
141
0.0
142
1.0
143
1.0
 70
   688
 72
     0
 73
     0
 74
     5
  7

 75
    16
147
1.0
148
0.0
149
0.0
100
AcDbLayout
  1
Layout2
 70
     1
 71
     2
 10
0.0
 20
0.0
 11
0.0
 21
0.0
 12
0.0
 22
0.0
 32
0.0
 14
0.0
 24
0.0
 34
0.0
 15
0.0
 25
0.0
 35
0.0
146
0.0
 13
0.0
 23
0.0
 33
0.0
 16
1.0
 26
0.0
 36
0.0
 17
0.0
 27
1.0
 37
0.0
 76
     0
330
23
  0
LAYOUT
  5
22
102
{ACAD_REACTORS
330
1A
102
}
330
1A
100
AcDbPlotSettings
  1

  2
none_device
  4
ANSI_A_(11.00_x_8.50_Inches)
  6

 40
6.35
 41
19.05
 42
6.35000508
 43
19.05000254
 44
279.4
 45
215.9
 46
135.3953736938
 47
67.1130779307
 48
0.0
 49
0.0
140
0.0
141
0.0
142
0.164836418
143
1.0
 70
  1696
 72
     0
 73
     0
 74
     0
  7

 75
     0
147
0.0179189148
148
0.0
149
0.0
100
AcDbLayout
  1
Model
 70
     1
 71
     0
 10
0.0
 20
0.0
 11
420.0
 21
297.0
 12
0.0
 22
0.0
 32
0.0
 14
-33.5212733431
 24
-15.2100466851
 34
0.0
 15
32.5442244072
 25
25.6173680523
 35
0.0
146
0.0
 13
0.0
 23
0.0
 33
0.0
 16
1.0
 26
0.0
 36
0.0
 17
0.0
 27
1.0
 37
0.0
 76
     0
330
1F
331
29
  0
MLINESTYLE
  5
18
102
{ACAD_REACTORS
330
17
102
}
330
17
100
AcDbMlineStyle
  2
Standard
 70
     0
  3

 62
   256
 51
90.0
 52
90.0
 71
     2
 49
0.5
 62
   256
  6
BYLAYER
 49
-0.5
 62
   256
  6
BYLAYER
  0
ACDBPLACEHOLDER
  5
F
102
{ACAD_REACTORS
330
E
102
}
330
E
  0
ENDSEC
  0
EOF
