  0
SECTION
  2
HEADER
  9
$ACADVER
  1
AC1015
  9
$ACADMAINTVER
 70
     6
  9
$DWGCODEPAGE
  3
ANSI_1252
  9
$INSBASE
 10
0.0
 20
0.0
 30
0.0
  9
$EXTMIN
 10
-2.3291716539
 20
-171.4770543106
 30
0.0
  9
$EXTMAX
 10
107.1907233867
 20
23.5147489488
 30
0.0
  9
$LIMMIN
 10
0.0
 20
0.0
  9
$LIMMAX
 10
420.0
 20
297.0
  9
$ORTHOMODE
 70
     0
  9
$REGENMODE
 70
     1
  9
$FILLMODE
 70
     1
  9
$QTEXTMODE
 70
     0
  9
$MIRRTEXT
 70
     1
  9
$LTSCALE
 40
1.0
  9
$ATTMODE
 70
     1
  9
$TEXTSIZE
 40
2.5
  9
$TRACEWID
 40
1.0
  9
$TEXTSTYLE
  7
Standard
  9
$CLAYER
  8
0
  9
$CELTYPE
  6
ByLayer
  9
$CECOLOR
 62
   256
  9
$CELTSCALE
 40
1.0
  9
$DISPSILH
 70
     0
  9
$DIMSCALE
 40
1.0
  9
$DIMASZ
 40
6.0
  9
$DIMEXO
 40
1.0
  9
$DIMDLI
 40
3.75
  9
$DIMRND
 40
0.0
  9
$DIMDLE
 40
0.0
  9
$DIMEXE
 40
1.0
  9
$DIMTP
 40
0.0
  9
$DIMTM
 40
0.0
  9
$DIMTXT
 40
2.5
  9
$DIMCEN
 40
2.5
  9
$DIMTSZ
 40
0.0
  9
$DIMTOL
 70
     0
  9
$DIMLIM
 70
     0
  9
$DIMTIH
 70
     1
  9
$DIMTOH
 70
     1
  9
$DIMSE1
 70
     0
  9
$DIMSE2
 70
     0
  9
$DIMTAD
 70
     1
  9
$DIMZIN
 70
     0
  9
$DIMBLK
  1

  9
$DIMASO
 70
     1
  9
$DIMSHO
 70
     1
  9
$DIMPOST
  1

  9
$DIMAPOST
  1

  9
$DIMALT
 70
     0
  9
$DIMALTD
 70
     3
  9
$DIMALTF
 40
0.0393700787
  9
$DIMLFAC
 40
1.0
  9
$DIMTOFL
 70
     1
  9
$DIMTVP
 40
0.0
  9
$DIMTIX
 70
     0
  9
$DIMSOXD
 70
     0
  9
$DIMSAH
 70
     0
  9
$DIMBLK1
  1

  9
$DIMBLK2
  1

  9
$DIMSTYLE
  2
ISO-25
  9
$DIMCLRD
 70
     0
  9
$DIMCLRE
 70
     0
  9
$DIMCLRT
 70
     0
  9
$DIMTFAC
 40
1.0
  9
$DIMGAP
 40
1.524
  9
$DIMJUST
 70
     0
  9
$DIMSD1
 70
     0
  9
$DIMSD2
 70
     0
  9
$DIMTOLJ
 70
     0
  9
$DIMTZIN
 70
     0
  9
$DIMALTZ
 70
     0
  9
$DIMALTTZ
 70
     0
  9
$DIMUPT
 70
     0
  9
$DIMDEC
 70
     2
  9
$DIMTDEC
 70
     2
  9
$DIMALTU
 70
     2
  9
$DIMALTTD
 70
     3
  9
$DIMTXSTY
  7
Standard
  9
$DIMAUNIT
 70
     0
  9
$DIMADEC
 70
     2
  9
$DIMALTRND
 40
0.0
  9
$DIMAZIN
 70
     0
  9
$DIMDSEP
 70
    44
  9
$DIMATFIT
 70
     3
  9
$DIMFRAC
 70
     0
  9
$DIMLDRBLK
  1

  9
$DIMLUNIT
 70
     2
  9
$DIMLWD
 70
    -2
  9
$DIMLWE
 70
    -2
  9
$DIMTMOVE
 70
     0
  9
$LUNITS
 70
     2
  9
$LUPREC
 70
     2
  9
$SKETCHINC
 40
1.0
  9
$FILLETRAD
 40
10.0
  9
$AUNITS
 70
     0
  9
$AUPREC
 70
     2
  9
$MENU
  1
.
  9
$ELEVATION
 40
0.0
  9
$PELEVATION
 40
0.0
  9
$THICKNESS
 40
0.0
  9
$LIMCHECK
 70
     0
  9
$CHAMFERA
 40
10.0
  9
$CHAMFERB
 40
10.0
  9
$CHAMFERC
 40
20.0
  9
$CHAMFERD
 40
0.0
  9
$SKPOLY
 70
     0
  9
$TDCREATE
 40
2456560.916599039
  9
$TDUCREATE
 40
2456560.416599039
  9
$TDUPDATE
 40
2456560.916623773
  9
$TDUUPDATE
 40
2456560.416623773
  9
$TDINDWG
 40
0.0000000116
  9
$TDUSRTIMER
 40
0.0000000116
  9
$USRTIMER
 70
     1
  9
$ANGBASE
 50
0.0
  9
$ANGDIR
 70
     0
  9
$PDMODE
 70
     0
  9
$PDSIZE
 40
-1.0
  9
$PLINEWID
 40
0.0
  9
$SPLFRAME
 70
     0
  9
$SPLINETYPE
 70
     6
  9
$SPLINESEGS
 70
     8
  9
$HANDSEED
  5
290
  9
$SURFTAB1
 70
     6
  9
$SURFTAB2
 70
     6
  9
$SURFTYPE
 70
     6
  9
$SURFU
 70
     6
  9
$SURFV
 70
     6
  9
$UCSBASE
  2

  9
$UCSNAME
  2

  9
$UCSORG
 10
0.0
 20
0.0
 30
0.0
  9
$UCSXDIR
 10
1.0
 20
0.0
 30
0.0
  9
$UCSYDIR
 10
0.0
 20
1.0
 30
0.0
  9
$UCSORTHOREF
  2

  9
$UCSORTHOVIEW
 70
     0
  9
$UCSORGTOP
 10
0.0
 20
0.0
 30
0.0
  9
$UCSORGBOTTOM
 10
0.0
 20
0.0
 30
0.0
  9
$UCSORGLEFT
 10
0.0
 20
0.0
 30
0.0
  9
$UCSORGRIGHT
 10
0.0
 20
0.0
 30
0.0
  9
$UCSORGFRONT
 10
0.0
 20
0.0
 30
0.0
  9
$UCSORGBACK
 10
0.0
 20
0.0
 30
0.0
  9
$PUCSBASE
  2

  9
$PUCSNAME
  2

  9
$PUCSORG
 10
0.0
 20
0.0
 30
0.0
  9
$PUCSXDIR
 10
1.0
 20
0.0
 30
0.0
  9
$PUCSYDIR
 10
0.0
 20
1.0
 30
0.0
  9
$PUCSORTHOREF
  2

  9
$PUCSORTHOVIEW
 70
     0
  9
$PUCSORGTOP
 10
0.0
 20
0.0
 30
0.0
  9
$PUCSORGBOTTOM
 10
0.0
 20
0.0
 30
0.0
  9
$PUCSORGLEFT
 10
0.0
 20
0.0
 30
0.0
  9
$PUCSORGRIGHT
 10
0.0
 20
0.0
 30
0.0
  9
$PUCSORGFRONT
 10
0.0
 20
0.0
 30
0.0
  9
$PUCSORGBACK
 10
0.0
 20
0.0
 30
0.0
  9
$USERI1
 70
     0
  9
$USERI2
 70
     0
  9
$USERI3
 70
     0
  9
$USERI4
 70
     0
  9
$USERI5
 70
     0
  9
$USERR1
 40
0.0
  9
$USERR2
 40
0.0
  9
$USERR3
 40
0.0
  9
$USERR4
 40
0.0
  9
$USERR5
 40
0.0
  9
$WORLDVIEW
 70
     1
  9
$SHADEDGE
 70
     3
  9
$SHADEDIF
 70
    70
  9
$TILEMODE
 70
     1
  9
$MAXACTVP
 70
    64
  9
$PINSBASE
 10
0.0
 20
0.0
 30
0.0
  9
$PLIMCHECK
 70
     0
  9
$PEXTMIN
 10
1.0000000000E+20
 20
1.0000000000E+20
 30
1.0000000000E+20
  9
$PEXTMAX
 10
-1.0000000000E+20
 20
-1.0000000000E+20
 30
-1.0000000000E+20
  9
$PLIMMIN
 10
0.0
 20
0.0
  9
$PLIMMAX
 10
420.0
 20
297.0
  9
$UNITMODE
 70
     0
  9
$VISRETAIN
 70
     1
  9
$PLINEGEN
 70
     0
  9
$PSLTSCALE
 70
     1
  9
$TREEDEPTH
 70
  3020
  9
$CMLSTYLE
  2
Standard
  9
$CMLJUST
 70
     0
  9
$CMLSCALE
 40
20.0
  9
$PROXYGRAPHICS
 70
     1
  9
$MEASUREMENT
 70
     1
  9
$CELWEIGHT
370
    -1
  9
$ENDCAPS
280
     0
  9
$JOINSTYLE
280
     0
  9
$LWDISPLAY
290
     1
  9
$INSUNITS
 70
     4
  9
$HYPERLINKBASE
  1

  9
$STYLESHEET
  1

  9
$XEDIT
290
     1
  9
$CEPSNTYPE
380
     0
  9
$PSTYLEMODE
290
     1
  9
$FINGERPRINTGUID
  2
{C45BC65D-096A-49A4-85D6-14C3E28796BB}
  9
$VERSIONGUID
  2
{FAEB1C32-E019-11D5-929B-00C0DF256EC4}
  9
$EXTNAMES
290
     1
  9
$PSVPSCALE
 40
0.0
  9
$OLESTARTUP
290
     0
  0
ENDSEC
  0
SECTION
  2
CLASSES
  0
CLASS
  1
ACDBDICTIONARYWDFLT
  2
AcDbDictionaryWithDefault
  3
ObjectDBX Classes
 90
        0
280
     0
281
     0
  0
CLASS
  1
VISUALSTYLE
  2
AcDbVisualStyle
  3
ObjectDBX Classes
 90
     4095
280
     0
281
     0
  0
CLASS
  1
MATERIAL
  2
AcDbMaterial
  3
ObjectDBX Classes
 90
     1153
280
     0
281
     0
  0
CLASS
  1
ACDBPLACEHOLDER
  2
AcDbPlaceHolder
  3
ObjectDBX Classes
 90
        0
280
     0
281
     0
  0
CLASS
  1
LAYOUT
  2
AcDbLayout
  3
ObjectDBX Classes
 90
        0
280
     0
281
     0
  0
ENDSEC
  0
SECTION
  2
TABLES
  0
TABLE
  2
VPORT
  5
8
330
0
100
AcDbSymbolTable
 70
     1
  0
VPORT
  5
29
330
8
100
AcDbSymbolTableRecord
100
AcDbViewportTableRecord
  2
*Active
 70
     0
 10
0.0
 20
0.0
 11
1.0
 21
1.0
 12
52.4307758664
 22
-73.9811526809
 13
0.0
 23
0.0
 14
10.0
 24
10.0
 15
10.0
 25
10.0
 16
0.0
 26
0.0
 36
1.0
 17
0.0
 27
0.0
 37
0.0
 40
198.8916393246
 41
0.5616640967
 42
50.0
 43
0.0
 44
0.0
 50
0.0
 51
0.0
 71
     0
 72
   100
 73
     1
 74
     3
 75
     0
 76
     0
 77
     0
 78
     0
281
     0
 65
     1
110
0.0
120
0.0
130
0.0
111
1.0
121
0.0
131
0.0
112
0.0
122
1.0
132
0.0
 79
     0
146
0.0
  0
ENDTAB
  0
TABLE
  2
LTYPE
  5
5
330
0
100
AcDbSymbolTable
 70
     6
  0
LTYPE
  5
14
330
5
100
AcDbSymbolTableRecord
100
AcDbLinetypeTableRecord
  2
ByBlock
 70
     0
  3

 72
    65
 73
     0
 40
0.0
  0
LTYPE
  5
15
330
5
100
AcDbSymbolTableRecord
100
AcDbLinetypeTableRecord
  2
ByLayer
 70
     0
  3

 72
    65
 73
     0
 40
0.0
  0
LTYPE
  5
16
330
5
100
AcDbSymbolTableRecord
100
AcDbLinetypeTableRecord
  2
Continuous
 70
     0
  3
Solid line
 72
    65
 73
     0
 40
0.0
  0
LTYPE
  5
3F
330
5
100
AcDbSymbolTableRecord
100
AcDbLinetypeTableRecord
  2
HIDDEN
 70
     0
  3
Hidden __ __ __ __ __ __ __ __ __ __ __ __ __ __
 72
    65
 73
     2
 40
1.905
 49
1.27
 74
     0
 49
-0.635
 74
     0
  0
LTYPE
  5
40
330
5
100
AcDbSymbolTableRecord
100
AcDbLinetypeTableRecord
  2
PHANTOM
 70
     0
  3
Phantom ______  __  __  ______  __  __  ______
 72
    65
 73
     6
 40
12.7
 49
6.35
 74
     0
 49
-1.27
 74
     0
 49
1.27
 74
     0
 49
-1.27
 74
     0
 49
1.27
 74
     0
 49
-1.27
 74
     0
  0
LTYPE
  5
41
330
5
100
AcDbSymbolTableRecord
100
AcDbLinetypeTableRecord
  2
CENTER
 70
     0
  3
Center ____ _ ____ _ ____ _ ____ _ ____ _ ____
 72
    65
 73
     4
 40
10.16
 49
6.35
 74
     0
 49
-1.27
 74
     0
 49
1.27
 74
     0
 49
-1.27
 74
     0
  0
LTYPE
  5
42
330
5
100
AcDbSymbolTableRecord
100
AcDbLinetypeTableRecord
  2
CENTERX2
 70
     0
  3
Center (2x) ________  __  ________  __  _____
 72
    65
 73
     4
 40
20.32
 49
12.7
 74
     0
 49
-2.54
 74
     0
 49
2.54
 74
     0
 49
-2.54
 74
     0
  0
LTYPE
  5
43
330
5
100
AcDbSymbolTableRecord
100
AcDbLinetypeTableRecord
  2
DOT2
 70
     0
  3
Dot (.5x) ........................................
 72
    65
 73
     2
 40
0.635
 49
0.0
 74
     0
 49
-0.635
 74
     0
  0
ENDTAB
  0
TABLE
  2
LAYER
  5
2
330
0
100
AcDbSymbolTable
 70
     1
  0
LAYER
  5
10
330
2
100
AcDbSymbolTableRecord
100
AcDbLayerTableRecord
  2
0
 70
     0
 62
     7
  6
Continuous
370
    -3
390
F
  0
ENDTAB
  0
TABLE
  2
STYLE
  5
3
330
0
100
AcDbSymbolTable
 70
     2
  0
STYLE
  5
11
330
3
100
AcDbSymbolTableRecord
100
AcDbTextStyleTableRecord
  2
Standard
 70
     0
 40
0.0
 41
1.0
 50
0.0
 71
     0
 42
2.5
  3
txt
  4

  0
STYLE
  5
28D
330
3
100
AcDbSymbolTableRecord
100
AcDbTextStyleTableRecord
  2
SLDTEXTSTYLE0
 70
     0
 40
0.0
 41
0.7
 50
0.0
 71
     0
 42
0.2
  3
TXT
  4

  0
ENDTAB
  0
TABLE
  2
VIEW
  5
6
330
0
100
AcDbSymbolTable
 70
     0
  0
ENDTAB
  0
TABLE
  2
UCS
  5
7
330
0
100
AcDbSymbolTable
 70
     0
  0
ENDTAB
  0
TABLE
  2
APPID
  5
9
330
0
100
AcDbSymbolTable
 70
     1
  0
APPID
  5
12
330
9
100
AcDbSymbolTableRecord
100
AcDbRegAppTableRecord
  2
ACAD
 70
     0
  0
ENDTAB
  0
TABLE
  2
DIMSTYLE
  5
A
330
0
100
AcDbSymbolTable
 70
     1
100
AcDbDimStyleTable
  0
DIMSTYLE
105
27
330
A
100
AcDbSymbolTableRecord
100
AcDbDimStyleTableRecord
  2
ISO-25
 70
     0
 41
2.5
 42
0.625
 43
3.75
 44
1.25
 73
     0
 74
     0
 77
     1
 78
     8
140
2.5
141
2.5
143
0.0393700787
147
0.625
171
     3
172
     1
178
     0
271
     2
272
     2
274
     3
278
    44
283
     0
284
     8
340
11
  0
ENDTAB
  0
TABLE
  2
BLOCK_RECORD
  5
1
330
0
100
AcDbSymbolTable
 70
     1
  0
BLOCK_RECORD
  5
1F
330
1
100
AcDbSymbolTableRecord
100
AcDbBlockTableRecord
  2
*Model_Space
340
22
  0
BLOCK_RECORD
  5
1B
330
1
100
AcDbSymbolTableRecord
100
AcDbBlockTableRecord
  2
*Paper_Space
340
1E
  0
BLOCK_RECORD
  5
23
330
1
100
AcDbSymbolTableRecord
100
AcDbBlockTableRecord
  2
*Paper_Space0
340
26
  0
ENDTAB
  0
ENDSEC
  0
SECTION
  2
BLOCKS
  0
BLOCK
  5
20
330
1F
100
AcDbEntity
  8
0
100
AcDbBlockBegin
  2
*Model_Space
 70
     0
 10
0.0
 20
0.0
 30
0.0
  3
*Model_Space
  1

  0
ENDBLK
  5
21
330
1F
100
AcDbEntity
  8
0
100
AcDbBlockEnd
  0
BLOCK
  5
1C
330
1B
100
AcDbEntity
 67
     1
  8
0
100
AcDbBlockBegin
  2
*Paper_Space
 70
     0
 10
0.0
 20
0.0
 30
0.0
  3
*Paper_Space
  1

  0
ENDBLK
  5
1D
330
1B
100
AcDbEntity
 67
     1
  8
0
100
AcDbBlockEnd
  0
BLOCK
  5
24
330
23
100
AcDbEntity
  8
0
100
AcDbBlockBegin
  2
*Paper_Space0
 70
     0
 10
0.0
 20
0.0
 30
0.0
  3
*Paper_Space0
  1

  0
ENDBLK
  5
25
330
23
100
AcDbEntity
  8
0
100
AcDbBlockEnd
  0
ENDSEC
  0
SECTION
  2
ENTITIES
  0
LWPOLYLINE
  5
4A
330
1F
100
AcDbEntity
  8
0
  6
Continuous
 62
     7
370
    15
100
AcDbPolyline
 90
       23
 70
   128
 43
0.0
 10
11.7326727141
 20
-3.6680513475
 10
12.0082485306
 20
-3.1712560772
 10
12.1447034174
 20
-2.6287621288
 10
12.1309826112
 20
-2.0845191355
 10
11.96819769
 20
-1.5826184279
 10
11.6695365201
 20
-1.1637210165
 10
11.2591948533
 20
-0.8617634783
 10
10.7704161309
 20
-0.7012086171
 10
10.2427982983
 20
-0.695063633
 10
9.7190858143
 20
-0.843826356
 10
9.2417067498
 20
-1.1354449151
 10
8.8493355174
 20
-1.5462941089
 10
8.5737597009
 20
-2.0430893792
 10
8.4373048141
 20
-2.5855833276
 10
8.4510256203
 20
-3.1298263209
 10
8.6138105415
 20
-3.6317270285
 10
8.9124717114
 20
-4.0506244399
 10
9.3228133782
 20
-4.3525819781
 10
9.8115921006
 20
-4.5131368393
 10
10.3392099332
 20
-4.5192818234
 10
10.8629224172
 20
-4.3705191004
 10
11.3403014818
 20
-4.0789005413
 10
11.7326727141
 20
-3.6680513475
  0
SPLINE
  5
55
330
1F
100
AcDbEntity
  8
0
  6
Continuous
 62
     7
370
    15
100
AcDbSpline
210
0.0
220
0.0
230
1.0
 70
     8
 71
     3
 72
     8
 73
     4
 74
     0
 42
0.00000001
 43
0.00000001
 12
1.0
 22
0.0
 32
0.0
 13
1.0
 23
0.0
 33
0.0
 40
0.018750322670946
 40
0.018750322670946
 40
0.018750322670946
 40
0.018750322670946
 40
0.8258702315825766
 40
0.8258702315825766
 40
0.8258702315825766
 40
0.8258702315825766
 10
47.59090522350968
 20
-170.5808714205721
 30
0.0
 10
63.75101656151319
 20
-142.3699214330315
 30
0.0
 10
74.98702506033287
 20
-112.985878660385
 30
0.0
 10
81.29893071996867
 20
-82.42874310263262
 30
0.0
  0
SPLINE
  5
59
330
1F
100
AcDbEntity
  8
0
  6
Continuous
 62
     7
370
    15
100
AcDbSpline
210
0.0
220
0.0
230
1.0
 70
     8
 71
     3
 72
     8
 73
     4
 74
     0
 42
0.00000001
 43
0.00000001
 12
1.0
 22
0.0
 32
0.0
 13
1.0
 23
0.0
 33
0.0
 40
0.0
 40
0.0
 40
0.0
 40
0.0
 40
0.973884675468758
 40
0.973884675468758
 40
0.973884675468758
 40
0.973884675468758
 10
30.49720933858728
 20
-70.423555966167
 30
0.0
 10
30.90077099696569
 20
-94.2487199031302
 30
0.0
 10
21.41869634822835
 20
-116.4584812982339
 30
0.0
 10
2.050985392375228
 20
-137.052840151478
 30
0.0
  0
SPLINE
  5
76
330
1F
100
AcDbEntity
  8
0
  6
Continuous
 62
     7
370
    15
100
AcDbSpline
210
0.0
220
0.0
230
1.0
 70
     8
 71
     3
 72
    20
 73
    16
 74
     0
 42
0.00000001
 43
0.00000001
 12
1.0
 22
0.0
 32
0.0
 13
1.0
 23
0.0
 33
0.0
 40
0.3190676360348755
 40
0.3190676360348755
 40
0.3190676360348755
 40
0.3190676360348755
 40
0.3749999999999995
 40
0.3749999999999995
 40
0.4374999999999996
 40
0.4374999999999996
 40
0.4999999999999997
 40
0.4999999999999997
 40
0.7499999999999999
 40
0.7499999999999999
 40
0.8125
 40
0.8125
 40
0.875
 40
0.875
 40
1.0
 40
1.0
 40
1.0
 40
1.0
 10
36.80969413457187
 20
-94.49978758927318
 30
0.0
 10
36.48232979413962
 20
-95.75146984900938
 30
0.0
 10
36.12798352489393
 20
-97.00080188160415
 30
0.0
 10
35.32000669468245
 20
-99.64113995954482
 30
0.0
 10
34.85888688112952
 20
-101.0335241690405
 30
0.0
 10
33.87086567240071
 20
-103.8037182051813
 30
0.0
 10
33.34664542232839
 20
-105.1743256242804
 30
0.0
 10
30.5799146435288
 20
-111.957513722344
 30
0.0
 10
27.90182454818654
 20
-117.1611752600051
 30
0.0
 10
24.04530172433626
 20
-123.4216611109896
 30
0.0
 10
23.24847557812804
 20
-124.6615172412309
 30
0.0
 10
21.60530644521078
 20
-127.1174794992102
 30
0.0
 10
20.75797485138038
 20
-128.3349366212308
 30
0.0
 10
18.15124319693247
 20
-131.942611192072
 30
0.0
 10
16.33093477996771
 20
-134.2835239829721
 30
0.0
 10
14.43602687968896
 20
-136.5663726379053
 30
0.0
  0
LWPOLYLINE
  5
80
330
1F
100
AcDbEntity
  8
0
  6
Continuous
 62
     7
370
    15
100
AcDbPolyline
 90
        3
 70
   128
 43
0.0
 10
8.7616889462
 20
-1.6745005608
 10
8.8583637203
 20
-1.5523010454
 10
8.9460102915
 20
-1.4240945936
  0
LWPOLYLINE
  5
8B
330
1F
100
AcDbEntity
  8
0
  6
Continuous
 62
     7
370
    15
100
AcDbPolyline
 90
       23
 70
   128
 43
0.0
 10
72.5324717601
 20
15.532276692
 10
72.8080475765
 20
16.0290719623
 10
72.9445024633
 20
16.5715659108
 10
72.9307816571
 20
17.1158089041
 10
72.7679967359
 20
17.6177096116
 10
72.4693355661
 20
18.036607023
 10
72.0589938992
 20
18.3385645613
 10
71.5702151769
 20
18.4991194224
 10
71.0425973442
 20
18.5052644065
 10
70.5188848602
 20
18.3565016835
 10
70.0415057957
 20
18.0648831244
 10
69.6491345633
 20
17.6540339306
 10
69.3735587469
 20
17.1572386603
 10
69.23710386
 20
16.6147447119
 10
69.2508246663
 20
16.0705017186
 10
69.4136095874
 20
15.568601011
 10
69.7122707573
 20
15.1497035996
 10
70.1226124242
 20
14.8477460614
 10
70.6113911465
 20
14.6871912002
 10
71.1390089791
 20
14.6810462161
 10
71.6627214631
 20
14.8298089391
 10
72.1401005277
 20
15.1214274982
 10
72.5324717601
 20
15.532276692
  0
LWPOLYLINE
  5
8F
330
1F
100
AcDbEntity
  8
0
  6
Continuous
 62
     7
370
    15
100
AcDbPolyline
 90
       12
 70
   128
 43
0.0
 10
65.9925733903
 20
17.2408508612
 10
65.7421086412
 20
17.3246200104
 10
65.4158987694
 20
17.2711031088
 10
65.0403713586
 20
17.0846357774
 10
64.6459494062
 20
16.7803244904
 10
64.2645866332
 20
16.3828227386
 10
63.9271787834
 20
15.9243337497
 10
63.6610606341
 20
15.442001575
 10
63.4877914951
 20
14.9749018987
 10
63.4214086016
 20
14.5608763586
 10
63.4672899008
 20
14.2334668417
 10
63.6217183627
 20
14.0191981199
  0
LWPOLYLINE
  5
91
330
1F
100
AcDbEntity
  8
0
  6
Continuous
 62
     7
370
    15
100
AcDbPolyline
 90
       13
 70
   128
 43
0.0
 10
57.1384819478
 20
5.2094075061
 10
56.858129599
 20
5.3218202553
 10
56.4930107229
 20
5.2869634791
 10
56.0685595145
 20
5.1072653019
 10
55.6143432608
 20
4.7952435054
 10
55.1620026832
 20
4.3726335398
 10
54.7430478435
 20
3.8688744313
 10
54.3866631518
 20
3.3190580584
 10
54.1176743789
 20
2.7614846505
 10
53.9548192932
 20
2.2349947922
 10
53.9094423858
 20
1.7762637869
 10
53.9847046141
 20
1.4172468538
 10
54.1753632082
 20
1.1829531261
  0
LWPOLYLINE
  5
96
330
1F
100
AcDbEntity
  8
0
  6
Continuous
 62
     7
370
    15
100
AcDbPolyline
 90
       12
 70
   128
 43
0.0
 10
103.5759964663
 20
-10.4156091779
 10
103.3255317173
 20
-10.3318400287
 10
102.9993218454
 20
-10.3853569303
 10
102.6237944346
 20
-10.5718242617
 10
102.2293724823
 20
-10.8761355487
 10
101.8480097093
 20
-11.2736373005
 10
101.5106018595
 20
-11.7321262894
 10
101.2444837102
 20
-12.2144584641
 10
101.0712145712
 20
-12.6815581404
 10
101.0048316776
 20
-13.0955836805
 10
101.0507129768
 20
-13.4229931974
 10
101.2051414388
 20
-13.6372619192
  0
LWPOLYLINE
  5
9C
330
1F
100
AcDbEntity
  8
0
  6
Continuous
 62
     7
370
    15
100
AcDbPolyline
 90
       19
 70
   128
 43
0.0
 10
55.9575861363
 20
-0.128528723
 10
55.8181803729
 20
0.0127923196
 10
55.7286983121
 20
0.2125686297
 10
55.6919193291
 20
0.464595016
 10
55.7089858046
 20
0.7610433637
 10
55.7793676421
 20
1.0927057806
 10
55.9008787326
 20
1.4492806011
 10
56.0697448572
 20
1.8196923632
 10
56.2807209165
 20
2.1924358197
 10
56.5272538471
 20
2.5559332993
 10
56.8016861646
 20
2.8988943173
 10
57.0954938103
 20
3.2106662657
 10
57.3995509141
 20
3.4815652907
 10
57.7044132507
 20
3.7031770802
 10
58.0006115837
 20
3.8686182176
 10
58.2789457868
 20
3.972749986
 10
58.5307706057
 20
4.0123379802
 10
58.7482641864
 20
3.9861525695
 10
58.9246710268
 20
3.8950070912
  0
LWPOLYLINE
  5
A5
330
1F
100
AcDbEntity
  8
0
  6
Continuous
 62
     7
370
    15
100
AcDbPolyline
 90
        3
 70
   128
 43
0.0
 10
69.5614879921
 20
17.5258274788
 10
69.6581627662
 20
17.6480269941
 10
69.7458093374
 20
17.7762334459
  0
LWPOLYLINE
  5
A7
330
1F
100
AcDbEntity
  8
0
  6
Continuous
 62
     7
370
    15
100
AcDbPolyline
 90
       23
 70
   128
 43
0.0
 10
50.8904414455
 20
-32.9791173515
 10
50.4980702132
 20
-33.3899665453
 10
50.0206911486
 20
-33.6815851044
 10
49.4969786646
 20
-33.8303478275
 10
48.969360832
 20
-33.8242028434
 10
48.4805821096
 20
-33.6636479822
 10
48.0702404428
 20
-33.361690444
 10
47.7715792729
 20
-32.9427930326
 10
47.6087943517
 20
-32.440892325
 10
47.5950735455
 20
-31.8966493317
 10
47.7315284323
 20
-31.3541553832
 10
48.0071042488
 20
-30.857360113
 10
48.3994754811
 20
-30.4465109192
 10
48.8768545457
 20
-30.1548923601
 10
49.4005670297
 20
-30.006129637
 10
49.9281848623
 20
-30.0122746211
 10
50.4169635847
 20
-30.1728294823
 10
50.8273052515
 20
-30.4747870206
 10
51.1259664214
 20
-30.893684432
 10
51.2887513426
 20
-31.3955851395
 10
51.3024721488
 20
-31.9398281328
 10
51.166017262
 20
-32.4823220813
 10
50.8904414455
 20
-32.9791173515
  0
LWPOLYLINE
  5
AF
330
1F
100
AcDbEntity
  8
0
  6
Continuous
 62
     7
370
    15
100
AcDbPolyline
 90
        4
 70
   128
 43
0.0
 10
60.2048910793
 20
16.5048444206
 10
60.2430741102
 20
16.5485278498
 10
60.3632926607
 20
16.6013381754
 10
60.4985565269
 20
16.5494836357
  0
LWPOLYLINE
  5
B1
330
1F
100
AcDbEntity
  8
0
  6
Continuous
 62
     7
370
    15
100
AcDbPolyline
 90
       23
 70
   128
 43
0.0
 10
40.108204635
 20
-141.2561653123
 10
40.5005758674
 20
-140.8453161185
 10
40.9779549319
 20
-140.5536975594
 10
41.5016674159
 20
-140.4049348363
 10
42.0292852486
 20
-140.4110798204
 10
42.5180639709
 20
-140.5716346816
 10
42.9284056378
 20
-140.8735922199
 10
43.2270668076
 20
-141.2924896313
 10
43.3898517288
 20
-141.7943903388
 10
43.403572535
 20
-142.3386333321
 10
43.2671176482
 20
-142.8811272806
 10
42.9915418318
 20
-143.3779225508
 10
42.5991705994
 20
-143.7887717446
 10
42.1217915348
 20
-144.0803903037
 10
41.5980790508
 20
-144.2291530268
 10
41.0704612182
 20
-144.2230080427
 10
40.5816824959
 20
-144.0624531815
 10
40.171340829
 20
-143.7604956432
 10
39.8726796591
 20
-143.3415982318
 10
39.709894738
 20
-142.8396975243
 10
39.6961739317
 20
-142.295454531
 10
39.8326288186
 20
-141.7529605825
 10
40.108204635
 20
-141.2561653123
  0
LWPOLYLINE
  5
B2
330
1F
100
AcDbEntity
  8
0
  6
Continuous
 62
     7
370
    15
100
AcDbPolyline
 90
       23
 70
   128
 43
0.0
 10
81.6951955173
 20
-43.9767458636
 10
82.0875667497
 20
-43.5658966698
 10
82.5649458142
 20
-43.2742781107
 10
83.0886582982
 20
-43.1255153877
 10
83.6162761309
 20
-43.1316603718
 10
84.1050548532
 20
-43.292215233
 10
84.5153965201
 20
-43.5941727712
 10
84.8140576899
 20
-44.0130701826
 10
84.9768426111
 20
-44.5149708902
 10
84.9905634173
 20
-45.0592138835
 10
84.8541085305
 20
-45.6017078319
 10
84.5785327141
 20
-46.0985031022
 10
84.1861614817
 20
-46.509352296
 10
83.7087824171
 20
-46.8009708551
 10
83.1850699331
 20
-46.9497335781
 10
82.6574521005
 20
-46.943588594
 10
82.1686733782
 20
-46.7830337328
 10
81.7583317113
 20
-46.4810761946
 10
81.4596705414
 20
-46.0621787832
 10
81.2968856203
 20
-45.5602780756
 10
81.283164814
 20
-45.0160350823
 10
81.4196197009
 20
-44.4735411339
 10
81.6951955173
 20
-43.9767458636
  0
SPLINE
  5
B4
330
1F
100
AcDbEntity
  8
0
  6
Continuous
 62
     7
370
    15
100
AcDbSpline
210
0.0
220
0.0
230
1.0
 70
     8
 71
     3
 72
     8
 73
     4
 74
     0
 42
0.00000001
 43
0.00000001
 12
1.0
 22
0.0
 32
0.0
 13
1.0
 23
0.0
 33
0.0
 40
0.0
 40
0.0
 40
0.0
 40
0.0
 40
0.0400226850954134
 40
0.0400226850954134
 40
0.0400226850954134
 40
0.0400226850954134
 10
42.4030522002712
 20
-157.14605372695
 30
0.0
 10
43.08458477060947
 20
-155.8713889043067
 30
0.0
 10
43.75665507914649
 20
-154.5928150273465
 30
0.0
 10
44.41919251420796
 20
-153.3103029249391
 30
0.0
  0
SPLINE
  5
B6
330
1F
100
AcDbEntity
  8
0
  6
Continuous
 62
     7
370
    15
100
AcDbSpline
210
0.0
220
0.0
230
1.0
 70
     8
 71
     3
 72
    17
 73
    13
 74
     0
 42
0.00000001
 43
0.00000001
 12
1.0
 22
0.0
 32
0.0
 13
1.0
 23
0.0
 33
0.0
 40
0.2946604390370924
 40
0.2946604390370924
 40
0.2946604390370924
 40
0.2946604390370924
 40
0.3125000000000009
 40
0.3125000000000009
 40
0.3750000000000012
 40
0.5000000000000012
 40
0.5000000000000012
 40
0.5625000000000012
 40
0.5625000000000012
 40
0.625000000000001
 40
0.625000000000001
 40
0.7403471495400105
 40
0.7403471495400105
 40
0.7403471495400105
 40
0.7403471495400105
 10
55.88920734818393
 20
-128.3451900798222
 30
0.0
 10
56.12909625456154
 20
-127.7508708895883
 30
0.0
 10
56.36693458598572
 20
-127.1559024068744
 30
0.0
 10
57.4285835359892
 20
-124.4740197487971
 30
0.0
 10
59.8293403095889
 20
-118.194375852658
 30
0.0
 10
61.9987003152949
 20
-111.8529543098287
 30
0.0
 10
64.01317231455556
 20
-105.4701812104248
 30
0.0
 10
64.65884877023451
 20
-103.3356983732028
 30
0.0
 10
65.89847494592641
 20
-99.05292284294504
 30
0.0
 10
66.49228399960437
 20
-96.90496557182057
 30
0.0
 10
68.1044955405467
 20
-90.78859959334254
 30
0.0
 10
69.05871177356643
 20
-86.81206500770466
 30
0.0
 10
69.92310200006574
 20
-82.82608363009528
 30
0.0
  0
SPLINE
  5
D1
330
1F
100
AcDbEntity
  8
0
  6
Continuous
 62
     7
370
    15
100
AcDbSpline
210
0.0
220
0.0
230
1.0
 70
     8
 71
     3
 72
     8
 73
     4
 74
     0
 42
0.00000001
 43
0.00000001
 12
1.0
 22
0.0
 32
0.0
 13
1.0
 23
0.0
 33
0.0
 40
0.9156664170355315
 40
0.9156664170355315
 40
0.9156664170355315
 40
0.9156664170355315
 40
0.9727577373497014
 40
0.9727577373497014
 40
0.9727577373497014
 40
0.9727577373497014
 10
2.544066526539372
 20
-131.2264152281379
 30
0.0
 10
1.477974083253092
 20
-132.4450251281018
 30
0.0
 10
0.377908965461457
 20
-133.6580835852405
 30
0.0
 10
-0.7561288268354699
 20
-134.865590599554
 30
0.0
  0
SPLINE
  5
D2
330
1F
100
AcDbEntity
  8
0
  6
Continuous
 62
     7
370
    15
100
AcDbSpline
210
0.0
220
0.0
230
1.0
 70
     8
 71
     3
 72
     8
 73
     4
 74
     0
 42
0.00000001
 43
0.00000001
 12
1.0
 22
0.0
 32
0.0
 13
1.0
 23
0.0
 33
0.0
 40
0.8233679089751147
 40
0.8233679089751147
 40
0.8233679089751147
 40
0.8233679089751147
 40
0.9156664170355319
 40
0.9156664170355319
 40
0.9156664170355319
 40
0.9156664170355319
 10
7.448284692307968
 20
-125.2725725136794
 30
0.0
 10
5.902338344022262
 20
-127.2716963391314
 30
0.0
 10
4.267598955432717
 20
-129.2563105772843
 30
0.0
 10
2.544066526539372
 20
-131.2264152281379
 30
0.0
  0
SPLINE
  5
D3
330
1F
100
AcDbEntity
  8
0
  6
Continuous
 62
     7
370
    15
100
AcDbSpline
210
0.0
220
0.0
230
1.0
 70
     8
 71
     3
 72
     8
 73
     4
 74
     0
 42
0.00000001
 43
0.00000001
 12
1.0
 22
0.0
 32
0.0
 13
1.0
 23
0.0
 33
0.0
 40
0.7566846054741538
 40
0.7566846054741538
 40
0.7566846054741538
 40
0.7566846054741538
 40
0.8233679089751148
 40
0.8233679089751148
 40
0.8233679089751148
 40
0.8233679089751148
 10
10.65996269720625
 20
-120.9169048554307
 30
0.0
 10
9.635750591694956
 20
-122.3763676320711
 30
0.0
 10
8.56519125672884
 20
-123.8282568514874
 30
0.0
 10
7.448284692307933
 20
-125.2725725136794
 30
0.0
  0
SPLINE
  5
D4
330
1F
100
AcDbEntity
  8
0
  6
Continuous
 62
     7
370
    15
100
AcDbSpline
210
0.0
220
0.0
230
1.0
 70
     8
 71
     3
 72
     8
 73
     4
 74
     0
 42
0.00000001
 43
0.00000001
 12
1.0
 22
0.0
 32
0.0
 13
1.0
 23
0.0
 33
0.0
 40
0.6937498913775116
 40
0.6937498913775116
 40
0.6937498913775116
 40
0.6937498913775116
 40
0.7566846054741558
 40
0.7566846054741558
 40
0.7566846054741558
 40
0.7566846054741558
 10
13.43602266944083
 20
-116.7644088098149
 30
0.0
 10
12.55195223530679
 20
-118.155320156616
 30
0.0
 10
11.62659891122857
 20
-119.5394855051546
 30
0.0
 10
10.65996269720617
 20
-120.9169048554307
 30
0.0
  0
SPLINE
  5
D5
330
1F
100
AcDbEntity
  8
0
  6
Continuous
 62
     7
370
    15
100
AcDbSpline
210
0.0
220
0.0
230
1.0
 70
     8
 71
     3
 72
     8
 73
     4
 74
     0
 42
0.00000001
 43
0.00000001
 12
1.0
 22
0.0
 32
0.0
 13
1.0
 23
0.0
 33
0.0
 40
0.6256189842050811
 40
0.6256189842050811
 40
0.6256189842050811
 40
0.6256189842050811
 40
0.6937498913775116
 40
0.6937498913775116
 40
0.6937498913775116
 40
0.6937498913775116
 10
16.16206928435125
 20
-112.223435903267
 30
0.0
 10
15.30176842107908
 20
-113.7449994883779
 30
0.0
 10
14.39308621610894
 20
-115.2586571238939
 30
0.0
 10
13.43602266944085
 20
-116.764408809815
 30
0.0
  0
SPLINE
  5
D6
330
1F
100
AcDbEntity
  8
0
  6
Continuous
 62
     7
370
    15
100
AcDbSpline
210
0.0
220
0.0
230
1.0
 70
     8
 71
     3
 72
     8
 73
     4
 74
     0
 42
0.00000001
 43
0.00000001
 12
1.0
 22
0.0
 32
0.0
 13
1.0
 23
0.0
 33
0.0
 40
0.5822018198294928
 40
0.5822018198294928
 40
0.5822018198294928
 40
0.5822018198294928
 40
0.6256189842050811
 40
0.6256189842050811
 40
0.6256189842050811
 40
0.6256189842050811
 10
17.74783443237206
 20
-109.3049050336431
 30
0.0
 10
17.23889378398445
 20
-110.2809592746526
 30
0.0
 10
16.71030540131082
 20
-111.2538028978606
 30
0.0
 10
16.16206928435123
 20
-112.223435903267
 30
0.0
  0
SPLINE
  5
D7
330
1F
100
AcDbEntity
  8
0
  6
Continuous
 62
     7
370
    15
100
AcDbSpline
210
0.0
220
0.0
230
1.0
 70
     8
 71
     3
 72
     8
 73
     4
 74
     0
 42
0.00000001
 43
0.00000001
 12
1.0
 22
0.0
 32
0.0
 13
1.0
 23
0.0
 33
0.0
 40
0.537396688944319
 40
0.537396688944319
 40
0.537396688944319
 40
0.537396688944319
 40
0.5822018198294827
 40
0.5822018198294827
 40
0.5822018198294827
 40
0.5822018198294827
 10
19.26069400238422
 20
-106.2728768377363
 30
0.0
 10
18.77733149609701
 20
-107.2869720770073
 30
0.0
 10
18.27304497275975
 20
-108.2976481423094
 30
0.0
 10
17.74783443237243
 20
-109.3049050336425
 30
0.0
  0
SPLINE
  5
D8
330
1F
100
AcDbEntity
  8
0
  6
Continuous
 62
     7
370
    15
100
AcDbSpline
210
0.0
220
0.0
230
1.0
 70
     8
 71
     3
 72
     8
 73
     4
 74
     0
 42
0.00000001
 43
0.00000001
 12
1.0
 22
0.0
 32
0.0
 13
1.0
 23
0.0
 33
0.0
 40
0.4870025159588802
 40
0.4870025159588802
 40
0.4870025159588802
 40
0.4870025159588802
 40
0.5373966792254369
 40
0.5373966792254369
 40
0.5373966792254369
 40
0.5373966792254369
 10
20.8122577413096
 20
-102.838116797468
 30
0.0
 10
20.32153969551932
 20
-103.9873619899151
 30
0.0
 10
19.80435188739252
 20
-105.1322817833659
 30
0.0
 10
19.2606943169292
 20
-106.2728761778204
 30
0.0
  0
SPLINE
  5
DA
330
1F
100
AcDbEntity
  8
0
  6
Continuous
 62
     7
370
    15
100
AcDbSpline
210
0.0
220
0.0
230
1.0
 70
     8
 71
     3
 72
     8
 73
     4
 74
     0
 42
0.00000001
 43
0.00000001
 12
1.0
 22
0.0
 32
0.0
 13
1.0
 23
0.0
 33
0.0
 40
0.3986485857717065
 40
0.3986485857717065
 40
0.3986485857717065
 40
0.3986485857717065
 40
0.4631245242964233
 40
0.4631245242964233
 40
0.4631245242964233
 40
0.4631245242964233
 10
23.14922553072571
 20
-96.75346185887236
 30
0.0
 10
22.64013742858157
 20
-98.24324894611507
 30
0.0
 10
22.08771970350809
 20
-99.72595558038105
 30
0.0
 10
21.49197235550526
 20
-101.2015817616703
 30
0.0
  0
SPLINE
  5
DB
330
1F
100
AcDbEntity
  8
0
  6
Continuous
 62
     7
370
    15
100
AcDbSpline
210
0.0
220
0.0
230
1.0
 70
     8
 71
     3
 72
     8
 73
     4
 74
     0
 42
0.00000001
 43
0.00000001
 12
1.0
 22
0.0
 32
0.0
 13
1.0
 23
0.0
 33
0.0
 40
0.3561307587327099
 40
0.3561307587327099
 40
0.3561307587327099
 40
0.3561307587327099
 40
0.3986485859614522
 40
0.3986485859614522
 40
0.3986485859614522
 40
0.3986485859614522
 10
24.09983369235019
 20
-93.79696219181291
 30
0.0
 10
23.80180650715757
 20
-94.78554107199183
 30
0.0
 10
23.48493711845121
 20
-95.77104096539591
 30
0.0
 10
23.14922552623113
 20
-96.75346187202518
 30
0.0
  0
SPLINE
  5
DC
330
1F
100
AcDbEntity
  8
0
  6
Continuous
 62
     7
370
    15
100
AcDbSpline
210
0.0
220
0.0
230
1.0
 70
     8
 71
     3
 72
     8
 73
     4
 74
     0
 42
0.00000001
 43
0.00000001
 12
1.0
 22
0.0
 32
0.0
 13
1.0
 23
0.0
 33
0.0
 40
0.3275119750141177
 40
0.3275119750141177
 40
0.3275119750141177
 40
0.3275119750141177
 40
0.3561307587328039
 40
0.3561307587328039
 40
0.3561307587328039
 40
0.3561307587328039
 10
24.6760304953487
 20
-91.79653753216506
 30
0.0
 10
24.49250163150251
 20
-92.46474073224833
 30
0.0
 10
24.30043603050236
 20
-93.13154895213316
 30
0.0
 10
24.09983369234821
 20
-93.79696219181946
 30
0.0
  0
SPLINE
  5
DD
330
1F
100
AcDbEntity
  8
0
  6
Continuous
 62
     7
370
    15
100
AcDbSpline
210
0.0
220
0.0
230
1.0
 70
     8
 71
     3
 72
     8
 73
     4
 74
     0
 42
0.00000001
 43
0.00000001
 12
1.0
 22
0.0
 32
0.0
 13
1.0
 23
0.0
 33
0.0
 40
0.2932537012453019
 40
0.2932537012453019
 40
0.2932537012453019
 40
0.2932537012453019
 40
0.327511975014156
 40
0.327511975014156
 40
0.327511975014156
 40
0.327511975014156
 10
25.29841528115315
 20
-89.39091171565671
 30
0.0
 10
25.10318633492571
 20
-90.19478591351485
 30
0.0
 10
24.89572473965731
 20
-90.9966611856852
 30
0.0
 10
24.67603049534795
 20
-91.79653753216773
 30
0.0
  0
SPLINE
  5
DE
330
1F
100
AcDbEntity
  8
0
  6
Continuous
 62
     7
370
    15
100
AcDbSpline
210
0.0
220
0.0
230
1.0
 70
     8
 71
     3
 72
     8
 73
     4
 74
     0
 42
0.00000001
 43
0.00000001
 12
1.0
 22
0.0
 32
0.0
 13
1.0
 23
0.0
 33
0.0
 40
0.2535915229426847
 40
0.2535915229426847
 40
0.2535915229426847
 40
0.2535915229426847
 40
0.2932537012453009
 40
0.2932537012453009
 40
0.2932537012453009
 40
0.2932537012453009
 10
25.9272998960989
 20
-86.59084160901884
 30
0.0
 10
25.73406787158278
 20
-87.52687759567793
 30
0.0
 10
25.52443966660088
 20
-88.46023429789055
 30
0.0
 10
25.29841528115318
 20
-89.39091171565666
 30
0.0
  0
SPLINE
  5
DF
330
1F
100
AcDbEntity
  8
0
  6
Continuous
 62
     7
370
    15
100
AcDbSpline
210
0.0
220
0.0
230
1.0
 70
     8
 71
     3
 72
     8
 73
     4
 74
     0
 42
0.00000001
 43
0.00000001
 12
1.0
 22
0.0
 32
0.0
 13
1.0
 23
0.0
 33
0.0
 40
0.2177606230961885
 40
0.2177606230961885
 40
0.2177606230961885
 40
0.2177606230961885
 40
0.2535915229426849
 40
0.2535915229426849
 40
0.2535915229426849
 40
0.2535915229426849
 10
26.4108540965265
 20
-84.04743067179457
 30
0.0
 10
26.2630508690976
 20
-84.89742097686783
 30
0.0
 10
26.10186613562173
 20
-85.74522462260929
 30
0.0
 10
25.92729989609888
 20
-86.59084160901887
 30
0.0
  0
SPLINE
  5
E0
330
1F
100
AcDbEntity
  8
0
  6
Continuous
 62
     7
370
    15
100
AcDbSpline
210
0.0
220
0.0
230
1.0
 70
     8
 71
     3
 72
     8
 73
     4
 74
     0
 42
0.00000001
 43
0.00000001
 12
1.0
 22
0.0
 32
0.0
 13
1.0
 23
0.0
 33
0.0
 40
0.186497503624717
 40
0.186497503624717
 40
0.186497503624717
 40
0.186497503624717
 40
0.2177606230961885
 40
0.2177606230961885
 40
0.2177606230961885
 40
0.2177606230961885
 10
26.76717564944449
 20
-81.81754008914285
 30
0.0
 10
26.65858898328599
 20
-82.56250162832687
 30
0.0
 10
26.53981513231333
 20
-83.30579848921077
 30
0.0
 10
26.4108540965265
 20
-84.04743067179457
 30
0.0
  0
SPLINE
  5
E1
330
1F
100
AcDbEntity
  8
0
  6
Continuous
 62
     7
370
    15
100
AcDbSpline
210
0.0
220
0.0
230
1.0
 70
     8
 71
     3
 72
     8
 73
     4
 74
     0
 42
0.00000001
 43
0.00000001
 12
1.0
 22
0.0
 32
0.0
 13
1.0
 23
0.0
 33
0.0
 40
0.1506327224772167
 40
0.1506327224772167
 40
0.1506327224772167
 40
0.1506327224772167
 40
0.1864975036247168
 40
0.1864975036247168
 40
0.1864975036247168
 40
0.1864975036247168
 10
27.10066423695743
 20
-79.24712733222536
 30
0.0
 10
27.00290819927206
 20
-80.10612238117979
 30
0.0
 10
26.89174533676774
 20
-80.96292663348562
 30
0.0
 10
26.76717564944448
 20
-81.81754008914285
 30
0.0
  0
SPLINE
  5
E2
330
1F
100
AcDbEntity
  8
0
  6
Continuous
 62
     7
370
    15
100
AcDbSpline
210
0.0
220
0.0
230
1.0
 70
     8
 71
     3
 72
     8
 73
     4
 74
     0
 42
0.00000001
 43
0.00000001
 12
1.0
 22
0.0
 32
0.0
 13
1.0
 23
0.0
 33
0.0
 40
0.1228948891502048
 40
0.1228948891502048
 40
0.1228948891502048
 40
0.1228948891502048
 40
0.1506327224772169
 40
0.1506327224772169
 40
0.1506327224772169
 40
0.1506327224772169
 10
27.30342009158812
 20
-77.2501549247504
 30
0.0
 10
27.24385407296414
 20
-77.91712281467342
 30
0.0
 10
27.17626878808726
 20
-78.58278028383174
 30
0.0
 10
27.10066423695743
 20
-79.24712733222539
 30
0.0
  0
SPLINE
  5
E3
330
1F
100
AcDbEntity
  8
0
  6
Continuous
 62
     7
370
    15
100
AcDbSpline
210
0.0
220
0.0
230
1.0
 70
     8
 71
     3
 72
     8
 73
     4
 74
     0
 42
0.00000001
 43
0.00000001
 12
1.0
 22
0.0
 32
0.0
 13
1.0
 23
0.0
 33
0.0
 40
0.0951377434528133
 40
0.0951377434528133
 40
0.0951377434528133
 40
0.0951377434528133
 40
0.1228948880711221
 40
0.1228948880711221
 40
0.1228948880711221
 40
0.1228948880711221
 10
27.45815125462335
 20
-75.24392139427657
 30
0.0
 10
27.41460463888422
 20
-75.91397812453724
 30
0.0
 10
27.36302758685644
 20
-76.58272260874818
 30
0.0
 10
27.30342009854
 20
-77.25015484690944
 30
0.0
  0
SPLINE
  5
E8
330
1F
100
AcDbEntity
  8
0
  6
Continuous
 62
     7
370
    15
100
AcDbSpline
210
0.0
220
0.0
230
1.0
 70
     8
 71
     3
 72
     8
 73
     4
 74
     0
 42
0.00000001
 43
0.00000001
 12
1.0
 22
0.0
 32
0.0
 13
1.0
 23
0.0
 33
0.0
 40
0.0068171082139102
 40
0.0068171082139102
 40
0.0068171082139102
 40
0.0068171082139102
 40
0.0197254543795683
 40
0.0197254543795683
 40
0.0197254543795683
 40
0.0197254543795683
 10
27.6299218819662
 20
-68.80789044581701
 30
0.0
 10
27.63343650212826
 20
-69.12338112398194
 30
0.0
 10
27.63521439842794
 20
-69.43858800573213
 30
0.0
 10
27.63525557086521
 20
-69.75351109106754
 30
0.0
  0
SPLINE
  5
EA
330
1F
100
AcDbEntity
  8
0
  6
Continuous
 62
     7
370
    15
100
AcDbSpline
210
0.0
220
0.0
230
1.0
 70
     8
 71
     3
 72
     8
 73
     4
 74
     0
 42
0.00000001
 43
0.00000001
 12
1.0
 22
0.0
 32
0.0
 13
1.0
 23
0.0
 33
0.0
 40
0.0
 40
0.0
 40
0.0
 40
0.0
 40
0.0068169657286516
 40
0.0068169657286516
 40
0.0068169657286516
 40
0.0068169657286516
 10
27.62290034471062
 20
-68.30780566411819
 30
0.0
 10
27.62572518225438
 20
-68.47457625834652
 30
0.0
 10
27.62806565587753
 20
-68.64126770312163
 30
0.0
 10
27.62992176558003
 20
-68.80787999844347
 30
0.0
  0
LWPOLYLINE
  5
F4
330
1F
100
AcDbEntity
  8
0
  6
Continuous
 62
     7
370
    15
100
AcDbPolyline
 90
        4
 70
   128
 43
0.0
 10
27.2636117205
 20
-68.0433368764
 10
27.1241294881
 20
-67.997094484
 10
26.9916160004
 20
-68.0666683842
 10
26.8711706735
 20
-68.2493812174
  0
LWPOLYLINE
  5
FE
330
1F
100
AcDbEntity
  8
0
  6
Continuous
 62
     7
370
    15
100
AcDbPolyline
 90
        9
 70
   128
 43
0.0
 10
1.8793534628
 20
-137.2588921561
 10
1.6619820249
 20
-137.5833698894
 10
1.4807520446
 20
-137.9158203215
 10
1.3426280883
 20
-138.2434675685
 10
1.2529181821
 20
-138.5537203306
 10
1.2150698276
 20
-138.8346557681
 10
1.2305375157
 20
-139.0754776897
 10
1.2987268319
 20
-139.2669314439
 10
1.4170172989
 20
-139.4016595705
  0
SPLINE
  5
100
330
1F
100
AcDbEntity
  8
0
  6
Continuous
 62
     7
370
    15
100
AcDbSpline
210
0.0
220
0.0
230
1.0
 70
     8
 71
     3
 72
    14
 73
    10
 74
     0
 42
0.00000001
 43
0.00000001
 12
1.0
 22
0.0
 32
0.0
 13
1.0
 23
0.0
 33
0.0
 40
0.0
 40
0.0
 40
0.0
 40
0.0
 40
0.25
 40
0.25
 40
0.5
 40
0.5
 40
0.75
 40
0.75
 40
1.0
 40
1.0
 40
1.0
 40
1.0
 10
-0.8119358052167958
 20
-134.9250708424244
 30
0.0
 10
-1.00866746880833
 20
-135.1311635625699
 30
0.0
 10
-1.166243150247631
 20
-135.376818230299
 30
0.0
 10
-1.374959070877604
 20
-135.9034079974741
 30
0.0
 10
-1.425983342596443
 20
-136.1840505112667
 30
0.0
 10
-1.412257900720526
 20
-136.7299428448602
 30
0.0
 10
-1.347515813303932
 20
-136.9948893540478
 30
0.0
 10
-1.11382781456347
 20
-137.4614964629829
 30
0.0
 10
-0.9450117457851098
 20
-137.6628978048518
 30
0.0
 10
-0.7392884162782526
 20
-137.814424280778
 30
0.0
  0
LWPOLYLINE
  5
114
330
1F
100
AcDbEntity
  8
0
  6
Continuous
 62
     7
370
    15
100
AcDbPolyline
 90
       10
 70
   128
 43
0.0
 10
55.7534174179
 20
-90.7361164504
 10
55.8738650408
 20
-91.2634466059
 10
56.1397245756
 20
-91.7169229298
 10
56.5287784286
 20
-92.0586488964
 10
57.0085137904
 20
-92.2600668366
 10
57.5388396959
 20
-92.3043444709
 10
58.075437383
 20
-92.1877815654
 10
58.5734639637
 20
-91.920119156
 10
58.9912998954
 20
-91.5237255006
 10
59.2940270817
 20
-91.031726788
  0
LWPOLYLINE
  5
172
330
1F
100
AcDbEntity
  8
0
  6
Continuous
 62
     7
370
    15
100
AcDbPolyline
 90
        7
 70
   128
 43
0.0
 10
101.1811696208
 20
-48.6374097852
 10
101.0132808961
 20
-48.513834698
 10
100.7964415253
 20
-48.3542395618
 10
100.5389845236
 20
-48.1647575281
 10
100.2508038194
 20
-47.9526702851
 10
99.9429740354
 20
-47.7261282268
 10
99.8038572867
 20
-47.6237494239
  0
LINE
  5
180
330
1F
100
AcDbEntity
  8
0
  6
Continuous
 62
     7
370
    15
100
AcDbLine
 10
60.2048910793
 20
16.5048444206
 30
0.0
 11
35.9176650397
 21
-16.4980205537
 31
0.0
  0
LINE
  5
181
330
1F
100
AcDbEntity
  8
0
  6
Continuous
 62
     7
370
    15
100
AcDbLine
 10
49.9999510775
 20
-36.793494882
 30
0.0
 11
32.281646796
 21
-60.8701351217
 31
0.0
  0
LINE
  5
182
330
1F
100
AcDbEntity
  8
0
  6
Continuous
 62
     7
370
    15
100
AcDbLine
 10
30.3320891303
 20
-63.519305031
 30
0.0
 11
26.9474029207
 21
-68.1186092815
 31
0.0
  0
LINE
  5
183
330
1F
100
AcDbEntity
  8
0
  6
Continuous
 62
     7
370
    15
100
AcDbLine
 10
29.1295391665
 20
-121.3136328257
 30
0.0
 11
27.4408826326
 21
-120.0706295232
 31
0.0
  0
LINE
  5
184
330
1F
100
AcDbEntity
  8
0
  6
Continuous
 62
     7
370
    15
100
AcDbLine
 10
65.0058789334
 20
-72.7381067762
 30
0.0
 11
63.3172223995
 21
-71.4951034737
 31
0.0
  0
LINE
  5
185
330
1F
100
AcDbEntity
  8
0
  6
Continuous
 62
     7
370
    15
100
AcDbLine
 10
54.7396195022
 20
-90.7473856417
 30
0.0
 11
56.4282760361
 21
-91.9903889441
 31
0.0
  0
LINE
  5
186
330
1F
100
AcDbEntity
  8
0
  6
Continuous
 62
     7
370
    15
100
AcDbLine
 10
14.4360268797
 20
-136.5663726379
 30
0.0
 11
28.588013141
 21
-146.9803746227
 31
0.0
  0
LINE
  5
187
330
1F
100
AcDbEntity
  8
0
  6
Continuous
 62
     7
370
    15
100
AcDbLine
 10
28.588013141
 20
-146.9803746227
 30
0.0
 11
30.1773263314
 21
-155.6044459618
 31
0.0
  0
LINE
  5
188
330
1F
100
AcDbEntity
  8
0
  6
Continuous
 62
     7
370
    15
100
AcDbLine
 10
30.1773263314
 20
-155.6044459618
 30
0.0
 11
45.2007368756
 21
-166.6597016932
 31
0.0
  0
LINE
  5
189
330
1F
100
AcDbEntity
  8
0
  6
Continuous
 62
     7
370
    15
100
AcDbLine
 10
45.2007368756
 20
-166.6597016932
 30
0.0
 11
53.5368591968
 21
-155.3321042587
 31
0.0
  0
LINE
  5
18A
330
1F
100
AcDbEntity
  8
0
  6
Continuous
 62
     7
370
    15
100
AcDbLine
 10
53.5368591968
 20
-155.3321042587
 30
0.0
 11
78.9828383924
 21
-80.7244035385
 31
0.0
  0
LINE
  5
18B
330
1F
100
AcDbEntity
  8
0
  6
Continuous
 62
     7
370
    15
100
AcDbLine
 10
78.9828383924
 20
-80.7244035385
 30
0.0
 11
77.7593876458
 21
-76.324292882
 31
0.0
  0
LINE
  5
18C
330
1F
100
AcDbEntity
  8
0
  6
Continuous
 62
     7
370
    15
100
AcDbLine
 10
96.3658525127
 20
-51.0407694919
 30
0.0
 11
77.7593876458
 21
-76.324292882
 31
0.0
  0
LINE
  5
18D
330
1F
100
AcDbEntity
  8
0
  6
Continuous
 62
     7
370
    15
100
AcDbLine
 10
96.3658525127
 20
-51.0407694919
 30
0.0
 11
101.8096089849
 21
-49.100574779
 31
0.0
  0
LINE
  5
18E
330
1F
100
AcDbEntity
  8
0
  6
Continuous
 62
     7
370
    15
100
AcDbLine
 10
101.8096089849
 20
-49.100574779
 30
0.0
 11
104.4147672389
 21
-51.017628875
 31
0.0
  0
LINE
  5
18F
330
1F
100
AcDbEntity
  8
0
  6
Continuous
 62
     7
370
    15
100
AcDbLine
 10
104.4147672389
 20
-51.017628875
 30
0.0
 11
81.29893072
 21
-82.4287431026
 31
0.0
  0
LINE
  5
190
330
1F
100
AcDbEntity
  8
0
  6
Continuous
 62
     7
370
    15
100
AcDbLine
 10
1.8793534628
 20
-137.2588921561
 30
0.0
 11
47.4518861303
 21
-170.7942868978
 31
0.0
  0
LINE
  5
191
330
1F
100
AcDbEntity
  8
0
  6
Continuous
 62
     7
370
    15
100
AcDbLine
 10
33.7352203334
 20
-66.0235623451
 30
0.0
 11
30.4972093386
 21
-70.4235559662
 31
0.0
  0
LINE
  5
192
330
1F
100
AcDbEntity
  8
0
  6
Continuous
 62
     7
370
    15
100
AcDbLine
 10
4.95843552
 20
-44.8476306681
 30
0.0
 11
33.7352203334
 21
-66.0235623451
 31
0.0
  0
LINE
  5
193
330
1F
100
AcDbEntity
  8
0
  6
Continuous
 62
     7
370
    15
100
AcDbLine
 10
24.6260422658
 20
-18.1221673014
 30
0.0
 11
4.95843552
 21
-44.8476306681
 31
0.0
  0
LINE
  5
194
330
1F
100
AcDbEntity
  8
0
  6
Continuous
 62
     7
370
    15
100
AcDbLine
 10
24.6260422658
 20
-18.1221673014
 30
0.0
 11
4.6641208586
 21
-3.4328166112
 31
0.0
  0
LINE
  5
195
330
1F
100
AcDbEntity
  8
0
  6
Continuous
 62
     7
370
    15
100
AcDbLine
 10
4.6641208586
 20
-3.4328166112
 30
0.0
 11
9.4058309138
 21
3.0104888714
 31
0.0
  0
LINE
  5
196
330
1F
100
AcDbEntity
  8
0
  6
Continuous
 62
     7
370
    15
100
AcDbLine
 10
9.4058309138
 20
3.0104888714
 30
0.0
 11
39.32045433
 21
-19.0027424785
 31
0.0
  0
LINE
  5
197
330
1F
100
AcDbEntity
  8
0
  6
Continuous
 62
     7
370
    15
100
AcDbLine
 10
39.32045433
 20
-19.0027424785
 30
0.0
 11
54.1753632082
 21
1.1829531261
 31
0.0
  0
LINE
  5
198
330
1F
100
AcDbEntity
  8
0
  6
Continuous
 62
     7
370
    15
100
AcDbLine
 10
54.1753632082
 20
1.1829531261
 30
0.0
 11
55.9575861363
 21
-0.128528723
 31
0.0
  0
LINE
  5
199
330
1F
100
AcDbEntity
  8
0
  6
Continuous
 62
     7
370
    15
100
AcDbLine
 10
55.9575861363
 20
-0.128528723
 30
0.0
 11
42.2769934477
 21
-18.6801902605
 31
0.0
  0
LINE
  5
19A
330
1F
100
AcDbEntity
  8
0
  6
Continuous
 62
     7
370
    15
100
AcDbLine
 10
42.2769934477
 20
-18.6801902605
 30
0.0
 11
42.4312667044
 21
-18.7940078209
 31
0.0
  0
LINE
  5
19B
330
1F
100
AcDbEntity
  8
0
  6
Continuous
 62
     7
370
    15
100
AcDbLine
 10
42.4312667044
 20
-18.7940078209
 30
0.0
 11
36.4970931283
 21
-26.8577006011
 31
0.0
  0
LINE
  5
19C
330
1F
100
AcDbEntity
  8
0
  6
Continuous
 62
     7
370
    15
100
AcDbLine
 10
36.4970931283
 20
-26.8577006011
 30
0.0
 11
27.1020060039
 21
-19.9441512128
 31
0.0
  0
LINE
  5
19D
330
1F
100
AcDbEntity
  8
0
  6
Continuous
 62
     7
370
    15
100
AcDbLine
 10
9.3838049625
 20
-44.0206511639
 30
0.0
 11
27.1020060039
 21
-19.9441512128
 31
0.0
  0
LINE
  5
19E
330
1F
100
AcDbEntity
  8
0
  6
Continuous
 62
     7
370
    15
100
AcDbLine
 10
35.6846260379
 20
-63.3745989295
 30
0.0
 11
9.3838049625
 21
-44.0206511639
 31
0.0
  0
LINE
  5
19F
330
1F
100
AcDbEntity
  8
0
  6
Continuous
 62
     7
370
    15
100
AcDbLine
 10
40.3631244275
 20
-57.0171890555
 30
0.0
 11
35.6846260379
 21
-63.3745989295
 31
0.0
  0
LINE
  5
1A0
330
1F
100
AcDbEntity
  8
0
  6
Continuous
 62
     7
370
    15
100
AcDbLine
 10
42.9902205397
 20
-56.4672413041
 30
0.0
 11
48.7568949332
 21
-60.7107557812
 31
0.0
  0
LINE
  5
1A1
330
1F
100
AcDbEntity
  8
0
  6
Continuous
 62
     7
370
    15
100
AcDbLine
 10
48.7568949332
 20
-60.7107557812
 30
0.0
 11
48.6583442928
 21
-60.8446720001
 31
0.0
  0
LINE
  5
1A2
330
1F
100
AcDbEntity
  8
0
  6
Continuous
 62
     7
370
    15
100
AcDbLine
 10
55.2445290387
 20
-65.6912383937
 30
0.0
 11
48.6583442928
 21
-60.8446720001
 31
0.0
  0
LINE
  5
1A3
330
1F
100
AcDbEntity
  8
0
  6
Continuous
 62
     7
370
    15
100
AcDbLine
 10
52.4784191915
 20
-69.4499858787
 30
0.0
 11
55.2445290387
 21
-65.6912383937
 31
0.0
  0
LINE
  5
1A4
330
1F
100
AcDbEntity
  8
0
  6
Continuous
 62
     7
370
    15
100
AcDbLine
 10
50.0857298895
 20
-70.9677687679
 30
0.0
 11
52.4784191915
 21
-69.4499858787
 31
0.0
  0
LINE
  5
1A5
330
1F
100
AcDbEntity
  8
0
  6
Continuous
 62
     7
370
    15
100
AcDbLine
 10
50.9010050906
 20
-68.2892164098
 30
0.0
 11
50.0857298895
 21
-70.9677687679
 31
0.0
  0
LINE
  5
1A6
330
1F
100
AcDbEntity
  8
0
  6
Continuous
 62
     7
370
    15
100
AcDbLine
 10
50.9010050906
 20
-68.2892164098
 30
0.0
 11
42.3275704122
 21
-61.9802952372
 31
0.0
  0
LINE
  5
1A7
330
1F
100
AcDbEntity
  8
0
  6
Continuous
 62
     7
370
    15
100
AcDbLine
 10
42.3275704122
 20
-61.9802952372
 30
0.0
 11
37.4995113808
 21
-71.0138494652
 31
0.0
  0
LINE
  5
1A8
330
1F
100
AcDbEntity
  8
0
  6
Continuous
 62
     7
370
    15
100
AcDbLine
 10
37.4995113808
 20
-71.0138494652
 30
0.0
 11
34.748821147
 21
-79.7457236677
 31
0.0
  0
LINE
  5
1A9
330
1F
100
AcDbEntity
  8
0
  6
Continuous
 62
     7
370
    15
100
AcDbLine
 10
34.748821147
 20
-79.7457236677
 30
0.0
 11
34.7603059766
 21
-89.5063194382
 31
0.0
  0
LINE
  5
1AA
330
1F
100
AcDbEntity
  8
0
  6
Continuous
 62
     7
370
    15
100
AcDbLine
 10
34.7603059766
 20
-89.5063194382
 30
0.0
 11
36.6716551732
 21
-93.1282832625
 31
0.0
  0
LINE
  5
1AB
330
1F
100
AcDbEntity
  8
0
  6
Continuous
 62
     7
370
    15
100
AcDbLine
 10
6.5315219199
 20
5.1262391735
 30
0.0
 11
2.0865561385
 21
-0.9138333017
 31
0.0
  0
LINE
  5
1AC
330
1F
100
AcDbEntity
  8
0
  6
Continuous
 62
     7
370
    15
100
AcDbLine
 10
9.4058309138
 20
3.0104888714
 30
0.0
 11
6.5315219199
 21
5.1262391735
 31
0.0
  0
LINE
  5
1AD
330
1F
100
AcDbEntity
  8
0
  6
Continuous
 62
     7
370
    15
100
AcDbLine
 10
4.6641208586
 20
-3.4328166112
 30
0.0
 11
1.4305232405
 21
-1.0525975214
 31
0.0
  0
LINE
  5
1AE
330
1F
100
AcDbEntity
  8
0
  6
Continuous
 62
     7
370
    15
100
AcDbLine
 10
2.0865561385
 20
-0.9138333017
 30
0.0
 11
1.2517072008
 21
-0.2993092905
 31
0.0
  0
LINE
  5
1AF
330
1F
100
AcDbEntity
  8
0
  6
Continuous
 62
     7
370
    15
100
AcDbLine
 10
12.3099990622
 20
0.8740394244
 30
0.0
 11
6.5315219199
 21
5.1262391735
 31
0.0
  0
LINE
  5
1B0
330
1F
100
AcDbEntity
  8
0
  6
Continuous
 62
     7
370
    15
100
AcDbLine
 10
12.3099990622
 20
0.8740394244
 30
0.0
 11
11.950710438
 21
1.1385082122
 31
0.0
  0
LINE
  5
1B1
330
1F
100
AcDbEntity
  8
0
  6
Continuous
 62
     7
370
    15
100
AcDbLine
 10
36.0868567119
 20
-16.6225233887
 30
0.0
 11
11.950710438
 21
1.1385082122
 31
0.0
  0
LINE
  5
1B2
330
1F
100
AcDbEntity
  8
0
  6
Continuous
 62
     7
370
    15
100
AcDbLine
 10
39.32045433
 20
-19.0027424785
 30
0.0
 11
36.0868567119
 21
-16.6225233887
 31
0.0
  0
LINE
  5
1B3
330
1F
100
AcDbEntity
  8
0
  6
Continuous
 62
     7
370
    15
100
AcDbLine
 10
2.0866444134
 20
-0.9137133487
 30
0.0
 11
1.2517072008
 21
-0.2993092905
 31
0.0
  0
LINE
  5
1B4
330
1F
100
AcDbEntity
  8
0
  6
Continuous
 62
     7
370
    15
100
AcDbLine
 10
3.5212810231
 20
-43.789755517
 30
0.0
 11
4.95843552
 21
-44.8476306681
 31
0.0
  0
LINE
  5
1B5
330
1F
100
AcDbEntity
  8
0
  6
Continuous
 62
     7
370
    15
100
AcDbLine
 10
23.1887358076
 20
-17.064498644
 30
0.0
 11
3.5212810231
 21
-43.789755517
 31
0.0
  0
LINE
  5
1B6
330
1F
100
AcDbEntity
  8
0
  6
Continuous
 62
     7
370
    15
100
AcDbLine
 10
34.247471541
 20
-62.3167237785
 30
0.0
 11
9.3839569238
 21
-44.0204446702
 31
0.0
  0
LINE
  5
1B7
330
1F
100
AcDbEntity
  8
0
  6
Continuous
 62
     7
370
    15
100
AcDbLine
 10
35.6846260379
 20
-63.3745989295
 30
0.0
 11
34.247471541
 21
-62.3167237785
 31
0.0
  0
LINE
  5
1B8
330
1F
100
AcDbEntity
  8
0
  6
Continuous
 62
     7
370
    15
100
AcDbLine
 10
103.5759964663
 20
-10.4156091779
 30
0.0
 11
107.1907233867
 21
-5.5037125177
 31
0.0
  0
LINE
  5
1B9
330
1F
100
AcDbEntity
  8
0
  6
Continuous
 62
     7
370
    15
100
AcDbLine
 10
103.5759964663
 20
-10.4156091779
 30
0.0
 11
65.9925733903
 21
17.2408508612
 31
0.0
  0
LINE
  5
1BA
330
1F
100
AcDbEntity
  8
0
  6
Continuous
 62
     7
370
    15
100
AcDbLine
 10
65.9925733903
 20
17.2408508612
 30
0.0
 11
68.4218727968
 21
20.5419211507
 31
0.0
  0
LINE
  5
1BB
330
1F
100
AcDbEntity
  8
0
  6
Continuous
 62
     7
370
    15
100
AcDbLine
 10
71.048968909
 20
21.0918689021
 30
0.0
 11
107.1907233867
 21
-5.5037125177
 31
0.0
  0
LINE
  5
1BC
330
1F
100
AcDbEntity
  8
0
  6
Continuous
 62
     7
370
    15
100
AcDbLine
 10
68.1746599151
 20
23.2076192041
 30
0.0
 11
71.048968909
 21
21.0918689021
 31
0.0
  0
LINE
  5
1BD
330
1F
100
AcDbEntity
  8
0
  6
Continuous
 62
     7
370
    15
100
AcDbLine
 10
68.4218727968
 20
20.5419211507
 30
0.0
 11
65.5475638029
 21
22.6576714528
 31
0.0
  0
LINE
  5
1BE
330
1F
100
AcDbEntity
  8
0
  6
Continuous
 62
     7
370
    15
100
AcDbLine
 10
57.1384819478
 20
5.2094075061
 30
0.0
 11
63.6217183627
 21
14.0191981199
 31
0.0
  0
LINE
  5
1BF
330
1F
100
AcDbEntity
  8
0
  6
Continuous
 62
     7
370
    15
100
AcDbLine
 10
60.4985565269
 20
16.5494836357
 30
0.0
 11
36.0868567119
 21
-16.6225233887
 31
0.0
  0
LINE
  5
1C0
330
1F
100
AcDbEntity
  8
0
  6
Continuous
 62
     7
370
    15
100
AcDbLine
 10
60.8578451511
 20
16.285014848
 30
0.0
 11
60.4985565269
 21
16.5494836357
 31
0.0
  0
LINE
  5
1C1
330
1F
100
AcDbEntity
  8
0
  6
Continuous
 62
     7
370
    15
100
AcDbLine
 10
65.5475638029
 20
22.6576714528
 30
0.0
 11
60.8578451511
 21
16.285014848
 31
0.0
  0
LINE
  5
1C2
330
1F
100
AcDbEntity
  8
0
  6
Continuous
 62
     7
370
    15
100
AcDbLine
 10
63.6217183627
 20
14.0191981199
 30
0.0
 11
101.2051414388
 21
-13.6372619192
 31
0.0
  0
LINE
  5
1C3
330
1F
100
AcDbEntity
  8
0
  6
Continuous
 62
     7
370
    15
100
AcDbLine
 10
64.8887861419
 20
11.9826862952
 30
0.0
 11
72.8107828827
 21
6.1381066085
 31
0.0
  0
LINE
  5
1C4
330
1F
100
AcDbEntity
  8
0
  6
Continuous
 62
     7
370
    15
100
AcDbLine
 10
64.8887861419
 20
11.9826862952
 30
0.0
 11
58.9246710268
 21
3.8950070912
 31
0.0
  0
LINE
  5
1C5
330
1F
100
AcDbEntity
  8
0
  6
Continuous
 62
     7
370
    15
100
AcDbLine
 10
58.9246710268
 20
3.8950070912
 30
0.0
 11
57.1384819478
 21
5.2094075061
 31
0.0
  0
LINE
  5
1C6
330
1F
100
AcDbEntity
  8
0
  6
Continuous
 62
     7
370
    15
100
AcDbLine
 10
100.6708720608
 20
-14.3632575563
 30
0.0
 11
101.2051414388
 21
-13.6372619192
 31
0.0
  0
LINE
  5
1C7
330
1F
100
AcDbEntity
  8
0
  6
Continuous
 62
     7
370
    15
100
AcDbLine
 10
100.6708720608
 20
-14.3632575563
 30
0.0
 11
72.8107828827
 21
6.1381066085
 31
0.0
  0
LINE
  5
1C8
330
1F
100
AcDbEntity
  8
0
  6
Continuous
 62
     7
370
    15
100
AcDbLine
 10
75.1491828424
 20
18.0752869459
 30
0.0
 11
74.7898942182
 21
18.3397557336
 31
0.0
  0
LINE
  5
1C9
330
1F
100
AcDbEntity
  8
0
  6
Continuous
 62
     7
370
    15
100
AcDbLine
 10
103.9571257685
 20
-3.1234934279
 30
0.0
 11
74.7898942182
 21
18.3397557336
 31
0.0
  0
LINE
  5
1CA
330
1F
100
AcDbEntity
  8
0
  6
Continuous
 62
     7
370
    15
100
AcDbLine
 10
107.1907233867
 20
-5.5037125177
 30
0.0
 11
103.9571257685
 21
-3.1234934279
 31
0.0
  0
LINE
  5
1CB
330
1F
100
AcDbEntity
  8
0
  6
Continuous
 62
     7
370
    15
100
AcDbLine
 10
75.1491828424
 20
18.0752869459
 30
0.0
 11
68.1746599151
 21
23.2076192041
 31
0.0
  0
LINE
  5
1CC
330
1F
100
AcDbEntity
  8
0
  6
Continuous
 62
     7
370
    15
100
AcDbLine
 10
72.8107828827
 20
6.1381066085
 30
0.0
 11
70.3448130215
 21
7.9532825307
 31
0.0
  0
LINE
  5
1CD
330
1F
100
AcDbEntity
  8
0
  6
Continuous
 62
     7
370
    15
100
AcDbLine
 10
64.8868123606
 20
11.9800097355
 30
0.0
 11
70.3448130215
 21
7.9532825307
 31
0.0
  0
LINE
  5
1CE
330
1F
100
AcDbEntity
  8
0
  6
Continuous
 62
     7
370
    15
100
AcDbLine
 10
60.8578831414
 20
16.2850664714
 30
0.0
 11
60.4985565269
 21
16.5494836357
 31
0.0
  0
LINE
  5
1CF
330
1F
100
AcDbEntity
  8
0
  6
Continuous
 62
     7
370
    15
100
AcDbLine
 10
64.1246958746
 20
-34.7718851447
 30
0.0
 11
46.3433598146
 21
-58.9341765523
 31
0.0
  0
LINE
  5
1D0
330
1F
100
AcDbEntity
  8
0
  6
Continuous
 62
     7
370
    15
100
AcDbLine
 10
46.3433598146
 20
-58.9341765523
 30
0.0
 11
40.5766854211
 21
-54.6906620752
 31
0.0
  0
LINE
  5
1D1
330
1F
100
AcDbEntity
  8
0
  6
Continuous
 62
     7
370
    15
100
AcDbLine
 10
50.9892919607
 20
-37.5215197494
 30
0.0
 11
37.949589309
 21
-55.2406098266
 31
0.0
  0
LINE
  5
1D2
330
1F
100
AcDbEntity
  8
0
  6
Continuous
 62
     7
370
    15
100
AcDbLine
 10
47.7854550698
 20
-22.7481907183
 30
0.0
 11
42.4293374722
 21
-18.7966293714
 31
0.0
  0
LINE
  5
1D3
330
1F
100
AcDbEntity
  8
0
  6
Continuous
 62
     7
370
    15
100
AcDbLine
 10
50.9892919607
 20
-37.5215197494
 30
0.0
 11
36.4973483297
 21
-26.8573538189
 31
0.0
  0
LINE
  5
1D4
330
1F
100
AcDbEntity
  8
0
  6
Continuous
 62
     7
370
    15
100
AcDbLine
 10
47.7330622964
 20
-22.7095371125
 30
0.0
 11
70.3448130215
 21
7.9532825307
 31
0.0
  0
LINE
  5
1D5
330
1F
100
AcDbEntity
  8
0
  6
Continuous
 62
     7
370
    15
100
AcDbLine
 10
42.4030522003
 20
-157.146053727
 30
0.0
 11
44.4191925135
 21
-153.3103029246
 31
0.0
  0
LINE
  5
1D6
330
1F
100
AcDbEntity
  8
0
  6
Continuous
 62
     7
370
    15
100
AcDbLine
 10
55.8892073407
 20
-128.3451900773
 30
0.0
 11
69.923101999
 21
-82.82608363
 31
0.0
  0
LINE
  5
1D7
330
1F
100
AcDbEntity
  8
0
  6
Continuous
 62
     7
370
    15
100
AcDbLine
 10
48.3970733556
 20
-69.7247654655
 30
0.0
 11
49.212255547
 21
-67.046518687
 31
0.0
  0
LINE
  5
1D8
330
1F
100
AcDbEntity
  8
0
  6
Continuous
 62
     7
370
    15
100
AcDbLine
 10
48.6585228473
 20
-60.8444293701
 30
0.0
 11
53.5558725048
 21
-64.4482350912
 31
0.0
  0
LINE
  5
1D9
330
1F
100
AcDbEntity
  8
0
  6
Continuous
 62
     7
370
    15
100
AcDbLine
 10
64.8496511062
 20
-35.305356919
 30
0.0
 11
47.0682383993
 21
-59.4677524788
 31
0.0
  0
LINE
  5
1DA
330
1F
100
AcDbEntity
  8
0
  6
Continuous
 62
     7
370
    15
100
AcDbLine
 10
48.5103336545
 20
-23.2817666448
 30
0.0
 11
64.8496511062
 21
-35.305356919
 31
0.0
  0
LINE
  5
1DB
330
1F
100
AcDbEntity
  8
0
  6
Continuous
 62
     7
370
    15
100
AcDbLine
 10
71.1221263488
 20
7.3811099109
 30
0.0
 11
48.5103336545
 21
-23.2817666448
 31
0.0
  0
LINE
  5
1DC
330
1F
100
AcDbEntity
  8
0
  6
Continuous
 62
     7
370
    15
100
AcDbLine
 10
99.0164818171
 20
-29.5514385259
 30
0.0
 11
100.4238520394
 21
-14.1814832848
 31
0.0
  0
LINE
  5
1DD
330
1F
100
AcDbEntity
  8
0
  6
Continuous
 62
     7
370
    15
100
AcDbLine
 10
93.4422439033
 20
-29.6151761615
 30
0.0
 11
99.0164818171
 21
-29.5514385259
 31
0.0
  0
LINE
  5
1DE
330
1F
100
AcDbEntity
  8
0
  6
Continuous
 62
     7
370
    15
100
AcDbLine
 10
91.8267186816
 20
-47.2584017702
 30
0.0
 11
93.4422439033
 21
-29.6151761615
 31
0.0
  0
LINE
  5
1DF
330
1F
100
AcDbEntity
  8
0
  6
Continuous
 62
     7
370
    15
100
AcDbLine
 10
96.4203899866
 20
-47.2058762497
 30
0.0
 11
91.8267186816
 21
-47.2584017702
 31
0.0
  0
LINE
  5
1E0
330
1F
100
AcDbEntity
  8
0
  6
Continuous
 62
     7
370
    15
100
AcDbLine
 10
74.1092492942
 20
-77.1377084437
 30
0.0
 11
96.4203899866
 21
-47.2058762497
 31
0.0
  0
LINE
  5
1E1
330
1F
100
AcDbEntity
  8
0
  6
Continuous
 62
     7
370
    15
100
AcDbLine
 10
74.399957678
 20
-77.3516316083
 30
0.0
 11
74.1092492942
 21
-77.1377084437
 31
0.0
  0
LINE
  5
1E2
330
1F
100
AcDbEntity
  8
0
  6
Continuous
 62
     7
370
    15
100
AcDbLine
 10
74.399957678
 20
-77.3516316083
 30
0.0
 11
76.0707311119
 21
-75.0812895795
 31
0.0
  0
LINE
  5
1E3
330
1F
100
AcDbEntity
  8
0
  6
Continuous
 62
     7
370
    15
100
AcDbLine
 10
77.2941818585
 20
-79.481400236
 30
0.0
 11
76.0707311119
 21
-75.0812895795
 31
0.0
  0
LINE
  5
1E4
330
1F
100
AcDbEntity
  8
0
  6
Continuous
 62
     7
370
    15
100
AcDbLine
 10
51.8482026629
 20
-154.0891009563
 30
0.0
 11
77.2941818585
 21
-79.481400236
 31
0.0
  0
LINE
  5
1E5
330
1F
100
AcDbEntity
  8
0
  6
Continuous
 62
     7
370
    15
100
AcDbLine
 10
43.5120803417
 20
-165.4166983907
 30
0.0
 11
51.8482026629
 21
-154.0891009563
 31
0.0
  0
LINE
  5
1E6
330
1F
100
AcDbEntity
  8
0
  6
Continuous
 62
     7
370
    15
100
AcDbLine
 10
30.1772465896
 20
-155.6040132596
 30
0.0
 11
43.5120803417
 21
-165.4166983907
 31
0.0
  0
LINE
  5
1E7
330
1F
100
AcDbEntity
  8
0
  6
Continuous
 62
     7
370
    15
100
AcDbLine
 10
14.4362132507
 20
-136.5661357598
 30
0.0
 11
26.8993566071
 21
-145.7373713203
 31
0.0
  0
LINE
  5
1E8
330
1F
100
AcDbEntity
  8
0
  6
Continuous
 62
     7
370
    15
100
AcDbLine
 10
61.3775373189
 20
-71.4335623257
 30
0.0
 11
52.6469277965
 21
-71.4925836762
 31
0.0
  0
LINE
  5
1E9
330
1F
100
AcDbEntity
  8
0
  6
Continuous
 62
     7
370
    15
100
AcDbLine
 10
52.6469277965
 20
-71.4925836762
 30
0.0
 11
54.064760884
 21
-89.4931131479
 31
0.0
  0
LINE
  5
1EA
330
1F
100
AcDbEntity
  8
0
  6
Continuous
 62
     7
370
    15
100
AcDbLine
 10
48.5103336545
 20
-23.2817666448
 30
0.0
 11
47.7854550698
 21
-22.7481907183
 31
0.0
  0
LINE
  5
1EB
330
1F
100
AcDbEntity
  8
0
  6
Continuous
 62
     7
370
    15
100
AcDbLine
 10
30.4972093386
 20
-70.4235559662
 30
0.0
 11
27.2636117205
 21
-68.0433368764
 31
0.0
  0
LINE
  5
1EC
330
1F
100
AcDbEntity
  8
0
  6
Continuous
 62
     7
370
    15
100
AcDbLine
 10
40.3631244275
 20
-57.0171890555
 30
0.0
 11
37.949589309
 21
-55.2406098266
 31
0.0
  0
LINE
  5
1ED
330
1F
100
AcDbEntity
  8
0
  6
Continuous
 62
     7
370
    15
100
AcDbLine
 10
40.5766854211
 20
-54.6906620752
 30
0.0
 11
42.9902205397
 21
-56.4672413041
 31
0.0
  0
LINE
  5
1EE
330
1F
100
AcDbEntity
  8
0
  6
Continuous
 62
     7
370
    15
100
AcDbLine
 10
20.8122577413
 20
-102.8381167975
 30
0.0
 11
21.4919723555
 21
-101.2015817617
 31
0.0
  0
LINE
  5
1EF
330
1F
100
AcDbEntity
  8
0
  6
Continuous
 62
     7
370
    15
100
AcDbLine
 10
27.4581512546
 20
-75.2439213943
 30
0.0
 11
27.5550449754
 21
-73.4584806868
 31
0.0
  0
LINE
  5
1F0
330
1F
100
AcDbEntity
  8
0
  6
Continuous
 62
     7
370
    15
100
AcDbLine
 10
27.5550449754
 20
-73.4584806868
 30
0.0
 11
27.601716109
 21
-72.1562577662
 31
0.0
  0
LINE
  5
1F1
330
1F
100
AcDbEntity
  8
0
  6
Continuous
 62
     7
370
    15
100
AcDbLine
 10
27.601716109
 20
-72.1562577662
 30
0.0
 11
27.6314897281
 21
-70.5673683716
 31
0.0
  0
LINE
  5
1F2
330
1F
100
AcDbEntity
  8
0
  6
Continuous
 62
     7
370
    15
100
AcDbLine
 10
27.6314897281
 20
-70.5673683716
 30
0.0
 11
27.6352555708
 21
-69.7535110911
 31
0.0
  0
LINE
  5
1F3
330
1F
100
AcDbEntity
  8
0
  6
Continuous
 62
     7
370
    15
100
AcDbLine
 10
27.6299219259
 20
-68.8078935739
 30
0.0
 11
27.6229003447
 21
-68.3078056641
 31
0.0
  0
LINE
  5
1F4
330
1F
100
AcDbEntity
  8
0
  6
Continuous
 62
     7
370
    15
100
AcDbLine
 10
-0.8233236015
 20
-134.9370898494
 30
0.0
 11
2.0509853924
 21
-137.0528401515
 31
0.0
  0
LINE
  5
1F5
330
1F
100
AcDbEntity
  8
0
  6
Continuous
 62
     7
370
    15
100
AcDbLine
 10
-0.8181707348
 20
-134.9305780253
 30
0.0
 11
-0.7561288269
 21
-134.8655905995
 31
0.0
  0
LINE
  5
1F6
330
1F
100
AcDbEntity
  8
0
  6
Continuous
 62
     7
370
    15
100
AcDbLine
 10
48.7568949332
 20
-60.7107557812
 30
0.0
 11
46.3433598146
 21
-58.9341765523
 31
0.0
  0
LINE
  5
1F7
330
1F
100
AcDbEntity
  8
0
  6
Continuous
 62
     7
370
    15
100
AcDbLine
 10
47.8267922471
 20
-32.710849564
 30
0.0
 11
47.7075935061
 21
-32.6984649729
 31
0.0
  0
LINE
  5
1F8
330
1F
100
AcDbEntity
  8
0
  6
Continuous
 62
     7
370
    15
100
AcDbLine
 10
55.2445290387
 20
-65.6912383937
 30
0.0
 11
53.5558725048
 21
-64.4482350912
 31
0.0
  0
LINE
  5
1F9
330
1F
100
AcDbEntity
  8
0
  6
Continuous
 62
     7
370
    15
100
AcDbLine
 10
26.8711706735
 20
-68.2493812174
 30
0.0
 11
27.6299219168
 21
-68.807893575
 31
0.0
  0
LINE
  5
1FA
330
1F
100
AcDbEntity
  8
0
  6
Continuous
 62
     7
370
    15
100
AcDbLine
 10
27.6352555708
 20
-69.7535110911
 30
0.0
 11
27.6299218819
 21
-68.8078904458
 31
0.0
  0
LINE
  5
1FB
330
1F
100
AcDbEntity
  8
0
  6
Continuous
 62
     7
370
    15
100
AcDbLine
 10
26.6603182508
 20
-69.0358694131
 30
0.0
 11
27.6352555708
 21
-69.7535110911
 31
0.0
  0
LINE
  5
1FC
330
1F
100
AcDbEntity
  8
0
  6
Continuous
 62
     7
370
    15
100
AcDbLine
 10
50.0857298895
 20
-70.9677687679
 30
0.0
 11
48.3970733556
 21
-69.7247654655
 31
0.0
  0
LINE
  5
1FD
330
1F
100
AcDbEntity
  8
0
  6
Continuous
 62
     7
370
    15
100
AcDbLine
 10
26.5760557613
 20
-69.7904739114
 30
0.0
 11
27.6314897281
 21
-70.5673683716
 31
0.0
  0
LINE
  5
1FE
330
1F
100
AcDbEntity
  8
0
  6
Continuous
 62
     7
370
    15
100
AcDbLine
 10
26.5238502363
 20
-71.3628514029
 30
0.0
 11
27.601716109
 21
-72.1562577662
 31
0.0
  0
LINE
  5
1FF
330
1F
100
AcDbEntity
  8
0
  6
Continuous
 62
     7
370
    15
100
AcDbLine
 10
26.5238502363
 20
-71.3628514029
 30
0.0
 11
26.5392283303
 21
-70.5421889754
 31
0.0
  0
LINE
  5
200
330
1F
100
AcDbEntity
  8
0
  6
Continuous
 62
     7
370
    15
100
AcDbLine
 10
1.4170172989
 20
-139.4016595705
 30
0.0
 11
-0.7387144465
 21
-137.8148468439
 31
0.0
  0
LINE
  5
201
330
1F
100
AcDbEntity
  8
0
  6
Continuous
 62
     7
370
    15
100
AcDbLine
 10
26.4771791027
 20
-72.6650743236
 30
0.0
 11
27.5550449754
 21
-73.4584806868
 31
0.0
  0
LINE
  5
202
330
1F
100
AcDbEntity
  8
0
  6
Continuous
 62
     7
370
    15
100
AcDbLine
 10
26.4771791027
 20
-72.6650743236
 30
0.0
 11
26.5238502363
 21
-71.3628514029
 31
0.0
  0
LINE
  5
203
330
1F
100
AcDbEntity
  8
0
  6
Continuous
 62
     7
370
    15
100
AcDbLine
 10
44.1062127697
 20
-170.8152970736
 30
0.0
 11
1.4170172989
 21
-139.4016595705
 31
0.0
  0
LINE
  5
204
330
1F
100
AcDbEntity
  8
0
  6
Continuous
 62
     7
370
    15
100
AcDbLine
 10
26.3802853819
 20
-74.450515031
 30
0.0
 11
27.4581512546
 21
-75.2439213943
 31
0.0
  0
LINE
  5
205
330
1F
100
AcDbEntity
  8
0
  6
Continuous
 62
     7
370
    15
100
AcDbLine
 10
26.3802853819
 20
-74.450515031
 30
0.0
 11
26.4771791027
 21
-72.6650743236
 31
0.0
  0
LINE
  5
206
330
1F
100
AcDbEntity
  8
0
  6
Continuous
 62
     7
370
    15
100
AcDbLine
 10
27.3034200983
 20
-77.2501548469
 30
0.0
 11
27.4581512546
 21
-75.2439213943
 31
0.0
  0
LINE
  5
207
330
1F
100
AcDbEntity
  8
0
  6
Continuous
 62
     7
370
    15
100
AcDbLine
 10
26.2255542256
 20
-76.4567484836
 30
0.0
 11
27.3034200916
 21
-77.2501549248
 31
0.0
  0
LINE
  5
208
330
1F
100
AcDbEntity
  8
0
  6
Continuous
 62
     7
370
    15
100
AcDbLine
 10
26.2255542256
 20
-76.4567484836
 30
0.0
 11
26.3802853819
 21
-74.450515031
 31
0.0
  0
LINE
  5
209
330
1F
100
AcDbEntity
  8
0
  6
Continuous
 62
     7
370
    15
100
AcDbLine
 10
26.0227984225
 20
-78.453720457
 30
0.0
 11
27.100664237
 21
-79.2471273322
 31
0.0
  0
LINE
  5
20A
330
1F
100
AcDbEntity
  8
0
  6
Continuous
 62
     7
370
    15
100
AcDbLine
 10
27.100664237
 20
-79.2471273322
 30
0.0
 11
27.3034200916
 21
-77.2501549248
 31
0.0
  0
LINE
  5
20B
330
1F
100
AcDbEntity
  8
0
  6
Continuous
 62
     7
370
    15
100
AcDbLine
 10
26.0227984225
 20
-78.453720457
 30
0.0
 11
26.2255542256
 21
-76.4567484836
 31
0.0
  0
LINE
  5
20C
330
1F
100
AcDbEntity
  8
0
  6
Continuous
 62
     7
370
    15
100
AcDbLine
 10
25.6893099213
 20
-81.0241327339
 30
0.0
 11
26.7671756494
 21
-81.8175400891
 31
0.0
  0
LINE
  5
20D
330
1F
100
AcDbEntity
  8
0
  6
Continuous
 62
     7
370
    15
100
AcDbLine
 10
26.7671756494
 20
-81.8175400891
 30
0.0
 11
27.100664237
 21
-79.2471273322
 31
0.0
  0
LINE
  5
20E
330
1F
100
AcDbEntity
  8
0
  6
Continuous
 62
     7
370
    15
100
AcDbLine
 10
25.6893099213
 20
-81.0241327339
 30
0.0
 11
26.0227984225
 21
-78.453720457
 31
0.0
  0
LINE
  5
20F
330
1F
100
AcDbEntity
  8
0
  6
Continuous
 62
     7
370
    15
100
AcDbLine
 10
63.0661938528
 20
-72.6765656281
 30
0.0
 11
54.3355843304
 21
-72.7355869786
 31
0.0
  0
LINE
  5
210
330
1F
100
AcDbEntity
  8
0
  6
Continuous
 62
     7
370
    15
100
AcDbLine
 10
64.2275526263
 20
-80.0147756074
 30
0.0
 11
65.6198826327
 21
-74.6611249144
 31
0.0
  0
LINE
  5
211
330
1F
100
AcDbEntity
  8
0
  6
Continuous
 62
     7
370
    15
100
AcDbLine
 10
59.2940270817
 20
-91.031726788
 30
0.0
 11
64.2275526263
 21
-80.0147756074
 31
0.0
  0
LINE
  5
212
330
1F
100
AcDbEntity
  8
0
  6
Continuous
 62
     7
370
    15
100
AcDbLine
 10
54.3355843304
 20
-72.7355869786
 30
0.0
 11
55.7534174179
 21
-90.7361164504
 31
0.0
  0
LINE
  5
213
330
1F
100
AcDbEntity
  8
0
  6
Continuous
 62
     7
370
    15
100
AcDbLine
 10
63.0661938528
 20
-72.6765656281
 30
0.0
 11
61.3775373189
 21
-71.4335623257
 31
0.0
  0
LINE
  5
214
330
1F
100
AcDbEntity
  8
0
  6
Continuous
 62
     7
370
    15
100
AcDbLine
 10
54.3355843304
 20
-72.7355869786
 30
0.0
 11
52.6469277965
 21
-71.4925836762
 31
0.0
  0
LINE
  5
215
330
1F
100
AcDbEntity
  8
0
  6
Continuous
 62
     7
370
    15
100
AcDbLine
 10
54.064760884
 20
-89.4931131479
 30
0.0
 11
55.7534174179
 21
-90.7361164504
 31
0.0
  0
LINE
  5
216
330
1F
100
AcDbEntity
  8
0
  6
Continuous
 62
     7
370
    15
100
AcDbLine
 10
25.3329883581
 20
-83.2540235361
 30
0.0
 11
26.4108540965
 21
-84.0474306718
 31
0.0
  0
LINE
  5
217
330
1F
100
AcDbEntity
  8
0
  6
Continuous
 62
     7
370
    15
100
AcDbLine
 10
26.4108540965
 20
-84.0474306718
 30
0.0
 11
26.7671756494
 21
-81.8175400891
 31
0.0
  0
LINE
  5
218
330
1F
100
AcDbEntity
  8
0
  6
Continuous
 62
     7
370
    15
100
AcDbLine
 10
25.3329883581
 20
-83.2540235361
 30
0.0
 11
25.6893099213
 21
-81.0241327339
 31
0.0
  0
LINE
  5
219
330
1F
100
AcDbEntity
  8
0
  6
Continuous
 62
     7
370
    15
100
AcDbLine
 10
24.8494342266
 20
-85.7974342612
 30
0.0
 11
25.9272998961
 21
-86.590841609
 31
0.0
  0
LINE
  5
21A
330
1F
100
AcDbEntity
  8
0
  6
Continuous
 62
     7
370
    15
100
AcDbLine
 10
25.9272998961
 20
-86.590841609
 30
0.0
 11
26.4108540965
 21
-84.0474306718
 31
0.0
  0
LINE
  5
21B
330
1F
100
AcDbEntity
  8
0
  6
Continuous
 62
     7
370
    15
100
AcDbLine
 10
24.8494342266
 20
-85.7974342612
 30
0.0
 11
25.3329883581
 21
-83.2540235361
 31
0.0
  0
LINE
  5
21C
330
1F
100
AcDbEntity
  8
0
  6
Continuous
 62
     7
370
    15
100
AcDbLine
 10
24.2205494754
 20
-88.5975050765
 30
0.0
 11
25.2984152812
 21
-89.3909117157
 31
0.0
  0
LINE
  5
21D
330
1F
100
AcDbEntity
  8
0
  6
Continuous
 62
     7
370
    15
100
AcDbLine
 10
25.2984152812
 20
-89.3909117157
 30
0.0
 11
25.9272998961
 21
-86.590841609
 31
0.0
  0
LINE
  5
21E
330
1F
100
AcDbEntity
  8
0
  6
Continuous
 62
     7
370
    15
100
AcDbLine
 10
24.2205494754
 20
-88.5975050765
 30
0.0
 11
24.8494342266
 21
-85.7974342612
 31
0.0
  0
LINE
  5
21F
330
1F
100
AcDbEntity
  8
0
  6
Continuous
 62
     7
370
    15
100
AcDbLine
 10
23.5981648793
 20
-91.0031302344
 30
0.0
 11
24.6760304953
 21
-91.7965375322
 31
0.0
  0
LINE
  5
220
330
1F
100
AcDbEntity
  8
0
  6
Continuous
 62
     7
370
    15
100
AcDbLine
 10
24.6760304953
 20
-91.7965375322
 30
0.0
 11
25.2984152812
 21
-89.3909117157
 31
0.0
  0
LINE
  5
221
330
1F
100
AcDbEntity
  8
0
  6
Continuous
 62
     7
370
    15
100
AcDbLine
 10
23.5981648793
 20
-91.0031302344
 30
0.0
 11
24.2205494754
 21
-88.5975050765
 31
0.0
  0
LINE
  5
222
330
1F
100
AcDbEntity
  8
0
  6
Continuous
 62
     7
370
    15
100
AcDbLine
 10
23.0219681563
 20
-93.0035547118
 30
0.0
 11
24.0998336924
 21
-93.7969621918
 31
0.0
  0
LINE
  5
223
330
1F
100
AcDbEntity
  8
0
  6
Continuous
 62
     7
370
    15
100
AcDbLine
 10
24.0998336924
 20
-93.7969621918
 30
0.0
 11
24.6760304953
 21
-91.7965375322
 31
0.0
  0
LINE
  5
224
330
1F
100
AcDbEntity
  8
0
  6
Continuous
 62
     7
370
    15
100
AcDbLine
 10
23.0219681563
 20
-93.0035547118
 30
0.0
 11
23.5981648793
 21
-91.0031302344
 31
0.0
  0
LINE
  5
225
330
1F
100
AcDbEntity
  8
0
  6
Continuous
 62
     7
370
    15
100
AcDbLine
 10
26.8993566071
 20
-145.7373713203
 30
0.0
 11
28.588013141
 21
-146.9803746227
 31
0.0
  0
LINE
  5
226
330
1F
100
AcDbEntity
  8
0
  6
Continuous
 62
     7
370
    15
100
AcDbLine
 10
22.0713596581
 20
-95.9600554956
 30
0.0
 11
23.1492255262
 21
-96.753461872
 31
0.0
  0
LINE
  5
227
330
1F
100
AcDbEntity
  8
0
  6
Continuous
 62
     7
370
    15
100
AcDbLine
 10
23.1492255262
 20
-96.753461872
 30
0.0
 11
24.0998336924
 21
-93.7969621918
 31
0.0
  0
LINE
  5
228
330
1F
100
AcDbEntity
  8
0
  6
Continuous
 62
     7
370
    15
100
AcDbLine
 10
22.0713596581
 20
-95.9600554956
 30
0.0
 11
23.0219681563
 21
-93.0035547118
 31
0.0
  0
LINE
  5
229
330
1F
100
AcDbEntity
  8
0
  6
Continuous
 62
     7
370
    15
100
AcDbLine
 10
16.1603528809
 20
-135.9166129933
 30
0.0
 11
26.4465732357
 21
-140.5946506325
 31
0.0
  0
LINE
  5
22A
330
1F
100
AcDbEntity
  8
0
  6
Continuous
 62
     7
370
    15
100
AcDbLine
 10
26.5022576942
 20
-121.8634441558
 30
0.0
 11
16.1603528809
 21
-135.9166129933
 31
0.0
  0
LINE
  5
22B
330
1F
100
AcDbEntity
  8
0
  6
Continuous
 62
     7
370
    15
100
AcDbLine
 10
29.2095020959
 20
-138.6863185971
 30
0.0
 11
29.8089668205
 21
-122.7954419432
 31
0.0
  0
LINE
  5
22C
330
1F
100
AcDbEntity
  8
0
  6
Continuous
 62
     7
370
    15
100
AcDbLine
 10
16.1603528809
 20
-135.9166129933
 30
0.0
 11
15.3921454341
 21
-135.3511431217
 31
0.0
  0
LINE
  5
22D
330
1F
100
AcDbEntity
  8
0
  6
Continuous
 62
     7
370
    15
100
AcDbLine
 10
21.4919723555
 20
-101.2015817617
 30
0.0
 11
23.1492255308
 21
-96.7534618589
 31
0.0
  0
LINE
  5
22E
330
1F
100
AcDbEntity
  8
0
  6
Continuous
 62
     7
370
    15
100
AcDbLine
 10
20.4141064827
 20
-100.4081753984
 30
0.0
 11
21.4919723555
 21
-101.2015817617
 31
0.0
  0
LINE
  5
22F
330
1F
100
AcDbEntity
  8
0
  6
Continuous
 62
     7
370
    15
100
AcDbLine
 10
20.4141064827
 20
-100.4081753984
 30
0.0
 11
22.0713596581
 21
-95.9600554956
 31
0.0
  0
LINE
  5
230
330
1F
100
AcDbEntity
  8
0
  6
Continuous
 62
     7
370
    15
100
AcDbLine
 10
102.8735549802
 20
-10.4353501833
 30
0.0
 11
103.4001611156
 21
-10.8228630906
 31
0.0
  0
LINE
  5
231
330
1F
100
AcDbEntity
  8
0
  6
Continuous
 62
     7
370
    15
100
AcDbLine
 10
100.6709821141
 20
-14.3631080096
 30
0.0
 11
101.0717251415
 21
-14.6580022106
 31
0.0
  0
LINE
  5
232
330
1F
100
AcDbEntity
  8
0
  6
Continuous
 62
     7
370
    15
100
AcDbLine
 10
19.7343918686
 20
-102.0447104342
 30
0.0
 11
20.8122577413
 21
-102.8381167975
 31
0.0
  0
LINE
  5
233
330
1F
100
AcDbEntity
  8
0
  6
Continuous
 62
     7
370
    15
100
AcDbLine
 10
19.7343918686
 20
-102.0447104342
 30
0.0
 11
20.4141064827
 21
-100.4081753984
 31
0.0
  0
LINE
  5
234
330
1F
100
AcDbEntity
  8
0
  6
Continuous
 62
     7
370
    15
100
AcDbLine
 10
18.1828284443
 20
-105.4794698146
 30
0.0
 11
19.2606940024
 21
-106.2728768377
 31
0.0
  0
LINE
  5
235
330
1F
100
AcDbEntity
  8
0
  6
Continuous
 62
     7
370
    15
100
AcDbLine
 10
19.260694317
 20
-106.2728761778
 30
0.0
 11
20.8122577413
 21
-102.8381167975
 31
0.0
  0
LINE
  5
236
330
1F
100
AcDbEntity
  8
0
  6
Continuous
 62
     7
370
    15
100
AcDbLine
 10
18.1828284443
 20
-105.4794698146
 30
0.0
 11
19.7343918686
 21
-102.0447104342
 31
0.0
  0
LINE
  5
237
330
1F
100
AcDbEntity
  8
0
  6
Continuous
 62
     7
370
    15
100
AcDbLine
 10
105.1647338406
 20
-8.2567424158
 30
0.0
 11
105.1690959808
 21
-8.2599523777
 31
0.0
  0
LINE
  5
238
330
1F
100
AcDbEntity
  8
0
  6
Continuous
 62
     7
370
    15
100
AcDbLine
 10
103.4001611156
 20
-10.8228630906
 30
0.0
 11
105.1690959808
 21
-8.2599523777
 31
0.0
  0
LINE
  5
239
330
1F
100
AcDbEntity
  8
0
  6
Continuous
 62
     7
370
    15
100
AcDbLine
 10
16.6699688541
 20
-108.5114981058
 30
0.0
 11
17.7478344324
 21
-109.3049050336
 31
0.0
  0
LINE
  5
23A
330
1F
100
AcDbEntity
  8
0
  6
Continuous
 62
     7
370
    15
100
AcDbLine
 10
17.7478344324
 20
-109.3049050336
 30
0.0
 11
19.2606940024
 21
-106.2728768377
 31
0.0
  0
LINE
  5
23B
330
1F
100
AcDbEntity
  8
0
  6
Continuous
 62
     7
370
    15
100
AcDbLine
 10
16.6699688541
 20
-108.5114981058
 30
0.0
 11
18.1828284443
 21
-105.4794698146
 31
0.0
  0
LINE
  5
23C
330
1F
100
AcDbEntity
  8
0
  6
Continuous
 62
     7
370
    15
100
AcDbLine
 10
106.0098099743
 20
-7.1175423566
 30
0.0
 11
106.0975942236
 21
-6.9891186365
 31
0.0
  0
LINE
  5
23D
330
1F
100
AcDbEntity
  8
0
  6
Continuous
 62
     7
370
    15
100
AcDbLine
 10
105.1690959808
 20
-8.2599523777
 30
0.0
 11
106.0098099743
 21
-7.1175423566
 31
0.0
  0
LINE
  5
23E
330
1F
100
AcDbEntity
  8
0
  6
Continuous
 62
     7
370
    15
100
AcDbLine
 10
15.0842034193
 20
-111.430029544
 30
0.0
 11
16.1620692844
 21
-112.2234359033
 31
0.0
  0
LINE
  5
23F
330
1F
100
AcDbEntity
  8
0
  6
Continuous
 62
     7
370
    15
100
AcDbLine
 10
16.1620692844
 20
-112.2234359033
 30
0.0
 11
17.7478344324
 21
-109.3049050336
 31
0.0
  0
LINE
  5
240
330
1F
100
AcDbEntity
  8
0
  6
Continuous
 62
     7
370
    15
100
AcDbLine
 10
15.0842034193
 20
-111.430029544
 30
0.0
 11
16.6699688541
 21
-108.5114981058
 31
0.0
  0
LINE
  5
241
330
1F
100
AcDbEntity
  8
0
  6
Continuous
 62
     7
370
    15
100
AcDbLine
 10
-1.8339946996
 20
-134.0721842362
 30
0.0
 11
-0.7561288269
 21
-134.8655905995
 31
0.0
  0
LINE
  5
242
330
1F
100
AcDbEntity
  8
0
  6
Continuous
 62
     7
370
    15
100
AcDbLine
 10
-1.8902977795
 20
-134.1311603759
 30
0.0
 11
-0.8124319068
 21
-134.9245667392
 31
0.0
  0
LINE
  5
243
330
1F
100
AcDbEntity
  8
0
  6
Continuous
 62
     7
370
    15
100
AcDbLine
 10
-1.8902977795
 20
-134.1311603759
 30
0.0
 11
-1.8339946996
 21
-134.0721842362
 31
0.0
  0
LINE
  5
244
330
1F
100
AcDbEntity
  8
0
  6
Continuous
 62
     7
370
    15
100
AcDbLine
 10
-0.7392885103
 20
-137.8144244084
 30
0.0
 11
-1.0985771345
 21
-137.5499556207
 31
0.0
  0
LINE
  5
245
330
1F
100
AcDbEntity
  8
0
  6
Continuous
 62
     7
370
    15
100
AcDbLine
 10
-0.7561288269
 20
-134.8655905995
 30
0.0
 11
2.5440665265
 21
-131.2264152281
 31
0.0
  0
LINE
  5
246
330
1F
100
AcDbEntity
  8
0
  6
Continuous
 62
     7
370
    15
100
AcDbLine
 10
1.4662006538
 20
-130.4330088648
 30
0.0
 11
2.5440665265
 21
-131.2264152281
 31
0.0
  0
LINE
  5
247
330
1F
100
AcDbEntity
  8
0
  6
Continuous
 62
     7
370
    15
100
AcDbLine
 10
-1.8339946996
 20
-134.0721842362
 30
0.0
 11
1.4662006538
 21
-130.4330088648
 31
0.0
  0
LINE
  5
248
330
1F
100
AcDbEntity
  8
0
  6
Continuous
 62
     7
370
    15
100
AcDbLine
 10
12.3581571863
 20
-115.9710018303
 30
0.0
 11
13.4360226694
 21
-116.7644088098
 31
0.0
  0
LINE
  5
249
330
1F
100
AcDbEntity
  8
0
  6
Continuous
 62
     7
370
    15
100
AcDbLine
 10
13.4360226694
 20
-116.7644088098
 30
0.0
 11
16.1620692844
 21
-112.2234359033
 31
0.0
  0
LINE
  5
24A
330
1F
100
AcDbEntity
  8
0
  6
Continuous
 62
     7
370
    15
100
AcDbLine
 10
12.3581571863
 20
-115.9710018303
 30
0.0
 11
15.0842034193
 21
-111.430029544
 31
0.0
  0
LINE
  5
24B
330
1F
100
AcDbEntity
  8
0
  6
Continuous
 62
     7
370
    15
100
AcDbLine
 10
5.1671922803
 20
-127.6619626669
 30
0.0
 11
7.4482846923
 21
-125.2725725137
 31
0.0
  0
LINE
  5
24C
330
1F
100
AcDbEntity
  8
0
  6
Continuous
 62
     7
370
    15
100
AcDbLine
 10
2.5440665265
 20
-131.2264152281
 30
0.0
 11
5.1671922803
 21
-127.6619626669
 31
0.0
  0
LINE
  5
24D
330
1F
100
AcDbEntity
  8
0
  6
Continuous
 62
     7
370
    15
100
AcDbLine
 10
4.0893264076
 20
-126.8685563036
 30
0.0
 11
5.1671922803
 21
-127.6619626669
 31
0.0
  0
LINE
  5
24E
330
1F
100
AcDbEntity
  8
0
  6
Continuous
 62
     7
370
    15
100
AcDbLine
 10
6.3704188189
 20
-124.4791661499
 30
0.0
 11
7.4482846923
 21
-125.2725725137
 31
0.0
  0
LINE
  5
24F
330
1F
100
AcDbEntity
  8
0
  6
Continuous
 62
     7
370
    15
100
AcDbLine
 10
4.0893264076
 20
-126.8685563036
 30
0.0
 11
6.3704188189
 21
-124.4791661499
 31
0.0
  0
LINE
  5
250
330
1F
100
AcDbEntity
  8
0
  6
Continuous
 62
     7
370
    15
100
AcDbLine
 10
1.4662006538
 20
-130.4330088648
 30
0.0
 11
4.0893264076
 21
-126.8685563036
 31
0.0
  0
LINE
  5
251
330
1F
100
AcDbEntity
  8
0
  6
Continuous
 62
     7
370
    15
100
AcDbLine
 10
9.5820969285
 20
-120.1234983437
 30
0.0
 11
10.6599626972
 21
-120.9169048554
 31
0.0
  0
LINE
  5
252
330
1F
100
AcDbEntity
  8
0
  6
Continuous
 62
     7
370
    15
100
AcDbLine
 10
10.6599626972
 20
-120.9169048554
 30
0.0
 11
13.4360226694
 21
-116.7644088098
 31
0.0
  0
LINE
  5
253
330
1F
100
AcDbEntity
  8
0
  6
Continuous
 62
     7
370
    15
100
AcDbLine
 10
9.5820969285
 20
-120.1234983437
 30
0.0
 11
12.3581571863
 21
-115.9710018303
 31
0.0
  0
LINE
  5
254
330
1F
100
AcDbEntity
  8
0
  6
Continuous
 62
     7
370
    15
100
AcDbLine
 10
7.4482846923
 20
-125.2725725137
 30
0.0
 11
10.6599626972
 21
-120.9169048554
 31
0.0
  0
LINE
  5
255
330
1F
100
AcDbEntity
  8
0
  6
Continuous
 62
     7
370
    15
100
AcDbLine
 10
6.3704188189
 20
-124.4791661499
 30
0.0
 11
9.5820969285
 21
-120.1234983437
 31
0.0
  0
LINE
  5
256
330
1F
100
AcDbEntity
  8
0
  6
Continuous
 62
     7
370
    15
100
AcDbLine
 10
100.6728768972
 20
-29.1833486571
 30
0.0
 11
101.4050570574
 21
-13.6466502637
 31
0.0
  0
LINE
  5
257
330
1F
100
AcDbEntity
  8
0
  6
Continuous
 62
     7
370
    15
100
AcDbLine
 10
100.6728768972
 20
-29.1833486571
 30
0.0
 11
99.0484857157
 21
-29.2019224702
 31
0.0
  0
LINE
  5
258
330
1F
100
AcDbEntity
  8
0
  6
Continuous
 62
     7
370
    15
100
AcDbLine
 10
95.7876158106
 20
-46.6163043551
 30
0.0
 11
99.5105445025
 21
-46.5737351868
 31
0.0
  0
LINE
  5
259
330
1F
100
AcDbEntity
  8
0
  6
Continuous
 62
     7
370
    15
100
AcDbLine
 10
95.7876158106
 20
-46.6163043551
 30
0.0
 11
96.7174159148
 21
-45.3528390568
 31
0.0
  0
LINE
  5
25A
330
1F
100
AcDbEntity
  8
0
  6
Continuous
 62
     7
370
    15
100
AcDbLine
 10
96.7174159148
 20
-45.3528390568
 30
0.0
 11
96.7387319351
 21
-45.1200458138
 31
0.0
  0
LINE
  5
25B
330
1F
100
AcDbEntity
  8
0
  6
Continuous
 62
     7
370
    15
100
AcDbLine
 10
96.7387319351
 20
-45.1200458138
 30
0.0
 11
95.6220117045
 21
-46.6181979259
 31
0.0
  0
LINE
  5
25C
330
1F
100
AcDbEntity
  8
0
  6
Continuous
 62
     7
370
    15
100
AcDbLine
 10
91.8814233993
 20
-46.66096902
 30
0.0
 11
95.6220117045
 21
-46.6181979259
 31
0.0
  0
LINE
  5
25D
330
1F
100
AcDbEntity
  8
0
  6
Continuous
 62
     7
370
    15
100
AcDbLine
 10
100.3298964809
 20
-29.1872704059
 30
0.0
 11
99.5105445025
 21
-46.5737351868
 31
0.0
  0
LINE
  5
25E
330
1F
100
AcDbEntity
  8
0
  6
Continuous
 62
     7
370
    15
100
AcDbLine
 10
94.5552878797
 20
-49.7080308485
 30
0.0
 11
96.3658525127
 21
-51.0407694919
 31
0.0
  0
LINE
  5
25F
330
1F
100
AcDbEntity
  8
0
  6
Continuous
 62
     7
370
    15
100
AcDbLine
 10
94.938063563
 20
-49.1945126167
 30
0.0
 11
99.6538772395
 21
-47.5137620525
 31
0.0
  0
LINE
  5
260
330
1F
100
AcDbEntity
  8
0
  6
Continuous
 62
     7
370
    15
100
AcDbLine
 10
99.6538772395
 20
-47.5137620525
 30
0.0
 11
101.8096089849
 21
-49.100574779
 31
0.0
  0
LINE
  5
261
330
1F
100
AcDbEntity
  8
0
  6
Continuous
 62
     7
370
    15
100
AcDbLine
 10
74.1092802856
 20
-77.1376668668
 30
0.0
 11
74.399957678
 21
-77.3516316083
 31
0.0
  0
LINE
  5
262
330
1F
100
AcDbEntity
  8
0
  6
Continuous
 62
     7
370
    15
100
AcDbLine
 10
96.6191337262
 20
-45.2804945139
 30
0.0
 11
96.7174159148
 21
-45.3528390568
 31
0.0
  0
LINE
  5
263
330
1F
100
AcDbEntity
  8
0
  6
Continuous
 62
     7
370
    15
100
AcDbLine
 10
96.1189188813
 20
-46.8601732549
 30
0.0
 11
95.7876158106
 21
-46.6163043551
 31
0.0
  0
LINE
  5
264
330
1F
100
AcDbEntity
  8
0
  6
Continuous
 62
     7
370
    15
100
AcDbLine
 10
96.1189188813
 20
-46.8601732549
 30
0.0
 11
96.0598275965
 21
-46.9404698556
 31
0.0
  0
LINE
  5
265
330
1F
100
AcDbEntity
  8
0
  6
Continuous
 62
     7
370
    15
100
AcDbLine
 10
76.0707311119
 20
-75.0812895795
 30
0.0
 11
77.7593876458
 21
-76.324292882
 31
0.0
  0
LINE
  5
266
330
1F
100
AcDbEntity
  8
0
  6
Continuous
 62
     7
370
    15
100
AcDbLine
 10
77.2941818585
 20
-79.481400236
 30
0.0
 11
78.9828383924
 21
-80.7244035385
 31
0.0
  0
LINE
  5
267
330
1F
100
AcDbEntity
  8
0
  6
Continuous
 62
     7
370
    15
100
AcDbLine
 10
99.6538772395
 20
-47.5137620525
 30
0.0
 11
99.8038400596
 21
-47.6241149794
 31
0.0
  0
LINE
  5
268
330
1F
100
AcDbEntity
  8
0
  6
Continuous
 62
     7
370
    15
100
AcDbLine
 10
104.4147672389
 20
-51.017628875
 30
0.0
 11
101.1811696208
 21
-48.6374097852
 31
0.0
  0
LINE
  5
269
330
1F
100
AcDbEntity
  8
0
  6
Continuous
 62
     7
370
    15
100
AcDbLine
 10
51.8482026629
 20
-154.0891009563
 30
0.0
 11
53.5368591968
 21
-155.3321042587
 31
0.0
  0
LINE
  5
26A
330
1F
100
AcDbEntity
  8
0
  6
Continuous
 62
     7
370
    15
100
AcDbLine
 10
95.6220117045
 20
-46.6181979259
 30
0.0
 11
96.4203899866
 21
-47.2058762497
 31
0.0
  0
LINE
  5
26B
330
1F
100
AcDbEntity
  8
0
  6
Continuous
 62
     7
370
    15
100
AcDbLine
 10
43.5120803417
 20
-165.4166983907
 30
0.0
 11
45.2007368756
 21
-166.6597016932
 31
0.0
  0
LINE
  5
26C
330
1F
100
AcDbEntity
  8
0
  6
Continuous
 62
     7
370
    15
100
AcDbLine
 10
96.1189188813
 20
-46.8601732549
 30
0.0
 11
99.8418475732
 21
-46.8176040865
 31
0.0
  0
LINE
  5
26D
330
1F
100
AcDbEntity
  8
0
  6
Continuous
 62
     7
370
    15
100
AcDbLine
 10
99.5105445025
 20
-46.5737351868
 30
0.0
 11
99.8418475732
 21
-46.8176040865
 31
0.0
  0
LINE
  5
26E
330
1F
100
AcDbEntity
  8
0
  6
Continuous
 62
     7
370
    15
100
AcDbLine
 10
99.8038400596
 20
-47.6241149794
 30
0.0
 11
99.8418475732
 21
-46.8176040865
 31
0.0
  0
LINE
  5
26F
330
1F
100
AcDbEntity
  8
0
  6
Continuous
 62
     7
370
    15
100
AcDbLine
 10
50.1691427497
 20
-36.917997717
 30
0.0
 11
32.4508384682
 21
-60.9946379567
 31
0.0
  0
LINE
  5
270
330
1F
100
AcDbEntity
  8
0
  6
Continuous
 62
     7
370
    15
100
AcDbLine
 10
30.5012808025
 20
-63.6438078659
 30
0.0
 11
27.2636117205
 21
-68.0433368764
 31
0.0
  0
LINE
  5
271
330
1F
100
AcDbEntity
  8
0
  6
Continuous
 62
     7
370
    15
100
AcDbLine
 10
74.7898942182
 20
18.3397557336
 30
0.0
 11
74.7898562278
 21
18.3397041102
 31
0.0
  0
LINE
  5
272
330
1F
100
AcDbEntity
  8
0
  6
Continuous
 62
     7
370
    15
100
AcDbLine
 10
26.5022576942
 20
-121.8634441558
 30
0.0
 11
25.4288015834
 21
-121.0732837745
 31
0.0
  0
ARC
  5
273
330
1F
100
AcDbEntity
  8
0
  6
Continuous
 62
     7
370
    15
100
AcDbCircle
 10
45.6546744925
 20
-169.4715947809
 30
0.0
 40
2.231475768882388
100
AcDbArc
 50
323.6480824672
 51
330.1913807539
  0
ARC
  5
274
330
1F
100
AcDbEntity
  8
0
  6
Continuous
 62
     7
370
    15
100
AcDbCircle
 10
3.6764053973
 20
-138.5812477319
 30
0.0
 40
2.231147669792806
100
AcDbArc
 50
136.761875127
 51
143.6526120096
  0
ARC
  5
275
330
1F
100
AcDbEntity
  8
0
  6
Continuous
 62
     7
370
    15
100
AcDbCircle
 10
41.9533516276
 20
-58.0639092891
 30
0.0
 40
1.903797729587497
100
AcDbArc
 50
57.0004896891
 51
146.6462657107
  0
ARC
  5
276
330
1F
100
AcDbEntity
  8
0
  6
Continuous
 62
     7
370
    15
100
AcDbCircle
 10
34.9735155927
 20
-93.9918961855
 30
0.0
 40
1.905126062897105
100
AcDbArc
 50
344.5384276821
 51
26.956256946
  0
ARC
  5
277
330
1F
100
AcDbEntity
  8
0
  6
Continuous
 62
     7
370
    15
100
AcDbCircle
 10
1.9706483629
 20
-0.5265144279
 30
0.0
 40
0.7539884409282969
100
AcDbArc
 50
162.4620342074
 51
224.2454546231
  0
ARC
  5
278
330
1F
100
AcDbEntity
  8
0
  6
Continuous
 62
     7
370
    15
100
AcDbCircle
 10
70.0120999969
 20
19.4952009171
 30
0.0
 40
1.903797729587484
100
AcDbArc
 50
57.0004896891
 51
146.6462657107
  0
ARC
  5
279
330
1F
100
AcDbEntity
  8
0
  6
Continuous
 62
     7
370
    15
100
AcDbCircle
 10
67.137791003
 20
21.6109512192
 30
0.0
 40
1.903797729587473
100
AcDbArc
 50
57.0004896891
 51
146.6462657107
  0
ARC
  5
27A
330
1F
100
AcDbEntity
  8
0
  6
Continuous
 62
     7
370
    15
100
AcDbCircle
 10
39.539816509
 20
-56.2873300602
 30
0.0
 40
1.903797729587489
100
AcDbArc
 50
57.0004896891
 51
146.6462657107
  0
ARC
  5
27B
330
1F
100
AcDbEntity
  8
0
  6
Continuous
 62
     7
370
    15
100
AcDbCircle
 10
26.4540478647
 20
-121.435182106
 30
0.0
 40
1.683997212057005
100
AcDbArc
 50
54.1258123921
 51
97.9102179281
  0
ARC
  5
27C
330
1F
100
AcDbEntity
  8
0
  6
Continuous
 62
     7
370
    15
100
AcDbCircle
 10
62.3000430087
 20
-72.9563197339
 30
0.0
 40
1.780395144929052
100
AcDbArc
 50
55.1575169694
 51
121.2080109616
  0
ARC
  5
27D
330
1F
100
AcDbEntity
  8
0
  6
Continuous
 62
     7
370
    15
100
AcDbCircle
 10
55.7625974343
 20
-89.388285204
 30
0.0
 40
1.701069619158903
100
AcDbArc
 50
183.5330751537
 51
233.0316801008
  0
ARC
  5
27E
330
1F
100
AcDbEntity
  8
0
  6
Continuous
 62
     7
370
    15
100
AcDbCircle
 10
47.6548974532
 20
-30.6006151695
 30
0.0
 40
2.117223894619428
100
AcDbArc
 50
274.6568992664
 51
16.7675154145
  0
ARC
  5
27F
330
1F
100
AcDbEntity
  8
0
  6
Continuous
 62
     7
370
    15
100
AcDbCircle
 10
29.6042850982
 20
-69.4036197882
 30
0.0
 40
2.966847002643865
100
AcDbArc
 50
157.1048773479
 51
172.879687771
  0
ARC
  5
280
330
1F
100
AcDbEntity
  8
0
  6
Continuous
 62
     7
370
    15
100
AcDbCircle
 10
34.6690644202
 20
-70.3121683885
 30
0.0
 40
8.109806056898094
100
AcDbArc
 50
170.9453049206
 51
176.3116817152
  0
ARC
  5
281
330
1F
100
AcDbEntity
  8
0
  6
Continuous
 62
     7
370
    15
100
AcDbCircle
 10
38.5894886804
 20
-70.7557861752
 30
0.0
 40
12.05215326278148
100
AcDbArc
 50
175.4059972593
 51
178.9845085318
  0
ARC
  5
282
330
1F
100
AcDbEntity
  8
0
  6
Continuous
 62
     7
370
    15
100
AcDbCircle
 10
45.7680889443
 20
-169.0594343121
 30
0.0
 40
2.41761999857928
100
AcDbArc
 50
226.5752162566
 51
314.1443869146
  0
ARC
  5
283
330
1F
100
AcDbEntity
  8
0
  6
Continuous
 62
     7
370
    15
100
AcDbCircle
 10
63.9784769722
 20
-74.1379549787
 30
0.0
 40
1.722765022838442
100
AcDbArc
 50
342.3212100227
 51
121.9747768775
  0
ARC
  5
284
330
1F
100
AcDbEntity
  8
0
  6
Continuous
 62
     7
370
    15
100
AcDbCircle
 10
28.0359051666
 20
-122.754161364
 30
0.0
 40
1.77354213782546
100
AcDbArc
 50
358.666275513
 51
149.8526853825
  0
ARC
  5
285
330
1F
100
AcDbEntity
  8
0
  6
Continuous
 62
     7
370
    15
100
AcDbCircle
 10
27.1495005097
 20
-138.6580822569
 30
0.0
 40
2.060195094204092
100
AcDbArc
 50
250.0503326721
 51
359.2146987507
  0
ARC
  5
286
330
1F
100
AcDbEntity
  8
0
  6
Continuous
 62
     7
370
    15
100
AcDbCircle
 10
108.8691584113
 20
-16.7676704131
 30
0.0
 40
8.077788405376664
100
AcDbArc
 50
132.6128791766
 51
164.8605601532
  0
ARC
  5
287
330
1F
100
AcDbEntity
  8
0
  6
Continuous
 62
     7
370
    15
100
AcDbCircle
 10
0.1033693702
 20
-135.4351080059
 30
0.0
 40
2.432541024085089
100
AcDbArc
 50
153.489459621
 51
240.3888210219
  0
ARC
  5
288
330
1F
100
AcDbEntity
  8
0
  6
Continuous
 62
     7
370
    15
100
AcDbCircle
 10
-0.2767005581
 20
-135.6713825691
 30
0.0
 40
2.230690565104697
100
AcDbArc
 50
136.3327716664
 51
143.6530949903
  0
ARC
  5
289
330
1F
100
AcDbEntity
  8
0
  6
Continuous
 62
     7
370
    15
100
AcDbCircle
 10
80.583491538
 20
-43.1766393587
 30
0.0
 40
2.138920268936922
100
AcDbArc
 50
288.7436073788
 51
324.0501605523
  0
ARC
  5
28A
330
1F
100
AcDbEntity
  8
0
  6
Continuous
 62
     7
370
    15
100
AcDbCircle
 10
80.6012468216
 20
-43.1526230603
 30
0.0
 40
2.138854745418632
100
AcDbArc
 50
323.2500913465
 51
358.5439537629
  0
ARC
  5
28B
330
1F
100
AcDbEntity
  8
0
  6
Continuous
 62
     7
370
    15
100
AcDbCircle
 10
39.0142559393
 20
-140.432042509
 30
0.0
 40
2.138854745418898
100
AcDbArc
 50
323.2500913465
 51
358.5439537629
  0
ARC
  5
28C
330
1F
100
AcDbEntity
  8
0
  6
Continuous
 62
     7
370
    15
100
AcDbCircle
 10
38.9965006557
 20
-140.4560588074
 30
0.0
 40
2.138920268936577
100
AcDbArc
 50
288.7436073788
 51
324.0501605523
  0
MTEXT
  5
28E
330
1F
100
AcDbEntity
  8
0
  6
Continuous
 62
     7
100
AcDbMText
 10
-2.3291716539
 20
-172.4966207023
 30
0.0
 40
4.83362
 41
0.0
 71
     1
 72
     1
  1
SolidWorks Educational Edition.
  7
SLDTEXTSTYLE0
 73
     1
 44
1.0
  0
MTEXT
  5
28F
330
1F
100
AcDbEntity
  8
0
  6
Continuous
 62
     7
100
AcDbMText
 10
-2.3291716539
 20
-179.7470507023
 30
0.0
 40
4.83362
 41
0.0
 71
     1
 72
     1
  1
For Instructional Use Only.
  7
SLDTEXTSTYLE0
 73
     1
 44
1.0
  0
ENDSEC
  0
SECTION
  2
OBJECTS
  0
DICTIONARY
  5
C
330
0
100
AcDbDictionary
281
     1
  3
ACAD_GROUP
350
D
  3
ACAD_LAYOUT
350
1A
  3
ACAD_MLINESTYLE
350
17
  3
ACAD_PLOTSETTINGS
350
19
  3
ACAD_PLOTSTYLENAME
350
E
  0
DICTIONARY
  5
D
102
{ACAD_REACTORS
330
C
102
}
330
C
100
AcDbDictionary
281
     1
  0
DICTIONARY
  5
1A
102
{ACAD_REACTORS
330
C
102
}
330
C
100
AcDbDictionary
281
     1
  3
Layout1
350
1E
  3
Layout2
350
26
  3
Model
350
22
  0
DICTIONARY
  5
17
102
{ACAD_REACTORS
330
C
102
}
330
C
100
AcDbDictionary
281
     1
  3
Standard
350
18
  0
DICTIONARY
  5
19
102
{ACAD_REACTORS
330
C
102
}
330
C
100
AcDbDictionary
281
     1
  0
ACDBDICTIONARYWDFLT
  5
E
102
{ACAD_REACTORS
330
C
102
}
330
C
100
AcDbDictionary
281
     1
  3
Normal
350
F
100
AcDbDictionaryWithDefault
340
F
  0
LAYOUT
  5
1E
102
{ACAD_REACTORS
330
1A
102
}
330
1A
100
AcDbPlotSettings
  1

  2
none_device
  4

  6

 40
0.0
 41
0.0
 42
0.0
 43
0.0
 44
0.0
 45
0.0
 46
0.0
 47
0.0
 48
0.0
 49
0.0
140
0.0
141
0.0
142
1.0
143
1.0
 70
   688
 72
     0
 73
     0
 74
     5
  7

 75
    16
147
1.0
148
0.0
149
0.0
100
AcDbLayout
  1
Layout1
 70
     1
 71
     1
 10
0.0
 20
0.0
 11
420.0
 21
297.0
 12
0.0
 22
0.0
 32
0.0
 14
1.0000000000E+20
 24
1.0000000000E+20
 34
1.0000000000E+20
 15
-1.0000000000E+20
 25
-1.0000000000E+20
 35
-1.0000000000E+20
146
0.0
 13
0.0
 23
0.0
 33
0.0
 16
1.0
 26
0.0
 36
0.0
 17
0.0
 27
1.0
 37
0.0
 76
     0
330
1B
  0
LAYOUT
  5
26
102
{ACAD_REACTORS
330
1A
102
}
330
1A
100
AcDbPlotSettings
  1

  2
none_device
  4

  6

 40
0.0
 41
0.0
 42
0.0
 43
0.0
 44
0.0
 45
0.0
 46
0.0
 47
0.0
 48
0.0
 49
0.0
140
0.0
141
0.0
142
1.0
143
1.0
 70
   688
 72
     0
 73
     0
 74
     5
  7

 75
    16
147
1.0
148
0.0
149
0.0
100
AcDbLayout
  1
Layout2
 70
     1
 71
     2
 10
0.0
 20
0.0
 11
0.0
 21
0.0
 12
0.0
 22
0.0
 32
0.0
 14
0.0
 24
0.0
 34
0.0
 15
0.0
 25
0.0
 35
0.0
146
0.0
 13
0.0
 23
0.0
 33
0.0
 16
1.0
 26
0.0
 36
0.0
 17
0.0
 27
1.0
 37
0.0
 76
     0
330
23
  0
LAYOUT
  5
22
102
{ACAD_REACTORS
330
1A
102
}
330
1A
100
AcDbPlotSettings
  1

  2
none_device
  4
ANSI_A_(11.00_x_8.50_Inches)
  6

 40
6.35
 41
19.05
 42
6.35000508
 43
19.05000254
 44
279.4
 45
215.9
 46
75.8778049005
 47
169.9947180508
 48
0.0
 49
0.0
140
0.0
141
0.0
142
0.0431556602
143
1.0
 70
  1696
 72
     0
 73
     0
 74
     0
  7

 75
     0
147
0.0179189148
148
0.0
149
0.0
100
AcDbLayout
  1
Model
 70
     1
 71
     0
 10
0.0
 20
0.0
 11
420.0
 21
297.0
 12
0.0
 22
0.0
 32
0.0
 14
-2.3291716539
 24
-171.4770543106
 34
0.0
 15
107.1907233867
 25
23.5147489488
 35
0.0
146
0.0
 13
0.0
 23
0.0
 33
0.0
 16
1.0
 26
0.0
 36
0.0
 17
0.0
 27
1.0
 37
0.0
 76
     0
330
1F
331
29
  0
MLINESTYLE
  5
18
102
{ACAD_REACTORS
330
17
102
}
330
17
100
AcDbMlineStyle
  2
Standard
 70
     0
  3

 62
   256
 51
90.0
 52
90.0
 71
     2
 49
0.5
 62
   256
  6
BYLAYER
 49
-0.5
 62
   256
  6
BYLAYER
  0
ACDBPLACEHOLDER
  5
F
102
{ACAD_REACTORS
330
E
102
}
330
E
  0
ENDSEC
  0
EOF
