  0
SECTION
  2
HEADER
  9
$ACADVER
  1
AC1015
  9
$ACADMAINTVER
 70
     6
  9
$DWGCODEPAGE
  3
ANSI_1252
  9
$INSBASE
 10
0.0
 20
0.0
 30
0.0
  9
$EXTMIN
 10
-122.1992290049
 20
-129.9717857032
 30
0.0
  9
$EXTMAX
 10
-0.9125954123
 20
45.3961314856
 30
0.0
  9
$LIMMIN
 10
0.0
 20
0.0
  9
$LIMMAX
 10
420.0
 20
297.0
  9
$ORTHOMODE
 70
     0
  9
$REGENMODE
 70
     1
  9
$FILLMODE
 70
     1
  9
$QTEXTMODE
 70
     0
  9
$MIRRTEXT
 70
     1
  9
$LTSCALE
 40
1.0
  9
$ATTMODE
 70
     1
  9
$TEXTSIZE
 40
2.5
  9
$TRACEWID
 40
1.0
  9
$TEXTSTYLE
  7
Standard
  9
$CLAYER
  8
0
  9
$CELTYPE
  6
ByLayer
  9
$CECOLOR
 62
   256
  9
$CELTSCALE
 40
1.0
  9
$DISPSILH
 70
     0
  9
$DIMSCALE
 40
1.0
  9
$DIMASZ
 40
6.0
  9
$DIMEXO
 40
1.0
  9
$DIMDLI
 40
3.75
  9
$DIMRND
 40
0.0
  9
$DIMDLE
 40
0.0
  9
$DIMEXE
 40
1.0
  9
$DIMTP
 40
0.0
  9
$DIMTM
 40
0.0
  9
$DIMTXT
 40
2.5
  9
$DIMCEN
 40
2.5
  9
$DIMTSZ
 40
0.0
  9
$DIMTOL
 70
     0
  9
$DIMLIM
 70
     0
  9
$DIMTIH
 70
     1
  9
$DIMTOH
 70
     1
  9
$DIMSE1
 70
     0
  9
$DIMSE2
 70
     0
  9
$DIMTAD
 70
     1
  9
$DIMZIN
 70
     0
  9
$DIMBLK
  1

  9
$DIMASO
 70
     1
  9
$DIMSHO
 70
     1
  9
$DIMPOST
  1

  9
$DIMAPOST
  1

  9
$DIMALT
 70
     0
  9
$DIMALTD
 70
     3
  9
$DIMALTF
 40
0.0393700787
  9
$DIMLFAC
 40
1.0
  9
$DIMTOFL
 70
     1
  9
$DIMTVP
 40
0.0
  9
$DIMTIX
 70
     0
  9
$DIMSOXD
 70
     0
  9
$DIMSAH
 70
     0
  9
$DIMBLK1
  1

  9
$DIMBLK2
  1

  9
$DIMSTYLE
  2
ISO-25
  9
$DIMCLRD
 70
     0
  9
$DIMCLRE
 70
     0
  9
$DIMCLRT
 70
     0
  9
$DIMTFAC
 40
1.0
  9
$DIMGAP
 40
1.524
  9
$DIMJUST
 70
     0
  9
$DIMSD1
 70
     0
  9
$DIMSD2
 70
     0
  9
$DIMTOLJ
 70
     0
  9
$DIMTZIN
 70
     0
  9
$DIMALTZ
 70
     0
  9
$DIMALTTZ
 70
     0
  9
$DIMUPT
 70
     0
  9
$DIMDEC
 70
     2
  9
$DIMTDEC
 70
     2
  9
$DIMALTU
 70
     2
  9
$DIMALTTD
 70
     3
  9
$DIMTXSTY
  7
Standard
  9
$DIMAUNIT
 70
     0
  9
$DIMADEC
 70
     2
  9
$DIMALTRND
 40
0.0
  9
$DIMAZIN
 70
     0
  9
$DIMDSEP
 70
    44
  9
$DIMATFIT
 70
     3
  9
$DIMFRAC
 70
     0
  9
$DIMLDRBLK
  1

  9
$DIMLUNIT
 70
     2
  9
$DIMLWD
 70
    -2
  9
$DIMLWE
 70
    -2
  9
$DIMTMOVE
 70
     0
  9
$LUNITS
 70
     2
  9
$LUPREC
 70
     2
  9
$SKETCHINC
 40
1.0
  9
$FILLETRAD
 40
10.0
  9
$AUNITS
 70
     0
  9
$AUPREC
 70
     2
  9
$MENU
  1
.
  9
$ELEVATION
 40
0.0
  9
$PELEVATION
 40
0.0
  9
$THICKNESS
 40
0.0
  9
$LIMCHECK
 70
     0
  9
$CHAMFERA
 40
10.0
  9
$CHAMFERB
 40
10.0
  9
$CHAMFERC
 40
20.0
  9
$CHAMFERD
 40
0.0
  9
$SKPOLY
 70
     0
  9
$TDCREATE
 40
2456560.915699699
  9
$TDUCREATE
 40
2456560.415699699
  9
$TDUPDATE
 40
2456560.915724977
  9
$TDUUPDATE
 40
2456560.415724977
  9
$TDINDWG
 40
0.0000000116
  9
$TDUSRTIMER
 40
0.0000000116
  9
$USRTIMER
 70
     1
  9
$ANGBASE
 50
0.0
  9
$ANGDIR
 70
     0
  9
$PDMODE
 70
     0
  9
$PDSIZE
 40
-1.0
  9
$PLINEWID
 40
0.0
  9
$SPLFRAME
 70
     0
  9
$SPLINETYPE
 70
     6
  9
$SPLINESEGS
 70
     8
  9
$HANDSEED
  5
23E
  9
$SURFTAB1
 70
     6
  9
$SURFTAB2
 70
     6
  9
$SURFTYPE
 70
     6
  9
$SURFU
 70
     6
  9
$SURFV
 70
     6
  9
$UCSBASE
  2

  9
$UCSNAME
  2

  9
$UCSORG
 10
0.0
 20
0.0
 30
0.0
  9
$UCSXDIR
 10
1.0
 20
0.0
 30
0.0
  9
$UCSYDIR
 10
0.0
 20
1.0
 30
0.0
  9
$UCSORTHOREF
  2

  9
$UCSORTHOVIEW
 70
     0
  9
$UCSORGTOP
 10
0.0
 20
0.0
 30
0.0
  9
$UCSORGBOTTOM
 10
0.0
 20
0.0
 30
0.0
  9
$UCSORGLEFT
 10
0.0
 20
0.0
 30
0.0
  9
$UCSORGRIGHT
 10
0.0
 20
0.0
 30
0.0
  9
$UCSORGFRONT
 10
0.0
 20
0.0
 30
0.0
  9
$UCSORGBACK
 10
0.0
 20
0.0
 30
0.0
  9
$PUCSBASE
  2

  9
$PUCSNAME
  2

  9
$PUCSORG
 10
0.0
 20
0.0
 30
0.0
  9
$PUCSXDIR
 10
1.0
 20
0.0
 30
0.0
  9
$PUCSYDIR
 10
0.0
 20
1.0
 30
0.0
  9
$PUCSORTHOREF
  2

  9
$PUCSORTHOVIEW
 70
     0
  9
$PUCSORGTOP
 10
0.0
 20
0.0
 30
0.0
  9
$PUCSORGBOTTOM
 10
0.0
 20
0.0
 30
0.0
  9
$PUCSORGLEFT
 10
0.0
 20
0.0
 30
0.0
  9
$PUCSORGRIGHT
 10
0.0
 20
0.0
 30
0.0
  9
$PUCSORGFRONT
 10
0.0
 20
0.0
 30
0.0
  9
$PUCSORGBACK
 10
0.0
 20
0.0
 30
0.0
  9
$USERI1
 70
     0
  9
$USERI2
 70
     0
  9
$USERI3
 70
     0
  9
$USERI4
 70
     0
  9
$USERI5
 70
     0
  9
$USERR1
 40
0.0
  9
$USERR2
 40
0.0
  9
$USERR3
 40
0.0
  9
$USERR4
 40
0.0
  9
$USERR5
 40
0.0
  9
$WORLDVIEW
 70
     1
  9
$SHADEDGE
 70
     3
  9
$SHADEDIF
 70
    70
  9
$TILEMODE
 70
     1
  9
$MAXACTVP
 70
    64
  9
$PINSBASE
 10
0.0
 20
0.0
 30
0.0
  9
$PLIMCHECK
 70
     0
  9
$PEXTMIN
 10
1.0000000000E+20
 20
1.0000000000E+20
 30
1.0000000000E+20
  9
$PEXTMAX
 10
-1.0000000000E+20
 20
-1.0000000000E+20
 30
-1.0000000000E+20
  9
$PLIMMIN
 10
0.0
 20
0.0
  9
$PLIMMAX
 10
420.0
 20
297.0
  9
$UNITMODE
 70
     0
  9
$VISRETAIN
 70
     1
  9
$PLINEGEN
 70
     0
  9
$PSLTSCALE
 70
     1
  9
$TREEDEPTH
 70
  3020
  9
$CMLSTYLE
  2
Standard
  9
$CMLJUST
 70
     0
  9
$CMLSCALE
 40
20.0
  9
$PROXYGRAPHICS
 70
     1
  9
$MEASUREMENT
 70
     1
  9
$CELWEIGHT
370
    -1
  9
$ENDCAPS
280
     0
  9
$JOINSTYLE
280
     0
  9
$LWDISPLAY
290
     1
  9
$INSUNITS
 70
     4
  9
$HYPERLINKBASE
  1

  9
$STYLESHEET
  1

  9
$XEDIT
290
     1
  9
$CEPSNTYPE
380
     0
  9
$PSTYLEMODE
290
     1
  9
$FINGERPRINTGUID
  2
{64BDAA3E-A4CB-4C3D-952C-E8006F9CEC6B}
  9
$VERSIONGUID
  2
{FAEB1C32-E019-11D5-929B-00C0DF256EC4}
  9
$EXTNAMES
290
     1
  9
$PSVPSCALE
 40
0.0
  9
$OLESTARTUP
290
     0
  0
ENDSEC
  0
SECTION
  2
CLASSES
  0
CLASS
  1
ACDBDICTIONARYWDFLT
  2
AcDbDictionaryWithDefault
  3
ObjectDBX Classes
 90
        0
280
     0
281
     0
  0
CLASS
  1
VISUALSTYLE
  2
AcDbVisualStyle
  3
ObjectDBX Classes
 90
     4095
280
     0
281
     0
  0
CLASS
  1
MATERIAL
  2
AcDbMaterial
  3
ObjectDBX Classes
 90
     1153
280
     0
281
     0
  0
CLASS
  1
ACDBPLACEHOLDER
  2
AcDbPlaceHolder
  3
ObjectDBX Classes
 90
        0
280
     0
281
     0
  0
CLASS
  1
LAYOUT
  2
AcDbLayout
  3
ObjectDBX Classes
 90
        0
280
     0
281
     0
  0
ENDSEC
  0
SECTION
  2
TABLES
  0
TABLE
  2
VPORT
  5
8
330
0
100
AcDbSymbolTable
 70
     1
  0
VPORT
  5
29
330
8
100
AcDbSymbolTableRecord
100
AcDbViewportTableRecord
  2
*Active
 70
     0
 10
0.0
 20
0.0
 11
1.0
 21
1.0
 12
-61.5559122086
 22
-42.2878271088
 13
0.0
 23
0.0
 14
10.0
 24
10.0
 15
10.0
 25
10.0
 16
0.0
 26
0.0
 36
1.0
 17
0.0
 27
0.0
 37
0.0
 40
178.8752755326
 41
0.6916124428
 42
50.0
 43
0.0
 44
0.0
 50
0.0
 51
0.0
 71
     0
 72
   100
 73
     1
 74
     3
 75
     0
 76
     0
 77
     0
 78
     0
281
     0
 65
     1
110
0.0
120
0.0
130
0.0
111
1.0
121
0.0
131
0.0
112
0.0
122
1.0
132
0.0
 79
     0
146
0.0
  0
ENDTAB
  0
TABLE
  2
LTYPE
  5
5
330
0
100
AcDbSymbolTable
 70
     6
  0
LTYPE
  5
14
330
5
100
AcDbSymbolTableRecord
100
AcDbLinetypeTableRecord
  2
ByBlock
 70
     0
  3

 72
    65
 73
     0
 40
0.0
  0
LTYPE
  5
15
330
5
100
AcDbSymbolTableRecord
100
AcDbLinetypeTableRecord
  2
ByLayer
 70
     0
  3

 72
    65
 73
     0
 40
0.0
  0
LTYPE
  5
16
330
5
100
AcDbSymbolTableRecord
100
AcDbLinetypeTableRecord
  2
Continuous
 70
     0
  3
Solid line
 72
    65
 73
     0
 40
0.0
  0
LTYPE
  5
3F
330
5
100
AcDbSymbolTableRecord
100
AcDbLinetypeTableRecord
  2
HIDDEN
 70
     0
  3
Hidden __ __ __ __ __ __ __ __ __ __ __ __ __ __
 72
    65
 73
     2
 40
1.905
 49
1.27
 74
     0
 49
-0.635
 74
     0
  0
LTYPE
  5
40
330
5
100
AcDbSymbolTableRecord
100
AcDbLinetypeTableRecord
  2
PHANTOM
 70
     0
  3
Phantom ______  __  __  ______  __  __  ______
 72
    65
 73
     6
 40
12.7
 49
6.35
 74
     0
 49
-1.27
 74
     0
 49
1.27
 74
     0
 49
-1.27
 74
     0
 49
1.27
 74
     0
 49
-1.27
 74
     0
  0
LTYPE
  5
41
330
5
100
AcDbSymbolTableRecord
100
AcDbLinetypeTableRecord
  2
CENTER
 70
     0
  3
Center ____ _ ____ _ ____ _ ____ _ ____ _ ____
 72
    65
 73
     4
 40
10.16
 49
6.35
 74
     0
 49
-1.27
 74
     0
 49
1.27
 74
     0
 49
-1.27
 74
     0
  0
LTYPE
  5
42
330
5
100
AcDbSymbolTableRecord
100
AcDbLinetypeTableRecord
  2
CENTERX2
 70
     0
  3
Center (2x) ________  __  ________  __  _____
 72
    65
 73
     4
 40
20.32
 49
12.7
 74
     0
 49
-2.54
 74
     0
 49
2.54
 74
     0
 49
-2.54
 74
     0
  0
LTYPE
  5
43
330
5
100
AcDbSymbolTableRecord
100
AcDbLinetypeTableRecord
  2
DOT2
 70
     0
  3
Dot (.5x) ........................................
 72
    65
 73
     2
 40
0.635
 49
0.0
 74
     0
 49
-0.635
 74
     0
  0
ENDTAB
  0
TABLE
  2
LAYER
  5
2
330
0
100
AcDbSymbolTable
 70
     1
  0
LAYER
  5
10
330
2
100
AcDbSymbolTableRecord
100
AcDbLayerTableRecord
  2
0
 70
     0
 62
     7
  6
Continuous
370
    -3
390
F
  0
ENDTAB
  0
TABLE
  2
STYLE
  5
3
330
0
100
AcDbSymbolTable
 70
     2
  0
STYLE
  5
11
330
3
100
AcDbSymbolTableRecord
100
AcDbTextStyleTableRecord
  2
Standard
 70
     0
 40
0.0
 41
1.0
 50
0.0
 71
     0
 42
2.5
  3
txt
  4

  0
STYLE
  5
23B
330
3
100
AcDbSymbolTableRecord
100
AcDbTextStyleTableRecord
  2
SLDTEXTSTYLE0
 70
     0
 40
0.0
 41
0.7
 50
0.0
 71
     0
 42
0.2
  3
TXT
  4

  0
ENDTAB
  0
TABLE
  2
VIEW
  5
6
330
0
100
AcDbSymbolTable
 70
     0
  0
ENDTAB
  0
TABLE
  2
UCS
  5
7
330
0
100
AcDbSymbolTable
 70
     0
  0
ENDTAB
  0
TABLE
  2
APPID
  5
9
330
0
100
AcDbSymbolTable
 70
     1
  0
APPID
  5
12
330
9
100
AcDbSymbolTableRecord
100
AcDbRegAppTableRecord
  2
ACAD
 70
     0
  0
ENDTAB
  0
TABLE
  2
DIMSTYLE
  5
A
330
0
100
AcDbSymbolTable
 70
     1
100
AcDbDimStyleTable
  0
DIMSTYLE
105
27
330
A
100
AcDbSymbolTableRecord
100
AcDbDimStyleTableRecord
  2
ISO-25
 70
     0
 41
2.5
 42
0.625
 43
3.75
 44
1.25
 73
     0
 74
     0
 77
     1
 78
     8
140
2.5
141
2.5
143
0.0393700787
147
0.625
171
     3
172
     1
178
     0
271
     2
272
     2
274
     3
278
    44
283
     0
284
     8
340
11
  0
ENDTAB
  0
TABLE
  2
BLOCK_RECORD
  5
1
330
0
100
AcDbSymbolTable
 70
     1
  0
BLOCK_RECORD
  5
1F
330
1
100
AcDbSymbolTableRecord
100
AcDbBlockTableRecord
  2
*Model_Space
340
22
  0
BLOCK_RECORD
  5
1B
330
1
100
AcDbSymbolTableRecord
100
AcDbBlockTableRecord
  2
*Paper_Space
340
1E
  0
BLOCK_RECORD
  5
23
330
1
100
AcDbSymbolTableRecord
100
AcDbBlockTableRecord
  2
*Paper_Space0
340
26
  0
ENDTAB
  0
ENDSEC
  0
SECTION
  2
BLOCKS
  0
BLOCK
  5
20
330
1F
100
AcDbEntity
  8
0
100
AcDbBlockBegin
  2
*Model_Space
 70
     0
 10
0.0
 20
0.0
 30
0.0
  3
*Model_Space
  1

  0
ENDBLK
  5
21
330
1F
100
AcDbEntity
  8
0
100
AcDbBlockEnd
  0
BLOCK
  5
1C
330
1B
100
AcDbEntity
 67
     1
  8
0
100
AcDbBlockBegin
  2
*Paper_Space
 70
     0
 10
0.0
 20
0.0
 30
0.0
  3
*Paper_Space
  1

  0
ENDBLK
  5
1D
330
1B
100
AcDbEntity
 67
     1
  8
0
100
AcDbBlockEnd
  0
BLOCK
  5
24
330
23
100
AcDbEntity
  8
0
100
AcDbBlockBegin
  2
*Paper_Space0
 70
     0
 10
0.0
 20
0.0
 30
0.0
  3
*Paper_Space0
  1

  0
ENDBLK
  5
25
330
23
100
AcDbEntity
  8
0
100
AcDbBlockEnd
  0
ENDSEC
  0
SECTION
  2
ENTITIES
  0
SPLINE
  5
52
330
1F
100
AcDbEntity
  8
0
  6
Continuous
 62
     7
370
    15
100
AcDbSpline
210
0.0
220
0.0
230
1.0
 70
     8
 71
     3
 72
    14
 73
    10
 74
     0
 42
0.00000001
 43
0.00000001
 12
1.0
 22
0.0
 32
0.0
 13
1.0
 23
0.0
 33
0.0
 40
0.0
 40
0.0
 40
0.0
 40
0.0
 40
0.25
 40
0.25
 40
0.5
 40
0.5
 40
0.75
 40
0.75
 40
1.0
 40
1.0
 40
1.0
 40
1.0
 10
-107.200575904674
 20
-127.5571770801355
 30
0.0
 10
-107.1456937283441
 20
-127.8098888874471
 30
0.0
 10
-107.0320069819705
 20
-128.0563921007282
 30
0.0
 10
-106.7069723640802
 20
-128.4937287179756
 30
0.0
 10
-106.4957989112993
 20
-128.6843274401711
 30
0.0
 10
-106.0131932122178
 20
-128.9759423572244
 30
0.0
 10
-105.7420199397964
 20
-129.0768020668887
 30
0.0
 10
-105.1875138958607
 20
-129.1709286661584
 30
0.0
 10
-104.9044786810918
 20
-129.1641450459365
 30
0.0
 10
-104.6404926231476
 20
-129.1041096489238
 30
0.0
  0
LWPOLYLINE
  5
57
330
1F
100
AcDbEntity
  8
0
  6
Continuous
 62
     7
370
    15
100
AcDbPolyline
 90
       23
 70
   128
 43
0.0
 10
-8.2513690392
 20
5.093030356
 10
-8.3533222517
 20
5.6021650619
 10
-8.2958882012
 20
6.1044562754
 10
-8.0837198528
 20
6.5592113495
 10
-7.7340058243
 20
6.9295887327
 10
-7.2750778665
 20
7.185582652
 10
-6.7441155932
 20
7.3064540027
 10
-6.18413441
 20
7.2824105066
 10
-5.640500662
 20
7.115400025
 10
-5.1572563224
 20
6.8189527537
 10
-4.7735509737
 20
6.4170850877
 10
-4.5204701411
 20
5.9423539551
 10
-4.4185169286
 20
5.4332192492
 10
-4.4759509791
 20
4.9309280357
 10
-4.6881193275
 20
4.4761729616
 10
-5.037833356
 20
4.1057955785
 10
-5.4967613138
 20
3.8498016591
 10
-6.0277235871
 20
3.7289303085
 10
-6.5877047703
 20
3.7529738045
 10
-7.1313385183
 20
3.9199842861
 10
-7.6145828578
 20
4.2164315574
 10
-7.9982882066
 20
4.6182992235
 10
-8.2513690392
 20
5.093030356
  0
SPLINE
  5
74
330
1F
100
AcDbEntity
  8
0
  6
Continuous
 62
     7
370
    15
100
AcDbSpline
210
0.0
220
0.0
230
1.0
 70
     8
 71
     3
 72
     8
 73
     4
 74
     0
 42
0.00000001
 43
0.00000001
 12
1.0
 22
0.0
 32
0.0
 13
1.0
 23
0.0
 33
0.0
 40
0.0
 40
0.0
 40
0.0
 40
0.0
 40
0.973884675468758
 40
0.973884675468758
 40
0.973884675468758
 40
0.973884675468758
 10
-51.80309617225827
 20
-45.11128975024661
 30
0.0
 10
-60.88888974729684
 20
-65.08329075849066
 30
0.0
 10
-59.24291159063154
 20
-86.91853151998026
 30
0.0
 10
-46.86516170226233
 20
-110.6170120347154
 30
0.0
  0
SPLINE
  5
76
330
1F
100
AcDbEntity
  8
0
  6
Continuous
 62
     7
370
    15
100
AcDbSpline
210
0.0
220
0.0
230
1.0
 70
     8
 71
     3
 72
     8
 73
     4
 74
     0
 42
0.00000001
 43
0.00000001
 12
1.0
 22
0.0
 32
0.0
 13
1.0
 23
0.0
 33
0.0
 40
0.018750322670946
 40
0.018750322670946
 40
0.018750322670946
 40
0.018750322670946
 40
0.8258702315825766
 40
0.8258702315825766
 40
0.8258702315825766
 40
0.8258702315825766
 10
-105.797670492506
 20
-124.0454108092163
 30
0.0
 10
-112.1118249370705
 20
-94.9668852780878
 30
0.0
 10
-112.9463053223197
 20
-66.50555370427763
 30
0.0
 10
-108.3011116482536
 20
-38.66141608778581
 30
0.0
  0
SPLINE
  5
81
330
1F
100
AcDbEntity
  8
0
  6
Continuous
 62
     7
370
    15
100
AcDbSpline
210
0.0
220
0.0
230
1.0
 70
     8
 71
     3
 72
    20
 73
    16
 74
     0
 42
0.00000001
 43
0.00000001
 12
1.0
 22
0.0
 32
0.0
 13
1.0
 23
0.0
 33
0.0
 40
0.3190676360348755
 40
0.3190676360348755
 40
0.3190676360348755
 40
0.3190676360348755
 40
0.3749999999999995
 40
0.3749999999999995
 40
0.4374999999999996
 40
0.4374999999999996
 40
0.4999999999999997
 40
0.4999999999999997
 40
0.7499999999999999
 40
0.7499999999999999
 40
0.8125
 40
0.8125
 40
0.875
 40
0.875
 40
1.0
 40
1.0
 40
1.0
 40
1.0
 10
-67.04351244227772
 20
-63.36668044276211
 30
0.0
 10
-67.16317591627792
 20
-64.52969185047716
 30
0.0
 10
-67.25429738220204
 20
-65.69952607150503
 30
0.0
 10
-67.38622847828772
 20
-68.19114210748779
 30
0.0
 10
-67.41985487904617
 20
-69.5165310441557
 30
0.0
 10
-67.41430347422114
 20
-72.17647979166085
 30
0.0
 10
-67.37525536011182
 20
-73.50408717012402
 30
0.0
 10
-67.00515890870545
 20
-80.1307136536206
 30
0.0
 10
-66.15111465415258
 20
-85.395604096825
 30
0.0
 10
-64.47251607384995
 20
-91.9368428646889
 30
0.0
 10
-64.1061528567689
 20
-93.24309094360054
 30
0.0
 10
-63.31397206018446
 20
-95.85170734297374
 30
0.0
 10
-62.88763177909523
 20
-97.15553828051924
 30
0.0
 10
-61.5259150073097
 20
-101.0504436748856
 30
0.0
 10
-60.51009395759498
 20
-103.6197931007952
 30
0.0
 10
-59.39659145852695
 20
-106.1644945302246
 30
0.0
  0
SPLINE
  5
82
330
1F
100
AcDbEntity
  8
0
  6
Continuous
 62
     7
370
    15
100
AcDbSpline
210
0.0
220
0.0
230
1.0
 70
     8
 71
     3
 72
     8
 73
     4
 74
     0
 42
0.00000001
 43
0.00000001
 12
1.0
 22
0.0
 32
0.0
 13
1.0
 23
0.0
 33
0.0
 40
0.0187201843941154
 40
0.0187201843941154
 40
0.0187201843941154
 40
0.0187201843941154
 40
0.0196734005734299
 40
0.0196734005734299
 40
0.0196734005734299
 40
0.0196734005734299
 10
-107.2002977359406
 20
-127.5604788049953
 30
0.0
 10
-107.2077552948378
 20
-127.5261367392909
 30
0.0
 10
-107.2152052107779
 20
-127.4917955344382
 30
0.0
 10
-107.222647483761
 20
-127.4574551904372
 30
0.0
  0
SPLINE
  5
83
330
1F
100
AcDbEntity
  8
0
  6
Continuous
 62
     7
370
    15
100
AcDbSpline
210
0.0
220
0.0
230
1.0
 70
     8
 71
     3
 72
     8
 73
     4
 74
     0
 42
0.00000001
 43
0.00000001
 12
1.0
 22
0.0
 32
0.0
 13
1.0
 23
0.0
 33
0.0
 40
0.0196734005734299
 40
0.0196734005734299
 40
0.0196734005734299
 40
0.0196734005734299
 40
0.0605121420983281
 40
0.0605121420983281
 40
0.0605121420983281
 40
0.0605121420983281
 10
-107.222647483761
 20
-127.4574551904372
 30
0.0
 10
-107.5414975718215
 20
-125.9862082026456
 30
0.0
 10
-107.8463187699556
 20
-124.5165413354955
 30
0.0
 10
-108.1371110781632
 20
-123.048454588987
 30
0.0
  0
SPLINE
  5
84
330
1F
100
AcDbEntity
  8
0
  6
Continuous
 62
     7
370
    15
100
AcDbSpline
210
0.0
220
0.0
230
1.0
 70
     8
 71
     3
 72
     8
 73
     4
 74
     0
 42
0.00000001
 43
0.00000001
 12
1.0
 22
0.0
 32
0.0
 13
1.0
 23
0.0
 33
0.0
 40
0.0605121420983279
 40
0.0605121420983279
 40
0.0605121420983279
 40
0.0605121420983279
 40
0.0977150705393243
 40
0.0977150705393243
 40
0.0977150705393243
 40
0.0977150705393243
 10
-108.1371110781632
 20
-123.0484545889871
 30
0.0
 10
-108.4020145749285
 20
-121.711069445955
 30
0.0
 10
-108.6552759305449
 20
-120.3749955960927
 30
0.0
 10
-108.8968951450124
 20
-119.0402330394004
 30
0.0
  0
SPLINE
  5
85
330
1F
100
AcDbEntity
  8
0
  6
Continuous
 62
     7
370
    15
100
AcDbSpline
210
0.0
220
0.0
230
1.0
 70
     8
 71
     3
 72
     8
 73
     4
 74
     0
 42
0.00000001
 43
0.00000001
 12
1.0
 22
0.0
 32
0.0
 13
1.0
 23
0.0
 33
0.0
 40
0.0977150705393241
 40
0.0977150705393241
 40
0.0977150705393241
 40
0.0977150705393241
 40
0.1312371308244018
 40
0.1312371308244018
 40
0.1312371308244018
 40
0.1312371308244018
 10
-108.8968951450124
 20
-119.0402330394004
 30
0.0
 10
-109.1146084867526
 20
-117.8375322637701
 30
0.0
 10
-109.32286947375
 20
-116.6358961383666
 30
0.0
 10
-109.5216781060044
 20
-115.4353246631898
 30
0.0
  0
SPLINE
  5
86
330
1F
100
AcDbEntity
  8
0
  6
Continuous
 62
     7
370
    15
100
AcDbSpline
210
0.0
220
0.0
230
1.0
 70
     8
 71
     3
 72
     8
 73
     4
 74
     0
 42
0.00000001
 43
0.00000001
 12
1.0
 22
0.0
 32
0.0
 13
1.0
 23
0.0
 33
0.0
 40
0.1312371308244014
 40
0.1312371308244014
 40
0.1312371308244014
 40
0.1312371308244014
 40
0.1530707115594747
 40
0.1530707115594747
 40
0.1530707115594747
 40
0.1530707115594747
 10
-109.5216781060044
 20
-115.4353246631899
 30
0.0
 10
-109.6511660994702
 20
-114.6533687210854
 30
0.0
 10
-109.7766442391272
 20
-113.8718644221835
 30
0.0
 10
-109.8981125249751
 20
-113.0908117664841
 30
0.0
  0
SPLINE
  5
87
330
1F
100
AcDbEntity
  8
0
  6
Continuous
 62
     7
370
    15
100
AcDbSpline
210
0.0
220
0.0
230
1.0
 70
     8
 71
     3
 72
     8
 73
     4
 74
     0
 42
0.00000001
 43
0.00000001
 12
1.0
 22
0.0
 32
0.0
 13
1.0
 23
0.0
 33
0.0
 40
0.1530707115594747
 40
0.1530707115594747
 40
0.1530707115594747
 40
0.1530707115594747
 40
0.1897297898996654
 40
0.1897297898996654
 40
0.1897297898996654
 40
0.1897297898996654
 10
-109.8981125249752
 20
-113.0908117664841
 30
0.0
 10
-110.1020605379366
 20
-111.7794066039261
 30
0.0
 10
-110.2947043025376
 20
-110.4692746765469
 30
0.0
 10
-110.4760438187783
 20
-109.1604159843463
 30
0.0
  0
SPLINE
  5
88
330
1F
100
AcDbEntity
  8
0
  6
Continuous
 62
     7
370
    15
100
AcDbSpline
210
0.0
220
0.0
230
1.0
 70
     8
 71
     3
 72
     8
 73
     4
 74
     0
 42
0.00000001
 43
0.00000001
 12
1.0
 22
0.0
 32
0.0
 13
1.0
 23
0.0
 33
0.0
 40
0.1897297898996654
 40
0.1897297898996654
 40
0.1897297898996654
 40
0.1897297898996654
 40
0.2140615926930285
 40
0.2140615926930285
 40
0.2140615926930285
 40
0.2140615926930285
 10
-110.4760438187783
 20
-109.1604159843463
 30
0.0
 10
-110.5964046556456
 20
-108.2916846079742
 30
0.0
 10
-110.7117855172854
 20
-107.4235141428142
 30
0.0
 10
-110.8221864036975
 20
-106.5559045888662
 30
0.0
  0
SPLINE
  5
89
330
1F
100
AcDbEntity
  8
0
  6
Continuous
 62
     7
370
    15
100
AcDbSpline
210
0.0
220
0.0
230
1.0
 70
     8
 71
     3
 72
     8
 73
     4
 74
     0
 42
0.00000001
 43
0.00000001
 12
1.0
 22
0.0
 32
0.0
 13
1.0
 23
0.0
 33
0.0
 40
0.2140615926930285
 40
0.2140615926930285
 40
0.2140615926930285
 40
0.2140615926930285
 40
0.2594832793423606
 40
0.2594832793423606
 40
0.2594832793423606
 40
0.2594832793423606
 10
-110.8221864036975
 20
-106.5559045888662
 30
0.0
 10
-111.0282785913996
 20
-104.9362839784221
 30
0.0
 10
-111.2170165582345
 20
-103.3186180317294
 30
0.0
 10
-111.3884003042023
 20
-101.7029067487881
 30
0.0
  0
SPLINE
  5
8A
330
1F
100
AcDbEntity
  8
0
  6
Continuous
 62
     7
370
    15
100
AcDbSpline
210
0.0
220
0.0
230
1.0
 70
     8
 71
     3
 72
     8
 73
     4
 74
     0
 42
0.00000001
 43
0.00000001
 12
1.0
 22
0.0
 32
0.0
 13
1.0
 23
0.0
 33
0.0
 40
0.2594832793423372
 40
0.2594832793423372
 40
0.2594832793423372
 40
0.2594832793423372
 40
0.305108720648937
 40
0.305108720648937
 40
0.305108720648937
 40
0.305108720648937
 10
-111.3884003042021
 20
-101.7029067487906
 30
0.0
 10
-111.5605528511325
 20
-100.0799476350666
 30
0.0
 10
-111.7151951312818
 20
-98.45896076106548
 30
0.0
 10
-111.8523271446499
 20
-96.83994612678728
 30
0.0
  0
SPLINE
  5
8B
330
1F
100
AcDbEntity
  8
0
  6
Continuous
 62
     7
370
    15
100
AcDbSpline
210
0.0
220
0.0
230
1.0
 70
     8
 71
     3
 72
     8
 73
     4
 74
     0
 42
0.00000001
 43
0.00000001
 12
1.0
 22
0.0
 32
0.0
 13
1.0
 23
0.0
 33
0.0
 40
0.3051087206489368
 40
0.3051087206489368
 40
0.3051087206489368
 40
0.3051087206489368
 40
0.3590186015978975
 40
0.3590186015978975
 40
0.3590186015978975
 40
0.3590186015978975
 10
-111.8523271446498
 20
-96.8399461267873
 30
0.0
 10
-112.0143589037573
 20
-94.92695890542451
 30
0.0
 10
-112.1519442381762
 20
-93.01672516637336
 30
0.0
 10
-112.2650831479066
 20
-91.10924490963384
 30
0.0
  0
SPLINE
  5
8C
330
1F
100
AcDbEntity
  8
0
  6
Continuous
 62
     7
370
    15
100
AcDbSpline
210
0.0
220
0.0
230
1.0
 70
     8
 71
     3
 72
     8
 73
     4
 74
     0
 42
0.00000001
 43
0.00000001
 12
1.0
 22
0.0
 32
0.0
 13
1.0
 23
0.0
 33
0.0
 40
0.3590186015978972
 40
0.3590186015978972
 40
0.3590186015978972
 40
0.3590186015978972
 40
0.3887626476527291
 40
0.3887626476527291
 40
0.3887626476527291
 40
0.3887626476527291
 10
-112.2650831479066
 20
-91.10924490963389
 30
0.0
 10
-112.3275060077307
 20
-90.05681853423795
 30
0.0
 10
-112.3824870555208
 20
-89.00523035494072
 30
0.0
 10
-112.4300262912767
 20
-87.95448037174225
 30
0.0
  0
SPLINE
  5
8D
330
1F
100
AcDbEntity
  8
0
  6
Continuous
 62
     7
370
    15
100
AcDbSpline
210
0.0
220
0.0
230
1.0
 70
     8
 71
     3
 72
     8
 73
     4
 74
     0
 42
0.00000001
 43
0.00000001
 12
1.0
 22
0.0
 32
0.0
 13
1.0
 23
0.0
 33
0.0
 40
0.3887626476527283
 40
0.3887626476527283
 40
0.3887626476527283
 40
0.3887626476527283
 40
0.4185064032997557
 40
0.4185064032997557
 40
0.4185064032997557
 40
0.4185064032997557
 10
-112.4300262912767
 20
-87.9544803717423
 30
0.0
 10
-112.4775650628805
 20
-86.90374064760528
 30
0.0
 10
-112.5176621677666
 20
-85.85383910319952
 30
0.0
 10
-112.550317605935
 20
-84.80477573852504
 30
0.0
  0
SPLINE
  5
8E
330
1F
100
AcDbEntity
  8
0
  6
Continuous
 62
     7
370
    15
100
AcDbSpline
210
0.0
220
0.0
230
1.0
 70
     8
 71
     3
 72
     8
 73
     4
 74
     0
 42
0.00000001
 43
0.00000001
 12
1.0
 22
0.0
 32
0.0
 13
1.0
 23
0.0
 33
0.0
 40
0.4185064032997559
 40
0.4185064032997559
 40
0.4185064032997559
 40
0.4185064032997559
 40
0.4695148897986233
 40
0.4695148897986233
 40
0.4695148897986233
 40
0.4695148897986233
 10
-112.550317605935
 20
-84.80477573852502
 30
0.0
 10
-112.6063194268447
 20
-83.00570452813457
 30
0.0
 10
-112.6404353945632
 20
-81.20909839435168
 30
0.0
 10
-112.6526655090901
 20
-79.41495733717629
 30
0.0
  0
SPLINE
  5
8F
330
1F
100
AcDbEntity
  8
0
  6
Continuous
 62
     7
370
    15
100
AcDbSpline
210
0.0
220
0.0
230
1.0
 70
     8
 71
     3
 72
     8
 73
     4
 74
     0
 42
0.00000001
 43
0.00000001
 12
1.0
 22
0.0
 32
0.0
 13
1.0
 23
0.0
 33
0.0
 40
0.4695148897986233
 40
0.4695148897986233
 40
0.4695148897986233
 40
0.4695148897986233
 40
0.4983347355705007
 40
0.4983347355705007
 40
0.4983347355705007
 40
0.4983347355705007
 10
-112.6526655090901
 20
-79.41495733717628
 30
0.0
 10
-112.6595755360019
 20
-78.40126584954636
 30
0.0
 10
-112.6594990267503
 20
-77.3883612787761
 30
0.0
 10
-112.6524359813352
 20
-76.3762436248655
 30
0.0
  0
SPLINE
  5
90
330
1F
100
AcDbEntity
  8
0
  6
Continuous
 62
     7
370
    15
100
AcDbSpline
210
0.0
220
0.0
230
1.0
 70
     8
 71
     3
 72
     8
 73
     4
 74
     0
 42
0.00000001
 43
0.00000001
 12
1.0
 22
0.0
 32
0.0
 13
1.0
 23
0.0
 33
0.0
 40
0.4983347355705007
 40
0.4983347355705007
 40
0.4983347355705007
 40
0.4983347355705007
 40
0.546826643859992
 40
0.546826643859992
 40
0.546826643859992
 40
0.546826643859992
 10
-112.6524359813352
 20
-76.37624362486548
 30
0.0
 10
-112.6405517903779
 20
-74.6732672508732
 30
0.0
 10
-112.6088880152605
 20
-72.97251871738561
 30
0.0
 10
-112.5574446559829
 20
-71.27399802440273
 30
0.0
  0
SPLINE
  5
91
330
1F
100
AcDbEntity
  8
0
  6
Continuous
 62
     7
370
    15
100
AcDbSpline
210
0.0
220
0.0
230
1.0
 70
     8
 71
     3
 72
     8
 73
     4
 74
     0
 42
0.00000001
 43
0.00000001
 12
1.0
 22
0.0
 32
0.0
 13
1.0
 23
0.0
 33
0.0
 40
0.546826643859992
 40
0.546826643859992
 40
0.546826643859992
 40
0.546826643859992
 40
0.637785948647484
 40
0.637785948647484
 40
0.637785948647484
 40
0.637785948647484
 10
-112.5574446559829
 20
-71.27399802440274
 30
0.0
 10
-112.4609491300102
 20
-68.0879765447248
 30
0.0
 10
-112.294859432179
 20
-64.9097936886348
 30
0.0
 10
-112.0591755624892
 20
-61.73944945613277
 30
0.0
  0
SPLINE
  5
92
330
1F
100
AcDbEntity
  8
0
  6
Continuous
 62
     7
370
    15
100
AcDbSpline
210
0.0
220
0.0
230
1.0
 70
     8
 71
     3
 72
     8
 73
     4
 74
     0
 42
0.00000001
 43
0.00000001
 12
1.0
 22
0.0
 32
0.0
 13
1.0
 23
0.0
 33
0.0
 40
0.637785948647484
 40
0.637785948647484
 40
0.637785948647484
 40
0.637785948647484
 40
0.6874016761383189
 40
0.6874016761383189
 40
0.6874016761383189
 40
0.6874016761383189
 10
-112.0591755624892
 20
-61.73944945613277
 30
0.0
 10
-111.9306166791531
 20
-60.01011636745692
 30
0.0
 10
-111.7813507886512
 20
-58.28311557803072
 30
0.0
 10
-111.6113778909834
 20
-56.55844708785418
 30
0.0
  0
SPLINE
  5
93
330
1F
100
AcDbEntity
  8
0
  6
Continuous
 62
     7
370
    15
100
AcDbSpline
210
0.0
220
0.0
230
1.0
 70
     8
 71
     3
 72
     8
 73
     4
 74
     0
 42
0.00000001
 43
0.00000001
 12
1.0
 22
0.0
 32
0.0
 13
1.0
 23
0.0
 33
0.0
 40
0.6874016761383189
 40
0.6874016761383189
 40
0.6874016761383189
 40
0.6874016761383189
 40
0.8258702315825414
 40
0.8258702315825414
 40
0.8258702315825414
 40
0.8258702315825414
 10
-111.6113778909834
 20
-56.55844708785418
 30
0.0
 10
-111.1370141600663
 20
-51.74520809021924
 30
0.0
 10
-110.5013702750834
 20
-46.950134614009
 30
0.0
 10
-109.7044462360346
 20
-42.17322665922343
 30
0.0
  0
LWPOLYLINE
  5
9A
330
1F
100
AcDbEntity
  8
0
  6
Continuous
 62
     7
370
    15
100
AcDbPolyline
 90
       10
 70
   128
 43
0.0
 10
-104.815491305
 20
-129.5429908296
 10
-105.2099173172
 20
-129.7426602874
 10
-105.6115038771
 20
-129.8832085569
 10
-106.0080489805
 20
-129.9603651502
 10
-106.387503805
 20
-129.9717857032
 10
-106.7383388077
 20
-129.9171232082
 10
-107.0498940447
 20
-129.7980385575
 10
-107.3127030677
 20
-129.6181500778
 10
-107.5187805576
 20
-129.3829235896
 10
-107.6618649541
 20
-129.0995063307
  0
LWPOLYLINE
  5
9F
330
1F
100
AcDbEntity
  8
0
  6
Continuous
 62
     7
370
    15
100
AcDbPolyline
 90
       23
 70
   128
 43
0.0
 10
-90.4558143377
 20
-104.3041856714
 10
-90.7088951703
 20
-103.8294545389
 10
-91.0926005191
 20
-103.4275868729
 10
-91.5758448587
 20
-103.1311396016
 10
-92.1194786067
 20
-102.96412912
 10
-92.6794597899
 20
-102.9400856239
 10
-93.2104220632
 20
-103.0609569746
 10
-93.669350021
 20
-103.3169508939
 10
-94.0190640495
 20
-103.6873282771
 10
-94.2312323979
 20
-104.1420833512
 10
-94.2886664484
 20
-104.6443745646
 10
-94.1867132359
 20
-105.1535092706
 10
-93.9336324033
 20
-105.6282404031
 10
-93.5499270545
 20
-106.0301080692
 10
-93.0666827149
 20
-106.3265553405
 10
-92.5230489669
 20
-106.4935658221
 10
-91.9630677837
 20
-106.5176093181
 10
-91.4321055104
 20
-106.3967379675
 10
-90.9731775526
 20
-106.1407440481
 10
-90.6234635242
 20
-105.770366665
 10
-90.4112951758
 20
-105.3156115909
 10
-90.3538611252
 20
-104.8133203774
 10
-90.4558143377
 20
-104.3041856714
  0
LWPOLYLINE
  5
A0
330
1F
100
AcDbEntity
  8
0
  6
Continuous
 62
     7
370
    15
100
AcDbPolyline
 90
       23
 70
   128
 43
0.0
 10
-97.7219102567
 20
-8.6471558992
 10
-97.9749910893
 20
-8.1724247667
 10
-98.3586964381
 20
-7.7705571006
 10
-98.8419407777
 20
-7.4741098293
 10
-99.3855745257
 20
-7.3070993477
 10
-99.9455557089
 20
-7.2830558517
 10
-100.4765179822
 20
-7.4039272023
 10
-100.93544594
 20
-7.6599211217
 10
-101.2851599685
 20
-8.0302985048
 10
-101.4973283168
 20
-8.4850535789
 10
-101.5547623674
 20
-8.9873447924
 10
-101.4528091549
 20
-9.4964794983
 10
-101.1997283223
 20
-9.9712106309
 10
-100.8160229735
 20
-10.3730782969
 10
-100.3327786339
 20
-10.6695255682
 10
-99.7891448859
 20
-10.8365360498
 10
-99.2291637027
 20
-10.8605795459
 10
-98.6982014294
 20
-10.7397081952
 10
-98.2392734716
 20
-10.4837142759
 10
-97.8895594432
 20
-10.1133368927
 10
-97.6773910948
 20
-9.6585818186
 10
-97.6199570442
 20
-9.1562906052
 10
-97.7219102567
 20
-8.6471558992
  0
SPLINE
  5
A2
330
1F
100
AcDbEntity
  8
0
  6
Continuous
 62
     7
370
    15
100
AcDbSpline
210
0.0
220
0.0
230
1.0
 70
     8
 71
     3
 72
     8
 73
     4
 74
     0
 42
0.00000001
 43
0.00000001
 12
1.0
 22
0.0
 32
0.0
 13
1.0
 23
0.0
 33
0.0
 40
0.0
 40
0.0
 40
0.0
 40
0.0
 40
0.0400226850954134
 40
0.0400226850954134
 40
0.0400226850954134
 40
0.0400226850954134
 10
-98.59406873884089
 20
-116.9631410557001
 30
0.0
 10
-98.82945797375648
 20
-115.6651490578587
 30
0.0
 10
-99.05371504331767
 20
-114.366946738629
 30
0.0
 10
-99.2667568742751
 20
-113.0685325284976
 30
0.0
  0
SPLINE
  5
A4
330
1F
100
AcDbEntity
  8
0
  6
Continuous
 62
     7
370
    15
100
AcDbSpline
210
0.0
220
0.0
230
1.0
 70
     8
 71
     3
 72
    17
 73
    13
 74
     0
 42
0.00000001
 43
0.00000001
 12
1.0
 22
0.0
 32
0.0
 13
1.0
 23
0.0
 33
0.0
 40
0.2946604390370924
 40
0.2946604390370924
 40
0.2946604390370924
 40
0.2946604390370924
 40
0.3125000000000009
 40
0.3125000000000009
 40
0.3750000000000012
 40
0.5000000000000012
 40
0.5000000000000012
 40
0.5625000000000012
 40
0.5625000000000012
 40
0.625000000000001
 40
0.625000000000001
 40
0.7403471495400105
 40
0.7403471495400105
 40
0.7403471495400105
 40
0.7403471495400105
 10
-101.9497216689293
 20
-88.2595293518798
 30
0.0
 10
-101.9795599931165
 20
-87.67975074939288
 30
0.0
 10
-102.0070578650768
 20
-87.10009350741001
 30
0.0
 10
-102.1203027481856
 20
-84.49063256663283
 30
0.0
 10
-102.2981433735233
 20
-78.4083382900255
 30
0.0
 10
-102.2160587194973
 20
-72.34943558817413
 30
0.0
 10
-101.9599901818074
 20
-66.30619029767965
 30
0.0
 10
-101.8456372019758
 20
-64.29438472321019
 30
0.0
 10
-101.5588272059384
 20
-60.27600255743827
 30
0.0
 10
-101.3863479339258
 20
-58.26975490411962
 30
0.0
 10
-100.8144782002648
 20
-52.58258779838472
 30
0.0
 10
-100.3462675984374
 20
-48.91575982006552
 30
0.0
 10
-99.78244671856392
 20
-45.27027662687948
 30
0.0
  0
SPLINE
  5
B7
330
1F
100
AcDbEntity
  8
0
  6
Continuous
 62
     7
370
    15
100
AcDbSpline
210
0.0
220
0.0
230
1.0
 70
     8
 71
     3
 72
     8
 73
     4
 74
     0
 42
0.00000001
 43
0.00000001
 12
1.0
 22
0.0
 32
0.0
 13
1.0
 23
0.0
 33
0.0
 40
0.3190676360348755
 40
0.3190676360348755
 40
0.3190676360348755
 40
0.3190676360348755
 40
0.3443996454360946
 40
0.3443996454360946
 40
0.3443996454360946
 40
0.3443996454360946
 10
-67.86797151259871
 20
-65.42986915347956
 30
0.0
 10
-67.92216761720546
 20
-65.95660204702101
 30
0.0
 10
-67.97050911874864
 20
-66.48473445189383
 30
0.0
 10
-68.01297074708367
 20
-67.01427240879003
 30
0.0
  0
SPLINE
  5
DB
330
1F
100
AcDbEntity
  8
0
  6
Continuous
 62
     7
370
    15
100
AcDbSpline
210
0.0
220
0.0
230
1.0
 70
     8
 71
     3
 72
     8
 73
     4
 74
     0
 42
0.00000001
 43
0.00000001
 12
1.0
 22
0.0
 32
0.0
 13
1.0
 23
0.0
 33
0.0
 40
0.0068171082139102
 40
0.0068171082139102
 40
0.0068171082139102
 40
0.0068171082139102
 40
0.0197254543795683
 40
0.0197254543795683
 40
0.0197254543795683
 40
0.0197254543795683
 10
-53.3956525283708
 20
-49.04278103275509
 30
0.0
 10
-53.51408870840552
 20
-49.30784549446745
 30
0.0
 10
-53.63063951419897
 20
-49.57323729301887
 30
0.0
 10
-53.74530494575112
 20
-49.83895642840935
 30
0.0
  0
SPLINE
  5
DF
330
1F
100
AcDbEntity
  8
0
  6
Continuous
 62
     7
370
    15
100
AcDbSpline
210
0.0
220
0.0
230
1.0
 70
     8
 71
     3
 72
    10
 73
     6
 74
     0
 42
0.00000001
 43
0.00000001
 12
1.0
 22
0.0
 32
0.0
 13
1.0
 23
0.0
 33
0.0
 40
0.0
 40
0.0
 40
0.0
 40
0.0
 40
0.2977358045153361
 40
0.6940561104063794
 40
1.0
 40
1.0
 40
1.0
 40
1.0
 10
-68.78146534828637
 20
-74.97833625221702
 30
0.0
 10
-68.76000027530694
 20
-76.2786369088404
 30
0.0
 10
-68.7099627425824
 20
-79.30978600951366
 30
0.0
 10
-68.28855380285987
 20
-83.69534622325975
 30
0.0
 10
-67.72924867237201
 20
-86.76081434471364
 30
0.0
 10
-67.48558540690672
 20
-88.0962964133325
 30
0.0
  0
LWPOLYLINE
  5
FD
330
1F
100
AcDbEntity
  8
0
  6
Continuous
 62
     7
370
    15
100
AcDbPolyline
 90
        3
 70
   128
 43
0.0
 10
-109.9625956511
 20
-42.6809549727
 10
-109.9378863528
 20
-42.7048710258
 10
-109.8798630595
 20
-42.6122029807
  0
LWPOLYLINE
  5
109
330
1F
100
AcDbEntity
  8
0
  6
Continuous
 62
     7
370
    15
100
AcDbPolyline
 90
        3
 70
   128
 43
0.0
 10
-122.1666288439
 20
-8.5632736249
 10
-122.1992290049
 20
-8.7263939313
 10
-122.1824403679
 20
-8.8174764297
  0
LWPOLYLINE
  5
110
330
1F
100
AcDbEntity
  8
0
  6
Continuous
 62
     7
370
    15
100
AcDbPolyline
 90
       23
 70
   128
 43
0.0
 10
-63.4017541946
 20
-10.5202219019
 10
-63.148673362
 20
-10.9949530344
 10
-62.7649680132
 20
-11.3968207005
 10
-62.2817236736
 20
-11.6932679717
 10
-61.7380899256
 20
-11.8602784534
 10
-61.1781087424
 20
-11.8843219494
 10
-60.6471464691
 20
-11.7634505988
 10
-60.1882185113
 20
-11.5074566794
 10
-59.8385044828
 20
-11.1370792963
 10
-59.6263361344
 20
-10.6823242222
 10
-59.5689020839
 20
-10.1800330087
 10
-59.6708552964
 20
-9.6708983027
 10
-59.923936129
 20
-9.1961671702
 10
-60.3076414778
 20
-8.7942995042
 10
-60.7908858174
 20
-8.4978522329
 10
-61.3345195653
 20
-8.3308417512
 10
-61.8945007485
 20
-8.3067982552
 10
-62.4254630218
 20
-8.4276696059
 10
-62.8843909796
 20
-8.6836635252
 10
-63.2341050081
 20
-9.0540409084
 10
-63.4462733565
 20
-9.5087959825
 10
-63.5037074071
 20
-10.0110871959
 10
-63.4017541946
 20
-10.5202219019
  0
LWPOLYLINE
  5
139
330
1F
100
AcDbEntity
  8
0
  6
Continuous
 62
     7
370
    15
100
AcDbPolyline
 90
       12
 70
   128
 43
0.0
 10
-104.9492031123
 20
29.3738136541
 10
-105.022521278
 20
29.0557365354
 10
-105.0388534527
 20
28.6219695813
 10
-104.9968765006
 20
28.1076540109
 10
-104.8999911448
 20
27.5544566128
 10
-104.7560464607
 20
27.0071941504
 10
-104.5767039904
 20
26.5102025735
 10
-104.3764929942
 20
26.103745184
 10
-104.1716333766
 20
25.8207507424
 10
-103.9787216451
 20
25.6841457752
 10
-103.8133863612
 20
25.7049972045
 10
-103.6890220062
 20
25.8816157715
  0
LWPOLYLINE
  5
13F
330
1F
100
AcDbEntity
  8
0
  6
Continuous
 62
     7
370
    15
100
AcDbPolyline
 90
       19
 70
   128
 43
0.0
 10
-52.3429770335
 20
22.5131180983
 10
-52.4299246656
 20
22.3473963097
 10
-52.538948823
 20
22.2539932931
 10
-52.6666631395
 20
22.2358102113
 10
-52.8091007195
 20
22.2934118436
 10
-52.9618373527
 20
22.4250090429
 10
-53.1201289328
 20
22.6265143089
 10
-53.2790588133
 20
22.8916687476
 10
-53.4336905213
 20
23.2122364775
 10
-53.5792210884
 20
23.5782604419
 10
-53.711130234
 20
23.9783716816
 10
-53.825320768
 20
24.400142463
 10
-53.918245853
 20
24.830472292
 10
-53.9870191713
 20
25.2559948245
 10
-54.0295045756
 20
25.6634930346
 10
-54.0443824397
 20
26.040309744
 10
-54.0311906468
 20
26.3747407636
 10
-53.9903389432
 20
26.6563984329
 10
-53.9230962112
 20
26.8765342689
  0
LWPOLYLINE
  5
144
330
1F
100
AcDbEntity
  8
0
  6
Continuous
 62
     7
370
    15
100
AcDbPolyline
 90
       23
 70
   128
 43
0.0
 10
-63.6506392112
 20
41.1371803039
 10
-63.7525924237
 20
41.6463150099
 10
-63.6951583731
 20
42.1486062234
 10
-63.4829900247
 20
42.6033612974
 10
-63.1332759962
 20
42.9737386806
 10
-62.6743480385
 20
43.2297325999
 10
-62.1433857652
 20
43.3506039506
 10
-61.5834045819
 20
43.3265604546
 10
-61.039770834
 20
43.1595499729
 10
-60.5565264944
 20
42.8631027017
 10
-60.1728211456
 20
42.4612350356
 10
-59.919740313
 20
41.9865039031
 10
-59.8177871005
 20
41.4773691971
 10
-59.875221151
 20
40.9750779837
 10
-60.0873894994
 20
40.5203229096
 10
-60.4371035279
 20
40.1499455264
 10
-60.8960314857
 20
39.8939516071
 10
-61.426993759
 20
39.7730802564
 10
-61.9869749422
 20
39.7971237524
 10
-62.5306086902
 20
39.9641342341
 10
-63.0138530298
 20
40.2605815054
 10
-63.3975583786
 20
40.6624491714
 10
-63.6506392112
 20
41.1371803039
  0
SPLINE
  5
150
330
1F
100
AcDbEntity
  8
0
  6
Continuous
 62
     7
370
    15
100
AcDbSpline
210
0.0
220
0.0
230
1.0
 70
     8
 71
     3
 72
    12
 73
     8
 74
     0
 42
0.00000001
 43
0.00000001
 12
1.0
 22
0.0
 32
0.0
 13
1.0
 23
0.0
 33
0.0
 40
0.0
 40
0.0
 40
0.0
 40
0.0
 40
0.054604866607921
 40
0.2909536499559399
 40
0.5273024333039664
 40
0.7636512166519777
 40
1.0
 40
1.0
 40
1.0
 40
1.0
 10
-48.18273459982341
 20
-115.5230801358122
 30
0.0
 10
-48.19118899039588
 20
-115.5508957661507
 30
0.0
 10
-48.23623691282521
 20
-115.6991070827522
 30
0.0
 10
-48.40173098732571
 20
-115.9340598080888
 30
0.0
 10
-48.67289098129071
 20
-116.2054529003628
 30
0.0
 10
-49.01114033530058
 20
-116.4150281851205
 30
0.0
 10
-49.2717102788648
 20
-116.4912065791486
 30
0.0
 10
-49.40199525064691
 20
-116.5292957761626
 30
0.0
  0
LWPOLYLINE
  5
154
330
1F
100
AcDbEntity
  8
0
  6
Continuous
 62
     7
370
    15
100
AcDbPolyline
 90
        3
 70
   128
 43
0.0
 10
-109.6846500326
 20
28.5766496501
 10
-109.7172501937
 20
28.4135293437
 10
-109.7004615566
 20
28.3224468453
  0
LINE
  5
155
330
1F
100
AcDbEntity
  8
0
  6
Continuous
 62
     7
370
    15
100
AcDbLine
 10
-105.7274735696
 20
-129.9122314462
 30
0.0
 11
-49.0377428255
 21
-117.0070502917
 31
0.0
  0
LINE
  5
156
330
1F
100
AcDbEntity
  8
0
  6
Continuous
 62
     7
370
    15
100
AcDbLine
 10
-48.175621925
 20
-115.5255137026
 30
0.0
 11
-46.8468953234
 21
-112.2004077965
 31
0.0
  0
LINE
  5
157
330
1F
100
AcDbEntity
  8
0
  6
Continuous
 62
     7
370
    15
100
AcDbLine
 10
-48.6265215984
 20
-116.6555689037
 30
0.0
 11
-48.1748791142
 21
-115.5253446048
 31
0.0
  0
LINE
  5
158
330
1F
100
AcDbEntity
  8
0
  6
Continuous
 62
     7
370
    15
100
AcDbLine
 10
-66.9401524897
 20
-62.9456941002
 30
0.0
 11
-67.76461156
 21
-65.0088828109
 31
0.0
  0
LINE
  5
159
330
1F
100
AcDbEntity
  8
0
  6
Continuous
 62
     7
370
    15
100
AcDbLine
 10
-89.2823051429
 20
-36.8058097081
 30
0.0
 11
-90.1067642133
 21
-38.8689984188
 31
0.0
  0
LINE
  5
15A
330
1F
100
AcDbEntity
  8
0
  6
Continuous
 62
     7
370
    15
100
AcDbLine
 10
-122.1824403679
 20
-8.8174764297
 30
0.0
 11
-109.9625956511
 21
-42.6809549727
 31
0.0
  0
LINE
  5
15B
330
1F
100
AcDbEntity
  8
0
  6
Continuous
 62
     7
370
    15
100
AcDbLine
 10
-64.7988768252
 20
-15.3118695577
 30
0.0
 11
-29.9285717006
 21
-7.373789792
 31
0.0
  0
LINE
  5
15C
330
1F
100
AcDbEntity
  8
0
  6
Continuous
 62
     7
370
    15
100
AcDbLine
 10
-25.4908621553
 20
-6.3635636921
 30
0.0
 11
-2.6775033315
 21
-1.170197548
 31
0.0
  0
LINE
  5
15D
330
1F
100
AcDbEntity
  8
0
  6
Continuous
 62
     7
370
    15
100
AcDbLine
 10
-108.7993231556
 20
31.9383408268
 30
0.0
 11
-109.676407273
 21
29.7434592196
 31
0.0
  0
LINE
  5
15E
330
1F
100
AcDbEntity
  8
0
  6
Continuous
 62
     7
370
    15
100
AcDbLine
 10
-109.7004615566
 20
28.3224468453
 30
0.0
 11
-107.7208452804
 21
22.8365593529
 31
0.0
  0
LINE
  5
15F
330
1F
100
AcDbEntity
  8
0
  6
Continuous
 62
     7
370
    15
100
AcDbLine
 10
-104.6404926073
 20
-129.1041096928
 30
0.0
 11
-103.5879916665
 21
-126.4702517642
 31
0.0
  0
LINE
  5
160
330
1F
100
AcDbEntity
  8
0
  6
Continuous
 62
     7
370
    15
100
AcDbLine
 10
-105.7976704925
 20
-124.0454108092
 30
0.0
 11
-107.2010050803
 21
-127.5572213806
 31
0.0
  0
LINE
  5
161
330
1F
100
AcDbEntity
  8
0
  6
Continuous
 62
     7
370
    15
100
AcDbLine
 10
-103.5879916665
 20
-126.4702517642
 30
0.0
 11
-48.3502371206
 21
-113.8956069454
 31
0.0
  0
LINE
  5
162
330
1F
100
AcDbEntity
  8
0
  6
Continuous
 62
     7
370
    15
100
AcDbLine
 10
-46.7640445776
 20
-110.8468935616
 30
0.0
 11
-105.7326980217
 21
-124.2708619796
 31
0.0
  0
LINE
  5
163
330
1F
100
AcDbEntity
  8
0
  6
Continuous
 62
     7
370
    15
100
AcDbLine
 10
-63.1231197166
 20
-59.8220316603
 30
0.0
 11
-66.4026792765
 21
-62.254454021
 31
0.0
  0
LINE
  5
164
330
1F
100
AcDbEntity
  8
0
  6
Continuous
 62
     7
370
    15
100
AcDbLine
 10
-59.5587514268
 20
-51.5897745214
 30
0.0
 11
-63.1231197166
 21
-59.8220316603
 31
0.0
  0
LINE
  5
165
330
1F
100
AcDbEntity
  8
0
  6
Continuous
 62
     7
370
    15
100
AcDbLine
 10
-59.2031212465
 20
-43.3240788364
 30
0.0
 11
-59.5587514268
 21
-51.5897745214
 31
0.0
  0
LINE
  5
166
330
1F
100
AcDbEntity
  8
0
  6
Continuous
 62
     7
370
    15
100
AcDbLine
 10
-60.8693095272
 20
-34.1258460638
 30
0.0
 11
-59.2031212465
 21
-43.3240788364
 31
0.0
  0
LINE
  5
167
330
1F
100
AcDbEntity
  8
0
  6
Continuous
 62
     7
370
    15
100
AcDbLine
 10
-71.9629194011
 20
-36.6512601591
 30
0.0
 11
-60.8693095272
 21
-34.1258460638
 31
0.0
  0
LINE
  5
168
330
1F
100
AcDbEntity
  8
0
  6
Continuous
 62
     7
370
    15
100
AcDbLine
 10
-71.9629194011
 20
-36.6512601591
 30
0.0
 11
-72.1012704492
 21
-39.1775033899
 31
0.0
  0
LINE
  5
169
330
1F
100
AcDbEntity
  8
0
  6
Continuous
 62
     7
370
    15
100
AcDbLine
 10
-72.1012704492
 20
-39.1775033899
 30
0.0
 11
-74.0040169658
 21
-37.1159075209
 31
0.0
  0
LINE
  5
16A
330
1F
100
AcDbEntity
  8
0
  6
Continuous
 62
     7
370
    15
100
AcDbLine
 10
-74.0040169658
 20
-37.1159075209
 30
0.0
 11
-75.4742879551
 21
-33.041511221
 31
0.0
  0
LINE
  5
16B
330
1F
100
AcDbEntity
  8
0
  6
Continuous
 62
     7
370
    15
100
AcDbLine
 10
-75.4742879551
 20
-33.041511221
 30
0.0
 11
-66.9520833931
 21
-31.1014668379
 31
0.0
  0
LINE
  5
16C
330
1F
100
AcDbEntity
  8
0
  6
Continuous
 62
     7
370
    15
100
AcDbLine
 10
-67.0044660372
 20
-30.9563047198
 30
0.0
 11
-66.9520833931
 21
-31.1014668379
 31
0.0
  0
LINE
  5
16D
330
1F
100
AcDbEntity
  8
0
  6
Continuous
 62
     7
370
    15
100
AcDbLine
 10
-59.5426682408
 20
-29.2576575215
 30
0.0
 11
-67.0044660372
 21
-30.9563047198
 31
0.0
  0
LINE
  5
16E
330
1F
100
AcDbEntity
  8
0
  6
Continuous
 62
     7
370
    15
100
AcDbLine
 10
-57.0471282386
 20
-30.5790946632
 30
0.0
 11
-54.5603649373
 21
-37.4703815534
 31
0.0
  0
LINE
  5
16F
330
1F
100
AcDbEntity
  8
0
  6
Continuous
 62
     7
370
    15
100
AcDbLine
 10
-54.5603649373
 20
-37.4703815534
 30
0.0
 11
-20.5283743388
 21
-29.7231405989
 31
0.0
  0
LINE
  5
170
330
1F
100
AcDbEntity
  8
0
  6
Continuous
 62
     7
370
    15
100
AcDbLine
 10
-20.5283743388
 20
-29.7231405989
 30
0.0
 11
-29.9461337236
 21
-3.6247653542
 31
0.0
  0
LINE
  5
171
330
1F
100
AcDbEntity
  8
0
  6
Continuous
 62
     7
370
    15
100
AcDbLine
 10
-42.1029221286
 20
-6.3922076151
 30
0.0
 11
-29.9461337236
 21
-3.6247653542
 31
0.0
  0
LINE
  5
172
330
1F
100
AcDbEntity
  8
0
  6
Continuous
 62
     7
370
    15
100
AcDbLine
 10
-45.2571147442
 20
2.3486509176
 30
0.0
 11
-42.1029221286
 21
-6.3922076151
 31
0.0
  0
LINE
  5
173
330
1F
100
AcDbEntity
  8
0
  6
Continuous
 62
     7
370
    15
100
AcDbLine
 10
-45.0573860692
 20
2.3943410616
 30
0.0
 11
-45.2571147442
 21
2.3486509176
 31
0.0
  0
LINE
  5
174
330
1F
100
AcDbEntity
  8
0
  6
Continuous
 62
     7
370
    15
100
AcDbLine
 10
-52.3429770335
 20
22.5131180983
 30
0.0
 11
-45.0573860692
 21
2.3943410616
 31
0.0
  0
LINE
  5
175
330
1F
100
AcDbEntity
  8
0
  6
Continuous
 62
     7
370
    15
100
AcDbLine
 10
-50.0368667506
 20
23.0380945018
 30
0.0
 11
-52.3429770335
 21
22.5131180983
 31
0.0
  0
LINE
  5
176
330
1F
100
AcDbEntity
  8
0
  6
Continuous
 62
     7
370
    15
100
AcDbLine
 10
-42.1410336932
 20
1.1572621743
 30
0.0
 11
-50.0368667506
 21
23.0380945018
 31
0.0
  0
LINE
  5
177
330
1F
100
AcDbEntity
  8
0
  6
Continuous
 62
     7
370
    15
100
AcDbLine
 10
-3.4329576244
 20
9.9689945155
 30
0.0
 11
-42.1410336932
 21
1.1572621743
 31
0.0
  0
LINE
  5
178
330
1F
100
AcDbEntity
  8
0
  6
Continuous
 62
     7
370
    15
100
AcDbLine
 10
-0.9125954123
 20
2.9845987502
 30
0.0
 11
-3.4329576244
 21
9.9689945155
 31
0.0
  0
LINE
  5
179
330
1F
100
AcDbEntity
  8
0
  6
Continuous
 62
     7
370
    15
100
AcDbLine
 10
-26.7423563809
 20
-2.8954387822
 30
0.0
 11
-0.9125954123
 21
2.9845987502
 31
0.0
  0
LINE
  5
17A
330
1F
100
AcDbEntity
  8
0
  6
Continuous
 62
     7
370
    15
100
AcDbLine
 10
-26.7423563809
 20
-2.8954387822
 30
0.0
 11
-16.2884289435
 21
-31.8652297797
 31
0.0
  0
LINE
  5
17B
330
1F
100
AcDbEntity
  8
0
  6
Continuous
 62
     7
370
    15
100
AcDbLine
 10
-16.2884289435
 20
-31.8652297797
 30
0.0
 11
-53.5241968847
 21
-40.3417973061
 31
0.0
  0
LINE
  5
17C
330
1F
100
AcDbEntity
  8
0
  6
Continuous
 62
     7
370
    15
100
AcDbLine
 10
-53.5241968847
 20
-40.3417973061
 30
0.0
 11
-51.8030961723
 21
-45.1112897502
 31
0.0
  0
LINE
  5
17D
330
1F
100
AcDbEntity
  8
0
  6
Continuous
 62
     7
370
    15
100
AcDbLine
 10
-120.5878774326
 20
-4.612486732
 30
0.0
 11
-108.3011116483
 21
-38.6614160878
 31
0.0
  0
LINE
  5
17E
330
1F
100
AcDbEntity
  8
0
  6
Continuous
 62
     7
370
    15
100
AcDbLine
 10
-117.216928634
 20
-3.8451042743
 30
0.0
 11
-120.5878774326
 21
-4.612486732
 31
0.0
  0
LINE
  5
17F
330
1F
100
AcDbEntity
  8
0
  6
Continuous
 62
     7
370
    15
100
AcDbLine
 10
-112.3371790859
 20
-7.2588912983
 30
0.0
 11
-117.216928634
 21
-3.8451042743
 31
0.0
  0
LINE
  5
180
330
1F
100
AcDbEntity
  8
0
  6
Continuous
 62
     7
370
    15
100
AcDbLine
 10
-112.3371790859
 20
-7.2588912983
 30
0.0
 11
-102.44728063
 21
-34.6656523426
 31
0.0
  0
LINE
  5
181
330
1F
100
AcDbEntity
  8
0
  6
Continuous
 62
     7
370
    15
100
AcDbLine
 10
-105.3042001795
 20
-37.9791816707
 30
0.0
 11
-102.44728063
 21
-34.6656523426
 31
0.0
  0
LINE
  5
182
330
1F
100
AcDbEntity
  8
0
  6
Continuous
 62
     7
370
    15
100
AcDbLine
 10
-106.3487853015
 20
-109.2379310159
 30
0.0
 11
-105.3042001795
 21
-37.9791816707
 31
0.0
  0
LINE
  5
183
330
1F
100
AcDbEntity
  8
0
  6
Continuous
 62
     7
370
    15
100
AcDbLine
 10
-101.9178843291
 20
-121.5167875385
 30
0.0
 11
-106.3487853015
 21
-109.2379310159
 31
0.0
  0
LINE
  5
184
330
1F
100
AcDbEntity
  8
0
  6
Continuous
 62
     7
370
    15
100
AcDbLine
 10
-82.4783175972
 20
-117.091451116
 30
0.0
 11
-101.9178843291
 21
-121.5167875385
 31
0.0
  0
LINE
  5
185
330
1F
100
AcDbEntity
  8
0
  6
Continuous
 62
     7
370
    15
100
AcDbLine
 10
-77.7085773092
 20
-110.3331418602
 30
0.0
 11
-82.4783175972
 21
-117.091451116
 31
0.0
  0
LINE
  5
186
330
1F
100
AcDbEntity
  8
0
  6
Continuous
 62
     7
370
    15
100
AcDbLine
 10
-59.3965914585
 20
-106.1644945302
 30
0.0
 11
-77.7085773092
 21
-110.3331418602
 31
0.0
  0
LINE
  5
187
330
1F
100
AcDbEntity
  8
0
  6
Continuous
 62
     7
370
    15
100
AcDbLine
 10
-108.3011116483
 20
-38.6614160878
 30
0.0
 11
-109.8798630595
 21
-42.6122029807
 31
0.0
  0
LINE
  5
188
330
1F
100
AcDbEntity
  8
0
  6
Continuous
 62
     7
370
    15
100
AcDbLine
 10
-48.3502371206
 20
-113.8956069454
 30
0.0
 11
-49.4027380614
 21
-116.5294648739
 31
0.0
  0
LINE
  5
189
330
1F
100
AcDbEntity
  8
0
  6
Continuous
 62
     7
370
    15
100
AcDbLine
 10
-49.4019952506
 20
-116.5292957762
 30
0.0
 11
-49.5774120741
 21
-116.9682720976
 31
0.0
  0
LINE
  5
18A
330
1F
100
AcDbEntity
  8
0
  6
Continuous
 62
     7
370
    15
100
AcDbLine
 10
-49.5774120741
 20
-116.9682720976
 30
0.0
 11
-104.815491305
 21
-129.5429908296
 31
0.0
  0
LINE
  5
18B
330
1F
100
AcDbEntity
  8
0
  6
Continuous
 62
     7
370
    15
100
AcDbLine
 10
-104.815491305
 20
-129.5429908296
 30
0.0
 11
-104.6400744816
 21
-129.1040145082
 31
0.0
  0
LINE
  5
18C
330
1F
100
AcDbEntity
  8
0
  6
Continuous
 62
     7
370
    15
100
AcDbLine
 10
-107.1991503684
 20
-127.5636808515
 30
0.0
 11
-107.7254008388
 21
-128.8806098158
 31
0.0
  0
LINE
  5
18D
330
1F
100
AcDbEntity
  8
0
  6
Continuous
 62
     7
370
    15
100
AcDbLine
 10
-76.1519520703
 20
-105.1949618217
 30
0.0
 11
-70.983238379
 21
-91.5905723342
 31
0.0
  0
LINE
  5
18E
330
1F
100
AcDbEntity
  8
0
  6
Continuous
 62
     7
370
    15
100
AcDbLine
 10
-64.068967551
 20
-107.2281414925
 30
0.0
 11
-74.0114457389
 21
-107.7069366242
 31
0.0
  0
LINE
  5
18F
330
1F
100
AcDbEntity
  8
0
  6
Continuous
 62
     7
370
    15
100
AcDbLine
 10
-98.5940687388
 20
-116.9631410557
 30
0.0
 11
-99.2667568734
 21
-113.0685325284
 31
0.0
  0
LINE
  5
190
330
1F
100
AcDbEntity
  8
0
  6
Continuous
 62
     7
370
    15
100
AcDbLine
 10
-101.9497216603
 20
-88.2595293522
 30
0.0
 11
-99.7824467174
 21
-45.2702766271
 31
0.0
  0
LINE
  5
191
330
1F
100
AcDbEntity
  8
0
  6
Continuous
 62
     7
370
    15
100
AcDbLine
 10
-105.3207078121
 20
-39.1052873666
 30
0.0
 11
-103.2717397003
 21
-36.7288410534
 31
0.0
  0
LINE
  5
192
330
1F
100
AcDbEntity
  8
0
  6
Continuous
 62
     7
370
    15
100
AcDbLine
 10
-102.3836731212
 20
-39.1898398829
 30
0.0
 11
-103.2717397003
 21
-36.7288410534
 31
0.0
  0
LINE
  5
193
330
1F
100
AcDbEntity
  8
0
  6
Continuous
 62
     7
370
    15
100
AcDbLine
 10
-102.3836731212
 20
-39.1898398829
 30
0.0
 11
-102.0075105308
 21
-39.1042080355
 31
0.0
  0
LINE
  5
194
330
1F
100
AcDbEntity
  8
0
  6
Continuous
 62
     7
370
    15
100
AcDbLine
 10
-102.0075105308
 20
-39.1042080355
 30
0.0
 11
-103.0698352737
 21
-36.2235801511
 31
0.0
  0
LINE
  5
195
330
1F
100
AcDbEntity
  8
0
  6
Continuous
 62
     7
370
    15
100
AcDbLine
 10
-112.7248577712
 20
-6.9876781034
 30
0.0
 11
-109.3124600106
 21
-8.109654545
 31
0.0
  0
LINE
  5
196
330
1F
100
AcDbEntity
  8
0
  6
Continuous
 62
     7
370
    15
100
AcDbLine
 10
-109.3124600106
 20
-8.109654545
 30
0.0
 11
-104.5485363946
 21
7.304975504
 31
0.0
  0
LINE
  5
197
330
1F
100
AcDbEntity
  8
0
  6
Continuous
 62
     7
370
    15
100
AcDbLine
 10
-104.5485363946
 20
7.304975504
 30
0.0
 11
-110.2451528761
 21
9.1779897119
 31
0.0
  0
LINE
  5
198
330
1F
100
AcDbEntity
  8
0
  6
Continuous
 62
     7
370
    15
100
AcDbLine
 10
-110.2451528761
 20
9.1779897119
 30
0.0
 11
-106.094950203
 21
22.6068025963
 31
0.0
  0
LINE
  5
199
330
1F
100
AcDbEntity
  8
0
  6
Continuous
 62
     7
370
    15
100
AcDbLine
 10
-106.094950203
 20
22.6068025963
 30
0.0
 11
-68.1798926346
 21
31.2380075779
 31
0.0
  0
LINE
  5
19A
330
1F
100
AcDbEntity
  8
0
  6
Continuous
 62
     7
370
    15
100
AcDbLine
 10
-68.1798926346
 20
31.2380075779
 30
0.0
 11
-56.1379967685
 21
-2.0150557923
 31
0.0
  0
LINE
  5
19B
330
1F
100
AcDbEntity
  8
0
  6
Continuous
 62
     7
370
    15
100
AcDbLine
 10
-56.1379967685
 20
-2.0150557923
 30
0.0
 11
-77.2802834032
 21
-6.8280093107
 31
0.0
  0
LINE
  5
19C
330
1F
100
AcDbEntity
  8
0
  6
Continuous
 62
     7
370
    15
100
AcDbLine
 10
-77.2802834032
 20
-6.8280093107
 30
0.0
 11
-68.4019537312
 21
-31.4315237833
 31
0.0
  0
LINE
  5
19D
330
1F
100
AcDbEntity
  8
0
  6
Continuous
 62
     7
370
    15
100
AcDbLine
 10
-76.2987470255
 20
-35.1046999317
 30
0.0
 11
-74.8284760362
 21
-39.1790962316
 31
0.0
  0
LINE
  5
19E
330
1F
100
AcDbEntity
  8
0
  6
Continuous
 62
     7
370
    15
100
AcDbLine
 10
-74.8284760362
 20
-39.1790962316
 30
0.0
 11
-72.9257295195
 21
-41.2406921007
 31
0.0
  0
LINE
  5
19F
330
1F
100
AcDbEntity
  8
0
  6
Continuous
 62
     7
370
    15
100
AcDbLine
 10
-72.0669290763
 20
-38.5504415649
 30
0.0
 11
-61.6937685975
 21
-36.1890347745
 31
0.0
  0
LINE
  5
1A0
330
1F
100
AcDbEntity
  8
0
  6
Continuous
 62
     7
370
    15
100
AcDbLine
 10
-61.6937685975
 20
-36.1890347745
 30
0.0
 11
-60.0275803168
 21
-45.3872675471
 31
0.0
  0
LINE
  5
1A1
330
1F
100
AcDbEntity
  8
0
  6
Continuous
 62
     7
370
    15
100
AcDbLine
 10
-60.0275803168
 20
-45.3872675471
 30
0.0
 11
-60.3756138109
 21
-53.4763980817
 31
0.0
  0
LINE
  5
1A2
330
1F
100
AcDbEntity
  8
0
  6
Continuous
 62
     7
370
    15
100
AcDbLine
 10
-68.0129707474
 20
-67.0142724087
 30
0.0
 11
-69.506800557
 21
-82.4951306496
 31
0.0
  0
LINE
  5
1A3
330
1F
100
AcDbEntity
  8
0
  6
Continuous
 62
     7
370
    15
100
AcDbLine
 10
-69.506800557
 20
-82.4951306496
 30
0.0
 11
-67.2218715754
 21
-88.8270968353
 31
0.0
  0
LINE
  5
1A4
330
1F
100
AcDbEntity
  8
0
  6
Continuous
 62
     7
370
    15
100
AcDbLine
 10
-60.9348541887
 20
-106.5146736356
 30
0.0
 11
-61.2301632936
 21
-105.8059810892
 31
0.0
  0
LINE
  5
1A5
330
1F
100
AcDbEntity
  8
0
  6
Continuous
 62
     7
370
    15
100
AcDbLine
 10
-89.6772302436
 20
-55.1654304915
 30
0.0
 11
-90.729738463
 21
-44.2591838846
 31
0.0
  0
LINE
  5
1A6
330
1F
100
AcDbEntity
  8
0
  6
Continuous
 62
     7
370
    15
100
AcDbLine
 10
-77.9300098507
 20
-41.3453789626
 30
0.0
 11
-85.9365598254
 21
-56.0715226647
 31
0.0
  0
LINE
  5
1A7
330
1F
100
AcDbEntity
  8
0
  6
Continuous
 62
     7
370
    15
100
AcDbLine
 10
-90.1067642133
 20
-38.8689984188
 30
0.0
 11
-90.2098517542
 21
-39.2873585675
 31
0.0
  0
LINE
  5
1A8
330
1F
100
AcDbEntity
  8
0
  6
Continuous
 62
     7
370
    15
100
AcDbLine
 10
-90.729738463
 20
-44.2591838846
 30
0.0
 11
-90.2098517542
 21
-39.2873585675
 31
0.0
  0
LINE
  5
1A9
330
1F
100
AcDbEntity
  8
0
  6
Continuous
 62
     7
370
    15
100
AcDbLine
 10
-107.748897665
 20
-128.7743854894
 30
0.0
 11
-107.7254008388
 21
-128.8806098158
 31
0.0
  0
LINE
  5
1AA
330
1F
100
AcDbEntity
  8
0
  6
Continuous
 62
     7
370
    15
100
AcDbLine
 10
-107.748897665
 20
-128.7743854894
 30
0.0
 11
-107.2226471946
 21
-127.4574565251
 31
0.0
  0
LINE
  5
1AB
330
1F
100
AcDbEntity
  8
0
  6
Continuous
 62
     7
370
    15
100
AcDbLine
 10
-108.6633611322
 20
-124.3653856559
 30
0.0
 11
-107.748897665
 21
-128.7743854894
 31
0.0
  0
LINE
  5
1AC
330
1F
100
AcDbEntity
  8
0
  6
Continuous
 62
     7
370
    15
100
AcDbLine
 10
-108.6633611322
 20
-124.3653856559
 30
0.0
 11
-108.1371110782
 21
-123.048454589
 31
0.0
  0
LINE
  5
1AD
330
1F
100
AcDbEntity
  8
0
  6
Continuous
 62
     7
370
    15
100
AcDbLine
 10
-109.4231455333
 20
-120.3571624576
 30
0.0
 11
-108.6633611322
 21
-124.3653856559
 31
0.0
  0
LINE
  5
1AE
330
1F
100
AcDbEntity
  8
0
  6
Continuous
 62
     7
370
    15
100
AcDbLine
 10
-109.4231455333
 20
-120.3571624576
 30
0.0
 11
-108.896895145
 21
-119.0402330394
 31
0.0
  0
LINE
  5
1AF
330
1F
100
AcDbEntity
  8
0
  6
Continuous
 62
     7
370
    15
100
AcDbLine
 10
-110.0479279362
 20
-116.752257494
 30
0.0
 11
-109.5216774658
 21
-115.4353285297
 31
0.0
  0
LINE
  5
1B0
330
1F
100
AcDbEntity
  8
0
  6
Continuous
 62
     7
370
    15
100
AcDbLine
 10
-110.0479279362
 20
-116.752257494
 30
0.0
 11
-109.4231455333
 21
-120.3571624576
 31
0.0
  0
LINE
  5
1B1
330
1F
100
AcDbEntity
  8
0
  6
Continuous
 62
     7
370
    15
100
AcDbLine
 10
-110.424362869
 20
-114.407741544
 30
0.0
 11
-109.8981123985
 21
-113.0908125798
 31
0.0
  0
LINE
  5
1B2
330
1F
100
AcDbEntity
  8
0
  6
Continuous
 62
     7
370
    15
100
AcDbLine
 10
-110.424362869
 20
-114.407741544
 30
0.0
 11
-110.0479279362
 21
-116.752257494
 31
0.0
  0
LINE
  5
1B3
330
1F
100
AcDbEntity
  8
0
  6
Continuous
 62
     7
370
    15
100
AcDbLine
 10
-111.0022940273
 20
-110.4773468395
 30
0.0
 11
-110.4760435569
 21
-109.1604178752
 31
0.0
  0
LINE
  5
1B4
330
1F
100
AcDbEntity
  8
0
  6
Continuous
 62
     7
370
    15
100
AcDbLine
 10
-111.0022940273
 20
-110.4773468395
 30
0.0
 11
-110.424362869
 21
-114.407741544
 31
0.0
  0
LINE
  5
1B5
330
1F
100
AcDbEntity
  8
0
  6
Continuous
 62
     7
370
    15
100
AcDbLine
 10
-66.4264907846
 20
-89.8201543234
 30
0.0
 11
-60.929455793
 21
-105.0534679049
 31
0.0
  0
LINE
  5
1B6
330
1F
100
AcDbEntity
  8
0
  6
Continuous
 62
     7
370
    15
100
AcDbLine
 10
-60.929455793
 20
-105.0534679049
 30
0.0
 11
-73.1869866686
 21
-105.6437479134
 31
0.0
  0
LINE
  5
1B7
330
1F
100
AcDbEntity
  8
0
  6
Continuous
 62
     7
370
    15
100
AcDbLine
 10
-75.3274929999
 20
-103.131773111
 30
0.0
 11
-70.1587793087
 21
-89.5273836235
 31
0.0
  0
LINE
  5
1B8
330
1F
100
AcDbEntity
  8
0
  6
Continuous
 62
     7
370
    15
100
AcDbLine
 10
-74.0114457389
 20
-107.7069366242
 30
0.0
 11
-73.1869866686
 21
-105.6437479134
 31
0.0
  0
LINE
  5
1B9
330
1F
100
AcDbEntity
  8
0
  6
Continuous
 62
     7
370
    15
100
AcDbLine
 10
-60.929455793
 20
-105.0534679049
 30
0.0
 11
-61.5712518643
 21
-106.6595469166
 31
0.0
  0
LINE
  5
1BA
330
1F
100
AcDbEntity
  8
0
  6
Continuous
 62
     7
370
    15
100
AcDbLine
 10
-75.3274929999
 20
-103.131773111
 30
0.0
 11
-76.1519520703
 21
-105.1949618217
 31
0.0
  0
LINE
  5
1BB
330
1F
100
AcDbEntity
  8
0
  6
Continuous
 62
     7
370
    15
100
AcDbLine
 10
-111.3484368742
 20
-107.8728335532
 30
0.0
 11
-110.8221864038
 21
-106.5559045889
 31
0.0
  0
LINE
  5
1BC
330
1F
100
AcDbEntity
  8
0
  6
Continuous
 62
     7
370
    15
100
AcDbLine
 10
-111.3484368742
 20
-107.8728335532
 30
0.0
 11
-111.0022940273
 21
-110.4773468395
 31
0.0
  0
LINE
  5
1BD
330
1F
100
AcDbEntity
  8
0
  6
Continuous
 62
     7
370
    15
100
AcDbLine
 10
-70.983238379
 20
-91.5905723342
 30
0.0
 11
-70.1587793087
 21
-89.5273836235
 31
0.0
  0
LINE
  5
1BE
330
1F
100
AcDbEntity
  8
0
  6
Continuous
 62
     7
370
    15
100
AcDbLine
 10
-51.8030961723
 20
-45.1112897502
 30
0.0
 11
-53.3818475835
 21
-49.0620766431
 31
0.0
  0
LINE
  5
1BF
330
1F
100
AcDbEntity
  8
0
  6
Continuous
 62
     7
370
    15
100
AcDbLine
 10
-53.7453049457
 20
-49.8389564284
 30
0.0
 11
-53.3956485767
 21
-49.0427722683
 31
0.0
  0
LINE
  5
1C0
330
1F
100
AcDbEntity
  8
0
  6
Continuous
 62
     7
370
    15
100
AcDbLine
 10
-111.9146507069
 20
-103.0198363519
 30
0.0
 11
-111.3884003042
 21
-101.7029067488
 31
0.0
  0
LINE
  5
1C1
330
1F
100
AcDbEntity
  8
0
  6
Continuous
 62
     7
370
    15
100
AcDbLine
 10
-111.9146507069
 20
-103.0198363519
 30
0.0
 11
-111.3484368742
 21
-107.8728335532
 31
0.0
  0
LINE
  5
1C2
330
1F
100
AcDbEntity
  8
0
  6
Continuous
 62
     7
370
    15
100
AcDbLine
 10
-67.8679715126
 20
-65.4298691535
 30
0.0
 11
-67.0435124423
 21
-63.3666804428
 31
0.0
  0
LINE
  5
1C3
330
1F
100
AcDbEntity
  8
0
  6
Continuous
 62
     7
370
    15
100
AcDbLine
 10
-112.3785775744
 20
-98.156875572
 30
0.0
 11
-111.8523271446
 21
-96.8399461268
 31
0.0
  0
LINE
  5
1C4
330
1F
100
AcDbEntity
  8
0
  6
Continuous
 62
     7
370
    15
100
AcDbLine
 10
-112.3785775744
 20
-98.156875572
 30
0.0
 11
-111.9146507069
 21
-103.0198363519
 31
0.0
  0
LINE
  5
1C5
330
1F
100
AcDbEntity
  8
0
  6
Continuous
 62
     7
370
    15
100
AcDbLine
 10
-112.7913334719
 20
-92.4261763446
 30
0.0
 11
-112.2650830014
 21
-91.1092473803
 31
0.0
  0
LINE
  5
1C6
330
1F
100
AcDbEntity
  8
0
  6
Continuous
 62
     7
370
    15
100
AcDbLine
 10
-112.7913334719
 20
-92.4261763446
 30
0.0
 11
-112.3785775744
 21
-98.156875572
 31
0.0
  0
LINE
  5
1C7
330
1F
100
AcDbEntity
  8
0
  6
Continuous
 62
     7
370
    15
100
AcDbLine
 10
-102.1354687134
 20
-81.9102023383
 30
0.0
 11
-100.5894519811
 21
-51.2439945351
 31
0.0
  0
LINE
  5
1C8
330
1F
100
AcDbEntity
  8
0
  6
Continuous
 62
     7
370
    15
100
AcDbLine
 10
-112.9562766702
 20
-89.2714113589
 30
0.0
 11
-112.4300261998
 21
-87.9544823946
 31
0.0
  0
LINE
  5
1C9
330
1F
100
AcDbEntity
  8
0
  6
Continuous
 62
     7
370
    15
100
AcDbLine
 10
-112.9562766702
 20
-89.2714113589
 30
0.0
 11
-112.7913334719
 21
-92.4261763446
 31
0.0
  0
LINE
  5
1CA
330
1F
100
AcDbEntity
  8
0
  6
Continuous
 62
     7
370
    15
100
AcDbLine
 10
-113.0765680636
 20
-86.121705117
 30
0.0
 11
-112.5503175931
 21
-84.8047761527
 31
0.0
  0
LINE
  5
1CB
330
1F
100
AcDbEntity
  8
0
  6
Continuous
 62
     7
370
    15
100
AcDbLine
 10
-113.0765680636
 20
-86.121705117
 30
0.0
 11
-112.9562766702
 21
-89.2714113589
 31
0.0
  0
LINE
  5
1CC
330
1F
100
AcDbEntity
  8
0
  6
Continuous
 62
     7
370
    15
100
AcDbLine
 10
-113.1789159697
 20
-80.7318877473
 30
0.0
 11
-112.6526654993
 21
-79.4149587831
 31
0.0
  0
LINE
  5
1CD
330
1F
100
AcDbEntity
  8
0
  6
Continuous
 62
     7
370
    15
100
AcDbLine
 10
-113.1789159697
 20
-80.7318877473
 30
0.0
 11
-113.0765680636
 21
-86.121705117
 31
0.0
  0
LINE
  5
1CE
330
1F
100
AcDbEntity
  8
0
  6
Continuous
 62
     7
370
    15
100
AcDbLine
 10
-113.1786864518
 20
-77.6931725891
 30
0.0
 11
-112.6524359814
 21
-76.3762436249
 31
0.0
  0
LINE
  5
1CF
330
1F
100
AcDbEntity
  8
0
  6
Continuous
 62
     7
370
    15
100
AcDbLine
 10
-113.1786864518
 20
-77.6931725891
 30
0.0
 11
-113.1789159697
 21
-80.7318877473
 31
0.0
  0
LINE
  5
1D0
330
1F
100
AcDbEntity
  8
0
  6
Continuous
 62
     7
370
    15
100
AcDbLine
 10
-113.0836951273
 20
-72.5909270165
 30
0.0
 11
-112.557444656
 21
-71.2739980244
 31
0.0
  0
LINE
  5
1D1
330
1F
100
AcDbEntity
  8
0
  6
Continuous
 62
     7
370
    15
100
AcDbLine
 10
-113.0836951273
 20
-72.5909270165
 30
0.0
 11
-113.1786864518
 21
-77.6931725891
 31
0.0
  0
LINE
  5
1D2
330
1F
100
AcDbEntity
  8
0
  6
Continuous
 62
     7
370
    15
100
AcDbLine
 10
-112.5854260665
 20
-63.0563788714
 30
0.0
 11
-112.0591755625
 21
-61.7394494561
 31
0.0
  0
LINE
  5
1D3
330
1F
100
AcDbEntity
  8
0
  6
Continuous
 62
     7
370
    15
100
AcDbLine
 10
-112.5854260665
 20
-63.0563788714
 30
0.0
 11
-113.0836951273
 21
-72.5909270165
 31
0.0
  0
LINE
  5
1D4
330
1F
100
AcDbEntity
  8
0
  6
Continuous
 62
     7
370
    15
100
AcDbLine
 10
-85.9365598254
 20
-56.0715226647
 30
0.0
 11
-85.1121007551
 21
-54.008333954
 31
0.0
  0
LINE
  5
1D5
330
1F
100
AcDbEntity
  8
0
  6
Continuous
 62
     7
370
    15
100
AcDbLine
 10
-88.8527711733
 20
-53.1022417808
 30
0.0
 11
-89.6772302436
 21
-55.1654304915
 31
0.0
  0
LINE
  5
1D6
330
1F
100
AcDbEntity
  8
0
  6
Continuous
 62
     7
370
    15
100
AcDbLine
 10
-88.8527711733
 20
-53.1022417808
 30
0.0
 11
-89.9052793927
 21
-42.1959951739
 31
0.0
  0
LINE
  5
1D7
330
1F
100
AcDbEntity
  8
0
  6
Continuous
 62
     7
370
    15
100
AcDbLine
 10
-89.9052793927
 20
-42.1959951739
 30
0.0
 11
-89.3853926839
 21
-37.2241698568
 31
0.0
  0
LINE
  5
1D8
330
1F
100
AcDbEntity
  8
0
  6
Continuous
 62
     7
370
    15
100
AcDbLine
 10
-86.0426875417
 20
-36.3830286187
 30
0.0
 11
-77.1055507804
 21
-39.2821902518
 31
0.0
  0
LINE
  5
1D9
330
1F
100
AcDbEntity
  8
0
  6
Continuous
 62
     7
370
    15
100
AcDbLine
 10
-77.1055507804
 20
-39.2821902518
 30
0.0
 11
-85.1121007551
 21
-54.008333954
 31
0.0
  0
LINE
  5
1DA
330
1F
100
AcDbEntity
  8
0
  6
Continuous
 62
     7
370
    15
100
AcDbLine
 10
-89.9052793927
 20
-42.1959951739
 30
0.0
 11
-90.729738463
 21
-44.2591838846
 31
0.0
  0
LINE
  5
1DB
330
1F
100
AcDbEntity
  8
0
  6
Continuous
 62
     7
370
    15
100
AcDbLine
 10
-112.1376283626
 20
-57.8753760636
 30
0.0
 11
-111.611377891
 21
-56.5584470879
 31
0.0
  0
LINE
  5
1DC
330
1F
100
AcDbEntity
  8
0
  6
Continuous
 62
     7
370
    15
100
AcDbLine
 10
-112.1376283626
 20
-57.8753760636
 30
0.0
 11
-112.5854260665
 21
-63.0563788714
 31
0.0
  0
LINE
  5
1DD
330
1F
100
AcDbEntity
  8
0
  6
Continuous
 62
     7
370
    15
100
AcDbLine
 10
-77.1055507804
 20
-39.2821902518
 30
0.0
 11
-77.9300098507
 21
-41.3453789626
 31
0.0
  0
LINE
  5
1DE
330
1F
100
AcDbEntity
  8
0
  6
Continuous
 62
     7
370
    15
100
AcDbLine
 10
-110.0802183998
 20
-42.3550003046
 30
0.0
 11
-112.1376283626
 21
-57.8753760636
 31
0.0
  0
LINE
  5
1DF
330
1F
100
AcDbEntity
  8
0
  6
Continuous
 62
     7
370
    15
100
AcDbLine
 10
-109.8798630595
 20
-42.6122029807
 30
0.0
 11
-122.1666288439
 21
-8.5632736249
 31
0.0
  0
LINE
  5
1E0
330
1F
100
AcDbEntity
  8
0
  6
Continuous
 62
     7
370
    15
100
AcDbLine
 10
-120.5878774326
 20
-4.612486732
 30
0.0
 11
-122.1666288439
 21
-8.5632736249
 31
0.0
  0
LINE
  5
1E1
330
1F
100
AcDbEntity
  8
0
  6
Continuous
 62
     7
370
    15
100
AcDbLine
 10
-103.2717397003
 20
-36.7288410534
 30
0.0
 11
-102.44728063
 21
-34.6656523426
 31
0.0
  0
LINE
  5
1E2
330
1F
100
AcDbEntity
  8
0
  6
Continuous
 62
     7
370
    15
100
AcDbLine
 10
-90.2098517542
 20
-39.2873585675
 30
0.0
 11
-89.3853926839
 21
-37.2241698568
 31
0.0
  0
LINE
  5
1E3
330
1F
100
AcDbEntity
  8
0
  6
Continuous
 62
     7
370
    15
100
AcDbLine
 10
-60.0275803168
 20
-45.3872675471
 30
0.0
 11
-59.2031212465
 21
-43.3240788364
 31
0.0
  0
LINE
  5
1E4
330
1F
100
AcDbEntity
  8
0
  6
Continuous
 62
     7
370
    15
100
AcDbLine
 10
-74.0040169658
 20
-37.1159075209
 30
0.0
 11
-74.8284760362
 21
-39.1790962316
 31
0.0
  0
LINE
  5
1E5
330
1F
100
AcDbEntity
  8
0
  6
Continuous
 62
     7
370
    15
100
AcDbLine
 10
-72.1012704492
 20
-39.1775033899
 30
0.0
 11
-72.9257295195
 21
-41.2406921007
 31
0.0
  0
LINE
  5
1E6
330
1F
100
AcDbEntity
  8
0
  6
Continuous
 62
     7
370
    15
100
AcDbLine
 10
-61.6937685975
 20
-36.1890347745
 30
0.0
 11
-60.8693095272
 21
-34.1258460638
 31
0.0
  0
LINE
  5
1E7
330
1F
100
AcDbEntity
  8
0
  6
Continuous
 62
     7
370
    15
100
AcDbLine
 10
-75.4742879551
 20
-33.041511221
 30
0.0
 11
-76.2987470255
 21
-35.1046999317
 31
0.0
  0
LINE
  5
1E8
330
1F
100
AcDbEntity
  8
0
  6
Continuous
 62
     7
370
    15
100
AcDbLine
 10
-16.9900962374
 20
-33.6211350654
 30
0.0
 11
-16.2884289435
 21
-31.8652297797
 31
0.0
  0
LINE
  5
1E9
330
1F
100
AcDbEntity
  8
0
  6
Continuous
 62
     7
370
    15
100
AcDbLine
 10
-16.9900962374
 20
-33.6211350654
 30
0.0
 11
-52.9919319759
 21
-41.8168030639
 31
0.0
  0
LINE
  5
1EA
330
1F
100
AcDbEntity
  8
0
  6
Continuous
 62
     7
370
    15
100
AcDbLine
 10
-67.0044660372
 20
-30.9563047198
 30
0.0
 11
-67.0735203511
 21
-31.1291114558
 31
0.0
  0
LINE
  5
1EB
330
1F
100
AcDbEntity
  8
0
  6
Continuous
 62
     7
370
    15
100
AcDbLine
 10
-53.7661004574
 20
-49.9698179382
 30
0.0
 11
-53.3956537031
 21
-49.0427836618
 31
0.0
  0
LINE
  5
1EC
330
1F
100
AcDbEntity
  8
0
  6
Continuous
 62
     7
370
    15
100
AcDbLine
 10
-56.4919069403
 20
-2.9007073635
 30
0.0
 11
-77.0118171843
 21
-7.5719794881
 31
0.0
  0
LINE
  5
1ED
330
1F
100
AcDbEntity
  8
0
  6
Continuous
 62
     7
370
    15
100
AcDbLine
 10
-56.4919069403
 20
-2.9007073635
 30
0.0
 11
-46.4354839864
 21
-0.6001893643
 31
0.0
  0
LINE
  5
1EE
330
1F
100
AcDbEntity
  8
0
  6
Continuous
 62
     7
370
    15
100
AcDbLine
 10
-46.4354839864
 20
-0.6001893643
 30
0.0
 11
-43.2812913707
 21
-9.3410478971
 31
0.0
  0
LINE
  5
1EF
330
1F
100
AcDbEntity
  8
0
  6
Continuous
 62
     7
370
    15
100
AcDbLine
 10
-65.1564935642
 20
-14.3208465906
 30
0.0
 11
-43.2812913707
 21
-9.3410478971
 31
0.0
  0
LINE
  5
1F0
330
1F
100
AcDbEntity
  8
0
  6
Continuous
 62
     7
370
    15
100
AcDbLine
 10
-65.1564935642
 20
-14.3208465906
 30
0.0
 11
-59.7494655204
 21
-29.3047340611
 31
0.0
  0
LINE
  5
1F1
330
1F
100
AcDbEntity
  8
0
  6
Continuous
 62
     7
370
    15
100
AcDbLine
 10
-109.3926417968
 20
-8.0832912423
 30
0.0
 11
-104.9383315975
 21
6.3295225177
 31
0.0
  0
LINE
  5
1F2
330
1F
100
AcDbEntity
  8
0
  6
Continuous
 62
     7
370
    15
100
AcDbLine
 10
-112.8050377036
 20
8.9160495122
 30
0.0
 11
-117.5179456914
 21
-3.913629554
 31
0.0
  0
LINE
  5
1F3
330
1F
100
AcDbEntity
  8
0
  6
Continuous
 62
     7
370
    15
100
AcDbLine
 10
-104.9383315975
 20
6.3295225177
 30
0.0
 11
-112.8050377036
 21
8.9160495122
 31
0.0
  0
LINE
  5
1F4
330
1F
100
AcDbEntity
  8
0
  6
Continuous
 62
     7
370
    15
100
AcDbLine
 10
-104.9383315975
 20
6.3295225177
 30
0.0
 11
-104.5485363946
 21
7.304975504
 31
0.0
  0
LINE
  5
1F5
330
1F
100
AcDbEntity
  8
0
  6
Continuous
 62
     7
370
    15
100
AcDbLine
 10
-117.5500568743
 20
-3.9209395311
 30
0.0
 11
-107.666595112
 21
22.9842414744
 31
0.0
  0
LINE
  5
1F6
330
1F
100
AcDbEntity
  8
0
  6
Continuous
 62
     7
370
    15
100
AcDbLine
 10
-107.666595112
 20
22.9842414744
 30
0.0
 11
-107.1403446416
 21
24.3011704387
 31
0.0
  0
LINE
  5
1F7
330
1F
100
AcDbEntity
  8
0
  6
Continuous
 62
     7
370
    15
100
AcDbLine
 10
-112.6432843712
 20
9.3208332806
 30
0.0
 11
-107.1403446416
 21
24.3011704387
 31
0.0
  0
LINE
  5
1F8
330
1F
100
AcDbEntity
  8
0
  6
Continuous
 62
     7
370
    15
100
AcDbLine
 10
-112.6432843712
 20
9.3208332806
 30
0.0
 11
-112.8050377036
 21
8.9160495122
 31
0.0
  0
LINE
  5
1F9
330
1F
100
AcDbEntity
  8
0
  6
Continuous
 62
     7
370
    15
100
AcDbLine
 10
-30.6478010175
 20
-5.3806706399
 30
0.0
 11
-29.9461337236
 21
-3.6247653542
 31
0.0
  0
LINE
  5
1FA
330
1F
100
AcDbEntity
  8
0
  6
Continuous
 62
     7
370
    15
100
AcDbLine
 10
-21.7623065414
 20
-30.0040401269
 30
0.0
 11
-30.6478010175
 21
-5.3806706399
 31
0.0
  0
LINE
  5
1FB
330
1F
100
AcDbEntity
  8
0
  6
Continuous
 62
     7
370
    15
100
AcDbLine
 10
-43.2812913707
 20
-9.3410478971
 30
0.0
 11
-42.1029221286
 21
-6.3922076151
 31
0.0
  0
LINE
  5
1FC
330
1F
100
AcDbEntity
  8
0
  6
Continuous
 62
     7
370
    15
100
AcDbLine
 10
-0.9125954123
 20
2.9845987502
 30
0.0
 11
-2.4913468235
 21
-0.9661881427
 31
0.0
  0
LINE
  5
1FD
330
1F
100
AcDbEntity
  8
0
  6
Continuous
 62
     7
370
    15
100
AcDbLine
 10
-110.2451528761
 20
9.1779897119
 30
0.0
 11
-110.4731947467
 21
8.6073204941
 31
0.0
  0
LINE
  5
1FE
330
1F
100
AcDbEntity
  8
0
  6
Continuous
 62
     7
370
    15
100
AcDbLine
 10
-112.6432843712
 20
9.3208332806
 30
0.0
 11
-110.4731947467
 21
8.6073204941
 31
0.0
  0
LINE
  5
1FF
330
1F
100
AcDbEntity
  8
0
  6
Continuous
 62
     7
370
    15
100
AcDbLine
 10
-56.1379967685
 20
-2.0150557923
 30
0.0
 11
-56.4919069403
 21
-2.9007073635
 31
0.0
  0
LINE
  5
200
330
1F
100
AcDbEntity
  8
0
  6
Continuous
 62
     7
370
    15
100
AcDbLine
 10
-106.3229920735
 20
22.0361333785
 30
0.0
 11
-110.4731947467
 21
8.6073204941
 31
0.0
  0
LINE
  5
201
330
1F
100
AcDbEntity
  8
0
  6
Continuous
 62
     7
370
    15
100
AcDbLine
 10
-105.7786523702
 20
23.3983302066
 30
0.0
 11
-106.3229920735
 21
22.0361333785
 31
0.0
  0
LINE
  5
202
330
1F
100
AcDbEntity
  8
0
  6
Continuous
 62
     7
370
    15
100
AcDbLine
 10
-103.4050416835
 20
25.0946531066
 30
0.0
 11
-103.6890220062
 21
25.8816157715
 31
0.0
  0
LINE
  5
203
330
1F
100
AcDbEntity
  8
0
  6
Continuous
 62
     7
370
    15
100
AcDbLine
 10
-55.0578900306
 20
36.9522904714
 30
0.0
 11
-103.6890220062
 21
25.8816157715
 31
0.0
  0
LINE
  5
204
330
1F
100
AcDbEntity
  8
0
  6
Continuous
 62
     7
370
    15
100
AcDbLine
 10
-51.6118539207
 20
27.4026789526
 30
0.0
 11
-55.0578900306
 21
36.9522904714
 31
0.0
  0
LINE
  5
205
330
1F
100
AcDbEntity
  8
0
  6
Continuous
 62
     7
370
    15
100
AcDbLine
 10
-53.9230962112
 20
26.8765342689
 30
0.0
 11
-51.6118539207
 21
27.4026789526
 31
0.0
  0
LINE
  5
206
330
1F
100
AcDbEntity
  8
0
  6
Continuous
 62
     7
370
    15
100
AcDbLine
 10
-57.0992819352
 20
35.6474044318
 30
0.0
 11
-53.9230962112
 21
26.8765342689
 31
0.0
  0
LINE
  5
207
330
1F
100
AcDbEntity
  8
0
  6
Continuous
 62
     7
370
    15
100
AcDbLine
 10
-57.0992819352
 20
35.6474044318
 30
0.0
 11
-67.3554335642
 21
33.3011962886
 31
0.0
  0
LINE
  5
208
330
1F
100
AcDbEntity
  8
0
  6
Continuous
 62
     7
370
    15
100
AcDbLine
 10
-103.4050416835
 20
25.0946531066
 30
0.0
 11
-67.3554335642
 21
33.3011962886
 31
0.0
  0
LINE
  5
209
330
1F
100
AcDbEntity
  8
0
  6
Continuous
 62
     7
370
    15
100
AcDbLine
 10
-46.4354839864
 20
-0.6001893643
 30
0.0
 11
-45.2571147442
 21
2.3486509176
 31
0.0
  0
LINE
  5
20A
330
1F
100
AcDbEntity
  8
0
  6
Continuous
 62
     7
370
    15
100
AcDbLine
 10
-107.1403446416
 20
24.3011704387
 30
0.0
 11
-106.3229920735
 21
22.0361333785
 31
0.0
  0
LINE
  5
20B
330
1F
100
AcDbEntity
  8
0
  6
Continuous
 62
     7
370
    15
100
AcDbLine
 10
-103.9132029211
 20
23.8229920062
 30
0.0
 11
-105.7786523702
 21
23.3983302066
 31
0.0
  0
LINE
  5
20C
330
1F
100
AcDbEntity
  8
0
  6
Continuous
 62
     7
370
    15
100
AcDbLine
 10
-103.9132029211
 20
23.8229920062
 30
0.0
 11
-103.4050416835
 21
25.0946531066
 31
0.0
  0
LINE
  5
20D
330
1F
100
AcDbEntity
  8
0
  6
Continuous
 62
     7
370
    15
100
AcDbLine
 10
-67.3554335642
 20
33.3011962886
 30
0.0
 11
-68.1798926346
 21
31.2380075779
 31
0.0
  0
LINE
  5
20E
330
1F
100
AcDbEntity
  8
0
  6
Continuous
 62
     7
370
    15
100
AcDbLine
 10
-106.8705397253
 20
34.6981972839
 30
0.0
 11
-107.5722070192
 21
32.9422919981
 31
0.0
  0
LINE
  5
20F
330
1F
100
AcDbEntity
  8
0
  6
Continuous
 62
     7
370
    15
100
AcDbLine
 10
-104.9492031123
 20
29.3738136541
 30
0.0
 11
-106.8705397253
 21
34.6981972839
 31
0.0
  0
LINE
  5
210
330
1F
100
AcDbEntity
  8
0
  6
Continuous
 62
     7
370
    15
100
AcDbLine
 10
-105.4775240159
 20
27.3331737827
 30
0.0
 11
-106.495251568
 21
29.9578467244
 31
0.0
  0
LINE
  5
211
330
1F
100
AcDbEntity
  8
0
  6
Continuous
 62
     7
370
    15
100
AcDbLine
 10
-106.495251568
 20
29.9578467244
 30
0.0
 11
-107.5722070192
 21
32.9422919981
 31
0.0
  0
LINE
  5
212
330
1F
100
AcDbEntity
  8
0
  6
Continuous
 62
     7
370
    15
100
AcDbLine
 10
-46.3476271165
 20
-0.3803296908
 30
0.0
 11
-58.303251587
 21
32.634499749
 31
0.0
  0
LINE
  5
213
330
1F
100
AcDbEntity
  8
0
  6
Continuous
 62
     7
370
    15
100
AcDbLine
 10
-58.303251587
 20
32.634499749
 30
0.0
 11
-57.0992819352
 21
35.6474044318
 31
0.0
  0
LINE
  5
214
330
1F
100
AcDbEntity
  8
0
  6
Continuous
 62
     7
370
    15
100
AcDbLine
 10
-104.9492031123
 20
29.3738136541
 30
0.0
 11
-56.3180711367
 21
40.444488354
 31
0.0
  0
LINE
  5
215
330
1F
100
AcDbEntity
  8
0
  6
Continuous
 62
     7
370
    15
100
AcDbLine
 10
-60.1048571988
 20
45.3442101842
 30
0.0
 11
-106.8705397253
 21
34.6981972839
 31
0.0
  0
LINE
  5
216
330
1F
100
AcDbEntity
  8
0
  6
Continuous
 62
     7
370
    15
100
AcDbLine
 10
-56.3180711367
 20
40.444488354
 30
0.0
 11
-57.6093171967
 21
44.0227730425
 31
0.0
  0
LINE
  5
217
330
1F
100
AcDbEntity
  8
0
  6
Continuous
 62
     7
370
    15
100
AcDbLine
 10
-105.4775240159
 20
27.3331737827
 30
0.0
 11
-107.342973465
 21
26.9085119831
 31
0.0
  0
LINE
  5
218
330
1F
100
AcDbEntity
  8
0
  6
Continuous
 62
     7
370
    15
100
AcDbLine
 10
-109.6846500326
 20
28.5766496501
 30
0.0
 11
-108.8075659152
 21
30.7715312573
 31
0.0
  0
LINE
  5
219
330
1F
100
AcDbEntity
  8
0
  6
Continuous
 62
     7
370
    15
100
AcDbLine
 10
-108.3607010171
 20
29.5331849248
 30
0.0
 11
-108.8075659152
 21
30.7715312573
 31
0.0
  0
LINE
  5
21A
330
1F
100
AcDbEntity
  8
0
  6
Continuous
 62
     7
370
    15
100
AcDbLine
 10
-107.342973465
 20
26.9085119831
 30
0.0
 11
-108.3607010171
 21
29.5331849248
 31
0.0
  0
LINE
  5
21B
330
1F
100
AcDbEntity
  8
0
  6
Continuous
 62
     7
370
    15
100
AcDbLine
 10
-107.666595112
 20
22.9842414744
 30
0.0
 11
-109.6846500326
 21
28.5766496501
 31
0.0
  0
LINE
  5
21C
330
1F
100
AcDbEntity
  8
0
  6
Continuous
 62
     7
370
    15
100
AcDbLine
 10
-58.303251587
 20
32.634499749
 30
0.0
 11
-67.8913178723
 21
30.4411235189
 31
0.0
  0
LINE
  5
21D
330
1F
100
AcDbEntity
  8
0
  6
Continuous
 62
     7
370
    15
100
AcDbLine
 10
-106.495251568
 20
29.9578467244
 30
0.0
 11
-108.3607010171
 21
29.5331849248
 31
0.0
  0
LINE
  5
21E
330
1F
100
AcDbEntity
  8
0
  6
Continuous
 62
     7
370
    15
100
AcDbLine
 10
-2.4913468235
 20
-0.9661881427
 30
0.0
 11
-25.5447603363
 21
-6.2142017372
 31
0.0
  0
LINE
  5
21F
330
1F
100
AcDbEntity
  8
0
  6
Continuous
 62
     7
370
    15
100
AcDbLine
 10
-29.9824698816
 20
-7.224427837
 30
0.0
 11
-64.8527750062
 21
-15.1625076028
 31
0.0
  0
ARC
  5
220
330
1F
100
AcDbEntity
  8
0
  6
Continuous
 62
     7
370
    15
100
AcDbCircle
 10
-107.8192005835
 20
29.0013114497
 30
0.0
 40
2.000000000000014
100
AcDbArc
 50
158.2181382
 51
199.8422906344
  0
ARC
  5
221
330
1F
100
AcDbEntity
  8
0
  6
Continuous
 62
     7
370
    15
100
AcDbCircle
 10
-104.0660756311
 20
-123.6684725554
 30
0.0
 40
1.772146498223541
100
AcDbArc
 50
192.2807153746
 51
199.8720477824
  0
ARC
  5
222
330
1F
100
AcDbEntity
  8
0
  6
Continuous
 62
     7
370
    15
100
AcDbCircle
 10
-102.1820584962
 20
-122.9538881588
 30
0.0
 40
3.787012157955904
100
AcDbArc
 50
200.3504076699
 51
248.2071913611
  0
ARC
  5
223
330
1F
100
AcDbEntity
  8
0
  6
Continuous
 62
     7
370
    15
100
AcDbCircle
 10
-49.573970952
 20
-111.3219286325
 30
0.0
 40
2.849797281927719
100
AcDbArc
 50
295.4301760857
 51
9.5954722573
  0
ARC
  5
224
330
1F
100
AcDbEntity
  8
0
  6
Continuous
 62
     7
370
    15
100
AcDbCircle
 10
-65.4715500164
 20
-63.5316722776
 30
0.0
 40
1.580597410480344
100
AcDbArc
 50
126.0931371995
 51
174.0082222583
  0
ARC
  5
225
330
1F
100
AcDbEntity
  8
0
  6
Continuous
 62
     7
370
    15
100
AcDbCircle
 10
-59.0700925692
 20
-31.3823340798
 30
0.0
 40
2.176597859758458
100
AcDbArc
 50
21.6560766129
 51
102.5397371687
  0
ARC
  5
226
330
1F
100
AcDbEntity
  8
0
  6
Continuous
 62
     7
370
    15
100
AcDbCircle
 10
-48.5147211226
 20
-111.479777316
 30
0.0
 40
1.861561229631239
100
AcDbArc
 50
19.8753337718
 51
27.6108137015
  0
ARC
  5
227
330
1F
100
AcDbEntity
  8
0
  6
Continuous
 62
     7
370
    15
100
AcDbCircle
 10
-105.9941059507
 20
-128.4967612837
 30
0.0
 40
1.773336314721451
100
AcDbArc
 50
192.5009367188
 51
199.8703705447
  0
ARC
  5
228
330
1F
100
AcDbEntity
  8
0
  6
Continuous
 62
     7
370
    15
100
AcDbCircle
 10
-74.2174833342
 20
-105.7145330383
 30
0.0
 40
2.003028591852041
100
AcDbArc
 50
164.9659632559
 51
275.9040606349
  0
ARC
  5
229
330
1F
100
AcDbEntity
  8
0
  6
Continuous
 62
     7
370
    15
100
AcDbCircle
 10
-66.311892114
 20
-65.5887339334
 30
0.0
 40
1.564167865955397
100
AcDbArc
 50
158.2406495383
 51
174.170700136
  0
ARC
  5
22A
330
1F
100
AcDbEntity
  8
0
  6
Continuous
 62
     7
370
    15
100
AcDbCircle
 10
-87.6369153439
 20
-54.9167400229
 30
0.0
 40
2.055415247346251
100
AcDbArc
 50
186.9494039732
 51
325.8179318492
  0
ARC
  5
22B
330
1F
100
AcDbEntity
  8
0
  6
Continuous
 62
     7
370
    15
100
AcDbCircle
 10
-49.2578258279
 20
-116.3379732126
 30
0.0
 40
0.7066909177513019
100
AcDbArc
 50
243.1132047082
 51
333.2940069057
  0
ARC
  5
22C
330
1F
100
AcDbEntity
  8
0
  6
Continuous
 62
     7
370
    15
100
AcDbCircle
 10
-68.3556208539
 20
-90.4767222933
 30
0.0
 40
2.037798891740817
100
AcDbArc
 50
18.7957021097
 51
152.2337984959
  0
ARC
  5
22D
330
1F
100
AcDbEntity
  8
0
  6
Continuous
 62
     7
370
    15
100
AcDbCircle
 10
-73.3930242639
 20
-103.6513443275
 30
0.0
 40
2.003028591851985
100
AcDbArc
 50
164.9659632559
 51
275.9040606349
  0
ARC
  5
22E
330
1F
100
AcDbEntity
  8
0
  6
Continuous
 62
     7
370
    15
100
AcDbCircle
 10
-93.5940465036
 20
-107.9139551701
 30
0.0
 40
2.216212448046491
100
AcDbArc
 50
39.3551319976
 51
97.0811444025
  0
ARC
  5
22F
330
1F
100
AcDbEntity
  8
0
  6
Continuous
 62
     7
370
    15
100
AcDbCircle
 10
-86.8106364418
 20
-52.8460384001
 30
0.0
 40
2.058143443432784
100
AcDbArc
 50
187.1508869373
 51
325.6164488851
  0
ARC
  5
230
330
1F
100
AcDbEntity
  8
0
  6
Continuous
 62
     7
370
    15
100
AcDbCircle
 10
-87.5025110772
 20
-37.6442181054
 30
0.0
 40
1.929166575490754
100
AcDbArc
 50
40.8248120523
 51
167.4239311801
  0
ARC
  5
231
330
1F
100
AcDbEntity
  8
0
  6
Continuous
 62
     7
370
    15
100
AcDbCircle
 10
-100.8593122879
 20
-12.2548480059
 30
0.0
 40
2.214253499479236
100
AcDbArc
 50
39.3271887997
 51
97.1090876003
  0
ARC
  5
232
330
1F
100
AcDbEntity
  8
0
  6
Continuous
 62
     7
370
    15
100
AcDbCircle
 10
-2.7800568203
 20
-0.8896808692
 30
0.0
 40
0.2986751163487671
100
AcDbArc
 50
290.0817980552
 51
345.1579353269
  0
ARC
  5
233
330
1F
100
AcDbEntity
  8
0
  6
Continuous
 62
     7
370
    15
100
AcDbCircle
 10
-62.4249342103
 20
-12.31933366
 30
0.0
 40
2.142883675611511
100
AcDbArc
 50
18.3968351526
 51
118.0394412474
  0
ARC
  5
234
330
1F
100
AcDbEntity
  8
0
  6
Continuous
 62
     7
370
    15
100
AcDbCircle
 10
-98.0327370443
 20
28.5472986576
 30
0.0
 40
7.54313941698189
100
AcDbArc
 50
189.2624773966
 51
218.7780422169
  0
ARC
  5
235
330
1F
100
AcDbEntity
  8
0
  6
Continuous
 62
     7
370
    15
100
AcDbCircle
 10
-51.977403067
 20
39.543086934
 30
0.0
 40
4.433274614978647
100
AcDbArc
 50
168.268458976
 51
217.3807250422
  0
ARC
  5
236
330
1F
100
AcDbEntity
  8
0
  6
Continuous
 62
     7
370
    15
100
AcDbCircle
 10
-59.6322815272
 20
43.2195336258
 30
0.0
 40
2.176597859758467
100
AcDbArc
 50
21.6560766129
 51
102.5397371687
  0
ARC
  5
237
330
1F
100
AcDbEntity
  8
0
  6
Continuous
 62
     7
370
    15
100
AcDbCircle
 10
-99.8981864934
 20
28.122636858
 30
0.0
 40
7.543139416981679
100
AcDbArc
 50
189.2624773966
 51
218.7780422169
  0
ARC
  5
238
330
1F
100
AcDbEntity
  8
0
  6
Continuous
 62
     7
370
    15
100
AcDbCircle
 10
-107.2751776236
 20
31.3363596913
 30
0.0
 40
1.633170240986516
100
AcDbArc
 50
100.4788695328
 51
200.2335609232
  0
ARC
  5
239
330
1F
100
AcDbEntity
  8
0
  6
Continuous
 62
     7
370
    15
100
AcDbCircle
 10
-46.0624830563
 20
26.2774591479
 30
0.0
 40
5.66229958581038
100
AcDbArc
 50
168.5378031161
 51
216.5292905985
  0
ARC
  5
23A
330
1F
100
AcDbEntity
  8
0
  6
Continuous
 62
     7
370
    15
100
AcDbCircle
 10
-108.1600018857
 20
29.1493128906
 30
0.0
 40
1.628648261289957
100
AcDbArc
 50
158.6041416107
 51
200.5863561501
  0
MTEXT
  5
23C
330
1F
100
AcDbEntity
  8
0
  6
Continuous
 62
     7
100
AcDbMText
 10
-122.1992290049
 20
-130.9913520949
 30
0.0
 40
4.83362
 41
0.0
 71
     1
 72
     1
  1
SolidWorks Educational Edition.
  7
SLDTEXTSTYLE0
 73
     1
 44
1.0
  0
MTEXT
  5
23D
330
1F
100
AcDbEntity
  8
0
  6
Continuous
 62
     7
100
AcDbMText
 10
-122.1992290049
 20
-138.2417820949
 30
0.0
 40
4.83362
 41
0.0
 71
     1
 72
     1
  1
For Instructional Use Only.
  7
SLDTEXTSTYLE0
 73
     1
 44
1.0
  0
ENDSEC
  0
SECTION
  2
OBJECTS
  0
DICTIONARY
  5
C
330
0
100
AcDbDictionary
281
     1
  3
ACAD_GROUP
350
D
  3
ACAD_LAYOUT
350
1A
  3
ACAD_MLINESTYLE
350
17
  3
ACAD_PLOTSETTINGS
350
19
  3
ACAD_PLOTSTYLENAME
350
E
  0
DICTIONARY
  5
D
102
{ACAD_REACTORS
330
C
102
}
330
C
100
AcDbDictionary
281
     1
  0
DICTIONARY
  5
1A
102
{ACAD_REACTORS
330
C
102
}
330
C
100
AcDbDictionary
281
     1
  3
Layout1
350
1E
  3
Layout2
350
26
  3
Model
350
22
  0
DICTIONARY
  5
17
102
{ACAD_REACTORS
330
C
102
}
330
C
100
AcDbDictionary
281
     1
  3
Standard
350
18
  0
DICTIONARY
  5
19
102
{ACAD_REACTORS
330
C
102
}
330
C
100
AcDbDictionary
281
     1
  0
ACDBDICTIONARYWDFLT
  5
E
102
{ACAD_REACTORS
330
C
102
}
330
C
100
AcDbDictionary
281
     1
  3
Normal
350
F
100
AcDbDictionaryWithDefault
340
F
  0
LAYOUT
  5
1E
102
{ACAD_REACTORS
330
1A
102
}
330
1A
100
AcDbPlotSettings
  1

  2
none_device
  4

  6

 40
0.0
 41
0.0
 42
0.0
 43
0.0
 44
0.0
 45
0.0
 46
0.0
 47
0.0
 48
0.0
 49
0.0
140
0.0
141
0.0
142
1.0
143
1.0
 70
   688
 72
     0
 73
     0
 74
     5
  7

 75
    16
147
1.0
148
0.0
149
0.0
100
AcDbLayout
  1
Layout1
 70
     1
 71
     1
 10
0.0
 20
0.0
 11
420.0
 21
297.0
 12
0.0
 22
0.0
 32
0.0
 14
1.0000000000E+20
 24
1.0000000000E+20
 34
1.0000000000E+20
 15
-1.0000000000E+20
 25
-1.0000000000E+20
 35
-1.0000000000E+20
146
0.0
 13
0.0
 23
0.0
 33
0.0
 16
1.0
 26
0.0
 36
0.0
 17
0.0
 27
1.0
 37
0.0
 76
     0
330
1B
  0
LAYOUT
  5
26
102
{ACAD_REACTORS
330
1A
102
}
330
1A
100
AcDbPlotSettings
  1

  2
none_device
  4

  6

 40
0.0
 41
0.0
 42
0.0
 43
0.0
 44
0.0
 45
0.0
 46
0.0
 47
0.0
 48
0.0
 49
0.0
140
0.0
141
0.0
142
1.0
143
1.0
 70
   688
 72
     0
 73
     0
 74
     5
  7

 75
    16
147
1.0
148
0.0
149
0.0
100
AcDbLayout
  1
Layout2
 70
     1
 71
     2
 10
0.0
 20
0.0
 11
0.0
 21
0.0
 12
0.0
 22
0.0
 32
0.0
 14
0.0
 24
0.0
 34
0.0
 15
0.0
 25
0.0
 35
0.0
146
0.0
 13
0.0
 23
0.0
 33
0.0
 16
1.0
 26
0.0
 36
0.0
 17
0.0
 27
1.0
 37
0.0
 76
     0
330
23
  0
LAYOUT
  5
22
102
{ACAD_REACTORS
330
1A
102
}
330
1A
100
AcDbPlotSettings
  1

  2
none_device
  4
ANSI_A_(11.00_x_8.50_Inches)
  6

 40
6.35
 41
19.05
 42
6.35000508
 43
19.05000254
 44
279.4
 45
215.9
 46
208.3752497541
 47
140.4410251558
 48
0.0
 49
0.0
140
0.0
141
0.0
142
0.0479848317
143
1.0
 70
  1696
 72
     0
 73
     0
 74
     0
  7

 75
     0
147
0.0179189148
148
0.0
149
0.0
100
AcDbLayout
  1
Model
 70
     1
 71
     0
 10
0.0
 20
0.0
 11
420.0
 21
297.0
 12
0.0
 22
0.0
 32
0.0
 14
-122.1992290049
 24
-129.9717857032
 34
0.0
 15
-0.9125954123
 25
45.3961314856
 35
0.0
146
0.0
 13
0.0
 23
0.0
 33
0.0
 16
1.0
 26
0.0
 36
0.0
 17
0.0
 27
1.0
 37
0.0
 76
     0
330
1F
331
29
  0
MLINESTYLE
  5
18
102
{ACAD_REACTORS
330
17
102
}
330
17
100
AcDbMlineStyle
  2
Standard
 70
     0
  3

 62
   256
 51
90.0
 52
90.0
 71
     2
 49
0.5
 62
   256
  6
BYLAYER
 49
-0.5
 62
   256
  6
BYLAYER
  0
ACDBPLACEHOLDER
  5
F
102
{ACAD_REACTORS
330
E
102
}
330
E
  0
ENDSEC
  0
EOF
