  0
SECTION
  2
HEADER
  9
$ACADVER
  1
AC1015
  9
$ACADMAINTVER
 70
     6
  9
$DWGCODEPAGE
  3
ANSI_1252
  9
$INSBASE
 10
0.0
 20
0.0
 30
0.0
  9
$EXTMIN
 10
-72.0200773249
 20
-1.0751540999
 30
0.0
  9
$EXTMAX
 10
-2.482826938
 20
51.5503742808
 30
0.0
  9
$LIMMIN
 10
0.0
 20
0.0
  9
$LIMMAX
 10
420.0
 20
297.0
  9
$ORTHOMODE
 70
     0
  9
$REGENMODE
 70
     1
  9
$FILLMODE
 70
     1
  9
$QTEXTMODE
 70
     0
  9
$MIRRTEXT
 70
     1
  9
$LTSCALE
 40
1.0
  9
$ATTMODE
 70
     1
  9
$TEXTSIZE
 40
2.5
  9
$TRACEWID
 40
1.0
  9
$TEXTSTYLE
  7
Standard
  9
$CLAYER
  8
0
  9
$CELTYPE
  6
ByLayer
  9
$CECOLOR
 62
   256
  9
$CELTSCALE
 40
1.0
  9
$DISPSILH
 70
     0
  9
$DIMSCALE
 40
1.0
  9
$DIMASZ
 40
6.0
  9
$DIMEXO
 40
1.0
  9
$DIMDLI
 40
3.75
  9
$DIMRND
 40
0.0
  9
$DIMDLE
 40
0.0
  9
$DIMEXE
 40
1.0
  9
$DIMTP
 40
0.0
  9
$DIMTM
 40
0.0
  9
$DIMTXT
 40
2.5
  9
$DIMCEN
 40
2.5
  9
$DIMTSZ
 40
0.0
  9
$DIMTOL
 70
     0
  9
$DIMLIM
 70
     0
  9
$DIMTIH
 70
     1
  9
$DIMTOH
 70
     1
  9
$DIMSE1
 70
     0
  9
$DIMSE2
 70
     0
  9
$DIMTAD
 70
     1
  9
$DIMZIN
 70
     0
  9
$DIMBLK
  1

  9
$DIMASO
 70
     1
  9
$DIMSHO
 70
     1
  9
$DIMPOST
  1

  9
$DIMAPOST
  1

  9
$DIMALT
 70
     0
  9
$DIMALTD
 70
     3
  9
$DIMALTF
 40
0.0393700787
  9
$DIMLFAC
 40
1.0
  9
$DIMTOFL
 70
     1
  9
$DIMTVP
 40
0.0
  9
$DIMTIX
 70
     0
  9
$DIMSOXD
 70
     0
  9
$DIMSAH
 70
     0
  9
$DIMBLK1
  1

  9
$DIMBLK2
  1

  9
$DIMSTYLE
  2
ISO-25
  9
$DIMCLRD
 70
     0
  9
$DIMCLRE
 70
     0
  9
$DIMCLRT
 70
     0
  9
$DIMTFAC
 40
1.0
  9
$DIMGAP
 40
1.524
  9
$DIMJUST
 70
     0
  9
$DIMSD1
 70
     0
  9
$DIMSD2
 70
     0
  9
$DIMTOLJ
 70
     0
  9
$DIMTZIN
 70
     0
  9
$DIMALTZ
 70
     0
  9
$DIMALTTZ
 70
     0
  9
$DIMUPT
 70
     0
  9
$DIMDEC
 70
     2
  9
$DIMTDEC
 70
     2
  9
$DIMALTU
 70
     2
  9
$DIMALTTD
 70
     3
  9
$DIMTXSTY
  7
Standard
  9
$DIMAUNIT
 70
     0
  9
$DIMADEC
 70
     2
  9
$DIMALTRND
 40
0.0
  9
$DIMAZIN
 70
     0
  9
$DIMDSEP
 70
    44
  9
$DIMATFIT
 70
     3
  9
$DIMFRAC
 70
     0
  9
$DIMLDRBLK
  1

  9
$DIMLUNIT
 70
     2
  9
$DIMLWD
 70
    -2
  9
$DIMLWE
 70
    -2
  9
$DIMTMOVE
 70
     0
  9
$LUNITS
 70
     2
  9
$LUPREC
 70
     2
  9
$SKETCHINC
 40
1.0
  9
$FILLETRAD
 40
10.0
  9
$AUNITS
 70
     0
  9
$AUPREC
 70
     2
  9
$MENU
  1
.
  9
$ELEVATION
 40
0.0
  9
$PELEVATION
 40
0.0
  9
$THICKNESS
 40
0.0
  9
$LIMCHECK
 70
     0
  9
$CHAMFERA
 40
10.0
  9
$CHAMFERB
 40
10.0
  9
$CHAMFERC
 40
20.0
  9
$CHAMFERD
 40
0.0
  9
$SKPOLY
 70
     0
  9
$TDCREATE
 40
2456560.919606759
  9
$TDUCREATE
 40
2456560.419606759
  9
$TDUPDATE
 40
2456560.919631493
  9
$TDUUPDATE
 40
2456560.419631493
  9
$TDINDWG
 40
0.0000000116
  9
$TDUSRTIMER
 40
0.0000000116
  9
$USRTIMER
 70
     1
  9
$ANGBASE
 50
0.0
  9
$ANGDIR
 70
     0
  9
$PDMODE
 70
     0
  9
$PDSIZE
 40
-1.0
  9
$PLINEWID
 40
0.0
  9
$SPLFRAME
 70
     0
  9
$SPLINETYPE
 70
     6
  9
$SPLINESEGS
 70
     8
  9
$HANDSEED
  5
135
  9
$SURFTAB1
 70
     6
  9
$SURFTAB2
 70
     6
  9
$SURFTYPE
 70
     6
  9
$SURFU
 70
     6
  9
$SURFV
 70
     6
  9
$UCSBASE
  2

  9
$UCSNAME
  2

  9
$UCSORG
 10
0.0
 20
0.0
 30
0.0
  9
$UCSXDIR
 10
1.0
 20
0.0
 30
0.0
  9
$UCSYDIR
 10
0.0
 20
1.0
 30
0.0
  9
$UCSORTHOREF
  2

  9
$UCSORTHOVIEW
 70
     0
  9
$UCSORGTOP
 10
0.0
 20
0.0
 30
0.0
  9
$UCSORGBOTTOM
 10
0.0
 20
0.0
 30
0.0
  9
$UCSORGLEFT
 10
0.0
 20
0.0
 30
0.0
  9
$UCSORGRIGHT
 10
0.0
 20
0.0
 30
0.0
  9
$UCSORGFRONT
 10
0.0
 20
0.0
 30
0.0
  9
$UCSORGBACK
 10
0.0
 20
0.0
 30
0.0
  9
$PUCSBASE
  2

  9
$PUCSNAME
  2

  9
$PUCSORG
 10
0.0
 20
0.0
 30
0.0
  9
$PUCSXDIR
 10
1.0
 20
0.0
 30
0.0
  9
$PUCSYDIR
 10
0.0
 20
1.0
 30
0.0
  9
$PUCSORTHOREF
  2

  9
$PUCSORTHOVIEW
 70
     0
  9
$PUCSORGTOP
 10
0.0
 20
0.0
 30
0.0
  9
$PUCSORGBOTTOM
 10
0.0
 20
0.0
 30
0.0
  9
$PUCSORGLEFT
 10
0.0
 20
0.0
 30
0.0
  9
$PUCSORGRIGHT
 10
0.0
 20
0.0
 30
0.0
  9
$PUCSORGFRONT
 10
0.0
 20
0.0
 30
0.0
  9
$PUCSORGBACK
 10
0.0
 20
0.0
 30
0.0
  9
$USERI1
 70
     0
  9
$USERI2
 70
     0
  9
$USERI3
 70
     0
  9
$USERI4
 70
     0
  9
$USERI5
 70
     0
  9
$USERR1
 40
0.0
  9
$USERR2
 40
0.0
  9
$USERR3
 40
0.0
  9
$USERR4
 40
0.0
  9
$USERR5
 40
0.0
  9
$WORLDVIEW
 70
     1
  9
$SHADEDGE
 70
     3
  9
$SHADEDIF
 70
    70
  9
$TILEMODE
 70
     1
  9
$MAXACTVP
 70
    64
  9
$PINSBASE
 10
0.0
 20
0.0
 30
0.0
  9
$PLIMCHECK
 70
     0
  9
$PEXTMIN
 10
1.0000000000E+20
 20
1.0000000000E+20
 30
1.0000000000E+20
  9
$PEXTMAX
 10
-1.0000000000E+20
 20
-1.0000000000E+20
 30
-1.0000000000E+20
  9
$PLIMMIN
 10
0.0
 20
0.0
  9
$PLIMMAX
 10
420.0
 20
297.0
  9
$UNITMODE
 70
     0
  9
$VISRETAIN
 70
     1
  9
$PLINEGEN
 70
     0
  9
$PSLTSCALE
 70
     1
  9
$TREEDEPTH
 70
  3020
  9
$CMLSTYLE
  2
Standard
  9
$CMLJUST
 70
     0
  9
$CMLSCALE
 40
20.0
  9
$PROXYGRAPHICS
 70
     1
  9
$MEASUREMENT
 70
     1
  9
$CELWEIGHT
370
    -1
  9
$ENDCAPS
280
     0
  9
$JOINSTYLE
280
     0
  9
$LWDISPLAY
290
     1
  9
$INSUNITS
 70
     4
  9
$HYPERLINKBASE
  1

  9
$STYLESHEET
  1

  9
$XEDIT
290
     1
  9
$CEPSNTYPE
380
     0
  9
$PSTYLEMODE
290
     1
  9
$FINGERPRINTGUID
  2
{B682EA5E-D036-4CEC-ADC0-224168762AD0}
  9
$VERSIONGUID
  2
{FAEB1C32-E019-11D5-929B-00C0DF256EC4}
  9
$EXTNAMES
290
     1
  9
$PSVPSCALE
 40
0.0
  9
$OLESTARTUP
290
     0
  0
ENDSEC
  0
SECTION
  2
CLASSES
  0
CLASS
  1
ACDBDICTIONARYWDFLT
  2
AcDbDictionaryWithDefault
  3
ObjectDBX Classes
 90
        0
280
     0
281
     0
  0
CLASS
  1
VISUALSTYLE
  2
AcDbVisualStyle
  3
ObjectDBX Classes
 90
     4095
280
     0
281
     0
  0
CLASS
  1
MATERIAL
  2
AcDbMaterial
  3
ObjectDBX Classes
 90
     1153
280
     0
281
     0
  0
CLASS
  1
ACDBPLACEHOLDER
  2
AcDbPlaceHolder
  3
ObjectDBX Classes
 90
        0
280
     0
281
     0
  0
CLASS
  1
LAYOUT
  2
AcDbLayout
  3
ObjectDBX Classes
 90
        0
280
     0
281
     0
  0
ENDSEC
  0
SECTION
  2
TABLES
  0
TABLE
  2
VPORT
  5
8
330
0
100
AcDbSymbolTable
 70
     1
  0
VPORT
  5
29
330
8
100
AcDbSymbolTableRecord
100
AcDbViewportTableRecord
  2
*Active
 70
     0
 10
0.0
 20
0.0
 11
1.0
 21
1.0
 12
-37.2514521315
 22
25.2376100904
 13
0.0
 23
0.0
 14
10.0
 24
10.0
 15
10.0
 25
10.0
 16
0.0
 26
0.0
 36
1.0
 17
0.0
 27
0.0
 37
0.0
 40
53.6780389483
 41
1.3213596619
 42
50.0
 43
0.0
 44
0.0
 50
0.0
 51
0.0
 71
     0
 72
   100
 73
     1
 74
     3
 75
     0
 76
     0
 77
     0
 78
     0
281
     0
 65
     1
110
0.0
120
0.0
130
0.0
111
1.0
121
0.0
131
0.0
112
0.0
122
1.0
132
0.0
 79
     0
146
0.0
  0
ENDTAB
  0
TABLE
  2
LTYPE
  5
5
330
0
100
AcDbSymbolTable
 70
     6
  0
LTYPE
  5
14
330
5
100
AcDbSymbolTableRecord
100
AcDbLinetypeTableRecord
  2
ByBlock
 70
     0
  3

 72
    65
 73
     0
 40
0.0
  0
LTYPE
  5
15
330
5
100
AcDbSymbolTableRecord
100
AcDbLinetypeTableRecord
  2
ByLayer
 70
     0
  3

 72
    65
 73
     0
 40
0.0
  0
LTYPE
  5
16
330
5
100
AcDbSymbolTableRecord
100
AcDbLinetypeTableRecord
  2
Continuous
 70
     0
  3
Solid line
 72
    65
 73
     0
 40
0.0
  0
LTYPE
  5
3F
330
5
100
AcDbSymbolTableRecord
100
AcDbLinetypeTableRecord
  2
HIDDEN
 70
     0
  3
Hidden __ __ __ __ __ __ __ __ __ __ __ __ __ __
 72
    65
 73
     2
 40
1.905
 49
1.27
 74
     0
 49
-0.635
 74
     0
  0
LTYPE
  5
40
330
5
100
AcDbSymbolTableRecord
100
AcDbLinetypeTableRecord
  2
PHANTOM
 70
     0
  3
Phantom ______  __  __  ______  __  __  ______
 72
    65
 73
     6
 40
12.7
 49
6.35
 74
     0
 49
-1.27
 74
     0
 49
1.27
 74
     0
 49
-1.27
 74
     0
 49
1.27
 74
     0
 49
-1.27
 74
     0
  0
LTYPE
  5
41
330
5
100
AcDbSymbolTableRecord
100
AcDbLinetypeTableRecord
  2
CENTER
 70
     0
  3
Center ____ _ ____ _ ____ _ ____ _ ____ _ ____
 72
    65
 73
     4
 40
10.16
 49
6.35
 74
     0
 49
-1.27
 74
     0
 49
1.27
 74
     0
 49
-1.27
 74
     0
  0
LTYPE
  5
42
330
5
100
AcDbSymbolTableRecord
100
AcDbLinetypeTableRecord
  2
CENTERX2
 70
     0
  3
Center (2x) ________  __  ________  __  _____
 72
    65
 73
     4
 40
20.32
 49
12.7
 74
     0
 49
-2.54
 74
     0
 49
2.54
 74
     0
 49
-2.54
 74
     0
  0
LTYPE
  5
43
330
5
100
AcDbSymbolTableRecord
100
AcDbLinetypeTableRecord
  2
DOT2
 70
     0
  3
Dot (.5x) ........................................
 72
    65
 73
     2
 40
0.635
 49
0.0
 74
     0
 49
-0.635
 74
     0
  0
ENDTAB
  0
TABLE
  2
LAYER
  5
2
330
0
100
AcDbSymbolTable
 70
     1
  0
LAYER
  5
10
330
2
100
AcDbSymbolTableRecord
100
AcDbLayerTableRecord
  2
0
 70
     0
 62
     7
  6
Continuous
370
    -3
390
F
  0
ENDTAB
  0
TABLE
  2
STYLE
  5
3
330
0
100
AcDbSymbolTable
 70
     2
  0
STYLE
  5
11
330
3
100
AcDbSymbolTableRecord
100
AcDbTextStyleTableRecord
  2
Standard
 70
     0
 40
0.0
 41
1.0
 50
0.0
 71
     0
 42
2.5
  3
txt
  4

  0
STYLE
  5
132
330
3
100
AcDbSymbolTableRecord
100
AcDbTextStyleTableRecord
  2
SLDTEXTSTYLE0
 70
     0
 40
0.0
 41
0.7
 50
0.0
 71
     0
 42
0.2
  3
TXT
  4

  0
ENDTAB
  0
TABLE
  2
VIEW
  5
6
330
0
100
AcDbSymbolTable
 70
     0
  0
ENDTAB
  0
TABLE
  2
UCS
  5
7
330
0
100
AcDbSymbolTable
 70
     0
  0
ENDTAB
  0
TABLE
  2
APPID
  5
9
330
0
100
AcDbSymbolTable
 70
     1
  0
APPID
  5
12
330
9
100
AcDbSymbolTableRecord
100
AcDbRegAppTableRecord
  2
ACAD
 70
     0
  0
ENDTAB
  0
TABLE
  2
DIMSTYLE
  5
A
330
0
100
AcDbSymbolTable
 70
     1
100
AcDbDimStyleTable
  0
DIMSTYLE
105
27
330
A
100
AcDbSymbolTableRecord
100
AcDbDimStyleTableRecord
  2
ISO-25
 70
     0
 41
2.5
 42
0.625
 43
3.75
 44
1.25
 73
     0
 74
     0
 77
     1
 78
     8
140
2.5
141
2.5
143
0.0393700787
147
0.625
171
     3
172
     1
178
     0
271
     2
272
     2
274
     3
278
    44
283
     0
284
     8
340
11
  0
ENDTAB
  0
TABLE
  2
BLOCK_RECORD
  5
1
330
0
100
AcDbSymbolTable
 70
     1
  0
BLOCK_RECORD
  5
1F
330
1
100
AcDbSymbolTableRecord
100
AcDbBlockTableRecord
  2
*Model_Space
340
22
  0
BLOCK_RECORD
  5
1B
330
1
100
AcDbSymbolTableRecord
100
AcDbBlockTableRecord
  2
*Paper_Space
340
1E
  0
BLOCK_RECORD
  5
23
330
1
100
AcDbSymbolTableRecord
100
AcDbBlockTableRecord
  2
*Paper_Space0
340
26
  0
ENDTAB
  0
ENDSEC
  0
SECTION
  2
BLOCKS
  0
BLOCK
  5
20
330
1F
100
AcDbEntity
  8
0
100
AcDbBlockBegin
  2
*Model_Space
 70
     0
 10
0.0
 20
0.0
 30
0.0
  3
*Model_Space
  1

  0
ENDBLK
  5
21
330
1F
100
AcDbEntity
  8
0
100
AcDbBlockEnd
  0
BLOCK
  5
1C
330
1B
100
AcDbEntity
 67
     1
  8
0
100
AcDbBlockBegin
  2
*Paper_Space
 70
     0
 10
0.0
 20
0.0
 30
0.0
  3
*Paper_Space
  1

  0
ENDBLK
  5
1D
330
1B
100
AcDbEntity
 67
     1
  8
0
100
AcDbBlockEnd
  0
BLOCK
  5
24
330
23
100
AcDbEntity
  8
0
100
AcDbBlockBegin
  2
*Paper_Space0
 70
     0
 10
0.0
 20
0.0
 30
0.0
  3
*Paper_Space0
  1

  0
ENDBLK
  5
25
330
23
100
AcDbEntity
  8
0
100
AcDbBlockEnd
  0
ENDSEC
  0
SECTION
  2
ENTITIES
  0
LINE
  5
44
330
1F
100
AcDbEntity
  8
0
  6
Continuous
 62
     7
100
AcDbLine
 10
-38.5167369875
 20
17.8839657949
 30
0.0
 11
-38.3834093252
 21
5.2246261017
 31
0.0
  0
LINE
  5
45
330
1F
100
AcDbEntity
  8
0
  6
Continuous
 62
     7
100
AcDbLine
 10
-38.3834093252
 20
5.2246261017
 30
0.0
 11
-50.8070681698
 21
5.36109323
 31
0.0
  0
LINE
  5
46
330
1F
100
AcDbEntity
  8
0
  6
Continuous
 62
     7
100
AcDbLine
 10
-50.8070681698
 20
5.36109323
 30
0.0
 11
-50.8370238712
 21
8.205359708
 31
0.0
  0
SPLINE
  5
47
330
1F
100
AcDbEntity
  8
0
  6
Continuous
 62
     7
370
    15
100
AcDbSpline
210
0.0
220
0.0
230
1.0
 70
     8
 71
     3
 72
    16
 73
    12
 74
     0
 42
0.00000001
 43
0.00000001
 12
1.0
 22
0.0
 32
0.0
 13
1.0
 23
0.0
 33
0.0
 40
0.0
 40
0.0
 40
0.0
 40
0.0
 40
0.0728092757609945
 40
0.1907379007549908
 40
0.3086562392252091
 40
0.4264674404282939
 40
0.5441609356324423
 40
0.6617337799109859
 40
0.7791911852434328
 40
0.8965465299246536
 40
1.0
 40
1.0
 40
1.0
 40
1.0
 10
-59.76975875418287
 20
40.71039804851602
 30
0.0
 10
-59.68088740637095
 20
40.71143406126792
 30
0.0
 10
-59.44807181877245
 20
40.71414809592064
 30
0.0
 10
-59.07395639828625
 20
40.76378509495629
 30
0.0
 10
-58.65604801881121
 20
40.87004783369255
 30
0.0
 10
-58.25545681753763
 20
41.02775643284046
 30
0.0
 10
-57.87860296909106
 20
41.23346103751485
 30
0.0
 10
-57.53087213994094
 20
41.48395828518072
 30
0.0
 10
-57.21907083464399
 20
41.77612259829164
 30
0.0
 10
-56.95323893125782
 20
42.0893738900097
 30
0.0
 10
-56.81502631028688
 20
42.31816386958921
 30
0.0
 10
-56.75027085537709
 20
42.42535667949611
 30
0.0
  0
SPLINE
  5
49
330
1F
100
AcDbEntity
  8
0
  6
Continuous
 62
     7
370
    15
100
AcDbSpline
210
0.0
220
0.0
230
1.0
 70
     8
 71
     3
 72
     9
 73
     5
 74
     0
 42
0.00000001
 43
0.00000001
 12
1.0
 22
0.0
 32
0.0
 13
1.0
 23
0.0
 33
0.0
 40
0.0
 40
0.0
 40
0.0
 40
0.0
 40
0.7137493464388567
 40
1.0
 40
1.0
 40
1.0
 40
1.0
 10
-69.99845272070321
 20
47.563418899787
 30
0.0
 10
-70.0175804446365
 20
47.52041444857637
 30
0.0
 10
-70.04437938186665
 20
47.46016297314574
 30
0.0
 10
-70.04072675019962
 20
47.40121569391822
 30
0.0
 10
-70.03968118199772
 20
47.3843419967137
 30
0.0
  0
SPLINE
  5
4C
330
1F
100
AcDbEntity
  8
0
  6
Continuous
 62
     7
370
    15
100
AcDbSpline
210
0.0
220
0.0
230
1.0
 70
     8
 71
     3
 72
    11
 73
     7
 74
     0
 42
0.00000001
 43
0.00000001
 12
1.0
 22
0.0
 32
0.0
 13
1.0
 23
0.0
 33
0.0
 40
0.0
 40
0.0
 40
0.0
 40
0.0
 40
0.0119856079622785
 40
0.4473430879605744
 40
0.7946495483918325
 40
1.0
 40
1.0
 40
1.0
 40
1.0
 10
-64.81694590362353
 20
40.63499597758342
 30
0.0
 10
-64.81664535018889
 20
40.63595185426323
 30
0.0
 10
-64.80542768797436
 20
40.67162837789066
 30
0.0
 10
-64.75097435393106
 20
40.71549654248317
 30
0.0
 10
-64.66607240704833
 20
40.75834748594266
 30
0.0
 10
-64.60405379697549
 20
40.7619196952239
 30
0.0
 10
-64.58100957313766
 20
40.76324701923481
 30
0.0
  0
SPLINE
  5
4D
330
1F
100
AcDbEntity
  8
0
  6
Continuous
 62
     7
370
    15
100
AcDbSpline
210
0.0
220
0.0
230
1.0
 70
     8
 71
     3
 72
    16
 73
    12
 74
     0
 42
0.00000001
 43
0.00000001
 12
1.0
 22
0.0
 32
0.0
 13
1.0
 23
0.0
 33
0.0
 40
0.0
 40
0.0
 40
0.0
 40
0.0
 40
0.0728092757609941
 40
0.1907379007549594
 40
0.3086562392251803
 40
0.4264674404282552
 40
0.5441609356324294
 40
0.6617337799109546
 40
0.7791911852434007
 40
0.8965465299246305
 40
0.9999999999999999
 40
0.9999999999999999
 40
0.9999999999999999
 40
0.9999999999999999
 10
-8.150122079377649
 20
-1.07515402324761
 30
0.0
 10
-8.061250731565714
 20
-1.0741180104957
 30
0.0
 10
-7.828435143967277
 20
-1.071403975842981
 30
0.0
 10
-7.454319723481116
 20
-1.02176697680733
 30
0.0
 10
-7.036411344006107
 20
-0.9155042380711298
 30
0.0
 10
-6.6358201427325
 20
-0.7577956389232186
 30
0.0
 10
-6.258966294285948
 20
-0.5520910342487959
 30
0.0
 10
-5.911235465135757
 20
-0.301593786582989
 30
0.0
 10
-5.599434159838844
 20
-0.0094294734720342
 30
0.0
 10
-5.333602256452637
 20
0.3038218182460084
 30
0.0
 10
-5.195389635481662
 20
0.5326117978255579
 30
0.0
 10
-5.130634180571851
 20
0.6398046077324832
 30
0.0
  0
SPLINE
  5
57
330
1F
100
AcDbEntity
  8
0
  6
Continuous
 62
     7
370
    15
100
AcDbSpline
210
0.0
220
0.0
230
1.0
 70
     8
 71
     3
 72
    25
 73
    21
 74
     0
 42
0.00000001
 43
0.00000001
 12
1.0
 22
0.0
 32
0.0
 13
1.0
 23
0.0
 33
0.0
 40
0.0
 40
0.0
 40
0.0
 40
0.0
 40
0.0078198124809465
 40
0.0668423818015792
 40
0.1258496424743239
 40
0.1848560307193746
 40
0.2438776825987133
 40
0.3029293281512034
 40
0.3620232726769755
 40
0.4211686699837808
 40
0.48037112319793
 40
0.5396325991019905
 40
0.598951600075799
 40
0.6583235137783828
 40
0.7177410581198025
 40
0.7771947558486689
 40
0.8366734026517106
 40
0.8961607697603954
 40
0.9556434458391105
 40
0.9999999999999999
 40
0.9999999999999999
 40
0.9999999999999999
 40
0.9999999999999999
 10
-54.55629932634039
 20
46.24239109484134
 30
0.0
 10
-54.54608373436088
 20
46.25815284400668
 30
0.0
 10
-54.45876265075598
 20
46.39288150382268
 30
0.0
 10
-54.33840645896803
 20
46.67246388281664
 30
0.0
 10
-54.20206998568005
 20
47.07549764896508
 30
0.0
 10
-54.12194545878028
 20
47.49504124562966
 30
0.0
 10
-54.09352534804148
 20
47.92124647093385
 30
0.0
 10
-54.11873648216585
 20
48.34860448615371
 30
0.0
 10
-54.19678973805435
 20
48.77040751951427
 30
0.0
 10
-54.32663539332865
 20
49.18034062875766
 30
0.0
 10
-54.50631665937912
 20
49.5721651635902
 30
0.0
 10
-54.73316595650184
 20
49.93991470493556
 30
0.0
 10
-55.00378797971094
 20
50.27795704483216
 30
0.0
 10
-55.3141138734748
 20
50.58107991560943
 30
0.0
 10
-55.65945182256622
 20
50.84460733962838
 30
0.0
 10
-56.03455038200827
 20
51.06434937040034
 30
0.0
 10
-56.43367447568856
 20
51.23715231691053
 30
0.0
 10
-56.85066379098125
 20
51.3591663931176
 30
0.0
 10
-57.24287462672217
 20
51.42640765848994
 30
0.0
 10
-57.49462711559423
 20
51.43598389617337
 30
0.0
 10
-57.60216713570054
 20
51.44007453614135
 30
0.0
  0
SPLINE
  5
5A
330
1F
100
AcDbEntity
  8
0
  6
Continuous
 62
     7
370
    15
100
AcDbSpline
210
0.0
220
0.0
230
1.0
 70
     8
 71
     3
 72
    12
 73
     8
 74
     0
 42
0.00000001
 43
0.00000001
 12
1.0
 22
0.0
 32
0.0
 13
1.0
 23
0.0
 33
0.0
 40
0.0
 40
0.0
 40
0.0
 40
0.0
 40
0.033987186661808
 40
0.3297625300114463
 40
0.6469831821292793
 40
0.9649130974580622
 40
1.0
 40
1.0
 40
1.0
 40
1.0
 10
-67.48409230855779
 20
51.54639944514069
 30
0.0
 10
-67.48769124654986
 20
51.54712579088755
 30
0.0
 10
-67.52261013846741
 20
51.55417320006354
 30
0.0
 10
-67.6061070038226
 20
51.54220454639365
 30
0.0
 10
-67.71470579385405
 20
51.49333480900246
 30
0.0
 10
-67.7758949064554
 20
51.4282905604954
 30
0.0
 10
-67.79886015509499
 20
51.38953172905953
 30
0.0
 10
-67.8011427076536
 20
51.38567942720764
 30
0.0
  0
SPLINE
  5
5C
330
1F
100
AcDbEntity
  8
0
  6
Continuous
 62
     7
370
    15
100
AcDbSpline
210
0.0
220
0.0
230
1.0
 70
     8
 71
     3
 72
    25
 73
    21
 74
     0
 42
0.00000001
 43
0.00000001
 12
1.0
 22
0.0
 32
0.0
 13
1.0
 23
0.0
 33
0.0
 40
0.0
 40
0.0
 40
0.0
 40
0.0
 40
0.0078198124809309
 40
0.0668423818015658
 40
0.1258496424743164
 40
0.1848560307193678
 40
0.2438776825987037
 40
0.3029293281511929
 40
0.3620232726769677
 40
0.4211686699837646
 40
0.4803711231979205
 40
0.5396325991019824
 40
0.5989516000757884
 40
0.658323513778372
 40
0.7177410581197909
 40
0.7771947558486606
 40
0.8366734026516996
 40
0.8961607697603797
 40
0.9556434458390953
 40
1.0
 40
1.0
 40
1.0
 40
1.0
 10
-2.936662651535186
 20
4.45683902307769
 30
0.0
 10
-2.9264470595557
 20
4.472600772242996
 30
0.0
 10
-2.839125975950791
 20
4.607329432058973
 30
0.0
 10
-2.718769784162848
 20
4.886911811052896
 30
0.0
 10
-2.582433310874842
 20
5.289945577201357
 30
0.0
 10
-2.502308783975081
 20
5.709489173865958
 30
0.0
 10
-2.473888673236266
 20
6.135694399170124
 30
0.0
 10
-2.499099807360627
 20
6.563052414390001
 30
0.0
 10
-2.57715306324912
 20
6.98485544775053
 30
0.0
 10
-2.706998718523389
 20
7.394788556993926
 30
0.0
 10
-2.886679984573877
 20
7.786613091826474
 30
0.0
 10
-3.113529281696593
 20
8.154362633171868
 30
0.0
 10
-3.384151304905651
 20
8.492404973068448
 30
0.0
 10
-3.694477198669499
 20
8.79552784384571
 30
0.0
 10
-4.039815147760945
 20
9.05905526786472
 30
0.0
 10
-4.414913707202976
 20
9.278797298636663
 30
0.0
 10
-4.814037800883249
 20
9.451600245146858
 30
0.0
 10
-5.231027116175943
 20
9.573614321353931
 30
0.0
 10
-5.623237951916868
 20
9.640855586726275
 30
0.0
 10
-5.874990440788965
 20
9.650431824409715
 30
0.0
 10
-5.982530460895322
 20
9.654522464377703
 30
0.0
  0
LWPOLYLINE
  5
5F
330
1F
100
AcDbEntity
  8
0
  6
Continuous
 62
     7
370
    15
100
AcDbPolyline
 90
       37
 70
   128
 43
0.0
 10
-59.9151578443
 20
45.9360076453
 10
-60.2600190687
 20
45.9099766049
 10
-60.5937736785
 20
45.8250912979
 10
-60.9062807085
 20
45.6839309214
 10
-61.1880447909
 20
45.490784562
 10
-61.4305046666
 20
45.2515208741
 10
-61.626293315
 20
44.9734097637
 10
-61.769461797
 20
44.6649014963
 10
-61.8556600108
 20
44.3353699395
 10
-61.8822688672
 20
43.9948277428
 10
-61.8484798697
 20
43.6536221085
 10
-61.7553196798
 20
43.3221203972
 10
-61.6056189228
 20
43.0103951207
 10
-61.4039261804
 20
42.7279178937
 10
-61.1563697844
 20
42.4832716439
 10
-60.8704716109
 20
42.2838898237
 10
-60.5549185309
 20
42.1358305488
 10
-60.2192984654
 20
42.0435925254
 10
-59.87380906
 20
42.0099783592
 10
-59.5289478355
 20
42.0360093996
 10
-59.1951932258
 20
42.1208947066
 10
-58.8826861957
 20
42.2620550831
 10
-58.6009221133
 20
42.4552014425
 10
-58.3584622376
 20
42.6944651304
 10
-58.1626735893
 20
42.9725762408
 10
-58.0195051073
 20
43.2810845081
 10
-57.9333068935
 20
43.610616065
 10
-57.906698037
 20
43.9511582617
 10
-57.9404870345
 20
44.292363896
 10
-58.0336472244
 20
44.6238656073
 10
-58.1833479814
 20
44.9355908838
 10
-58.3850407239
 20
45.2180681108
 10
-58.6325971198
 20
45.4627143606
 10
-58.9184952934
 20
45.6620961808
 10
-59.2340483733
 20
45.8101554557
 10
-59.5696684389
 20
45.9023934791
 10
-59.9151578443
 20
45.9360076453
  0
LWPOLYLINE
  5
60
330
1F
100
AcDbEntity
  8
0
  6
Continuous
 62
     7
370
    15
100
AcDbPolyline
 90
       37
 70
   128
 43
0.0
 10
-8.2955211695
 20
4.1504555735
 10
-8.6403823939
 20
4.1244245331
 10
-8.9741370036
 20
4.0395392261
 10
-9.2866440337
 20
3.8983788496
 10
-9.5684081161
 20
3.7052324902
 10
-9.8108679918
 20
3.4659688023
 10
-10.0066566402
 20
3.187857692
 10
-10.1498251222
 20
2.8793494246
 10
-10.236023336
 20
2.5498178677
 10
-10.2626321924
 20
2.209275671
 10
-10.2288431949
 20
1.8680700367
 10
-10.135683005
 20
1.5365683255
 10
-9.985982248
 20
1.2248430489
 10
-9.7842895056
 20
0.942365822
 10
-9.5367331096
 20
0.6977195721
 10
-9.2508349361
 20
0.4983377519
 10
-8.9352818561
 20
0.350278477
 10
-8.5996617906
 20
0.2580404537
 10
-8.2541723852
 20
0.2244262875
 10
-7.9093111607
 20
0.2504573279
 10
-7.575556551
 20
0.3353426349
 10
-7.2630495209
 20
0.4765030114
 10
-6.9812854385
 20
0.6696493708
 10
-6.7388255628
 20
0.9089130587
 10
-6.5430369145
 20
1.187024169
 10
-6.3998684324
 20
1.4955324364
 10
-6.3136702187
 20
1.8250639932
 10
-6.2870613622
 20
2.16560619
 10
-6.3208503597
 20
2.5068118242
 10
-6.4140105496
 20
2.8383135355
 10
-6.5637113066
 20
3.150038812
 10
-6.7654040491
 20
3.432516039
 10
-7.012960445
 20
3.6771622889
 10
-7.2988586186
 20
3.8765441091
 10
-7.6144116985
 20
4.0246033839
 10
-7.9500317641
 20
4.1168414073
 10
-8.2955211695
 20
4.1504555735
  0
LWPOLYLINE
  5
84
330
1F
100
AcDbEntity
  8
0
  6
Continuous
 62
     7
370
    15
100
AcDbPolyline
 90
       64
 70
   128
 43
0.0
 10
-50.1778308673
 20
9.3520378662
 10
-50.7748650852
 20
9.3528618792
 10
-51.3725170651
 20
9.3422815
 10
-51.9648470731
 20
9.3204018813
 10
-52.5459682674
 20
9.2874404724
 10
-53.1101052044
 20
9.2437248589
 10
-53.651651238
 20
9.1896895059
 10
-54.1652242403
 20
9.1258714412
 10
-54.645720092
 20
9.0529049173
 10
-55.0883634096
 20
8.9715151083
 10
-55.4887550049
 20
8.8825109028
 10
-55.8429156062
 20
8.7867768645
 10
-56.1473254065
 20
8.6852644412
 10
-56.3989590444
 20
8.5789825091
 10
-56.5953156718
 20
8.4689873458
 10
-56.7344438082
 20
8.3563721326
 10
-56.8149607357
 20
8.24225609
 10
-56.836066241
 20
8.1277733546
 10
-56.797550568
 20
8.0140617073
 10
-56.6997965028
 20
7.9022512654
 10
-56.5437755693
 20
7.7934532514
 10
-56.3310383735
 20
7.6887489488
 10
-56.0636991933
 20
7.5891789561
 10
-55.7444149655
 20
7.4957328445
 10
-55.3763588803
 20
7.4093393234
 10
-54.9631888445
 20
7.3308570106
 10
-54.5090111273
 20
7.2610658985
 10
-54.0183395511
 20
7.2006596025
 10
-53.4960506304
 20
7.1502384676
 10
-52.9473351071
 20
7.1103036015
 10
-52.3776463627
 20
7.081251895
 10
-51.7926462198
 20
7.063372077
 10
-51.1981486727
 20
7.0568418451
 10
-50.6000621051
 20
7.0617260998
 10
-50.0043305699
 20
7.077976299
 10
-49.4168747149
 20
7.1054309411
 10
-48.8435329402
 20
7.1438171694
 10
-48.2900033741
 20
7.1927534843
 10
-47.7617872419
 20
7.2517535349
 10
-47.2641341929
 20
7.320230952
 10
-46.8019901268
 20
7.3975051764
 10
-46.3799480388
 20
7.482808222
 10
-46.0022023729
 20
7.575292309
 10
-45.6725073351
 20
7.6740382888
 10
-45.394139583
 20
7.7780647796
 10
-45.1698656602
 20
7.8863379193
 10
-45.0019145018
 20
7.997781641
 10
-44.8919552819
 20
8.1112883667
 10
-44.8410808245
 20
8.2257300156
 10
-44.8497967429
 20
8.3399692153
 10
-44.9180164144
 20
8.4528706053
 10
-45.0450618413
 20
8.5633121207
 10
-45.2296703889
 20
8.6701961442
 10
-45.4700073347
 20
8.7724604144
 10
-45.763684102
 20
8.869088583
 10
-46.1077819993
 20
8.9591203159
 10
-46.4988812269
 20
9.0416608372
 10
-46.9330948652
 20
9.1158898221
 10
-47.4061075039
 20
9.1810695497
 10
-47.9132181308
 20
9.2365522345
 10
-48.4493868527
 20
9.2817864648
 10
-49.009284984
 20
9.3163226823
 10
-49.5873480056
 20
9.3398176506
 10
-50.1778308673
 20
9.3520378662
  0
LWPOLYLINE
  5
90
330
1F
100
AcDbEntity
  8
0
  6
Continuous
 62
     7
370
    15
100
AcDbPolyline
 90
       41
 70
   128
 43
0.0
 10
-38.7914007391
 20
17.4061832289
 10
-38.3993214875
 20
17.4077958927
 10
-38.0101333952
 20
17.4211334398
 10
-37.6334195647
 20
17.4458674555
 10
-37.2784559406
 20
17.4813889063
 10
-36.9539829056
 20
17.5268231362
 10
-36.6679900625
 20
17.5810514036
 10
-36.4275195044
 20
17.6427384287
 10
-36.2384924144
 20
17.7103652721
 10
-36.1055632669
 20
17.7822667365
 10
-36.0320052186
 20
17.8566723692
 10
-36.0196295128
 20
17.9317500567
 10
-36.0687408804
 20
18.005651137
 10
-36.1781300367
 20
18.0765559204
 10
-36.3451034574
 20
18.1427184957
 10
-36.565549703
 20
18.2025097208
 10
-36.834040655
 20
18.2544573372
 10
-37.1439651754
 20
18.2972822223
 10
-37.4876918937
 20
18.3299298852
 10
-37.8567571174
 20
18.3515964321
 10
-38.2420732359
 20
18.3617483608
 10
-38.6341524875
 20
18.360135697
 10
-39.0233405798
 20
18.3467981499
 10
-39.4000544103
 20
18.3220641342
 10
-39.7550180344
 20
18.2865426834
 10
-40.0794910694
 20
18.2411084535
 10
-40.3654839125
 20
18.1868801861
 10
-40.6059544706
 20
18.1251931611
 10
-40.7949815606
 20
18.0575663177
 10
-40.9279107081
 20
17.9856648533
 10
-41.0014687564
 20
17.9112592205
 10
-41.0138444622
 20
17.8361815331
 10
-40.9647330946
 20
17.7622804527
 10
-40.8553439383
 20
17.6913756693
 10
-40.6883705176
 20
17.625213094
 10
-40.467924272
 20
17.5654218689
 10
-40.19943332
 20
17.5134742525
 10
-39.8895087996
 20
17.4706493674
 10
-39.5457820813
 20
17.4380017045
 10
-39.1767168576
 20
17.4163351576
 10
-38.7914007391
 20
17.4061832289
  0
LINE
  5
C2
330
1F
100
AcDbEntity
  8
0
  6
Continuous
 62
     7
370
    15
100
AcDbLine
 10
-56.7502778828
 20
42.419749314
 30
0.0
 11
-56.5305468815
 21
42.8019753668
 31
0.0
  0
LINE
  5
C3
330
1F
100
AcDbEntity
  8
0
  6
Continuous
 62
     7
370
    15
100
AcDbLine
 10
-70.0425406539
 20
47.391416165
 30
0.0
 11
-69.5392295188
 21
-0.3975161834
 31
0.0
  0
LINE
  5
C4
330
1F
100
AcDbEntity
  8
0
  6
Continuous
 62
     7
370
    15
100
AcDbLine
 10
-64.5810095731
 20
40.7632470192
 30
0.0
 11
-59.7697587542
 21
40.7103980485
 31
0.0
  0
LINE
  5
C5
330
1F
100
AcDbEntity
  8
0
  6
Continuous
 62
     7
370
    15
100
AcDbLine
 10
-69.7787217194
 20
47.9456449525
 30
0.0
 11
-69.9984527207
 21
47.5634188998
 31
0.0
  0
LINE
  5
C6
330
1F
100
AcDbEntity
  8
0
  6
Continuous
 62
     7
370
    15
100
AcDbLine
 10
-5.130641208
 20
0.6341972423
 30
0.0
 11
-4.9109102067
 21
1.016423295
 31
0.0
  0
LINE
  5
C7
330
1F
100
AcDbEntity
  8
0
  6
Continuous
 62
     7
370
    15
100
AcDbLine
 10
-69.5358823482
 20
-0.4008648687
 30
0.0
 11
-8.1501220794
 21
-1.0751540232
 31
0.0
  0
LINE
  5
C8
330
1F
100
AcDbEntity
  8
0
  6
Continuous
 62
     7
370
    15
100
AcDbLine
 10
-35.9135036679
 20
8.0952210202
 30
0.0
 11
-36.0168756287
 21
17.9102942353
 31
0.0
  0
LINE
  5
C9
330
1F
100
AcDbEntity
  8
0
  6
Continuous
 62
     7
370
    15
100
AcDbLine
 10
-41.0165983463
 20
17.8576373545
 30
0.0
 11
-40.9132263855
 21
8.0425641394
 31
0.0
  0
LINE
  5
CA
330
1F
100
AcDbEntity
  8
0
  6
Continuous
 62
     7
370
    15
100
AcDbLine
 10
-71.8617603425
 20
37.016913317
 30
0.0
 11
-71.9819868776
 21
36.8077770837
 31
0.0
  0
LINE
  5
CB
330
1F
100
AcDbEntity
  8
0
  6
Continuous
 62
     7
370
    15
100
AcDbLine
 10
-71.5218922092
 20
37.6081200846
 30
0.0
 11
-71.6421187444
 21
37.3989838512
 31
0.0
  0
LINE
  5
CC
330
1F
100
AcDbEntity
  8
0
  6
Continuous
 62
     7
370
    15
100
AcDbLine
 10
-54.7726988711
 20
45.8597837887
 30
0.0
 11
-54.5529678698
 21
46.2420098415
 31
0.0
  0
LINE
  5
CD
330
1F
100
AcDbEntity
  8
0
  6
Continuous
 62
     7
370
    15
100
AcDbLine
 10
-67.8011427077
 20
51.3856794272
 30
0.0
 11
-68.020873709
 21
51.0034533745
 31
0.0
  0
LINE
  5
CE
330
1F
100
AcDbEntity
  8
0
  6
Continuous
 62
     7
370
    15
100
AcDbLine
 10
-57.6021671357
 20
51.4400745361
 30
0.0
 11
-67.5098505828
 21
51.5489050445
 31
0.0
  0
LINE
  5
CF
330
1F
100
AcDbEntity
  8
0
  6
Continuous
 62
     7
370
    15
100
AcDbLine
 10
-3.1530621963
 20
4.074231717
 30
0.0
 11
-2.9333311949
 21
4.4564577697
 31
0.0
  0
LINE
  5
D0
330
1F
100
AcDbEntity
  8
0
  6
Continuous
 62
     7
370
    15
100
AcDbLine
 10
-62.292627794
 20
10.2697463066
 30
0.0
 11
-62.6135565205
 21
40.7416356186
 31
0.0
  0
LINE
  5
D1
330
1F
100
AcDbEntity
  8
0
  6
Continuous
 62
     7
370
    15
100
AcDbLine
 10
-5.9825304609
 20
9.6545224644
 30
0.0
 11
-35.9333911193
 21
9.9835163617
 31
0.0
  0
LINE
  5
D2
330
1F
100
AcDbEntity
  8
0
  6
Continuous
 62
     7
370
    15
100
AcDbLine
 10
-40.9342469554
 20
10.0384480403
 30
0.0
 11
-62.292662679
 21
10.2730586083
 31
0.0
  0
LINE
  5
D3
330
1F
100
AcDbEntity
  8
0
  6
Continuous
 62
     7
370
    15
100
AcDbLine
 10
-69.1452709972
 20
46.5280922994
 30
0.0
 11
-68.6594227814
 21
0.3972481884
 31
0.0
  0
LINE
  5
D4
330
1F
100
AcDbEntity
  8
0
  6
Continuous
 62
     7
370
    15
100
AcDbLine
 10
-59.9203264423
 20
46.426761306
 30
0.0
 11
-69.1452709972
 21
46.5280922994
 31
0.0
  0
LINE
  5
D5
330
1F
100
AcDbEntity
  8
0
  6
Continuous
 62
     7
370
    15
100
AcDbLine
 10
-64.6798912809
 20
41.5720736692
 30
0.0
 11
-59.8686404619
 21
41.5192246985
 31
0.0
  0
LINE
  5
D6
330
1F
100
AcDbEntity
  8
0
  6
Continuous
 62
     7
370
    15
100
AcDbLine
 10
-65.5894755457
 20
5.2704953547
 30
0.0
 11
-65.9585134458
 21
40.3103067326
 31
0.0
  0
LINE
  5
D7
330
1F
100
AcDbEntity
  8
0
  6
Continuous
 62
     7
370
    15
100
AcDbLine
 10
-8.3006897675
 20
4.6412092343
 30
0.0
 11
-65.5894755457
 21
5.2704953547
 31
0.0
  0
LINE
  5
D8
330
1F
100
AcDbEntity
  8
0
  6
Continuous
 62
     7
370
    15
100
AcDbLine
 10
-68.6594227814
 20
0.3972481884
 30
0.0
 11
-8.2490037871
 21
-0.2663273733
 31
0.0
  0
LINE
  5
D9
330
1F
100
AcDbEntity
  8
0
  6
Continuous
 62
     7
370
    15
100
AcDbLine
 10
-69.7414675879
 20
47.7083548064
 30
0.0
 11
-59.8207981377
 21
47.5993816539
 31
0.0
  0
LINE
  5
DA
330
1F
100
AcDbEntity
  8
0
  6
Continuous
 62
     7
370
    15
100
AcDbLine
 10
-59.6010671364
 20
47.9816077066
 30
0.0
 11
-59.8207981377
 21
47.5993816539
 31
0.0
  0
LINE
  5
DB
330
1F
100
AcDbEntity
  8
0
  6
Continuous
 62
     7
370
    15
100
AcDbLine
 10
-59.6010671364
 20
47.9816077066
 30
0.0
 11
-69.5217365866
 21
48.0905808592
 31
0.0
  0
LINE
  5
DC
330
1F
100
AcDbEntity
  8
0
  6
Continuous
 62
     7
370
    15
100
AcDbLine
 10
-69.5217365866
 20
48.0905808592
 30
0.0
 11
-69.7414675879
 21
47.7083548064
 31
0.0
  0
LINE
  5
DD
330
1F
100
AcDbEntity
  8
0
  6
Continuous
 62
     7
370
    15
100
AcDbLine
 10
-64.8547552376
 20
40.4905023887
 30
0.0
 11
-64.4960545336
 21
6.4321983323
 31
0.0
  0
LINE
  5
DE
330
1F
100
AcDbEntity
  8
0
  6
Continuous
 62
     7
370
    15
100
AcDbLine
 10
-64.4960545336
 20
6.4321983323
 30
0.0
 11
-8.2011614629
 21
5.8138295821
 31
0.0
  0
LINE
  5
DF
330
1F
100
AcDbEntity
  8
0
  6
Continuous
 62
     7
370
    15
100
AcDbLine
 10
-62.820000305
 20
38.5017354238
 30
0.0
 11
-64.5778483154
 21
35.4439270018
 31
0.0
  0
LINE
  5
E0
330
1F
100
AcDbEntity
  8
0
  6
Continuous
 62
     7
370
    15
100
AcDbLine
 10
-62.84361746
 20
40.7441627128
 30
0.0
 11
-62.820000305
 21
38.5017354238
 31
0.0
  0
LINE
  5
E1
330
1F
100
AcDbEntity
  8
0
  6
Continuous
 62
     7
370
    15
100
AcDbLine
 10
-64.4960545336
 20
6.4321983323
 30
0.0
 11
-62.2987445205
 21
10.2544588597
 31
0.0
  0
LINE
  5
E2
330
1F
100
AcDbEntity
  8
0
  6
Continuous
 62
     7
370
    15
100
AcDbLine
 10
-64.6338148607
 20
40.7578993402
 30
0.0
 11
-64.5778483154
 21
35.4439270018
 31
0.0
  0
LINE
  5
E3
330
1F
100
AcDbEntity
  8
0
  6
Continuous
 62
     7
370
    15
100
AcDbLine
 10
-7.9814304616
 20
6.1960556349
 30
0.0
 11
-8.2011614629
 21
5.8138295821
 31
0.0
  0
LINE
  5
E4
330
1F
100
AcDbEntity
  8
0
  6
Continuous
 62
     7
370
    15
100
AcDbLine
 10
-6.2235824512
 20
9.2538640568
 30
0.0
 11
-6.0038514499
 21
9.6360901096
 31
0.0
  0
LINE
  5
E5
330
1F
100
AcDbEntity
  8
0
  6
Continuous
 62
     7
370
    15
100
AcDbLine
 10
-6.2235824512
 20
9.2538640568
 30
0.0
 11
-13.0410228666
 21
9.328749928
 31
0.0
  0
LINE
  5
E6
330
1F
100
AcDbEntity
  8
0
  6
Continuous
 62
     7
370
    15
100
AcDbLine
 10
-13.0410228666
 20
9.328749928
 30
0.0
 11
-14.7988708771
 21
6.270941506
 31
0.0
  0
LINE
  5
E7
330
1F
100
AcDbEntity
  8
0
  6
Continuous
 62
     7
370
    15
100
AcDbLine
 10
-7.9814304616
 20
6.1960556349
 30
0.0
 11
-14.7988708771
 21
6.270941506
 31
0.0
  0
LINE
  5
E8
330
1F
100
AcDbEntity
  8
0
  6
Continuous
 62
     7
370
    15
100
AcDbLine
 10
-64.6133613022
 20
38.8158526498
 30
0.0
 11
-63.121269276
 21
38.7994628313
 31
0.0
  0
LINE
  5
E9
330
1F
100
AcDbEntity
  8
0
  6
Continuous
 62
     7
370
    15
100
AcDbLine
 10
-71.7250017448
 20
36.9527129903
 30
0.0
 11
-69.9323932642
 21
36.9330221621
 31
0.0
  0
LINE
  5
EA
330
1F
100
AcDbEntity
  8
0
  6
Continuous
 62
     7
370
    15
100
AcDbLine
 10
-71.6047752097
 20
37.1618492236
 30
0.0
 11
-71.7250017448
 21
36.9527129903
 31
0.0
  0
LINE
  5
EB
330
1F
100
AcDbEntity
  8
0
  6
Continuous
 62
     7
370
    15
100
AcDbLine
 10
-71.6047752097
 20
37.1618492236
 30
0.0
 11
-69.9346100439
 21
37.1435033686
 31
0.0
  0
LINE
  5
EC
330
1F
100
AcDbEntity
  8
0
  6
Continuous
 62
     7
370
    15
100
AcDbLine
 10
-71.3851336116
 20
37.5439197579
 30
0.0
 11
-69.9386598739
 21
37.5280310314
 31
0.0
  0
LINE
  5
ED
330
1F
100
AcDbEntity
  8
0
  6
Continuous
 62
     7
370
    15
100
AcDbLine
 10
-71.2649070764
 20
37.7530559912
 30
0.0
 11
-71.3851336116
 21
37.5439197579
 31
0.0
  0
LINE
  5
EE
330
1F
100
AcDbEntity
  8
0
  6
Continuous
 62
     7
370
    15
100
AcDbLine
 10
-71.2649070764
 20
37.7530559912
 30
0.0
 11
-69.9408766536
 21
37.7385122379
 31
0.0
  0
LINE
  5
EF
330
1F
100
AcDbEntity
  8
0
  6
Continuous
 62
     7
370
    15
100
AcDbLine
 10
-13.0410228666
 20
9.328749928
 30
0.0
 11
-13.0086110386
 21
6.2512764764
 31
0.0
  0
LINE
  5
F0
330
1F
100
AcDbEntity
  8
0
  6
Continuous
 62
     7
370
    15
100
AcDbLine
 10
-71.6931747587
 20
33.9307697449
 30
0.0
 11
-69.9005662781
 21
33.9110789167
 31
0.0
  0
LINE
  5
F1
330
1F
100
AcDbEntity
  8
0
  6
Continuous
 62
     7
370
    15
100
AcDbLine
 10
-72.0200683983
 20
36.6615360049
 30
0.0
 11
-71.9944437298
 21
34.2284971524
 31
0.0
  0
LINE
  5
F2
330
1F
100
AcDbEntity
  8
0
  6
Continuous
 62
     7
370
    15
100
AcDbLine
 10
-71.6791532951
 20
37.153333934
 30
0.0
 11
-71.680200265
 21
37.2527427725
 31
0.0
  0
LINE
  5
F3
330
1F
100
AcDbEntity
  8
0
  6
Continuous
 62
     7
370
    15
100
AcDbLine
 10
-57.92144143
 20
44.1705189467
 30
0.0
 11
-61.5156049983
 21
44.2099988767
 31
0.0
  0
LINE
  5
F4
330
1F
100
AcDbEntity
  8
0
  6
Continuous
 62
     7
370
    15
100
AcDbLine
 10
-57.843219126
 20
51.0394161286
 30
0.0
 11
-67.7638885762
 21
51.1483892811
 31
0.0
  0
LINE
  5
F5
330
1F
100
AcDbEntity
  8
0
  6
Continuous
 62
     7
370
    15
100
AcDbLine
 10
-68.0589552296
 20
50.8572122957
 30
0.0
 11
-68.0296445604
 21
48.0741910406
 31
0.0
  0
LINE
  5
F6
330
1F
100
AcDbEntity
  8
0
  6
Continuous
 62
     7
370
    15
100
AcDbLine
 10
-57.843219126
 20
51.0394161286
 30
0.0
 11
-57.6234881247
 21
51.4216421813
 31
0.0
  0
LINE
  5
F7
330
1F
100
AcDbEntity
  8
0
  6
Continuous
 62
     7
370
    15
100
AcDbLine
 10
-67.5441575749
 20
51.5306153338
 30
0.0
 11
-67.7638885762
 21
51.1483892811
 31
0.0
  0
LINE
  5
F8
330
1F
100
AcDbEntity
  8
0
  6
Continuous
 62
     7
370
    15
100
AcDbLine
 10
-57.6234881247
 20
51.4216421813
 30
0.0
 11
-67.5441575749
 21
51.5306153338
 31
0.0
  0
LINE
  5
F9
330
1F
100
AcDbEntity
  8
0
  6
Continuous
 62
     7
370
    15
100
AcDbLine
 10
-67.7981712335
 20
51.3907277456
 30
0.0
 11
-67.8011427077
 21
51.3856794272
 31
0.0
  0
LINE
  5
FA
330
1F
100
AcDbEntity
  8
0
  6
Continuous
 62
     7
370
    15
100
AcDbLine
 10
-9.8959683235
 20
2.4244468049
 30
0.0
 11
-6.3018047552
 21
2.384966875
 31
0.0
  0
LINE
  5
FB
330
1F
100
AcDbEntity
  8
0
  6
Continuous
 62
     7
370
    15
100
AcDbLine
 10
-62.292627794
 20
10.2697463066
 30
0.0
 11
-62.2987445205
 21
10.2544588597
 31
0.0
  0
LINE
  5
FC
330
1F
100
AcDbEntity
  8
0
  6
Continuous
 62
     7
370
    15
100
AcDbLine
 10
-71.621519916
 20
10.4399355619
 30
0.0
 11
-69.6531414121
 21
10.4183139957
 31
0.0
  0
LINE
  5
FD
330
1F
100
AcDbEntity
  8
0
  6
Continuous
 62
     7
370
    15
100
AcDbLine
 10
-69.7080524899
 20
15.6320706507
 30
0.0
 11
-71.621519916
 21
10.4399355619
 31
0.0
  0
LINE
  5
FE
330
1F
100
AcDbEntity
  8
0
  6
Continuous
 62
     7
370
    15
100
AcDbLine
 10
-64.7190139634
 20
40.7266267913
 30
0.0
 11
-64.8547552376
 21
40.4905023887
 31
0.0
  0
LINE
  5
FF
330
1F
100
AcDbEntity
  8
0
  6
Continuous
 62
     7
370
    15
100
AcDbLine
 10
-62.2987445205
 20
10.2544588597
 30
0.0
 11
-62.6198349802
 21
40.7417045841
 31
0.0
  0
LINE
  5
100
330
1F
100
AcDbEntity
  8
0
  6
Continuous
 62
     7
370
    15
100
AcDbLine
 10
-6.0038514499
 20
9.6360901096
 30
0.0
 11
-35.9331945012
 21
9.9648476477
 31
0.0
  0
LINE
  5
101
330
1F
100
AcDbEntity
  8
0
  6
Continuous
 62
     7
370
    15
100
AcDbLine
 10
-40.9340503372
 20
10.0197793263
 30
0.0
 11
-62.2987445205
 21
10.2544588597
 31
0.0
  0
LINE
  5
102
330
1F
100
AcDbEntity
  8
0
  6
Continuous
 62
     7
370
    15
100
AcDbLine
 10
-64.5863476648
 20
36.2509324638
 30
0.0
 11
-63.121269276
 21
38.7994628313
 31
0.0
  0
LINE
  5
103
330
1F
100
AcDbEntity
  8
0
  6
Continuous
 62
     7
370
    15
100
AcDbLine
 10
-57.6234881247
 20
51.4216421813
 30
0.0
 11
-57.6021683677
 21
51.4400745496
 31
0.0
  0
LINE
  5
104
330
1F
100
AcDbEntity
  8
0
  6
Continuous
 62
     7
370
    15
100
AcDbLine
 10
-67.5441575749
 20
51.5306153338
 30
0.0
 11
-67.5098505828
 21
51.5489050445
 31
0.0
  0
LINE
  5
105
330
1F
100
AcDbEntity
  8
0
  6
Continuous
 62
     7
370
    15
100
AcDbLine
 10
-5.9825215885
 20
9.6545223637
 30
0.0
 11
-6.0038514499
 21
9.6360901096
 31
0.0
  0
ARC
  5
106
330
1F
100
AcDbEntity
  8
0
  6
Continuous
 62
     7
370
    15
100
AcDbCircle
 10
-59.869705887
 20
43.9732539586
 30
0.0
 40
2.454029491384649
100
AcDbArc
 50
270.0248751547
 51
91.1819539682
  0
ARC
  5
107
330
1F
100
AcDbEntity
  8
0
  6
Continuous
 62
     7
370
    15
100
AcDbCircle
 10
-64.7063481381
 20
40.3201492039
 30
0.0
 40
1.252203989767173
100
AcDbArc
 50
88.7893513552
 51
180.450356237
  0
ARC
  5
108
330
1F
100
AcDbEntity
  8
0
  6
Continuous
 62
     7
370
    15
100
AcDbCircle
 10
-8.2500692122
 20
2.1877018868
 30
0.0
 40
2.454029491384638
100
AcDbArc
 50
270.0248751547
 51
91.1819539682
  0
ARC
  5
109
330
1F
100
AcDbEntity
  8
0
  6
Continuous
 62
     7
370
    15
100
AcDbCircle
 10
-55.8323137474
 20
46.670317722
 30
0.0
 40
4.095261593804955
100
AcDbArc
 50
166.8875378801
 51
183.4095487806
  0
ARC
  5
10A
330
1F
100
AcDbEntity
  8
0
  6
Continuous
 62
     7
370
    15
100
AcDbCircle
 10
-67.2331262308
 20
48.2347034633
 30
0.0
 40
2.562970790431385
100
AcDbArc
 50
191.8509616647
 51
221.749277982
  0
ARC
  5
10B
330
1F
100
AcDbEntity
  8
0
  6
Continuous
 62
     7
370
    15
100
AcDbCircle
 10
-59.5417615556
 20
44.5865591236
 30
0.0
 40
2.006801975338034
100
AcDbArc
 50
160.9364397593
 51
319.2767925412
  0
ARC
  5
10C
330
1F
100
AcDbEntity
  8
0
  6
Continuous
 62
     7
370
    15
100
AcDbCircle
 10
-59.5989758231
 20
44.4829189394
 30
0.0
 40
3.498689392308996
100
AcDbArc
 50
331.2852362554
 51
90.0342480919
  0
ARC
  5
10D
330
1F
100
AcDbEntity
  8
0
  6
Continuous
 62
     7
370
    15
100
AcDbCircle
 10
-72.7741443727
 20
4.0679016939
 30
0.0
 40
5.514039438656004
100
AcDbArc
 50
305.9209701729
 51
318.2645425632
  0
ARC
  5
10E
330
1F
100
AcDbEntity
  8
0
  6
Continuous
 62
     7
370
    15
100
AcDbCircle
 10
-65.7186992058
 20
42.3119054407
 30
0.0
 40
2.015913752663295
100
AcDbArc
 50
263.1678823312
 51
295.3763336822
  0
ARC
  5
10F
330
1F
100
AcDbEntity
  8
0
  6
Continuous
 62
     7
370
    15
100
AcDbCircle
 10
-74.8485159625
 20
15.0807405054
 30
0.0
 40
13.4896530480604
100
AcDbArc
 50
313.3443053761
 51
320.1243052498
  0
ARC
  5
110
330
1F
100
AcDbEntity
  8
0
  6
Continuous
 62
     7
370
    15
100
AcDbCircle
 10
-4.2126770726
 20
4.8847656502
 30
0.0
 40
4.095261593805125
100
AcDbArc
 50
166.8875378801
 51
183.4095487806
  0
ARC
  5
111
330
1F
100
AcDbEntity
  8
0
  6
Continuous
 62
     7
370
    15
100
AcDbCircle
 10
-69.5268750959
 20
47.7993944428
 30
0.0
 40
0.2912317519351629
100
AcDbArc
 50
88.9890176023
 51
149.8557244637
  0
ARC
  5
112
330
1F
100
AcDbEntity
  8
0
  6
Continuous
 62
     7
370
    15
100
AcDbCircle
 10
-7.9221248808
 20
2.8010070518
 30
0.0
 40
2.006801975338024
100
AcDbArc
 50
160.9364397593
 51
319.2767925412
  0
ARC
  5
113
330
1F
100
AcDbEntity
  8
0
  6
Continuous
 62
     7
370
    15
100
AcDbCircle
 10
-7.9793391483
 20
2.6973668676
 30
0.0
 40
3.498689392308982
100
AcDbArc
 50
331.2852362554
 51
90.0342480919
  0
ARC
  5
114
330
1F
100
AcDbEntity
  8
0
  6
Continuous
 62
     7
370
    15
100
AcDbCircle
 10
-37.9203183059
 20
11.2530549843
 30
0.0
 40
3.741553198386717
100
AcDbArc
 50
258.1596729024
 51
302.4361026155
  0
ARC
  5
115
330
1F
100
AcDbEntity
  8
0
  6
Continuous
 62
     7
370
    15
100
AcDbCircle
 10
-39.2483263733
 20
10.5391055383
 30
0.0
 40
3.000768402797049
100
AcDbArc
 50
236.3013681603
 51
280.7613143879
  0
ARC
  5
116
330
1F
100
AcDbEntity
  8
0
  6
Continuous
 62
     7
370
    15
100
AcDbCircle
 10
-63.1238450446
 20
38.4955663881
 30
0.0
 40
0.3039073588948731
100
AcDbArc
 50
1.1631307281
 51
89.5143834866
  0
ARC
  5
117
330
1F
100
AcDbEntity
  8
0
  6
Continuous
 62
     7
370
    15
100
AcDbCircle
 10
-71.7311071734
 20
36.6638073445
 30
0.0
 40
0.2889701514847335
100
AcDbArc
 50
88.7893513552
 51
180.450356237
  0
ARC
  5
118
330
1F
100
AcDbEntity
  8
0
  6
Continuous
 62
     7
370
    15
100
AcDbCircle
 10
-71.6905989902
 20
34.2346661881
 30
0.0
 40
0.3039073588948733
100
AcDbArc
 50
181.1631307281
 51
269.5143834866
  0
ARC
  5
119
330
1F
100
AcDbEntity
  8
0
  6
Continuous
 62
     7
370
    15
100
AcDbCircle
 10
-71.609913719
 20
36.8706628073
 30
0.0
 40
0.2912317519351345
100
AcDbArc
 50
88.9890176023
 51
149.8557244637
  0
ARC
  5
11A
330
1F
100
AcDbEntity
  8
0
  6
Continuous
 62
     7
370
    15
100
AcDbCircle
 10
-71.3912390402
 20
37.255014112
 30
0.0
 40
0.2889701514847371
100
AcDbArc
 50
88.7893513552
 51
180.450356237
  0
ARC
  5
11B
330
1F
100
AcDbEntity
  8
0
  6
Continuous
 62
     7
370
    15
100
AcDbCircle
 10
-71.2700455858
 20
37.4618695749
 30
0.0
 40
0.2912317519351274
100
AcDbArc
 50
88.9890176023
 51
149.8557244637
  0
ARC
  5
11C
330
1F
100
AcDbEntity
  8
0
  6
Continuous
 62
     7
370
    15
100
AcDbCircle
 10
-57.7978399276
 20
47.5842864815
 30
0.0
 40
3.455427636345905
100
AcDbArc
 50
299.6615429001
 51
90.7524716372
  0
ARC
  5
11D
330
1F
100
AcDbEntity
  8
0
  6
Continuous
 62
     7
370
    15
100
AcDbCircle
 10
-67.7699940048
 20
50.8594836353
 30
0.0
 40
0.2889701514847269
100
AcDbArc
 50
88.7893513552
 51
180.450356237
  0
ARC
  5
11E
330
1F
100
AcDbEntity
  8
0
  6
Continuous
 62
     7
370
    15
100
AcDbCircle
 10
-57.8110927425
 20
47.5846274992
 30
0.0
 40
1.982597315581392
100
AcDbArc
 50
311.5207493885
 51
90.4803299032
  0
ARC
  5
11F
330
1F
100
AcDbEntity
  8
0
  6
Continuous
 62
     7
370
    15
100
AcDbCircle
 10
-57.8665654718
 20
47.6375804121
 30
0.0
 40
1.929965840084341
100
AcDbArc
 50
88.8465008153
 51
169.6773970701
  0
ARC
  5
120
330
1F
100
AcDbEntity
  8
0
  6
Continuous
 62
     7
370
    15
100
AcDbCircle
 10
-57.5408258876
 20
48.219514535
 30
0.0
 40
1.924630143320738
100
AcDbArc
 50
160.1461321096
 51
187.2474381494
  0
ARC
  5
121
330
1F
100
AcDbEntity
  8
0
  6
Continuous
 62
     7
370
    15
100
AcDbCircle
 10
-57.4093063401
 20
48.1439732438
 30
0.0
 40
1.924768290463265
100
AcDbArc
 50
292.9667852739
 51
320.0661090683
  0
ARC
  5
122
330
1F
100
AcDbEntity
  8
0
  6
Continuous
 62
     7
370
    15
100
AcDbCircle
 10
-6.1782032528
 20
5.7987344097
 30
0.0
 40
3.455427636345903
100
AcDbArc
 50
299.6615429001
 51
90.7524716372
  0
ARC
  5
123
330
1F
100
AcDbEntity
  8
0
  6
Continuous
 62
     7
370
    15
100
AcDbCircle
 10
-6.1914560677
 20
5.7990754274
 30
0.0
 40
1.982597315581233
100
AcDbArc
 50
311.5207493883
 51
90.4803299032
  0
ARC
  5
124
330
1F
100
AcDbEntity
  8
0
  6
Continuous
 62
     7
370
    15
100
AcDbCircle
 10
-6.246928797
 20
5.8520283403
 30
0.0
 40
1.929965840084342
100
AcDbArc
 50
88.8465008153
 51
169.6773970701
  0
ARC
  5
125
330
1F
100
AcDbEntity
  8
0
  6
Continuous
 62
     7
370
    15
100
AcDbCircle
 10
-5.9211892128
 20
6.4339624633
 30
0.0
 40
1.924630143315268
100
AcDbArc
 50
160.1461321097
 51
187.2474381485
  0
ARC
  5
126
330
1F
100
AcDbEntity
  8
0
  6
Continuous
 62
     7
370
    15
100
AcDbCircle
 10
-5.7896696653
 20
6.3584211721
 30
0.0
 40
1.92476829046395
100
AcDbArc
 50
292.9667852748
 51
320.0661090682
  0
ARC
  5
127
330
1F
100
AcDbEntity
  8
0
  6
Continuous
 62
     7
370
    15
100
AcDbCircle
 10
-59.8187627791
 20
44.1005960091
 30
0.0
 40
3.498786236865106
100
AcDbArc
 50
331.3621444742
 51
90.0333308359
  0
ARC
  5
128
330
1F
100
AcDbEntity
  8
0
  6
Continuous
 62
     7
370
    15
100
AcDbCircle
 10
-58.3325626705
 20
41.2965508085
 30
0.0
 40
1.552133577580753
100
AcDbArc
 50
171.7517093447
 51
202.1877742796
  0
ARC
  5
129
330
1F
100
AcDbEntity
  8
0
  6
Continuous
 62
     7
370
    15
100
AcDbCircle
 10
-68.0483280153
 20
48.5687266676
 30
0.0
 40
2.316780639307709
100
AcDbArc
 50
210.5993377487
 51
241.7397482754
  0
ARC
  5
12A
330
1F
100
AcDbEntity
  8
0
  6
Continuous
 62
     7
370
    15
100
AcDbCircle
 10
-69.7466177054
 20
47.4172131327
 30
0.0
 40
0.2911872213508293
100
AcDbArc
 50
88.9865785351
 51
150.4046491539
  0
ARC
  5
12B
330
1F
100
AcDbEntity
  8
0
  6
Continuous
 62
     7
370
    15
100
AcDbCircle
 10
-63.143921329
 20
41.3493933964
 30
0.0
 40
1.55202776938603
100
AcDbArc
 50
171.7509050111
 51
202.1891145924
  0
ARC
  5
12C
330
1F
100
AcDbEntity
  8
0
  6
Continuous
 62
     7
370
    15
100
AcDbCircle
 10
-64.5677528596
 20
40.4938474584
 30
0.0
 40
0.2870218710120493
100
AcDbArc
 50
150.5500269212
 51
180.6677634491
  0
ARC
  5
12D
330
1F
100
AcDbEntity
  8
0
  6
Continuous
 62
     7
370
    15
100
AcDbCircle
 10
-8.1991261042
 20
2.3150439373
 30
0.0
 40
3.498786236865098
100
AcDbArc
 50
331.3621444742
 51
90.0333308359
  0
ARC
  5
12E
330
1F
100
AcDbEntity
  8
0
  6
Continuous
 62
     7
370
    15
100
AcDbCircle
 10
-6.7132350698
 20
-0.4890195567
 30
0.0
 40
1.551830326320996
100
AcDbArc
 50
171.7494037894
 51
202.1916160719
  0
ARC
  5
12F
330
1F
100
AcDbEntity
  8
0
  6
Continuous
 62
     7
370
    15
100
AcDbCircle
 10
-57.6213968113
 20
47.922953414
 30
0.0
 40
3.498689392308996
100
AcDbArc
 50
331.2852362554
 51
90.0342480919
  0
ARC
  5
130
330
1F
100
AcDbEntity
  8
0
  6
Continuous
 62
     7
370
    15
100
AcDbCircle
 10
-67.5492709552
 20
51.2393323821
 30
0.0
 40
0.2913278301308255
100
AcDbArc
 50
88.9942939577
 51
148.6896445471
  0
ARC
  5
131
330
1F
100
AcDbEntity
  8
0
  6
Continuous
 62
     7
370
    15
100
AcDbCircle
 10
-6.0017601365
 20
6.1374013423
 30
0.0
 40
3.498689392308978
100
AcDbArc
 50
331.2852362554
 51
90.0342480919
  0
MTEXT
  5
133
330
1F
100
AcDbEntity
  8
0
  6
Continuous
 62
     7
100
AcDbMText
 10
-72.0200773249
 20
-2.0947204916
 30
0.0
 40
4.83362
 41
0.0
 71
     1
 72
     1
  1
SolidWorks Educational Edition.
  7
SLDTEXTSTYLE0
 73
     1
 44
1.0
  0
MTEXT
  5
134
330
1F
100
AcDbEntity
  8
0
  6
Continuous
 62
     7
100
AcDbMText
 10
-72.0200773249
 20
-9.3451504916
 30
0.0
 40
4.83362
 41
0.0
 71
     1
 72
     1
  1
For Instructional Use Only.
  7
SLDTEXTSTYLE0
 73
     1
 44
1.0
  0
ENDSEC
  0
SECTION
  2
OBJECTS
  0
DICTIONARY
  5
C
330
0
100
AcDbDictionary
281
     1
  3
ACAD_GROUP
350
D
  3
ACAD_LAYOUT
350
1A
  3
ACAD_MLINESTYLE
350
17
  3
ACAD_PLOTSETTINGS
350
19
  3
ACAD_PLOTSTYLENAME
350
E
  0
DICTIONARY
  5
D
102
{ACAD_REACTORS
330
C
102
}
330
C
100
AcDbDictionary
281
     1
  0
DICTIONARY
  5
1A
102
{ACAD_REACTORS
330
C
102
}
330
C
100
AcDbDictionary
281
     1
  3
Layout1
350
1E
  3
Layout2
350
26
  3
Model
350
22
  0
DICTIONARY
  5
17
102
{ACAD_REACTORS
330
C
102
}
330
C
100
AcDbDictionary
281
     1
  3
Standard
350
18
  0
DICTIONARY
  5
19
102
{ACAD_REACTORS
330
C
102
}
330
C
100
AcDbDictionary
281
     1
  0
ACDBDICTIONARYWDFLT
  5
E
102
{ACAD_REACTORS
330
C
102
}
330
C
100
AcDbDictionary
281
     1
  3
Normal
350
F
100
AcDbDictionaryWithDefault
340
F
  0
LAYOUT
  5
1E
102
{ACAD_REACTORS
330
1A
102
}
330
1A
100
AcDbPlotSettings
  1

  2
none_device
  4

  6

 40
0.0
 41
0.0
 42
0.0
 43
0.0
 44
0.0
 45
0.0
 46
0.0
 47
0.0
 48
0.0
 49
0.0
140
0.0
141
0.0
142
1.0
143
1.0
 70
   688
 72
     0
 73
     0
 74
     5
  7

 75
    16
147
1.0
148
0.0
149
0.0
100
AcDbLayout
  1
Layout1
 70
     1
 71
     1
 10
0.0
 20
0.0
 11
420.0
 21
297.0
 12
0.0
 22
0.0
 32
0.0
 14
1.0000000000E+20
 24
1.0000000000E+20
 34
1.0000000000E+20
 15
-1.0000000000E+20
 25
-1.0000000000E+20
 35
-1.0000000000E+20
146
0.0
 13
0.0
 23
0.0
 33
0.0
 16
1.0
 26
0.0
 36
0.0
 17
0.0
 27
1.0
 37
0.0
 76
     0
330
1B
  0
LAYOUT
  5
26
102
{ACAD_REACTORS
330
1A
102
}
330
1A
100
AcDbPlotSettings
  1

  2
none_device
  4

  6

 40
0.0
 41
0.0
 42
0.0
 43
0.0
 44
0.0
 45
0.0
 46
0.0
 47
0.0
 48
0.0
 49
0.0
140
0.0
141
0.0
142
1.0
143
1.0
 70
   688
 72
     0
 73
     0
 74
     5
  7

 75
    16
147
1.0
148
0.0
149
0.0
100
AcDbLayout
  1
Layout2
 70
     1
 71
     2
 10
0.0
 20
0.0
 11
0.0
 21
0.0
 12
0.0
 22
0.0
 32
0.0
 14
0.0
 24
0.0
 34
0.0
 15
0.0
 25
0.0
 35
0.0
146
0.0
 13
0.0
 23
0.0
 33
0.0
 16
1.0
 26
0.0
 36
0.0
 17
0.0
 27
1.0
 37
0.0
 76
     0
330
23
  0
LAYOUT
  5
22
102
{ACAD_REACTORS
330
1A
102
}
330
1A
100
AcDbPlotSettings
  1

  2
none_device
  4
ANSI_A_(11.00_x_8.50_Inches)
  6

 40
6.35
 41
19.05
 42
6.35000508
 43
19.05000254
 44
279.4
 45
215.9
 46
281.5292123548
 47
-11.4904299658
 48
0.0
 49
0.0
140
0.0
141
0.0
142
0.1566067099
143
1.0
 70
  1696
 72
     0
 73
     0
 74
     0
  7

 75
     0
147
0.0179189148
148
0.0
149
0.0
100
AcDbLayout
  1
Model
 70
     1
 71
     0
 10
0.0
 20
0.0
 11
420.0
 21
297.0
 12
0.0
 22
0.0
 32
0.0
 14
-72.0200773249
 24
-1.0751540999
 34
0.0
 15
-2.482826938
 25
51.5503742808
 35
0.0
146
0.0
 13
0.0
 23
0.0
 33
0.0
 16
1.0
 26
0.0
 36
0.0
 17
0.0
 27
1.0
 37
0.0
 76
     0
330
1F
331
29
  0
MLINESTYLE
  5
18
102
{ACAD_REACTORS
330
17
102
}
330
17
100
AcDbMlineStyle
  2
Standard
 70
     0
  3

 62
   256
 51
90.0
 52
90.0
 71
     2
 49
0.5
 62
   256
  6
BYLAYER
 49
-0.5
 62
   256
  6
BYLAYER
  0
ACDBPLACEHOLDER
  5
F
102
{ACAD_REACTORS
330
E
102
}
330
E
  0
ENDSEC
  0
EOF
