  0
SECTION
  2
HEADER
  9
$ACADVER
  1
AC1015
  9
$ACADMAINTVER
 70
     6
  9
$DWGCODEPAGE
  3
ANSI_1252
  9
$INSBASE
 10
0.0
 20
0.0
 30
0.0
  9
$EXTMIN
 10
-16.5872842833
 20
-3.5295966602
 30
0.0
  9
$EXTMAX
 10
3.5374187511
 20
16.7006896734
 30
0.0
  9
$LIMMIN
 10
0.0
 20
0.0
  9
$LIMMAX
 10
420.0
 20
297.0
  9
$ORTHOMODE
 70
     0
  9
$REGENMODE
 70
     1
  9
$FILLMODE
 70
     1
  9
$QTEXTMODE
 70
     0
  9
$MIRRTEXT
 70
     1
  9
$LTSCALE
 40
1.0
  9
$ATTMODE
 70
     1
  9
$TEXTSIZE
 40
2.5
  9
$TRACEWID
 40
1.0
  9
$TEXTSTYLE
  7
Standard
  9
$CLAYER
  8
0
  9
$CELTYPE
  6
ByLayer
  9
$CECOLOR
 62
   256
  9
$CELTSCALE
 40
1.0
  9
$DISPSILH
 70
     0
  9
$DIMSCALE
 40
1.0
  9
$DIMASZ
 40
6.0
  9
$DIMEXO
 40
1.0
  9
$DIMDLI
 40
3.75
  9
$DIMRND
 40
0.0
  9
$DIMDLE
 40
0.0
  9
$DIMEXE
 40
1.0
  9
$DIMTP
 40
0.0
  9
$DIMTM
 40
0.0
  9
$DIMTXT
 40
2.5
  9
$DIMCEN
 40
2.5
  9
$DIMTSZ
 40
0.0
  9
$DIMTOL
 70
     0
  9
$DIMLIM
 70
     0
  9
$DIMTIH
 70
     1
  9
$DIMTOH
 70
     1
  9
$DIMSE1
 70
     0
  9
$DIMSE2
 70
     0
  9
$DIMTAD
 70
     1
  9
$DIMZIN
 70
     0
  9
$DIMBLK
  1

  9
$DIMASO
 70
     1
  9
$DIMSHO
 70
     1
  9
$DIMPOST
  1

  9
$DIMAPOST
  1

  9
$DIMALT
 70
     0
  9
$DIMALTD
 70
     3
  9
$DIMALTF
 40
0.0393700787
  9
$DIMLFAC
 40
1.0
  9
$DIMTOFL
 70
     1
  9
$DIMTVP
 40
0.0
  9
$DIMTIX
 70
     0
  9
$DIMSOXD
 70
     0
  9
$DIMSAH
 70
     0
  9
$DIMBLK1
  1

  9
$DIMBLK2
  1

  9
$DIMSTYLE
  2
ISO-25
  9
$DIMCLRD
 70
     0
  9
$DIMCLRE
 70
     0
  9
$DIMCLRT
 70
     0
  9
$DIMTFAC
 40
1.0
  9
$DIMGAP
 40
1.524
  9
$DIMJUST
 70
     0
  9
$DIMSD1
 70
     0
  9
$DIMSD2
 70
     0
  9
$DIMTOLJ
 70
     0
  9
$DIMTZIN
 70
     0
  9
$DIMALTZ
 70
     0
  9
$DIMALTTZ
 70
     0
  9
$DIMUPT
 70
     0
  9
$DIMDEC
 70
     2
  9
$DIMTDEC
 70
     2
  9
$DIMALTU
 70
     2
  9
$DIMALTTD
 70
     3
  9
$DIMTXSTY
  7
Standard
  9
$DIMAUNIT
 70
     0
  9
$DIMADEC
 70
     2
  9
$DIMALTRND
 40
0.0
  9
$DIMAZIN
 70
     0
  9
$DIMDSEP
 70
    44
  9
$DIMATFIT
 70
     3
  9
$DIMFRAC
 70
     0
  9
$DIMLDRBLK
  1

  9
$DIMLUNIT
 70
     2
  9
$DIMLWD
 70
    -2
  9
$DIMLWE
 70
    -2
  9
$DIMTMOVE
 70
     0
  9
$LUNITS
 70
     2
  9
$LUPREC
 70
     2
  9
$SKETCHINC
 40
1.0
  9
$FILLETRAD
 40
10.0
  9
$AUNITS
 70
     0
  9
$AUPREC
 70
     2
  9
$MENU
  1
.
  9
$ELEVATION
 40
0.0
  9
$PELEVATION
 40
0.0
  9
$THICKNESS
 40
0.0
  9
$LIMCHECK
 70
     0
  9
$CHAMFERA
 40
10.0
  9
$CHAMFERB
 40
10.0
  9
$CHAMFERC
 40
20.0
  9
$CHAMFERD
 40
0.0
  9
$SKPOLY
 70
     0
  9
$TDCREATE
 40
2456560.913140544
  9
$TDUCREATE
 40
2456560.413140544
  9
$TDUPDATE
 40
2456560.913188391
  9
$TDUUPDATE
 40
2456560.413188391
  9
$TDINDWG
 40
0.0000000116
  9
$TDUSRTIMER
 40
0.0000000116
  9
$USRTIMER
 70
     1
  9
$ANGBASE
 50
0.0
  9
$ANGDIR
 70
     0
  9
$PDMODE
 70
     0
  9
$PDSIZE
 40
-1.0
  9
$PLINEWID
 40
0.0
  9
$SPLFRAME
 70
     0
  9
$SPLINETYPE
 70
     6
  9
$SPLINESEGS
 70
     8
  9
$HANDSEED
  5
54
  9
$SURFTAB1
 70
     6
  9
$SURFTAB2
 70
     6
  9
$SURFTYPE
 70
     6
  9
$SURFU
 70
     6
  9
$SURFV
 70
     6
  9
$UCSBASE
  2

  9
$UCSNAME
  2

  9
$UCSORG
 10
0.0
 20
0.0
 30
0.0
  9
$UCSXDIR
 10
1.0
 20
0.0
 30
0.0
  9
$UCSYDIR
 10
0.0
 20
1.0
 30
0.0
  9
$UCSORTHOREF
  2

  9
$UCSORTHOVIEW
 70
     0
  9
$UCSORGTOP
 10
0.0
 20
0.0
 30
0.0
  9
$UCSORGBOTTOM
 10
0.0
 20
0.0
 30
0.0
  9
$UCSORGLEFT
 10
0.0
 20
0.0
 30
0.0
  9
$UCSORGRIGHT
 10
0.0
 20
0.0
 30
0.0
  9
$UCSORGFRONT
 10
0.0
 20
0.0
 30
0.0
  9
$UCSORGBACK
 10
0.0
 20
0.0
 30
0.0
  9
$PUCSBASE
  2

  9
$PUCSNAME
  2

  9
$PUCSORG
 10
0.0
 20
0.0
 30
0.0
  9
$PUCSXDIR
 10
1.0
 20
0.0
 30
0.0
  9
$PUCSYDIR
 10
0.0
 20
1.0
 30
0.0
  9
$PUCSORTHOREF
  2

  9
$PUCSORTHOVIEW
 70
     0
  9
$PUCSORGTOP
 10
0.0
 20
0.0
 30
0.0
  9
$PUCSORGBOTTOM
 10
0.0
 20
0.0
 30
0.0
  9
$PUCSORGLEFT
 10
0.0
 20
0.0
 30
0.0
  9
$PUCSORGRIGHT
 10
0.0
 20
0.0
 30
0.0
  9
$PUCSORGFRONT
 10
0.0
 20
0.0
 30
0.0
  9
$PUCSORGBACK
 10
0.0
 20
0.0
 30
0.0
  9
$USERI1
 70
     0
  9
$USERI2
 70
     0
  9
$USERI3
 70
     0
  9
$USERI4
 70
     0
  9
$USERI5
 70
     0
  9
$USERR1
 40
0.0
  9
$USERR2
 40
0.0
  9
$USERR3
 40
0.0
  9
$USERR4
 40
0.0
  9
$USERR5
 40
0.0
  9
$WORLDVIEW
 70
     1
  9
$SHADEDGE
 70
     3
  9
$SHADEDIF
 70
    70
  9
$TILEMODE
 70
     1
  9
$MAXACTVP
 70
    64
  9
$PINSBASE
 10
0.0
 20
0.0
 30
0.0
  9
$PLIMCHECK
 70
     0
  9
$PEXTMIN
 10
1.0000000000E+20
 20
1.0000000000E+20
 30
1.0000000000E+20
  9
$PEXTMAX
 10
-1.0000000000E+20
 20
-1.0000000000E+20
 30
-1.0000000000E+20
  9
$PLIMMIN
 10
0.0
 20
0.0
  9
$PLIMMAX
 10
420.0
 20
297.0
  9
$UNITMODE
 70
     0
  9
$VISRETAIN
 70
     1
  9
$PLINEGEN
 70
     0
  9
$PSLTSCALE
 70
     1
  9
$TREEDEPTH
 70
  3020
  9
$CMLSTYLE
  2
Standard
  9
$CMLJUST
 70
     0
  9
$CMLSCALE
 40
20.0
  9
$PROXYGRAPHICS
 70
     1
  9
$MEASUREMENT
 70
     1
  9
$CELWEIGHT
370
    -1
  9
$ENDCAPS
280
     0
  9
$JOINSTYLE
280
     0
  9
$LWDISPLAY
290
     1
  9
$INSUNITS
 70
     4
  9
$HYPERLINKBASE
  1

  9
$STYLESHEET
  1

  9
$XEDIT
290
     1
  9
$CEPSNTYPE
380
     0
  9
$PSTYLEMODE
290
     1
  9
$FINGERPRINTGUID
  2
{A728B50C-A6E2-460F-8136-2F28B8B8C79F}
  9
$VERSIONGUID
  2
{FAEB1C32-E019-11D5-929B-00C0DF256EC4}
  9
$EXTNAMES
290
     1
  9
$PSVPSCALE
 40
0.0
  9
$OLESTARTUP
290
     0
  0
ENDSEC
  0
SECTION
  2
CLASSES
  0
CLASS
  1
ACDBDICTIONARYWDFLT
  2
AcDbDictionaryWithDefault
  3
ObjectDBX Classes
 90
        0
280
     0
281
     0
  0
CLASS
  1
VISUALSTYLE
  2
AcDbVisualStyle
  3
ObjectDBX Classes
 90
     4095
280
     0
281
     0
  0
CLASS
  1
MATERIAL
  2
AcDbMaterial
  3
ObjectDBX Classes
 90
     1153
280
     0
281
     0
  0
CLASS
  1
ACDBPLACEHOLDER
  2
AcDbPlaceHolder
  3
ObjectDBX Classes
 90
        0
280
     0
281
     0
  0
CLASS
  1
LAYOUT
  2
AcDbLayout
  3
ObjectDBX Classes
 90
        0
280
     0
281
     0
  0
ENDSEC
  0
SECTION
  2
TABLES
  0
TABLE
  2
VPORT
  5
8
330
0
100
AcDbSymbolTable
 70
     1
  0
VPORT
  5
29
330
8
100
AcDbSymbolTableRecord
100
AcDbViewportTableRecord
  2
*Active
 70
     0
 10
0.0
 20
0.0
 11
1.0
 21
1.0
 12
-6.5249327661
 22
6.5855465066
 13
0.0
 23
0.0
 14
10.0
 24
10.0
 15
10.0
 25
10.0
 16
0.0
 26
0.0
 36
1.0
 17
0.0
 27
0.0
 37
0.0
 40
20.6348920603
 41
0.9947809291
 42
50.0
 43
0.0
 44
0.0
 50
0.0
 51
0.0
 71
     0
 72
   100
 73
     1
 74
     3
 75
     0
 76
     0
 77
     0
 78
     0
281
     0
 65
     1
110
0.0
120
0.0
130
0.0
111
1.0
121
0.0
131
0.0
112
0.0
122
1.0
132
0.0
 79
     0
146
0.0
  0
ENDTAB
  0
TABLE
  2
LTYPE
  5
5
330
0
100
AcDbSymbolTable
 70
     6
  0
LTYPE
  5
14
330
5
100
AcDbSymbolTableRecord
100
AcDbLinetypeTableRecord
  2
ByBlock
 70
     0
  3

 72
    65
 73
     0
 40
0.0
  0
LTYPE
  5
15
330
5
100
AcDbSymbolTableRecord
100
AcDbLinetypeTableRecord
  2
ByLayer
 70
     0
  3

 72
    65
 73
     0
 40
0.0
  0
LTYPE
  5
16
330
5
100
AcDbSymbolTableRecord
100
AcDbLinetypeTableRecord
  2
Continuous
 70
     0
  3
Solid line
 72
    65
 73
     0
 40
0.0
  0
LTYPE
  5
3F
330
5
100
AcDbSymbolTableRecord
100
AcDbLinetypeTableRecord
  2
HIDDEN
 70
     0
  3
Hidden __ __ __ __ __ __ __ __ __ __ __ __ __ __
 72
    65
 73
     2
 40
1.905
 49
1.27
 74
     0
 49
-0.635
 74
     0
  0
LTYPE
  5
40
330
5
100
AcDbSymbolTableRecord
100
AcDbLinetypeTableRecord
  2
PHANTOM
 70
     0
  3
Phantom ______  __  __  ______  __  __  ______
 72
    65
 73
     6
 40
12.7
 49
6.35
 74
     0
 49
-1.27
 74
     0
 49
1.27
 74
     0
 49
-1.27
 74
     0
 49
1.27
 74
     0
 49
-1.27
 74
     0
  0
LTYPE
  5
41
330
5
100
AcDbSymbolTableRecord
100
AcDbLinetypeTableRecord
  2
CENTER
 70
     0
  3
Center ____ _ ____ _ ____ _ ____ _ ____ _ ____
 72
    65
 73
     4
 40
10.16
 49
6.35
 74
     0
 49
-1.27
 74
     0
 49
1.27
 74
     0
 49
-1.27
 74
     0
  0
LTYPE
  5
42
330
5
100
AcDbSymbolTableRecord
100
AcDbLinetypeTableRecord
  2
CENTERX2
 70
     0
  3
Center (2x) ________  __  ________  __  _____
 72
    65
 73
     4
 40
20.32
 49
12.7
 74
     0
 49
-2.54
 74
     0
 49
2.54
 74
     0
 49
-2.54
 74
     0
  0
LTYPE
  5
43
330
5
100
AcDbSymbolTableRecord
100
AcDbLinetypeTableRecord
  2
DOT2
 70
     0
  3
Dot (.5x) ........................................
 72
    65
 73
     2
 40
0.635
 49
0.0
 74
     0
 49
-0.635
 74
     0
  0
ENDTAB
  0
TABLE
  2
LAYER
  5
2
330
0
100
AcDbSymbolTable
 70
     1
  0
LAYER
  5
10
330
2
100
AcDbSymbolTableRecord
100
AcDbLayerTableRecord
  2
0
 70
     0
 62
     7
  6
Continuous
370
    -3
390
F
  0
ENDTAB
  0
TABLE
  2
STYLE
  5
3
330
0
100
AcDbSymbolTable
 70
     2
  0
STYLE
  5
11
330
3
100
AcDbSymbolTableRecord
100
AcDbTextStyleTableRecord
  2
Standard
 70
     0
 40
0.0
 41
1.0
 50
0.0
 71
     0
 42
2.5
  3
txt
  4

  0
STYLE
  5
51
330
3
100
AcDbSymbolTableRecord
100
AcDbTextStyleTableRecord
  2
SLDTEXTSTYLE0
 70
     0
 40
0.0
 41
0.7
 50
0.0
 71
     0
 42
0.2
  3
TXT
  4

  0
ENDTAB
  0
TABLE
  2
VIEW
  5
6
330
0
100
AcDbSymbolTable
 70
     0
  0
ENDTAB
  0
TABLE
  2
UCS
  5
7
330
0
100
AcDbSymbolTable
 70
     0
  0
ENDTAB
  0
TABLE
  2
APPID
  5
9
330
0
100
AcDbSymbolTable
 70
     1
  0
APPID
  5
12
330
9
100
AcDbSymbolTableRecord
100
AcDbRegAppTableRecord
  2
ACAD
 70
     0
  0
ENDTAB
  0
TABLE
  2
DIMSTYLE
  5
A
330
0
100
AcDbSymbolTable
 70
     1
100
AcDbDimStyleTable
  0
DIMSTYLE
105
27
330
A
100
AcDbSymbolTableRecord
100
AcDbDimStyleTableRecord
  2
ISO-25
 70
     0
 41
2.5
 42
0.625
 43
3.75
 44
1.25
 73
     0
 74
     0
 77
     1
 78
     8
140
2.5
141
2.5
143
0.0393700787
147
0.625
171
     3
172
     1
178
     0
271
     2
272
     2
274
     3
278
    44
283
     0
284
     8
340
11
  0
ENDTAB
  0
TABLE
  2
BLOCK_RECORD
  5
1
330
0
100
AcDbSymbolTable
 70
     1
  0
BLOCK_RECORD
  5
1F
330
1
100
AcDbSymbolTableRecord
100
AcDbBlockTableRecord
  2
*Model_Space
340
22
  0
BLOCK_RECORD
  5
1B
330
1
100
AcDbSymbolTableRecord
100
AcDbBlockTableRecord
  2
*Paper_Space
340
1E
  0
BLOCK_RECORD
  5
23
330
1
100
AcDbSymbolTableRecord
100
AcDbBlockTableRecord
  2
*Paper_Space0
340
26
  0
ENDTAB
  0
ENDSEC
  0
SECTION
  2
BLOCKS
  0
BLOCK
  5
20
330
1F
100
AcDbEntity
  8
0
100
AcDbBlockBegin
  2
*Model_Space
 70
     0
 10
0.0
 20
0.0
 30
0.0
  3
*Model_Space
  1

  0
ENDBLK
  5
21
330
1F
100
AcDbEntity
  8
0
100
AcDbBlockEnd
  0
BLOCK
  5
1C
330
1B
100
AcDbEntity
 67
     1
  8
0
100
AcDbBlockBegin
  2
*Paper_Space
 70
     0
 10
0.0
 20
0.0
 30
0.0
  3
*Paper_Space
  1

  0
ENDBLK
  5
1D
330
1B
100
AcDbEntity
 67
     1
  8
0
100
AcDbBlockEnd
  0
BLOCK
  5
24
330
23
100
AcDbEntity
  8
0
100
AcDbBlockBegin
  2
*Paper_Space0
 70
     0
 10
0.0
 20
0.0
 30
0.0
  3
*Paper_Space0
  1

  0
ENDBLK
  5
25
330
23
100
AcDbEntity
  8
0
100
AcDbBlockEnd
  0
ENDSEC
  0
SECTION
  2
ENTITIES
  0
LWPOLYLINE
  5
47
330
1F
100
AcDbEntity
  8
0
  6
Continuous
 62
     7
370
    15
100
AcDbPolyline
 90
       43
 70
   128
 43
0.0
 10
-2.8417795849
 20
-2.8150113305
 10
-2.8282987846
 20
-2.8285052408
 10
-2.6674127492
 20
-2.9734952177
 10
-2.4926200587
 20
-3.1029827674
 10
-2.3048320015
 20
-3.2162928017
 10
-2.1050276174
 20
-3.3128345747
 10
-1.8942485941
 20
-3.3921047621
 10
-1.6735938356
 20
-3.4536900859
 10
-1.4442137339
 20
-3.4972694689
 10
-1.2073041704
 20
-3.5226157081
 10
-0.9641002821
 20
-3.5295966602
 10
-0.7158700213
 20
-3.5181759296
 10
-0.4639075456
 20
-3.4884130588
 10
-0.2095264709
 20
-3.4404632175
 10
0.0459469779
 20
-3.3745763941
 10
0.3011808804
 20
-3.2910960919
 10
0.5548445653
 20
-3.1904575386
 10
0.8056155475
 20
-3.0731854169
 10
1.0521864232
 20
-2.9398911295
 10
1.2932716862
 20
-2.7912696111
 10
1.5276144294
 20
-2.6280957053
 10
1.7539928983
 20
-2.4512201254
 10
1.9712268604
 20
-2.2615650188
 10
2.1781837584
 20
-2.0601191594
 10
2.3737846149
 20
-1.8479327926
 10
2.5570096575
 20
-1.6261121598
 10
2.7269036358
 20
-1.3958137312
 10
2.8825808012
 20
-1.1582381762
 10
3.023229525
 20
-0.9146241035
 10
3.1481165299
 20
-0.6662416044
 10
3.2565907129
 20
-0.4143856299
 10
3.3480865399
 20
-0.1603692407
 10
3.422126994
 20
0.0944832395
 10
3.4783260624
 20
0.3488431278
 10
3.5163907494
 20
0.6013843096
 10
3.5361226032
 20
0.850790152
 10
3.5374187511
 20
1.0957603686
 10
3.5202724356
 20
1.3350177979
 10
3.4847730496
 20
1.5673150627
 10
3.4311056705
 20
1.7914410724
 10
3.3595500952
 20
2.0062273378
 10
3.2704793813
 20
2.2105540629
 10
3.1643579022
 20
2.4033559827
  0
LWPOLYLINE
  5
48
330
1F
100
AcDbEntity
  8
0
  6
Continuous
 62
     7
370
    15
100
AcDbPolyline
 90
       88
 70
   128
 43
0.0
 10
-9.8838485629
 20
15.5756392875
 10
-10.0064675389
 20
15.755911222
 10
-10.1449447331
 20
15.9227133169
 10
-10.2985581898
 20
16.0751759432
 10
-10.4665070394
 20
16.2125042314
 10
-10.6479156743
 20
16.3339822155
 10
-10.841838314
 20
16.4389765654
 10
-11.0472639357
 20
16.5269398893
 10
-11.2631215451
 20
16.5974135871
 10
-11.4882857608
 20
16.6500302415
 10
-11.7215826807
 20
16.6845155337
 10
-11.9617960028
 20
16.7006896734
 10
-12.207673366
 20
16.698468336
 10
-12.4579328795
 20
16.6778631027
 10
-12.7112698063
 20
16.6389813994
 10
-12.9663633647
 20
16.5820259376
 10
-13.2218836152
 20
16.5072936564
 10
-13.4764983934
 20
16.4151741756
 10
-13.7288802558
 20
16.3061477633
 10
-13.9777134003
 20
16.1807828328
 10
-14.221700526
 20
16.0397329788
 10
-14.459569597
 20
15.8837335699
 10
-14.6900804742
 20
15.7135979149
 10
-14.9120313805
 20
15.5302130222
 10
-15.1242651668
 20
15.3345349758
 10
-15.3256753442
 20
15.1275839503
 10
-15.5152118535
 20
14.9104388927
 10
-15.691886539
 20
14.6842318966
 10
-15.8547783007
 20
14.4501423007
 10
-16.0030378964
 20
14.2093905397
 10
-16.1358923692
 20
13.9632317817
 10
-16.2526490774
 20
13.7129493847
 10
-16.3526993056
 20
13.459848205
 10
-16.4355214383
 20
13.2052477952
 10
-16.5006836791
 20
12.9504755237
 10
-16.5478463023
 20
12.6968596553
 10
-16.5767634239
 20
12.4457224256
 10
-16.5872842833
 20
12.198373148
 10
-16.5793540298
 20
11.956101387
 10
-16.5530140078
 20
11.7201702353
 10
-16.5084015422
 20
11.4918097288
 10
-16.4457492217
 20
11.2722104335
 10
-16.3653836864
 20
11.0625172382
 10
-16.2677239251
 20
10.8638233864
 10
-16.1532790904
 20
10.6771647756
 10
-16.0226458449
 20
10.5035145576
 10
-15.8765052497
 20
10.343778064
 10
-15.7156192142
 20
10.1987880871
 10
-15.5408265238
 20
10.0693005374
 10
-15.3530384666
 20
9.9559905031
 10
-15.1532340825
 20
9.8594487302
 10
-14.9424550591
 20
9.7801785427
 10
-14.7218003007
 20
9.7185932189
 10
-14.492420199
 20
9.675013836
 10
-14.2555106355
 20
9.6496675967
 10
-14.0123067472
 20
9.6426866446
 10
-13.7640764863
 20
9.6541073752
 10
-13.5121140107
 20
9.683870246
 10
-13.2577329359
 20
9.7318200873
 10
-13.0022594872
 20
9.7977069107
 10
-12.7470255847
 20
9.8811872129
 10
-12.4933618998
 20
9.9818257663
 10
-12.2425909176
 20
10.0990978879
 10
-11.9960200418
 20
10.2323921753
 10
-11.7549347789
 20
10.3810136938
 10
-11.5205920357
 20
10.5441875995
 10
-11.2942135667
 20
10.7210631794
 10
-11.0769796046
 20
10.910718286
 10
-10.8700227066
 20
11.1121641454
 10
-10.6744218502
 20
11.3243505123
 10
-10.4911968075
 20
11.546171145
 10
-10.3213028293
 20
11.7764695736
 10
-10.1656256639
 20
12.0140451287
 10
-10.0249769401
 20
12.2576592013
 10
-9.9000899352
 20
12.5060417005
 10
-9.7916157521
 20
12.7578976749
 10
-9.7001199252
 20
13.0119140641
 10
-9.6260794711
 20
13.2667665443
 10
-9.5698804027
 20
13.5211264326
 10
-9.5318157157
 20
13.7736676144
 10
-9.5120838619
 20
14.0230734569
 10
-9.510787714
 20
14.2680436734
 10
-9.5279340295
 20
14.5073011028
 10
-9.5634334155
 20
14.7395983675
 10
-9.6171007946
 20
14.9637243772
 10
-9.6886563699
 20
15.1785106427
 10
-9.7777270838
 20
15.3828373677
 10
-9.8838485629
 20
15.5756392875
  0
LWPOLYLINE
  5
49
330
1F
100
AcDbEntity
  8
0
  6
Continuous
 62
     7
370
    15
100
AcDbPolyline
 90
       84
 70
   128
 43
0.0
 10
-10.2002843531
 20
15.3353036892
 10
-10.3163252532
 20
15.5050677848
 10
-10.4480141215
 20
15.6614699022
 10
-10.594596656
 20
15.8036141841
 10
-10.7552332453
 20
15.9306864411
 10
-10.9290037776
 20
16.0419588147
 10
-11.114912911
 20
16.1367939468
 10
-11.3118957748
 20
16.2146486305
 10
-11.5188240689
 20
16.2750769211
 10
-11.7345125269
 20
16.3177326908
 10
-11.9577257049
 20
16.3423716113
 10
-12.1871850579
 20
16.3488525531
 10
-12.4215762635
 20
16.3371383938
 10
-12.6595567502
 20
16.3072962313
 10
-12.8997633872
 20
16.2594969986
 10
-13.1408202928
 20
16.1940144854
 10
-13.3813467147
 20
16.1112237697
 10
-13.6199649394
 20
16.0115990691
 10
-13.8553081834
 20
15.895711025
 10
-14.0860284219
 20
15.7642234335
 10
-14.3108041101
 20
15.6178894437
 10
-14.5283477534
 20
15.4575472434
 10
-14.7374132814
 20
15.2841152582
 10
-14.9368031858
 20
15.0985868909
 10
-15.1253753791
 20
14.902024831
 10
-15.3020497371
 20
14.6955549683
 10
-15.4658142849
 20
14.4803599435
 10
-15.615730994
 20
14.2576723741
 10
-15.7509411551
 20
14.0287677945
 10
-15.8706702967
 20
13.7949573492
 10
-15.9742326211
 20
13.5575802835
 10
-16.0610349326
 20
13.3179962715
 10
-16.1305800355
 20
13.0775776288
 10
-16.1824695817
 20
12.8377014517
 10
-16.2164063526
 20
12.5997417291
 10
-16.2321959615
 20
12.3650614728
 10
-16.2297479669
 20
12.1350049101
 10
-16.2090763907
 20
11.9108897841
 10
-16.1702996378
 20
11.6939998059
 10
-16.1136398179
 20
11.4855773018
 10
-16.0394214734
 20
11.2868160969
 10
-15.9480697202
 20
11.0988546774
 10
-15.8401078129
 20
10.9227696693
 10
-15.7161541475
 20
10.7595696716
 10
-15.5769187194
 20
10.6101894791
 10
-15.4231990565
 20
10.4754847281
 10
-15.2558756511
 20
10.356226995
 10
-15.0759069165
 20
10.2530993775
 10
-14.8843236974
 20
10.1666925811
 10
-14.682223365
 20
10.0975015362
 10
-14.4707635319
 20
10.0459225629
 10
-14.2511554206
 20
10.0122511008
 10
-14.0246569267
 20
9.9966800169
 10
-13.792565413
 20
9.9992985011
 10
-13.5562102786
 20
10.0200915549
 10
-13.3169453444
 20
10.0589400776
 10
-13.0761410982
 20
10.1156215484
 10
-12.835176845
 20
10.1898113009
 10
-12.5954328061
 20
10.2810843829
 10
-12.3582822138
 20
10.3889179906
 10
-12.1250834451
 20
10.5126944627
 10
-11.8971722414
 20
10.6517048188
 10
-11.6758540576
 20
10.8051528203
 10
-11.462396584
 20
10.9721595308
 10
-11.2580224859
 20
11.151768351
 10
-11.0639023995
 20
11.3429504979
 10
-10.881148227
 20
11.5446108975
 10
-10.7108067679
 20
11.7555944572
 10
-10.5538537226
 20
11.9746926823
 10
-10.4111881039
 20
12.2006505981
 10
-10.2836270876
 20
12.432173938
 10
-10.1719013316
 20
12.6679365574
 10
-10.0766507909
 20
12.9065880292
 10
-9.998421052
 20
13.1467613796
 10
-9.9376602078
 20
13.3870809172
 10
-9.8947162908
 20
13.6261701135
 10
-9.86983528
 20
13.8626594873
 10
-9.8631596915
 20
14.0951944488
 10
-9.8747277625
 20
14.3224430589
 10
-9.9044732321
 20
14.5431036581
 10
-9.952225721
 20
14.7559123224
 10
-10.0177117072
 20
14.9596501032
 10
-10.100556093
 20
15.1531500087
 10
-10.2002843531
 20
15.3353036892
  0
LWPOLYLINE
  5
4A
330
1F
100
AcDbEntity
  8
0
  6
Continuous
 62
     7
370
    15
100
AcDbPolyline
 90
       40
 70
   128
 43
0.0
 10
-10.2577156847
 20
15.4238578791
 10
-10.4163956665
 20
15.5244762563
 10
-10.6023047999
 20
15.6193113884
 10
-10.7992876636
 20
15.6971660721
 10
-11.0062159578
 20
15.7575943627
 10
-11.2219044158
 20
15.8002501324
 10
-11.4451175938
 20
15.8248890529
 10
-11.6745769467
 20
15.8313699947
 10
-11.9089681524
 20
15.8196558354
 10
-12.146948639
 20
15.7898136729
 10
-12.3871552761
 20
15.7420144402
 10
-12.6282121816
 20
15.676531927
 10
-12.8687386036
 20
15.5937412113
 10
-13.1073568283
 20
15.4941165107
 10
-13.3427000723
 20
15.3782284666
 10
-13.5734203107
 20
15.2467408751
 10
-13.798195999
 20
15.1004068853
 10
-14.0157396423
 20
14.940064685
 10
-14.2248051703
 20
14.7666326998
 10
-14.4241950746
 20
14.5811043325
 10
-14.612767268
 20
14.3845422726
 10
-14.7894416259
 20
14.1780724099
 10
-14.9532061737
 20
13.9628773851
 10
-15.1031228828
 20
13.7401898157
 10
-15.238333044
 20
13.5112852361
 10
-15.3580621856
 20
13.2774747908
 10
-15.4616245099
 20
13.040097725
 10
-15.5484268214
 20
12.8005137131
 10
-15.6179719243
 20
12.5600950704
 10
-15.6698614706
 20
12.3202188933
 10
-15.7037982415
 20
12.0822591707
 10
-15.7195878504
 20
11.8475789144
 10
-15.7171398558
 20
11.6175223517
 10
-15.6964682795
 20
11.3934072257
 10
-15.6576915266
 20
11.1765172475
 10
-15.6010317068
 20
10.9680947434
 10
-15.5268133623
 20
10.7693335385
 10
-15.4354616091
 20
10.581372119
 10
-15.3274997018
 20
10.4052871109
 10
-15.3260891343
 20
10.4032261722
  0
LWPOLYLINE
  5
4B
330
1F
100
AcDbEntity
  8
0
  6
Continuous
 62
     7
370
    15
100
AcDbPolyline
 90
       49
 70
   128
 43
0.0
 10
-10.2809933486
 20
14.3671918841
 10
-10.3864207804
 20
14.519191701
 10
-10.507759971
 20
14.6573882196
 10
-10.6441125675
 20
14.7807582812
 10
-10.794469063
 20
14.888388497
 10
-10.9577162706
 20
14.9794820105
 10
-11.1326455651
 20
15.0533643973
 10
-11.3179618312
 20
15.1094886581
 10
-11.512293052
 20
15.1474392683
 10
-11.7142004674
 20
15.166935255
 10
-11.9221892252
 20
15.1678322768
 10
-12.1347194497
 20
15.1501236923
 10
-12.3502176413
 20
15.1139406098
 10
-12.5670883269
 20
15.0595509161
 10
-12.7837258717
 20
14.9873572935
 10
-12.9985263672
 20
14.8978942383
 10
-13.2098995056
 20
14.7918241037
 10
-13.4162803542
 20
14.6699321958
 10
-13.6161409415
 20
14.5331209597
 10
-13.8080015694
 20
14.3824032979
 10
-13.9904417691
 20
14.2188950713
 10
-14.1621108172
 20
14.0438068375
 10
-14.3217377361
 20
13.8584348885
 10
-14.4681407039
 20
13.6641516535
 10
-14.6002358042
 20
13.4623955376
 10
-14.7170450513
 20
13.2546602723
 10
-14.8177036302
 20
13.042483857
 10
-14.9014663001
 20
12.8274371716
 10
-14.9677129115
 20
12.6111123465
 10
-15.0159529976
 20
12.395110975
 10
-15.0458294057
 20
12.1810322557
 10
-15.0571209413
 20
11.9704611526
 10
-15.049744006
 20
11.7649566604
 10
-15.0237532158
 20
11.5660402625
 10
-14.9793409976
 20
11.3751846662
 10
-14.9168361638
 20
11.1938028998
 10
-14.8367014784
 20
11.0232378502
 10
-14.7395302306
 20
10.8647523215
 10
-14.6260418422
 20
10.719519685
 10
-14.4970765417
 20
10.5886151925
 10
-14.3535891429
 20
10.4730080148
 10
-14.1966419763
 20
10.3735540673
 10
-14.0273970239
 20
10.2909896719
 10
-13.8471073161
 20
10.2259261068
 10
-13.6571076548
 20
10.1788450797
 10
-13.458804731
 20
10.1500951621
 10
-13.2536667102
 20
10.1398892083
 10
-13.0432123626
 20
10.1483027797
 10
-12.9205123098
 20
10.1615381145
  0
LINE
  5
4D
330
1F
100
AcDbEntity
  8
0
  6
Continuous
 62
     7
370
    15
100
AcDbLine
 10
2.8417795849
 20
2.8150113305
 30
0.0
 11
-10.2064268802
 21
15.9872946353
 31
0.0
  0
LINE
  5
4E
330
1F
100
AcDbEntity
  8
0
  6
Continuous
 62
     7
370
    15
100
AcDbLine
 10
-15.88998605
 20
10.3572719743
 30
0.0
 11
-2.8417795849
 21
-2.8150113305
 31
0.0
  0
ARC
  5
4F
330
1F
100
AcDbEntity
  8
0
  6
Continuous
 62
     7
370
    15
100
AcDbCircle
 10
1.2307185694
 20
1.2203477291
 30
0.0
 40
2.266819268839499
100
AcDbArc
 50
31.4584610536
 51
44.7069322726
  0
ARC
  5
50
330
1F
100
AcDbEntity
  8
0
  6
Continuous
 62
     7
370
    15
100
AcDbCircle
 10
-12.0582897202
 20
13.3513519865
 30
0.0
 40
2.047123125245929
100
AcDbArc
 50
350.5744053656
 51
29.7507613763
  0
MTEXT
  5
52
330
1F
100
AcDbEntity
  8
0
  6
Continuous
 62
     7
100
AcDbMText
 10
-16.5872842833
 20
-4.5491630519
 30
0.0
 40
4.83362
 41
0.0
 71
     1
 72
     1
  1
SolidWorks Educational Edition.
  7
SLDTEXTSTYLE0
 73
     1
 44
1.0
  0
MTEXT
  5
53
330
1F
100
AcDbEntity
  8
0
  6
Continuous
 62
     7
100
AcDbMText
 10
-16.5872842833
 20
-11.7995930519
 30
0.0
 40
4.83362
 41
0.0
 71
     1
 72
     1
  1
For Instructional Use Only.
  7
SLDTEXTSTYLE0
 73
     1
 44
1.0
  0
ENDSEC
  0
SECTION
  2
OBJECTS
  0
DICTIONARY
  5
C
330
0
100
AcDbDictionary
281
     1
  3
ACAD_GROUP
350
D
  3
ACAD_LAYOUT
350
1A
  3
ACAD_MLINESTYLE
350
17
  3
ACAD_PLOTSETTINGS
350
19
  3
ACAD_PLOTSTYLENAME
350
E
  0
DICTIONARY
  5
D
102
{ACAD_REACTORS
330
C
102
}
330
C
100
AcDbDictionary
281
     1
  0
DICTIONARY
  5
1A
102
{ACAD_REACTORS
330
C
102
}
330
C
100
AcDbDictionary
281
     1
  3
Layout1
350
1E
  3
Layout2
350
26
  3
Model
350
22
  0
DICTIONARY
  5
17
102
{ACAD_REACTORS
330
C
102
}
330
C
100
AcDbDictionary
281
     1
  3
Standard
350
18
  0
DICTIONARY
  5
19
102
{ACAD_REACTORS
330
C
102
}
330
C
100
AcDbDictionary
281
     1
  0
ACDBDICTIONARYWDFLT
  5
E
102
{ACAD_REACTORS
330
C
102
}
330
C
100
AcDbDictionary
281
     1
  3
Normal
350
F
100
AcDbDictionaryWithDefault
340
F
  0
LAYOUT
  5
1E
102
{ACAD_REACTORS
330
1A
102
}
330
1A
100
AcDbPlotSettings
  1

  2
none_device
  4

  6

 40
0.0
 41
0.0
 42
0.0
 43
0.0
 44
0.0
 45
0.0
 46
0.0
 47
0.0
 48
0.0
 49
0.0
140
0.0
141
0.0
142
1.0
143
1.0
 70
   688
 72
     0
 73
     0
 74
     5
  7

 75
    16
147
1.0
148
0.0
149
0.0
100
AcDbLayout
  1
Layout1
 70
     1
 71
     1
 10
0.0
 20
0.0
 11
420.0
 21
297.0
 12
0.0
 22
0.0
 32
0.0
 14
1.0000000000E+20
 24
1.0000000000E+20
 34
1.0000000000E+20
 15
-1.0000000000E+20
 25
-1.0000000000E+20
 35
-1.0000000000E+20
146
0.0
 13
0.0
 23
0.0
 33
0.0
 16
1.0
 26
0.0
 36
0.0
 17
0.0
 27
1.0
 37
0.0
 76
     0
330
1B
  0
LAYOUT
  5
26
102
{ACAD_REACTORS
330
1A
102
}
330
1A
100
AcDbPlotSettings
  1

  2
none_device
  4

  6

 40
0.0
 41
0.0
 42
0.0
 43
0.0
 44
0.0
 45
0.0
 46
0.0
 47
0.0
 48
0.0
 49
0.0
140
0.0
141
0.0
142
1.0
143
1.0
 70
   688
 72
     0
 73
     0
 74
     5
  7

 75
    16
147
1.0
148
0.0
149
0.0
100
AcDbLayout
  1
Layout2
 70
     1
 71
     2
 10
0.0
 20
0.0
 11
0.0
 21
0.0
 12
0.0
 22
0.0
 32
0.0
 14
0.0
 24
0.0
 34
0.0
 15
0.0
 25
0.0
 35
0.0
146
0.0
 13
0.0
 23
0.0
 33
0.0
 16
1.0
 26
0.0
 36
0.0
 17
0.0
 27
1.0
 37
0.0
 76
     0
330
23
  0
LAYOUT
  5
22
102
{ACAD_REACTORS
330
1A
102
}
330
1A
100
AcDbPlotSettings
  1

  2
none_device
  4
ANSI_A_(11.00_x_8.50_Inches)
  6

 40
6.35
 41
19.05
 42
6.35000508
 43
19.05000254
 44
279.4
 45
215.9
 46
202.2885004238
 47
19.3210875543
 48
0.0
 49
0.0
140
0.0
141
0.0
142
0.4159604991
143
1.0
 70
  1696
 72
     0
 73
     0
 74
     0
  7

 75
     0
147
0.0179189148
148
0.0
149
0.0
100
AcDbLayout
  1
Model
 70
     1
 71
     0
 10
0.0
 20
0.0
 11
420.0
 21
297.0
 12
0.0
 22
0.0
 32
0.0
 14
-16.5872842833
 24
-3.5295966602
 34
0.0
 15
3.5374187511
 25
16.7006896734
 35
0.0
146
0.0
 13
0.0
 23
0.0
 33
0.0
 16
1.0
 26
0.0
 36
0.0
 17
0.0
 27
1.0
 37
0.0
 76
     0
330
1F
331
29
  0
MLINESTYLE
  5
18
102
{ACAD_REACTORS
330
17
102
}
330
17
100
AcDbMlineStyle
  2
Standard
 70
     0
  3

 62
   256
 51
90.0
 52
90.0
 71
     2
 49
0.5
 62
   256
  6
BYLAYER
 49
-0.5
 62
   256
  6
BYLAYER
  0
ACDBPLACEHOLDER
  5
F
102
{ACAD_REACTORS
330
E
102
}
330
E
  0
ENDSEC
  0
EOF
