  0
SECTION
  2
HEADER
  9
$ACADVER
  1
AC1015
  9
$ACADMAINTVER
 70
     6
  9
$DWGCODEPAGE
  3
ANSI_1252
  9
$INSBASE
 10
0.0
 20
0.0
 30
0.0
  9
$EXTMIN
 10
-15.5096748716
 20
-17.0455704251
 30
0.0
  9
$EXTMAX
 10
13.697080472
 20
16.5566178026
 30
0.0
  9
$LIMMIN
 10
0.0
 20
0.0
  9
$LIMMAX
 10
420.0
 20
297.0
  9
$ORTHOMODE
 70
     0
  9
$REGENMODE
 70
     1
  9
$FILLMODE
 70
     1
  9
$QTEXTMODE
 70
     0
  9
$MIRRTEXT
 70
     1
  9
$LTSCALE
 40
1.0
  9
$ATTMODE
 70
     1
  9
$TEXTSIZE
 40
2.5
  9
$TRACEWID
 40
1.0
  9
$TEXTSTYLE
  7
Standard
  9
$CLAYER
  8
0
  9
$CELTYPE
  6
ByLayer
  9
$CECOLOR
 62
   256
  9
$CELTSCALE
 40
1.0
  9
$DISPSILH
 70
     0
  9
$DIMSCALE
 40
1.0
  9
$DIMASZ
 40
6.0
  9
$DIMEXO
 40
1.0
  9
$DIMDLI
 40
3.75
  9
$DIMRND
 40
0.0
  9
$DIMDLE
 40
0.0
  9
$DIMEXE
 40
1.0
  9
$DIMTP
 40
0.0
  9
$DIMTM
 40
0.0
  9
$DIMTXT
 40
2.5
  9
$DIMCEN
 40
2.5
  9
$DIMTSZ
 40
0.0
  9
$DIMTOL
 70
     0
  9
$DIMLIM
 70
     0
  9
$DIMTIH
 70
     1
  9
$DIMTOH
 70
     1
  9
$DIMSE1
 70
     0
  9
$DIMSE2
 70
     0
  9
$DIMTAD
 70
     1
  9
$DIMZIN
 70
     0
  9
$DIMBLK
  1

  9
$DIMASO
 70
     1
  9
$DIMSHO
 70
     1
  9
$DIMPOST
  1

  9
$DIMAPOST
  1

  9
$DIMALT
 70
     0
  9
$DIMALTD
 70
     3
  9
$DIMALTF
 40
0.0393700787
  9
$DIMLFAC
 40
1.0
  9
$DIMTOFL
 70
     1
  9
$DIMTVP
 40
0.0
  9
$DIMTIX
 70
     0
  9
$DIMSOXD
 70
     0
  9
$DIMSAH
 70
     0
  9
$DIMBLK1
  1

  9
$DIMBLK2
  1

  9
$DIMSTYLE
  2
ISO-25
  9
$DIMCLRD
 70
     0
  9
$DIMCLRE
 70
     0
  9
$DIMCLRT
 70
     0
  9
$DIMTFAC
 40
1.0
  9
$DIMGAP
 40
1.524
  9
$DIMJUST
 70
     0
  9
$DIMSD1
 70
     0
  9
$DIMSD2
 70
     0
  9
$DIMTOLJ
 70
     0
  9
$DIMTZIN
 70
     0
  9
$DIMALTZ
 70
     0
  9
$DIMALTTZ
 70
     0
  9
$DIMUPT
 70
     0
  9
$DIMDEC
 70
     2
  9
$DIMTDEC
 70
     2
  9
$DIMALTU
 70
     2
  9
$DIMALTTD
 70
     3
  9
$DIMTXSTY
  7
Standard
  9
$DIMAUNIT
 70
     0
  9
$DIMADEC
 70
     2
  9
$DIMALTRND
 40
0.0
  9
$DIMAZIN
 70
     0
  9
$DIMDSEP
 70
    44
  9
$DIMATFIT
 70
     3
  9
$DIMFRAC
 70
     0
  9
$DIMLDRBLK
  1

  9
$DIMLUNIT
 70
     2
  9
$DIMLWD
 70
    -2
  9
$DIMLWE
 70
    -2
  9
$DIMTMOVE
 70
     0
  9
$LUNITS
 70
     2
  9
$LUPREC
 70
     2
  9
$SKETCHINC
 40
1.0
  9
$FILLETRAD
 40
10.0
  9
$AUNITS
 70
     0
  9
$AUPREC
 70
     2
  9
$MENU
  1
.
  9
$ELEVATION
 40
0.0
  9
$PELEVATION
 40
0.0
  9
$THICKNESS
 40
0.0
  9
$LIMCHECK
 70
     0
  9
$CHAMFERA
 40
10.0
  9
$CHAMFERB
 40
10.0
  9
$CHAMFERC
 40
20.0
  9
$CHAMFERD
 40
0.0
  9
$SKPOLY
 70
     0
  9
$TDCREATE
 40
2456560.921119329
  9
$TDUCREATE
 40
2456560.421119329
  9
$TDUPDATE
 40
2456560.921144063
  9
$TDUUPDATE
 40
2456560.421144063
  9
$TDINDWG
 40
0.0000000116
  9
$TDUSRTIMER
 40
0.0000000116
  9
$USRTIMER
 70
     1
  9
$ANGBASE
 50
0.0
  9
$ANGDIR
 70
     0
  9
$PDMODE
 70
     0
  9
$PDSIZE
 40
-1.0
  9
$PLINEWID
 40
0.0
  9
$SPLFRAME
 70
     0
  9
$SPLINETYPE
 70
     6
  9
$SPLINESEGS
 70
     8
  9
$HANDSEED
  5
B8
  9
$SURFTAB1
 70
     6
  9
$SURFTAB2
 70
     6
  9
$SURFTYPE
 70
     6
  9
$SURFU
 70
     6
  9
$SURFV
 70
     6
  9
$UCSBASE
  2

  9
$UCSNAME
  2

  9
$UCSORG
 10
0.0
 20
0.0
 30
0.0
  9
$UCSXDIR
 10
1.0
 20
0.0
 30
0.0
  9
$UCSYDIR
 10
0.0
 20
1.0
 30
0.0
  9
$UCSORTHOREF
  2

  9
$UCSORTHOVIEW
 70
     0
  9
$UCSORGTOP
 10
0.0
 20
0.0
 30
0.0
  9
$UCSORGBOTTOM
 10
0.0
 20
0.0
 30
0.0
  9
$UCSORGLEFT
 10
0.0
 20
0.0
 30
0.0
  9
$UCSORGRIGHT
 10
0.0
 20
0.0
 30
0.0
  9
$UCSORGFRONT
 10
0.0
 20
0.0
 30
0.0
  9
$UCSORGBACK
 10
0.0
 20
0.0
 30
0.0
  9
$PUCSBASE
  2

  9
$PUCSNAME
  2

  9
$PUCSORG
 10
0.0
 20
0.0
 30
0.0
  9
$PUCSXDIR
 10
1.0
 20
0.0
 30
0.0
  9
$PUCSYDIR
 10
0.0
 20
1.0
 30
0.0
  9
$PUCSORTHOREF
  2

  9
$PUCSORTHOVIEW
 70
     0
  9
$PUCSORGTOP
 10
0.0
 20
0.0
 30
0.0
  9
$PUCSORGBOTTOM
 10
0.0
 20
0.0
 30
0.0
  9
$PUCSORGLEFT
 10
0.0
 20
0.0
 30
0.0
  9
$PUCSORGRIGHT
 10
0.0
 20
0.0
 30
0.0
  9
$PUCSORGFRONT
 10
0.0
 20
0.0
 30
0.0
  9
$PUCSORGBACK
 10
0.0
 20
0.0
 30
0.0
  9
$USERI1
 70
     0
  9
$USERI2
 70
     0
  9
$USERI3
 70
     0
  9
$USERI4
 70
     0
  9
$USERI5
 70
     0
  9
$USERR1
 40
0.0
  9
$USERR2
 40
0.0
  9
$USERR3
 40
0.0
  9
$USERR4
 40
0.0
  9
$USERR5
 40
0.0
  9
$WORLDVIEW
 70
     1
  9
$SHADEDGE
 70
     3
  9
$SHADEDIF
 70
    70
  9
$TILEMODE
 70
     1
  9
$MAXACTVP
 70
    64
  9
$PINSBASE
 10
0.0
 20
0.0
 30
0.0
  9
$PLIMCHECK
 70
     0
  9
$PEXTMIN
 10
1.0000000000E+20
 20
1.0000000000E+20
 30
1.0000000000E+20
  9
$PEXTMAX
 10
-1.0000000000E+20
 20
-1.0000000000E+20
 30
-1.0000000000E+20
  9
$PLIMMIN
 10
0.0
 20
0.0
  9
$PLIMMAX
 10
420.0
 20
297.0
  9
$UNITMODE
 70
     0
  9
$VISRETAIN
 70
     1
  9
$PLINEGEN
 70
     0
  9
$PSLTSCALE
 70
     1
  9
$TREEDEPTH
 70
  3020
  9
$CMLSTYLE
  2
Standard
  9
$CMLJUST
 70
     0
  9
$CMLSCALE
 40
20.0
  9
$PROXYGRAPHICS
 70
     1
  9
$MEASUREMENT
 70
     1
  9
$CELWEIGHT
370
    -1
  9
$ENDCAPS
280
     0
  9
$JOINSTYLE
280
     0
  9
$LWDISPLAY
290
     1
  9
$INSUNITS
 70
     4
  9
$HYPERLINKBASE
  1

  9
$STYLESHEET
  1

  9
$XEDIT
290
     1
  9
$CEPSNTYPE
380
     0
  9
$PSTYLEMODE
290
     1
  9
$FINGERPRINTGUID
  2
{26BC1A08-70B5-415E-B6FF-D23E4BC8B277}
  9
$VERSIONGUID
  2
{FAEB1C32-E019-11D5-929B-00C0DF256EC4}
  9
$EXTNAMES
290
     1
  9
$PSVPSCALE
 40
0.0
  9
$OLESTARTUP
290
     0
  0
ENDSEC
  0
SECTION
  2
CLASSES
  0
CLASS
  1
ACDBDICTIONARYWDFLT
  2
AcDbDictionaryWithDefault
  3
ObjectDBX Classes
 90
        0
280
     0
281
     0
  0
CLASS
  1
VISUALSTYLE
  2
AcDbVisualStyle
  3
ObjectDBX Classes
 90
     4095
280
     0
281
     0
  0
CLASS
  1
MATERIAL
  2
AcDbMaterial
  3
ObjectDBX Classes
 90
     1153
280
     0
281
     0
  0
CLASS
  1
ACDBPLACEHOLDER
  2
AcDbPlaceHolder
  3
ObjectDBX Classes
 90
        0
280
     0
281
     0
  0
CLASS
  1
LAYOUT
  2
AcDbLayout
  3
ObjectDBX Classes
 90
        0
280
     0
281
     0
  0
ENDSEC
  0
SECTION
  2
TABLES
  0
TABLE
  2
VPORT
  5
8
330
0
100
AcDbSymbolTable
 70
     1
  0
VPORT
  5
29
330
8
100
AcDbSymbolTableRecord
100
AcDbViewportTableRecord
  2
*Active
 70
     0
 10
0.0
 20
0.0
 11
1.0
 21
1.0
 12
-0.9062971998
 22
-0.2444763113
 13
0.0
 23
0.0
 14
10.0
 24
10.0
 15
10.0
 25
10.0
 16
0.0
 26
0.0
 36
1.0
 17
0.0
 27
0.0
 37
0.0
 40
34.2742319922
 41
0.8691920641
 42
50.0
 43
0.0
 44
0.0
 50
0.0
 51
0.0
 71
     0
 72
   100
 73
     1
 74
     3
 75
     0
 76
     0
 77
     0
 78
     0
281
     0
 65
     1
110
0.0
120
0.0
130
0.0
111
1.0
121
0.0
131
0.0
112
0.0
122
1.0
132
0.0
 79
     0
146
0.0
  0
ENDTAB
  0
TABLE
  2
LTYPE
  5
5
330
0
100
AcDbSymbolTable
 70
     6
  0
LTYPE
  5
14
330
5
100
AcDbSymbolTableRecord
100
AcDbLinetypeTableRecord
  2
ByBlock
 70
     0
  3

 72
    65
 73
     0
 40
0.0
  0
LTYPE
  5
15
330
5
100
AcDbSymbolTableRecord
100
AcDbLinetypeTableRecord
  2
ByLayer
 70
     0
  3

 72
    65
 73
     0
 40
0.0
  0
LTYPE
  5
16
330
5
100
AcDbSymbolTableRecord
100
AcDbLinetypeTableRecord
  2
Continuous
 70
     0
  3
Solid line
 72
    65
 73
     0
 40
0.0
  0
LTYPE
  5
3F
330
5
100
AcDbSymbolTableRecord
100
AcDbLinetypeTableRecord
  2
HIDDEN
 70
     0
  3
Hidden __ __ __ __ __ __ __ __ __ __ __ __ __ __
 72
    65
 73
     2
 40
1.905
 49
1.27
 74
     0
 49
-0.635
 74
     0
  0
LTYPE
  5
40
330
5
100
AcDbSymbolTableRecord
100
AcDbLinetypeTableRecord
  2
PHANTOM
 70
     0
  3
Phantom ______  __  __  ______  __  __  ______
 72
    65
 73
     6
 40
12.7
 49
6.35
 74
     0
 49
-1.27
 74
     0
 49
1.27
 74
     0
 49
-1.27
 74
     0
 49
1.27
 74
     0
 49
-1.27
 74
     0
  0
LTYPE
  5
41
330
5
100
AcDbSymbolTableRecord
100
AcDbLinetypeTableRecord
  2
CENTER
 70
     0
  3
Center ____ _ ____ _ ____ _ ____ _ ____ _ ____
 72
    65
 73
     4
 40
10.16
 49
6.35
 74
     0
 49
-1.27
 74
     0
 49
1.27
 74
     0
 49
-1.27
 74
     0
  0
LTYPE
  5
42
330
5
100
AcDbSymbolTableRecord
100
AcDbLinetypeTableRecord
  2
CENTERX2
 70
     0
  3
Center (2x) ________  __  ________  __  _____
 72
    65
 73
     4
 40
20.32
 49
12.7
 74
     0
 49
-2.54
 74
     0
 49
2.54
 74
     0
 49
-2.54
 74
     0
  0
LTYPE
  5
43
330
5
100
AcDbSymbolTableRecord
100
AcDbLinetypeTableRecord
  2
DOT2
 70
     0
  3
Dot (.5x) ........................................
 72
    65
 73
     2
 40
0.635
 49
0.0
 74
     0
 49
-0.635
 74
     0
  0
ENDTAB
  0
TABLE
  2
LAYER
  5
2
330
0
100
AcDbSymbolTable
 70
     1
  0
LAYER
  5
10
330
2
100
AcDbSymbolTableRecord
100
AcDbLayerTableRecord
  2
0
 70
     0
 62
     7
  6
Continuous
370
    -3
390
F
  0
ENDTAB
  0
TABLE
  2
STYLE
  5
3
330
0
100
AcDbSymbolTable
 70
     2
  0
STYLE
  5
11
330
3
100
AcDbSymbolTableRecord
100
AcDbTextStyleTableRecord
  2
Standard
 70
     0
 40
0.0
 41
1.0
 50
0.0
 71
     0
 42
2.5
  3
txt
  4

  0
STYLE
  5
B5
330
3
100
AcDbSymbolTableRecord
100
AcDbTextStyleTableRecord
  2
SLDTEXTSTYLE0
 70
     0
 40
0.0
 41
0.7
 50
0.0
 71
     0
 42
0.2
  3
TXT
  4

  0
ENDTAB
  0
TABLE
  2
VIEW
  5
6
330
0
100
AcDbSymbolTable
 70
     0
  0
ENDTAB
  0
TABLE
  2
UCS
  5
7
330
0
100
AcDbSymbolTable
 70
     0
  0
ENDTAB
  0
TABLE
  2
APPID
  5
9
330
0
100
AcDbSymbolTable
 70
     1
  0
APPID
  5
12
330
9
100
AcDbSymbolTableRecord
100
AcDbRegAppTableRecord
  2
ACAD
 70
     0
  0
ENDTAB
  0
TABLE
  2
DIMSTYLE
  5
A
330
0
100
AcDbSymbolTable
 70
     1
100
AcDbDimStyleTable
  0
DIMSTYLE
105
27
330
A
100
AcDbSymbolTableRecord
100
AcDbDimStyleTableRecord
  2
ISO-25
 70
     0
 41
2.5
 42
0.625
 43
3.75
 44
1.25
 73
     0
 74
     0
 77
     1
 78
     8
140
2.5
141
2.5
143
0.0393700787
147
0.625
171
     3
172
     1
178
     0
271
     2
272
     2
274
     3
278
    44
283
     0
284
     8
340
11
  0
ENDTAB
  0
TABLE
  2
BLOCK_RECORD
  5
1
330
0
100
AcDbSymbolTable
 70
     1
  0
BLOCK_RECORD
  5
1F
330
1
100
AcDbSymbolTableRecord
100
AcDbBlockTableRecord
  2
*Model_Space
340
22
  0
BLOCK_RECORD
  5
1B
330
1
100
AcDbSymbolTableRecord
100
AcDbBlockTableRecord
  2
*Paper_Space
340
1E
  0
BLOCK_RECORD
  5
23
330
1
100
AcDbSymbolTableRecord
100
AcDbBlockTableRecord
  2
*Paper_Space0
340
26
  0
ENDTAB
  0
ENDSEC
  0
SECTION
  2
BLOCKS
  0
BLOCK
  5
20
330
1F
100
AcDbEntity
  8
0
100
AcDbBlockBegin
  2
*Model_Space
 70
     0
 10
0.0
 20
0.0
 30
0.0
  3
*Model_Space
  1

  0
ENDBLK
  5
21
330
1F
100
AcDbEntity
  8
0
100
AcDbBlockEnd
  0
BLOCK
  5
1C
330
1B
100
AcDbEntity
 67
     1
  8
0
100
AcDbBlockBegin
  2
*Paper_Space
 70
     0
 10
0.0
 20
0.0
 30
0.0
  3
*Paper_Space
  1

  0
ENDBLK
  5
1D
330
1B
100
AcDbEntity
 67
     1
  8
0
100
AcDbBlockEnd
  0
BLOCK
  5
24
330
23
100
AcDbEntity
  8
0
100
AcDbBlockBegin
  2
*Paper_Space0
 70
     0
 10
0.0
 20
0.0
 30
0.0
  3
*Paper_Space0
  1

  0
ENDBLK
  5
25
330
23
100
AcDbEntity
  8
0
100
AcDbBlockEnd
  0
ENDSEC
  0
SECTION
  2
ENTITIES
  0
LWPOLYLINE
  5
4F
330
1F
100
AcDbEntity
  8
0
  6
Continuous
 62
     7
370
    15
100
AcDbPolyline
 90
       52
 70
   128
 43
0.0
 10
-1.5570857408
 20
3.5824253435
 10
-1.3262912478
 20
3.6678527885
 10
-1.0871934478
 20
3.7248322823
 10
-0.8434168197
 20
3.7525000739
 10
-0.5986567686
 20
3.7504367476
 10
-0.3566236074
 20
3.7186735815
 10
-0.1209863122
 20
3.6576920728
 10
0.1046830959
 20
3.5684166389
 10
0.3169636986
 20
3.4522006044
 10
0.5126375385
 20
3.310805686
 10
0.6887383995
 20
3.1463752865
 10
0.8425967721
 20
2.9614020031
 10
0.9718803202
 20
2.7586898423
 10
1.074629237
 20
2.5413117138
 10
1.1492859538
 20
2.3125628484
 10
1.1947187506
 20
2.0759108458
 10
1.2102389127
 20
1.834943109
 10
1.1956111703
 20
1.5933124634
 10
1.1510572649
 20
1.3546817833
 10
1.0772525884
 20
1.1226684664
 10
0.9753159444
 20
0.9007895982
 10
0.8467925886
 20
0.6924086361
 10
0.693630804
 20
0.5006844232
 10
0.5181523672
 20
0.328523303
 10
0.3230173523
 20
0.1785350627
 10
0.1111838073
 20
0.052993371
 10
-0.1141370871
 20
-0.0461986878
 10
-0.349529696
 20
-0.1175374635
 10
-0.5914257073
 20
-0.1599415327
 10
-0.8361582241
 20
-0.1727680932
 10
-1.0800173508
 20
-0.1558227072
 10
-1.3193064317
 20
-0.1093622495
 10
-1.5503980883
 20
-0.0340910134
 10
-1.7697892065
 20
0.068849966
 10
-1.9741540407
 20
0.1979002083
 10
-2.1603946283
 20
0.3511034434
 10
-2.3256877518
 20
0.5261372665
 10
-2.467527736
 20
0.7203483431
 10
-2.5837644313
 20
0.9307926314
 10
-2.6726358079
 20
1.1542800105
 10
-2.7327946662
 20
1.3874226394
 10
-2.7633290594
 20
1.6266863136
 10
-2.7637761172
 20
1.8684440397
 10
-2.7341290625
 20
2.109031017
 10
-2.6748373147
 20
2.3448001922
 10
-2.586799676
 20
2.5721775448
 10
-2.4713507073
 20
2.787716266
 10
-2.3302404975
 20
2.9881490086
 10
-2.1656081333
 20
3.1704374163
 10
-1.9799492736
 20
3.3318181828
 10
-1.7760783175
 20
3.4698449402
 10
-1.5570857408
 20
3.5824253435
  0
LWPOLYLINE
  5
53
330
1F
100
AcDbEntity
  8
0
  6
Continuous
 62
     7
370
    15
100
AcDbPolyline
 90
      101
 70
   128
 43
0.0
 10
-13.8334280523
 20
-1.0147088092
 10
-13.9411287913
 20
-0.4009037312
 10
-14.0190336061
 20
0.2178636039
 10
-14.066966145
 20
0.8401925028
 10
-14.0848179039
 20
1.46467421
 10
-14.072548472
 20
2.0898950968
 10
-14.0301856235
 20
2.7144398613
 10
-13.9578252543
 20
3.3368947319
 10
-13.8556311656
 20
3.955850668
 10
-13.7238346922
 20
4.5699065496
 10
-13.5627341797
 20
5.1776723486
 10
-13.3726943086
 20
5.7777722759
 10
-13.1541452689
 20
6.3688478953
 10
-12.9075817864
 20
6.9495611989
 10
-12.6335620027
 20
7.5185976358
 10
-12.3327062118
 20
8.0746690878
 10
-12.0056954559
 20
8.6165167853
 10
-11.6532699838
 20
9.1429141568
 10
-11.2762275749
 20
9.6526696054
 10
-10.875421734
 20
10.1446292064
 10
-10.4517597583
 20
10.6176793189
 10
-10.0062006844
 20
11.0707491075
 10
-9.539753117
 20
11.5028129658
 10
-9.0534729453
 20
11.9128928379
 10
-8.5484609538
 20
12.3000604331
 10
-8.0258603296
 20
12.6634393265
 10
-7.4868540748
 20
13.0022069435
 10
-6.932662329
 20
13.3155964216
 10
-6.3645396065
 20
13.6028983461
 10
-5.7837719572
 20
13.8634623567
 10
-5.1916740552
 20
14.0966986189
 10
-4.5895862223
 20
14.3020791598
 10
-3.9788713948
 20
14.4791390628
 10
-3.3609120376
 20
14.6274775205
 10
-2.7371070147
 20
14.7467587416
 10
-2.1088684231
 20
14.8367127112
 10
-1.477618396
 20
14.8971358019
 10
-0.8447858833
 20
14.9278912352
 10
-0.2118034175
 20
14.9289093903
 10
0.4198961297
 20
14.9001879626
 10
1.0488827908
 20
14.8417919682
 10
1.6737327392
 20
14.7538535972
 10
2.2930315126
 20
14.6365719142
 10
2.9053772147
 20
14.4902124078
 10
3.509383689
 20
14.3151063894
 10
4.1036836561
 20
14.1116502437
 10
4.6869318092
 20
13.880304531
 10
5.2578078593
 20
13.6215929445
 10
5.815019524
 20
13.3361011253
 10
6.3573054524
 20
13.0244753366
 10
6.8834380811
 20
12.6874210003
 10
7.3922264125
 20
12.3257011006
 10
7.8825187111
 20
11.9401344569
 10
8.3532051104
 20
11.5315938698
 10
8.8032201256
 20
11.1010041458
 10
9.2315450652
 20
10.6493400035
 10
9.6372103372
 20
10.1776238676
 10
10.0192976441
 20
9.6869235538
 10
10.3769420613
 20
9.1783498523
 10
10.709333995
 20
8.6530540127
 10
11.0157210152
 20
8.1122251383
 10
11.2954095589
 20
7.5570874945
 10
11.5477664997
 20
6.988897737
 10
11.7722205816
 20
6.4089420672
 10
11.9682637116
 20
5.8185333212
 10
12.1354521101
 20
5.2190079972
 10
12.2734073156
 20
4.6117232306
 10
12.3818170412
 20
3.9980537218
 10
12.4604358816
 20
3.3793886241
 10
12.5090858688
 20
2.7571283992
 10
12.5276568745
 20
2.1326816471
 10
12.5161068599
 20
1.5074619175
 10
12.4744619705
 20
0.8828845096
 10
12.4028164772
 20
0.260363269
 10
12.3013325626
 20
-0.3586926137
 10
12.1702399543
 20
-0.9728817919
 10
12.0098354043
 20
-1.5808139361
 10
11.8204820177
 20
-2.1811128804
 10
11.6026084306
 20
-2.7724197382
 10
11.3567078398
 20
-3.3533959782
 10
11.0833368863
 20
-3.9227264542
 10
10.7831143952
 20
-4.4791223824
 10
10.4567199753
 20
-5.0213242587
 10
10.10489248
 20
-5.5481047098
 10
9.7284283354
 20
-6.0582712718
 10
9.3281797369
 20
-6.5506690891
 10
8.9050527207
 20
-7.0241835292
 10
8.4600051121
 20
-7.4777427052
 10
7.9940443581
 20
-7.9103199031
 10
7.508225246
 20
-8.320935905
 10
7.0036475164
 20
-8.7086612064
 10
6.4814533735
 20
-9.0726181201
 10
5.9428248994
 20
-9.411982763
 10
5.3889813782
 20
-9.725986921
 10
4.8211765362
 20
-10.0139197881
 10
4.2406957036
 20
-10.2751295757
 10
3.6488529052
 20
-10.5090249875
 10
3.0469878855
 20
-10.7150765584
 10
2.4364630763
 20
-10.8928178529
 10
1.8186605122
 20
-11.0418465211
 10
1.1949787026
 20
-11.1618252093
  0
SPLINE
  5
54
330
1F
100
AcDbEntity
  8
0
  6
Continuous
 62
     7
370
    15
100
AcDbSpline
210
0.0
220
0.0
230
1.0
 70
     8
 71
     3
 72
     8
 73
     4
 74
     0
 42
0.00000001
 43
0.00000001
 12
1.0
 22
0.0
 32
0.0
 13
1.0
 23
0.0
 33
0.0
 40
0.0
 40
0.0
 40
0.0
 40
0.0
 40
1.0
 40
1.0
 40
1.0
 40
1.0
 10
2.597780415283698
 20
-7.76171865402589
 30
0.0
 10
-3.512832068754941
 20
-11.75175102804652
 30
0.0
 10
-8.989901557949306
 20
-9.502747746447982
 30
0.0
 10
-13.8334280522994
 20
-1.014708809230262
 30
0.0
  0
LWPOLYLINE
  5
55
330
1F
100
AcDbEntity
  8
0
  6
Continuous
 62
     7
370
    15
100
AcDbPolyline
 90
       82
 70
   128
 43
0.0
 10
-11.0906495341
 20
1.4797206157
 10
-11.0811829808
 20
2.0314914884
 10
-11.0414750552
 20
2.5825570699
 10
-10.971642312
 20
3.1312998156
 10
-10.8718897316
 20
3.6761089993
 10
-10.742510118
 20
4.2153854409
 10
-10.5838832396
 20
4.7475462003
 10
-10.3964747144
 20
5.2710292246
 10
-10.1808346432
 20
5.7842979322
 10
-9.937595995
 20
6.285845724
 10
-9.6674727491
 20
6.774200405
 10
-9.371257799
 20
7.2479285063
 10
-9.0498206253
 20
7.7056394922
 10
-8.7041047438
 20
8.1459898423
 10
-8.3351249352
 20
8.5676869947
 10
-7.9439642673
 20
8.9694931404
 10
-7.5317709151
 20
9.3502288566
 10
-7.0997547911
 20
9.7087765685
 10
-6.6491839937
 20
10.0440838299
 10
-6.1813810846
 20
10.3551664124
 10
-5.6977192074
 20
10.6411111941
 10
-5.1996180562
 20
10.9010788405
 10
-4.6885397089
 20
11.1343062678
 10
-4.1659843354
 20
11.3401088826
 10
-3.6334857943
 20
11.5178825921
 10
-3.09260713
 20
11.6671055763
 10
-2.5449359856
 20
11.7873398206
 10
-1.9920799418
 20
11.8782324011
 10
-1.4356617989
 20
11.9395165205
 10
-0.8773148126
 20
11.9710122912
 10
-0.3186779007
 20
11.9726272637
 10
0.238609168
 20
11.9443566976
 10
0.7929105872
 20
11.8862835755
 10
1.342599314
 20
11.7985783595
 10
1.8860618454
 20
11.6814984913
 10
2.421702954
 20
11.5353876355
 10
2.947950371
 20
11.360674672
 10
3.4632594004
 20
11.1578724362
 10
3.9661174542
 20
10.9275762141
 10
4.4550484913
 20
10.6704619951
 10
4.9286173511
 20
10.3872844872
 10
5.3854339653
 20
10.0788749024
 10
5.8241574387
 20
9.7461385162
 10
6.2434999849
 20
9.3900520109
 10
6.6422307063
 20
9.0116606083
 10
7.0191792073
 20
8.6120750018
 10
7.37323903
 20
8.1924680964
 10
7.7033709012
 20
7.7540715656
 10
8.008605784
 20
7.2981722361
 10
8.2880477214
 20
6.8261083107
 10
8.5408764665
 20
6.33926544
 10
8.7663498903
 20
5.8390726556
 10
8.9638061601
 20
5.3269981749
 10
9.1326656817
 20
4.8045450917
 10
9.2724328012
 20
4.2732469643
 10
9.3826972599
 20
3.7346633137
 10
9.4631353981
 20
3.1903750463
 10
9.5135111055
 20
2.6419798131
 10
9.533676514
 20
2.0910873204
 10
9.5235724322
 20
1.5393146047
 10
9.4832285185
 20
0.9882812861
 10
9.4127631945
 20
0.4396048147
 10
9.3123832974
 20
-0.1051042779
 10
9.1823834726
 20
-0.6442471054
 10
9.023145309
 20
-1.17624112
 10
8.8351362189
 20
-1.699524758
 10
8.6189080659
 20
-2.2125620234
 10
8.3750955453
 20
-2.7138469961
 10
8.1044143207
 20
-3.2019082528
 10
7.8076589235
 20
-3.6753131858
 10
7.4857004209
 20
-4.1326722081
 10
7.1394838586
 20
-4.5726428322
 10
6.7700254873
 20
-4.9939336109
 10
6.3784097792
 20
-5.3953079282
 10
5.9657862453
 20
-5.7755876287
 10
5.5333660606
 20
-6.1336564761
 10
5.0824185095
 20
-6.4684634299
 10
4.6142672598
 20
-6.7790257302
 10
4.1302864774
 20
-7.0644317824
 10
3.6318967925
 20
-7.3238438332
 10
3.1205611301
 20
-7.5565004296
 10
2.5977804153
 20
-7.761718654
  0
SPLINE
  5
56
330
1F
100
AcDbEntity
  8
0
  6
Continuous
 62
     7
370
    15
100
AcDbSpline
210
0.0
220
0.0
230
1.0
 70
     8
 71
     3
 72
     8
 73
     4
 74
     0
 42
0.00000001
 43
0.00000001
 12
1.0
 22
0.0
 32
0.0
 13
1.0
 23
0.0
 33
0.0
 40
0.0
 40
0.0
 40
0.0
 40
0.0
 40
1.0
 40
1.0
 40
1.0
 40
1.0
 10
2.221252183177992
 20
-5.110489362710629
 30
0.0
 10
-2.675379157167767
 20
-10.06129742842203
 30
0.0
 10
-7.112679729609906
 20
-7.864560768955135
 30
0.0
 10
-11.09064953414843
 20
1.479720615690061
 30
0.0
  0
LWPOLYLINE
  5
57
330
1F
100
AcDbEntity
  8
0
  6
Continuous
 62
     7
370
    15
100
AcDbPolyline
 90
       68
 70
   128
 43
0.0
 10
-8.4116223633
 20
2.3047117732
 10
-8.3538975915
 20
2.7791341601
 10
-8.2661045595
 20
3.2496352678
 10
-8.1485917373
 20
3.7143475733
 10
-8.0018255594
 20
4.1714265306
 10
-7.8263885732
 20
4.619057892
 10
-7.6229771269
 20
5.0554649097
 10
-7.3923986056
 20
5.4789153875
 10
-7.1355682266
 20
5.8877285568
 10
-6.8535054064
 20
6.2802817475
 10
-6.5473297148
 20
6.6550168291
 10
-6.218256431
 20
7.0104463951
 10
-5.8675917197
 20
7.3451596668
 10
-5.4967274467
 20
7.6578280933
 10
-5.1071356545
 20
7.9472106242
 10
-4.7003627191
 20
8.2121586362
 10
-4.2780232124
 20
8.4516204921
 10
-3.8417934934
 20
8.6646457146
 10
-3.3934050545
 20
8.8503887595
 10
-2.9346376486
 20
9.0081123716
 10
-2.4673122251
 20
9.1371905109
 10
-1.9932837022
 20
9.2371108376
 10
-1.5144336039
 20
9.307476746
 10
-1.0326625924
 20
9.348008938
 10
-0.5498829235
 20
9.3585465325
 10
-0.0680108565
 20
9.3390477035
 10
0.4110409516
 20
9.289589846
 10
0.8853710382
 20
9.2103692693
 10
1.353096682
 20
9.1017004174
 10
1.8123613765
 20
8.9640146211
 10
2.2613421983
 20
8.7978583856
 10
2.6982570433
 20
8.603891222
 10
3.1213716996
 20
8.3828830289
 10
3.5290067315
 20
8.1357110366
 10
3.9195441453
 20
7.8633563256
 10
4.2914338116
 20
7.5668999319
 10
4.6431996178
 20
7.2475185568
 10
4.9734453277
 20
6.9064798955
 10
5.2808601229
 20
6.545137606
 10
5.5642238059
 20
6.1649259359
 10
5.8224116437
 20
5.7673540295
 10
6.0543988316
 20
5.3539999377
 10
6.2592645609
 20
4.9265043544
 10
6.4361956742
 20
4.4865641042
 10
6.5844898929
 20
4.0359254073
 10
6.7035586043
 20
3.5763769487
 10
6.7929291984
 20
3.1097427778
 10
6.8522469433
 20
2.6378750689
 10
6.881276394
 20
2.1626467695
 10
6.8799023261
 20
1.685944166
 10
6.8481301935
 20
1.2096593964
 10
6.786086107
 20
0.7356829406
 10
6.6940163331
 20
0.265896116
 10
6.5722863172
 20
-0.1978363895
 10
6.4213792328
 20
-0.6536739188
 10
6.2418940634
 20
-1.099807152
 10
6.0345432254
 20
-1.5344652874
 10
5.8001497402
 20
-1.9559230706
 10
5.5396439674
 20
-2.3625076425
 10
5.2540599122
 20
-2.7526051787
 10
4.9445311209
 20
-3.1246672958
 10
4.6122861817
 20
-3.4772171969
 10
4.2586438485
 20
-3.8088555334
 10
3.8850078059
 20
-4.1182659592
 10
3.4928610981
 20
-4.404220356
 10
3.0837602422
 20
-4.6655837073
 10
2.6593290501
 20
-4.9013186042
 10
2.2212521832
 20
-5.1104893627
  0
SPLINE
  5
58
330
1F
100
AcDbEntity
  8
0
  6
Continuous
 62
     7
370
    15
100
AcDbSpline
210
0.0
220
0.0
230
1.0
 70
     8
 71
     3
 72
     8
 73
     4
 74
     0
 42
0.00000001
 43
0.00000001
 12
1.0
 22
0.0
 32
0.0
 13
1.0
 23
0.0
 33
0.0
 40
0.0
 40
0.0
 40
0.0
 40
0.0
 40
1.0
 40
1.0
 40
1.0
 40
1.0
 10
1.050070206173512
 20
-3.511652622978898
 30
0.0
 10
-3.582602130254071
 20
-6.79590546542416
 30
0.0
 10
-6.736499653424941
 20
-4.857117333349989
 30
0.0
 10
-8.411622363339092
 20
2.304711773243613
 30
0.0
  0
LWPOLYLINE
  5
59
330
1F
100
AcDbEntity
  8
0
  6
Continuous
 62
     7
370
    15
100
AcDbPolyline
 90
       59
 70
   128
 43
0.0
 10
-6.4155470577
 20
2.56938333
 10
-6.3347944307
 20
2.9739543074
 10
-6.2245374593
 20
3.3722447887
 10
-6.0853616208
 20
3.7621398048
 10
-5.9180059551
 20
4.1415689677
 10
-5.7233591404
 20
4.5085174643
 10
-5.502454774
 20
4.8610367552
 10
-5.2564658839
 20
5.1972549218
 10
-4.9866986998
 20
5.5153866064
 10
-4.6945857168
 20
5.8137424926
 10
-4.3816780892
 20
6.0907382758
 10
-4.0496373929
 20
6.3449030761
 10
-3.7002268028
 20
6.5748872487
 10
-3.3353017299
 20
6.7794695508
 10
-2.9567999689
 20
6.9575636264
 10
-2.5667314084
 20
7.1082237753
 10
-2.167167358
 20
7.2306499745
 10
-1.7602295494
 20
7.3241921265
 10
-1.34807887
 20
7.3883535116
 10
-0.9329038879
 20
7.4227934254
 10
-0.5169092308
 20
7.4273289879
 10
-0.1023038789
 20
7.4019361148
 10
0.308710565
 20
7.3467496451
 10
0.7139515663
 20
7.2620626254
 10
1.1112672478
 20
7.1483247538
 10
1.498547817
 20
7.0061399915
 10
1.8737367688
 20
6.8362633563
 10
2.234841806
 20
6.639596913
 10
2.5799454188
 20
6.4171849833
 10
2.9072150667
 20
6.1702086005
 10
3.2149129095
 20
5.8999792381
 10
3.501405036
 20
5.6079318455
 10
3.7651701394
 20
5.2956172285
 10
4.0048075962
 20
4.9646938142
 10
4.2190449036
 20
4.6169188445
 10
4.4067444364
 20
4.2541390451
 10
4.5669094882
 20
3.8782808191
 10
4.6986895639
 20
3.4913400175
 10
4.8013848959
 20
3.0953713413
 10
4.87445016
 20
2.6924774303
 10
4.9174973711
 20
2.2847976981
 10
4.9302979435
 20
1.8744969719
 10
4.9127839047
 20
1.4637539963
 10
4.8650482562
 20
1.0547498645
 10
4.7873444799
 20
0.6496564362
 10
4.680085192
 20
0.2506248048
 10
4.5438399517
 20
-0.1402261252
 10
4.3793322373
 20
-0.5208208897
 10
4.1874356038
 20
-0.889138486
 10
3.9691690449
 20
-1.2432231047
 10
3.7256915814
 20
-1.5811945152
 10
3.4582961071
 20
-1.9012580498
 10
3.1684025231
 20
-2.2017141338
 10
2.8575501983
 20
-2.4809673102
 10
2.5273897948
 20
-2.7375347122
 10
2.1796745029
 20
-2.9700539368
 10
1.8162507313
 20
-3.1772902798
 10
1.4390483028
 20
-3.3581432921
 10
1.0500702062
 20
-3.511652623
  0
SPLINE
  5
5A
330
1F
100
AcDbEntity
  8
0
  6
Continuous
 62
     7
370
    15
100
AcDbSpline
210
0.0
220
0.0
230
1.0
 70
     8
 71
     3
 72
     8
 73
     4
 74
     0
 42
0.00000001
 43
0.00000001
 12
1.0
 22
0.0
 32
0.0
 13
1.0
 23
0.0
 33
0.0
 40
0.0
 40
0.0
 40
0.0
 40
0.0
 40
1.0
 40
1.0
 40
1.0
 40
1.0
 10
-1.830429016664957
 20
-2.524409580939204
 30
0.0
 10
-4.375619609013174
 20
-4.004420956582022
 30
0.0
 10
-5.903992289353557
 20
-2.30648998626453
 30
0.0
 10
-6.415547057686107
 20
2.56938333001327
 30
0.0
  0
LWPOLYLINE
  5
5B
330
1F
100
AcDbEntity
  8
0
  6
Continuous
 62
     7
370
    15
100
AcDbPolyline
 90
       70
 70
   128
 43
0.0
 10
-1.8304290167
 20
-2.5244095809
 10
-2.1822613979
 20
-2.4323011441
 10
-2.5247081621
 20
-2.311953226
 10
-2.8554796237
 20
-2.1641705031
 10
-3.1723641609
 20
-1.9899410882
 10
-3.4732430037
 20
-1.7904299231
 10
-3.7561044
 20
-1.5669709899
 10
-4.019057067
 20
-1.3210583917
 10
-4.2603428366
 20
-1.0543363621
 10
-4.4783484113
 20
-0.7685882722
 10
-4.6716161507
 20
-0.4657247059
 10
-4.8388538176
 20
-0.1477706856
 10
-4.9789432189
 20
0.1831478677
 10
-5.0909476813
 20
0.524818349
 10
-5.1741183147
 20
0.8749562629
 10
-5.2278990192
 20
1.2312204988
 10
-5.2519302035
 20
1.591228984
 10
-5.2460511889
 20
1.9525746107
 10
-5.210301284
 20
2.3128413306
 10
-5.1449195217
 20
2.6696203095
 10
-5.0503430611
 20
3.0205260328
 10
-4.9272042642
 20
3.3632122561
 10
-4.7763264682
 20
3.6953876927
 10
-4.5987184802
 20
4.0148313335
 10
-4.3955678321
 20
4.3194072978
 10
-4.1682328405
 20
4.6070791135
 10
-3.9182335246
 20
4.8759233342
 10
-3.6472414431
 20
5.1241423993
 10
-3.3570685176
 20
5.3500766536
 10
-3.0496549175
 20
5.5522154433
 10
-2.7270560881
 20
5.7292072175
 10
-2.3914290066
 20
5.8798685644
 10
-2.0450177605
 20
6.0031921242
 10
-1.6901385431
 20
6.0983533243
 10
-1.3291641665
 20
6.1647158929
 10
-0.9645081967
 20
6.201836113
 10
-0.5986088157
 20
6.2094657896
 10
-0.2339125192
 20
6.1875539086
 10
0.1271422409
 20
6.1362469784
 10
0.4821413614
 20
6.0558880501
 10
0.8287112284
 20
5.9470144239
 10
1.164534588
 20
5.8103540564
 10
1.4873660405
 20
5.6468206933
 10
1.7950470529
 20
5.45750776
 10
2.0855203924
 20
5.2436810507
 10
2.3568438808
 20
5.0067702648
 10
2.6072033804
 20
4.7483594477
 10
2.8349249245
 20
4.4701763996
 10
3.0384859093
 20
4.1740811225
 10
3.2165252744
 20
3.8620533845
 10
3.3678526037
 20
3.5361794818
 10
3.4914560845
 20
3.1986382898
 10
3.5865092725
 20
2.8516866943
 10
3.6523766181
 20
2.4976445012
 10
3.6886177156
 20
2.1388789264
 10
3.6949902478
 20
1.777788767
 10
3.6714516065
 20
1.4167883633
 10
3.6181591768
 20
1.0582914551
 10
3.5354692855
 20
0.7046950436
 10
3.4239348181
 20
0.3583633636
 10
3.2843015222
 20
0.0216120764
 10
3.1175030214
 20
-0.3033072137
 10
2.9246545725
 20
-0.6142220142
 10
2.7070456092
 20
-0.9090534702
 10
2.46613112
 20
-1.185830264
 10
2.2035219199
 20
-1.4427017959
 10
1.9209738807
 20
-1.677950558
 10
1.6203761898
 20
-1.8900036175
 10
1.3037387195
 20
-2.0774431341
 10
0.973178588
 20
-2.2390158397
  0
SPLINE
  5
5C
330
1F
100
AcDbEntity
  8
0
  6
Continuous
 62
     7
370
    15
100
AcDbSpline
210
0.0
220
0.0
230
1.0
 70
     8
 71
     3
 72
     8
 73
     4
 74
     0
 42
0.00000001
 43
0.00000001
 12
1.0
 22
0.0
 32
0.0
 13
1.0
 23
0.0
 33
0.0
 40
0.0
 40
0.0
 40
0.0
 40
0.0
 40
1.0
 40
1.0
 40
1.0
 40
1.0
 10
0.9731785880089225
 20
-2.239015839670115
 30
0.0
 10
-3.267732670796189
 20
-5.958096152699113
 30
0.0
 10
-6.013389688593163
 20
-4.479769585314262
 30
0.0
 10
-7.263792465381997
 20
2.195963862484437
 30
0.0
  0
LWPOLYLINE
  5
5D
330
1F
100
AcDbEntity
  8
0
  6
Continuous
 62
     7
370
    15
100
AcDbPolyline
 90
       60
 70
   128
 43
0.0
 10
-7.2637924654
 20
2.1959638625
 10
-7.2114436966
 20
2.6340828189
 10
-7.1289166646
 20
3.0682476716
 10
-7.0165985232
 20
3.4964216503
 10
-6.8750161833
 20
3.9165960893
 10
-6.7048338415
 20
4.3267998506
 10
-6.5068498633
 20
4.7251085712
 10
-6.2819930386
 20
5.1096536904
 10
-6.031318224
 20
5.4786312159
 10
-5.7560013946
 20
5.8303101864
 10
-5.4573341269
 20
6.1630407928
 10
-5.1367175399
 20
6.4752621166
 10
-4.795655722
 20
6.7655094537
 10
-4.4357486751
 20
7.032421185
 10
-4.0586848085
 20
7.2747451643
 10
-3.6662330182
 20
7.4913445922
 10
-3.2602343886
 20
7.6812033496
 10
-2.8425935556
 20
7.8434307639
 10
-2.4152697713
 20
7.9772657879
 10
-1.980267713
 20
8.0820805698
 10
-1.5396280785
 20
8.1573833985
 10
-1.0954180128
 20
8.2028210107
 10
-0.6497214107
 20
8.2181802477
 10
-0.2046291406
 20
8.2033890557
 10
0.2377707641
 20
8.1585168237
 10
0.6754029006
 20
8.0837740579
 10
1.1062142326
 20
7.9795113944
 10
1.5281837221
 20
7.8462179542
 10
1.9393318101
 20
7.6845190482
 10
2.3377297035
 20
7.4951732445
 10
2.7215084233
 20
7.2790688091
 10
3.0888675724
 20
7.0372195391
 10
3.438083782
 20
6.7707600069
 10
3.7675187961
 20
6.4809402373
 10
4.0756271568
 20
6.1691198435
 10
4.3609634547
 20
5.836761649
 10
4.6221891097
 20
5.4854248248
 10
4.8580786503
 20
5.1167575755
 10
5.0675254626
 20
4.7324894063
 10
5.249546982
 20
4.3344230105
 10
5.4032893024
 20
3.9244258118
 10
5.5280311821
 20
3.5044212045
 10
5.6231874274
 20
3.0763795296
 10
5.6883116377
 20
2.6423088323
 10
5.7230982999
 20
2.204245441
 10
5.7273842217
 20
1.7642444151
 10
5.7011492965
 20
1.3243699037
 10
5.6445165989
 20
0.8866854623
 10
5.557751806
 20
0.4532443727
 10
5.4412619523
 20
0.0260800096
 10
5.2955935191
 20
-0.3928036976
 10
5.1214298717
 20
-0.8014416661
 10
4.9195880531
 20
-1.1979168782
 10
4.691014951
 20
-1.5803693748
 10
4.4367828561
 20
-1.9470049805
 10
4.1580844314
 20
-2.2961037206
 10
3.8562271174
 20
-2.6260278903
 10
3.5326269983
 20
-2.935229737
 10
3.188802159
 20
-3.2222587215
 10
2.8263655633
 20
-3.4857683228
  0
SPLINE
  5
5E
330
1F
100
AcDbEntity
  8
0
  6
Continuous
 62
     7
370
    15
100
AcDbSpline
210
0.0
220
0.0
230
1.0
 70
     8
 71
     3
 72
     9
 73
     5
 74
     0
 42
0.00000001
 43
0.00000001
 12
1.0
 22
0.0
 32
0.0
 13
1.0
 23
0.0
 33
0.0
 40
0.0
 40
0.0
 40
0.0
 40
0.0
 40
0.4781356110651326
 40
1.0
 40
1.0
 40
1.0
 40
1.0
 10
2.826365563289678
 20
-3.485768322810522
 30
0.0
 10
1.071728844546139
 20
-5.355825617976683
 30
0.0
 10
-6.641242744358454
 20
-9.416831458259011
 30
0.0
 10
-9.234333377020628
 20
0.1459508774859469
 30
0.0
 10
-9.379751446764505
 20
1.878516425114473
 30
0.0
  0
LWPOLYLINE
  5
5F
330
1F
100
AcDbEntity
  8
0
  6
Continuous
 62
     7
370
    15
100
AcDbPolyline
 90
       70
 70
   128
 43
0.0
 10
-9.3797514468
 20
1.8785164251
 10
-9.349049685
 20
2.3811239956
 10
-9.2883220199
 20
2.8816648715
 10
-9.1977812048
 20
3.3783854584
 10
-9.0777444401
 20
3.8695455461
 10
-8.9286322626
 20
4.3534244048
 10
-8.7509670717
 20
4.8283268141
 10
-8.5453712993
 20
5.2925890013
 10
-8.3125652295
 20
5.7445844709
 10
-8.0533644748
 20
6.1827297024
 10
-7.7686771188
 20
6.6054896984
 10
-7.4595005349
 20
7.0113833621
 10
-7.1269178918
 20
7.3989886859
 10
-6.7720943593
 20
7.7669477341
 10
-6.3962730257
 20
8.1139713991
 10
-6.000770543
 20
8.4388439188
 10
-5.586972514
 20
8.7404271351
 10
-5.1563286385
 20
9.0176644818
 10
-4.7103476335
 20
9.2695846859
 10
-4.2505919484
 20
9.4953051704
 10
-3.7786722907
 20
9.6940351464
 10
-3.2962419832
 20
9.8650783837
 10
-2.8049911717
 20
10.0078356495
 10
-2.3066409035
 20
10.1218068081
 10
-1.8029370986
 20
10.2065925733
 10
-1.2956444322
 20
10.2618959065
 10
-0.7865401527
 20
10.2875230583
 10
-0.2774078556
 20
10.2833842464
 10
0.2299687657
 20
10.2494939707
 10
0.7338121685
 20
10.1859709625
 10
1.2323571885
 20
10.0930377682
 10
1.7238572237
 20
9.9710199697
 10
2.2065903533
 20
9.8203450441
 10
2.6788653708
 20
9.6415408658
 10
3.1390277084
 20
9.4352338571
 10
3.5854652339
 20
9.2021467937
 10
4.0166138987
 20
8.9430962725
 10
4.4309632169
 20
8.6589898509
 10
4.8270615578
 20
8.350822867
 10
5.2035212308
 20
8.0196749526
 10
5.5590233476
 20
7.6667062508
 10
5.8923224425
 20
7.2931533519
 10
6.2022508358
 20
6.9003249606
 10
6.4877227248
 20
6.4895973114
 10
6.7477379876
 20
6.062409347
 10
6.9813856871
 20
5.6202576774
 10
7.1878472622
 20
5.164691336
 10
7.3663993955
 20
4.6973063536
 10
7.5164165479
 20
4.219740166
 10
7.6373731494
 20
3.7336658781
 10
7.7288454408
 20
3.2407864019
 10
7.7905129582
 20
2.7428284909
 10
7.8221596556
 20
2.2415366902
 10
7.823674662
 20
1.7386672248
 10
7.7950526699
 20
1.2359818471
 10
7.7363939534
 20
0.7352416644
 10
7.6479040174
 20
0.2382009693
 10
7.5298928775
 20
-0.2533989065
 10
7.3827739737
 20
-0.7378356926
 10
7.2070627223
 20
-1.2134122136
 10
7.0033747097
 20
-1.6784623354
 10
6.7724235365
 20
-2.1313568019
 10
6.5150183165
 20
-2.5705089433
 10
6.232060843
 20
-2.9943802343
 10
5.9245424289
 20
-3.4014856849
 10
5.5935404337
 20
-3.7903990423
 10
5.2402144896
 20
-4.1597577878
 10
4.865802438
 20
-4.5082679106
 10
4.4716159939
 20
-4.8347084407
 10
4.0590361495
 20
-5.1379357266
  0
SPLINE
  5
60
330
1F
100
AcDbEntity
  8
0
  6
Continuous
 62
     7
370
    15
100
AcDbSpline
210
0.0
220
0.0
230
1.0
 70
     8
 71
     3
 72
     8
 73
     4
 74
     0
 42
0.00000001
 43
0.00000001
 12
1.0
 22
0.0
 32
0.0
 13
1.0
 23
0.0
 33
0.0
 40
0.0
 40
0.0
 40
0.0
 40
0.0
 40
1.0
 40
1.0
 40
1.0
 40
1.0
 10
4.059036149520336
 20
-5.137935726612477
 30
0.0
 10
-1.309086630859625
 20
-10.71596105275726
 30
0.0
 10
-6.711279140722053
 20
-9.369473658647735
 30
0.0
 10
-12.14754138006694
 20
-1.098473544283905
 30
0.0
  0
LWPOLYLINE
  5
61
330
1F
100
AcDbEntity
  8
0
  6
Continuous
 62
     7
370
    15
100
AcDbPolyline
 90
       93
 70
   128
 43
0.0
 10
-12.1475413801
 20
-1.0984735443
 10
-12.2697325527
 20
-0.5272503315
 10
-12.3622487607
 20
0.0499601035
 10
-12.4248510892
 20
0.6316671669
 10
-12.4573778735
 20
1.2163686523
 10
-12.459745116
 20
1.8025546207
 10
-12.4319467035
 20
2.3887112996
 10
-12.3740544228
 20
2.9733249919
 10
-12.2862177757
 20
3.5548859854
 10
-12.1686635924
 20
4.1318924511
 10
-12.021695446
 20
4.7028543217
 10
-11.8456928685
 20
5.2662971393
 10
-11.6411103707
 20
5.8207658636
 10
-11.4084762686
 20
6.364828629
 10
-11.1483913188
 20
6.8970804421
 10
-10.8615271674
 20
7.4161468106
 10
-10.5486246152
 20
7.9206872923
 10
-10.2104917049
 20
8.4093989565
 10
-9.8480016344
 20
8.8810197495
 10
-9.4620905018
 20
9.3343317529
 10
-9.0537548878
 20
9.7681643292
 10
-8.6240492825
 20
10.1813971447
 10
-8.1740833619
 20
10.5729630629
 10
-7.7050191227
 20
10.9418508999
 10
-7.218067881
 20
11.287108036
 10
-6.7144871448
 20
11.6078428758
 10
-6.1955773659
 20
11.9032271503
 10
-5.6626785823
 20
12.1724980562
 10
-5.1171669572
 20
12.4149602256
 10
-4.5604512252
 20
12.6299875217
 10
-3.9939690548
 20
12.8170246559
 10
-3.4191833353
 20
12.9755886215
 10
-2.8375783991
 20
13.1052699414
 10
-2.2506561887
 20
13.2057337251
 10
-1.659932378
 20
13.2767205342
 10
-1.066932458
 20
13.3180470513
 10
-0.4731877979
 20
13.3296065547
 10
0.1197683102
 20
13.3113691927
 10
0.7104046104
 20
13.263382062
 10
1.2971958376
 20
13.1857690847
 10
1.8786266561
 20
13.0787306896
 10
2.4531955731
 20
12.9425432937
 10
3.019418816
 20
12.7775585886
 10
3.5758341642
 20
12.5842026325
 10
4.121004725
 20
12.3629747498
 10
4.6535226445
 20
12.1144462417
 10
5.1720127429
 20
11.8392589106
 10
5.6751360663
 20
11.5381234032
 10
6.1615933439
 20
11.2118173748
 10
6.6301283434
 20
10.8611834813
 10
7.0795311153
 20
10.4871272034
 10
7.5086411173
 20
10.0906145077
 10
7.9163502115
 20
9.6726693527
 10
8.3016055258
 20
9.2343710441
 10
8.6634121728
 20
8.7768514479
 10
9.0008358195
 20
8.3012920674
 10
9.3130050997
 20
7.808920992
 10
9.5991138641
 20
7.3010097256
 10
9.8584232627
 20
6.7788699035
 10
10.0902636522
 20
6.2438499048
 10
10.2940363256
 20
5.6973313707
 10
10.4692150584
 20
5.140725636
 10
10.6153474672
 20
4.5754700852
 10
10.7320561782
 20
4.0030244398
 10
10.8190398016
 20
3.4248669893
 10
10.8760737101
 20
2.8424907734
 10
10.9030106186
 20
2.2573997262
 10
10.8997809652
 20
1.6711047929
 10
10.8663930899
 20
1.0851200273
 10
10.8029332141
 20
0.5009586826
 10
10.7095652171
 20
-0.0798706972
 10
10.5865302135
 20
-0.6558681723
 10
10.43414593
 20
-1.2255462811
 10
10.2528058854
 20
-1.787433881
 10
10.042978374
 20
-2.3400799478
 10
9.8052052566
 20
-2.8820573227
 10
9.5401005608
 20
-3.4119663978
 10
9.2483488957
 20
-3.9284387306
 10
8.9307036838
 20
-4.4301405777
 10
8.5879852152
 20
-4.9157763391
 10
8.2210785296
 20
-5.3840919042
 10
7.8309311305
 20
-5.83387789
 10
7.4185505386
 20
-6.2639727648
 10
6.9850016897
 20
-6.6732658471
 10
6.5314041846
 20
-7.0607001744
 10
6.0589293982
 20
-7.4252752323
 10
5.5687974542
 20
-7.7660495384
 10
5.0622740743
 20
-8.0821430738
 10
4.5406673095
 20
-8.3727395554
 10
4.0053241625
 20
-8.6370885438
 10
3.4576271088
 20
-8.8745073814
 10
2.8989905268
 20
-9.0843829556
 10
2.3308570453
 20
-9.2661732815
  0
SPLINE
  5
62
330
1F
100
AcDbEntity
  8
0
  6
Continuous
 62
     7
370
    15
100
AcDbSpline
210
0.0
220
0.0
230
1.0
 70
     8
 71
     3
 72
     8
 73
     4
 74
     0
 42
0.00000001
 43
0.00000001
 12
1.0
 22
0.0
 32
0.0
 13
1.0
 23
0.0
 33
0.0
 40
0.0
 40
0.0
 40
0.0
 40
0.0
 40
1.0
 40
1.0
 40
1.0
 40
1.0
 10
2.330857045317811
 20
-9.266173281524908
 30
0.0
 10
-4.025904624977833
 20
-13.24610533511958
 30
0.0
 10
-9.820688496742715
 20
-10.44733734975655
 30
0.0
 10
-15.05349456997684
 20
-0.8698693254358385
 30
0.0
  0
LWPOLYLINE
  5
63
330
1F
100
AcDbEntity
  8
0
  6
Continuous
 62
     7
370
    15
100
AcDbPolyline
 90
      103
 70
   128
 43
0.0
 10
-15.05349457
 20
-0.8698693254
 10
-15.1478526122
 20
-0.2297074603
 10
-15.2126027209
 20
0.4146185067
 10
-15.2476114786
 20
1.0617809432
 10
-15.2528067499
 20
1.7104463723
 10
-15.2281778299
 20
2.3592782201
 10
-15.1737754664
 20
3.0069395701
 10
-15.0897117554
 20
3.6520959172
 10
-14.97615991
 20
4.2934179182
 10
-14.8333539036
 20
4.9295841304
 10
-14.6615879876
 20
5.5592837346
 10
-14.4612160853
 20
6.181219236
 10
-14.2326510627
 20
6.7941091378
 10
-13.9763638776
 20
7.3966905816
 10
-13.692882609
 20
7.9877219496
 10
-13.3827913697
 20
8.5659854228
 10
-13.046729102
 20
9.1302894905
 10
-12.6853882615
 20
9.6794714053
 10
-12.2995133903
 20
10.2123995791
 10
-11.8898995827
 20
10.7279759144
 10
-11.4573908472
 20
11.2251380671
 10
-11.0028783672
 20
11.7028616358
 10
-10.5272986646
 20
12.1601622719
 10
-10.0316316706
 20
12.5960977085
 10
-9.5168987059
 20
13.0097697013
 10
-8.9841603768
 20
13.4003258803
 10
-8.4345143894
 20
13.7669615051
 10
-7.8690932883
 20
14.1089211237
 10
-7.2890621225
 20
14.4255001291
 10
-6.6956160451
 20
14.7160462109
 10
-6.0899778503
 20
14.9799606995
 10
-5.4733954546
 20
15.2166997996
 10
-4.8471393247
 20
15.4257757107
 10
-4.21249986
 20
15.6067576324
 10
-3.570784734
 20
15.7592726518
 10
-2.9233161993
 20
15.883006512
 10
-2.2714283635
 20
15.9777042596
 10
-1.6164644401
 20
16.0431707702
 10
-0.9597739811
 20
16.07927115
 10
-0.3027100957
 20
16.0859310145
 10
0.3533733372
 20
16.0631366408
 10
1.007124459
 20
16.0109349968
 10
1.657196217
 20
15.9294336439
 10
2.3022491395
 20
15.8188005153
 10
2.9409540963
 20
15.6792635706
 10
3.5719950372
 20
15.5111103252
 10
4.1940717036
 20
15.3146872586
 10
4.8059023077
 20
15.0903991001
 10
5.406226174
 20
14.838707995
 10
5.9938063361
 20
14.5601325522
 10
6.5674320865
 20
14.2552467761
 10
7.1259214705
 20
13.924678883
 10
7.6681237217
 20
13.5691100074
 10
8.1929216336
 20
13.1892727983
 10
8.6992338611
 20
12.7859499095
 10
9.186017149
 20
12.359972387
 10
9.6522684811
 20
11.9122179566
 10
10.0970271477
 20
11.4436092153
 10
10.5193767244
 20
10.9551117306
 10
10.9184469607
 20
10.4477320505
 10
11.2934155732
 20
9.9225156298
 10
11.6435099399
 20
9.3805446759
 10
11.968008692
 20
8.8229359189
 10
12.2662432006
 20
8.2508383104
 10
12.537598954
 20
7.6654306564
 10
12.7815168242
 20
7.0679191881
 10
12.997494219
 20
6.4595350768
 10
13.1850861173
 20
5.8415318967
 10
13.3439059865
 20
5.2151830421
 10
13.4736265786
 20
4.5817791035
 10
13.5739806045
 20
3.9426252084
 10
13.6447612849
 20
3.2990383321
 10
13.6858227764
 20
2.6523445842
 10
13.697080472
 20
2.0038764757
 10
13.678511175
 20
1.3549701738
 10
13.6301531476
 20
0.7069627488
 10
13.5521060313
 20
0.0611894185
 10
13.4445306421
 20
-0.5810192024
 10
13.3076486389
 20
-1.2183398444
 10
13.1417420666
 20
-1.8494593095
 10
12.9471527756
 20
-2.4730771774
 10
12.7242817166
 20
-3.0879084847
 10
12.4735881149
 20
-3.6926863728
 10
12.1955885243
 20
-4.286164698
 10
11.8908557624
 20
-4.8671205996
 10
11.5600177303
 20
-5.434357019
 10
11.2037561192
 20
-5.9867051667
 10
10.8228050053
 20
-6.5230269305
 10
10.4179493378
 20
-7.0422172205
 10
9.9900233208
 20
-7.5432062462
 10
9.5399086951
 20
-8.0249617207
 10
9.0685329208
 20
-8.4864909878
 10
8.576867267
 20
-8.9268430674
 10
8.0659248096
 20
-9.345110615
 10
7.5367583445
 20
-9.740431791
 10
6.9904582181
 20
-10.1119920371
 10
6.4281500808
 20
-10.4590257541
 10
5.8509925673
 20
-10.7808178796
 10
5.2601749096
 20
-11.0767053618
 10
4.6569144861
 20
-11.3460785251
 10
4.0424543138
 20
-11.5883823265
 10
3.4180604865
 20
-11.8031174997
 10
2.7850195666
 20
-11.9898415831
  0
LWPOLYLINE
  5
65
330
1F
100
AcDbEntity
  8
0
  6
Continuous
 62
     7
370
    15
100
AcDbPolyline
 90
       52
 70
   128
 43
0.0
 10
1.402966678
 20
-15.8556444248
 10
1.6219592547
 20
-15.7430640215
 10
1.8258302108
 20
-15.6050372641
 10
2.0114890705
 20
-15.4436564976
 10
2.1761214347
 20
-15.2613680899
 10
2.3172316446
 20
-15.0609353473
 10
2.4326806132
 20
-14.8453966261
 10
2.5207182519
 20
-14.6180192735
 10
2.5800099998
 20
-14.3822500983
 10
2.6096570544
 20
-14.1416631211
 10
2.6092099967
 20
-13.8999053949
 10
2.5786756035
 20
-13.6606417207
 10
2.5185167451
 20
-13.4274990918
 10
2.4296453685
 20
-13.2040117127
 10
2.3134086732
 20
-12.9935674244
 10
2.171568689
 20
-12.7993563478
 10
2.0062755655
 20
-12.6243225247
 10
1.8200349779
 20
-12.4711192896
 10
1.6156701437
 20
-12.3420690473
 10
1.3962790255
 20
-12.2391280679
 10
1.165187369
 20
-12.1638568318
 10
0.925898288
 20
-12.1173963741
 10
0.6820391613
 20
-12.1004509881
 10
0.4373066446
 20
-12.1132775486
 10
0.1954106332
 20
-12.1556816178
 10
-0.0399819756
 20
-12.2270203935
 10
-0.2653028701
 20
-12.3262124524
 10
-0.4771364151
 20
-12.451754144
 10
-0.67227143
 20
-12.6017423843
 10
-0.8477498668
 20
-12.7739035045
 10
-1.0009116514
 20
-12.9656277174
 10
-1.1294350072
 20
-13.1740086795
 10
-1.2313716512
 20
-13.3958875477
 10
-1.3051763277
 20
-13.6279008646
 10
-1.3497302331
 20
-13.8665315448
 10
-1.3643579755
 20
-14.1081621904
 10
-1.3488378134
 20
-14.3491299271
 10
-1.3034050165
 20
-14.5857819297
 10
-1.2287482998
 20
-14.8145307951
 10
-1.125999383
 20
-15.0319089236
 10
-0.9967158348
 20
-15.2346210845
 10
-0.8428574622
 20
-15.4195943678
 10
-0.6667566012
 20
-15.5840247673
 10
-0.4710827614
 20
-15.7254196857
 10
-0.2588021586
 20
-15.8416357202
 10
-0.0331327506
 20
-15.9309111541
 10
0.2025045446
 20
-15.9918926628
 10
0.4445377058
 20
-16.0236558289
 10
0.6892977569
 20
-16.0257191552
 10
0.9330743851
 20
-15.9980513636
 10
1.1721721851
 20
-15.9410718698
 10
1.402966678
 20
-15.8556444248
  0
SPLINE
  5
77
330
1F
100
AcDbEntity
  8
0
  6
Continuous
 62
     7
370
    15
100
AcDbSpline
210
0.0
220
0.0
230
1.0
 70
     8
 71
     3
 72
    25
 73
    21
 74
     0
 42
0.00000001
 43
0.00000001
 12
1.0
 22
0.0
 32
0.0
 13
1.0
 23
0.0
 33
0.0
 40
0.0
 40
0.0
 40
0.0
 40
0.0
 40
0.0696235372293022
 40
0.1339541337482558
 40
0.193483967214048
 40
0.248833431604064
 40
0.3007729354125772
 40
0.3502324907614036
 40
0.3982863135703004
 40
0.4461034534848779
 40
0.4948699846767503
 40
0.545705572321447
 40
0.595899479618322
 40
0.6494418197178837
 40
0.7068955979050637
 40
0.7687170477720869
 40
0.8352726432571757
 40
0.9068561854168322
 40
0.9791680499069759
 40
1.0
 40
1.0
 40
1.0
 40
1.0
 10
1.956872500301105
 20
-4.638626845209513
 30
0.0
 10
1.716968021277593
 20
-4.872377160474291
 30
0.0
 10
1.255397151011666
 20
-5.32210755684227
 30
0.0
 10
0.5280899211020555
 20
-5.906275801506688
 30
0.0
 10
-0.1905126042634877
 20
-6.386591709369847
 30
0.0
 10
-0.9044840065822366
 20
-6.759261135398686
 30
0.0
 10
-1.613278099921584
 20
-7.024497208013551
 30
0.0
 10
-2.317082302941353
 20
-7.181186963610321
 30
0.0
 10
-3.01522781089284
 20
-7.228443940540277
 30
0.0
 10
-3.706570556205923
 20
-7.165774809936238
 30
0.0
 10
-4.389873593988439
 20
-6.993478437687227
 30
0.0
 10
-5.048138479173908
 20
-6.719202048620815
 30
0.0
 10
-5.682782698074089
 20
-6.352507230461708
 30
0.0
 10
-6.2965680843587
 20
-5.900352349989517
 30
0.0
 10
-6.903393666432492
 20
-5.355230965162125
 30
0.0
 10
-7.50338291985569
 20
-4.717138969488505
 30
0.0
 10
-8.097620525231815
 20
-3.986578578016803
 30
0.0
 10
-8.67042605971184
 20
-3.178865789505224
 30
0.0
 10
-9.0930181097771
 20
-2.528868403485751
 30
0.0
 10
-9.310220621754942
 20
-2.148484667762301
 30
0.0
 10
-9.358798746989029
 20
-2.063410473257269
 30
0.0
  0
SPLINE
  5
79
330
1F
100
AcDbEntity
  8
0
  6
Continuous
 62
     7
370
    15
100
AcDbSpline
210
0.0
220
0.0
230
1.0
 70
     8
 71
     3
 72
    17
 73
    13
 74
     0
 42
0.00000001
 43
0.00000001
 12
1.0
 22
0.0
 32
0.0
 13
1.0
 23
0.0
 33
0.0
 40
0.0
 40
0.0
 40
0.0
 40
0.0
 40
0.0038409932949173
 40
0.1299074411637609
 40
0.2558651101642636
 40
0.3800279190598135
 40
0.5062130794879675
 40
0.6262813809593796
 40
0.737992667753106
 40
0.8390587512943867
 40
0.927165086440816
 40
1.0
 40
1.0
 40
1.0
 40
1.0
 10
-7.910839035675061
 20
-3.012774685606185
 30
0.0
 10
-7.914587709318878
 20
-3.006568013689317
 30
0.0
 10
-8.041372778553658
 20
-2.796650212497057
 30
0.0
 10
-8.253442523945544
 20
-2.361581785993464
 30
0.0
 10
-8.548687612156513
 20
-1.715799445287789
 30
0.0
 10
-8.808177144165716
 20
-1.053784942658581
 30
0.0
 10
-9.0365949323304
 20
-0.3922193583009276
 30
0.0
 10
-9.230918058799894
 20
0.2559214772211507
 30
0.0
 10
-9.388740958865807
 20
0.8652541141303443
 30
0.0
 10
-9.509104703456861
 20
1.421558262409437
 30
0.0
 10
-9.596791380155407
 20
1.909910779715784
 30
0.0
 10
-9.62938203577176
 20
2.213147411994252
 30
0.0
 10
-9.644131129641393
 20
2.350378942615588
 30
0.0
  0
SPLINE
  5
7A
330
1F
100
AcDbEntity
  8
0
  6
Continuous
 62
     7
370
    15
100
AcDbSpline
210
0.0
220
0.0
230
1.0
 70
     8
 71
     3
 72
    21
 73
    17
 74
     0
 42
0.00000001
 43
0.00000001
 12
1.0
 22
0.0
 32
0.0
 13
1.0
 23
0.0
 33
0.0
 40
0.0
 40
0.0
 40
0.0
 40
0.0
 40
0.0903960240003178
 40
0.1741775961642231
 40
0.2518442371510878
 40
0.3240225373447515
 40
0.3914921714348218
 40
0.4552059112276367
 40
0.5162925248288368
 40
0.5760298891235169
 40
0.6357825094277815
 40
0.6969138694839185
 40
0.7685736377501523
 40
0.8451259681136253
 40
0.9278591679999225
 40
1.0
 40
1.0
 40
1.0
 40
1.0
 10
0.7856905232966254
 20
-3.039790105477783
 30
0.0
 10
0.5599224611299485
 20
-3.194319169020923
 30
0.0
 10
0.1249062223769206
 20
-3.492070105780686
 30
0.0
 10
-0.5390103575530318
 20
-3.868252714901181
 30
0.0
 10
-1.179712030541243
 20
-4.168797581860781
 30
0.0
 10
-1.799601677901991
 20
-4.390545320461814
 30
0.0
 10
-2.398370546066074
 20
-4.533878001649742
 30
0.0
 10
-2.976196062407149
 20
-4.598106826655511
 30
0.0
 10
-3.532792627343268
 20
-4.5826649740985
 30
0.0
 10
-4.067522586944697
 20
-4.487078210413578
 30
0.0
 10
-4.579565878425255
 20
-4.311317631799734
 30
0.0
 10
-5.088928305193061
 20
-4.044910609872566
 30
0.0
 10
-5.591858248882546
 20
-3.676488217900574
 30
0.0
 10
-6.080528683798665
 20
-3.196295217555729
 30
0.0
 10
-6.512641526212901
 20
-2.663241835076033
 30
0.0
 10
-6.753357802728346
 20
-2.27374976077657
 30
0.0
 10
-6.865484233817358
 20
-2.092323075133014
 30
0.0
  0
SPLINE
  5
7B
330
1F
100
AcDbEntity
  8
0
  6
Continuous
 62
     7
370
    15
100
AcDbSpline
210
0.0
220
0.0
230
1.0
 70
     8
 71
     3
 72
     8
 73
     4
 74
     0
 42
0.00000001
 43
0.00000001
 12
1.0
 22
0.0
 32
0.0
 13
1.0
 23
0.0
 33
0.0
 40
0.0
 40
0.0
 40
0.0
 40
0.0
 40
0.9516000000000001
 40
0.9516000000000001
 40
0.9516000000000001
 40
0.9516000000000001
 10
2.333400732406812
 20
-7.289856136524777
 30
0.0
 10
-3.481458107404357
 20
-11.08677094364281
 30
0.0
 10
-8.722616801794176
 20
-9.233973431240178
 30
0.0
 10
-13.39007535076265
 20
-1.731463599316875
 30
0.0
  0
SPLINE
  5
7C
330
1F
100
AcDbEntity
  8
0
  6
Continuous
 62
     7
370
    15
100
AcDbSpline
210
0.0
220
0.0
230
1.0
 70
     8
 71
     3
 72
    13
 73
     9
 74
     0
 42
0.00000001
 43
0.00000001
 12
1.0
 22
0.0
 32
0.0
 13
1.0
 23
0.0
 33
0.0
 40
0.0
 40
0.0
 40
0.0
 40
0.0
 40
0.0180073959233894
 40
0.1826645199853487
 40
0.3607270837899392
 40
0.5558804788832041
 40
0.7687985854491791
 40
0.9999999999999999
 40
0.9999999999999999
 40
0.9999999999999999
 40
0.9999999999999999
 10
-6.107317621596579
 20
-1.743256721911512
 30
0.0
 10
-6.122032133934614
 20
-1.719543023578402
 30
0.0
 10
-6.271294100766497
 20
-1.478994565515762
 30
0.0
 10
-6.49900640867271
 20
-0.9658142371538111
 30
0.0
 10
-6.806256398827747
 20
-0.1911636264145194
 30
0.0
 10
-7.076249823631715
 20
0.677931274307533
 30
0.0
 10
-7.324106783517373
 20
1.638899084094631
 30
0.0
 10
-7.458308771459492
 20
2.315565056938079
 30
0.0
 10
-7.528172148258886
 20
2.667826379985553
 30
0.0
  0
SPLINE
  5
7D
330
1F
100
AcDbEntity
  8
0
  6
Continuous
 62
     7
370
    15
100
AcDbSpline
210
0.0
220
0.0
230
1.0
 70
     8
 71
     3
 72
    15
 73
    11
 74
     0
 42
0.00000001
 43
0.00000001
 12
1.0
 22
0.0
 32
0.0
 13
1.0
 23
0.0
 33
0.0
 40
0.0
 40
0.0
 40
0.0
 40
0.0
 40
0.1399482266497814
 40
0.2674711306900072
 40
0.3853912590290247
 40
0.4978937219642902
 40
0.6097732712656901
 40
0.7259018414955897
 40
0.8506545488079768
 40
0.9999999999999999
 40
0.9999999999999999
 40
0.9999999999999999
 40
0.9999999999999999
 10
-2.561708985331525
 20
-2.293405825167996
 30
0.0
 10
-2.706863717509072
 20
-2.352959981977544
 30
0.0
 10
-2.984285598943067
 20
-2.466780771568554
 30
0.0
 10
-3.407270524832883
 20
-2.559818954240421
 30
0.0
 10
-3.807835659985702
 20
-2.580011726592107
 30
0.0
 10
-4.186072766968291
 20
-2.522031618601905
 30
0.0
 10
-4.539801128092493
 20
-2.386445152781838
 30
0.0
 10
-4.866356562116408
 20
-2.173551306458082
 30
0.0
 10
-5.17965651960062
 20
-1.878604213374651
 30
0.0
 10
-5.351781507527092
 20
-1.632402189962251
 30
0.0
 10
-5.4455657347673
 20
-1.498256260374321
 30
0.0
  0
LWPOLYLINE
  5
81
330
1F
100
AcDbEntity
  8
0
  6
Continuous
 62
     7
370
    15
100
AcDbPolyline
 90
        3
 70
   128
 43
0.0
 10
2.9772389409
 20
-12.1261820786
 10
2.888065157
 20
-11.9777507927
 10
2.8791695308
 20
-11.9639977313
  0
LINE
  5
8A
330
1F
100
AcDbEntity
  8
0
  6
Continuous
 62
     7
370
    15
100
AcDbLine
 10
11.9213756437
 20
8.9068455199
 30
0.0
 11
11.6569959608
 21
9.3787080374
 31
0.0
  0
LINE
  5
8B
330
1F
100
AcDbEntity
  8
0
  6
Continuous
 62
     7
370
    15
100
AcDbLine
 10
9.4719360867
 20
7.5344498977
 30
0.0
 11
9.2075564039
 21
8.0063124152
 31
0.0
  0
LINE
  5
8C
330
1F
100
AcDbEntity
  8
0
  6
Continuous
 62
     7
370
    15
100
AcDbLine
 10
6.7710112652
 20
6.0211496856
 30
0.0
 11
6.5066315823
 21
6.4930122031
 31
0.0
  0
LINE
  5
8D
330
1F
100
AcDbEntity
  8
0
  6
Continuous
 62
     7
370
    15
100
AcDbLine
 10
4.9309554802
 20
4.9901854813
 30
0.0
 11
4.6665757974
 21
5.4620479988
 31
0.0
  0
LINE
  5
8E
330
1F
100
AcDbEntity
  8
0
  6
Continuous
 62
     7
370
    15
100
AcDbLine
 10
3.1472493539
 20
3.9907934072
 30
0.0
 11
2.882869671
 21
4.4626559247
 31
0.0
  0
LINE
  5
8F
330
1F
100
AcDbEntity
  8
0
  6
Continuous
 62
     7
370
    15
100
AcDbLine
 10
-4.9687147775
 20
0.0634944538
 30
0.0
 11
-4.7043350947
 21
-0.4083680637
 31
0.0
  0
LINE
  5
90
330
1F
100
AcDbEntity
  8
0
  6
Continuous
 62
     7
370
    15
100
AcDbLine
 10
-15.0774135619
 20
-0.8326383531
 30
0.0
 11
-14.813033879
 21
-1.3045008706
 31
0.0
  0
LINE
  5
91
330
1F
100
AcDbEntity
  8
0
  6
Continuous
 62
     7
370
    15
100
AcDbLine
 10
-7.911449386
 20
-3.0131413501
 30
0.0
 11
-7.6470697031
 21
-3.4850038676
 31
0.0
  0
LINE
  5
92
330
1F
100
AcDbEntity
  8
0
  6
Continuous
 62
     7
370
    15
100
AcDbLine
 10
-6.1105973727
 20
-1.7452628369
 30
0.0
 11
-5.8462176898
 21
-2.2171253544
 31
0.0
  0
LINE
  5
93
330
1F
100
AcDbEntity
  8
0
  6
Continuous
 62
     7
370
    15
100
AcDbLine
 10
3.2416186238
 20
-12.5980445961
 30
0.0
 11
2.9772389409
 21
-12.1261820786
 31
0.0
  0
LINE
  5
94
330
1F
100
AcDbEntity
  8
0
  6
Continuous
 62
     7
370
    15
100
AcDbLine
 10
-2.2571506914
 20
-15.0589563925
 30
0.0
 11
-1.9927710085
 21
-15.53081891
 31
0.0
  0
LINE
  5
95
330
1F
100
AcDbEntity
  8
0
  6
Continuous
 62
     7
370
    15
100
AcDbLine
 10
-0.6572998565
 20
-11.3439730837
 30
0.0
 11
-0.6578254702
 21
-11.4308229839
 31
0.0
  0
LINE
  5
96
330
1F
100
AcDbEntity
  8
0
  6
Continuous
 62
     7
370
    15
100
AcDbLine
 10
-15.3178742529
 20
-0.3980068079
 30
0.0
 11
-15.05349457
 21
-0.8698693254
 31
0.0
  0
LINE
  5
97
330
1F
100
AcDbEntity
  8
0
  6
Continuous
 62
     7
370
    15
100
AcDbLine
 10
1.1949787026
 20
-11.1618252093
 30
0.0
 11
0.9305990197
 21
-10.6899626918
 31
0.0
  0
LINE
  5
98
330
1F
100
AcDbEntity
  8
0
  6
Continuous
 62
     7
370
    15
100
AcDbLine
 10
-12.4119210629
 20
-0.6266110268
 30
0.0
 11
-12.1475413801
 21
-1.0984735443
 31
0.0
  0
LINE
  5
99
330
1F
100
AcDbEntity
  8
0
  6
Continuous
 62
     7
370
    15
100
AcDbLine
 10
2.3334007324
 20
-7.2898561365
 30
0.0
 11
2.5977804153
 21
-7.761718654
 31
0.0
  0
LINE
  5
9A
330
1F
100
AcDbEntity
  8
0
  6
Continuous
 62
     7
370
    15
100
AcDbLine
 10
-9.6441311296
 20
2.3503789426
 30
0.0
 11
-9.3797514468
 21
1.8785164251
 31
0.0
  0
LINE
  5
9B
330
1F
100
AcDbEntity
  8
0
  6
Continuous
 62
     7
370
    15
100
AcDbLine
 10
1.9568725003
 20
-4.6386268452
 30
0.0
 11
2.2212521832
 21
-5.1104893627
 31
0.0
  0
LINE
  5
9C
330
1F
100
AcDbEntity
  8
0
  6
Continuous
 62
     7
370
    15
100
AcDbLine
 10
-7.5281721483
 20
2.66782638
 30
0.0
 11
-7.2637924654
 21
2.1959638625
 31
0.0
  0
LINE
  5
9D
330
1F
100
AcDbEntity
  8
0
  6
Continuous
 62
     7
370
    15
100
AcDbLine
 10
0.7856905233
 20
-3.0397901055
 30
0.0
 11
1.0500702062
 21
-3.511652623
 31
0.0
  0
LINE
  5
9E
330
1F
100
AcDbEntity
  8
0
  6
Continuous
 62
     7
370
    15
100
AcDbLine
 10
-15.073023606
 20
-0.8301523332
 30
0.0
 11
-15.3178742529
 21
-0.3980068079
 31
0.0
  0
LINE
  5
9F
330
1F
100
AcDbEntity
  8
0
  6
Continuous
 62
     7
370
    15
100
AcDbLine
 10
-0.6578254702
 20
-11.4308229839
 30
0.0
 11
-0.9222051531
 21
-10.9589604664
 31
0.0
  0
LINE
  5
A0
330
1F
100
AcDbEntity
  8
0
  6
Continuous
 62
     7
370
    15
100
AcDbLine
 10
-0.974555476
 20
-10.7777380627
 30
0.0
 11
-0.9758152262
 21
-10.9858932008
 31
0.0
  0
LINE
  5
A1
330
1F
100
AcDbEntity
  8
0
  6
Continuous
 62
     7
370
    15
100
AcDbLine
 10
-0.974555476
 20
-10.7777380627
 30
0.0
 11
-0.6572998565
 21
-11.3439730837
 31
0.0
  0
LINE
  5
A2
330
1F
100
AcDbEntity
  8
0
  6
Continuous
 62
     7
370
    15
100
AcDbLine
 10
-0.708759274
 20
-10.8642144486
 30
0.0
 11
-0.4443795911
 21
-11.3360769661
 31
0.0
  0
LINE
  5
A3
330
1F
100
AcDbEntity
  8
0
  6
Continuous
 62
     7
370
    15
100
AcDbLine
 10
-0.6624239104
 20
-10.8461565043
 30
0.0
 11
-0.974555476
 21
-10.7777380627
 31
0.0
  0
ARC
  5
A4
330
1F
100
AcDbEntity
  8
0
  6
Continuous
 62
     7
370
    15
100
AcDbCircle
 10
-1.0510760257
 20
2.1489390066
 30
0.0
 40
13.49865683495441
100
AcDbArc
 50
271.6716414074
 51
272.5760236313
  0
ARC
  5
A5
330
1F
100
AcDbEntity
  8
0
  6
Continuous
 62
     7
370
    15
100
AcDbCircle
 10
0.6841182059
 20
-14.1543129886
 30
0.0
 40
3.035780221998162
100
AcDbArc
 50
80.3121818128
 51
111.8224971777
  0
ARC
  5
A6
330
1F
100
AcDbEntity
  8
0
  6
Continuous
 62
     7
370
    15
100
AcDbCircle
 10
0.6789846055
 20
-14.0790567612
 30
0.0
 40
2.966513663872734
100
AcDbArc
 50
116.7843281417
 51
44.7702884484
  0
ARC
  5
A7
330
1F
100
AcDbEntity
  8
0
  6
Continuous
 62
     7
370
    15
100
AcDbCircle
 10
-0.9135074687
 20
1.9604503997
 30
0.0
 40
14.59616740282928
100
AcDbArc
 50
30.5462190962
 51
189.2986507006
  0
ARC
  5
A8
330
1F
100
AcDbEntity
  8
0
  6
Continuous
 62
     7
370
    15
100
AcDbCircle
 10
-1.123971959
 20
2.4961607433
 30
0.0
 40
13.34522810416689
100
AcDbArc
 50
278.8562224659
 51
27.0567071889
  0
ARC
  5
A9
330
1F
100
AcDbEntity
  8
0
  6
Continuous
 62
     7
370
    15
100
AcDbCircle
 10
-0.9376817784
 20
2.0257383239
 30
0.0
 40
11.77680450022025
100
AcDbArc
 50
30.5191659894
 51
193.015702641
  0
ARC
  5
AA
330
1F
100
AcDbEntity
  8
0
  6
Continuous
 62
     7
370
    15
100
AcDbCircle
 10
-1.0550730853
 20
2.4380084326
 30
0.0
 40
10.30112148697578
100
AcDbArc
 50
289.2045854096
 51
26.8746840932
  0
ARC
  5
AB
330
1F
100
AcDbEntity
  8
0
  6
Continuous
 62
     7
370
    15
100
AcDbCircle
 10
-0.9681710531
 20
2.0802369414
 30
0.0
 40
8.68016474208608
100
AcDbArc
 50
30.5556230615
 51
178.2165665446
  0
ARC
  5
AC
330
1F
100
AcDbEntity
  8
0
  6
Continuous
 62
     7
370
    15
100
AcDbCircle
 10
-1.0396672978
 20
2.3936713835
 30
0.0
 40
7.644113365152201
100
AcDbArc
 50
293.0793884685
 51
26.3911597072
  0
ARC
  5
AD
330
1F
100
AcDbEntity
  8
0
  6
Continuous
 62
     7
370
    15
100
AcDbCircle
 10
-0.9863009095
 20
2.1250294583
 30
0.0
 40
6.564351285723125
100
AcDbArc
 50
30.5542962318
 51
175.2568774307
  0
ARC
  5
AE
330
1F
100
AcDbEntity
  8
0
  6
Continuous
 62
     7
370
    15
100
AcDbCircle
 10
-1.0523250158
 20
2.3618629543
 30
0.0
 40
5.70580028570248
100
AcDbArc
 50
288.7918518999
 51
25.6317980587
  0
ARC
  5
AF
330
1F
100
AcDbEntity
  8
0
  6
Continuous
 62
     7
370
    15
100
AcDbCircle
 10
-1.0013638488
 20
2.1889015814
 30
0.0
 40
4.500803133888623
100
AcDbArc
 50
30.3438715122
 51
208.1790452327
  0
ARC
  5
B0
330
1F
100
AcDbEntity
  8
0
  6
Continuous
 62
     7
370
    15
100
AcDbCircle
 10
-1.0655123699
 20
2.3033932939
 30
0.0
 40
2.005876662790086
100
AcDbArc
 50
218.3443775003
 51
20.1785392446
  0
ARC
  5
B1
330
1F
100
AcDbEntity
  8
0
  6
Continuous
 62
     7
370
    15
100
AcDbCircle
 10
0.3484915497
 20
-13.6400202002
 30
0.0
 40
2.966943108127911
100
AcDbArc
 50
115.3587598313
 51
208.5710733703
  0
ARC
  5
B2
330
1F
100
AcDbEntity
  8
0
  6
Continuous
 62
     7
370
    15
100
AcDbCircle
 10
-1.3154557086
 20
2.620801524
 30
0.0
 40
13.49865683487423
100
AcDbArc
 50
271.6716414074
 51
272.5760236313
  0
ARC
  5
B3
330
1F
100
AcDbEntity
  8
0
  6
Continuous
 62
     7
370
    15
100
AcDbCircle
 10
0.4197385231
 20
-13.6824504711
 30
0.0
 40
3.03578022199814
100
AcDbArc
 50
80.3121818128
 51
111.8224971777
  0
ARC
  5
B4
330
1F
100
AcDbEntity
  8
0
  6
Continuous
 62
     7
370
    15
100
AcDbCircle
 10
0.3375565612
 20
-13.5524336312
 30
0.0
 40
2.00584364930429
100
AcDbArc
 50
218.3384769232
 51
20.1844398218
  0
MTEXT
  5
B6
330
1F
100
AcDbEntity
  8
0
  6
Continuous
 62
     7
100
AcDbMText
 10
-15.5096748716
 20
-18.0651368168
 30
0.0
 40
4.83362
 41
0.0
 71
     1
 72
     1
  1
SolidWorks Educational Edition.
  7
SLDTEXTSTYLE0
 73
     1
 44
1.0
  0
MTEXT
  5
B7
330
1F
100
AcDbEntity
  8
0
  6
Continuous
 62
     7
100
AcDbMText
 10
-15.5096748716
 20
-25.3155668168
 30
0.0
 40
4.83362
 41
0.0
 71
     1
 72
     1
  1
For Instructional Use Only.
  7
SLDTEXTSTYLE0
 73
     1
 44
1.0
  0
ENDSEC
  0
SECTION
  2
OBJECTS
  0
DICTIONARY
  5
C
330
0
100
AcDbDictionary
281
     1
  3
ACAD_GROUP
350
D
  3
ACAD_LAYOUT
350
1A
  3
ACAD_MLINESTYLE
350
17
  3
ACAD_PLOTSETTINGS
350
19
  3
ACAD_PLOTSTYLENAME
350
E
  0
DICTIONARY
  5
D
102
{ACAD_REACTORS
330
C
102
}
330
C
100
AcDbDictionary
281
     1
  0
DICTIONARY
  5
1A
102
{ACAD_REACTORS
330
C
102
}
330
C
100
AcDbDictionary
281
     1
  3
Layout1
350
1E
  3
Layout2
350
26
  3
Model
350
22
  0
DICTIONARY
  5
17
102
{ACAD_REACTORS
330
C
102
}
330
C
100
AcDbDictionary
281
     1
  3
Standard
350
18
  0
DICTIONARY
  5
19
102
{ACAD_REACTORS
330
C
102
}
330
C
100
AcDbDictionary
281
     1
  0
ACDBDICTIONARYWDFLT
  5
E
102
{ACAD_REACTORS
330
C
102
}
330
C
100
AcDbDictionary
281
     1
  3
Normal
350
F
100
AcDbDictionaryWithDefault
340
F
  0
LAYOUT
  5
1E
102
{ACAD_REACTORS
330
1A
102
}
330
1A
100
AcDbPlotSettings
  1

  2
none_device
  4

  6

 40
0.0
 41
0.0
 42
0.0
 43
0.0
 44
0.0
 45
0.0
 46
0.0
 47
0.0
 48
0.0
 49
0.0
140
0.0
141
0.0
142
1.0
143
1.0
 70
   688
 72
     0
 73
     0
 74
     5
  7

 75
    16
147
1.0
148
0.0
149
0.0
100
AcDbLayout
  1
Layout1
 70
     1
 71
     1
 10
0.0
 20
0.0
 11
420.0
 21
297.0
 12
0.0
 22
0.0
 32
0.0
 14
1.0000000000E+20
 24
1.0000000000E+20
 34
1.0000000000E+20
 15
-1.0000000000E+20
 25
-1.0000000000E+20
 35
-1.0000000000E+20
146
0.0
 13
0.0
 23
0.0
 33
0.0
 16
1.0
 26
0.0
 36
0.0
 17
0.0
 27
1.0
 37
0.0
 76
     0
330
1B
  0
LAYOUT
  5
26
102
{ACAD_REACTORS
330
1A
102
}
330
1A
100
AcDbPlotSettings
  1

  2
none_device
  4

  6

 40
0.0
 41
0.0
 42
0.0
 43
0.0
 44
0.0
 45
0.0
 46
0.0
 47
0.0
 48
0.0
 49
0.0
140
0.0
141
0.0
142
1.0
143
1.0
 70
   688
 72
     0
 73
     0
 74
     5
  7

 75
    16
147
1.0
148
0.0
149
0.0
100
AcDbLayout
  1
Layout2
 70
     1
 71
     2
 10
0.0
 20
0.0
 11
0.0
 21
0.0
 12
0.0
 22
0.0
 32
0.0
 14
0.0
 24
0.0
 34
0.0
 15
0.0
 25
0.0
 35
0.0
146
0.0
 13
0.0
 23
0.0
 33
0.0
 16
1.0
 26
0.0
 36
0.0
 17
0.0
 27
1.0
 37
0.0
 76
     0
330
23
  0
LAYOUT
  5
22
102
{ACAD_REACTORS
330
1A
102
}
330
1A
100
AcDbPlotSettings
  1

  2
none_device
  4
ANSI_A_(11.00_x_8.50_Inches)
  6

 40
6.35
 41
19.05
 42
6.35000508
 43
19.05000254
 44
279.4
 45
215.9
 46
139.1148859985
 47
90.4550942164
 48
0.0
 49
0.0
140
0.0
141
0.0
142
0.2504301191
143
1.0
 70
  1696
 72
     0
 73
     0
 74
     0
  7

 75
     0
147
0.0179189148
148
0.0
149
0.0
100
AcDbLayout
  1
Model
 70
     1
 71
     0
 10
0.0
 20
0.0
 11
420.0
 21
297.0
 12
0.0
 22
0.0
 32
0.0
 14
-15.5096748716
 24
-17.0455704251
 34
0.0
 15
13.697080472
 25
16.5566178026
 35
0.0
146
0.0
 13
0.0
 23
0.0
 33
0.0
 16
1.0
 26
0.0
 36
0.0
 17
0.0
 27
1.0
 37
0.0
 76
     0
330
1F
331
29
  0
MLINESTYLE
  5
18
102
{ACAD_REACTORS
330
17
102
}
330
17
100
AcDbMlineStyle
  2
Standard
 70
     0
  3

 62
   256
 51
90.0
 52
90.0
 71
     2
 49
0.5
 62
   256
  6
BYLAYER
 49
-0.5
 62
   256
  6
BYLAYER
  0
ACDBPLACEHOLDER
  5
F
102
{ACAD_REACTORS
330
E
102
}
330
E
  0
ENDSEC
  0
EOF
