solid drum - key-1
   facet normal 9.817577e-001 3.544672e-017 -1.901364e-001
      outer loop
         vertex 1.371875e+002 1.329897e+002 1.377799e+002
         vertex 1.370090e+002 1.329897e+002 1.367238e+002
         vertex 1.370090e+002 1.429897e+002 1.367238e+002
      endloop
   endfacet
   facet normal 1.638955e-001 1.042292e-016 9.864777e-001
      outer loop
         vertex 1.304407e+002 1.429897e+002 1.459641e+002
         vertex 1.306762e+002 1.429897e+002 1.459377e+002
         vertex 1.317262e+002 1.529897e+002 1.457259e+002
      endloop
   endfacet
   facet normal 1.534765e-001 1.038199e-016 9.881523e-001
      outer loop
         vertex 1.317262e+002 1.529897e+002 1.457259e+002
         vertex 1.304407e+002 1.529897e+002 1.459641e+002
         vertex 1.304407e+002 1.429897e+002 1.459641e+002
      endloop
   endfacet
   facet normal 3.785276e-002 9.855790e-017 9.992833e-001
      outer loop
         vertex 1.304407e+002 1.429897e+002 1.459641e+002
         vertex 1.304407e+002 1.529897e+002 1.459641e+002
         vertex 1.291334e+002 1.529897e+002 1.459755e+002
      endloop
   endfacet
   facet normal -2.044600e-002 9.541187e-017 9.997910e-001
      outer loop
         vertex 1.304407e+002 1.429897e+002 1.459641e+002
         vertex 1.291334e+002 1.529897e+002 1.459755e+002
         vertex 1.291334e+002 1.429897e+002 1.459755e+002
      endloop
   endfacet
   facet normal -1.362460e-001 8.818532e-017 9.906750e-001
      outer loop
         vertex 1.291334e+002 1.429897e+002 1.459755e+002
         vertex 1.291334e+002 1.529897e+002 1.459755e+002
         vertex 1.278440e+002 1.529897e+002 1.457597e+002
      endloop
   endfacet
   facet normal -1.937472e-001 8.410481e-017 9.810515e-001
      outer loop
         vertex 1.291334e+002 1.429897e+002 1.459755e+002
         vertex 1.278440e+002 1.529897e+002 1.457597e+002
         vertex 1.278440e+002 1.429897e+002 1.457597e+002
      endloop
   endfacet
   facet normal -3.062051e-001 7.513328e-017 9.519656e-001
      outer loop
         vertex 1.278440e+002 1.429897e+002 1.457597e+002
         vertex 1.278440e+002 1.529897e+002 1.457597e+002
         vertex 1.266117e+002 1.529897e+002 1.453233e+002
      endloop
   endfacet
   facet normal -3.611616e-001 7.024227e-017 9.325032e-001
      outer loop
         vertex 1.278440e+002 1.429897e+002 1.457597e+002
         vertex 1.266117e+002 1.529897e+002 1.453233e+002
         vertex 1.266117e+002 1.429897e+002 1.453233e+002
      endloop
   endfacet
   facet normal -4.668602e-001 5.979835e-017 8.843311e-001
      outer loop
         vertex 1.266117e+002 1.429897e+002 1.453233e+002
         vertex 1.266117e+002 1.529897e+002 1.453233e+002
         vertex 1.254738e+002 1.529897e+002 1.446795e+002
      endloop
   endfacet
   facet normal -5.176023e-001 5.424545e-017 8.556213e-001
      outer loop
         vertex 1.266117e+002 1.429897e+002 1.453233e+002
         vertex 1.254738e+002 1.529897e+002 1.446795e+002
         vertex 1.254738e+002 1.429897e+002 1.446795e+002
      endloop
   endfacet
   facet normal -6.133301e-001 4.264648e-017 7.898267e-001
      outer loop
         vertex 1.254738e+002 1.429897e+002 1.446795e+002
         vertex 1.254738e+002 1.529897e+002 1.446795e+002
         vertex 1.244651e+002 1.529897e+002 1.438479e+002
      endloop
   endfacet
   facet normal -6.583158e-001 3.660041e-017 7.527419e-001
      outer loop
         vertex 1.254738e+002 1.429897e+002 1.446795e+002
         vertex 1.244651e+002 1.529897e+002 1.438479e+002
         vertex 1.244651e+002 1.429897e+002 1.438479e+002
      endloop
   endfacet
   facet normal -7.411642e-001 2.419881e-017 6.713238e-001
      outer loop
         vertex 1.244651e+002 1.429897e+002 1.438479e+002
         vertex 1.244651e+002 1.529897e+002 1.438479e+002
         vertex 1.236161e+002 1.529897e+002 1.428538e+002
      endloop
   endfacet
   facet normal -7.790267e-001 1.784329e-017 6.269907e-001
      outer loop
         vertex 1.244651e+002 1.429897e+002 1.438479e+002
         vertex 1.236161e+002 1.529897e+002 1.428538e+002
         vertex 1.236161e+002 1.429897e+002 1.428538e+002
      endloop
   endfacet
   facet normal -8.464784e-001 5.015878e-018 5.324231e-001
      outer loop
         vertex 1.236161e+002 1.429897e+002 1.428538e+002
         vertex 1.236161e+002 1.529897e+002 1.428538e+002
         vertex 1.229526e+002 1.529897e+002 1.417273e+002
      endloop
   endfacet
   facet normal -8.760674e-001 -1.455998e-018 4.821887e-001
      outer loop
         vertex 1.236161e+002 1.429897e+002 1.428538e+002
         vertex 1.229526e+002 1.529897e+002 1.417273e+002
         vertex 1.229526e+002 1.429897e+002 1.417273e+002
      endloop
   endfacet
   facet normal -9.260728e-001 -1.431946e-017 3.773449e-001
      outer loop
         vertex 1.229526e+002 1.429897e+002 1.417273e+002
         vertex 1.229526e+002 1.529897e+002 1.417273e+002
         vertex 1.224948e+002 1.529897e+002 1.405028e+002
      endloop
   endfacet
   facet normal -9.464892e-001 -2.071104e-017 3.227356e-001
      outer loop
         vertex 1.229526e+002 1.429897e+002 1.417273e+002
         vertex 1.224948e+002 1.529897e+002 1.405028e+002
         vertex 1.224948e+002 1.429897e+002 1.405028e+002
      endloop
   endfacet
   facet normal -9.817577e-001 -3.544672e-017 1.901364e-001
      outer loop
         vertex 1.222565e+002 1.329897e+002 1.392173e+002
         vertex 1.224350e+002 1.329897e+002 1.402735e+002
         vertex 1.224350e+002 1.429897e+002 1.402735e+002
      endloop
   endfacet
   facet normal -1.638955e-001 -1.042292e-016 -9.864777e-001
      outer loop
         vertex 1.290033e+002 1.429897e+002 1.310332e+002
         vertex 1.287678e+002 1.429897e+002 1.310596e+002
         vertex 1.277179e+002 1.529897e+002 1.312714e+002
      endloop
   endfacet
   facet normal -1.534765e-001 -1.038199e-016 -9.881523e-001
      outer loop
         vertex 1.277179e+002 1.529897e+002 1.312714e+002
         vertex 1.290033e+002 1.529897e+002 1.310332e+002
         vertex 1.290033e+002 1.429897e+002 1.310332e+002
      endloop
   endfacet
   facet normal -3.785276e-002 -9.855790e-017 -9.992833e-001
      outer loop
         vertex 1.290033e+002 1.429897e+002 1.310332e+002
         vertex 1.290033e+002 1.529897e+002 1.310332e+002
         vertex 1.303106e+002 1.529897e+002 1.310218e+002
      endloop
   endfacet
   facet normal 2.044600e-002 -9.541187e-017 -9.997910e-001
      outer loop
         vertex 1.290033e+002 1.429897e+002 1.310332e+002
         vertex 1.303106e+002 1.529897e+002 1.310218e+002
         vertex 1.303106e+002 1.429897e+002 1.310218e+002
      endloop
   endfacet
   facet normal 1.362460e-001 -8.818532e-017 -9.906750e-001
      outer loop
         vertex 1.303106e+002 1.429897e+002 1.310218e+002
         vertex 1.303106e+002 1.529897e+002 1.310218e+002
         vertex 1.316000e+002 1.529897e+002 1.312376e+002
      endloop
   endfacet
   facet normal 1.937472e-001 -8.410481e-017 -9.810515e-001
      outer loop
         vertex 1.303106e+002 1.429897e+002 1.310218e+002
         vertex 1.316000e+002 1.529897e+002 1.312376e+002
         vertex 1.316000e+002 1.429897e+002 1.312376e+002
      endloop
   endfacet
   facet normal 3.062051e-001 -7.513328e-017 -9.519656e-001
      outer loop
         vertex 1.316000e+002 1.429897e+002 1.312376e+002
         vertex 1.316000e+002 1.529897e+002 1.312376e+002
         vertex 1.328324e+002 1.529897e+002 1.316740e+002
      endloop
   endfacet
   facet normal 3.611616e-001 -7.024227e-017 -9.325032e-001
      outer loop
         vertex 1.316000e+002 1.429897e+002 1.312376e+002
         vertex 1.328324e+002 1.529897e+002 1.316740e+002
         vertex 1.328324e+002 1.429897e+002 1.316740e+002
      endloop
   endfacet
   facet normal 4.668602e-001 -5.979835e-017 -8.843311e-001
      outer loop
         vertex 1.328324e+002 1.429897e+002 1.316740e+002
         vertex 1.328324e+002 1.529897e+002 1.316740e+002
         vertex 1.339702e+002 1.529897e+002 1.323178e+002
      endloop
   endfacet
   facet normal 5.176023e-001 -5.424545e-017 -8.556213e-001
      outer loop
         vertex 1.328324e+002 1.429897e+002 1.316740e+002
         vertex 1.339702e+002 1.529897e+002 1.323178e+002
         vertex 1.339702e+002 1.429897e+002 1.323178e+002
      endloop
   endfacet
   facet normal 6.133301e-001 -4.264648e-017 -7.898267e-001
      outer loop
         vertex 1.339702e+002 1.429897e+002 1.323178e+002
         vertex 1.339702e+002 1.529897e+002 1.323178e+002
         vertex 1.349789e+002 1.529897e+002 1.331494e+002
      endloop
   endfacet
   facet normal 6.583158e-001 -3.660041e-017 -7.527419e-001
      outer loop
         vertex 1.339702e+002 1.429897e+002 1.323178e+002
         vertex 1.349789e+002 1.529897e+002 1.331494e+002
         vertex 1.349789e+002 1.429897e+002 1.331494e+002
      endloop
   endfacet
   facet normal 7.411642e-001 -2.419881e-017 -6.713238e-001
      outer loop
         vertex 1.349789e+002 1.429897e+002 1.331494e+002
         vertex 1.349789e+002 1.529897e+002 1.331494e+002
         vertex 1.358280e+002 1.529897e+002 1.341435e+002
      endloop
   endfacet
   facet normal 7.790267e-001 -1.784329e-017 -6.269907e-001
      outer loop
         vertex 1.349789e+002 1.429897e+002 1.331494e+002
         vertex 1.358280e+002 1.529897e+002 1.341435e+002
         vertex 1.358280e+002 1.429897e+002 1.341435e+002
      endloop
   endfacet
   facet normal 8.464784e-001 -5.015878e-018 -5.324231e-001
      outer loop
         vertex 1.358280e+002 1.429897e+002 1.341435e+002
         vertex 1.358280e+002 1.529897e+002 1.341435e+002
         vertex 1.364915e+002 1.529897e+002 1.352699e+002
      endloop
   endfacet
   facet normal 8.760674e-001 1.455998e-018 -4.821887e-001
      outer loop
         vertex 1.358280e+002 1.429897e+002 1.341435e+002
         vertex 1.364915e+002 1.529897e+002 1.352699e+002
         vertex 1.364915e+002 1.429897e+002 1.352699e+002
      endloop
   endfacet
   facet normal 9.260728e-001 1.431946e-017 -3.773449e-001
      outer loop
         vertex 1.364915e+002 1.429897e+002 1.352699e+002
         vertex 1.364915e+002 1.529897e+002 1.352699e+002
         vertex 1.369493e+002 1.529897e+002 1.364945e+002
      endloop
   endfacet
   facet normal 9.464892e-001 2.071104e-017 -3.227356e-001
      outer loop
         vertex 1.364915e+002 1.429897e+002 1.352699e+002
         vertex 1.369493e+002 1.529897e+002 1.364945e+002
         vertex 1.369493e+002 1.429897e+002 1.364945e+002
      endloop
   endfacet
   facet normal -9.663964e-001 -2.814356e-017 2.570564e-001
      outer loop
         vertex 1.224948e+002 1.429897e+002 1.405028e+002
         vertex 1.224948e+002 1.529897e+002 1.405028e+002
         vertex 1.224350e+002 1.429897e+002 1.402735e+002
      endloop
   endfacet
   facet normal -9.796990e-001 -3.433575e-017 2.004742e-001
      outer loop
         vertex 1.224350e+002 1.429897e+002 1.402735e+002
         vertex 1.224948e+002 1.529897e+002 1.405028e+002
         vertex 1.222565e+002 1.529897e+002 1.392173e+002
      endloop
   endfacet
   facet normal -9.897096e-001 -4.042494e-017 1.430904e-001
      outer loop
         vertex 1.224350e+002 1.429897e+002 1.402735e+002
         vertex 1.222565e+002 1.529897e+002 1.392173e+002
         vertex 1.222565e+002 1.329897e+002 1.392173e+002
      endloop
   endfacet
   facet normal -9.992833e-001 -5.111059e-017 3.785276e-002
      outer loop
         vertex 1.222565e+002 1.329897e+002 1.392173e+002
         vertex 1.222565e+002 1.529897e+002 1.392173e+002
         vertex 1.222451e+002 1.529897e+002 1.379100e+002
      endloop
   endfacet
   facet normal -9.997910e-001 -5.676730e-017 -2.044600e-002
      outer loop
         vertex 1.222565e+002 1.329897e+002 1.392173e+002
         vertex 1.222451e+002 1.529897e+002 1.379100e+002
         vertex 1.222451e+002 1.329897e+002 1.379100e+002
      endloop
   endfacet
   facet normal -9.906750e-001 -6.744850e-017 -1.362460e-001
      outer loop
         vertex 1.222451e+002 1.329897e+002 1.379100e+002
         vertex 1.222451e+002 1.529897e+002 1.379100e+002
         vertex 1.224609e+002 1.529897e+002 1.366206e+002
      endloop
   endfacet
   facet normal -9.810515e-001 -7.247298e-017 -1.937472e-001
      outer loop
         vertex 1.222451e+002 1.329897e+002 1.379100e+002
         vertex 1.224609e+002 1.529897e+002 1.366206e+002
         vertex 1.224609e+002 1.329897e+002 1.366206e+002
      endloop
   endfacet
   facet normal -9.519656e-001 -8.173703e-017 -3.062051e-001
      outer loop
         vertex 1.224609e+002 1.329897e+002 1.366206e+002
         vertex 1.224609e+002 1.529897e+002 1.366206e+002
         vertex 1.228974e+002 1.529897e+002 1.353883e+002
      endloop
   endfacet
   facet normal -9.325032e-001 -8.597660e-017 -3.611616e-001
      outer loop
         vertex 1.224609e+002 1.329897e+002 1.366206e+002
         vertex 1.228974e+002 1.529897e+002 1.353883e+002
         vertex 1.228974e+002 1.329897e+002 1.353883e+002
      endloop
   endfacet
   facet normal -8.843311e-001 -9.354202e-017 -4.668602e-001
      outer loop
         vertex 1.228974e+002 1.329897e+002 1.353883e+002
         vertex 1.228974e+002 1.529897e+002 1.353883e+002
         vertex 1.235412e+002 1.529897e+002 1.342505e+002
      endloop
   endfacet
   facet normal -8.556213e-001 -9.686787e-017 -5.176023e-001
      outer loop
         vertex 1.228974e+002 1.329897e+002 1.353883e+002
         vertex 1.235412e+002 1.529897e+002 1.342505e+002
         vertex 1.235412e+002 1.329897e+002 1.342505e+002
      endloop
   endfacet
   facet normal -7.898267e-001 -1.025048e-016 -6.133301e-001
      outer loop
         vertex 1.235412e+002 1.329897e+002 1.342505e+002
         vertex 1.235412e+002 1.529897e+002 1.342505e+002
         vertex 1.243727e+002 1.529897e+002 1.332417e+002
      endloop
   endfacet
   facet normal -7.527419e-001 -1.048158e-016 -6.583158e-001
      outer loop
         vertex 1.235412e+002 1.329897e+002 1.342505e+002
         vertex 1.243727e+002 1.529897e+002 1.332417e+002
         vertex 1.243727e+002 1.329897e+002 1.332417e+002
      endloop
   endfacet
   facet normal -6.713238e-001 -1.083530e-016 -7.411642e-001
      outer loop
         vertex 1.243727e+002 1.329897e+002 1.332417e+002
         vertex 1.243727e+002 1.529897e+002 1.332417e+002
         vertex 1.253669e+002 1.529897e+002 1.323927e+002
      endloop
   endfacet
   facet normal -6.269907e-001 -1.095791e-016 -7.790267e-001
      outer loop
         vertex 1.243727e+002 1.329897e+002 1.332417e+002
         vertex 1.253669e+002 1.529897e+002 1.323927e+002
         vertex 1.253669e+002 1.329897e+002 1.323927e+002
      endloop
   endfacet
   facet normal -5.324231e-001 -1.109089e-016 -8.464784e-001
      outer loop
         vertex 1.253669e+002 1.329897e+002 1.323927e+002
         vertex 1.253669e+002 1.529897e+002 1.323927e+002
         vertex 1.264933e+002 1.529897e+002 1.317292e+002
      endloop
   endfacet
   facet normal -4.821887e-001 -1.110128e-016 -8.760674e-001
      outer loop
         vertex 1.253669e+002 1.329897e+002 1.323927e+002
         vertex 1.264933e+002 1.529897e+002 1.317292e+002
         vertex 1.264933e+002 1.329897e+002 1.317292e+002
      endloop
   endfacet
   facet normal -3.773449e-001 -1.100950e-016 -9.260728e-001
      outer loop
         vertex 1.264933e+002 1.329897e+002 1.317292e+002
         vertex 1.264933e+002 1.529897e+002 1.317292e+002
         vertex 1.277179e+002 1.529897e+002 1.312714e+002
      endloop
   endfacet
   facet normal -3.227356e-001 -1.090734e-016 -9.464892e-001
      outer loop
         vertex 1.264933e+002 1.329897e+002 1.317292e+002
         vertex 1.277179e+002 1.529897e+002 1.312714e+002
         vertex 1.277179e+002 1.329897e+002 1.312714e+002
      endloop
   endfacet
   facet normal -2.210559e-001 -1.062789e-016 -9.752612e-001
      outer loop
         vertex 1.277179e+002 1.329897e+002 1.312714e+002
         vertex 1.277179e+002 1.529897e+002 1.312714e+002
         vertex 1.287678e+002 1.429897e+002 1.310596e+002
      endloop
   endfacet
   facet normal -1.742845e-001 -1.046265e-016 -9.846953e-001
      outer loop
         vertex 1.277179e+002 1.329897e+002 1.312714e+002
         vertex 1.287678e+002 1.429897e+002 1.310596e+002
         vertex 1.287678e+002 1.329897e+002 1.310596e+002
      endloop
   endfacet
   facet normal 9.663964e-001 2.814356e-017 -2.570564e-001
      outer loop
         vertex 1.369493e+002 1.429897e+002 1.364945e+002
         vertex 1.369493e+002 1.529897e+002 1.364945e+002
         vertex 1.370090e+002 1.429897e+002 1.367238e+002
      endloop
   endfacet
   facet normal 9.796990e-001 3.433575e-017 -2.004742e-001
      outer loop
         vertex 1.370090e+002 1.429897e+002 1.367238e+002
         vertex 1.369493e+002 1.529897e+002 1.364945e+002
         vertex 1.371875e+002 1.529897e+002 1.377799e+002
      endloop
   endfacet
   facet normal 9.897096e-001 4.042494e-017 -1.430904e-001
      outer loop
         vertex 1.370090e+002 1.429897e+002 1.367238e+002
         vertex 1.371875e+002 1.529897e+002 1.377799e+002
         vertex 1.371875e+002 1.329897e+002 1.377799e+002
      endloop
   endfacet
   facet normal 9.992833e-001 5.111059e-017 -3.785276e-002
      outer loop
         vertex 1.371875e+002 1.329897e+002 1.377799e+002
         vertex 1.371875e+002 1.529897e+002 1.377799e+002
         vertex 1.371989e+002 1.529897e+002 1.390872e+002
      endloop
   endfacet
   facet normal 9.997910e-001 5.676730e-017 2.044600e-002
      outer loop
         vertex 1.371875e+002 1.329897e+002 1.377799e+002
         vertex 1.371989e+002 1.529897e+002 1.390872e+002
         vertex 1.371989e+002 1.329897e+002 1.390872e+002
      endloop
   endfacet
   facet normal 9.906750e-001 6.744850e-017 1.362460e-001
      outer loop
         vertex 1.371989e+002 1.329897e+002 1.390872e+002
         vertex 1.371989e+002 1.529897e+002 1.390872e+002
         vertex 1.369831e+002 1.529897e+002 1.403766e+002
      endloop
   endfacet
   facet normal 9.810515e-001 7.247298e-017 1.937472e-001
      outer loop
         vertex 1.371989e+002 1.329897e+002 1.390872e+002
         vertex 1.369831e+002 1.529897e+002 1.403766e+002
         vertex 1.369831e+002 1.329897e+002 1.403766e+002
      endloop
   endfacet
   facet normal 9.519656e-001 8.173703e-017 3.062051e-001
      outer loop
         vertex 1.369831e+002 1.329897e+002 1.403766e+002
         vertex 1.369831e+002 1.529897e+002 1.403766e+002
         vertex 1.365467e+002 1.529897e+002 1.416090e+002
      endloop
   endfacet
   facet normal 9.325032e-001 8.597660e-017 3.611616e-001
      outer loop
         vertex 1.369831e+002 1.329897e+002 1.403766e+002
         vertex 1.365467e+002 1.529897e+002 1.416090e+002
         vertex 1.365467e+002 1.329897e+002 1.416090e+002
      endloop
   endfacet
   facet normal 8.843311e-001 9.354202e-017 4.668602e-001
      outer loop
         vertex 1.365467e+002 1.329897e+002 1.416090e+002
         vertex 1.365467e+002 1.529897e+002 1.416090e+002
         vertex 1.359029e+002 1.529897e+002 1.427468e+002
      endloop
   endfacet
   facet normal 8.556213e-001 9.686787e-017 5.176023e-001
      outer loop
         vertex 1.365467e+002 1.329897e+002 1.416090e+002
         vertex 1.359029e+002 1.529897e+002 1.427468e+002
         vertex 1.359029e+002 1.329897e+002 1.427468e+002
      endloop
   endfacet
   facet normal 7.898267e-001 1.025048e-016 6.133301e-001
      outer loop
         vertex 1.359029e+002 1.329897e+002 1.427468e+002
         vertex 1.359029e+002 1.529897e+002 1.427468e+002
         vertex 1.350713e+002 1.529897e+002 1.437556e+002
      endloop
   endfacet
   facet normal 7.527419e-001 1.048158e-016 6.583158e-001
      outer loop
         vertex 1.359029e+002 1.329897e+002 1.427468e+002
         vertex 1.350713e+002 1.529897e+002 1.437556e+002
         vertex 1.350713e+002 1.329897e+002 1.437556e+002
      endloop
   endfacet
   facet normal 6.713238e-001 1.083530e-016 7.411642e-001
      outer loop
         vertex 1.350713e+002 1.329897e+002 1.437556e+002
         vertex 1.350713e+002 1.529897e+002 1.437556e+002
         vertex 1.340772e+002 1.529897e+002 1.446046e+002
      endloop
   endfacet
   facet normal 6.269907e-001 1.095791e-016 7.790267e-001
      outer loop
         vertex 1.350713e+002 1.329897e+002 1.437556e+002
         vertex 1.340772e+002 1.529897e+002 1.446046e+002
         vertex 1.340772e+002 1.329897e+002 1.446046e+002
      endloop
   endfacet
   facet normal 5.324231e-001 1.109089e-016 8.464784e-001
      outer loop
         vertex 1.340772e+002 1.329897e+002 1.446046e+002
         vertex 1.340772e+002 1.529897e+002 1.446046e+002
         vertex 1.329507e+002 1.529897e+002 1.452681e+002
      endloop
   endfacet
   facet normal 4.821887e-001 1.110128e-016 8.760674e-001
      outer loop
         vertex 1.340772e+002 1.329897e+002 1.446046e+002
         vertex 1.329507e+002 1.529897e+002 1.452681e+002
         vertex 1.329507e+002 1.329897e+002 1.452681e+002
      endloop
   endfacet
   facet normal 3.773449e-001 1.100950e-016 9.260728e-001
      outer loop
         vertex 1.329507e+002 1.329897e+002 1.452681e+002
         vertex 1.329507e+002 1.529897e+002 1.452681e+002
         vertex 1.317262e+002 1.529897e+002 1.457259e+002
      endloop
   endfacet
   facet normal 3.227356e-001 1.090734e-016 9.464892e-001
      outer loop
         vertex 1.329507e+002 1.329897e+002 1.452681e+002
         vertex 1.317262e+002 1.529897e+002 1.457259e+002
         vertex 1.317262e+002 1.329897e+002 1.457259e+002
      endloop
   endfacet
   facet normal 2.210559e-001 1.062789e-016 9.752612e-001
      outer loop
         vertex 1.317262e+002 1.329897e+002 1.457259e+002
         vertex 1.317262e+002 1.529897e+002 1.457259e+002
         vertex 1.306762e+002 1.429897e+002 1.459377e+002
      endloop
   endfacet
   facet normal 1.742845e-001 1.046265e-016 9.846953e-001
      outer loop
         vertex 1.317262e+002 1.329897e+002 1.457259e+002
         vertex 1.306762e+002 1.429897e+002 1.459377e+002
         vertex 1.306762e+002 1.329897e+002 1.459377e+002
      endloop
   endfacet
   facet normal 5.480465e-017 -1.000000e+000 9.655259e-017
      outer loop
         vertex 1.287678e+002 1.329897e+002 1.310596e+002
         vertex 1.420277e+002 1.329897e+002 1.117672e+002
         vertex 1.502688e+002 1.329897e+002 1.174314e+002
      endloop
   endfacet
   facet normal 5.480465e-017 -1.000000e+000 9.655259e-017
      outer loop
         vertex 1.174163e+002 1.329897e+002 1.652301e+002
         vertex 1.091752e+002 1.329897e+002 1.595659e+002
         vertex 1.306762e+002 1.329897e+002 1.459377e+002
      endloop
   endfacet
   facet normal 5.480465e-017 -1.000000e+000 9.655259e-017
      outer loop
         vertex 1.306762e+002 1.329897e+002 1.459377e+002
         vertex 1.091752e+002 1.329897e+002 1.595659e+002
         vertex 1.224350e+002 1.329897e+002 1.402735e+002
      endloop
   endfacet
   facet normal 5.480465e-017 -1.000000e+000 9.655259e-017
      outer loop
         vertex 1.502688e+002 1.329897e+002 1.174314e+002
         vertex 1.370090e+002 1.329897e+002 1.367238e+002
         vertex 1.287678e+002 1.329897e+002 1.310596e+002
      endloop
   endfacet
   facet normal 5.480465e-017 -1.000000e+000 9.655259e-017
      outer loop
         vertex 1.287678e+002 1.329897e+002 1.310596e+002
         vertex 1.370090e+002 1.329897e+002 1.367238e+002
         vertex 1.371875e+002 1.329897e+002 1.377799e+002
      endloop
   endfacet
   facet normal 5.480465e-017 -1.000000e+000 9.655259e-017
      outer loop
         vertex 1.287678e+002 1.329897e+002 1.310596e+002
         vertex 1.371875e+002 1.329897e+002 1.377799e+002
         vertex 1.371989e+002 1.329897e+002 1.390872e+002
      endloop
   endfacet
   facet normal 5.480465e-017 -1.000000e+000 9.655259e-017
      outer loop
         vertex 1.340772e+002 1.329897e+002 1.446046e+002
         vertex 1.329507e+002 1.329897e+002 1.452681e+002
         vertex 1.224350e+002 1.329897e+002 1.402735e+002
      endloop
   endfacet
   facet normal 5.480465e-017 -1.000000e+000 9.655259e-017
      outer loop
         vertex 1.224350e+002 1.329897e+002 1.402735e+002
         vertex 1.329507e+002 1.329897e+002 1.452681e+002
         vertex 1.317262e+002 1.329897e+002 1.457259e+002
      endloop
   endfacet
   facet normal 5.480465e-017 -1.000000e+000 9.655259e-017
      outer loop
         vertex 1.224350e+002 1.329897e+002 1.402735e+002
         vertex 1.317262e+002 1.329897e+002 1.457259e+002
         vertex 1.306762e+002 1.329897e+002 1.459377e+002
      endloop
   endfacet
   facet normal 5.480465e-017 -1.000000e+000 9.655259e-017
      outer loop
         vertex 1.222565e+002 1.329897e+002 1.392173e+002
         vertex 1.222451e+002 1.329897e+002 1.379100e+002
         vertex 1.359029e+002 1.329897e+002 1.427468e+002
      endloop
   endfacet
   facet normal 5.480465e-017 -1.000000e+000 9.655259e-017
      outer loop
         vertex 1.359029e+002 1.329897e+002 1.427468e+002
         vertex 1.222451e+002 1.329897e+002 1.379100e+002
         vertex 1.224609e+002 1.329897e+002 1.366206e+002
      endloop
   endfacet
   facet normal 5.480465e-017 -1.000000e+000 9.655259e-017
      outer loop
         vertex 1.359029e+002 1.329897e+002 1.427468e+002
         vertex 1.224609e+002 1.329897e+002 1.366206e+002
         vertex 1.228974e+002 1.329897e+002 1.353883e+002
      endloop
   endfacet
   facet normal 5.480465e-017 -1.000000e+000 9.655259e-017
      outer loop
         vertex 1.371989e+002 1.329897e+002 1.390872e+002
         vertex 1.369831e+002 1.329897e+002 1.403766e+002
         vertex 1.287678e+002 1.329897e+002 1.310596e+002
      endloop
   endfacet
   facet normal 5.480465e-017 -1.000000e+000 9.655259e-017
      outer loop
         vertex 1.287678e+002 1.329897e+002 1.310596e+002
         vertex 1.369831e+002 1.329897e+002 1.403766e+002
         vertex 1.365467e+002 1.329897e+002 1.416090e+002
      endloop
   endfacet
   facet normal 5.480465e-017 -1.000000e+000 9.655259e-017
      outer loop
         vertex 1.287678e+002 1.329897e+002 1.310596e+002
         vertex 1.365467e+002 1.329897e+002 1.416090e+002
         vertex 1.359029e+002 1.329897e+002 1.427468e+002
      endloop
   endfacet
   facet normal 5.480465e-017 -1.000000e+000 9.655259e-017
      outer loop
         vertex 1.222565e+002 1.329897e+002 1.392173e+002
         vertex 1.359029e+002 1.329897e+002 1.427468e+002
         vertex 1.224350e+002 1.329897e+002 1.402735e+002
      endloop
   endfacet
   facet normal 5.480465e-017 -1.000000e+000 9.655259e-017
      outer loop
         vertex 1.224350e+002 1.329897e+002 1.402735e+002
         vertex 1.359029e+002 1.329897e+002 1.427468e+002
         vertex 1.350713e+002 1.329897e+002 1.437556e+002
      endloop
   endfacet
   facet normal 5.480465e-017 -1.000000e+000 9.655259e-017
      outer loop
         vertex 1.224350e+002 1.329897e+002 1.402735e+002
         vertex 1.350713e+002 1.329897e+002 1.437556e+002
         vertex 1.340772e+002 1.329897e+002 1.446046e+002
      endloop
   endfacet
   facet normal 5.480465e-017 -1.000000e+000 9.655259e-017
      outer loop
         vertex 1.228974e+002 1.329897e+002 1.353883e+002
         vertex 1.235412e+002 1.329897e+002 1.342505e+002
         vertex 1.359029e+002 1.329897e+002 1.427468e+002
      endloop
   endfacet
   facet normal 5.480465e-017 -1.000000e+000 9.655259e-017
      outer loop
         vertex 1.359029e+002 1.329897e+002 1.427468e+002
         vertex 1.235412e+002 1.329897e+002 1.342505e+002
         vertex 1.243727e+002 1.329897e+002 1.332417e+002
      endloop
   endfacet
   facet normal 5.480465e-017 -1.000000e+000 9.655259e-017
      outer loop
         vertex 1.359029e+002 1.329897e+002 1.427468e+002
         vertex 1.243727e+002 1.329897e+002 1.332417e+002
         vertex 1.253669e+002 1.329897e+002 1.323927e+002
      endloop
   endfacet
   facet normal 5.480465e-017 -1.000000e+000 9.655259e-017
      outer loop
         vertex 1.253669e+002 1.329897e+002 1.323927e+002
         vertex 1.264933e+002 1.329897e+002 1.317292e+002
         vertex 1.359029e+002 1.329897e+002 1.427468e+002
      endloop
   endfacet
   facet normal 5.480465e-017 -1.000000e+000 9.655259e-017
      outer loop
         vertex 1.359029e+002 1.329897e+002 1.427468e+002
         vertex 1.264933e+002 1.329897e+002 1.317292e+002
         vertex 1.277179e+002 1.329897e+002 1.312714e+002
      endloop
   endfacet
   facet normal 5.480465e-017 -1.000000e+000 9.655259e-017
      outer loop
         vertex 1.359029e+002 1.329897e+002 1.427468e+002
         vertex 1.277179e+002 1.329897e+002 1.312714e+002
         vertex 1.287678e+002 1.329897e+002 1.310596e+002
      endloop
   endfacet
   facet normal -5.480465e-017 1.000000e+000 -9.655259e-017
      outer loop
         vertex 1.317956e+002 1.529897e+002 1.339489e+002
         vertex 1.328324e+002 1.529897e+002 1.316740e+002
         vertex 1.309740e+002 1.529897e+002 1.336579e+002
      endloop
   endfacet
   facet normal -5.480465e-017 1.000000e+000 -9.655259e-017
      outer loop
         vertex 1.309740e+002 1.529897e+002 1.336579e+002
         vertex 1.328324e+002 1.529897e+002 1.316740e+002
         vertex 1.316000e+002 1.529897e+002 1.312376e+002
      endloop
   endfacet
   facet normal -5.480465e-017 1.000000e+000 -9.655259e-017
      outer loop
         vertex 1.309740e+002 1.529897e+002 1.336579e+002
         vertex 1.316000e+002 1.529897e+002 1.312376e+002
         vertex 1.301144e+002 1.529897e+002 1.335141e+002
      endloop
   endfacet
   facet normal -5.480465e-017 1.000000e+000 -9.655259e-017
      outer loop
         vertex 1.301144e+002 1.529897e+002 1.335141e+002
         vertex 1.316000e+002 1.529897e+002 1.312376e+002
         vertex 1.303106e+002 1.529897e+002 1.310218e+002
      endloop
   endfacet
   facet normal -5.480465e-017 1.000000e+000 -9.655259e-017
      outer loop
         vertex 1.301144e+002 1.529897e+002 1.335141e+002
         vertex 1.303106e+002 1.529897e+002 1.310218e+002
         vertex 1.292429e+002 1.529897e+002 1.335217e+002
      endloop
   endfacet
   facet normal -5.480465e-017 1.000000e+000 -9.655259e-017
      outer loop
         vertex 1.292429e+002 1.529897e+002 1.335217e+002
         vertex 1.303106e+002 1.529897e+002 1.310218e+002
         vertex 1.290033e+002 1.529897e+002 1.310332e+002
      endloop
   endfacet
   facet normal -5.480465e-017 1.000000e+000 -9.655259e-017
      outer loop
         vertex 1.292429e+002 1.529897e+002 1.335217e+002
         vertex 1.290033e+002 1.529897e+002 1.310332e+002
         vertex 1.283859e+002 1.529897e+002 1.336805e+002
      endloop
   endfacet
   facet normal -5.480465e-017 1.000000e+000 -9.655259e-017
      outer loop
         vertex 1.283859e+002 1.529897e+002 1.336805e+002
         vertex 1.290033e+002 1.529897e+002 1.310332e+002
         vertex 1.277179e+002 1.529897e+002 1.312714e+002
      endloop
   endfacet
   facet normal -5.480465e-017 1.000000e+000 -9.655259e-017
      outer loop
         vertex 1.283859e+002 1.529897e+002 1.336805e+002
         vertex 1.277179e+002 1.529897e+002 1.312714e+002
         vertex 1.275695e+002 1.529897e+002 1.339857e+002
      endloop
   endfacet
   facet normal -5.480465e-017 1.000000e+000 -9.655259e-017
      outer loop
         vertex 1.275695e+002 1.529897e+002 1.339857e+002
         vertex 1.277179e+002 1.529897e+002 1.312714e+002
         vertex 1.264933e+002 1.529897e+002 1.317292e+002
      endloop
   endfacet
   facet normal -5.480465e-017 1.000000e+000 -9.655259e-017
      outer loop
         vertex 1.275695e+002 1.529897e+002 1.339857e+002
         vertex 1.264933e+002 1.529897e+002 1.317292e+002
         vertex 1.268186e+002 1.529897e+002 1.344280e+002
      endloop
   endfacet
   facet normal -5.480465e-017 1.000000e+000 -9.655259e-017
      outer loop
         vertex 1.268186e+002 1.529897e+002 1.344280e+002
         vertex 1.264933e+002 1.529897e+002 1.317292e+002
         vertex 1.253669e+002 1.529897e+002 1.323927e+002
      endloop
   endfacet
   facet normal -5.480465e-017 1.000000e+000 -9.655259e-017
      outer loop
         vertex 1.268186e+002 1.529897e+002 1.344280e+002
         vertex 1.253669e+002 1.529897e+002 1.323927e+002
         vertex 1.261558e+002 1.529897e+002 1.349940e+002
      endloop
   endfacet
   facet normal -5.480465e-017 1.000000e+000 -9.655259e-017
      outer loop
         vertex 1.261558e+002 1.529897e+002 1.349940e+002
         vertex 1.253669e+002 1.529897e+002 1.323927e+002
         vertex 1.243727e+002 1.529897e+002 1.332417e+002
      endloop
   endfacet
   facet normal -5.480465e-017 1.000000e+000 -9.655259e-017
      outer loop
         vertex 1.261558e+002 1.529897e+002 1.349940e+002
         vertex 1.243727e+002 1.529897e+002 1.332417e+002
         vertex 1.256014e+002 1.529897e+002 1.356665e+002
      endloop
   endfacet
   facet normal -5.480465e-017 1.000000e+000 -9.655259e-017
      outer loop
         vertex 1.256014e+002 1.529897e+002 1.356665e+002
         vertex 1.243727e+002 1.529897e+002 1.332417e+002
         vertex 1.235412e+002 1.529897e+002 1.342505e+002
      endloop
   endfacet
   facet normal -5.480465e-017 1.000000e+000 -9.655259e-017
      outer loop
         vertex 1.256014e+002 1.529897e+002 1.356665e+002
         vertex 1.235412e+002 1.529897e+002 1.342505e+002
         vertex 1.251722e+002 1.529897e+002 1.364251e+002
      endloop
   endfacet
   facet normal -5.480465e-017 1.000000e+000 -9.655259e-017
      outer loop
         vertex 1.251722e+002 1.529897e+002 1.364251e+002
         vertex 1.235412e+002 1.529897e+002 1.342505e+002
         vertex 1.228974e+002 1.529897e+002 1.353883e+002
      endloop
   endfacet
   facet normal -5.480465e-017 1.000000e+000 -9.655259e-017
      outer loop
         vertex 1.251722e+002 1.529897e+002 1.364251e+002
         vertex 1.228974e+002 1.529897e+002 1.353883e+002
         vertex 1.248813e+002 1.529897e+002 1.372466e+002
      endloop
   endfacet
   facet normal -5.480465e-017 1.000000e+000 -9.655259e-017
      outer loop
         vertex 1.248813e+002 1.529897e+002 1.372466e+002
         vertex 1.228974e+002 1.529897e+002 1.353883e+002
         vertex 1.224609e+002 1.529897e+002 1.366206e+002
      endloop
   endfacet
   facet normal -5.480465e-017 1.000000e+000 -9.655259e-017
      outer loop
         vertex 1.248813e+002 1.529897e+002 1.372466e+002
         vertex 1.224609e+002 1.529897e+002 1.366206e+002
         vertex 1.247374e+002 1.529897e+002 1.381062e+002
      endloop
   endfacet
   facet normal -5.480465e-017 1.000000e+000 -9.655259e-017
      outer loop
         vertex 1.247374e+002 1.529897e+002 1.381062e+002
         vertex 1.224609e+002 1.529897e+002 1.366206e+002
         vertex 1.222451e+002 1.529897e+002 1.379100e+002
      endloop
   endfacet
   facet normal -5.480465e-017 1.000000e+000 -9.655259e-017
      outer loop
         vertex 1.247374e+002 1.529897e+002 1.381062e+002
         vertex 1.222451e+002 1.529897e+002 1.379100e+002
         vertex 1.247450e+002 1.529897e+002 1.389778e+002
      endloop
   endfacet
   facet normal -5.480465e-017 1.000000e+000 -9.655259e-017
      outer loop
         vertex 1.247450e+002 1.529897e+002 1.389778e+002
         vertex 1.222451e+002 1.529897e+002 1.379100e+002
         vertex 1.222565e+002 1.529897e+002 1.392173e+002
      endloop
   endfacet
   facet normal -5.480465e-017 1.000000e+000 -9.655259e-017
      outer loop
         vertex 1.247450e+002 1.529897e+002 1.389778e+002
         vertex 1.222565e+002 1.529897e+002 1.392173e+002
         vertex 1.249038e+002 1.529897e+002 1.398347e+002
      endloop
   endfacet
   facet normal -5.480465e-017 1.000000e+000 -9.655259e-017
      outer loop
         vertex 1.249038e+002 1.529897e+002 1.398347e+002
         vertex 1.222565e+002 1.529897e+002 1.392173e+002
         vertex 1.224948e+002 1.529897e+002 1.405028e+002
      endloop
   endfacet
   facet normal -5.480465e-017 1.000000e+000 -9.655259e-017
      outer loop
         vertex 1.249038e+002 1.529897e+002 1.398347e+002
         vertex 1.224948e+002 1.529897e+002 1.405028e+002
         vertex 1.252090e+002 1.529897e+002 1.406511e+002
      endloop
   endfacet
   facet normal -5.480465e-017 1.000000e+000 -9.655259e-017
      outer loop
         vertex 1.252090e+002 1.529897e+002 1.406511e+002
         vertex 1.224948e+002 1.529897e+002 1.405028e+002
         vertex 1.229526e+002 1.529897e+002 1.417273e+002
      endloop
   endfacet
   facet normal -5.480465e-017 1.000000e+000 -9.655259e-017
      outer loop
         vertex 1.252090e+002 1.529897e+002 1.406511e+002
         vertex 1.229526e+002 1.529897e+002 1.417273e+002
         vertex 1.256514e+002 1.529897e+002 1.414021e+002
      endloop
   endfacet
   facet normal -5.480465e-017 1.000000e+000 -9.655259e-017
      outer loop
         vertex 1.256514e+002 1.529897e+002 1.414021e+002
         vertex 1.229526e+002 1.529897e+002 1.417273e+002
         vertex 1.236161e+002 1.529897e+002 1.428538e+002
      endloop
   endfacet
   facet normal -5.480465e-017 1.000000e+000 -9.655259e-017
      outer loop
         vertex 1.256514e+002 1.529897e+002 1.414021e+002
         vertex 1.236161e+002 1.529897e+002 1.428538e+002
         vertex 1.262174e+002 1.529897e+002 1.420648e+002
      endloop
   endfacet
   facet normal -5.480465e-017 1.000000e+000 -9.655259e-017
      outer loop
         vertex 1.262174e+002 1.529897e+002 1.420648e+002
         vertex 1.236161e+002 1.529897e+002 1.428538e+002
         vertex 1.244651e+002 1.529897e+002 1.438479e+002
      endloop
   endfacet
   facet normal -5.480465e-017 1.000000e+000 -9.655259e-017
      outer loop
         vertex 1.262174e+002 1.529897e+002 1.420648e+002
         vertex 1.244651e+002 1.529897e+002 1.438479e+002
         vertex 1.268899e+002 1.529897e+002 1.426192e+002
      endloop
   endfacet
   facet normal -5.480465e-017 1.000000e+000 -9.655259e-017
      outer loop
         vertex 1.268899e+002 1.529897e+002 1.426192e+002
         vertex 1.244651e+002 1.529897e+002 1.438479e+002
         vertex 1.254738e+002 1.529897e+002 1.446795e+002
      endloop
   endfacet
   facet normal -5.480465e-017 1.000000e+000 -9.655259e-017
      outer loop
         vertex 1.268899e+002 1.529897e+002 1.426192e+002
         vertex 1.254738e+002 1.529897e+002 1.446795e+002
         vertex 1.276485e+002 1.529897e+002 1.430484e+002
      endloop
   endfacet
   facet normal -5.480465e-017 1.000000e+000 -9.655259e-017
      outer loop
         vertex 1.276485e+002 1.529897e+002 1.430484e+002
         vertex 1.254738e+002 1.529897e+002 1.446795e+002
         vertex 1.266117e+002 1.529897e+002 1.453233e+002
      endloop
   endfacet
   facet normal -5.480465e-017 1.000000e+000 -9.655259e-017
      outer loop
         vertex 1.276485e+002 1.529897e+002 1.430484e+002
         vertex 1.266117e+002 1.529897e+002 1.453233e+002
         vertex 1.284700e+002 1.529897e+002 1.433394e+002
      endloop
   endfacet
   facet normal -5.480465e-017 1.000000e+000 -9.655259e-017
      outer loop
         vertex 1.284700e+002 1.529897e+002 1.433394e+002
         vertex 1.266117e+002 1.529897e+002 1.453233e+002
         vertex 1.278440e+002 1.529897e+002 1.457597e+002
      endloop
   endfacet
   facet normal -5.480465e-017 1.000000e+000 -9.655259e-017
      outer loop
         vertex 1.284700e+002 1.529897e+002 1.433394e+002
         vertex 1.278440e+002 1.529897e+002 1.457597e+002
         vertex 1.293296e+002 1.529897e+002 1.434832e+002
      endloop
   endfacet
   facet normal -5.480465e-017 1.000000e+000 -9.655259e-017
      outer loop
         vertex 1.293296e+002 1.529897e+002 1.434832e+002
         vertex 1.278440e+002 1.529897e+002 1.457597e+002
         vertex 1.291334e+002 1.529897e+002 1.459755e+002
      endloop
   endfacet
   facet normal -5.480465e-017 1.000000e+000 -9.655259e-017
      outer loop
         vertex 1.293296e+002 1.529897e+002 1.434832e+002
         vertex 1.291334e+002 1.529897e+002 1.459755e+002
         vertex 1.302011e+002 1.529897e+002 1.434756e+002
      endloop
   endfacet
   facet normal -5.480465e-017 1.000000e+000 -9.655259e-017
      outer loop
         vertex 1.302011e+002 1.529897e+002 1.434756e+002
         vertex 1.291334e+002 1.529897e+002 1.459755e+002
         vertex 1.304407e+002 1.529897e+002 1.459641e+002
      endloop
   endfacet
   facet normal -5.480465e-017 1.000000e+000 -9.655259e-017
      outer loop
         vertex 1.302011e+002 1.529897e+002 1.434756e+002
         vertex 1.304407e+002 1.529897e+002 1.459641e+002
         vertex 1.310581e+002 1.529897e+002 1.433168e+002
      endloop
   endfacet
   facet normal -5.480465e-017 1.000000e+000 -9.655259e-017
      outer loop
         vertex 1.310581e+002 1.529897e+002 1.433168e+002
         vertex 1.304407e+002 1.529897e+002 1.459641e+002
         vertex 1.317262e+002 1.529897e+002 1.457259e+002
      endloop
   endfacet
   facet normal -5.480465e-017 1.000000e+000 -9.655259e-017
      outer loop
         vertex 1.310581e+002 1.529897e+002 1.433168e+002
         vertex 1.317262e+002 1.529897e+002 1.457259e+002
         vertex 1.318745e+002 1.529897e+002 1.430116e+002
      endloop
   endfacet
   facet normal -5.480465e-017 1.000000e+000 -9.655259e-017
      outer loop
         vertex 1.318745e+002 1.529897e+002 1.430116e+002
         vertex 1.317262e+002 1.529897e+002 1.457259e+002
         vertex 1.329507e+002 1.529897e+002 1.452681e+002
      endloop
   endfacet
   facet normal -5.480465e-017 1.000000e+000 -9.655259e-017
      outer loop
         vertex 1.318745e+002 1.529897e+002 1.430116e+002
         vertex 1.329507e+002 1.529897e+002 1.452681e+002
         vertex 1.326254e+002 1.529897e+002 1.425693e+002
      endloop
   endfacet
   facet normal -5.480465e-017 1.000000e+000 -9.655259e-017
      outer loop
         vertex 1.326254e+002 1.529897e+002 1.425693e+002
         vertex 1.329507e+002 1.529897e+002 1.452681e+002
         vertex 1.340772e+002 1.529897e+002 1.446046e+002
      endloop
   endfacet
   facet normal -5.480465e-017 1.000000e+000 -9.655259e-017
      outer loop
         vertex 1.326254e+002 1.529897e+002 1.425693e+002
         vertex 1.340772e+002 1.529897e+002 1.446046e+002
         vertex 1.332882e+002 1.529897e+002 1.420033e+002
      endloop
   endfacet
   facet normal -5.480465e-017 1.000000e+000 -9.655259e-017
      outer loop
         vertex 1.332882e+002 1.529897e+002 1.420033e+002
         vertex 1.340772e+002 1.529897e+002 1.446046e+002
         vertex 1.350713e+002 1.529897e+002 1.437556e+002
      endloop
   endfacet
   facet normal -5.480465e-017 1.000000e+000 -9.655259e-017
      outer loop
         vertex 1.332882e+002 1.529897e+002 1.420033e+002
         vertex 1.350713e+002 1.529897e+002 1.437556e+002
         vertex 1.338426e+002 1.529897e+002 1.413307e+002
      endloop
   endfacet
   facet normal -5.480465e-017 1.000000e+000 -9.655259e-017
      outer loop
         vertex 1.338426e+002 1.529897e+002 1.413307e+002
         vertex 1.350713e+002 1.529897e+002 1.437556e+002
         vertex 1.359029e+002 1.529897e+002 1.427468e+002
      endloop
   endfacet
   facet normal -5.480465e-017 1.000000e+000 -9.655259e-017
      outer loop
         vertex 1.338426e+002 1.529897e+002 1.413307e+002
         vertex 1.359029e+002 1.529897e+002 1.427468e+002
         vertex 1.342718e+002 1.529897e+002 1.405722e+002
      endloop
   endfacet
   facet normal -5.480465e-017 1.000000e+000 -9.655259e-017
      outer loop
         vertex 1.342718e+002 1.529897e+002 1.405722e+002
         vertex 1.359029e+002 1.529897e+002 1.427468e+002
         vertex 1.365467e+002 1.529897e+002 1.416090e+002
      endloop
   endfacet
   facet normal -5.480465e-017 1.000000e+000 -9.655259e-017
      outer loop
         vertex 1.342718e+002 1.529897e+002 1.405722e+002
         vertex 1.365467e+002 1.529897e+002 1.416090e+002
         vertex 1.345627e+002 1.529897e+002 1.397506e+002
      endloop
   endfacet
   facet normal -5.480465e-017 1.000000e+000 -9.655259e-017
      outer loop
         vertex 1.345627e+002 1.529897e+002 1.397506e+002
         vertex 1.365467e+002 1.529897e+002 1.416090e+002
         vertex 1.369831e+002 1.529897e+002 1.403766e+002
      endloop
   endfacet
   facet normal -5.480465e-017 1.000000e+000 -9.655259e-017
      outer loop
         vertex 1.345627e+002 1.529897e+002 1.397506e+002
         vertex 1.369831e+002 1.529897e+002 1.403766e+002
         vertex 1.347066e+002 1.529897e+002 1.388910e+002
      endloop
   endfacet
   facet normal -5.480465e-017 1.000000e+000 -9.655259e-017
      outer loop
         vertex 1.347066e+002 1.529897e+002 1.388910e+002
         vertex 1.369831e+002 1.529897e+002 1.403766e+002
         vertex 1.371989e+002 1.529897e+002 1.390872e+002
      endloop
   endfacet
   facet normal -5.480465e-017 1.000000e+000 -9.655259e-017
      outer loop
         vertex 1.347066e+002 1.529897e+002 1.388910e+002
         vertex 1.371989e+002 1.529897e+002 1.390872e+002
         vertex 1.346990e+002 1.529897e+002 1.380195e+002
      endloop
   endfacet
   facet normal -5.480465e-017 1.000000e+000 -9.655259e-017
      outer loop
         vertex 1.346990e+002 1.529897e+002 1.380195e+002
         vertex 1.371989e+002 1.529897e+002 1.390872e+002
         vertex 1.371875e+002 1.529897e+002 1.377799e+002
      endloop
   endfacet
   facet normal -5.480465e-017 1.000000e+000 -9.655259e-017
      outer loop
         vertex 1.346990e+002 1.529897e+002 1.380195e+002
         vertex 1.371875e+002 1.529897e+002 1.377799e+002
         vertex 1.345402e+002 1.529897e+002 1.371625e+002
      endloop
   endfacet
   facet normal -5.480465e-017 1.000000e+000 -9.655259e-017
      outer loop
         vertex 1.345402e+002 1.529897e+002 1.371625e+002
         vertex 1.371875e+002 1.529897e+002 1.377799e+002
         vertex 1.369493e+002 1.529897e+002 1.364945e+002
      endloop
   endfacet
   facet normal -5.480465e-017 1.000000e+000 -9.655259e-017
      outer loop
         vertex 1.345402e+002 1.529897e+002 1.371625e+002
         vertex 1.369493e+002 1.529897e+002 1.364945e+002
         vertex 1.342350e+002 1.529897e+002 1.363462e+002
      endloop
   endfacet
   facet normal -5.480465e-017 1.000000e+000 -9.655259e-017
      outer loop
         vertex 1.342350e+002 1.529897e+002 1.363462e+002
         vertex 1.369493e+002 1.529897e+002 1.364945e+002
         vertex 1.364915e+002 1.529897e+002 1.352699e+002
      endloop
   endfacet
   facet normal -5.480465e-017 1.000000e+000 -9.655259e-017
      outer loop
         vertex 1.342350e+002 1.529897e+002 1.363462e+002
         vertex 1.364915e+002 1.529897e+002 1.352699e+002
         vertex 1.337926e+002 1.529897e+002 1.355952e+002
      endloop
   endfacet
   facet normal -5.480465e-017 1.000000e+000 -9.655259e-017
      outer loop
         vertex 1.337926e+002 1.529897e+002 1.355952e+002
         vertex 1.364915e+002 1.529897e+002 1.352699e+002
         vertex 1.358280e+002 1.529897e+002 1.341435e+002
      endloop
   endfacet
   facet normal -5.480465e-017 1.000000e+000 -9.655259e-017
      outer loop
         vertex 1.337926e+002 1.529897e+002 1.355952e+002
         vertex 1.358280e+002 1.529897e+002 1.341435e+002
         vertex 1.332266e+002 1.529897e+002 1.349324e+002
      endloop
   endfacet
   facet normal -5.480465e-017 1.000000e+000 -9.655259e-017
      outer loop
         vertex 1.332266e+002 1.529897e+002 1.349324e+002
         vertex 1.358280e+002 1.529897e+002 1.341435e+002
         vertex 1.349789e+002 1.529897e+002 1.331494e+002
      endloop
   endfacet
   facet normal -5.480465e-017 1.000000e+000 -9.655259e-017
      outer loop
         vertex 1.332266e+002 1.529897e+002 1.349324e+002
         vertex 1.349789e+002 1.529897e+002 1.331494e+002
         vertex 1.325541e+002 1.529897e+002 1.343781e+002
      endloop
   endfacet
   facet normal -5.480465e-017 1.000000e+000 -9.655259e-017
      outer loop
         vertex 1.325541e+002 1.529897e+002 1.343781e+002
         vertex 1.349789e+002 1.529897e+002 1.331494e+002
         vertex 1.339702e+002 1.529897e+002 1.323178e+002
      endloop
   endfacet
   facet normal -5.480465e-017 1.000000e+000 -9.655259e-017
      outer loop
         vertex 1.325541e+002 1.529897e+002 1.343781e+002
         vertex 1.339702e+002 1.529897e+002 1.323178e+002
         vertex 1.317956e+002 1.529897e+002 1.339489e+002
      endloop
   endfacet
   facet normal -5.480465e-017 1.000000e+000 -9.655259e-017
      outer loop
         vertex 1.317956e+002 1.529897e+002 1.339489e+002
         vertex 1.339702e+002 1.529897e+002 1.323178e+002
         vertex 1.328324e+002 1.529897e+002 1.316740e+002
      endloop
   endfacet
   facet normal -5.664223e-001 4.852788e-017 8.241152e-001
      outer loop
         vertex 1.174163e+002 1.429897e+002 1.652301e+002
         vertex 1.091752e+002 1.429897e+002 1.595659e+002
         vertex 1.174163e+002 1.329897e+002 1.652301e+002
      endloop
   endfacet
   facet normal -5.664223e-001 4.852788e-017 8.241152e-001
      outer loop
         vertex 1.174163e+002 1.329897e+002 1.652301e+002
         vertex 1.091752e+002 1.429897e+002 1.595659e+002
         vertex 1.091752e+002 1.329897e+002 1.595659e+002
      endloop
   endfacet
   facet normal -5.480465e-017 1.000000e+000 -9.655259e-017
      outer loop
         vertex 1.244651e+002 1.429897e+002 1.438479e+002
         vertex 1.236161e+002 1.429897e+002 1.428538e+002
         vertex 1.091752e+002 1.429897e+002 1.595659e+002
      endloop
   endfacet
   facet normal -5.480465e-017 1.000000e+000 -9.655259e-017
      outer loop
         vertex 1.291334e+002 1.429897e+002 1.459755e+002
         vertex 1.174163e+002 1.429897e+002 1.652301e+002
         vertex 1.304407e+002 1.429897e+002 1.459641e+002
      endloop
   endfacet
   facet normal -5.480465e-017 1.000000e+000 -9.655259e-017
      outer loop
         vertex 1.304407e+002 1.429897e+002 1.459641e+002
         vertex 1.174163e+002 1.429897e+002 1.652301e+002
         vertex 1.306762e+002 1.429897e+002 1.459377e+002
      endloop
   endfacet
   facet normal -5.480465e-017 1.000000e+000 -9.655259e-017
      outer loop
         vertex 1.236161e+002 1.429897e+002 1.428538e+002
         vertex 1.229526e+002 1.429897e+002 1.417273e+002
         vertex 1.091752e+002 1.429897e+002 1.595659e+002
      endloop
   endfacet
   facet normal -5.480465e-017 1.000000e+000 -9.655259e-017
      outer loop
         vertex 1.091752e+002 1.429897e+002 1.595659e+002
         vertex 1.229526e+002 1.429897e+002 1.417273e+002
         vertex 1.224948e+002 1.429897e+002 1.405028e+002
      endloop
   endfacet
   facet normal -5.480465e-017 1.000000e+000 -9.655259e-017
      outer loop
         vertex 1.091752e+002 1.429897e+002 1.595659e+002
         vertex 1.224948e+002 1.429897e+002 1.405028e+002
         vertex 1.224350e+002 1.429897e+002 1.402735e+002
      endloop
   endfacet
   facet normal -5.480465e-017 1.000000e+000 -9.655259e-017
      outer loop
         vertex 1.291334e+002 1.429897e+002 1.459755e+002
         vertex 1.278440e+002 1.429897e+002 1.457597e+002
         vertex 1.174163e+002 1.429897e+002 1.652301e+002
      endloop
   endfacet
   facet normal -5.480465e-017 1.000000e+000 -9.655259e-017
      outer loop
         vertex 1.174163e+002 1.429897e+002 1.652301e+002
         vertex 1.278440e+002 1.429897e+002 1.457597e+002
         vertex 1.266117e+002 1.429897e+002 1.453233e+002
      endloop
   endfacet
   facet normal -5.480465e-017 1.000000e+000 -9.655259e-017
      outer loop
         vertex 1.174163e+002 1.429897e+002 1.652301e+002
         vertex 1.266117e+002 1.429897e+002 1.453233e+002
         vertex 1.091752e+002 1.429897e+002 1.595659e+002
      endloop
   endfacet
   facet normal -5.480465e-017 1.000000e+000 -9.655259e-017
      outer loop
         vertex 1.091752e+002 1.429897e+002 1.595659e+002
         vertex 1.266117e+002 1.429897e+002 1.453233e+002
         vertex 1.254738e+002 1.429897e+002 1.446795e+002
      endloop
   endfacet
   facet normal -5.480465e-017 1.000000e+000 -9.655259e-017
      outer loop
         vertex 1.091752e+002 1.429897e+002 1.595659e+002
         vertex 1.254738e+002 1.429897e+002 1.446795e+002
         vertex 1.244651e+002 1.429897e+002 1.438479e+002
      endloop
   endfacet
   facet normal 8.241152e-001 9.985488e-017 5.664223e-001
      outer loop
         vertex 1.174163e+002 1.429897e+002 1.652301e+002
         vertex 1.174163e+002 1.329897e+002 1.652301e+002
         vertex 1.306762e+002 1.429897e+002 1.459377e+002
      endloop
   endfacet
   facet normal 8.241152e-001 9.985488e-017 5.664223e-001
      outer loop
         vertex 1.306762e+002 1.429897e+002 1.459377e+002
         vertex 1.174163e+002 1.329897e+002 1.652301e+002
         vertex 1.306762e+002 1.329897e+002 1.459377e+002
      endloop
   endfacet
   facet normal -8.241152e-001 -9.985488e-017 -5.664223e-001
      outer loop
         vertex 1.091752e+002 1.329897e+002 1.595659e+002
         vertex 1.091752e+002 1.429897e+002 1.595659e+002
         vertex 1.224350e+002 1.329897e+002 1.402735e+002
      endloop
   endfacet
   facet normal -8.241152e-001 -9.985488e-017 -5.664223e-001
      outer loop
         vertex 1.224350e+002 1.329897e+002 1.402735e+002
         vertex 1.091752e+002 1.429897e+002 1.595659e+002
         vertex 1.224350e+002 1.429897e+002 1.402735e+002
      endloop
   endfacet
   facet normal -5.480465e-017 1.000000e+000 -9.655259e-017
      outer loop
         vertex 1.349789e+002 1.429897e+002 1.331494e+002
         vertex 1.358280e+002 1.429897e+002 1.341435e+002
         vertex 1.502688e+002 1.429897e+002 1.174314e+002
      endloop
   endfacet
   facet normal -5.480465e-017 1.000000e+000 -9.655259e-017
      outer loop
         vertex 1.358280e+002 1.429897e+002 1.341435e+002
         vertex 1.364915e+002 1.429897e+002 1.352699e+002
         vertex 1.502688e+002 1.429897e+002 1.174314e+002
      endloop
   endfacet
   facet normal -5.480465e-017 1.000000e+000 -9.655259e-017
      outer loop
         vertex 1.502688e+002 1.429897e+002 1.174314e+002
         vertex 1.364915e+002 1.429897e+002 1.352699e+002
         vertex 1.369493e+002 1.429897e+002 1.364945e+002
      endloop
   endfacet
   facet normal -5.480465e-017 1.000000e+000 -9.655259e-017
      outer loop
         vertex 1.502688e+002 1.429897e+002 1.174314e+002
         vertex 1.369493e+002 1.429897e+002 1.364945e+002
         vertex 1.370090e+002 1.429897e+002 1.367238e+002
      endloop
   endfacet
   facet normal -5.480465e-017 1.000000e+000 -9.655259e-017
      outer loop
         vertex 1.303106e+002 1.429897e+002 1.310218e+002
         vertex 1.420277e+002 1.429897e+002 1.117672e+002
         vertex 1.290033e+002 1.429897e+002 1.310332e+002
      endloop
   endfacet
   facet normal -5.480465e-017 1.000000e+000 -9.655259e-017
      outer loop
         vertex 1.290033e+002 1.429897e+002 1.310332e+002
         vertex 1.420277e+002 1.429897e+002 1.117672e+002
         vertex 1.287678e+002 1.429897e+002 1.310596e+002
      endloop
   endfacet
   facet normal -5.480465e-017 1.000000e+000 -9.655259e-017
      outer loop
         vertex 1.303106e+002 1.429897e+002 1.310218e+002
         vertex 1.316000e+002 1.429897e+002 1.312376e+002
         vertex 1.420277e+002 1.429897e+002 1.117672e+002
      endloop
   endfacet
   facet normal -5.480465e-017 1.000000e+000 -9.655259e-017
      outer loop
         vertex 1.420277e+002 1.429897e+002 1.117672e+002
         vertex 1.316000e+002 1.429897e+002 1.312376e+002
         vertex 1.328324e+002 1.429897e+002 1.316740e+002
      endloop
   endfacet
   facet normal -5.480465e-017 1.000000e+000 -9.655259e-017
      outer loop
         vertex 1.420277e+002 1.429897e+002 1.117672e+002
         vertex 1.328324e+002 1.429897e+002 1.316740e+002
         vertex 1.502688e+002 1.429897e+002 1.174314e+002
      endloop
   endfacet
   facet normal -5.480465e-017 1.000000e+000 -9.655259e-017
      outer loop
         vertex 1.502688e+002 1.429897e+002 1.174314e+002
         vertex 1.328324e+002 1.429897e+002 1.316740e+002
         vertex 1.339702e+002 1.429897e+002 1.323178e+002
      endloop
   endfacet
   facet normal -5.480465e-017 1.000000e+000 -9.655259e-017
      outer loop
         vertex 1.502688e+002 1.429897e+002 1.174314e+002
         vertex 1.339702e+002 1.429897e+002 1.323178e+002
         vertex 1.349789e+002 1.429897e+002 1.331494e+002
      endloop
   endfacet
   facet normal -8.241152e-001 -9.985488e-017 -5.664223e-001
      outer loop
         vertex 1.420277e+002 1.429897e+002 1.117672e+002
         vertex 1.420277e+002 1.329897e+002 1.117672e+002
         vertex 1.287678e+002 1.429897e+002 1.310596e+002
      endloop
   endfacet
   facet normal -8.241152e-001 -9.985488e-017 -5.664223e-001
      outer loop
         vertex 1.287678e+002 1.429897e+002 1.310596e+002
         vertex 1.420277e+002 1.329897e+002 1.117672e+002
         vertex 1.287678e+002 1.329897e+002 1.310596e+002
      endloop
   endfacet
   facet normal 8.241152e-001 9.985488e-017 5.664223e-001
      outer loop
         vertex 1.502688e+002 1.329897e+002 1.174314e+002
         vertex 1.502688e+002 1.429897e+002 1.174314e+002
         vertex 1.370090e+002 1.329897e+002 1.367238e+002
      endloop
   endfacet
   facet normal 8.241152e-001 9.985488e-017 5.664223e-001
      outer loop
         vertex 1.370090e+002 1.329897e+002 1.367238e+002
         vertex 1.502688e+002 1.429897e+002 1.174314e+002
         vertex 1.370090e+002 1.429897e+002 1.367238e+002
      endloop
   endfacet
   facet normal 5.664223e-001 -4.852788e-017 -8.241152e-001
      outer loop
         vertex 1.420277e+002 1.429897e+002 1.117672e+002
         vertex 1.502688e+002 1.429897e+002 1.174314e+002
         vertex 1.420277e+002 1.329897e+002 1.117672e+002
      endloop
   endfacet
   facet normal 5.664223e-001 -4.852788e-017 -8.241152e-001
      outer loop
         vertex 1.420277e+002 1.329897e+002 1.117672e+002
         vertex 1.502688e+002 1.429897e+002 1.174314e+002
         vertex 1.502688e+002 1.329897e+002 1.174314e+002
      endloop
   endfacet
   facet normal -7.898267e-001 -1.025048e-016 -6.133301e-001
      outer loop
         vertex 1.261558e+002 1.629897e+002 1.349940e+002
         vertex 1.256014e+002 1.529897e+002 1.356665e+002
         vertex 1.256014e+002 1.629897e+002 1.356665e+002
      endloop
   endfacet
   facet normal -8.556213e-001 -9.686787e-017 -5.176023e-001
      outer loop
         vertex 1.256014e+002 1.629897e+002 1.356665e+002
         vertex 1.256014e+002 1.529897e+002 1.356665e+002
         vertex 1.251722e+002 1.529897e+002 1.364251e+002
      endloop
   endfacet
   facet normal -8.843311e-001 -9.354202e-017 -4.668602e-001
      outer loop
         vertex 1.256014e+002 1.629897e+002 1.356665e+002
         vertex 1.251722e+002 1.529897e+002 1.364251e+002
         vertex 1.251722e+002 1.629897e+002 1.364251e+002
      endloop
   endfacet
   facet normal -9.325032e-001 -8.597660e-017 -3.611616e-001
      outer loop
         vertex 1.251722e+002 1.629897e+002 1.364251e+002
         vertex 1.251722e+002 1.529897e+002 1.364251e+002
         vertex 1.248813e+002 1.529897e+002 1.372466e+002
      endloop
   endfacet
   facet normal -9.519656e-001 -8.173703e-017 -3.062051e-001
      outer loop
         vertex 1.251722e+002 1.629897e+002 1.364251e+002
         vertex 1.248813e+002 1.529897e+002 1.372466e+002
         vertex 1.248813e+002 1.629897e+002 1.372466e+002
      endloop
   endfacet
   facet normal -9.810515e-001 -7.247298e-017 -1.937473e-001
      outer loop
         vertex 1.248813e+002 1.629897e+002 1.372466e+002
         vertex 1.248813e+002 1.529897e+002 1.372466e+002
         vertex 1.247374e+002 1.529897e+002 1.381062e+002
      endloop
   endfacet
   facet normal -9.906750e-001 -6.744850e-017 -1.362460e-001
      outer loop
         vertex 1.248813e+002 1.629897e+002 1.372466e+002
         vertex 1.247374e+002 1.529897e+002 1.381062e+002
         vertex 1.247374e+002 1.629897e+002 1.381062e+002
      endloop
   endfacet
   facet normal -9.997910e-001 -5.676730e-017 -2.044600e-002
      outer loop
         vertex 1.247374e+002 1.629897e+002 1.381062e+002
         vertex 1.247374e+002 1.529897e+002 1.381062e+002
         vertex 1.247450e+002 1.529897e+002 1.389778e+002
      endloop
   endfacet
   facet normal -9.992833e-001 -5.111059e-017 3.785276e-002
      outer loop
         vertex 1.247374e+002 1.629897e+002 1.381062e+002
         vertex 1.247450e+002 1.529897e+002 1.389778e+002
         vertex 1.247450e+002 1.629897e+002 1.389778e+002
      endloop
   endfacet
   facet normal -9.881523e-001 -3.933679e-017 1.534765e-001
      outer loop
         vertex 1.247450e+002 1.629897e+002 1.389778e+002
         vertex 1.247450e+002 1.529897e+002 1.389778e+002
         vertex 1.249038e+002 1.529897e+002 1.398347e+002
      endloop
   endfacet
   facet normal -9.775289e-001 -3.321971e-017 2.108014e-001
      outer loop
         vertex 1.247450e+002 1.629897e+002 1.389778e+002
         vertex 1.249038e+002 1.529897e+002 1.398347e+002
         vertex 1.249038e+002 1.629897e+002 1.398347e+002
      endloop
   endfacet
   facet normal -9.464892e-001 -2.071104e-017 3.227356e-001
      outer loop
         vertex 1.249038e+002 1.629897e+002 1.398347e+002
         vertex 1.249038e+002 1.529897e+002 1.398347e+002
         vertex 1.252090e+002 1.529897e+002 1.406511e+002
      endloop
   endfacet
   facet normal -9.260728e-001 -1.431946e-017 3.773449e-001
      outer loop
         vertex 1.249038e+002 1.629897e+002 1.398347e+002
         vertex 1.252090e+002 1.529897e+002 1.406511e+002
         vertex 1.252090e+002 1.629897e+002 1.406511e+002
      endloop
   endfacet
   facet normal -8.760674e-001 -1.455998e-018 4.821887e-001
      outer loop
         vertex 1.252090e+002 1.629897e+002 1.406511e+002
         vertex 1.252090e+002 1.529897e+002 1.406511e+002
         vertex 1.256514e+002 1.529897e+002 1.414021e+002
      endloop
   endfacet
   facet normal -8.464784e-001 5.015875e-018 5.324231e-001
      outer loop
         vertex 1.252090e+002 1.629897e+002 1.406511e+002
         vertex 1.256514e+002 1.529897e+002 1.414021e+002
         vertex 1.256514e+002 1.629897e+002 1.414021e+002
      endloop
   endfacet
   facet normal -7.790267e-001 1.784329e-017 6.269907e-001
      outer loop
         vertex 1.256514e+002 1.629897e+002 1.414021e+002
         vertex 1.256514e+002 1.529897e+002 1.414021e+002
         vertex 1.262174e+002 1.529897e+002 1.420648e+002
      endloop
   endfacet
   facet normal -7.411642e-001 2.419881e-017 6.713238e-001
      outer loop
         vertex 1.256514e+002 1.629897e+002 1.414021e+002
         vertex 1.262174e+002 1.529897e+002 1.420648e+002
         vertex 1.262174e+002 1.629897e+002 1.420648e+002
      endloop
   endfacet
   facet normal -6.583158e-001 3.660041e-017 7.527419e-001
      outer loop
         vertex 1.262174e+002 1.629897e+002 1.420648e+002
         vertex 1.262174e+002 1.529897e+002 1.420648e+002
         vertex 1.268899e+002 1.529897e+002 1.426192e+002
      endloop
   endfacet
   facet normal -6.133301e-001 4.264648e-017 7.898267e-001
      outer loop
         vertex 1.262174e+002 1.629897e+002 1.420648e+002
         vertex 1.268899e+002 1.529897e+002 1.426192e+002
         vertex 1.268899e+002 1.629897e+002 1.426192e+002
      endloop
   endfacet
   facet normal -5.176023e-001 5.424545e-017 8.556213e-001
      outer loop
         vertex 1.268899e+002 1.629897e+002 1.426192e+002
         vertex 1.268899e+002 1.529897e+002 1.426192e+002
         vertex 1.276485e+002 1.529897e+002 1.430484e+002
      endloop
   endfacet
   facet normal -4.668602e-001 5.979835e-017 8.843311e-001
      outer loop
         vertex 1.268899e+002 1.629897e+002 1.426192e+002
         vertex 1.276485e+002 1.529897e+002 1.430484e+002
         vertex 1.276485e+002 1.629897e+002 1.430484e+002
      endloop
   endfacet
   facet normal -3.611616e-001 7.024227e-017 9.325032e-001
      outer loop
         vertex 1.276485e+002 1.629897e+002 1.430484e+002
         vertex 1.276485e+002 1.529897e+002 1.430484e+002
         vertex 1.284700e+002 1.529897e+002 1.433394e+002
      endloop
   endfacet
   facet normal -3.062051e-001 7.513328e-017 9.519656e-001
      outer loop
         vertex 1.276485e+002 1.629897e+002 1.430484e+002
         vertex 1.284700e+002 1.529897e+002 1.433394e+002
         vertex 1.284700e+002 1.629897e+002 1.433394e+002
      endloop
   endfacet
   facet normal -1.937473e-001 8.410481e-017 9.810515e-001
      outer loop
         vertex 1.284700e+002 1.629897e+002 1.433394e+002
         vertex 1.284700e+002 1.529897e+002 1.433394e+002
         vertex 1.293296e+002 1.529897e+002 1.434832e+002
      endloop
   endfacet
   facet normal -1.362460e-001 8.818532e-017 9.906750e-001
      outer loop
         vertex 1.284700e+002 1.629897e+002 1.433394e+002
         vertex 1.293296e+002 1.529897e+002 1.434832e+002
         vertex 1.293296e+002 1.629897e+002 1.434832e+002
      endloop
   endfacet
   facet normal -2.044600e-002 9.541187e-017 9.997910e-001
      outer loop
         vertex 1.293296e+002 1.629897e+002 1.434832e+002
         vertex 1.293296e+002 1.529897e+002 1.434832e+002
         vertex 1.302011e+002 1.529897e+002 1.434756e+002
      endloop
   endfacet
   facet normal 3.785276e-002 9.855790e-017 9.992833e-001
      outer loop
         vertex 1.293296e+002 1.629897e+002 1.434832e+002
         vertex 1.302011e+002 1.529897e+002 1.434756e+002
         vertex 1.302011e+002 1.629897e+002 1.434756e+002
      endloop
   endfacet
   facet normal 1.534765e-001 1.038199e-016 9.881523e-001
      outer loop
         vertex 1.302011e+002 1.629897e+002 1.434756e+002
         vertex 1.302011e+002 1.529897e+002 1.434756e+002
         vertex 1.310581e+002 1.529897e+002 1.433168e+002
      endloop
   endfacet
   facet normal 2.108014e-001 1.059358e-016 9.775289e-001
      outer loop
         vertex 1.302011e+002 1.629897e+002 1.434756e+002
         vertex 1.310581e+002 1.529897e+002 1.433168e+002
         vertex 1.310581e+002 1.629897e+002 1.433168e+002
      endloop
   endfacet
   facet normal 3.227356e-001 1.090734e-016 9.464892e-001
      outer loop
         vertex 1.310581e+002 1.629897e+002 1.433168e+002
         vertex 1.310581e+002 1.529897e+002 1.433168e+002
         vertex 1.318745e+002 1.529897e+002 1.430116e+002
      endloop
   endfacet
   facet normal 3.773449e-001 1.100950e-016 9.260728e-001
      outer loop
         vertex 1.310581e+002 1.629897e+002 1.433168e+002
         vertex 1.318745e+002 1.529897e+002 1.430116e+002
         vertex 1.318745e+002 1.629897e+002 1.430116e+002
      endloop
   endfacet
   facet normal 4.821887e-001 1.110128e-016 8.760674e-001
      outer loop
         vertex 1.318745e+002 1.629897e+002 1.430116e+002
         vertex 1.318745e+002 1.529897e+002 1.430116e+002
         vertex 1.326254e+002 1.529897e+002 1.425693e+002
      endloop
   endfacet
   facet normal 5.324231e-001 1.109089e-016 8.464784e-001
      outer loop
         vertex 1.318745e+002 1.629897e+002 1.430116e+002
         vertex 1.326254e+002 1.529897e+002 1.425693e+002
         vertex 1.326254e+002 1.629897e+002 1.425693e+002
      endloop
   endfacet
   facet normal 6.269907e-001 1.095791e-016 7.790267e-001
      outer loop
         vertex 1.326254e+002 1.629897e+002 1.425693e+002
         vertex 1.326254e+002 1.529897e+002 1.425693e+002
         vertex 1.332882e+002 1.529897e+002 1.420033e+002
      endloop
   endfacet
   facet normal 6.713238e-001 1.083530e-016 7.411642e-001
      outer loop
         vertex 1.326254e+002 1.629897e+002 1.425693e+002
         vertex 1.332882e+002 1.529897e+002 1.420033e+002
         vertex 1.332882e+002 1.629897e+002 1.420033e+002
      endloop
   endfacet
   facet normal 7.527419e-001 1.048158e-016 6.583158e-001
      outer loop
         vertex 1.332882e+002 1.629897e+002 1.420033e+002
         vertex 1.332882e+002 1.529897e+002 1.420033e+002
         vertex 1.338426e+002 1.529897e+002 1.413307e+002
      endloop
   endfacet
   facet normal 7.898267e-001 1.025048e-016 6.133301e-001
      outer loop
         vertex 1.332882e+002 1.629897e+002 1.420033e+002
         vertex 1.338426e+002 1.529897e+002 1.413307e+002
         vertex 1.338426e+002 1.629897e+002 1.413307e+002
      endloop
   endfacet
   facet normal 8.556213e-001 9.686787e-017 5.176023e-001
      outer loop
         vertex 1.338426e+002 1.629897e+002 1.413307e+002
         vertex 1.338426e+002 1.529897e+002 1.413307e+002
         vertex 1.342718e+002 1.529897e+002 1.405722e+002
      endloop
   endfacet
   facet normal 8.843311e-001 9.354202e-017 4.668602e-001
      outer loop
         vertex 1.338426e+002 1.629897e+002 1.413307e+002
         vertex 1.342718e+002 1.529897e+002 1.405722e+002
         vertex 1.342718e+002 1.629897e+002 1.405722e+002
      endloop
   endfacet
   facet normal 9.325032e-001 8.597660e-017 3.611616e-001
      outer loop
         vertex 1.342718e+002 1.629897e+002 1.405722e+002
         vertex 1.342718e+002 1.529897e+002 1.405722e+002
         vertex 1.345627e+002 1.529897e+002 1.397506e+002
      endloop
   endfacet
   facet normal 9.519656e-001 8.173703e-017 3.062051e-001
      outer loop
         vertex 1.342718e+002 1.629897e+002 1.405722e+002
         vertex 1.345627e+002 1.529897e+002 1.397506e+002
         vertex 1.345627e+002 1.629897e+002 1.397506e+002
      endloop
   endfacet
   facet normal 9.810515e-001 7.247298e-017 1.937473e-001
      outer loop
         vertex 1.345627e+002 1.629897e+002 1.397506e+002
         vertex 1.345627e+002 1.529897e+002 1.397506e+002
         vertex 1.347066e+002 1.529897e+002 1.388910e+002
      endloop
   endfacet
   facet normal 9.906750e-001 6.744850e-017 1.362460e-001
      outer loop
         vertex 1.345627e+002 1.629897e+002 1.397506e+002
         vertex 1.347066e+002 1.529897e+002 1.388910e+002
         vertex 1.347066e+002 1.629897e+002 1.388910e+002
      endloop
   endfacet
   facet normal 9.997910e-001 5.676730e-017 2.044600e-002
      outer loop
         vertex 1.347066e+002 1.629897e+002 1.388910e+002
         vertex 1.347066e+002 1.529897e+002 1.388910e+002
         vertex 1.346990e+002 1.529897e+002 1.380195e+002
      endloop
   endfacet
   facet normal 9.992833e-001 5.111059e-017 -3.785276e-002
      outer loop
         vertex 1.347066e+002 1.629897e+002 1.388910e+002
         vertex 1.346990e+002 1.529897e+002 1.380195e+002
         vertex 1.346990e+002 1.629897e+002 1.380195e+002
      endloop
   endfacet
   facet normal 9.881523e-001 3.933679e-017 -1.534765e-001
      outer loop
         vertex 1.346990e+002 1.629897e+002 1.380195e+002
         vertex 1.346990e+002 1.529897e+002 1.380195e+002
         vertex 1.345402e+002 1.529897e+002 1.371625e+002
      endloop
   endfacet
   facet normal 9.775289e-001 3.321971e-017 -2.108014e-001
      outer loop
         vertex 1.346990e+002 1.629897e+002 1.380195e+002
         vertex 1.345402e+002 1.529897e+002 1.371625e+002
         vertex 1.345402e+002 1.629897e+002 1.371625e+002
      endloop
   endfacet
   facet normal 9.464892e-001 2.071104e-017 -3.227356e-001
      outer loop
         vertex 1.345402e+002 1.629897e+002 1.371625e+002
         vertex 1.345402e+002 1.529897e+002 1.371625e+002
         vertex 1.342350e+002 1.529897e+002 1.363462e+002
      endloop
   endfacet
   facet normal 9.260728e-001 1.431946e-017 -3.773449e-001
      outer loop
         vertex 1.345402e+002 1.629897e+002 1.371625e+002
         vertex 1.342350e+002 1.529897e+002 1.363462e+002
         vertex 1.342350e+002 1.629897e+002 1.363462e+002
      endloop
   endfacet
   facet normal 8.760674e-001 1.455998e-018 -4.821887e-001
      outer loop
         vertex 1.342350e+002 1.629897e+002 1.363462e+002
         vertex 1.342350e+002 1.529897e+002 1.363462e+002
         vertex 1.337926e+002 1.529897e+002 1.355952e+002
      endloop
   endfacet
   facet normal 8.464784e-001 -5.015875e-018 -5.324231e-001
      outer loop
         vertex 1.342350e+002 1.629897e+002 1.363462e+002
         vertex 1.337926e+002 1.529897e+002 1.355952e+002
         vertex 1.337926e+002 1.629897e+002 1.355952e+002
      endloop
   endfacet
   facet normal 7.790267e-001 -1.784329e-017 -6.269907e-001
      outer loop
         vertex 1.337926e+002 1.629897e+002 1.355952e+002
         vertex 1.337926e+002 1.529897e+002 1.355952e+002
         vertex 1.332266e+002 1.529897e+002 1.349324e+002
      endloop
   endfacet
   facet normal 7.411642e-001 -2.419881e-017 -6.713238e-001
      outer loop
         vertex 1.337926e+002 1.629897e+002 1.355952e+002
         vertex 1.332266e+002 1.529897e+002 1.349324e+002
         vertex 1.332266e+002 1.629897e+002 1.349324e+002
      endloop
   endfacet
   facet normal 6.583158e-001 -3.660041e-017 -7.527419e-001
      outer loop
         vertex 1.332266e+002 1.629897e+002 1.349324e+002
         vertex 1.332266e+002 1.529897e+002 1.349324e+002
         vertex 1.325541e+002 1.529897e+002 1.343781e+002
      endloop
   endfacet
   facet normal 6.133301e-001 -4.264648e-017 -7.898267e-001
      outer loop
         vertex 1.332266e+002 1.629897e+002 1.349324e+002
         vertex 1.325541e+002 1.529897e+002 1.343781e+002
         vertex 1.325541e+002 1.629897e+002 1.343781e+002
      endloop
   endfacet
   facet normal 5.176023e-001 -5.424545e-017 -8.556213e-001
      outer loop
         vertex 1.325541e+002 1.629897e+002 1.343781e+002
         vertex 1.325541e+002 1.529897e+002 1.343781e+002
         vertex 1.317956e+002 1.529897e+002 1.339489e+002
      endloop
   endfacet
   facet normal 4.668602e-001 -5.979835e-017 -8.843311e-001
      outer loop
         vertex 1.325541e+002 1.629897e+002 1.343781e+002
         vertex 1.317956e+002 1.529897e+002 1.339489e+002
         vertex 1.317956e+002 1.629897e+002 1.339489e+002
      endloop
   endfacet
   facet normal 3.611616e-001 -7.024227e-017 -9.325032e-001
      outer loop
         vertex 1.317956e+002 1.629897e+002 1.339489e+002
         vertex 1.317956e+002 1.529897e+002 1.339489e+002
         vertex 1.309740e+002 1.529897e+002 1.336579e+002
      endloop
   endfacet
   facet normal 3.062051e-001 -7.513328e-017 -9.519656e-001
      outer loop
         vertex 1.317956e+002 1.629897e+002 1.339489e+002
         vertex 1.309740e+002 1.529897e+002 1.336579e+002
         vertex 1.309740e+002 1.629897e+002 1.336579e+002
      endloop
   endfacet
   facet normal 1.937473e-001 -8.410481e-017 -9.810515e-001
      outer loop
         vertex 1.309740e+002 1.629897e+002 1.336579e+002
         vertex 1.309740e+002 1.529897e+002 1.336579e+002
         vertex 1.301144e+002 1.529897e+002 1.335141e+002
      endloop
   endfacet
   facet normal 1.362460e-001 -8.818532e-017 -9.906750e-001
      outer loop
         vertex 1.309740e+002 1.629897e+002 1.336579e+002
         vertex 1.301144e+002 1.529897e+002 1.335141e+002
         vertex 1.301144e+002 1.629897e+002 1.335141e+002
      endloop
   endfacet
   facet normal 2.044600e-002 -9.541187e-017 -9.997910e-001
      outer loop
         vertex 1.301144e+002 1.629897e+002 1.335141e+002
         vertex 1.301144e+002 1.529897e+002 1.335141e+002
         vertex 1.292429e+002 1.529897e+002 1.335217e+002
      endloop
   endfacet
   facet normal -3.785276e-002 -9.855790e-017 -9.992833e-001
      outer loop
         vertex 1.301144e+002 1.629897e+002 1.335141e+002
         vertex 1.292429e+002 1.529897e+002 1.335217e+002
         vertex 1.292429e+002 1.629897e+002 1.335217e+002
      endloop
   endfacet
   facet normal -1.534765e-001 -1.038199e-016 -9.881523e-001
      outer loop
         vertex 1.292429e+002 1.629897e+002 1.335217e+002
         vertex 1.292429e+002 1.529897e+002 1.335217e+002
         vertex 1.283859e+002 1.529897e+002 1.336805e+002
      endloop
   endfacet
   facet normal -2.108014e-001 -1.059358e-016 -9.775289e-001
      outer loop
         vertex 1.292429e+002 1.629897e+002 1.335217e+002
         vertex 1.283859e+002 1.529897e+002 1.336805e+002
         vertex 1.283859e+002 1.629897e+002 1.336805e+002
      endloop
   endfacet
   facet normal -3.227356e-001 -1.090734e-016 -9.464892e-001
      outer loop
         vertex 1.283859e+002 1.629897e+002 1.336805e+002
         vertex 1.283859e+002 1.529897e+002 1.336805e+002
         vertex 1.275695e+002 1.529897e+002 1.339857e+002
      endloop
   endfacet
   facet normal -3.773449e-001 -1.100950e-016 -9.260728e-001
      outer loop
         vertex 1.283859e+002 1.629897e+002 1.336805e+002
         vertex 1.275695e+002 1.529897e+002 1.339857e+002
         vertex 1.275695e+002 1.629897e+002 1.339857e+002
      endloop
   endfacet
   facet normal -4.821887e-001 -1.110128e-016 -8.760674e-001
      outer loop
         vertex 1.275695e+002 1.629897e+002 1.339857e+002
         vertex 1.275695e+002 1.529897e+002 1.339857e+002
         vertex 1.268186e+002 1.529897e+002 1.344280e+002
      endloop
   endfacet
   facet normal -5.324231e-001 -1.109089e-016 -8.464784e-001
      outer loop
         vertex 1.275695e+002 1.629897e+002 1.339857e+002
         vertex 1.268186e+002 1.529897e+002 1.344280e+002
         vertex 1.268186e+002 1.629897e+002 1.344280e+002
      endloop
   endfacet
   facet normal -6.269907e-001 -1.095791e-016 -7.790267e-001
      outer loop
         vertex 1.268186e+002 1.629897e+002 1.344280e+002
         vertex 1.268186e+002 1.529897e+002 1.344280e+002
         vertex 1.261558e+002 1.529897e+002 1.349940e+002
      endloop
   endfacet
   facet normal -6.713238e-001 -1.083530e-016 -7.411642e-001
      outer loop
         vertex 1.268186e+002 1.629897e+002 1.344280e+002
         vertex 1.261558e+002 1.529897e+002 1.349940e+002
         vertex 1.261558e+002 1.629897e+002 1.349940e+002
      endloop
   endfacet
   facet normal -7.527419e-001 -1.048158e-016 -6.583158e-001
      outer loop
         vertex 1.261558e+002 1.629897e+002 1.349940e+002
         vertex 1.261558e+002 1.529897e+002 1.349940e+002
         vertex 1.256014e+002 1.529897e+002 1.356665e+002
      endloop
   endfacet
   facet normal -5.480465e-017 1.000000e+000 -9.655259e-017
      outer loop
         vertex 1.268899e+002 1.629897e+002 1.426192e+002
         vertex 1.276485e+002 1.629897e+002 1.430484e+002
         vertex 1.342350e+002 1.629897e+002 1.363462e+002
      endloop
   endfacet
   facet normal -5.480465e-017 1.000000e+000 -9.655259e-017
      outer loop
         vertex 1.337926e+002 1.629897e+002 1.355952e+002
         vertex 1.332266e+002 1.629897e+002 1.349324e+002
         vertex 1.252090e+002 1.629897e+002 1.406511e+002
      endloop
   endfacet
   facet normal -5.480465e-017 1.000000e+000 -9.655259e-017
      outer loop
         vertex 1.268899e+002 1.629897e+002 1.426192e+002
         vertex 1.342350e+002 1.629897e+002 1.363462e+002
         vertex 1.262174e+002 1.629897e+002 1.420648e+002
      endloop
   endfacet
   facet normal -5.480465e-017 1.000000e+000 -9.655259e-017
      outer loop
         vertex 1.247374e+002 1.629897e+002 1.381062e+002
         vertex 1.247450e+002 1.629897e+002 1.389778e+002
         vertex 1.317956e+002 1.629897e+002 1.339489e+002
      endloop
   endfacet
   facet normal -5.480465e-017 1.000000e+000 -9.655259e-017
      outer loop
         vertex 1.337926e+002 1.629897e+002 1.355952e+002
         vertex 1.252090e+002 1.629897e+002 1.406511e+002
         vertex 1.342350e+002 1.629897e+002 1.363462e+002
      endloop
   endfacet
   facet normal -5.480465e-017 1.000000e+000 -9.655259e-017
      outer loop
         vertex 1.342350e+002 1.629897e+002 1.363462e+002
         vertex 1.252090e+002 1.629897e+002 1.406511e+002
         vertex 1.256514e+002 1.629897e+002 1.414021e+002
      endloop
   endfacet
   facet normal -5.480465e-017 1.000000e+000 -9.655259e-017
      outer loop
         vertex 1.342350e+002 1.629897e+002 1.363462e+002
         vertex 1.256514e+002 1.629897e+002 1.414021e+002
         vertex 1.262174e+002 1.629897e+002 1.420648e+002
      endloop
   endfacet
   facet normal -5.480465e-017 1.000000e+000 -9.655259e-017
      outer loop
         vertex 1.332266e+002 1.629897e+002 1.349324e+002
         vertex 1.325541e+002 1.629897e+002 1.343781e+002
         vertex 1.252090e+002 1.629897e+002 1.406511e+002
      endloop
   endfacet
   facet normal -5.480465e-017 1.000000e+000 -9.655259e-017
      outer loop
         vertex 1.252090e+002 1.629897e+002 1.406511e+002
         vertex 1.325541e+002 1.629897e+002 1.343781e+002
         vertex 1.317956e+002 1.629897e+002 1.339489e+002
      endloop
   endfacet
   facet normal -5.480465e-017 1.000000e+000 -9.655259e-017
      outer loop
         vertex 1.252090e+002 1.629897e+002 1.406511e+002
         vertex 1.317956e+002 1.629897e+002 1.339489e+002
         vertex 1.249038e+002 1.629897e+002 1.398347e+002
      endloop
   endfacet
   facet normal -5.480465e-017 1.000000e+000 -9.655259e-017
      outer loop
         vertex 1.249038e+002 1.629897e+002 1.398347e+002
         vertex 1.317956e+002 1.629897e+002 1.339489e+002
         vertex 1.247450e+002 1.629897e+002 1.389778e+002
      endloop
   endfacet
   facet normal -5.480465e-017 1.000000e+000 -9.655259e-017
      outer loop
         vertex 1.284700e+002 1.629897e+002 1.433394e+002
         vertex 1.346990e+002 1.629897e+002 1.380195e+002
         vertex 1.276485e+002 1.629897e+002 1.430484e+002
      endloop
   endfacet
   facet normal -5.480465e-017 1.000000e+000 -9.655259e-017
      outer loop
         vertex 1.276485e+002 1.629897e+002 1.430484e+002
         vertex 1.346990e+002 1.629897e+002 1.380195e+002
         vertex 1.345402e+002 1.629897e+002 1.371625e+002
      endloop
   endfacet
   facet normal -5.480465e-017 1.000000e+000 -9.655259e-017
      outer loop
         vertex 1.276485e+002 1.629897e+002 1.430484e+002
         vertex 1.345402e+002 1.629897e+002 1.371625e+002
         vertex 1.342350e+002 1.629897e+002 1.363462e+002
      endloop
   endfacet
   facet normal -5.480465e-017 1.000000e+000 -9.655259e-017
      outer loop
         vertex 1.284700e+002 1.629897e+002 1.433394e+002
         vertex 1.293296e+002 1.629897e+002 1.434832e+002
         vertex 1.346990e+002 1.629897e+002 1.380195e+002
      endloop
   endfacet
   facet normal -5.480465e-017 1.000000e+000 -9.655259e-017
      outer loop
         vertex 1.346990e+002 1.629897e+002 1.380195e+002
         vertex 1.293296e+002 1.629897e+002 1.434832e+002
         vertex 1.302011e+002 1.629897e+002 1.434756e+002
      endloop
   endfacet
   facet normal -5.480465e-017 1.000000e+000 -9.655259e-017
      outer loop
         vertex 1.346990e+002 1.629897e+002 1.380195e+002
         vertex 1.302011e+002 1.629897e+002 1.434756e+002
         vertex 1.310581e+002 1.629897e+002 1.433168e+002
      endloop
   endfacet
   facet normal -5.480465e-017 1.000000e+000 -9.655259e-017
      outer loop
         vertex 1.247374e+002 1.629897e+002 1.381062e+002
         vertex 1.317956e+002 1.629897e+002 1.339489e+002
         vertex 1.248813e+002 1.629897e+002 1.372466e+002
      endloop
   endfacet
   facet normal -5.480465e-017 1.000000e+000 -9.655259e-017
      outer loop
         vertex 1.248813e+002 1.629897e+002 1.372466e+002
         vertex 1.317956e+002 1.629897e+002 1.339489e+002
         vertex 1.309740e+002 1.629897e+002 1.336579e+002
      endloop
   endfacet
   facet normal -5.480465e-017 1.000000e+000 -9.655259e-017
      outer loop
         vertex 1.248813e+002 1.629897e+002 1.372466e+002
         vertex 1.309740e+002 1.629897e+002 1.336579e+002
         vertex 1.301144e+002 1.629897e+002 1.335141e+002
      endloop
   endfacet
   facet normal -5.480465e-017 1.000000e+000 -9.655259e-017
      outer loop
         vertex 1.275695e+002 1.629897e+002 1.339857e+002
         vertex 1.268186e+002 1.629897e+002 1.344280e+002
         vertex 1.248813e+002 1.629897e+002 1.372466e+002
      endloop
   endfacet
   facet normal -5.480465e-017 1.000000e+000 -9.655259e-017
      outer loop
         vertex 1.248813e+002 1.629897e+002 1.372466e+002
         vertex 1.268186e+002 1.629897e+002 1.344280e+002
         vertex 1.261558e+002 1.629897e+002 1.349940e+002
      endloop
   endfacet
   facet normal -5.480465e-017 1.000000e+000 -9.655259e-017
      outer loop
         vertex 1.248813e+002 1.629897e+002 1.372466e+002
         vertex 1.261558e+002 1.629897e+002 1.349940e+002
         vertex 1.251722e+002 1.629897e+002 1.364251e+002
      endloop
   endfacet
   facet normal -5.480465e-017 1.000000e+000 -9.655259e-017
      outer loop
         vertex 1.251722e+002 1.629897e+002 1.364251e+002
         vertex 1.261558e+002 1.629897e+002 1.349940e+002
         vertex 1.256014e+002 1.629897e+002 1.356665e+002
      endloop
   endfacet
   facet normal -5.480465e-017 1.000000e+000 -9.655259e-017
      outer loop
         vertex 1.310581e+002 1.629897e+002 1.433168e+002
         vertex 1.318745e+002 1.629897e+002 1.430116e+002
         vertex 1.346990e+002 1.629897e+002 1.380195e+002
      endloop
   endfacet
   facet normal -5.480465e-017 1.000000e+000 -9.655259e-017
      outer loop
         vertex 1.346990e+002 1.629897e+002 1.380195e+002
         vertex 1.318745e+002 1.629897e+002 1.430116e+002
         vertex 1.326254e+002 1.629897e+002 1.425693e+002
      endloop
   endfacet
   facet normal -5.480465e-017 1.000000e+000 -9.655259e-017
      outer loop
         vertex 1.346990e+002 1.629897e+002 1.380195e+002
         vertex 1.326254e+002 1.629897e+002 1.425693e+002
         vertex 1.332882e+002 1.629897e+002 1.420033e+002
      endloop
   endfacet
   facet normal -5.480465e-017 1.000000e+000 -9.655259e-017
      outer loop
         vertex 1.301144e+002 1.629897e+002 1.335141e+002
         vertex 1.292429e+002 1.629897e+002 1.335217e+002
         vertex 1.248813e+002 1.629897e+002 1.372466e+002
      endloop
   endfacet
   facet normal -5.480465e-017 1.000000e+000 -9.655259e-017
      outer loop
         vertex 1.248813e+002 1.629897e+002 1.372466e+002
         vertex 1.292429e+002 1.629897e+002 1.335217e+002
         vertex 1.283859e+002 1.629897e+002 1.336805e+002
      endloop
   endfacet
   facet normal -5.480465e-017 1.000000e+000 -9.655259e-017
      outer loop
         vertex 1.248813e+002 1.629897e+002 1.372466e+002
         vertex 1.283859e+002 1.629897e+002 1.336805e+002
         vertex 1.275695e+002 1.629897e+002 1.339857e+002
      endloop
   endfacet
   facet normal -5.480465e-017 1.000000e+000 -9.655259e-017
      outer loop
         vertex 1.332882e+002 1.629897e+002 1.420033e+002
         vertex 1.338426e+002 1.629897e+002 1.413307e+002
         vertex 1.346990e+002 1.629897e+002 1.380195e+002
      endloop
   endfacet
   facet normal -5.480465e-017 1.000000e+000 -9.655259e-017
      outer loop
         vertex 1.346990e+002 1.629897e+002 1.380195e+002
         vertex 1.338426e+002 1.629897e+002 1.413307e+002
         vertex 1.342718e+002 1.629897e+002 1.405722e+002
      endloop
   endfacet
   facet normal -5.480465e-017 1.000000e+000 -9.655259e-017
      outer loop
         vertex 1.346990e+002 1.629897e+002 1.380195e+002
         vertex 1.342718e+002 1.629897e+002 1.405722e+002
         vertex 1.347066e+002 1.629897e+002 1.388910e+002
      endloop
   endfacet
   facet normal -5.480465e-017 1.000000e+000 -9.655259e-017
      outer loop
         vertex 1.347066e+002 1.629897e+002 1.388910e+002
         vertex 1.342718e+002 1.629897e+002 1.405722e+002
         vertex 1.345627e+002 1.629897e+002 1.397506e+002
      endloop
   endfacet
endsolid